%TF.GenerationSoftware,KiCad,Pcbnew,8.0.7*%
%TF.CreationDate,2025-01-15T19:07:21+07:00*%
%TF.ProjectId,Teensy4.0,5465656e-7379-4342-9e30-2e6b69636164,rev?*%
%TF.SameCoordinates,Original*%
%TF.FileFunction,Legend,Top*%
%TF.FilePolarity,Positive*%
%FSLAX46Y46*%
G04 Gerber Fmt 4.6, Leading zero omitted, Abs format (unit mm)*
G04 Created by KiCad (PCBNEW 8.0.7) date 2025-01-15 19:07:21*
%MOMM*%
%LPD*%
G01*
G04 APERTURE LIST*
G04 Aperture macros list*
%AMRoundRect*
0 Rectangle with rounded corners*
0 $1 Rounding radius*
0 $2 $3 $4 $5 $6 $7 $8 $9 X,Y pos of 4 corners*
0 Add a 4 corners polygon primitive as box body*
4,1,4,$2,$3,$4,$5,$6,$7,$8,$9,$2,$3,0*
0 Add four circle primitives for the rounded corners*
1,1,$1+$1,$2,$3*
1,1,$1+$1,$4,$5*
1,1,$1+$1,$6,$7*
1,1,$1+$1,$8,$9*
0 Add four rect primitives between the rounded corners*
20,1,$1+$1,$2,$3,$4,$5,0*
20,1,$1+$1,$4,$5,$6,$7,0*
20,1,$1+$1,$6,$7,$8,$9,0*
20,1,$1+$1,$8,$9,$2,$3,0*%
G04 Aperture macros list end*
%ADD10C,0.300000*%
%ADD11C,0.150000*%
%ADD12C,0.254000*%
%ADD13C,0.000000*%
%ADD14C,0.152400*%
%ADD15C,0.200000*%
%ADD16C,0.120000*%
%ADD17R,0.850000X0.280000*%
%ADD18R,0.280000X0.850000*%
%ADD19C,0.508000*%
%ADD20R,0.300000X0.850000*%
%ADD21RoundRect,0.250000X-0.350000X-0.625000X0.350000X-0.625000X0.350000X0.625000X-0.350000X0.625000X0*%
%ADD22O,1.200000X1.750000*%
%ADD23R,2.000000X2.000000*%
%ADD24C,2.000000*%
%ADD25C,3.200000*%
%ADD26RoundRect,0.250000X0.475000X-0.337500X0.475000X0.337500X-0.475000X0.337500X-0.475000X-0.337500X0*%
%ADD27R,1.700000X1.700000*%
%ADD28O,1.700000X1.700000*%
%ADD29RoundRect,0.250000X-0.475000X0.337500X-0.475000X-0.337500X0.475000X-0.337500X0.475000X0.337500X0*%
%ADD30RoundRect,0.250000X0.350000X0.450000X-0.350000X0.450000X-0.350000X-0.450000X0.350000X-0.450000X0*%
%ADD31RoundRect,0.250000X-0.350000X-0.450000X0.350000X-0.450000X0.350000X0.450000X-0.350000X0.450000X0*%
%ADD32RoundRect,0.250000X-0.337500X-0.475000X0.337500X-0.475000X0.337500X0.475000X-0.337500X0.475000X0*%
%ADD33RoundRect,0.250000X0.337500X0.475000X-0.337500X0.475000X-0.337500X-0.475000X0.337500X-0.475000X0*%
%ADD34RoundRect,0.050000X-0.225000X-0.050000X0.225000X-0.050000X0.225000X0.050000X-0.225000X0.050000X0*%
%ADD35RoundRect,0.050000X0.050000X-0.225000X0.050000X0.225000X-0.050000X0.225000X-0.050000X-0.225000X0*%
%ADD36RoundRect,0.250000X0.450000X-0.325000X0.450000X0.325000X-0.450000X0.325000X-0.450000X-0.325000X0*%
%ADD37RoundRect,0.250000X1.000000X-1.750000X1.000000X1.750000X-1.000000X1.750000X-1.000000X-1.750000X0*%
%ADD38C,1.700000*%
%ADD39RoundRect,0.250000X0.450000X-0.350000X0.450000X0.350000X-0.450000X0.350000X-0.450000X-0.350000X0*%
%ADD40R,2.600000X2.600000*%
%ADD41C,2.600000*%
%ADD42C,1.600000*%
%ADD43RoundRect,0.250000X-0.450000X0.350000X-0.450000X-0.350000X0.450000X-0.350000X0.450000X0.350000X0*%
%ADD44RoundRect,0.150000X0.512500X0.150000X-0.512500X0.150000X-0.512500X-0.150000X0.512500X-0.150000X0*%
%ADD45RoundRect,0.250000X-0.450000X0.325000X-0.450000X-0.325000X0.450000X-0.325000X0.450000X0.325000X0*%
%ADD46R,0.558800X1.422400*%
%ADD47R,2.260600X1.498600*%
G04 APERTURE END LIST*
D10*
X109440225Y-102100828D02*
X109940225Y-103600828D01*
X109940225Y-103600828D02*
X110440225Y-102100828D01*
X111225939Y-102100828D02*
X111368796Y-102100828D01*
X111368796Y-102100828D02*
X111511653Y-102172257D01*
X111511653Y-102172257D02*
X111583082Y-102243685D01*
X111583082Y-102243685D02*
X111654510Y-102386542D01*
X111654510Y-102386542D02*
X111725939Y-102672257D01*
X111725939Y-102672257D02*
X111725939Y-103029400D01*
X111725939Y-103029400D02*
X111654510Y-103315114D01*
X111654510Y-103315114D02*
X111583082Y-103457971D01*
X111583082Y-103457971D02*
X111511653Y-103529400D01*
X111511653Y-103529400D02*
X111368796Y-103600828D01*
X111368796Y-103600828D02*
X111225939Y-103600828D01*
X111225939Y-103600828D02*
X111083082Y-103529400D01*
X111083082Y-103529400D02*
X111011653Y-103457971D01*
X111011653Y-103457971D02*
X110940224Y-103315114D01*
X110940224Y-103315114D02*
X110868796Y-103029400D01*
X110868796Y-103029400D02*
X110868796Y-102672257D01*
X110868796Y-102672257D02*
X110940224Y-102386542D01*
X110940224Y-102386542D02*
X111011653Y-102243685D01*
X111011653Y-102243685D02*
X111083082Y-102172257D01*
X111083082Y-102172257D02*
X111225939Y-102100828D01*
X112368795Y-103457971D02*
X112440224Y-103529400D01*
X112440224Y-103529400D02*
X112368795Y-103600828D01*
X112368795Y-103600828D02*
X112297367Y-103529400D01*
X112297367Y-103529400D02*
X112368795Y-103457971D01*
X112368795Y-103457971D02*
X112368795Y-103600828D01*
X113011653Y-102243685D02*
X113083081Y-102172257D01*
X113083081Y-102172257D02*
X113225939Y-102100828D01*
X113225939Y-102100828D02*
X113583081Y-102100828D01*
X113583081Y-102100828D02*
X113725939Y-102172257D01*
X113725939Y-102172257D02*
X113797367Y-102243685D01*
X113797367Y-102243685D02*
X113868796Y-102386542D01*
X113868796Y-102386542D02*
X113868796Y-102529400D01*
X113868796Y-102529400D02*
X113797367Y-102743685D01*
X113797367Y-102743685D02*
X112940224Y-103600828D01*
X112940224Y-103600828D02*
X113868796Y-103600828D01*
X109983082Y-94670996D02*
X109983082Y-95742425D01*
X109983082Y-95742425D02*
X109911653Y-95956710D01*
X109911653Y-95956710D02*
X109768796Y-96099568D01*
X109768796Y-96099568D02*
X109554510Y-96170996D01*
X109554510Y-96170996D02*
X109411653Y-96170996D01*
X110697367Y-96170996D02*
X110697367Y-95170996D01*
X110697367Y-94670996D02*
X110625939Y-94742425D01*
X110625939Y-94742425D02*
X110697367Y-94813853D01*
X110697367Y-94813853D02*
X110768796Y-94742425D01*
X110768796Y-94742425D02*
X110697367Y-94670996D01*
X110697367Y-94670996D02*
X110697367Y-94813853D01*
X111411653Y-96170996D02*
X111411653Y-95170996D01*
X111411653Y-95456710D02*
X111483082Y-95313853D01*
X111483082Y-95313853D02*
X111554511Y-95242425D01*
X111554511Y-95242425D02*
X111697368Y-95170996D01*
X111697368Y-95170996D02*
X111840225Y-95170996D01*
X112983082Y-96170996D02*
X112983082Y-95385282D01*
X112983082Y-95385282D02*
X112911653Y-95242425D01*
X112911653Y-95242425D02*
X112768796Y-95170996D01*
X112768796Y-95170996D02*
X112483082Y-95170996D01*
X112483082Y-95170996D02*
X112340224Y-95242425D01*
X112983082Y-96099568D02*
X112840224Y-96170996D01*
X112840224Y-96170996D02*
X112483082Y-96170996D01*
X112483082Y-96170996D02*
X112340224Y-96099568D01*
X112340224Y-96099568D02*
X112268796Y-95956710D01*
X112268796Y-95956710D02*
X112268796Y-95813853D01*
X112268796Y-95813853D02*
X112340224Y-95670996D01*
X112340224Y-95670996D02*
X112483082Y-95599568D01*
X112483082Y-95599568D02*
X112840224Y-95599568D01*
X112840224Y-95599568D02*
X112983082Y-95528139D01*
X113697367Y-96170996D02*
X113697367Y-94670996D01*
X113840225Y-95599568D02*
X114268796Y-96170996D01*
X114268796Y-95170996D02*
X113697367Y-95742425D01*
X115125939Y-96170996D02*
X114983082Y-96099568D01*
X114983082Y-96099568D02*
X114911653Y-96028139D01*
X114911653Y-96028139D02*
X114840225Y-95885282D01*
X114840225Y-95885282D02*
X114840225Y-95456710D01*
X114840225Y-95456710D02*
X114911653Y-95313853D01*
X114911653Y-95313853D02*
X114983082Y-95242425D01*
X114983082Y-95242425D02*
X115125939Y-95170996D01*
X115125939Y-95170996D02*
X115340225Y-95170996D01*
X115340225Y-95170996D02*
X115483082Y-95242425D01*
X115483082Y-95242425D02*
X115554511Y-95313853D01*
X115554511Y-95313853D02*
X115625939Y-95456710D01*
X115625939Y-95456710D02*
X115625939Y-95885282D01*
X115625939Y-95885282D02*
X115554511Y-96028139D01*
X115554511Y-96028139D02*
X115483082Y-96099568D01*
X115483082Y-96099568D02*
X115340225Y-96170996D01*
X115340225Y-96170996D02*
X115125939Y-96170996D01*
X116268796Y-96170996D02*
X116268796Y-95170996D01*
X116268796Y-95456710D02*
X116340225Y-95313853D01*
X116340225Y-95313853D02*
X116411654Y-95242425D01*
X116411654Y-95242425D02*
X116554511Y-95170996D01*
X116554511Y-95170996D02*
X116697368Y-95170996D01*
X117197367Y-95170996D02*
X117197367Y-96170996D01*
X117197367Y-95313853D02*
X117268796Y-95242425D01*
X117268796Y-95242425D02*
X117411653Y-95170996D01*
X117411653Y-95170996D02*
X117625939Y-95170996D01*
X117625939Y-95170996D02*
X117768796Y-95242425D01*
X117768796Y-95242425D02*
X117840225Y-95385282D01*
X117840225Y-95385282D02*
X117840225Y-96170996D01*
X119625939Y-96099568D02*
X119840225Y-96170996D01*
X119840225Y-96170996D02*
X120197367Y-96170996D01*
X120197367Y-96170996D02*
X120340225Y-96099568D01*
X120340225Y-96099568D02*
X120411653Y-96028139D01*
X120411653Y-96028139D02*
X120483082Y-95885282D01*
X120483082Y-95885282D02*
X120483082Y-95742425D01*
X120483082Y-95742425D02*
X120411653Y-95599568D01*
X120411653Y-95599568D02*
X120340225Y-95528139D01*
X120340225Y-95528139D02*
X120197367Y-95456710D01*
X120197367Y-95456710D02*
X119911653Y-95385282D01*
X119911653Y-95385282D02*
X119768796Y-95313853D01*
X119768796Y-95313853D02*
X119697367Y-95242425D01*
X119697367Y-95242425D02*
X119625939Y-95099568D01*
X119625939Y-95099568D02*
X119625939Y-94956710D01*
X119625939Y-94956710D02*
X119697367Y-94813853D01*
X119697367Y-94813853D02*
X119768796Y-94742425D01*
X119768796Y-94742425D02*
X119911653Y-94670996D01*
X119911653Y-94670996D02*
X120268796Y-94670996D01*
X120268796Y-94670996D02*
X120483082Y-94742425D01*
X121768796Y-95170996D02*
X121768796Y-96170996D01*
X121125938Y-95170996D02*
X121125938Y-95956710D01*
X121125938Y-95956710D02*
X121197367Y-96099568D01*
X121197367Y-96099568D02*
X121340224Y-96170996D01*
X121340224Y-96170996D02*
X121554510Y-96170996D01*
X121554510Y-96170996D02*
X121697367Y-96099568D01*
X121697367Y-96099568D02*
X121768796Y-96028139D01*
X122483081Y-96170996D02*
X122483081Y-94670996D01*
X122625939Y-95599568D02*
X123054510Y-96170996D01*
X123054510Y-95170996D02*
X122483081Y-95742425D01*
X123697367Y-96170996D02*
X123697367Y-95170996D01*
X123697367Y-95313853D02*
X123768796Y-95242425D01*
X123768796Y-95242425D02*
X123911653Y-95170996D01*
X123911653Y-95170996D02*
X124125939Y-95170996D01*
X124125939Y-95170996D02*
X124268796Y-95242425D01*
X124268796Y-95242425D02*
X124340225Y-95385282D01*
X124340225Y-95385282D02*
X124340225Y-96170996D01*
X124340225Y-95385282D02*
X124411653Y-95242425D01*
X124411653Y-95242425D02*
X124554510Y-95170996D01*
X124554510Y-95170996D02*
X124768796Y-95170996D01*
X124768796Y-95170996D02*
X124911653Y-95242425D01*
X124911653Y-95242425D02*
X124983082Y-95385282D01*
X124983082Y-95385282D02*
X124983082Y-96170996D01*
X126268796Y-96099568D02*
X126125939Y-96170996D01*
X126125939Y-96170996D02*
X125840225Y-96170996D01*
X125840225Y-96170996D02*
X125697367Y-96099568D01*
X125697367Y-96099568D02*
X125625939Y-95956710D01*
X125625939Y-95956710D02*
X125625939Y-95385282D01*
X125625939Y-95385282D02*
X125697367Y-95242425D01*
X125697367Y-95242425D02*
X125840225Y-95170996D01*
X125840225Y-95170996D02*
X126125939Y-95170996D01*
X126125939Y-95170996D02*
X126268796Y-95242425D01*
X126268796Y-95242425D02*
X126340225Y-95385282D01*
X126340225Y-95385282D02*
X126340225Y-95528139D01*
X126340225Y-95528139D02*
X125625939Y-95670996D01*
X127554510Y-96099568D02*
X127411653Y-96170996D01*
X127411653Y-96170996D02*
X127125939Y-96170996D01*
X127125939Y-96170996D02*
X126983081Y-96099568D01*
X126983081Y-96099568D02*
X126911653Y-95956710D01*
X126911653Y-95956710D02*
X126911653Y-95385282D01*
X126911653Y-95385282D02*
X126983081Y-95242425D01*
X126983081Y-95242425D02*
X127125939Y-95170996D01*
X127125939Y-95170996D02*
X127411653Y-95170996D01*
X127411653Y-95170996D02*
X127554510Y-95242425D01*
X127554510Y-95242425D02*
X127625939Y-95385282D01*
X127625939Y-95385282D02*
X127625939Y-95528139D01*
X127625939Y-95528139D02*
X126911653Y-95670996D01*
X128340224Y-94670996D02*
X128197367Y-94956710D01*
X128911653Y-96099568D02*
X129054510Y-96170996D01*
X129054510Y-96170996D02*
X129340224Y-96170996D01*
X129340224Y-96170996D02*
X129483081Y-96099568D01*
X129483081Y-96099568D02*
X129554510Y-95956710D01*
X129554510Y-95956710D02*
X129554510Y-95885282D01*
X129554510Y-95885282D02*
X129483081Y-95742425D01*
X129483081Y-95742425D02*
X129340224Y-95670996D01*
X129340224Y-95670996D02*
X129125939Y-95670996D01*
X129125939Y-95670996D02*
X128983081Y-95599568D01*
X128983081Y-95599568D02*
X128911653Y-95456710D01*
X128911653Y-95456710D02*
X128911653Y-95385282D01*
X128911653Y-95385282D02*
X128983081Y-95242425D01*
X128983081Y-95242425D02*
X129125939Y-95170996D01*
X129125939Y-95170996D02*
X129340224Y-95170996D01*
X129340224Y-95170996D02*
X129483081Y-95242425D01*
X109340225Y-97085912D02*
X110197368Y-97085912D01*
X109768796Y-98585912D02*
X109768796Y-97085912D01*
X111268796Y-98514484D02*
X111125939Y-98585912D01*
X111125939Y-98585912D02*
X110840225Y-98585912D01*
X110840225Y-98585912D02*
X110697367Y-98514484D01*
X110697367Y-98514484D02*
X110625939Y-98371626D01*
X110625939Y-98371626D02*
X110625939Y-97800198D01*
X110625939Y-97800198D02*
X110697367Y-97657341D01*
X110697367Y-97657341D02*
X110840225Y-97585912D01*
X110840225Y-97585912D02*
X111125939Y-97585912D01*
X111125939Y-97585912D02*
X111268796Y-97657341D01*
X111268796Y-97657341D02*
X111340225Y-97800198D01*
X111340225Y-97800198D02*
X111340225Y-97943055D01*
X111340225Y-97943055D02*
X110625939Y-98085912D01*
X112554510Y-98514484D02*
X112411653Y-98585912D01*
X112411653Y-98585912D02*
X112125939Y-98585912D01*
X112125939Y-98585912D02*
X111983081Y-98514484D01*
X111983081Y-98514484D02*
X111911653Y-98371626D01*
X111911653Y-98371626D02*
X111911653Y-97800198D01*
X111911653Y-97800198D02*
X111983081Y-97657341D01*
X111983081Y-97657341D02*
X112125939Y-97585912D01*
X112125939Y-97585912D02*
X112411653Y-97585912D01*
X112411653Y-97585912D02*
X112554510Y-97657341D01*
X112554510Y-97657341D02*
X112625939Y-97800198D01*
X112625939Y-97800198D02*
X112625939Y-97943055D01*
X112625939Y-97943055D02*
X111911653Y-98085912D01*
X113268795Y-97585912D02*
X113268795Y-98585912D01*
X113268795Y-97728769D02*
X113340224Y-97657341D01*
X113340224Y-97657341D02*
X113483081Y-97585912D01*
X113483081Y-97585912D02*
X113697367Y-97585912D01*
X113697367Y-97585912D02*
X113840224Y-97657341D01*
X113840224Y-97657341D02*
X113911653Y-97800198D01*
X113911653Y-97800198D02*
X113911653Y-98585912D01*
X114554510Y-98514484D02*
X114697367Y-98585912D01*
X114697367Y-98585912D02*
X114983081Y-98585912D01*
X114983081Y-98585912D02*
X115125938Y-98514484D01*
X115125938Y-98514484D02*
X115197367Y-98371626D01*
X115197367Y-98371626D02*
X115197367Y-98300198D01*
X115197367Y-98300198D02*
X115125938Y-98157341D01*
X115125938Y-98157341D02*
X114983081Y-98085912D01*
X114983081Y-98085912D02*
X114768796Y-98085912D01*
X114768796Y-98085912D02*
X114625938Y-98014484D01*
X114625938Y-98014484D02*
X114554510Y-97871626D01*
X114554510Y-97871626D02*
X114554510Y-97800198D01*
X114554510Y-97800198D02*
X114625938Y-97657341D01*
X114625938Y-97657341D02*
X114768796Y-97585912D01*
X114768796Y-97585912D02*
X114983081Y-97585912D01*
X114983081Y-97585912D02*
X115125938Y-97657341D01*
X115697367Y-97585912D02*
X116054510Y-98585912D01*
X116411653Y-97585912D02*
X116054510Y-98585912D01*
X116054510Y-98585912D02*
X115911653Y-98943055D01*
X115911653Y-98943055D02*
X115840224Y-99014484D01*
X115840224Y-99014484D02*
X115697367Y-99085912D01*
X118768796Y-97585912D02*
X118768796Y-98585912D01*
X118411653Y-97014484D02*
X118054510Y-98085912D01*
X118054510Y-98085912D02*
X118983081Y-98085912D01*
X119554509Y-98443055D02*
X119625938Y-98514484D01*
X119625938Y-98514484D02*
X119554509Y-98585912D01*
X119554509Y-98585912D02*
X119483081Y-98514484D01*
X119483081Y-98514484D02*
X119554509Y-98443055D01*
X119554509Y-98443055D02*
X119554509Y-98585912D01*
X120554510Y-97085912D02*
X120697367Y-97085912D01*
X120697367Y-97085912D02*
X120840224Y-97157341D01*
X120840224Y-97157341D02*
X120911653Y-97228769D01*
X120911653Y-97228769D02*
X120983081Y-97371626D01*
X120983081Y-97371626D02*
X121054510Y-97657341D01*
X121054510Y-97657341D02*
X121054510Y-98014484D01*
X121054510Y-98014484D02*
X120983081Y-98300198D01*
X120983081Y-98300198D02*
X120911653Y-98443055D01*
X120911653Y-98443055D02*
X120840224Y-98514484D01*
X120840224Y-98514484D02*
X120697367Y-98585912D01*
X120697367Y-98585912D02*
X120554510Y-98585912D01*
X120554510Y-98585912D02*
X120411653Y-98514484D01*
X120411653Y-98514484D02*
X120340224Y-98443055D01*
X120340224Y-98443055D02*
X120268795Y-98300198D01*
X120268795Y-98300198D02*
X120197367Y-98014484D01*
X120197367Y-98014484D02*
X120197367Y-97657341D01*
X120197367Y-97657341D02*
X120268795Y-97371626D01*
X120268795Y-97371626D02*
X120340224Y-97228769D01*
X120340224Y-97228769D02*
X120411653Y-97157341D01*
X120411653Y-97157341D02*
X120554510Y-97085912D01*
X109554510Y-101000828D02*
X109554510Y-99500828D01*
X109554510Y-100215114D02*
X110411653Y-100215114D01*
X110411653Y-101000828D02*
X110411653Y-99500828D01*
X111697368Y-100929400D02*
X111554511Y-101000828D01*
X111554511Y-101000828D02*
X111268797Y-101000828D01*
X111268797Y-101000828D02*
X111125939Y-100929400D01*
X111125939Y-100929400D02*
X111054511Y-100786542D01*
X111054511Y-100786542D02*
X111054511Y-100215114D01*
X111054511Y-100215114D02*
X111125939Y-100072257D01*
X111125939Y-100072257D02*
X111268797Y-100000828D01*
X111268797Y-100000828D02*
X111554511Y-100000828D01*
X111554511Y-100000828D02*
X111697368Y-100072257D01*
X111697368Y-100072257D02*
X111768797Y-100215114D01*
X111768797Y-100215114D02*
X111768797Y-100357971D01*
X111768797Y-100357971D02*
X111054511Y-100500828D01*
X112268796Y-101000828D02*
X113054511Y-100000828D01*
X112268796Y-100000828D02*
X113054511Y-101000828D01*
X114268797Y-101000828D02*
X114268797Y-100215114D01*
X114268797Y-100215114D02*
X114197368Y-100072257D01*
X114197368Y-100072257D02*
X114054511Y-100000828D01*
X114054511Y-100000828D02*
X113768797Y-100000828D01*
X113768797Y-100000828D02*
X113625939Y-100072257D01*
X114268797Y-100929400D02*
X114125939Y-101000828D01*
X114125939Y-101000828D02*
X113768797Y-101000828D01*
X113768797Y-101000828D02*
X113625939Y-100929400D01*
X113625939Y-100929400D02*
X113554511Y-100786542D01*
X113554511Y-100786542D02*
X113554511Y-100643685D01*
X113554511Y-100643685D02*
X113625939Y-100500828D01*
X113625939Y-100500828D02*
X113768797Y-100429400D01*
X113768797Y-100429400D02*
X114125939Y-100429400D01*
X114125939Y-100429400D02*
X114268797Y-100357971D01*
X114983082Y-100000828D02*
X114983082Y-101500828D01*
X114983082Y-100072257D02*
X115125940Y-100000828D01*
X115125940Y-100000828D02*
X115411654Y-100000828D01*
X115411654Y-100000828D02*
X115554511Y-100072257D01*
X115554511Y-100072257D02*
X115625940Y-100143685D01*
X115625940Y-100143685D02*
X115697368Y-100286542D01*
X115697368Y-100286542D02*
X115697368Y-100715114D01*
X115697368Y-100715114D02*
X115625940Y-100857971D01*
X115625940Y-100857971D02*
X115554511Y-100929400D01*
X115554511Y-100929400D02*
X115411654Y-101000828D01*
X115411654Y-101000828D02*
X115125940Y-101000828D01*
X115125940Y-101000828D02*
X114983082Y-100929400D01*
X116554511Y-101000828D02*
X116411654Y-100929400D01*
X116411654Y-100929400D02*
X116340225Y-100857971D01*
X116340225Y-100857971D02*
X116268797Y-100715114D01*
X116268797Y-100715114D02*
X116268797Y-100286542D01*
X116268797Y-100286542D02*
X116340225Y-100143685D01*
X116340225Y-100143685D02*
X116411654Y-100072257D01*
X116411654Y-100072257D02*
X116554511Y-100000828D01*
X116554511Y-100000828D02*
X116768797Y-100000828D01*
X116768797Y-100000828D02*
X116911654Y-100072257D01*
X116911654Y-100072257D02*
X116983083Y-100143685D01*
X116983083Y-100143685D02*
X117054511Y-100286542D01*
X117054511Y-100286542D02*
X117054511Y-100715114D01*
X117054511Y-100715114D02*
X116983083Y-100857971D01*
X116983083Y-100857971D02*
X116911654Y-100929400D01*
X116911654Y-100929400D02*
X116768797Y-101000828D01*
X116768797Y-101000828D02*
X116554511Y-101000828D01*
X118340226Y-101000828D02*
X118340226Y-99500828D01*
X118340226Y-100929400D02*
X118197368Y-101000828D01*
X118197368Y-101000828D02*
X117911654Y-101000828D01*
X117911654Y-101000828D02*
X117768797Y-100929400D01*
X117768797Y-100929400D02*
X117697368Y-100857971D01*
X117697368Y-100857971D02*
X117625940Y-100715114D01*
X117625940Y-100715114D02*
X117625940Y-100286542D01*
X117625940Y-100286542D02*
X117697368Y-100143685D01*
X117697368Y-100143685D02*
X117768797Y-100072257D01*
X117768797Y-100072257D02*
X117911654Y-100000828D01*
X117911654Y-100000828D02*
X118197368Y-100000828D01*
X118197368Y-100000828D02*
X118340226Y-100072257D01*
X121054511Y-100857971D02*
X120983083Y-100929400D01*
X120983083Y-100929400D02*
X120768797Y-101000828D01*
X120768797Y-101000828D02*
X120625940Y-101000828D01*
X120625940Y-101000828D02*
X120411654Y-100929400D01*
X120411654Y-100929400D02*
X120268797Y-100786542D01*
X120268797Y-100786542D02*
X120197368Y-100643685D01*
X120197368Y-100643685D02*
X120125940Y-100357971D01*
X120125940Y-100357971D02*
X120125940Y-100143685D01*
X120125940Y-100143685D02*
X120197368Y-99857971D01*
X120197368Y-99857971D02*
X120268797Y-99715114D01*
X120268797Y-99715114D02*
X120411654Y-99572257D01*
X120411654Y-99572257D02*
X120625940Y-99500828D01*
X120625940Y-99500828D02*
X120768797Y-99500828D01*
X120768797Y-99500828D02*
X120983083Y-99572257D01*
X120983083Y-99572257D02*
X121054511Y-99643685D01*
X121911654Y-101000828D02*
X121768797Y-100929400D01*
X121768797Y-100929400D02*
X121697368Y-100857971D01*
X121697368Y-100857971D02*
X121625940Y-100715114D01*
X121625940Y-100715114D02*
X121625940Y-100286542D01*
X121625940Y-100286542D02*
X121697368Y-100143685D01*
X121697368Y-100143685D02*
X121768797Y-100072257D01*
X121768797Y-100072257D02*
X121911654Y-100000828D01*
X121911654Y-100000828D02*
X122125940Y-100000828D01*
X122125940Y-100000828D02*
X122268797Y-100072257D01*
X122268797Y-100072257D02*
X122340226Y-100143685D01*
X122340226Y-100143685D02*
X122411654Y-100286542D01*
X122411654Y-100286542D02*
X122411654Y-100715114D01*
X122411654Y-100715114D02*
X122340226Y-100857971D01*
X122340226Y-100857971D02*
X122268797Y-100929400D01*
X122268797Y-100929400D02*
X122125940Y-101000828D01*
X122125940Y-101000828D02*
X121911654Y-101000828D01*
X123054511Y-100000828D02*
X123054511Y-101000828D01*
X123054511Y-100143685D02*
X123125940Y-100072257D01*
X123125940Y-100072257D02*
X123268797Y-100000828D01*
X123268797Y-100000828D02*
X123483083Y-100000828D01*
X123483083Y-100000828D02*
X123625940Y-100072257D01*
X123625940Y-100072257D02*
X123697369Y-100215114D01*
X123697369Y-100215114D02*
X123697369Y-101000828D01*
X124197369Y-100000828D02*
X124768797Y-100000828D01*
X124411654Y-99500828D02*
X124411654Y-100786542D01*
X124411654Y-100786542D02*
X124483083Y-100929400D01*
X124483083Y-100929400D02*
X124625940Y-101000828D01*
X124625940Y-101000828D02*
X124768797Y-101000828D01*
X125268797Y-101000828D02*
X125268797Y-100000828D01*
X125268797Y-100286542D02*
X125340226Y-100143685D01*
X125340226Y-100143685D02*
X125411655Y-100072257D01*
X125411655Y-100072257D02*
X125554512Y-100000828D01*
X125554512Y-100000828D02*
X125697369Y-100000828D01*
X126411654Y-101000828D02*
X126268797Y-100929400D01*
X126268797Y-100929400D02*
X126197368Y-100857971D01*
X126197368Y-100857971D02*
X126125940Y-100715114D01*
X126125940Y-100715114D02*
X126125940Y-100286542D01*
X126125940Y-100286542D02*
X126197368Y-100143685D01*
X126197368Y-100143685D02*
X126268797Y-100072257D01*
X126268797Y-100072257D02*
X126411654Y-100000828D01*
X126411654Y-100000828D02*
X126625940Y-100000828D01*
X126625940Y-100000828D02*
X126768797Y-100072257D01*
X126768797Y-100072257D02*
X126840226Y-100143685D01*
X126840226Y-100143685D02*
X126911654Y-100286542D01*
X126911654Y-100286542D02*
X126911654Y-100715114D01*
X126911654Y-100715114D02*
X126840226Y-100857971D01*
X126840226Y-100857971D02*
X126768797Y-100929400D01*
X126768797Y-100929400D02*
X126625940Y-101000828D01*
X126625940Y-101000828D02*
X126411654Y-101000828D01*
X127768797Y-101000828D02*
X127625940Y-100929400D01*
X127625940Y-100929400D02*
X127554511Y-100786542D01*
X127554511Y-100786542D02*
X127554511Y-99500828D01*
X128554511Y-101000828D02*
X128411654Y-100929400D01*
X128411654Y-100929400D02*
X128340225Y-100786542D01*
X128340225Y-100786542D02*
X128340225Y-99500828D01*
X129697368Y-100929400D02*
X129554511Y-101000828D01*
X129554511Y-101000828D02*
X129268797Y-101000828D01*
X129268797Y-101000828D02*
X129125939Y-100929400D01*
X129125939Y-100929400D02*
X129054511Y-100786542D01*
X129054511Y-100786542D02*
X129054511Y-100215114D01*
X129054511Y-100215114D02*
X129125939Y-100072257D01*
X129125939Y-100072257D02*
X129268797Y-100000828D01*
X129268797Y-100000828D02*
X129554511Y-100000828D01*
X129554511Y-100000828D02*
X129697368Y-100072257D01*
X129697368Y-100072257D02*
X129768797Y-100215114D01*
X129768797Y-100215114D02*
X129768797Y-100357971D01*
X129768797Y-100357971D02*
X129054511Y-100500828D01*
X130411653Y-101000828D02*
X130411653Y-100000828D01*
X130411653Y-100286542D02*
X130483082Y-100143685D01*
X130483082Y-100143685D02*
X130554511Y-100072257D01*
X130554511Y-100072257D02*
X130697368Y-100000828D01*
X130697368Y-100000828D02*
X130840225Y-100000828D01*
D11*
X119761876Y-74804820D02*
X119761876Y-75614343D01*
X119761876Y-75614343D02*
X119809495Y-75709581D01*
X119809495Y-75709581D02*
X119857114Y-75757201D01*
X119857114Y-75757201D02*
X119952352Y-75804820D01*
X119952352Y-75804820D02*
X120142828Y-75804820D01*
X120142828Y-75804820D02*
X120238066Y-75757201D01*
X120238066Y-75757201D02*
X120285685Y-75709581D01*
X120285685Y-75709581D02*
X120333304Y-75614343D01*
X120333304Y-75614343D02*
X120333304Y-74804820D01*
X121238066Y-75138153D02*
X121238066Y-75804820D01*
X120999971Y-74757201D02*
X120761876Y-75471486D01*
X120761876Y-75471486D02*
X121380923Y-75471486D01*
X117988781Y-73423820D02*
X117988781Y-73661915D01*
X117750686Y-73566677D02*
X117988781Y-73661915D01*
X117988781Y-73661915D02*
X118226876Y-73566677D01*
X117845924Y-73852391D02*
X117988781Y-73661915D01*
X117988781Y-73661915D02*
X118131638Y-73852391D01*
X117988781Y-73423820D02*
X117988781Y-73661915D01*
X117750686Y-73566677D02*
X117988781Y-73661915D01*
X117988781Y-73661915D02*
X118226876Y-73566677D01*
X117845924Y-73852391D02*
X117988781Y-73661915D01*
X117988781Y-73661915D02*
X118131638Y-73852391D01*
D12*
X138460237Y-124874318D02*
X138460237Y-123604318D01*
X139790714Y-124753365D02*
X139730238Y-124813842D01*
X139730238Y-124813842D02*
X139548809Y-124874318D01*
X139548809Y-124874318D02*
X139427857Y-124874318D01*
X139427857Y-124874318D02*
X139246428Y-124813842D01*
X139246428Y-124813842D02*
X139125476Y-124692889D01*
X139125476Y-124692889D02*
X139064999Y-124571937D01*
X139064999Y-124571937D02*
X139004523Y-124330032D01*
X139004523Y-124330032D02*
X139004523Y-124148603D01*
X139004523Y-124148603D02*
X139064999Y-123906699D01*
X139064999Y-123906699D02*
X139125476Y-123785746D01*
X139125476Y-123785746D02*
X139246428Y-123664794D01*
X139246428Y-123664794D02*
X139427857Y-123604318D01*
X139427857Y-123604318D02*
X139548809Y-123604318D01*
X139548809Y-123604318D02*
X139730238Y-123664794D01*
X139730238Y-123664794D02*
X139790714Y-123725270D01*
X140274523Y-123725270D02*
X140334999Y-123664794D01*
X140334999Y-123664794D02*
X140455952Y-123604318D01*
X140455952Y-123604318D02*
X140758333Y-123604318D01*
X140758333Y-123604318D02*
X140879285Y-123664794D01*
X140879285Y-123664794D02*
X140939761Y-123725270D01*
X140939761Y-123725270D02*
X141000238Y-123846222D01*
X141000238Y-123846222D02*
X141000238Y-123967175D01*
X141000238Y-123967175D02*
X140939761Y-124148603D01*
X140939761Y-124148603D02*
X140214047Y-124874318D01*
X140214047Y-124874318D02*
X141000238Y-124874318D01*
D11*
X151519047Y-122431009D02*
X151661904Y-122478628D01*
X151661904Y-122478628D02*
X151709523Y-122526247D01*
X151709523Y-122526247D02*
X151757142Y-122621485D01*
X151757142Y-122621485D02*
X151757142Y-122764342D01*
X151757142Y-122764342D02*
X151709523Y-122859580D01*
X151709523Y-122859580D02*
X151661904Y-122907200D01*
X151661904Y-122907200D02*
X151566666Y-122954819D01*
X151566666Y-122954819D02*
X151185714Y-122954819D01*
X151185714Y-122954819D02*
X151185714Y-121954819D01*
X151185714Y-121954819D02*
X151519047Y-121954819D01*
X151519047Y-121954819D02*
X151614285Y-122002438D01*
X151614285Y-122002438D02*
X151661904Y-122050057D01*
X151661904Y-122050057D02*
X151709523Y-122145295D01*
X151709523Y-122145295D02*
X151709523Y-122240533D01*
X151709523Y-122240533D02*
X151661904Y-122335771D01*
X151661904Y-122335771D02*
X151614285Y-122383390D01*
X151614285Y-122383390D02*
X151519047Y-122431009D01*
X151519047Y-122431009D02*
X151185714Y-122431009D01*
X152090476Y-121954819D02*
X152757142Y-121954819D01*
X152757142Y-121954819D02*
X152090476Y-122954819D01*
X152090476Y-122954819D02*
X152757142Y-122954819D01*
X153661904Y-122954819D02*
X153090476Y-122954819D01*
X153376190Y-122954819D02*
X153376190Y-121954819D01*
X153376190Y-121954819D02*
X153280952Y-122097676D01*
X153280952Y-122097676D02*
X153185714Y-122192914D01*
X153185714Y-122192914D02*
X153090476Y-122240533D01*
X147609048Y-117533866D02*
X148370953Y-117533866D01*
X147990000Y-117914819D02*
X147990000Y-117152914D01*
X174238095Y-79204819D02*
X174238095Y-78204819D01*
X174238095Y-78681009D02*
X174809523Y-78681009D01*
X174809523Y-79204819D02*
X174809523Y-78204819D01*
X175238095Y-78300057D02*
X175285714Y-78252438D01*
X175285714Y-78252438D02*
X175380952Y-78204819D01*
X175380952Y-78204819D02*
X175619047Y-78204819D01*
X175619047Y-78204819D02*
X175714285Y-78252438D01*
X175714285Y-78252438D02*
X175761904Y-78300057D01*
X175761904Y-78300057D02*
X175809523Y-78395295D01*
X175809523Y-78395295D02*
X175809523Y-78490533D01*
X175809523Y-78490533D02*
X175761904Y-78633390D01*
X175761904Y-78633390D02*
X175190476Y-79204819D01*
X175190476Y-79204819D02*
X175809523Y-79204819D01*
X144257142Y-93159580D02*
X144209523Y-93207200D01*
X144209523Y-93207200D02*
X144066666Y-93254819D01*
X144066666Y-93254819D02*
X143971428Y-93254819D01*
X143971428Y-93254819D02*
X143828571Y-93207200D01*
X143828571Y-93207200D02*
X143733333Y-93111961D01*
X143733333Y-93111961D02*
X143685714Y-93016723D01*
X143685714Y-93016723D02*
X143638095Y-92826247D01*
X143638095Y-92826247D02*
X143638095Y-92683390D01*
X143638095Y-92683390D02*
X143685714Y-92492914D01*
X143685714Y-92492914D02*
X143733333Y-92397676D01*
X143733333Y-92397676D02*
X143828571Y-92302438D01*
X143828571Y-92302438D02*
X143971428Y-92254819D01*
X143971428Y-92254819D02*
X144066666Y-92254819D01*
X144066666Y-92254819D02*
X144209523Y-92302438D01*
X144209523Y-92302438D02*
X144257142Y-92350057D01*
X144638095Y-92350057D02*
X144685714Y-92302438D01*
X144685714Y-92302438D02*
X144780952Y-92254819D01*
X144780952Y-92254819D02*
X145019047Y-92254819D01*
X145019047Y-92254819D02*
X145114285Y-92302438D01*
X145114285Y-92302438D02*
X145161904Y-92350057D01*
X145161904Y-92350057D02*
X145209523Y-92445295D01*
X145209523Y-92445295D02*
X145209523Y-92540533D01*
X145209523Y-92540533D02*
X145161904Y-92683390D01*
X145161904Y-92683390D02*
X144590476Y-93254819D01*
X144590476Y-93254819D02*
X145209523Y-93254819D01*
X146066666Y-92588152D02*
X146066666Y-93254819D01*
X145828571Y-92207200D02*
X145590476Y-92921485D01*
X145590476Y-92921485D02*
X146209523Y-92921485D01*
X127366666Y-73704819D02*
X127366666Y-74419104D01*
X127366666Y-74419104D02*
X127319047Y-74561961D01*
X127319047Y-74561961D02*
X127223809Y-74657200D01*
X127223809Y-74657200D02*
X127080952Y-74704819D01*
X127080952Y-74704819D02*
X126985714Y-74704819D01*
X128366666Y-74704819D02*
X127795238Y-74704819D01*
X128080952Y-74704819D02*
X128080952Y-73704819D01*
X128080952Y-73704819D02*
X127985714Y-73847676D01*
X127985714Y-73847676D02*
X127890476Y-73942914D01*
X127890476Y-73942914D02*
X127795238Y-73990533D01*
X147357142Y-93059580D02*
X147309523Y-93107200D01*
X147309523Y-93107200D02*
X147166666Y-93154819D01*
X147166666Y-93154819D02*
X147071428Y-93154819D01*
X147071428Y-93154819D02*
X146928571Y-93107200D01*
X146928571Y-93107200D02*
X146833333Y-93011961D01*
X146833333Y-93011961D02*
X146785714Y-92916723D01*
X146785714Y-92916723D02*
X146738095Y-92726247D01*
X146738095Y-92726247D02*
X146738095Y-92583390D01*
X146738095Y-92583390D02*
X146785714Y-92392914D01*
X146785714Y-92392914D02*
X146833333Y-92297676D01*
X146833333Y-92297676D02*
X146928571Y-92202438D01*
X146928571Y-92202438D02*
X147071428Y-92154819D01*
X147071428Y-92154819D02*
X147166666Y-92154819D01*
X147166666Y-92154819D02*
X147309523Y-92202438D01*
X147309523Y-92202438D02*
X147357142Y-92250057D01*
X147738095Y-92250057D02*
X147785714Y-92202438D01*
X147785714Y-92202438D02*
X147880952Y-92154819D01*
X147880952Y-92154819D02*
X148119047Y-92154819D01*
X148119047Y-92154819D02*
X148214285Y-92202438D01*
X148214285Y-92202438D02*
X148261904Y-92250057D01*
X148261904Y-92250057D02*
X148309523Y-92345295D01*
X148309523Y-92345295D02*
X148309523Y-92440533D01*
X148309523Y-92440533D02*
X148261904Y-92583390D01*
X148261904Y-92583390D02*
X147690476Y-93154819D01*
X147690476Y-93154819D02*
X148309523Y-93154819D01*
X148642857Y-92154819D02*
X149261904Y-92154819D01*
X149261904Y-92154819D02*
X148928571Y-92535771D01*
X148928571Y-92535771D02*
X149071428Y-92535771D01*
X149071428Y-92535771D02*
X149166666Y-92583390D01*
X149166666Y-92583390D02*
X149214285Y-92631009D01*
X149214285Y-92631009D02*
X149261904Y-92726247D01*
X149261904Y-92726247D02*
X149261904Y-92964342D01*
X149261904Y-92964342D02*
X149214285Y-93059580D01*
X149214285Y-93059580D02*
X149166666Y-93107200D01*
X149166666Y-93107200D02*
X149071428Y-93154819D01*
X149071428Y-93154819D02*
X148785714Y-93154819D01*
X148785714Y-93154819D02*
X148690476Y-93107200D01*
X148690476Y-93107200D02*
X148642857Y-93059580D01*
X149354819Y-86842857D02*
X148878628Y-87176190D01*
X149354819Y-87414285D02*
X148354819Y-87414285D01*
X148354819Y-87414285D02*
X148354819Y-87033333D01*
X148354819Y-87033333D02*
X148402438Y-86938095D01*
X148402438Y-86938095D02*
X148450057Y-86890476D01*
X148450057Y-86890476D02*
X148545295Y-86842857D01*
X148545295Y-86842857D02*
X148688152Y-86842857D01*
X148688152Y-86842857D02*
X148783390Y-86890476D01*
X148783390Y-86890476D02*
X148831009Y-86938095D01*
X148831009Y-86938095D02*
X148878628Y-87033333D01*
X148878628Y-87033333D02*
X148878628Y-87414285D01*
X149354819Y-85890476D02*
X149354819Y-86461904D01*
X149354819Y-86176190D02*
X148354819Y-86176190D01*
X148354819Y-86176190D02*
X148497676Y-86271428D01*
X148497676Y-86271428D02*
X148592914Y-86366666D01*
X148592914Y-86366666D02*
X148640533Y-86461904D01*
X149354819Y-84938095D02*
X149354819Y-85509523D01*
X149354819Y-85223809D02*
X148354819Y-85223809D01*
X148354819Y-85223809D02*
X148497676Y-85319047D01*
X148497676Y-85319047D02*
X148592914Y-85414285D01*
X148592914Y-85414285D02*
X148640533Y-85509523D01*
X108238095Y-78704819D02*
X108238095Y-77704819D01*
X108238095Y-78181009D02*
X108809523Y-78181009D01*
X108809523Y-78704819D02*
X108809523Y-77704819D01*
X109809523Y-78704819D02*
X109238095Y-78704819D01*
X109523809Y-78704819D02*
X109523809Y-77704819D01*
X109523809Y-77704819D02*
X109428571Y-77847676D01*
X109428571Y-77847676D02*
X109333333Y-77942914D01*
X109333333Y-77942914D02*
X109238095Y-77990533D01*
X116107051Y-79479821D02*
X115773718Y-79003630D01*
X115535623Y-79479821D02*
X115535623Y-78479821D01*
X115535623Y-78479821D02*
X115916575Y-78479821D01*
X115916575Y-78479821D02*
X116011813Y-78527440D01*
X116011813Y-78527440D02*
X116059432Y-78575059D01*
X116059432Y-78575059D02*
X116107051Y-78670297D01*
X116107051Y-78670297D02*
X116107051Y-78813154D01*
X116107051Y-78813154D02*
X116059432Y-78908392D01*
X116059432Y-78908392D02*
X116011813Y-78956011D01*
X116011813Y-78956011D02*
X115916575Y-79003630D01*
X115916575Y-79003630D02*
X115535623Y-79003630D01*
X117059432Y-79479821D02*
X116488004Y-79479821D01*
X116773718Y-79479821D02*
X116773718Y-78479821D01*
X116773718Y-78479821D02*
X116678480Y-78622678D01*
X116678480Y-78622678D02*
X116583242Y-78717916D01*
X116583242Y-78717916D02*
X116488004Y-78765535D01*
X159054819Y-100091666D02*
X158578628Y-100424999D01*
X159054819Y-100663094D02*
X158054819Y-100663094D01*
X158054819Y-100663094D02*
X158054819Y-100282142D01*
X158054819Y-100282142D02*
X158102438Y-100186904D01*
X158102438Y-100186904D02*
X158150057Y-100139285D01*
X158150057Y-100139285D02*
X158245295Y-100091666D01*
X158245295Y-100091666D02*
X158388152Y-100091666D01*
X158388152Y-100091666D02*
X158483390Y-100139285D01*
X158483390Y-100139285D02*
X158531009Y-100186904D01*
X158531009Y-100186904D02*
X158578628Y-100282142D01*
X158578628Y-100282142D02*
X158578628Y-100663094D01*
X158150057Y-99710713D02*
X158102438Y-99663094D01*
X158102438Y-99663094D02*
X158054819Y-99567856D01*
X158054819Y-99567856D02*
X158054819Y-99329761D01*
X158054819Y-99329761D02*
X158102438Y-99234523D01*
X158102438Y-99234523D02*
X158150057Y-99186904D01*
X158150057Y-99186904D02*
X158245295Y-99139285D01*
X158245295Y-99139285D02*
X158340533Y-99139285D01*
X158340533Y-99139285D02*
X158483390Y-99186904D01*
X158483390Y-99186904D02*
X159054819Y-99758332D01*
X159054819Y-99758332D02*
X159054819Y-99139285D01*
X142357142Y-117559580D02*
X142309523Y-117607200D01*
X142309523Y-117607200D02*
X142166666Y-117654819D01*
X142166666Y-117654819D02*
X142071428Y-117654819D01*
X142071428Y-117654819D02*
X141928571Y-117607200D01*
X141928571Y-117607200D02*
X141833333Y-117511961D01*
X141833333Y-117511961D02*
X141785714Y-117416723D01*
X141785714Y-117416723D02*
X141738095Y-117226247D01*
X141738095Y-117226247D02*
X141738095Y-117083390D01*
X141738095Y-117083390D02*
X141785714Y-116892914D01*
X141785714Y-116892914D02*
X141833333Y-116797676D01*
X141833333Y-116797676D02*
X141928571Y-116702438D01*
X141928571Y-116702438D02*
X142071428Y-116654819D01*
X142071428Y-116654819D02*
X142166666Y-116654819D01*
X142166666Y-116654819D02*
X142309523Y-116702438D01*
X142309523Y-116702438D02*
X142357142Y-116750057D01*
X143309523Y-117654819D02*
X142738095Y-117654819D01*
X143023809Y-117654819D02*
X143023809Y-116654819D01*
X143023809Y-116654819D02*
X142928571Y-116797676D01*
X142928571Y-116797676D02*
X142833333Y-116892914D01*
X142833333Y-116892914D02*
X142738095Y-116940533D01*
X143642857Y-116654819D02*
X144309523Y-116654819D01*
X144309523Y-116654819D02*
X143880952Y-117654819D01*
X105959580Y-84166666D02*
X106007200Y-84214285D01*
X106007200Y-84214285D02*
X106054819Y-84357142D01*
X106054819Y-84357142D02*
X106054819Y-84452380D01*
X106054819Y-84452380D02*
X106007200Y-84595237D01*
X106007200Y-84595237D02*
X105911961Y-84690475D01*
X105911961Y-84690475D02*
X105816723Y-84738094D01*
X105816723Y-84738094D02*
X105626247Y-84785713D01*
X105626247Y-84785713D02*
X105483390Y-84785713D01*
X105483390Y-84785713D02*
X105292914Y-84738094D01*
X105292914Y-84738094D02*
X105197676Y-84690475D01*
X105197676Y-84690475D02*
X105102438Y-84595237D01*
X105102438Y-84595237D02*
X105054819Y-84452380D01*
X105054819Y-84452380D02*
X105054819Y-84357142D01*
X105054819Y-84357142D02*
X105102438Y-84214285D01*
X105102438Y-84214285D02*
X105150057Y-84166666D01*
X105150057Y-83785713D02*
X105102438Y-83738094D01*
X105102438Y-83738094D02*
X105054819Y-83642856D01*
X105054819Y-83642856D02*
X105054819Y-83404761D01*
X105054819Y-83404761D02*
X105102438Y-83309523D01*
X105102438Y-83309523D02*
X105150057Y-83261904D01*
X105150057Y-83261904D02*
X105245295Y-83214285D01*
X105245295Y-83214285D02*
X105340533Y-83214285D01*
X105340533Y-83214285D02*
X105483390Y-83261904D01*
X105483390Y-83261904D02*
X106054819Y-83833332D01*
X106054819Y-83833332D02*
X106054819Y-83214285D01*
X147854819Y-105886904D02*
X148664342Y-105886904D01*
X148664342Y-105886904D02*
X148759580Y-105839285D01*
X148759580Y-105839285D02*
X148807200Y-105791666D01*
X148807200Y-105791666D02*
X148854819Y-105696428D01*
X148854819Y-105696428D02*
X148854819Y-105505952D01*
X148854819Y-105505952D02*
X148807200Y-105410714D01*
X148807200Y-105410714D02*
X148759580Y-105363095D01*
X148759580Y-105363095D02*
X148664342Y-105315476D01*
X148664342Y-105315476D02*
X147854819Y-105315476D01*
X147854819Y-104410714D02*
X147854819Y-104601190D01*
X147854819Y-104601190D02*
X147902438Y-104696428D01*
X147902438Y-104696428D02*
X147950057Y-104744047D01*
X147950057Y-104744047D02*
X148092914Y-104839285D01*
X148092914Y-104839285D02*
X148283390Y-104886904D01*
X148283390Y-104886904D02*
X148664342Y-104886904D01*
X148664342Y-104886904D02*
X148759580Y-104839285D01*
X148759580Y-104839285D02*
X148807200Y-104791666D01*
X148807200Y-104791666D02*
X148854819Y-104696428D01*
X148854819Y-104696428D02*
X148854819Y-104505952D01*
X148854819Y-104505952D02*
X148807200Y-104410714D01*
X148807200Y-104410714D02*
X148759580Y-104363095D01*
X148759580Y-104363095D02*
X148664342Y-104315476D01*
X148664342Y-104315476D02*
X148426247Y-104315476D01*
X148426247Y-104315476D02*
X148331009Y-104363095D01*
X148331009Y-104363095D02*
X148283390Y-104410714D01*
X148283390Y-104410714D02*
X148235771Y-104505952D01*
X148235771Y-104505952D02*
X148235771Y-104696428D01*
X148235771Y-104696428D02*
X148283390Y-104791666D01*
X148283390Y-104791666D02*
X148331009Y-104839285D01*
X148331009Y-104839285D02*
X148426247Y-104886904D01*
X144857142Y-82854819D02*
X144523809Y-82378628D01*
X144285714Y-82854819D02*
X144285714Y-81854819D01*
X144285714Y-81854819D02*
X144666666Y-81854819D01*
X144666666Y-81854819D02*
X144761904Y-81902438D01*
X144761904Y-81902438D02*
X144809523Y-81950057D01*
X144809523Y-81950057D02*
X144857142Y-82045295D01*
X144857142Y-82045295D02*
X144857142Y-82188152D01*
X144857142Y-82188152D02*
X144809523Y-82283390D01*
X144809523Y-82283390D02*
X144761904Y-82331009D01*
X144761904Y-82331009D02*
X144666666Y-82378628D01*
X144666666Y-82378628D02*
X144285714Y-82378628D01*
X145809523Y-82854819D02*
X145238095Y-82854819D01*
X145523809Y-82854819D02*
X145523809Y-81854819D01*
X145523809Y-81854819D02*
X145428571Y-81997676D01*
X145428571Y-81997676D02*
X145333333Y-82092914D01*
X145333333Y-82092914D02*
X145238095Y-82140533D01*
X146142857Y-81854819D02*
X146761904Y-81854819D01*
X146761904Y-81854819D02*
X146428571Y-82235771D01*
X146428571Y-82235771D02*
X146571428Y-82235771D01*
X146571428Y-82235771D02*
X146666666Y-82283390D01*
X146666666Y-82283390D02*
X146714285Y-82331009D01*
X146714285Y-82331009D02*
X146761904Y-82426247D01*
X146761904Y-82426247D02*
X146761904Y-82664342D01*
X146761904Y-82664342D02*
X146714285Y-82759580D01*
X146714285Y-82759580D02*
X146666666Y-82807200D01*
X146666666Y-82807200D02*
X146571428Y-82854819D01*
X146571428Y-82854819D02*
X146285714Y-82854819D01*
X146285714Y-82854819D02*
X146190476Y-82807200D01*
X146190476Y-82807200D02*
X146142857Y-82759580D01*
X134119642Y-117209580D02*
X134072023Y-117257200D01*
X134072023Y-117257200D02*
X133929166Y-117304819D01*
X133929166Y-117304819D02*
X133833928Y-117304819D01*
X133833928Y-117304819D02*
X133691071Y-117257200D01*
X133691071Y-117257200D02*
X133595833Y-117161961D01*
X133595833Y-117161961D02*
X133548214Y-117066723D01*
X133548214Y-117066723D02*
X133500595Y-116876247D01*
X133500595Y-116876247D02*
X133500595Y-116733390D01*
X133500595Y-116733390D02*
X133548214Y-116542914D01*
X133548214Y-116542914D02*
X133595833Y-116447676D01*
X133595833Y-116447676D02*
X133691071Y-116352438D01*
X133691071Y-116352438D02*
X133833928Y-116304819D01*
X133833928Y-116304819D02*
X133929166Y-116304819D01*
X133929166Y-116304819D02*
X134072023Y-116352438D01*
X134072023Y-116352438D02*
X134119642Y-116400057D01*
X134500595Y-116400057D02*
X134548214Y-116352438D01*
X134548214Y-116352438D02*
X134643452Y-116304819D01*
X134643452Y-116304819D02*
X134881547Y-116304819D01*
X134881547Y-116304819D02*
X134976785Y-116352438D01*
X134976785Y-116352438D02*
X135024404Y-116400057D01*
X135024404Y-116400057D02*
X135072023Y-116495295D01*
X135072023Y-116495295D02*
X135072023Y-116590533D01*
X135072023Y-116590533D02*
X135024404Y-116733390D01*
X135024404Y-116733390D02*
X134452976Y-117304819D01*
X134452976Y-117304819D02*
X135072023Y-117304819D01*
X136024404Y-117304819D02*
X135452976Y-117304819D01*
X135738690Y-117304819D02*
X135738690Y-116304819D01*
X135738690Y-116304819D02*
X135643452Y-116447676D01*
X135643452Y-116447676D02*
X135548214Y-116542914D01*
X135548214Y-116542914D02*
X135452976Y-116590533D01*
X140816667Y-80604819D02*
X141150000Y-81604819D01*
X141150000Y-81604819D02*
X141483333Y-80604819D01*
X142388095Y-81509580D02*
X142340476Y-81557200D01*
X142340476Y-81557200D02*
X142197619Y-81604819D01*
X142197619Y-81604819D02*
X142102381Y-81604819D01*
X142102381Y-81604819D02*
X141959524Y-81557200D01*
X141959524Y-81557200D02*
X141864286Y-81461961D01*
X141864286Y-81461961D02*
X141816667Y-81366723D01*
X141816667Y-81366723D02*
X141769048Y-81176247D01*
X141769048Y-81176247D02*
X141769048Y-81033390D01*
X141769048Y-81033390D02*
X141816667Y-80842914D01*
X141816667Y-80842914D02*
X141864286Y-80747676D01*
X141864286Y-80747676D02*
X141959524Y-80652438D01*
X141959524Y-80652438D02*
X142102381Y-80604819D01*
X142102381Y-80604819D02*
X142197619Y-80604819D01*
X142197619Y-80604819D02*
X142340476Y-80652438D01*
X142340476Y-80652438D02*
X142388095Y-80700057D01*
X143388095Y-81509580D02*
X143340476Y-81557200D01*
X143340476Y-81557200D02*
X143197619Y-81604819D01*
X143197619Y-81604819D02*
X143102381Y-81604819D01*
X143102381Y-81604819D02*
X142959524Y-81557200D01*
X142959524Y-81557200D02*
X142864286Y-81461961D01*
X142864286Y-81461961D02*
X142816667Y-81366723D01*
X142816667Y-81366723D02*
X142769048Y-81176247D01*
X142769048Y-81176247D02*
X142769048Y-81033390D01*
X142769048Y-81033390D02*
X142816667Y-80842914D01*
X142816667Y-80842914D02*
X142864286Y-80747676D01*
X142864286Y-80747676D02*
X142959524Y-80652438D01*
X142959524Y-80652438D02*
X143102381Y-80604819D01*
X143102381Y-80604819D02*
X143197619Y-80604819D01*
X143197619Y-80604819D02*
X143340476Y-80652438D01*
X143340476Y-80652438D02*
X143388095Y-80700057D01*
X155107580Y-107342857D02*
X155155200Y-107390476D01*
X155155200Y-107390476D02*
X155202819Y-107533333D01*
X155202819Y-107533333D02*
X155202819Y-107628571D01*
X155202819Y-107628571D02*
X155155200Y-107771428D01*
X155155200Y-107771428D02*
X155059961Y-107866666D01*
X155059961Y-107866666D02*
X154964723Y-107914285D01*
X154964723Y-107914285D02*
X154774247Y-107961904D01*
X154774247Y-107961904D02*
X154631390Y-107961904D01*
X154631390Y-107961904D02*
X154440914Y-107914285D01*
X154440914Y-107914285D02*
X154345676Y-107866666D01*
X154345676Y-107866666D02*
X154250438Y-107771428D01*
X154250438Y-107771428D02*
X154202819Y-107628571D01*
X154202819Y-107628571D02*
X154202819Y-107533333D01*
X154202819Y-107533333D02*
X154250438Y-107390476D01*
X154250438Y-107390476D02*
X154298057Y-107342857D01*
X155202819Y-106390476D02*
X155202819Y-106961904D01*
X155202819Y-106676190D02*
X154202819Y-106676190D01*
X154202819Y-106676190D02*
X154345676Y-106771428D01*
X154345676Y-106771428D02*
X154440914Y-106866666D01*
X154440914Y-106866666D02*
X154488533Y-106961904D01*
X154631390Y-105819047D02*
X154583771Y-105914285D01*
X154583771Y-105914285D02*
X154536152Y-105961904D01*
X154536152Y-105961904D02*
X154440914Y-106009523D01*
X154440914Y-106009523D02*
X154393295Y-106009523D01*
X154393295Y-106009523D02*
X154298057Y-105961904D01*
X154298057Y-105961904D02*
X154250438Y-105914285D01*
X154250438Y-105914285D02*
X154202819Y-105819047D01*
X154202819Y-105819047D02*
X154202819Y-105628571D01*
X154202819Y-105628571D02*
X154250438Y-105533333D01*
X154250438Y-105533333D02*
X154298057Y-105485714D01*
X154298057Y-105485714D02*
X154393295Y-105438095D01*
X154393295Y-105438095D02*
X154440914Y-105438095D01*
X154440914Y-105438095D02*
X154536152Y-105485714D01*
X154536152Y-105485714D02*
X154583771Y-105533333D01*
X154583771Y-105533333D02*
X154631390Y-105628571D01*
X154631390Y-105628571D02*
X154631390Y-105819047D01*
X154631390Y-105819047D02*
X154679009Y-105914285D01*
X154679009Y-105914285D02*
X154726628Y-105961904D01*
X154726628Y-105961904D02*
X154821866Y-106009523D01*
X154821866Y-106009523D02*
X155012342Y-106009523D01*
X155012342Y-106009523D02*
X155107580Y-105961904D01*
X155107580Y-105961904D02*
X155155200Y-105914285D01*
X155155200Y-105914285D02*
X155202819Y-105819047D01*
X155202819Y-105819047D02*
X155202819Y-105628571D01*
X155202819Y-105628571D02*
X155155200Y-105533333D01*
X155155200Y-105533333D02*
X155107580Y-105485714D01*
X155107580Y-105485714D02*
X155012342Y-105438095D01*
X155012342Y-105438095D02*
X154821866Y-105438095D01*
X154821866Y-105438095D02*
X154726628Y-105485714D01*
X154726628Y-105485714D02*
X154679009Y-105533333D01*
X154679009Y-105533333D02*
X154631390Y-105628571D01*
X111657142Y-83009580D02*
X111609523Y-83057200D01*
X111609523Y-83057200D02*
X111466666Y-83104819D01*
X111466666Y-83104819D02*
X111371428Y-83104819D01*
X111371428Y-83104819D02*
X111228571Y-83057200D01*
X111228571Y-83057200D02*
X111133333Y-82961961D01*
X111133333Y-82961961D02*
X111085714Y-82866723D01*
X111085714Y-82866723D02*
X111038095Y-82676247D01*
X111038095Y-82676247D02*
X111038095Y-82533390D01*
X111038095Y-82533390D02*
X111085714Y-82342914D01*
X111085714Y-82342914D02*
X111133333Y-82247676D01*
X111133333Y-82247676D02*
X111228571Y-82152438D01*
X111228571Y-82152438D02*
X111371428Y-82104819D01*
X111371428Y-82104819D02*
X111466666Y-82104819D01*
X111466666Y-82104819D02*
X111609523Y-82152438D01*
X111609523Y-82152438D02*
X111657142Y-82200057D01*
X112609523Y-83104819D02*
X112038095Y-83104819D01*
X112323809Y-83104819D02*
X112323809Y-82104819D01*
X112323809Y-82104819D02*
X112228571Y-82247676D01*
X112228571Y-82247676D02*
X112133333Y-82342914D01*
X112133333Y-82342914D02*
X112038095Y-82390533D01*
X113466666Y-82438152D02*
X113466666Y-83104819D01*
X113228571Y-82057200D02*
X112990476Y-82771485D01*
X112990476Y-82771485D02*
X113609523Y-82771485D01*
X150109580Y-77392857D02*
X150157200Y-77440476D01*
X150157200Y-77440476D02*
X150204819Y-77583333D01*
X150204819Y-77583333D02*
X150204819Y-77678571D01*
X150204819Y-77678571D02*
X150157200Y-77821428D01*
X150157200Y-77821428D02*
X150061961Y-77916666D01*
X150061961Y-77916666D02*
X149966723Y-77964285D01*
X149966723Y-77964285D02*
X149776247Y-78011904D01*
X149776247Y-78011904D02*
X149633390Y-78011904D01*
X149633390Y-78011904D02*
X149442914Y-77964285D01*
X149442914Y-77964285D02*
X149347676Y-77916666D01*
X149347676Y-77916666D02*
X149252438Y-77821428D01*
X149252438Y-77821428D02*
X149204819Y-77678571D01*
X149204819Y-77678571D02*
X149204819Y-77583333D01*
X149204819Y-77583333D02*
X149252438Y-77440476D01*
X149252438Y-77440476D02*
X149300057Y-77392857D01*
X150204819Y-76440476D02*
X150204819Y-77011904D01*
X150204819Y-76726190D02*
X149204819Y-76726190D01*
X149204819Y-76726190D02*
X149347676Y-76821428D01*
X149347676Y-76821428D02*
X149442914Y-76916666D01*
X149442914Y-76916666D02*
X149490533Y-77011904D01*
X149204819Y-76107142D02*
X149204819Y-75488095D01*
X149204819Y-75488095D02*
X149585771Y-75821428D01*
X149585771Y-75821428D02*
X149585771Y-75678571D01*
X149585771Y-75678571D02*
X149633390Y-75583333D01*
X149633390Y-75583333D02*
X149681009Y-75535714D01*
X149681009Y-75535714D02*
X149776247Y-75488095D01*
X149776247Y-75488095D02*
X150014342Y-75488095D01*
X150014342Y-75488095D02*
X150109580Y-75535714D01*
X150109580Y-75535714D02*
X150157200Y-75583333D01*
X150157200Y-75583333D02*
X150204819Y-75678571D01*
X150204819Y-75678571D02*
X150204819Y-75964285D01*
X150204819Y-75964285D02*
X150157200Y-76059523D01*
X150157200Y-76059523D02*
X150109580Y-76107142D01*
X145359580Y-103567857D02*
X145407200Y-103615476D01*
X145407200Y-103615476D02*
X145454819Y-103758333D01*
X145454819Y-103758333D02*
X145454819Y-103853571D01*
X145454819Y-103853571D02*
X145407200Y-103996428D01*
X145407200Y-103996428D02*
X145311961Y-104091666D01*
X145311961Y-104091666D02*
X145216723Y-104139285D01*
X145216723Y-104139285D02*
X145026247Y-104186904D01*
X145026247Y-104186904D02*
X144883390Y-104186904D01*
X144883390Y-104186904D02*
X144692914Y-104139285D01*
X144692914Y-104139285D02*
X144597676Y-104091666D01*
X144597676Y-104091666D02*
X144502438Y-103996428D01*
X144502438Y-103996428D02*
X144454819Y-103853571D01*
X144454819Y-103853571D02*
X144454819Y-103758333D01*
X144454819Y-103758333D02*
X144502438Y-103615476D01*
X144502438Y-103615476D02*
X144550057Y-103567857D01*
X145454819Y-102615476D02*
X145454819Y-103186904D01*
X145454819Y-102901190D02*
X144454819Y-102901190D01*
X144454819Y-102901190D02*
X144597676Y-102996428D01*
X144597676Y-102996428D02*
X144692914Y-103091666D01*
X144692914Y-103091666D02*
X144740533Y-103186904D01*
X144454819Y-101758333D02*
X144454819Y-101948809D01*
X144454819Y-101948809D02*
X144502438Y-102044047D01*
X144502438Y-102044047D02*
X144550057Y-102091666D01*
X144550057Y-102091666D02*
X144692914Y-102186904D01*
X144692914Y-102186904D02*
X144883390Y-102234523D01*
X144883390Y-102234523D02*
X145264342Y-102234523D01*
X145264342Y-102234523D02*
X145359580Y-102186904D01*
X145359580Y-102186904D02*
X145407200Y-102139285D01*
X145407200Y-102139285D02*
X145454819Y-102044047D01*
X145454819Y-102044047D02*
X145454819Y-101853571D01*
X145454819Y-101853571D02*
X145407200Y-101758333D01*
X145407200Y-101758333D02*
X145359580Y-101710714D01*
X145359580Y-101710714D02*
X145264342Y-101663095D01*
X145264342Y-101663095D02*
X145026247Y-101663095D01*
X145026247Y-101663095D02*
X144931009Y-101710714D01*
X144931009Y-101710714D02*
X144883390Y-101758333D01*
X144883390Y-101758333D02*
X144835771Y-101853571D01*
X144835771Y-101853571D02*
X144835771Y-102044047D01*
X144835771Y-102044047D02*
X144883390Y-102139285D01*
X144883390Y-102139285D02*
X144931009Y-102186904D01*
X144931009Y-102186904D02*
X145026247Y-102234523D01*
X139238095Y-121979819D02*
X139238095Y-122789342D01*
X139238095Y-122789342D02*
X139285714Y-122884580D01*
X139285714Y-122884580D02*
X139333333Y-122932200D01*
X139333333Y-122932200D02*
X139428571Y-122979819D01*
X139428571Y-122979819D02*
X139619047Y-122979819D01*
X139619047Y-122979819D02*
X139714285Y-122932200D01*
X139714285Y-122932200D02*
X139761904Y-122884580D01*
X139761904Y-122884580D02*
X139809523Y-122789342D01*
X139809523Y-122789342D02*
X139809523Y-121979819D01*
X140190476Y-121979819D02*
X140809523Y-121979819D01*
X140809523Y-121979819D02*
X140476190Y-122360771D01*
X140476190Y-122360771D02*
X140619047Y-122360771D01*
X140619047Y-122360771D02*
X140714285Y-122408390D01*
X140714285Y-122408390D02*
X140761904Y-122456009D01*
X140761904Y-122456009D02*
X140809523Y-122551247D01*
X140809523Y-122551247D02*
X140809523Y-122789342D01*
X140809523Y-122789342D02*
X140761904Y-122884580D01*
X140761904Y-122884580D02*
X140714285Y-122932200D01*
X140714285Y-122932200D02*
X140619047Y-122979819D01*
X140619047Y-122979819D02*
X140333333Y-122979819D01*
X140333333Y-122979819D02*
X140238095Y-122932200D01*
X140238095Y-122932200D02*
X140190476Y-122884580D01*
X136400000Y-116254819D02*
X136400000Y-116492914D01*
X136161905Y-116397676D02*
X136400000Y-116492914D01*
X136400000Y-116492914D02*
X136638095Y-116397676D01*
X136257143Y-116683390D02*
X136400000Y-116492914D01*
X136400000Y-116492914D02*
X136542857Y-116683390D01*
X137087500Y-116254819D02*
X137087500Y-116492914D01*
X136849405Y-116397676D02*
X137087500Y-116492914D01*
X137087500Y-116492914D02*
X137325595Y-116397676D01*
X136944643Y-116683390D02*
X137087500Y-116492914D01*
X137087500Y-116492914D02*
X137230357Y-116683390D01*
X143033333Y-89254819D02*
X142700000Y-88778628D01*
X142461905Y-89254819D02*
X142461905Y-88254819D01*
X142461905Y-88254819D02*
X142842857Y-88254819D01*
X142842857Y-88254819D02*
X142938095Y-88302438D01*
X142938095Y-88302438D02*
X142985714Y-88350057D01*
X142985714Y-88350057D02*
X143033333Y-88445295D01*
X143033333Y-88445295D02*
X143033333Y-88588152D01*
X143033333Y-88588152D02*
X142985714Y-88683390D01*
X142985714Y-88683390D02*
X142938095Y-88731009D01*
X142938095Y-88731009D02*
X142842857Y-88778628D01*
X142842857Y-88778628D02*
X142461905Y-88778628D01*
X143366667Y-88254819D02*
X143985714Y-88254819D01*
X143985714Y-88254819D02*
X143652381Y-88635771D01*
X143652381Y-88635771D02*
X143795238Y-88635771D01*
X143795238Y-88635771D02*
X143890476Y-88683390D01*
X143890476Y-88683390D02*
X143938095Y-88731009D01*
X143938095Y-88731009D02*
X143985714Y-88826247D01*
X143985714Y-88826247D02*
X143985714Y-89064342D01*
X143985714Y-89064342D02*
X143938095Y-89159580D01*
X143938095Y-89159580D02*
X143890476Y-89207200D01*
X143890476Y-89207200D02*
X143795238Y-89254819D01*
X143795238Y-89254819D02*
X143509524Y-89254819D01*
X143509524Y-89254819D02*
X143414286Y-89207200D01*
X143414286Y-89207200D02*
X143366667Y-89159580D01*
X114488095Y-121954819D02*
X114488095Y-122764342D01*
X114488095Y-122764342D02*
X114535714Y-122859580D01*
X114535714Y-122859580D02*
X114583333Y-122907200D01*
X114583333Y-122907200D02*
X114678571Y-122954819D01*
X114678571Y-122954819D02*
X114869047Y-122954819D01*
X114869047Y-122954819D02*
X114964285Y-122907200D01*
X114964285Y-122907200D02*
X115011904Y-122859580D01*
X115011904Y-122859580D02*
X115059523Y-122764342D01*
X115059523Y-122764342D02*
X115059523Y-121954819D01*
X115488095Y-122050057D02*
X115535714Y-122002438D01*
X115535714Y-122002438D02*
X115630952Y-121954819D01*
X115630952Y-121954819D02*
X115869047Y-121954819D01*
X115869047Y-121954819D02*
X115964285Y-122002438D01*
X115964285Y-122002438D02*
X116011904Y-122050057D01*
X116011904Y-122050057D02*
X116059523Y-122145295D01*
X116059523Y-122145295D02*
X116059523Y-122240533D01*
X116059523Y-122240533D02*
X116011904Y-122383390D01*
X116011904Y-122383390D02*
X115440476Y-122954819D01*
X115440476Y-122954819D02*
X116059523Y-122954819D01*
X131945833Y-117104819D02*
X131612500Y-116628628D01*
X131374405Y-117104819D02*
X131374405Y-116104819D01*
X131374405Y-116104819D02*
X131755357Y-116104819D01*
X131755357Y-116104819D02*
X131850595Y-116152438D01*
X131850595Y-116152438D02*
X131898214Y-116200057D01*
X131898214Y-116200057D02*
X131945833Y-116295295D01*
X131945833Y-116295295D02*
X131945833Y-116438152D01*
X131945833Y-116438152D02*
X131898214Y-116533390D01*
X131898214Y-116533390D02*
X131850595Y-116581009D01*
X131850595Y-116581009D02*
X131755357Y-116628628D01*
X131755357Y-116628628D02*
X131374405Y-116628628D01*
X132422024Y-117104819D02*
X132612500Y-117104819D01*
X132612500Y-117104819D02*
X132707738Y-117057200D01*
X132707738Y-117057200D02*
X132755357Y-117009580D01*
X132755357Y-117009580D02*
X132850595Y-116866723D01*
X132850595Y-116866723D02*
X132898214Y-116676247D01*
X132898214Y-116676247D02*
X132898214Y-116295295D01*
X132898214Y-116295295D02*
X132850595Y-116200057D01*
X132850595Y-116200057D02*
X132802976Y-116152438D01*
X132802976Y-116152438D02*
X132707738Y-116104819D01*
X132707738Y-116104819D02*
X132517262Y-116104819D01*
X132517262Y-116104819D02*
X132422024Y-116152438D01*
X132422024Y-116152438D02*
X132374405Y-116200057D01*
X132374405Y-116200057D02*
X132326786Y-116295295D01*
X132326786Y-116295295D02*
X132326786Y-116533390D01*
X132326786Y-116533390D02*
X132374405Y-116628628D01*
X132374405Y-116628628D02*
X132422024Y-116676247D01*
X132422024Y-116676247D02*
X132517262Y-116723866D01*
X132517262Y-116723866D02*
X132707738Y-116723866D01*
X132707738Y-116723866D02*
X132802976Y-116676247D01*
X132802976Y-116676247D02*
X132850595Y-116628628D01*
X132850595Y-116628628D02*
X132898214Y-116533390D01*
X122033333Y-115759580D02*
X121985714Y-115807200D01*
X121985714Y-115807200D02*
X121842857Y-115854819D01*
X121842857Y-115854819D02*
X121747619Y-115854819D01*
X121747619Y-115854819D02*
X121604762Y-115807200D01*
X121604762Y-115807200D02*
X121509524Y-115711961D01*
X121509524Y-115711961D02*
X121461905Y-115616723D01*
X121461905Y-115616723D02*
X121414286Y-115426247D01*
X121414286Y-115426247D02*
X121414286Y-115283390D01*
X121414286Y-115283390D02*
X121461905Y-115092914D01*
X121461905Y-115092914D02*
X121509524Y-114997676D01*
X121509524Y-114997676D02*
X121604762Y-114902438D01*
X121604762Y-114902438D02*
X121747619Y-114854819D01*
X121747619Y-114854819D02*
X121842857Y-114854819D01*
X121842857Y-114854819D02*
X121985714Y-114902438D01*
X121985714Y-114902438D02*
X122033333Y-114950057D01*
X122366667Y-114854819D02*
X122985714Y-114854819D01*
X122985714Y-114854819D02*
X122652381Y-115235771D01*
X122652381Y-115235771D02*
X122795238Y-115235771D01*
X122795238Y-115235771D02*
X122890476Y-115283390D01*
X122890476Y-115283390D02*
X122938095Y-115331009D01*
X122938095Y-115331009D02*
X122985714Y-115426247D01*
X122985714Y-115426247D02*
X122985714Y-115664342D01*
X122985714Y-115664342D02*
X122938095Y-115759580D01*
X122938095Y-115759580D02*
X122890476Y-115807200D01*
X122890476Y-115807200D02*
X122795238Y-115854819D01*
X122795238Y-115854819D02*
X122509524Y-115854819D01*
X122509524Y-115854819D02*
X122414286Y-115807200D01*
X122414286Y-115807200D02*
X122366667Y-115759580D01*
X144109523Y-70854819D02*
X143633333Y-70854819D01*
X143633333Y-70854819D02*
X143585714Y-71331009D01*
X143585714Y-71331009D02*
X143633333Y-71283390D01*
X143633333Y-71283390D02*
X143728571Y-71235771D01*
X143728571Y-71235771D02*
X143966666Y-71235771D01*
X143966666Y-71235771D02*
X144061904Y-71283390D01*
X144061904Y-71283390D02*
X144109523Y-71331009D01*
X144109523Y-71331009D02*
X144157142Y-71426247D01*
X144157142Y-71426247D02*
X144157142Y-71664342D01*
X144157142Y-71664342D02*
X144109523Y-71759580D01*
X144109523Y-71759580D02*
X144061904Y-71807200D01*
X144061904Y-71807200D02*
X143966666Y-71854819D01*
X143966666Y-71854819D02*
X143728571Y-71854819D01*
X143728571Y-71854819D02*
X143633333Y-71807200D01*
X143633333Y-71807200D02*
X143585714Y-71759580D01*
X144442857Y-70854819D02*
X144776190Y-71854819D01*
X144776190Y-71854819D02*
X145109523Y-70854819D01*
X150669580Y-107766666D02*
X150717200Y-107814285D01*
X150717200Y-107814285D02*
X150764819Y-107957142D01*
X150764819Y-107957142D02*
X150764819Y-108052380D01*
X150764819Y-108052380D02*
X150717200Y-108195237D01*
X150717200Y-108195237D02*
X150621961Y-108290475D01*
X150621961Y-108290475D02*
X150526723Y-108338094D01*
X150526723Y-108338094D02*
X150336247Y-108385713D01*
X150336247Y-108385713D02*
X150193390Y-108385713D01*
X150193390Y-108385713D02*
X150002914Y-108338094D01*
X150002914Y-108338094D02*
X149907676Y-108290475D01*
X149907676Y-108290475D02*
X149812438Y-108195237D01*
X149812438Y-108195237D02*
X149764819Y-108052380D01*
X149764819Y-108052380D02*
X149764819Y-107957142D01*
X149764819Y-107957142D02*
X149812438Y-107814285D01*
X149812438Y-107814285D02*
X149860057Y-107766666D01*
X149764819Y-107433332D02*
X149764819Y-106766666D01*
X149764819Y-106766666D02*
X150764819Y-107195237D01*
X150757142Y-89709580D02*
X150709523Y-89757200D01*
X150709523Y-89757200D02*
X150566666Y-89804819D01*
X150566666Y-89804819D02*
X150471428Y-89804819D01*
X150471428Y-89804819D02*
X150328571Y-89757200D01*
X150328571Y-89757200D02*
X150233333Y-89661961D01*
X150233333Y-89661961D02*
X150185714Y-89566723D01*
X150185714Y-89566723D02*
X150138095Y-89376247D01*
X150138095Y-89376247D02*
X150138095Y-89233390D01*
X150138095Y-89233390D02*
X150185714Y-89042914D01*
X150185714Y-89042914D02*
X150233333Y-88947676D01*
X150233333Y-88947676D02*
X150328571Y-88852438D01*
X150328571Y-88852438D02*
X150471428Y-88804819D01*
X150471428Y-88804819D02*
X150566666Y-88804819D01*
X150566666Y-88804819D02*
X150709523Y-88852438D01*
X150709523Y-88852438D02*
X150757142Y-88900057D01*
X151709523Y-89804819D02*
X151138095Y-89804819D01*
X151423809Y-89804819D02*
X151423809Y-88804819D01*
X151423809Y-88804819D02*
X151328571Y-88947676D01*
X151328571Y-88947676D02*
X151233333Y-89042914D01*
X151233333Y-89042914D02*
X151138095Y-89090533D01*
X152661904Y-89804819D02*
X152090476Y-89804819D01*
X152376190Y-89804819D02*
X152376190Y-88804819D01*
X152376190Y-88804819D02*
X152280952Y-88947676D01*
X152280952Y-88947676D02*
X152185714Y-89042914D01*
X152185714Y-89042914D02*
X152090476Y-89090533D01*
X134411905Y-80354819D02*
X135030952Y-80354819D01*
X135030952Y-80354819D02*
X134697619Y-80735771D01*
X134697619Y-80735771D02*
X134840476Y-80735771D01*
X134840476Y-80735771D02*
X134935714Y-80783390D01*
X134935714Y-80783390D02*
X134983333Y-80831009D01*
X134983333Y-80831009D02*
X135030952Y-80926247D01*
X135030952Y-80926247D02*
X135030952Y-81164342D01*
X135030952Y-81164342D02*
X134983333Y-81259580D01*
X134983333Y-81259580D02*
X134935714Y-81307200D01*
X134935714Y-81307200D02*
X134840476Y-81354819D01*
X134840476Y-81354819D02*
X134554762Y-81354819D01*
X134554762Y-81354819D02*
X134459524Y-81307200D01*
X134459524Y-81307200D02*
X134411905Y-81259580D01*
X135316667Y-80354819D02*
X135650000Y-81354819D01*
X135650000Y-81354819D02*
X135983333Y-80354819D01*
X136221429Y-80354819D02*
X136840476Y-80354819D01*
X136840476Y-80354819D02*
X136507143Y-80735771D01*
X136507143Y-80735771D02*
X136650000Y-80735771D01*
X136650000Y-80735771D02*
X136745238Y-80783390D01*
X136745238Y-80783390D02*
X136792857Y-80831009D01*
X136792857Y-80831009D02*
X136840476Y-80926247D01*
X136840476Y-80926247D02*
X136840476Y-81164342D01*
X136840476Y-81164342D02*
X136792857Y-81259580D01*
X136792857Y-81259580D02*
X136745238Y-81307200D01*
X136745238Y-81307200D02*
X136650000Y-81354819D01*
X136650000Y-81354819D02*
X136364286Y-81354819D01*
X136364286Y-81354819D02*
X136269048Y-81307200D01*
X136269048Y-81307200D02*
X136221429Y-81259580D01*
X134369642Y-111409580D02*
X134322023Y-111457200D01*
X134322023Y-111457200D02*
X134179166Y-111504819D01*
X134179166Y-111504819D02*
X134083928Y-111504819D01*
X134083928Y-111504819D02*
X133941071Y-111457200D01*
X133941071Y-111457200D02*
X133845833Y-111361961D01*
X133845833Y-111361961D02*
X133798214Y-111266723D01*
X133798214Y-111266723D02*
X133750595Y-111076247D01*
X133750595Y-111076247D02*
X133750595Y-110933390D01*
X133750595Y-110933390D02*
X133798214Y-110742914D01*
X133798214Y-110742914D02*
X133845833Y-110647676D01*
X133845833Y-110647676D02*
X133941071Y-110552438D01*
X133941071Y-110552438D02*
X134083928Y-110504819D01*
X134083928Y-110504819D02*
X134179166Y-110504819D01*
X134179166Y-110504819D02*
X134322023Y-110552438D01*
X134322023Y-110552438D02*
X134369642Y-110600057D01*
X134750595Y-110600057D02*
X134798214Y-110552438D01*
X134798214Y-110552438D02*
X134893452Y-110504819D01*
X134893452Y-110504819D02*
X135131547Y-110504819D01*
X135131547Y-110504819D02*
X135226785Y-110552438D01*
X135226785Y-110552438D02*
X135274404Y-110600057D01*
X135274404Y-110600057D02*
X135322023Y-110695295D01*
X135322023Y-110695295D02*
X135322023Y-110790533D01*
X135322023Y-110790533D02*
X135274404Y-110933390D01*
X135274404Y-110933390D02*
X134702976Y-111504819D01*
X134702976Y-111504819D02*
X135322023Y-111504819D01*
X135941071Y-110504819D02*
X136036309Y-110504819D01*
X136036309Y-110504819D02*
X136131547Y-110552438D01*
X136131547Y-110552438D02*
X136179166Y-110600057D01*
X136179166Y-110600057D02*
X136226785Y-110695295D01*
X136226785Y-110695295D02*
X136274404Y-110885771D01*
X136274404Y-110885771D02*
X136274404Y-111123866D01*
X136274404Y-111123866D02*
X136226785Y-111314342D01*
X136226785Y-111314342D02*
X136179166Y-111409580D01*
X136179166Y-111409580D02*
X136131547Y-111457200D01*
X136131547Y-111457200D02*
X136036309Y-111504819D01*
X136036309Y-111504819D02*
X135941071Y-111504819D01*
X135941071Y-111504819D02*
X135845833Y-111457200D01*
X135845833Y-111457200D02*
X135798214Y-111409580D01*
X135798214Y-111409580D02*
X135750595Y-111314342D01*
X135750595Y-111314342D02*
X135702976Y-111123866D01*
X135702976Y-111123866D02*
X135702976Y-110885771D01*
X135702976Y-110885771D02*
X135750595Y-110695295D01*
X135750595Y-110695295D02*
X135798214Y-110600057D01*
X135798214Y-110600057D02*
X135845833Y-110552438D01*
X135845833Y-110552438D02*
X135941071Y-110504819D01*
X151833333Y-110804819D02*
X151500000Y-110328628D01*
X151261905Y-110804819D02*
X151261905Y-109804819D01*
X151261905Y-109804819D02*
X151642857Y-109804819D01*
X151642857Y-109804819D02*
X151738095Y-109852438D01*
X151738095Y-109852438D02*
X151785714Y-109900057D01*
X151785714Y-109900057D02*
X151833333Y-109995295D01*
X151833333Y-109995295D02*
X151833333Y-110138152D01*
X151833333Y-110138152D02*
X151785714Y-110233390D01*
X151785714Y-110233390D02*
X151738095Y-110281009D01*
X151738095Y-110281009D02*
X151642857Y-110328628D01*
X151642857Y-110328628D02*
X151261905Y-110328628D01*
X152690476Y-110138152D02*
X152690476Y-110804819D01*
X152452381Y-109757200D02*
X152214286Y-110471485D01*
X152214286Y-110471485D02*
X152833333Y-110471485D01*
X125038095Y-87037200D02*
X125180952Y-87084819D01*
X125180952Y-87084819D02*
X125419047Y-87084819D01*
X125419047Y-87084819D02*
X125514285Y-87037200D01*
X125514285Y-87037200D02*
X125561904Y-86989580D01*
X125561904Y-86989580D02*
X125609523Y-86894342D01*
X125609523Y-86894342D02*
X125609523Y-86799104D01*
X125609523Y-86799104D02*
X125561904Y-86703866D01*
X125561904Y-86703866D02*
X125514285Y-86656247D01*
X125514285Y-86656247D02*
X125419047Y-86608628D01*
X125419047Y-86608628D02*
X125228571Y-86561009D01*
X125228571Y-86561009D02*
X125133333Y-86513390D01*
X125133333Y-86513390D02*
X125085714Y-86465771D01*
X125085714Y-86465771D02*
X125038095Y-86370533D01*
X125038095Y-86370533D02*
X125038095Y-86275295D01*
X125038095Y-86275295D02*
X125085714Y-86180057D01*
X125085714Y-86180057D02*
X125133333Y-86132438D01*
X125133333Y-86132438D02*
X125228571Y-86084819D01*
X125228571Y-86084819D02*
X125466666Y-86084819D01*
X125466666Y-86084819D02*
X125609523Y-86132438D01*
X126466666Y-86418152D02*
X126466666Y-87084819D01*
X126228571Y-86037200D02*
X125990476Y-86751485D01*
X125990476Y-86751485D02*
X126609523Y-86751485D01*
X159984580Y-84097916D02*
X160032200Y-84145535D01*
X160032200Y-84145535D02*
X160079819Y-84288392D01*
X160079819Y-84288392D02*
X160079819Y-84383630D01*
X160079819Y-84383630D02*
X160032200Y-84526487D01*
X160032200Y-84526487D02*
X159936961Y-84621725D01*
X159936961Y-84621725D02*
X159841723Y-84669344D01*
X159841723Y-84669344D02*
X159651247Y-84716963D01*
X159651247Y-84716963D02*
X159508390Y-84716963D01*
X159508390Y-84716963D02*
X159317914Y-84669344D01*
X159317914Y-84669344D02*
X159222676Y-84621725D01*
X159222676Y-84621725D02*
X159127438Y-84526487D01*
X159127438Y-84526487D02*
X159079819Y-84383630D01*
X159079819Y-84383630D02*
X159079819Y-84288392D01*
X159079819Y-84288392D02*
X159127438Y-84145535D01*
X159127438Y-84145535D02*
X159175057Y-84097916D01*
X159508390Y-83526487D02*
X159460771Y-83621725D01*
X159460771Y-83621725D02*
X159413152Y-83669344D01*
X159413152Y-83669344D02*
X159317914Y-83716963D01*
X159317914Y-83716963D02*
X159270295Y-83716963D01*
X159270295Y-83716963D02*
X159175057Y-83669344D01*
X159175057Y-83669344D02*
X159127438Y-83621725D01*
X159127438Y-83621725D02*
X159079819Y-83526487D01*
X159079819Y-83526487D02*
X159079819Y-83336011D01*
X159079819Y-83336011D02*
X159127438Y-83240773D01*
X159127438Y-83240773D02*
X159175057Y-83193154D01*
X159175057Y-83193154D02*
X159270295Y-83145535D01*
X159270295Y-83145535D02*
X159317914Y-83145535D01*
X159317914Y-83145535D02*
X159413152Y-83193154D01*
X159413152Y-83193154D02*
X159460771Y-83240773D01*
X159460771Y-83240773D02*
X159508390Y-83336011D01*
X159508390Y-83336011D02*
X159508390Y-83526487D01*
X159508390Y-83526487D02*
X159556009Y-83621725D01*
X159556009Y-83621725D02*
X159603628Y-83669344D01*
X159603628Y-83669344D02*
X159698866Y-83716963D01*
X159698866Y-83716963D02*
X159889342Y-83716963D01*
X159889342Y-83716963D02*
X159984580Y-83669344D01*
X159984580Y-83669344D02*
X160032200Y-83621725D01*
X160032200Y-83621725D02*
X160079819Y-83526487D01*
X160079819Y-83526487D02*
X160079819Y-83336011D01*
X160079819Y-83336011D02*
X160032200Y-83240773D01*
X160032200Y-83240773D02*
X159984580Y-83193154D01*
X159984580Y-83193154D02*
X159889342Y-83145535D01*
X159889342Y-83145535D02*
X159698866Y-83145535D01*
X159698866Y-83145535D02*
X159603628Y-83193154D01*
X159603628Y-83193154D02*
X159556009Y-83240773D01*
X159556009Y-83240773D02*
X159508390Y-83336011D01*
X153254819Y-94286904D02*
X154064342Y-94286904D01*
X154064342Y-94286904D02*
X154159580Y-94239285D01*
X154159580Y-94239285D02*
X154207200Y-94191666D01*
X154207200Y-94191666D02*
X154254819Y-94096428D01*
X154254819Y-94096428D02*
X154254819Y-93905952D01*
X154254819Y-93905952D02*
X154207200Y-93810714D01*
X154207200Y-93810714D02*
X154159580Y-93763095D01*
X154159580Y-93763095D02*
X154064342Y-93715476D01*
X154064342Y-93715476D02*
X153254819Y-93715476D01*
X153254819Y-93334523D02*
X153254819Y-92667857D01*
X153254819Y-92667857D02*
X154254819Y-93096428D01*
X148354819Y-100199999D02*
X148592914Y-100199999D01*
X148497676Y-100438094D02*
X148592914Y-100199999D01*
X148592914Y-100199999D02*
X148497676Y-99961904D01*
X148783390Y-100342856D02*
X148592914Y-100199999D01*
X148592914Y-100199999D02*
X148783390Y-100057142D01*
X148954819Y-100399999D02*
X149192914Y-100399999D01*
X149097676Y-100638094D02*
X149192914Y-100399999D01*
X149192914Y-100399999D02*
X149097676Y-100161904D01*
X149383390Y-100542856D02*
X149192914Y-100399999D01*
X149192914Y-100399999D02*
X149383390Y-100257142D01*
X138459523Y-80354819D02*
X137983333Y-80354819D01*
X137983333Y-80354819D02*
X137935714Y-80831009D01*
X137935714Y-80831009D02*
X137983333Y-80783390D01*
X137983333Y-80783390D02*
X138078571Y-80735771D01*
X138078571Y-80735771D02*
X138316666Y-80735771D01*
X138316666Y-80735771D02*
X138411904Y-80783390D01*
X138411904Y-80783390D02*
X138459523Y-80831009D01*
X138459523Y-80831009D02*
X138507142Y-80926247D01*
X138507142Y-80926247D02*
X138507142Y-81164342D01*
X138507142Y-81164342D02*
X138459523Y-81259580D01*
X138459523Y-81259580D02*
X138411904Y-81307200D01*
X138411904Y-81307200D02*
X138316666Y-81354819D01*
X138316666Y-81354819D02*
X138078571Y-81354819D01*
X138078571Y-81354819D02*
X137983333Y-81307200D01*
X137983333Y-81307200D02*
X137935714Y-81259580D01*
X138792857Y-80354819D02*
X139126190Y-81354819D01*
X139126190Y-81354819D02*
X139459523Y-80354819D01*
X124757142Y-115759580D02*
X124709523Y-115807200D01*
X124709523Y-115807200D02*
X124566666Y-115854819D01*
X124566666Y-115854819D02*
X124471428Y-115854819D01*
X124471428Y-115854819D02*
X124328571Y-115807200D01*
X124328571Y-115807200D02*
X124233333Y-115711961D01*
X124233333Y-115711961D02*
X124185714Y-115616723D01*
X124185714Y-115616723D02*
X124138095Y-115426247D01*
X124138095Y-115426247D02*
X124138095Y-115283390D01*
X124138095Y-115283390D02*
X124185714Y-115092914D01*
X124185714Y-115092914D02*
X124233333Y-114997676D01*
X124233333Y-114997676D02*
X124328571Y-114902438D01*
X124328571Y-114902438D02*
X124471428Y-114854819D01*
X124471428Y-114854819D02*
X124566666Y-114854819D01*
X124566666Y-114854819D02*
X124709523Y-114902438D01*
X124709523Y-114902438D02*
X124757142Y-114950057D01*
X125709523Y-115854819D02*
X125138095Y-115854819D01*
X125423809Y-115854819D02*
X125423809Y-114854819D01*
X125423809Y-114854819D02*
X125328571Y-114997676D01*
X125328571Y-114997676D02*
X125233333Y-115092914D01*
X125233333Y-115092914D02*
X125138095Y-115140533D01*
X126614285Y-114854819D02*
X126138095Y-114854819D01*
X126138095Y-114854819D02*
X126090476Y-115331009D01*
X126090476Y-115331009D02*
X126138095Y-115283390D01*
X126138095Y-115283390D02*
X126233333Y-115235771D01*
X126233333Y-115235771D02*
X126471428Y-115235771D01*
X126471428Y-115235771D02*
X126566666Y-115283390D01*
X126566666Y-115283390D02*
X126614285Y-115331009D01*
X126614285Y-115331009D02*
X126661904Y-115426247D01*
X126661904Y-115426247D02*
X126661904Y-115664342D01*
X126661904Y-115664342D02*
X126614285Y-115759580D01*
X126614285Y-115759580D02*
X126566666Y-115807200D01*
X126566666Y-115807200D02*
X126471428Y-115854819D01*
X126471428Y-115854819D02*
X126233333Y-115854819D01*
X126233333Y-115854819D02*
X126138095Y-115807200D01*
X126138095Y-115807200D02*
X126090476Y-115759580D01*
X130838095Y-87012200D02*
X130980952Y-87059819D01*
X130980952Y-87059819D02*
X131219047Y-87059819D01*
X131219047Y-87059819D02*
X131314285Y-87012200D01*
X131314285Y-87012200D02*
X131361904Y-86964580D01*
X131361904Y-86964580D02*
X131409523Y-86869342D01*
X131409523Y-86869342D02*
X131409523Y-86774104D01*
X131409523Y-86774104D02*
X131361904Y-86678866D01*
X131361904Y-86678866D02*
X131314285Y-86631247D01*
X131314285Y-86631247D02*
X131219047Y-86583628D01*
X131219047Y-86583628D02*
X131028571Y-86536009D01*
X131028571Y-86536009D02*
X130933333Y-86488390D01*
X130933333Y-86488390D02*
X130885714Y-86440771D01*
X130885714Y-86440771D02*
X130838095Y-86345533D01*
X130838095Y-86345533D02*
X130838095Y-86250295D01*
X130838095Y-86250295D02*
X130885714Y-86155057D01*
X130885714Y-86155057D02*
X130933333Y-86107438D01*
X130933333Y-86107438D02*
X131028571Y-86059819D01*
X131028571Y-86059819D02*
X131266666Y-86059819D01*
X131266666Y-86059819D02*
X131409523Y-86107438D01*
X131790476Y-86155057D02*
X131838095Y-86107438D01*
X131838095Y-86107438D02*
X131933333Y-86059819D01*
X131933333Y-86059819D02*
X132171428Y-86059819D01*
X132171428Y-86059819D02*
X132266666Y-86107438D01*
X132266666Y-86107438D02*
X132314285Y-86155057D01*
X132314285Y-86155057D02*
X132361904Y-86250295D01*
X132361904Y-86250295D02*
X132361904Y-86345533D01*
X132361904Y-86345533D02*
X132314285Y-86488390D01*
X132314285Y-86488390D02*
X131742857Y-87059819D01*
X131742857Y-87059819D02*
X132361904Y-87059819D01*
X111988095Y-92204819D02*
X111988095Y-93014342D01*
X111988095Y-93014342D02*
X112035714Y-93109580D01*
X112035714Y-93109580D02*
X112083333Y-93157200D01*
X112083333Y-93157200D02*
X112178571Y-93204819D01*
X112178571Y-93204819D02*
X112369047Y-93204819D01*
X112369047Y-93204819D02*
X112464285Y-93157200D01*
X112464285Y-93157200D02*
X112511904Y-93109580D01*
X112511904Y-93109580D02*
X112559523Y-93014342D01*
X112559523Y-93014342D02*
X112559523Y-92204819D01*
X113559523Y-93204819D02*
X112988095Y-93204819D01*
X113273809Y-93204819D02*
X113273809Y-92204819D01*
X113273809Y-92204819D02*
X113178571Y-92347676D01*
X113178571Y-92347676D02*
X113083333Y-92442914D01*
X113083333Y-92442914D02*
X112988095Y-92490533D01*
X174238095Y-118254819D02*
X174238095Y-117254819D01*
X174238095Y-117731009D02*
X174809523Y-117731009D01*
X174809523Y-118254819D02*
X174809523Y-117254819D01*
X175714285Y-117588152D02*
X175714285Y-118254819D01*
X175476190Y-117207200D02*
X175238095Y-117921485D01*
X175238095Y-117921485D02*
X175857142Y-117921485D01*
X157054819Y-97167857D02*
X156578628Y-97501190D01*
X157054819Y-97739285D02*
X156054819Y-97739285D01*
X156054819Y-97739285D02*
X156054819Y-97358333D01*
X156054819Y-97358333D02*
X156102438Y-97263095D01*
X156102438Y-97263095D02*
X156150057Y-97215476D01*
X156150057Y-97215476D02*
X156245295Y-97167857D01*
X156245295Y-97167857D02*
X156388152Y-97167857D01*
X156388152Y-97167857D02*
X156483390Y-97215476D01*
X156483390Y-97215476D02*
X156531009Y-97263095D01*
X156531009Y-97263095D02*
X156578628Y-97358333D01*
X156578628Y-97358333D02*
X156578628Y-97739285D01*
X157054819Y-96215476D02*
X157054819Y-96786904D01*
X157054819Y-96501190D02*
X156054819Y-96501190D01*
X156054819Y-96501190D02*
X156197676Y-96596428D01*
X156197676Y-96596428D02*
X156292914Y-96691666D01*
X156292914Y-96691666D02*
X156340533Y-96786904D01*
X156388152Y-95358333D02*
X157054819Y-95358333D01*
X156007200Y-95596428D02*
X156721485Y-95834523D01*
X156721485Y-95834523D02*
X156721485Y-95215476D01*
X108238095Y-118254819D02*
X108238095Y-117254819D01*
X108238095Y-117731009D02*
X108809523Y-117731009D01*
X108809523Y-118254819D02*
X108809523Y-117254819D01*
X109190476Y-117254819D02*
X109809523Y-117254819D01*
X109809523Y-117254819D02*
X109476190Y-117635771D01*
X109476190Y-117635771D02*
X109619047Y-117635771D01*
X109619047Y-117635771D02*
X109714285Y-117683390D01*
X109714285Y-117683390D02*
X109761904Y-117731009D01*
X109761904Y-117731009D02*
X109809523Y-117826247D01*
X109809523Y-117826247D02*
X109809523Y-118064342D01*
X109809523Y-118064342D02*
X109761904Y-118159580D01*
X109761904Y-118159580D02*
X109714285Y-118207200D01*
X109714285Y-118207200D02*
X109619047Y-118254819D01*
X109619047Y-118254819D02*
X109333333Y-118254819D01*
X109333333Y-118254819D02*
X109238095Y-118207200D01*
X109238095Y-118207200D02*
X109190476Y-118159580D01*
X157107580Y-107342857D02*
X157155200Y-107390476D01*
X157155200Y-107390476D02*
X157202819Y-107533333D01*
X157202819Y-107533333D02*
X157202819Y-107628571D01*
X157202819Y-107628571D02*
X157155200Y-107771428D01*
X157155200Y-107771428D02*
X157059961Y-107866666D01*
X157059961Y-107866666D02*
X156964723Y-107914285D01*
X156964723Y-107914285D02*
X156774247Y-107961904D01*
X156774247Y-107961904D02*
X156631390Y-107961904D01*
X156631390Y-107961904D02*
X156440914Y-107914285D01*
X156440914Y-107914285D02*
X156345676Y-107866666D01*
X156345676Y-107866666D02*
X156250438Y-107771428D01*
X156250438Y-107771428D02*
X156202819Y-107628571D01*
X156202819Y-107628571D02*
X156202819Y-107533333D01*
X156202819Y-107533333D02*
X156250438Y-107390476D01*
X156250438Y-107390476D02*
X156298057Y-107342857D01*
X157202819Y-106390476D02*
X157202819Y-106961904D01*
X157202819Y-106676190D02*
X156202819Y-106676190D01*
X156202819Y-106676190D02*
X156345676Y-106771428D01*
X156345676Y-106771428D02*
X156440914Y-106866666D01*
X156440914Y-106866666D02*
X156488533Y-106961904D01*
X157202819Y-105914285D02*
X157202819Y-105723809D01*
X157202819Y-105723809D02*
X157155200Y-105628571D01*
X157155200Y-105628571D02*
X157107580Y-105580952D01*
X157107580Y-105580952D02*
X156964723Y-105485714D01*
X156964723Y-105485714D02*
X156774247Y-105438095D01*
X156774247Y-105438095D02*
X156393295Y-105438095D01*
X156393295Y-105438095D02*
X156298057Y-105485714D01*
X156298057Y-105485714D02*
X156250438Y-105533333D01*
X156250438Y-105533333D02*
X156202819Y-105628571D01*
X156202819Y-105628571D02*
X156202819Y-105819047D01*
X156202819Y-105819047D02*
X156250438Y-105914285D01*
X156250438Y-105914285D02*
X156298057Y-105961904D01*
X156298057Y-105961904D02*
X156393295Y-106009523D01*
X156393295Y-106009523D02*
X156631390Y-106009523D01*
X156631390Y-106009523D02*
X156726628Y-105961904D01*
X156726628Y-105961904D02*
X156774247Y-105914285D01*
X156774247Y-105914285D02*
X156821866Y-105819047D01*
X156821866Y-105819047D02*
X156821866Y-105628571D01*
X156821866Y-105628571D02*
X156774247Y-105533333D01*
X156774247Y-105533333D02*
X156726628Y-105485714D01*
X156726628Y-105485714D02*
X156631390Y-105438095D01*
X105204819Y-115869047D02*
X104204819Y-115869047D01*
X104585771Y-115869047D02*
X104538152Y-115773809D01*
X104538152Y-115773809D02*
X104538152Y-115583333D01*
X104538152Y-115583333D02*
X104585771Y-115488095D01*
X104585771Y-115488095D02*
X104633390Y-115440476D01*
X104633390Y-115440476D02*
X104728628Y-115392857D01*
X104728628Y-115392857D02*
X105014342Y-115392857D01*
X105014342Y-115392857D02*
X105109580Y-115440476D01*
X105109580Y-115440476D02*
X105157200Y-115488095D01*
X105157200Y-115488095D02*
X105204819Y-115583333D01*
X105204819Y-115583333D02*
X105204819Y-115773809D01*
X105204819Y-115773809D02*
X105157200Y-115869047D01*
X104538152Y-114535714D02*
X105204819Y-114535714D01*
X104538152Y-114964285D02*
X105061961Y-114964285D01*
X105061961Y-114964285D02*
X105157200Y-114916666D01*
X105157200Y-114916666D02*
X105204819Y-114821428D01*
X105204819Y-114821428D02*
X105204819Y-114678571D01*
X105204819Y-114678571D02*
X105157200Y-114583333D01*
X105157200Y-114583333D02*
X105109580Y-114535714D01*
X104538152Y-114202380D02*
X104538152Y-113821428D01*
X104204819Y-114059523D02*
X105061961Y-114059523D01*
X105061961Y-114059523D02*
X105157200Y-114011904D01*
X105157200Y-114011904D02*
X105204819Y-113916666D01*
X105204819Y-113916666D02*
X105204819Y-113821428D01*
X104538152Y-113630951D02*
X104538152Y-113249999D01*
X104204819Y-113488094D02*
X105061961Y-113488094D01*
X105061961Y-113488094D02*
X105157200Y-113440475D01*
X105157200Y-113440475D02*
X105204819Y-113345237D01*
X105204819Y-113345237D02*
X105204819Y-113249999D01*
X105204819Y-112773808D02*
X105157200Y-112869046D01*
X105157200Y-112869046D02*
X105109580Y-112916665D01*
X105109580Y-112916665D02*
X105014342Y-112964284D01*
X105014342Y-112964284D02*
X104728628Y-112964284D01*
X104728628Y-112964284D02*
X104633390Y-112916665D01*
X104633390Y-112916665D02*
X104585771Y-112869046D01*
X104585771Y-112869046D02*
X104538152Y-112773808D01*
X104538152Y-112773808D02*
X104538152Y-112630951D01*
X104538152Y-112630951D02*
X104585771Y-112535713D01*
X104585771Y-112535713D02*
X104633390Y-112488094D01*
X104633390Y-112488094D02*
X104728628Y-112440475D01*
X104728628Y-112440475D02*
X105014342Y-112440475D01*
X105014342Y-112440475D02*
X105109580Y-112488094D01*
X105109580Y-112488094D02*
X105157200Y-112535713D01*
X105157200Y-112535713D02*
X105204819Y-112630951D01*
X105204819Y-112630951D02*
X105204819Y-112773808D01*
X104538152Y-112011903D02*
X105204819Y-112011903D01*
X104633390Y-112011903D02*
X104585771Y-111964284D01*
X104585771Y-111964284D02*
X104538152Y-111869046D01*
X104538152Y-111869046D02*
X104538152Y-111726189D01*
X104538152Y-111726189D02*
X104585771Y-111630951D01*
X104585771Y-111630951D02*
X104681009Y-111583332D01*
X104681009Y-111583332D02*
X105204819Y-111583332D01*
X105204819Y-110583332D02*
X105204819Y-111154760D01*
X105204819Y-110869046D02*
X104204819Y-110869046D01*
X104204819Y-110869046D02*
X104347676Y-110964284D01*
X104347676Y-110964284D02*
X104442914Y-111059522D01*
X104442914Y-111059522D02*
X104490533Y-111154760D01*
X127266666Y-76454819D02*
X127266666Y-77169104D01*
X127266666Y-77169104D02*
X127219047Y-77311961D01*
X127219047Y-77311961D02*
X127123809Y-77407200D01*
X127123809Y-77407200D02*
X126980952Y-77454819D01*
X126980952Y-77454819D02*
X126885714Y-77454819D01*
X127695238Y-76550057D02*
X127742857Y-76502438D01*
X127742857Y-76502438D02*
X127838095Y-76454819D01*
X127838095Y-76454819D02*
X128076190Y-76454819D01*
X128076190Y-76454819D02*
X128171428Y-76502438D01*
X128171428Y-76502438D02*
X128219047Y-76550057D01*
X128219047Y-76550057D02*
X128266666Y-76645295D01*
X128266666Y-76645295D02*
X128266666Y-76740533D01*
X128266666Y-76740533D02*
X128219047Y-76883390D01*
X128219047Y-76883390D02*
X127647619Y-77454819D01*
X127647619Y-77454819D02*
X128266666Y-77454819D01*
X127938095Y-87037200D02*
X128080952Y-87084819D01*
X128080952Y-87084819D02*
X128319047Y-87084819D01*
X128319047Y-87084819D02*
X128414285Y-87037200D01*
X128414285Y-87037200D02*
X128461904Y-86989580D01*
X128461904Y-86989580D02*
X128509523Y-86894342D01*
X128509523Y-86894342D02*
X128509523Y-86799104D01*
X128509523Y-86799104D02*
X128461904Y-86703866D01*
X128461904Y-86703866D02*
X128414285Y-86656247D01*
X128414285Y-86656247D02*
X128319047Y-86608628D01*
X128319047Y-86608628D02*
X128128571Y-86561009D01*
X128128571Y-86561009D02*
X128033333Y-86513390D01*
X128033333Y-86513390D02*
X127985714Y-86465771D01*
X127985714Y-86465771D02*
X127938095Y-86370533D01*
X127938095Y-86370533D02*
X127938095Y-86275295D01*
X127938095Y-86275295D02*
X127985714Y-86180057D01*
X127985714Y-86180057D02*
X128033333Y-86132438D01*
X128033333Y-86132438D02*
X128128571Y-86084819D01*
X128128571Y-86084819D02*
X128366666Y-86084819D01*
X128366666Y-86084819D02*
X128509523Y-86132438D01*
X128842857Y-86084819D02*
X129461904Y-86084819D01*
X129461904Y-86084819D02*
X129128571Y-86465771D01*
X129128571Y-86465771D02*
X129271428Y-86465771D01*
X129271428Y-86465771D02*
X129366666Y-86513390D01*
X129366666Y-86513390D02*
X129414285Y-86561009D01*
X129414285Y-86561009D02*
X129461904Y-86656247D01*
X129461904Y-86656247D02*
X129461904Y-86894342D01*
X129461904Y-86894342D02*
X129414285Y-86989580D01*
X129414285Y-86989580D02*
X129366666Y-87037200D01*
X129366666Y-87037200D02*
X129271428Y-87084819D01*
X129271428Y-87084819D02*
X128985714Y-87084819D01*
X128985714Y-87084819D02*
X128890476Y-87037200D01*
X128890476Y-87037200D02*
X128842857Y-86989580D01*
X159254819Y-87461904D02*
X160064342Y-87461904D01*
X160064342Y-87461904D02*
X160159580Y-87414285D01*
X160159580Y-87414285D02*
X160207200Y-87366666D01*
X160207200Y-87366666D02*
X160254819Y-87271428D01*
X160254819Y-87271428D02*
X160254819Y-87080952D01*
X160254819Y-87080952D02*
X160207200Y-86985714D01*
X160207200Y-86985714D02*
X160159580Y-86938095D01*
X160159580Y-86938095D02*
X160064342Y-86890476D01*
X160064342Y-86890476D02*
X159254819Y-86890476D01*
X159254819Y-85938095D02*
X159254819Y-86414285D01*
X159254819Y-86414285D02*
X159731009Y-86461904D01*
X159731009Y-86461904D02*
X159683390Y-86414285D01*
X159683390Y-86414285D02*
X159635771Y-86319047D01*
X159635771Y-86319047D02*
X159635771Y-86080952D01*
X159635771Y-86080952D02*
X159683390Y-85985714D01*
X159683390Y-85985714D02*
X159731009Y-85938095D01*
X159731009Y-85938095D02*
X159826247Y-85890476D01*
X159826247Y-85890476D02*
X160064342Y-85890476D01*
X160064342Y-85890476D02*
X160159580Y-85938095D01*
X160159580Y-85938095D02*
X160207200Y-85985714D01*
X160207200Y-85985714D02*
X160254819Y-86080952D01*
X160254819Y-86080952D02*
X160254819Y-86319047D01*
X160254819Y-86319047D02*
X160207200Y-86414285D01*
X160207200Y-86414285D02*
X160159580Y-86461904D01*
X121457051Y-81284582D02*
X121409432Y-81332202D01*
X121409432Y-81332202D02*
X121266575Y-81379821D01*
X121266575Y-81379821D02*
X121171337Y-81379821D01*
X121171337Y-81379821D02*
X121028480Y-81332202D01*
X121028480Y-81332202D02*
X120933242Y-81236963D01*
X120933242Y-81236963D02*
X120885623Y-81141725D01*
X120885623Y-81141725D02*
X120838004Y-80951249D01*
X120838004Y-80951249D02*
X120838004Y-80808392D01*
X120838004Y-80808392D02*
X120885623Y-80617916D01*
X120885623Y-80617916D02*
X120933242Y-80522678D01*
X120933242Y-80522678D02*
X121028480Y-80427440D01*
X121028480Y-80427440D02*
X121171337Y-80379821D01*
X121171337Y-80379821D02*
X121266575Y-80379821D01*
X121266575Y-80379821D02*
X121409432Y-80427440D01*
X121409432Y-80427440D02*
X121457051Y-80475059D01*
X122361813Y-80379821D02*
X121885623Y-80379821D01*
X121885623Y-80379821D02*
X121838004Y-80856011D01*
X121838004Y-80856011D02*
X121885623Y-80808392D01*
X121885623Y-80808392D02*
X121980861Y-80760773D01*
X121980861Y-80760773D02*
X122218956Y-80760773D01*
X122218956Y-80760773D02*
X122314194Y-80808392D01*
X122314194Y-80808392D02*
X122361813Y-80856011D01*
X122361813Y-80856011D02*
X122409432Y-80951249D01*
X122409432Y-80951249D02*
X122409432Y-81189344D01*
X122409432Y-81189344D02*
X122361813Y-81284582D01*
X122361813Y-81284582D02*
X122314194Y-81332202D01*
X122314194Y-81332202D02*
X122218956Y-81379821D01*
X122218956Y-81379821D02*
X121980861Y-81379821D01*
X121980861Y-81379821D02*
X121885623Y-81332202D01*
X121885623Y-81332202D02*
X121838004Y-81284582D01*
X147304819Y-114138094D02*
X146304819Y-114138094D01*
X146304819Y-114138094D02*
X146304819Y-113899999D01*
X146304819Y-113899999D02*
X146352438Y-113757142D01*
X146352438Y-113757142D02*
X146447676Y-113661904D01*
X146447676Y-113661904D02*
X146542914Y-113614285D01*
X146542914Y-113614285D02*
X146733390Y-113566666D01*
X146733390Y-113566666D02*
X146876247Y-113566666D01*
X146876247Y-113566666D02*
X147066723Y-113614285D01*
X147066723Y-113614285D02*
X147161961Y-113661904D01*
X147161961Y-113661904D02*
X147257200Y-113757142D01*
X147257200Y-113757142D02*
X147304819Y-113899999D01*
X147304819Y-113899999D02*
X147304819Y-114138094D01*
X146304819Y-113233332D02*
X146304819Y-112614285D01*
X146304819Y-112614285D02*
X146685771Y-112947618D01*
X146685771Y-112947618D02*
X146685771Y-112804761D01*
X146685771Y-112804761D02*
X146733390Y-112709523D01*
X146733390Y-112709523D02*
X146781009Y-112661904D01*
X146781009Y-112661904D02*
X146876247Y-112614285D01*
X146876247Y-112614285D02*
X147114342Y-112614285D01*
X147114342Y-112614285D02*
X147209580Y-112661904D01*
X147209580Y-112661904D02*
X147257200Y-112709523D01*
X147257200Y-112709523D02*
X147304819Y-112804761D01*
X147304819Y-112804761D02*
X147304819Y-113090475D01*
X147304819Y-113090475D02*
X147257200Y-113185713D01*
X147257200Y-113185713D02*
X147209580Y-113233332D01*
X153957142Y-89709580D02*
X153909523Y-89757200D01*
X153909523Y-89757200D02*
X153766666Y-89804819D01*
X153766666Y-89804819D02*
X153671428Y-89804819D01*
X153671428Y-89804819D02*
X153528571Y-89757200D01*
X153528571Y-89757200D02*
X153433333Y-89661961D01*
X153433333Y-89661961D02*
X153385714Y-89566723D01*
X153385714Y-89566723D02*
X153338095Y-89376247D01*
X153338095Y-89376247D02*
X153338095Y-89233390D01*
X153338095Y-89233390D02*
X153385714Y-89042914D01*
X153385714Y-89042914D02*
X153433333Y-88947676D01*
X153433333Y-88947676D02*
X153528571Y-88852438D01*
X153528571Y-88852438D02*
X153671428Y-88804819D01*
X153671428Y-88804819D02*
X153766666Y-88804819D01*
X153766666Y-88804819D02*
X153909523Y-88852438D01*
X153909523Y-88852438D02*
X153957142Y-88900057D01*
X154909523Y-89804819D02*
X154338095Y-89804819D01*
X154623809Y-89804819D02*
X154623809Y-88804819D01*
X154623809Y-88804819D02*
X154528571Y-88947676D01*
X154528571Y-88947676D02*
X154433333Y-89042914D01*
X154433333Y-89042914D02*
X154338095Y-89090533D01*
X155290476Y-88900057D02*
X155338095Y-88852438D01*
X155338095Y-88852438D02*
X155433333Y-88804819D01*
X155433333Y-88804819D02*
X155671428Y-88804819D01*
X155671428Y-88804819D02*
X155766666Y-88852438D01*
X155766666Y-88852438D02*
X155814285Y-88900057D01*
X155814285Y-88900057D02*
X155861904Y-88995295D01*
X155861904Y-88995295D02*
X155861904Y-89090533D01*
X155861904Y-89090533D02*
X155814285Y-89233390D01*
X155814285Y-89233390D02*
X155242857Y-89804819D01*
X155242857Y-89804819D02*
X155861904Y-89804819D01*
X159961904Y-115145180D02*
X159961904Y-114335657D01*
X159961904Y-114335657D02*
X159914285Y-114240419D01*
X159914285Y-114240419D02*
X159866666Y-114192800D01*
X159866666Y-114192800D02*
X159771428Y-114145180D01*
X159771428Y-114145180D02*
X159580952Y-114145180D01*
X159580952Y-114145180D02*
X159485714Y-114192800D01*
X159485714Y-114192800D02*
X159438095Y-114240419D01*
X159438095Y-114240419D02*
X159390476Y-114335657D01*
X159390476Y-114335657D02*
X159390476Y-115145180D01*
X158771428Y-114716609D02*
X158866666Y-114764228D01*
X158866666Y-114764228D02*
X158914285Y-114811847D01*
X158914285Y-114811847D02*
X158961904Y-114907085D01*
X158961904Y-114907085D02*
X158961904Y-114954704D01*
X158961904Y-114954704D02*
X158914285Y-115049942D01*
X158914285Y-115049942D02*
X158866666Y-115097561D01*
X158866666Y-115097561D02*
X158771428Y-115145180D01*
X158771428Y-115145180D02*
X158580952Y-115145180D01*
X158580952Y-115145180D02*
X158485714Y-115097561D01*
X158485714Y-115097561D02*
X158438095Y-115049942D01*
X158438095Y-115049942D02*
X158390476Y-114954704D01*
X158390476Y-114954704D02*
X158390476Y-114907085D01*
X158390476Y-114907085D02*
X158438095Y-114811847D01*
X158438095Y-114811847D02*
X158485714Y-114764228D01*
X158485714Y-114764228D02*
X158580952Y-114716609D01*
X158580952Y-114716609D02*
X158771428Y-114716609D01*
X158771428Y-114716609D02*
X158866666Y-114668990D01*
X158866666Y-114668990D02*
X158914285Y-114621371D01*
X158914285Y-114621371D02*
X158961904Y-114526133D01*
X158961904Y-114526133D02*
X158961904Y-114335657D01*
X158961904Y-114335657D02*
X158914285Y-114240419D01*
X158914285Y-114240419D02*
X158866666Y-114192800D01*
X158866666Y-114192800D02*
X158771428Y-114145180D01*
X158771428Y-114145180D02*
X158580952Y-114145180D01*
X158580952Y-114145180D02*
X158485714Y-114192800D01*
X158485714Y-114192800D02*
X158438095Y-114240419D01*
X158438095Y-114240419D02*
X158390476Y-114335657D01*
X158390476Y-114335657D02*
X158390476Y-114526133D01*
X158390476Y-114526133D02*
X158438095Y-114621371D01*
X158438095Y-114621371D02*
X158485714Y-114668990D01*
X158485714Y-114668990D02*
X158580952Y-114716609D01*
X115907051Y-70284582D02*
X115859432Y-70332202D01*
X115859432Y-70332202D02*
X115716575Y-70379821D01*
X115716575Y-70379821D02*
X115621337Y-70379821D01*
X115621337Y-70379821D02*
X115478480Y-70332202D01*
X115478480Y-70332202D02*
X115383242Y-70236963D01*
X115383242Y-70236963D02*
X115335623Y-70141725D01*
X115335623Y-70141725D02*
X115288004Y-69951249D01*
X115288004Y-69951249D02*
X115288004Y-69808392D01*
X115288004Y-69808392D02*
X115335623Y-69617916D01*
X115335623Y-69617916D02*
X115383242Y-69522678D01*
X115383242Y-69522678D02*
X115478480Y-69427440D01*
X115478480Y-69427440D02*
X115621337Y-69379821D01*
X115621337Y-69379821D02*
X115716575Y-69379821D01*
X115716575Y-69379821D02*
X115859432Y-69427440D01*
X115859432Y-69427440D02*
X115907051Y-69475059D01*
X116764194Y-69713154D02*
X116764194Y-70379821D01*
X116526099Y-69332202D02*
X116288004Y-70046487D01*
X116288004Y-70046487D02*
X116907051Y-70046487D01*
X141619642Y-111409580D02*
X141572023Y-111457200D01*
X141572023Y-111457200D02*
X141429166Y-111504819D01*
X141429166Y-111504819D02*
X141333928Y-111504819D01*
X141333928Y-111504819D02*
X141191071Y-111457200D01*
X141191071Y-111457200D02*
X141095833Y-111361961D01*
X141095833Y-111361961D02*
X141048214Y-111266723D01*
X141048214Y-111266723D02*
X141000595Y-111076247D01*
X141000595Y-111076247D02*
X141000595Y-110933390D01*
X141000595Y-110933390D02*
X141048214Y-110742914D01*
X141048214Y-110742914D02*
X141095833Y-110647676D01*
X141095833Y-110647676D02*
X141191071Y-110552438D01*
X141191071Y-110552438D02*
X141333928Y-110504819D01*
X141333928Y-110504819D02*
X141429166Y-110504819D01*
X141429166Y-110504819D02*
X141572023Y-110552438D01*
X141572023Y-110552438D02*
X141619642Y-110600057D01*
X142572023Y-111504819D02*
X142000595Y-111504819D01*
X142286309Y-111504819D02*
X142286309Y-110504819D01*
X142286309Y-110504819D02*
X142191071Y-110647676D01*
X142191071Y-110647676D02*
X142095833Y-110742914D01*
X142095833Y-110742914D02*
X142000595Y-110790533D01*
X143191071Y-110504819D02*
X143286309Y-110504819D01*
X143286309Y-110504819D02*
X143381547Y-110552438D01*
X143381547Y-110552438D02*
X143429166Y-110600057D01*
X143429166Y-110600057D02*
X143476785Y-110695295D01*
X143476785Y-110695295D02*
X143524404Y-110885771D01*
X143524404Y-110885771D02*
X143524404Y-111123866D01*
X143524404Y-111123866D02*
X143476785Y-111314342D01*
X143476785Y-111314342D02*
X143429166Y-111409580D01*
X143429166Y-111409580D02*
X143381547Y-111457200D01*
X143381547Y-111457200D02*
X143286309Y-111504819D01*
X143286309Y-111504819D02*
X143191071Y-111504819D01*
X143191071Y-111504819D02*
X143095833Y-111457200D01*
X143095833Y-111457200D02*
X143048214Y-111409580D01*
X143048214Y-111409580D02*
X143000595Y-111314342D01*
X143000595Y-111314342D02*
X142952976Y-111123866D01*
X142952976Y-111123866D02*
X142952976Y-110885771D01*
X142952976Y-110885771D02*
X143000595Y-110695295D01*
X143000595Y-110695295D02*
X143048214Y-110600057D01*
X143048214Y-110600057D02*
X143095833Y-110552438D01*
X143095833Y-110552438D02*
X143191071Y-110504819D01*
X147359580Y-103567857D02*
X147407200Y-103615476D01*
X147407200Y-103615476D02*
X147454819Y-103758333D01*
X147454819Y-103758333D02*
X147454819Y-103853571D01*
X147454819Y-103853571D02*
X147407200Y-103996428D01*
X147407200Y-103996428D02*
X147311961Y-104091666D01*
X147311961Y-104091666D02*
X147216723Y-104139285D01*
X147216723Y-104139285D02*
X147026247Y-104186904D01*
X147026247Y-104186904D02*
X146883390Y-104186904D01*
X146883390Y-104186904D02*
X146692914Y-104139285D01*
X146692914Y-104139285D02*
X146597676Y-104091666D01*
X146597676Y-104091666D02*
X146502438Y-103996428D01*
X146502438Y-103996428D02*
X146454819Y-103853571D01*
X146454819Y-103853571D02*
X146454819Y-103758333D01*
X146454819Y-103758333D02*
X146502438Y-103615476D01*
X146502438Y-103615476D02*
X146550057Y-103567857D01*
X146550057Y-103186904D02*
X146502438Y-103139285D01*
X146502438Y-103139285D02*
X146454819Y-103044047D01*
X146454819Y-103044047D02*
X146454819Y-102805952D01*
X146454819Y-102805952D02*
X146502438Y-102710714D01*
X146502438Y-102710714D02*
X146550057Y-102663095D01*
X146550057Y-102663095D02*
X146645295Y-102615476D01*
X146645295Y-102615476D02*
X146740533Y-102615476D01*
X146740533Y-102615476D02*
X146883390Y-102663095D01*
X146883390Y-102663095D02*
X147454819Y-103234523D01*
X147454819Y-103234523D02*
X147454819Y-102615476D01*
X146550057Y-102234523D02*
X146502438Y-102186904D01*
X146502438Y-102186904D02*
X146454819Y-102091666D01*
X146454819Y-102091666D02*
X146454819Y-101853571D01*
X146454819Y-101853571D02*
X146502438Y-101758333D01*
X146502438Y-101758333D02*
X146550057Y-101710714D01*
X146550057Y-101710714D02*
X146645295Y-101663095D01*
X146645295Y-101663095D02*
X146740533Y-101663095D01*
X146740533Y-101663095D02*
X146883390Y-101710714D01*
X146883390Y-101710714D02*
X147454819Y-102282142D01*
X147454819Y-102282142D02*
X147454819Y-101663095D01*
X105859580Y-86416666D02*
X105907200Y-86464285D01*
X105907200Y-86464285D02*
X105954819Y-86607142D01*
X105954819Y-86607142D02*
X105954819Y-86702380D01*
X105954819Y-86702380D02*
X105907200Y-86845237D01*
X105907200Y-86845237D02*
X105811961Y-86940475D01*
X105811961Y-86940475D02*
X105716723Y-86988094D01*
X105716723Y-86988094D02*
X105526247Y-87035713D01*
X105526247Y-87035713D02*
X105383390Y-87035713D01*
X105383390Y-87035713D02*
X105192914Y-86988094D01*
X105192914Y-86988094D02*
X105097676Y-86940475D01*
X105097676Y-86940475D02*
X105002438Y-86845237D01*
X105002438Y-86845237D02*
X104954819Y-86702380D01*
X104954819Y-86702380D02*
X104954819Y-86607142D01*
X104954819Y-86607142D02*
X105002438Y-86464285D01*
X105002438Y-86464285D02*
X105050057Y-86416666D01*
X105954819Y-85464285D02*
X105954819Y-86035713D01*
X105954819Y-85749999D02*
X104954819Y-85749999D01*
X104954819Y-85749999D02*
X105097676Y-85845237D01*
X105097676Y-85845237D02*
X105192914Y-85940475D01*
X105192914Y-85940475D02*
X105240533Y-86035713D01*
X112033333Y-81359580D02*
X111985714Y-81407200D01*
X111985714Y-81407200D02*
X111842857Y-81454819D01*
X111842857Y-81454819D02*
X111747619Y-81454819D01*
X111747619Y-81454819D02*
X111604762Y-81407200D01*
X111604762Y-81407200D02*
X111509524Y-81311961D01*
X111509524Y-81311961D02*
X111461905Y-81216723D01*
X111461905Y-81216723D02*
X111414286Y-81026247D01*
X111414286Y-81026247D02*
X111414286Y-80883390D01*
X111414286Y-80883390D02*
X111461905Y-80692914D01*
X111461905Y-80692914D02*
X111509524Y-80597676D01*
X111509524Y-80597676D02*
X111604762Y-80502438D01*
X111604762Y-80502438D02*
X111747619Y-80454819D01*
X111747619Y-80454819D02*
X111842857Y-80454819D01*
X111842857Y-80454819D02*
X111985714Y-80502438D01*
X111985714Y-80502438D02*
X112033333Y-80550057D01*
X112509524Y-81454819D02*
X112700000Y-81454819D01*
X112700000Y-81454819D02*
X112795238Y-81407200D01*
X112795238Y-81407200D02*
X112842857Y-81359580D01*
X112842857Y-81359580D02*
X112938095Y-81216723D01*
X112938095Y-81216723D02*
X112985714Y-81026247D01*
X112985714Y-81026247D02*
X112985714Y-80645295D01*
X112985714Y-80645295D02*
X112938095Y-80550057D01*
X112938095Y-80550057D02*
X112890476Y-80502438D01*
X112890476Y-80502438D02*
X112795238Y-80454819D01*
X112795238Y-80454819D02*
X112604762Y-80454819D01*
X112604762Y-80454819D02*
X112509524Y-80502438D01*
X112509524Y-80502438D02*
X112461905Y-80550057D01*
X112461905Y-80550057D02*
X112414286Y-80645295D01*
X112414286Y-80645295D02*
X112414286Y-80883390D01*
X112414286Y-80883390D02*
X112461905Y-80978628D01*
X112461905Y-80978628D02*
X112509524Y-81026247D01*
X112509524Y-81026247D02*
X112604762Y-81073866D01*
X112604762Y-81073866D02*
X112795238Y-81073866D01*
X112795238Y-81073866D02*
X112890476Y-81026247D01*
X112890476Y-81026247D02*
X112938095Y-80978628D01*
X112938095Y-80978628D02*
X112985714Y-80883390D01*
X140538095Y-70902438D02*
X140442857Y-70854819D01*
X140442857Y-70854819D02*
X140300000Y-70854819D01*
X140300000Y-70854819D02*
X140157143Y-70902438D01*
X140157143Y-70902438D02*
X140061905Y-70997676D01*
X140061905Y-70997676D02*
X140014286Y-71092914D01*
X140014286Y-71092914D02*
X139966667Y-71283390D01*
X139966667Y-71283390D02*
X139966667Y-71426247D01*
X139966667Y-71426247D02*
X140014286Y-71616723D01*
X140014286Y-71616723D02*
X140061905Y-71711961D01*
X140061905Y-71711961D02*
X140157143Y-71807200D01*
X140157143Y-71807200D02*
X140300000Y-71854819D01*
X140300000Y-71854819D02*
X140395238Y-71854819D01*
X140395238Y-71854819D02*
X140538095Y-71807200D01*
X140538095Y-71807200D02*
X140585714Y-71759580D01*
X140585714Y-71759580D02*
X140585714Y-71426247D01*
X140585714Y-71426247D02*
X140395238Y-71426247D01*
X141014286Y-71854819D02*
X141014286Y-70854819D01*
X141014286Y-70854819D02*
X141585714Y-71854819D01*
X141585714Y-71854819D02*
X141585714Y-70854819D01*
X142061905Y-71854819D02*
X142061905Y-70854819D01*
X142061905Y-70854819D02*
X142300000Y-70854819D01*
X142300000Y-70854819D02*
X142442857Y-70902438D01*
X142442857Y-70902438D02*
X142538095Y-70997676D01*
X142538095Y-70997676D02*
X142585714Y-71092914D01*
X142585714Y-71092914D02*
X142633333Y-71283390D01*
X142633333Y-71283390D02*
X142633333Y-71426247D01*
X142633333Y-71426247D02*
X142585714Y-71616723D01*
X142585714Y-71616723D02*
X142538095Y-71711961D01*
X142538095Y-71711961D02*
X142442857Y-71807200D01*
X142442857Y-71807200D02*
X142300000Y-71854819D01*
X142300000Y-71854819D02*
X142061905Y-71854819D01*
X126507051Y-72484582D02*
X126459432Y-72532202D01*
X126459432Y-72532202D02*
X126316575Y-72579821D01*
X126316575Y-72579821D02*
X126221337Y-72579821D01*
X126221337Y-72579821D02*
X126078480Y-72532202D01*
X126078480Y-72532202D02*
X125983242Y-72436963D01*
X125983242Y-72436963D02*
X125935623Y-72341725D01*
X125935623Y-72341725D02*
X125888004Y-72151249D01*
X125888004Y-72151249D02*
X125888004Y-72008392D01*
X125888004Y-72008392D02*
X125935623Y-71817916D01*
X125935623Y-71817916D02*
X125983242Y-71722678D01*
X125983242Y-71722678D02*
X126078480Y-71627440D01*
X126078480Y-71627440D02*
X126221337Y-71579821D01*
X126221337Y-71579821D02*
X126316575Y-71579821D01*
X126316575Y-71579821D02*
X126459432Y-71627440D01*
X126459432Y-71627440D02*
X126507051Y-71675059D01*
X127364194Y-71579821D02*
X127173718Y-71579821D01*
X127173718Y-71579821D02*
X127078480Y-71627440D01*
X127078480Y-71627440D02*
X127030861Y-71675059D01*
X127030861Y-71675059D02*
X126935623Y-71817916D01*
X126935623Y-71817916D02*
X126888004Y-72008392D01*
X126888004Y-72008392D02*
X126888004Y-72389344D01*
X126888004Y-72389344D02*
X126935623Y-72484582D01*
X126935623Y-72484582D02*
X126983242Y-72532202D01*
X126983242Y-72532202D02*
X127078480Y-72579821D01*
X127078480Y-72579821D02*
X127268956Y-72579821D01*
X127268956Y-72579821D02*
X127364194Y-72532202D01*
X127364194Y-72532202D02*
X127411813Y-72484582D01*
X127411813Y-72484582D02*
X127459432Y-72389344D01*
X127459432Y-72389344D02*
X127459432Y-72151249D01*
X127459432Y-72151249D02*
X127411813Y-72056011D01*
X127411813Y-72056011D02*
X127364194Y-72008392D01*
X127364194Y-72008392D02*
X127268956Y-71960773D01*
X127268956Y-71960773D02*
X127078480Y-71960773D01*
X127078480Y-71960773D02*
X126983242Y-72008392D01*
X126983242Y-72008392D02*
X126935623Y-72056011D01*
X126935623Y-72056011D02*
X126888004Y-72151249D01*
X113107051Y-73179821D02*
X112630861Y-73179821D01*
X112630861Y-73179821D02*
X112630861Y-72179821D01*
X113964194Y-73179821D02*
X113392766Y-73179821D01*
X113678480Y-73179821D02*
X113678480Y-72179821D01*
X113678480Y-72179821D02*
X113583242Y-72322678D01*
X113583242Y-72322678D02*
X113488004Y-72417916D01*
X113488004Y-72417916D02*
X113392766Y-72465535D01*
D13*
%TO.C,U4*%
G36*
X122931780Y-75790501D02*
G01*
X122677780Y-75790501D01*
X122677780Y-75409500D01*
X122931780Y-75409500D01*
X122931780Y-75790501D01*
G37*
D14*
X118694782Y-77179000D02*
X119300852Y-77179000D01*
X122352780Y-77179000D02*
X122352780Y-76572742D01*
X122352780Y-73521002D02*
X121746710Y-73521002D01*
X118694782Y-73521002D02*
X118694782Y-74127260D01*
X118694782Y-76572742D02*
X118694782Y-77179000D01*
X121746710Y-77179000D02*
X122352780Y-77179000D01*
X122352780Y-74127260D02*
X122352780Y-73521002D01*
X119300852Y-73521002D02*
X118694782Y-73521002D01*
D15*
%TO.C,IC2*%
X141600000Y-121325000D02*
X143600000Y-121325000D01*
X141600000Y-122925000D02*
X141600000Y-121325000D01*
X143600000Y-121325000D02*
X143600000Y-122925000D01*
X143600000Y-122925000D02*
X141600000Y-122925000D01*
X143850000Y-120125000D02*
X143850000Y-120975000D01*
D16*
%TO.C,servo1*%
X170240000Y-100140000D02*
X170240000Y-101390000D01*
X170540000Y-100440000D02*
X170540000Y-105160000D01*
X170540000Y-101750000D02*
X171150000Y-101750000D01*
X170540000Y-103050000D02*
X171150000Y-103050000D01*
X170540000Y-105160000D02*
X178660000Y-105160000D01*
X171150000Y-101050000D02*
X171150000Y-104550000D01*
X171150000Y-104550000D02*
X178050000Y-104550000D01*
X171490000Y-100140000D02*
X170240000Y-100140000D01*
X172000000Y-100240000D02*
X172000000Y-100440000D01*
X172300000Y-100240000D02*
X172000000Y-100240000D01*
X172300000Y-100340000D02*
X172000000Y-100340000D01*
X172300000Y-100440000D02*
X172300000Y-100240000D01*
X173100000Y-100440000D02*
X173100000Y-101050000D01*
X173100000Y-101050000D02*
X171150000Y-101050000D01*
X173500000Y-104050000D02*
X173700000Y-104050000D01*
X173500000Y-104550000D02*
X173500000Y-104050000D01*
X173600000Y-104550000D02*
X173600000Y-104050000D01*
X173700000Y-104050000D02*
X173700000Y-104550000D01*
X175500000Y-104050000D02*
X175700000Y-104050000D01*
X175500000Y-104550000D02*
X175500000Y-104050000D01*
X175600000Y-104550000D02*
X175600000Y-104050000D01*
X175700000Y-104050000D02*
X175700000Y-104550000D01*
X176100000Y-101050000D02*
X176100000Y-100440000D01*
X178050000Y-101050000D02*
X176100000Y-101050000D01*
X178050000Y-104550000D02*
X178050000Y-101050000D01*
X178660000Y-100440000D02*
X170540000Y-100440000D01*
X178660000Y-101750000D02*
X178050000Y-101750000D01*
X178660000Y-103050000D02*
X178050000Y-103050000D01*
X178660000Y-105160000D02*
X178660000Y-100440000D01*
%TO.C,BZ1*%
X157900000Y-120000000D02*
G75*
G02*
X145700000Y-120000000I-6100000J0D01*
G01*
X145700000Y-120000000D02*
G75*
G02*
X157900000Y-120000000I6100000J0D01*
G01*
%TO.C,C24*%
X144265000Y-95623752D02*
X144265000Y-95101248D01*
X145735000Y-95623752D02*
X145735000Y-95101248D01*
%TO.C,J1*%
X137790000Y-72920000D02*
X139120000Y-72920000D01*
X139120000Y-72920000D02*
X139120000Y-74250000D01*
%TO.C,C23*%
X146465000Y-95101248D02*
X146465000Y-95623752D01*
X147935000Y-95101248D02*
X147935000Y-95623752D01*
%TO.C,R11*%
X146427064Y-85715000D02*
X145972936Y-85715000D01*
X146427064Y-87185000D02*
X145972936Y-87185000D01*
%TO.C,R1*%
X115146654Y-76490002D02*
X115600782Y-76490002D01*
X115146654Y-77960002D02*
X115600782Y-77960002D01*
%TO.C,R2*%
X156027064Y-99190000D02*
X155572936Y-99190000D01*
X156027064Y-100660000D02*
X155572936Y-100660000D01*
%TO.C,C17*%
X140176248Y-114515000D02*
X140698752Y-114515000D01*
X140176248Y-115985000D02*
X140698752Y-115985000D01*
%TO.C,servo13*%
X170240000Y-94540000D02*
X170240000Y-95790000D01*
X170540000Y-94840000D02*
X170540000Y-99560000D01*
X170540000Y-96150000D02*
X171150000Y-96150000D01*
X170540000Y-97450000D02*
X171150000Y-97450000D01*
X170540000Y-99560000D02*
X178660000Y-99560000D01*
X171150000Y-95450000D02*
X171150000Y-98950000D01*
X171150000Y-98950000D02*
X178050000Y-98950000D01*
X171490000Y-94540000D02*
X170240000Y-94540000D01*
X172000000Y-94640000D02*
X172000000Y-94840000D01*
X172300000Y-94640000D02*
X172000000Y-94640000D01*
X172300000Y-94740000D02*
X172000000Y-94740000D01*
X172300000Y-94840000D02*
X172300000Y-94640000D01*
X173100000Y-94840000D02*
X173100000Y-95450000D01*
X173100000Y-95450000D02*
X171150000Y-95450000D01*
X173500000Y-98450000D02*
X173700000Y-98450000D01*
X173500000Y-98950000D02*
X173500000Y-98450000D01*
X173600000Y-98950000D02*
X173600000Y-98450000D01*
X173700000Y-98450000D02*
X173700000Y-98950000D01*
X175500000Y-98450000D02*
X175700000Y-98450000D01*
X175500000Y-98950000D02*
X175500000Y-98450000D01*
X175600000Y-98950000D02*
X175600000Y-98450000D01*
X175700000Y-98450000D02*
X175700000Y-98950000D01*
X176100000Y-95450000D02*
X176100000Y-94840000D01*
X178050000Y-95450000D02*
X176100000Y-95450000D01*
X178050000Y-98950000D02*
X178050000Y-95450000D01*
X178660000Y-94840000D02*
X170540000Y-94840000D01*
X178660000Y-96150000D02*
X178050000Y-96150000D01*
X178660000Y-97450000D02*
X178050000Y-97450000D01*
X178660000Y-99560000D02*
X178660000Y-94840000D01*
%TO.C,C2*%
X108661252Y-83465000D02*
X108138748Y-83465000D01*
X108661252Y-84935000D02*
X108138748Y-84935000D01*
%TO.C,U6*%
X149600000Y-105025000D02*
X149600000Y-104775000D01*
X149600000Y-105025000D02*
X149850000Y-105025000D01*
X152800000Y-101825000D02*
X152550000Y-101825000D01*
X152800000Y-101825000D02*
X152800000Y-102075000D01*
X152800000Y-105025000D02*
X152550000Y-105025000D01*
X152800000Y-105025000D02*
X152800000Y-104775000D01*
X149600000Y-101825000D02*
X149360000Y-101495000D01*
X149840000Y-101495000D01*
X149600000Y-101825000D01*
G36*
X149600000Y-101825000D02*
G01*
X149360000Y-101495000D01*
X149840000Y-101495000D01*
X149600000Y-101825000D01*
G37*
%TO.C,R13*%
X146427064Y-83465000D02*
X145972936Y-83465000D01*
X146427064Y-84935000D02*
X145972936Y-84935000D01*
%TO.C,C21*%
X136376248Y-114515000D02*
X136898752Y-114515000D01*
X136376248Y-115985000D02*
X136898752Y-115985000D01*
%TO.C,VCC*%
X139690000Y-82400000D02*
X139690000Y-85260000D01*
X139690000Y-85260000D02*
X141610000Y-85260000D01*
X141610000Y-85260000D02*
X141610000Y-82400000D01*
%TO.C,C18*%
X153875000Y-103361252D02*
X153875000Y-102838748D01*
X155345000Y-103361252D02*
X155345000Y-102838748D01*
%TO.C,C14*%
X110865000Y-85661252D02*
X110865000Y-85138748D01*
X112335000Y-85661252D02*
X112335000Y-85138748D01*
%TO.C,C13*%
X146740000Y-71740000D02*
X150490000Y-71740000D01*
X146740000Y-81195563D02*
X146740000Y-71740000D01*
X147804437Y-82260000D02*
X146740000Y-81195563D01*
X147804437Y-82260000D02*
X150490000Y-82260000D01*
X148875000Y-79875000D02*
X150125000Y-79875000D01*
X149500000Y-80500000D02*
X149500000Y-79250000D01*
X156195563Y-82260000D02*
X153510000Y-82260000D01*
X156195563Y-82260000D02*
X157260000Y-81195563D01*
X157260000Y-71740000D02*
X153510000Y-71740000D01*
X157260000Y-81195563D02*
X157260000Y-71740000D01*
%TO.C,C16*%
X144290000Y-99611252D02*
X144290000Y-99088748D01*
X145760000Y-99611252D02*
X145760000Y-99088748D01*
D14*
%TO.C,U3*%
X136762499Y-117206000D02*
X136762499Y-117558305D01*
X136762499Y-120503695D02*
X136762499Y-120856000D01*
X136762499Y-120856000D02*
X137364804Y-120856000D01*
X137364804Y-117206000D02*
X136762499Y-117206000D01*
X138310192Y-120856000D02*
X138864806Y-120856000D01*
X138864806Y-117206000D02*
X138310192Y-117206000D01*
X139810194Y-120856000D02*
X140412499Y-120856000D01*
X140412499Y-117206000D02*
X139810194Y-117206000D01*
X140412499Y-117558305D02*
X140412499Y-117206000D01*
X140412499Y-120856000D02*
X140412499Y-120503695D01*
D13*
G36*
X141289442Y-119721499D02*
G01*
X141035442Y-119721499D01*
X141035442Y-119340499D01*
X141289442Y-119340499D01*
X141289442Y-119721499D01*
G37*
D16*
%TO.C,R3*%
X146427064Y-87965000D02*
X145972936Y-87965000D01*
X146427064Y-89435000D02*
X145972936Y-89435000D01*
%TO.C,U2*%
X114010500Y-110075000D02*
X114010500Y-110075000D01*
X114010500Y-110075000D02*
X120110500Y-110075000D01*
X114010500Y-125525000D02*
X114010500Y-110075000D01*
X114340500Y-110651000D02*
X114340500Y-110651000D01*
X114340500Y-110651000D02*
X119674500Y-110651000D01*
X114340500Y-121319000D02*
X114340500Y-110651000D01*
X114340500Y-121319000D02*
X114340500Y-121319000D01*
X119674500Y-110651000D02*
X119674500Y-121319000D01*
X119674500Y-121319000D02*
X114340500Y-121319000D01*
X120110500Y-110075000D02*
X120110500Y-125525000D01*
X120110500Y-125525000D02*
X114010500Y-125525000D01*
X113810500Y-112175000D02*
X113474500Y-112415000D01*
X113474500Y-111935000D01*
X113810500Y-112175000D01*
G36*
X113810500Y-112175000D02*
G01*
X113474500Y-112415000D01*
X113474500Y-111935000D01*
X113810500Y-112175000D01*
G37*
%TO.C,servo11*%
X170240000Y-83290000D02*
X170240000Y-84540000D01*
X170540000Y-83590000D02*
X170540000Y-88310000D01*
X170540000Y-84900000D02*
X171150000Y-84900000D01*
X170540000Y-86200000D02*
X171150000Y-86200000D01*
X170540000Y-88310000D02*
X178660000Y-88310000D01*
X171150000Y-84200000D02*
X171150000Y-87700000D01*
X171150000Y-87700000D02*
X178050000Y-87700000D01*
X171490000Y-83290000D02*
X170240000Y-83290000D01*
X172000000Y-83390000D02*
X172000000Y-83590000D01*
X172300000Y-83390000D02*
X172000000Y-83390000D01*
X172300000Y-83490000D02*
X172000000Y-83490000D01*
X172300000Y-83590000D02*
X172300000Y-83390000D01*
X173100000Y-83590000D02*
X173100000Y-84200000D01*
X173100000Y-84200000D02*
X171150000Y-84200000D01*
X173500000Y-87200000D02*
X173700000Y-87200000D01*
X173500000Y-87700000D02*
X173500000Y-87200000D01*
X173600000Y-87700000D02*
X173600000Y-87200000D01*
X173700000Y-87200000D02*
X173700000Y-87700000D01*
X175500000Y-87200000D02*
X175700000Y-87200000D01*
X175500000Y-87700000D02*
X175500000Y-87200000D01*
X175600000Y-87700000D02*
X175600000Y-87200000D01*
X175700000Y-87200000D02*
X175700000Y-87700000D01*
X176100000Y-84200000D02*
X176100000Y-83590000D01*
X178050000Y-84200000D02*
X176100000Y-84200000D01*
X178050000Y-87700000D02*
X178050000Y-84200000D01*
X178660000Y-83590000D02*
X170540000Y-83590000D01*
X178660000Y-84900000D02*
X178050000Y-84900000D01*
X178660000Y-86200000D02*
X178050000Y-86200000D01*
X178660000Y-88310000D02*
X178660000Y-83590000D01*
%TO.C,R9*%
X132377500Y-114277064D02*
X132377500Y-113822936D01*
X133847500Y-114277064D02*
X133847500Y-113822936D01*
%TO.C,C3*%
X121615000Y-113061252D02*
X121615000Y-112538748D01*
X123085000Y-113061252D02*
X123085000Y-112538748D01*
%TO.C,servo5*%
X161240000Y-105690000D02*
X161240000Y-106940000D01*
X161540000Y-105990000D02*
X161540000Y-110710000D01*
X161540000Y-107300000D02*
X162150000Y-107300000D01*
X161540000Y-108600000D02*
X162150000Y-108600000D01*
X161540000Y-110710000D02*
X169660000Y-110710000D01*
X162150000Y-106600000D02*
X162150000Y-110100000D01*
X162150000Y-110100000D02*
X169050000Y-110100000D01*
X162490000Y-105690000D02*
X161240000Y-105690000D01*
X163000000Y-105790000D02*
X163000000Y-105990000D01*
X163300000Y-105790000D02*
X163000000Y-105790000D01*
X163300000Y-105890000D02*
X163000000Y-105890000D01*
X163300000Y-105990000D02*
X163300000Y-105790000D01*
X164100000Y-105990000D02*
X164100000Y-106600000D01*
X164100000Y-106600000D02*
X162150000Y-106600000D01*
X164500000Y-109600000D02*
X164700000Y-109600000D01*
X164500000Y-110100000D02*
X164500000Y-109600000D01*
X164600000Y-110100000D02*
X164600000Y-109600000D01*
X164700000Y-109600000D02*
X164700000Y-110100000D01*
X166500000Y-109600000D02*
X166700000Y-109600000D01*
X166500000Y-110100000D02*
X166500000Y-109600000D01*
X166600000Y-110100000D02*
X166600000Y-109600000D01*
X166700000Y-109600000D02*
X166700000Y-110100000D01*
X167100000Y-106600000D02*
X167100000Y-105990000D01*
X169050000Y-106600000D02*
X167100000Y-106600000D01*
X169050000Y-110100000D02*
X169050000Y-106600000D01*
X169660000Y-105990000D02*
X161540000Y-105990000D01*
X169660000Y-107300000D02*
X169050000Y-107300000D01*
X169660000Y-108600000D02*
X169050000Y-108600000D01*
X169660000Y-110710000D02*
X169660000Y-105990000D01*
%TO.C,servo4*%
X161240000Y-117140000D02*
X161240000Y-118390000D01*
X161540000Y-117440000D02*
X161540000Y-122160000D01*
X161540000Y-118750000D02*
X162150000Y-118750000D01*
X161540000Y-120050000D02*
X162150000Y-120050000D01*
X161540000Y-122160000D02*
X169660000Y-122160000D01*
X162150000Y-118050000D02*
X162150000Y-121550000D01*
X162150000Y-121550000D02*
X169050000Y-121550000D01*
X162490000Y-117140000D02*
X161240000Y-117140000D01*
X163000000Y-117240000D02*
X163000000Y-117440000D01*
X163300000Y-117240000D02*
X163000000Y-117240000D01*
X163300000Y-117340000D02*
X163000000Y-117340000D01*
X163300000Y-117440000D02*
X163300000Y-117240000D01*
X164100000Y-117440000D02*
X164100000Y-118050000D01*
X164100000Y-118050000D02*
X162150000Y-118050000D01*
X164500000Y-121050000D02*
X164700000Y-121050000D01*
X164500000Y-121550000D02*
X164500000Y-121050000D01*
X164600000Y-121550000D02*
X164600000Y-121050000D01*
X164700000Y-121050000D02*
X164700000Y-121550000D01*
X166500000Y-121050000D02*
X166700000Y-121050000D01*
X166500000Y-121550000D02*
X166500000Y-121050000D01*
X166600000Y-121550000D02*
X166600000Y-121050000D01*
X166700000Y-121050000D02*
X166700000Y-121550000D01*
X167100000Y-118050000D02*
X167100000Y-117440000D01*
X169050000Y-118050000D02*
X167100000Y-118050000D01*
X169050000Y-121550000D02*
X169050000Y-118050000D01*
X169660000Y-117440000D02*
X161540000Y-117440000D01*
X169660000Y-118750000D02*
X169050000Y-118750000D01*
X169660000Y-120050000D02*
X169050000Y-120050000D01*
X169660000Y-122160000D02*
X169660000Y-117440000D01*
%TO.C,5V*%
X142920000Y-72300000D02*
X144250000Y-72300000D01*
X142920000Y-73630000D02*
X142920000Y-72300000D01*
%TO.C,C7*%
X151275000Y-107961252D02*
X151275000Y-107438748D01*
X152745000Y-107961252D02*
X152745000Y-107438748D01*
%TO.C,servo2*%
X161240000Y-111340000D02*
X161240000Y-112590000D01*
X161540000Y-111640000D02*
X161540000Y-116360000D01*
X161540000Y-112950000D02*
X162150000Y-112950000D01*
X161540000Y-114250000D02*
X162150000Y-114250000D01*
X161540000Y-116360000D02*
X169660000Y-116360000D01*
X162150000Y-112250000D02*
X162150000Y-115750000D01*
X162150000Y-115750000D02*
X169050000Y-115750000D01*
X162490000Y-111340000D02*
X161240000Y-111340000D01*
X163000000Y-111440000D02*
X163000000Y-111640000D01*
X163300000Y-111440000D02*
X163000000Y-111440000D01*
X163300000Y-111540000D02*
X163000000Y-111540000D01*
X163300000Y-111640000D02*
X163300000Y-111440000D01*
X164100000Y-111640000D02*
X164100000Y-112250000D01*
X164100000Y-112250000D02*
X162150000Y-112250000D01*
X164500000Y-115250000D02*
X164700000Y-115250000D01*
X164500000Y-115750000D02*
X164500000Y-115250000D01*
X164600000Y-115750000D02*
X164600000Y-115250000D01*
X164700000Y-115250000D02*
X164700000Y-115750000D01*
X166500000Y-115250000D02*
X166700000Y-115250000D01*
X166500000Y-115750000D02*
X166500000Y-115250000D01*
X166600000Y-115750000D02*
X166600000Y-115250000D01*
X166700000Y-115250000D02*
X166700000Y-115750000D01*
X167100000Y-112250000D02*
X167100000Y-111640000D01*
X169050000Y-112250000D02*
X167100000Y-112250000D01*
X169050000Y-115750000D02*
X169050000Y-112250000D01*
X169660000Y-111640000D02*
X161540000Y-111640000D01*
X169660000Y-112950000D02*
X169050000Y-112950000D01*
X169660000Y-114250000D02*
X169050000Y-114250000D01*
X169660000Y-116360000D02*
X169660000Y-111640000D01*
%TO.C,C11*%
X150865000Y-86611252D02*
X150865000Y-86088748D01*
X152335000Y-86611252D02*
X152335000Y-86088748D01*
%TO.C,R7*%
X106665000Y-102037064D02*
X106665000Y-101582936D01*
X108135000Y-102037064D02*
X108135000Y-101582936D01*
%TO.C,3V3*%
X135190000Y-82400000D02*
X135190000Y-85260000D01*
X135190000Y-85260000D02*
X137110000Y-85260000D01*
X137110000Y-85260000D02*
X137110000Y-82400000D01*
%TO.C,C20*%
X136376248Y-112265000D02*
X136898752Y-112265000D01*
X136376248Y-113735000D02*
X136898752Y-113735000D01*
%TO.C,R4*%
X151772936Y-111265000D02*
X152227064Y-111265000D01*
X151772936Y-112735000D02*
X152227064Y-112735000D01*
%TO.C,S4*%
X124470000Y-83030000D02*
X124470000Y-80430000D01*
X127130000Y-80430000D02*
X124470000Y-80430000D01*
X127130000Y-83030000D02*
X124470000Y-83030000D01*
X127130000Y-83030000D02*
X127130000Y-80430000D01*
X127130000Y-84300000D02*
X127130000Y-85630000D01*
X127130000Y-85630000D02*
X125800000Y-85630000D01*
%TO.C,Main-Power1*%
X159865000Y-80956000D02*
X159865000Y-71035000D01*
X161190000Y-76764000D02*
X161237000Y-76718000D01*
X161395000Y-76970000D02*
X161430000Y-76934000D01*
X163499000Y-74456000D02*
X163534000Y-74421000D01*
X163692000Y-74672000D02*
X163739000Y-74626000D01*
X170145000Y-71035000D02*
X159865000Y-71035000D01*
X170145000Y-71595000D02*
X159865000Y-71595000D01*
X170145000Y-73095000D02*
X159865000Y-73095000D01*
X170145000Y-77996000D02*
X159865000Y-77996000D01*
X170145000Y-80956000D02*
X159865000Y-80956000D01*
X170145000Y-80956000D02*
X170145000Y-71035000D01*
X170385000Y-70795000D02*
X169885000Y-70795000D01*
X170385000Y-71535000D02*
X170385000Y-70795000D01*
X166009573Y-76378042D02*
G75*
G02*
X166010000Y-75011000I1535427J683042D01*
G01*
X166861682Y-74160244D02*
G75*
G02*
X167545000Y-74015000I683318J-1534756D01*
G01*
X167516195Y-74014747D02*
G75*
G02*
X168229000Y-74160000I28806J-1680254D01*
G01*
X168228042Y-77230427D02*
G75*
G02*
X166861000Y-77230000I-683041J1535420D01*
G01*
X169080427Y-75011958D02*
G75*
G02*
X169080000Y-76379000I-1535420J-683041D01*
G01*
X164145000Y-75695000D02*
G75*
G02*
X160785000Y-75695000I-1680000J0D01*
G01*
X160785000Y-75695000D02*
G75*
G02*
X164145000Y-75695000I1680000J0D01*
G01*
%TO.C,C8*%
X157248752Y-82977500D02*
X156726248Y-82977500D01*
X157248752Y-84447500D02*
X156726248Y-84447500D01*
D14*
%TO.C,U7*%
X149306000Y-95549999D02*
X149306000Y-96152304D01*
X149306000Y-97097692D02*
X149306000Y-97652306D01*
X149306000Y-98597694D02*
X149306000Y-99199999D01*
X149306000Y-99199999D02*
X149658305Y-99199999D01*
X149658305Y-95549999D02*
X149306000Y-95549999D01*
X152603695Y-99199999D02*
X152956000Y-99199999D01*
X152956000Y-95549999D02*
X152603695Y-95549999D01*
X152956000Y-96152304D02*
X152956000Y-95549999D01*
X152956000Y-97652306D02*
X152956000Y-97097692D01*
X152956000Y-99199999D02*
X152956000Y-98597694D01*
D13*
G36*
X151821499Y-94927056D02*
G01*
X151440499Y-94927056D01*
X151440499Y-94673056D01*
X151821499Y-94673056D01*
X151821499Y-94927056D01*
G37*
D16*
%TO.C,5V*%
X137440000Y-82400000D02*
X137440000Y-85260000D01*
X137440000Y-85260000D02*
X139360000Y-85260000D01*
X139360000Y-85260000D02*
X139360000Y-82400000D01*
%TO.C,servo10*%
X161240000Y-100140000D02*
X161240000Y-101390000D01*
X161540000Y-100440000D02*
X161540000Y-105160000D01*
X161540000Y-101750000D02*
X162150000Y-101750000D01*
X161540000Y-103050000D02*
X162150000Y-103050000D01*
X161540000Y-105160000D02*
X169660000Y-105160000D01*
X162150000Y-101050000D02*
X162150000Y-104550000D01*
X162150000Y-104550000D02*
X169050000Y-104550000D01*
X162490000Y-100140000D02*
X161240000Y-100140000D01*
X163000000Y-100240000D02*
X163000000Y-100440000D01*
X163300000Y-100240000D02*
X163000000Y-100240000D01*
X163300000Y-100340000D02*
X163000000Y-100340000D01*
X163300000Y-100440000D02*
X163300000Y-100240000D01*
X164100000Y-100440000D02*
X164100000Y-101050000D01*
X164100000Y-101050000D02*
X162150000Y-101050000D01*
X164500000Y-104050000D02*
X164700000Y-104050000D01*
X164500000Y-104550000D02*
X164500000Y-104050000D01*
X164600000Y-104550000D02*
X164600000Y-104050000D01*
X164700000Y-104050000D02*
X164700000Y-104550000D01*
X166500000Y-104050000D02*
X166700000Y-104050000D01*
X166500000Y-104550000D02*
X166500000Y-104050000D01*
X166600000Y-104550000D02*
X166600000Y-104050000D01*
X166700000Y-104050000D02*
X166700000Y-104550000D01*
X167100000Y-101050000D02*
X167100000Y-100440000D01*
X169050000Y-101050000D02*
X167100000Y-101050000D01*
X169050000Y-104550000D02*
X169050000Y-101050000D01*
X169660000Y-100440000D02*
X161540000Y-100440000D01*
X169660000Y-101750000D02*
X169050000Y-101750000D01*
X169660000Y-103050000D02*
X169050000Y-103050000D01*
X169660000Y-105160000D02*
X169660000Y-100440000D01*
%TO.C,C15*%
X124065000Y-113061252D02*
X124065000Y-112538748D01*
X125535000Y-113061252D02*
X125535000Y-112538748D01*
%TO.C,S2*%
X130270000Y-83005000D02*
X130270000Y-80405000D01*
X132930000Y-80405000D02*
X130270000Y-80405000D01*
X132930000Y-83005000D02*
X130270000Y-83005000D01*
X132930000Y-83005000D02*
X132930000Y-80405000D01*
X132930000Y-84275000D02*
X132930000Y-85605000D01*
X132930000Y-85605000D02*
X131600000Y-85605000D01*
D11*
%TO.C,U1*%
X106220000Y-89110000D02*
X141780000Y-89110000D01*
X106220000Y-106890000D02*
X106220000Y-89110000D01*
X141780000Y-89110000D02*
X141780000Y-106890000D01*
X141780000Y-106890000D02*
X106220000Y-106890000D01*
D16*
%TO.C,servo3*%
X161240000Y-94540000D02*
X161240000Y-95790000D01*
X161540000Y-94840000D02*
X161540000Y-99560000D01*
X161540000Y-96150000D02*
X162150000Y-96150000D01*
X161540000Y-97450000D02*
X162150000Y-97450000D01*
X161540000Y-99560000D02*
X169660000Y-99560000D01*
X162150000Y-95450000D02*
X162150000Y-98950000D01*
X162150000Y-98950000D02*
X169050000Y-98950000D01*
X162490000Y-94540000D02*
X161240000Y-94540000D01*
X163000000Y-94640000D02*
X163000000Y-94840000D01*
X163300000Y-94640000D02*
X163000000Y-94640000D01*
X163300000Y-94740000D02*
X163000000Y-94740000D01*
X163300000Y-94840000D02*
X163300000Y-94640000D01*
X164100000Y-94840000D02*
X164100000Y-95450000D01*
X164100000Y-95450000D02*
X162150000Y-95450000D01*
X164500000Y-98450000D02*
X164700000Y-98450000D01*
X164500000Y-98950000D02*
X164500000Y-98450000D01*
X164600000Y-98950000D02*
X164600000Y-98450000D01*
X164700000Y-98450000D02*
X164700000Y-98950000D01*
X166500000Y-98450000D02*
X166700000Y-98450000D01*
X166500000Y-98950000D02*
X166500000Y-98450000D01*
X166600000Y-98950000D02*
X166600000Y-98450000D01*
X166700000Y-98450000D02*
X166700000Y-98950000D01*
X167100000Y-95450000D02*
X167100000Y-94840000D01*
X169050000Y-95450000D02*
X167100000Y-95450000D01*
X169050000Y-98950000D02*
X169050000Y-95450000D01*
X169660000Y-94840000D02*
X161540000Y-94840000D01*
X169660000Y-96150000D02*
X169050000Y-96150000D01*
X169660000Y-97450000D02*
X169050000Y-97450000D01*
X169660000Y-99560000D02*
X169660000Y-94840000D01*
%TO.C,R14*%
X154065000Y-96297936D02*
X154065000Y-96752064D01*
X155535000Y-96297936D02*
X155535000Y-96752064D01*
%TO.C,servo9*%
X170240000Y-88890000D02*
X170240000Y-90140000D01*
X170540000Y-89190000D02*
X170540000Y-93910000D01*
X170540000Y-90500000D02*
X171150000Y-90500000D01*
X170540000Y-91800000D02*
X171150000Y-91800000D01*
X170540000Y-93910000D02*
X178660000Y-93910000D01*
X171150000Y-89800000D02*
X171150000Y-93300000D01*
X171150000Y-93300000D02*
X178050000Y-93300000D01*
X171490000Y-88890000D02*
X170240000Y-88890000D01*
X172000000Y-88990000D02*
X172000000Y-89190000D01*
X172300000Y-88990000D02*
X172000000Y-88990000D01*
X172300000Y-89090000D02*
X172000000Y-89090000D01*
X172300000Y-89190000D02*
X172300000Y-88990000D01*
X173100000Y-89190000D02*
X173100000Y-89800000D01*
X173100000Y-89800000D02*
X171150000Y-89800000D01*
X173500000Y-92800000D02*
X173700000Y-92800000D01*
X173500000Y-93300000D02*
X173500000Y-92800000D01*
X173600000Y-93300000D02*
X173600000Y-92800000D01*
X173700000Y-92800000D02*
X173700000Y-93300000D01*
X175500000Y-92800000D02*
X175700000Y-92800000D01*
X175500000Y-93300000D02*
X175500000Y-92800000D01*
X175600000Y-93300000D02*
X175600000Y-92800000D01*
X175700000Y-92800000D02*
X175700000Y-93300000D01*
X176100000Y-89800000D02*
X176100000Y-89190000D01*
X178050000Y-89800000D02*
X176100000Y-89800000D01*
X178050000Y-93300000D02*
X178050000Y-89800000D01*
X178660000Y-89190000D02*
X170540000Y-89190000D01*
X178660000Y-90500000D02*
X178050000Y-90500000D01*
X178660000Y-91800000D02*
X178050000Y-91800000D01*
X178660000Y-93910000D02*
X178660000Y-89190000D01*
%TO.C,C19*%
X156075000Y-103361252D02*
X156075000Y-102838748D01*
X157545000Y-103361252D02*
X157545000Y-102838748D01*
%TO.C,button1*%
X105750000Y-111000000D02*
X105750000Y-115500000D01*
X108250000Y-116750000D02*
X109750000Y-116750000D01*
X109750000Y-109750000D02*
X108250000Y-109750000D01*
X112250000Y-115500000D02*
X112250000Y-111000000D01*
%TO.C,J2*%
X137790000Y-75670000D02*
X139120000Y-75670000D01*
X139120000Y-75670000D02*
X139120000Y-77000000D01*
%TO.C,S3*%
X127370000Y-83030000D02*
X127370000Y-80430000D01*
X130030000Y-80430000D02*
X127370000Y-80430000D01*
X130030000Y-83030000D02*
X127370000Y-83030000D01*
X130030000Y-83030000D02*
X130030000Y-80430000D01*
X130030000Y-84300000D02*
X130030000Y-85630000D01*
X130030000Y-85630000D02*
X128700000Y-85630000D01*
%TO.C,U5*%
X156937500Y-85190000D02*
X156137500Y-85190000D01*
X156937500Y-85190000D02*
X157737500Y-85190000D01*
X156937500Y-88310000D02*
X156137500Y-88310000D01*
X156937500Y-88310000D02*
X157737500Y-88310000D01*
X158477500Y-88590000D02*
X157997500Y-88590000D01*
X158237500Y-88260000D01*
X158477500Y-88590000D01*
G36*
X158477500Y-88590000D02*
G01*
X157997500Y-88590000D01*
X158237500Y-88260000D01*
X158477500Y-88590000D01*
G37*
%TO.C,C5*%
X121012466Y-78390002D02*
X121534970Y-78390002D01*
X121012466Y-79860002D02*
X121534970Y-79860002D01*
%TO.C,D3*%
X144240000Y-111540000D02*
X144240000Y-114400000D01*
X146160000Y-111540000D02*
X144240000Y-111540000D01*
X146160000Y-114400000D02*
X146160000Y-111540000D01*
%TO.C,C12*%
X153087500Y-86648752D02*
X153087500Y-86126248D01*
X154557500Y-86648752D02*
X154557500Y-86126248D01*
%TO.C,servo12*%
X161240000Y-88940000D02*
X161240000Y-90190000D01*
X161540000Y-89240000D02*
X161540000Y-93960000D01*
X161540000Y-90550000D02*
X162150000Y-90550000D01*
X161540000Y-91850000D02*
X162150000Y-91850000D01*
X161540000Y-93960000D02*
X169660000Y-93960000D01*
X162150000Y-89850000D02*
X162150000Y-93350000D01*
X162150000Y-93350000D02*
X169050000Y-93350000D01*
X162490000Y-88940000D02*
X161240000Y-88940000D01*
X163000000Y-89040000D02*
X163000000Y-89240000D01*
X163300000Y-89040000D02*
X163000000Y-89040000D01*
X163300000Y-89140000D02*
X163000000Y-89140000D01*
X163300000Y-89240000D02*
X163300000Y-89040000D01*
X164100000Y-89240000D02*
X164100000Y-89850000D01*
X164100000Y-89850000D02*
X162150000Y-89850000D01*
X164500000Y-92850000D02*
X164700000Y-92850000D01*
X164500000Y-93350000D02*
X164500000Y-92850000D01*
X164600000Y-93350000D02*
X164600000Y-92850000D01*
X164700000Y-92850000D02*
X164700000Y-93350000D01*
X166500000Y-92850000D02*
X166700000Y-92850000D01*
X166500000Y-93350000D02*
X166500000Y-92850000D01*
X166600000Y-93350000D02*
X166600000Y-92850000D01*
X166700000Y-92850000D02*
X166700000Y-93350000D01*
X167100000Y-89850000D02*
X167100000Y-89240000D01*
X169050000Y-89850000D02*
X167100000Y-89850000D01*
X169050000Y-93350000D02*
X169050000Y-89850000D01*
X169660000Y-89240000D02*
X161540000Y-89240000D01*
X169660000Y-90550000D02*
X169050000Y-90550000D01*
X169660000Y-91850000D02*
X169050000Y-91850000D01*
X169660000Y-93960000D02*
X169660000Y-89240000D01*
D14*
%TO.C,U8*%
X155549000Y-111809300D02*
X155549000Y-113460300D01*
X155549000Y-113460300D02*
X156587860Y-113460300D01*
X157540360Y-111809300D02*
X156859640Y-111809300D01*
X157812140Y-113460300D02*
X158851000Y-113460300D01*
X158851000Y-113460300D02*
X158851000Y-111809300D01*
X160121000Y-111314000D02*
G75*
G02*
X159867000Y-111314000I-127000J0D01*
G01*
X159867000Y-111314000D02*
G75*
G02*
X160121000Y-111314000I127000J0D01*
G01*
D16*
%TO.C,C4*%
X118912466Y-70890002D02*
X119434970Y-70890002D01*
X118912466Y-72360002D02*
X119434970Y-72360002D01*
%TO.C,servo8*%
X170240000Y-111340000D02*
X170240000Y-112590000D01*
X170540000Y-111640000D02*
X170540000Y-116360000D01*
X170540000Y-112950000D02*
X171150000Y-112950000D01*
X170540000Y-114250000D02*
X171150000Y-114250000D01*
X170540000Y-116360000D02*
X178660000Y-116360000D01*
X171150000Y-112250000D02*
X171150000Y-115750000D01*
X171150000Y-115750000D02*
X178050000Y-115750000D01*
X171490000Y-111340000D02*
X170240000Y-111340000D01*
X172000000Y-111440000D02*
X172000000Y-111640000D01*
X172300000Y-111440000D02*
X172000000Y-111440000D01*
X172300000Y-111540000D02*
X172000000Y-111540000D01*
X172300000Y-111640000D02*
X172300000Y-111440000D01*
X173100000Y-111640000D02*
X173100000Y-112250000D01*
X173100000Y-112250000D02*
X171150000Y-112250000D01*
X173500000Y-115250000D02*
X173700000Y-115250000D01*
X173500000Y-115750000D02*
X173500000Y-115250000D01*
X173600000Y-115750000D02*
X173600000Y-115250000D01*
X173700000Y-115250000D02*
X173700000Y-115750000D01*
X175500000Y-115250000D02*
X175700000Y-115250000D01*
X175500000Y-115750000D02*
X175500000Y-115250000D01*
X175600000Y-115750000D02*
X175600000Y-115250000D01*
X175700000Y-115250000D02*
X175700000Y-115750000D01*
X176100000Y-112250000D02*
X176100000Y-111640000D01*
X178050000Y-112250000D02*
X176100000Y-112250000D01*
X178050000Y-115750000D02*
X178050000Y-112250000D01*
X178660000Y-111640000D02*
X170540000Y-111640000D01*
X178660000Y-112950000D02*
X178050000Y-112950000D01*
X178660000Y-114250000D02*
X178050000Y-114250000D01*
X178660000Y-116360000D02*
X178660000Y-111640000D01*
%TO.C,C10*%
X140176248Y-112265000D02*
X140698752Y-112265000D01*
X140176248Y-113735000D02*
X140698752Y-113735000D01*
%TO.C,C22*%
X146465000Y-99101248D02*
X146465000Y-99623752D01*
X147935000Y-99101248D02*
X147935000Y-99623752D01*
%TO.C,C1*%
X108661252Y-85715000D02*
X108138748Y-85715000D01*
X108661252Y-87185000D02*
X108138748Y-87185000D01*
%TO.C,C9*%
X108738748Y-81935000D02*
X109261252Y-81935000D01*
X108738748Y-80465000D02*
X109261252Y-80465000D01*
%TO.C,servo6*%
X161240000Y-83290000D02*
X161240000Y-84540000D01*
X161540000Y-83590000D02*
X161540000Y-88310000D01*
X161540000Y-84900000D02*
X162150000Y-84900000D01*
X161540000Y-86200000D02*
X162150000Y-86200000D01*
X161540000Y-88310000D02*
X169660000Y-88310000D01*
X162150000Y-84200000D02*
X162150000Y-87700000D01*
X162150000Y-87700000D02*
X169050000Y-87700000D01*
X162490000Y-83290000D02*
X161240000Y-83290000D01*
X163000000Y-83390000D02*
X163000000Y-83590000D01*
X163300000Y-83390000D02*
X163000000Y-83390000D01*
X163300000Y-83490000D02*
X163000000Y-83490000D01*
X163300000Y-83590000D02*
X163300000Y-83390000D01*
X164100000Y-83590000D02*
X164100000Y-84200000D01*
X164100000Y-84200000D02*
X162150000Y-84200000D01*
X164500000Y-87200000D02*
X164700000Y-87200000D01*
X164500000Y-87700000D02*
X164500000Y-87200000D01*
X164600000Y-87700000D02*
X164600000Y-87200000D01*
X164700000Y-87200000D02*
X164700000Y-87700000D01*
X166500000Y-87200000D02*
X166700000Y-87200000D01*
X166500000Y-87700000D02*
X166500000Y-87200000D01*
X166600000Y-87700000D02*
X166600000Y-87200000D01*
X166700000Y-87200000D02*
X166700000Y-87700000D01*
X167100000Y-84200000D02*
X167100000Y-83590000D01*
X169050000Y-84200000D02*
X167100000Y-84200000D01*
X169050000Y-87700000D02*
X169050000Y-84200000D01*
X169660000Y-83590000D02*
X161540000Y-83590000D01*
X169660000Y-84900000D02*
X169050000Y-84900000D01*
X169660000Y-86200000D02*
X169050000Y-86200000D01*
X169660000Y-88310000D02*
X169660000Y-83590000D01*
%TO.C,servo7*%
X170240000Y-105690000D02*
X170240000Y-106940000D01*
X170540000Y-105990000D02*
X170540000Y-110710000D01*
X170540000Y-107300000D02*
X171150000Y-107300000D01*
X170540000Y-108600000D02*
X171150000Y-108600000D01*
X170540000Y-110710000D02*
X178660000Y-110710000D01*
X171150000Y-106600000D02*
X171150000Y-110100000D01*
X171150000Y-110100000D02*
X178050000Y-110100000D01*
X171490000Y-105690000D02*
X170240000Y-105690000D01*
X172000000Y-105790000D02*
X172000000Y-105990000D01*
X172300000Y-105790000D02*
X172000000Y-105790000D01*
X172300000Y-105890000D02*
X172000000Y-105890000D01*
X172300000Y-105990000D02*
X172300000Y-105790000D01*
X173100000Y-105990000D02*
X173100000Y-106600000D01*
X173100000Y-106600000D02*
X171150000Y-106600000D01*
X173500000Y-109600000D02*
X173700000Y-109600000D01*
X173500000Y-110100000D02*
X173500000Y-109600000D01*
X173600000Y-110100000D02*
X173600000Y-109600000D01*
X173700000Y-109600000D02*
X173700000Y-110100000D01*
X175500000Y-109600000D02*
X175700000Y-109600000D01*
X175500000Y-110100000D02*
X175500000Y-109600000D01*
X175600000Y-110100000D02*
X175600000Y-109600000D01*
X175700000Y-109600000D02*
X175700000Y-110100000D01*
X176100000Y-106600000D02*
X176100000Y-105990000D01*
X178050000Y-106600000D02*
X176100000Y-106600000D01*
X178050000Y-110100000D02*
X178050000Y-106600000D01*
X178660000Y-105990000D02*
X170540000Y-105990000D01*
X178660000Y-107300000D02*
X178050000Y-107300000D01*
X178660000Y-108600000D02*
X178050000Y-108600000D01*
X178660000Y-110710000D02*
X178660000Y-105990000D01*
%TO.C,GND*%
X140170000Y-72340000D02*
X141500000Y-72340000D01*
X140170000Y-73670000D02*
X140170000Y-72340000D01*
%TO.C,C6*%
X123838718Y-72963750D02*
X123838718Y-73486254D01*
X125308718Y-72963750D02*
X125308718Y-73486254D01*
%TD*%
%LPC*%
D13*
%TO.C,U4*%
G36*
X119543377Y-74809598D02*
G01*
X118554186Y-74809598D01*
X118554186Y-74390404D01*
X119543377Y-74390404D01*
X119543377Y-74809598D01*
G37*
G36*
X119543377Y-75309597D02*
G01*
X118554186Y-75309597D01*
X118554186Y-74890406D01*
X119543377Y-74890406D01*
X119543377Y-75309597D01*
G37*
G36*
X119543377Y-75809596D02*
G01*
X118554186Y-75809596D01*
X118554186Y-75390405D01*
X119543377Y-75390405D01*
X119543377Y-75809596D01*
G37*
G36*
X119543377Y-76309598D02*
G01*
X118554186Y-76309598D01*
X118554186Y-75890404D01*
X119543377Y-75890404D01*
X119543377Y-76309598D01*
G37*
G36*
X119983188Y-77319596D02*
G01*
X119563996Y-77319596D01*
X119563996Y-76330405D01*
X119983188Y-76330405D01*
X119983188Y-77319596D01*
G37*
G36*
X120483314Y-77319596D02*
G01*
X120064122Y-77319596D01*
X120064122Y-76330405D01*
X120483314Y-76330405D01*
X120483314Y-77319596D01*
G37*
G36*
X120983440Y-77319596D02*
G01*
X120564248Y-77319596D01*
X120564248Y-76330405D01*
X120983440Y-76330405D01*
X120983440Y-77319596D01*
G37*
G36*
X121483566Y-77319596D02*
G01*
X121064374Y-77319596D01*
X121064374Y-76330405D01*
X121483566Y-76330405D01*
X121483566Y-77319596D01*
G37*
G36*
X122493376Y-76309598D02*
G01*
X121504185Y-76309598D01*
X121504185Y-75890404D01*
X122493376Y-75890404D01*
X122493376Y-76309598D01*
G37*
G36*
X122493376Y-75809596D02*
G01*
X121504185Y-75809596D01*
X121504185Y-75390405D01*
X122493376Y-75390405D01*
X122493376Y-75809596D01*
G37*
G36*
X122493376Y-75309597D02*
G01*
X121504185Y-75309597D01*
X121504185Y-74890406D01*
X122493376Y-74890406D01*
X122493376Y-75309597D01*
G37*
G36*
X122493376Y-74809598D02*
G01*
X121504185Y-74809598D01*
X121504185Y-74390404D01*
X122493376Y-74390404D01*
X122493376Y-74809598D01*
G37*
G36*
X121483566Y-74369597D02*
G01*
X121064374Y-74369597D01*
X121064374Y-73380406D01*
X121483566Y-73380406D01*
X121483566Y-74369597D01*
G37*
G36*
X120983440Y-74369597D02*
G01*
X120564248Y-74369597D01*
X120564248Y-73380406D01*
X120983440Y-73380406D01*
X120983440Y-74369597D01*
G37*
G36*
X120483314Y-74369597D02*
G01*
X120064122Y-74369597D01*
X120064122Y-73380406D01*
X120483314Y-73380406D01*
X120483314Y-74369597D01*
G37*
G36*
X119983188Y-74369597D02*
G01*
X119563996Y-74369597D01*
X119563996Y-73380406D01*
X119983188Y-73380406D01*
X119983188Y-74369597D01*
G37*
G36*
X121437281Y-74756301D02*
G01*
X119610281Y-74756301D01*
X119610281Y-74436501D01*
X121437281Y-74436501D01*
X121437281Y-74756301D01*
G37*
G36*
X121437281Y-75543701D02*
G01*
X119610281Y-75543701D01*
X119610281Y-75156301D01*
X121437281Y-75156301D01*
X121437281Y-75543701D01*
G37*
G36*
X121437281Y-76263501D02*
G01*
X119610281Y-76263501D01*
X119610281Y-75943701D01*
X121437281Y-75943701D01*
X121437281Y-76263501D01*
G37*
G36*
X119930081Y-76263501D02*
G01*
X119610281Y-76263501D01*
X119610281Y-74436501D01*
X119930081Y-74436501D01*
X119930081Y-76263501D01*
G37*
G36*
X120717481Y-76263501D02*
G01*
X120330081Y-76263501D01*
X120330081Y-74436501D01*
X120717481Y-74436501D01*
X120717481Y-76263501D01*
G37*
G36*
X121437281Y-76263501D02*
G01*
X121117481Y-76263501D01*
X121117481Y-74436501D01*
X121437281Y-74436501D01*
X121437281Y-76263501D01*
G37*
%TO.C,U3*%
G36*
X137313443Y-118240953D02*
G01*
X136323556Y-118240953D01*
X136323556Y-117821046D01*
X137313443Y-117821046D01*
X137313443Y-118240953D01*
G37*
G36*
X137313443Y-118740955D02*
G01*
X136323556Y-118740955D01*
X136323556Y-118321047D01*
X137313443Y-118321047D01*
X137313443Y-118740955D01*
G37*
G36*
X137313443Y-119240954D02*
G01*
X136323556Y-119240954D01*
X136323556Y-118821046D01*
X137313443Y-118821046D01*
X137313443Y-119240954D01*
G37*
G36*
X137313443Y-119740953D02*
G01*
X136323556Y-119740953D01*
X136323556Y-119321045D01*
X137313443Y-119321045D01*
X137313443Y-119740953D01*
G37*
G36*
X137313443Y-120240954D02*
G01*
X136323556Y-120240954D01*
X136323556Y-119821047D01*
X137313443Y-119821047D01*
X137313443Y-120240954D01*
G37*
G36*
X137993799Y-120119500D02*
G01*
X137498999Y-120119500D01*
X137498999Y-117942500D01*
X137993799Y-117942500D01*
X137993799Y-120119500D01*
G37*
G36*
X139675999Y-118437300D02*
G01*
X137498999Y-118437300D01*
X137498999Y-117942500D01*
X139675999Y-117942500D01*
X139675999Y-118437300D01*
G37*
G36*
X139675999Y-119224700D02*
G01*
X137498999Y-119224700D01*
X137498999Y-118837300D01*
X139675999Y-118837300D01*
X139675999Y-119224700D01*
G37*
G36*
X139675999Y-120119500D02*
G01*
X137498999Y-120119500D01*
X137498999Y-119624700D01*
X139675999Y-119624700D01*
X139675999Y-120119500D01*
G37*
G36*
X138047452Y-117794942D02*
G01*
X137627544Y-117794942D01*
X137627544Y-116805058D01*
X138047452Y-116805058D01*
X138047452Y-117794942D01*
G37*
G36*
X138047452Y-121256942D02*
G01*
X137627544Y-121256942D01*
X137627544Y-120267058D01*
X138047452Y-120267058D01*
X138047452Y-121256942D01*
G37*
G36*
X138781199Y-120119500D02*
G01*
X138393799Y-120119500D01*
X138393799Y-117942500D01*
X138781199Y-117942500D01*
X138781199Y-120119500D01*
G37*
G36*
X139547454Y-117794942D02*
G01*
X139127546Y-117794942D01*
X139127546Y-116805058D01*
X139547454Y-116805058D01*
X139547454Y-117794942D01*
G37*
G36*
X139547454Y-121256942D02*
G01*
X139127546Y-121256942D01*
X139127546Y-120267058D01*
X139547454Y-120267058D01*
X139547454Y-121256942D01*
G37*
G36*
X139675999Y-120119500D02*
G01*
X139181199Y-120119500D01*
X139181199Y-117942500D01*
X139675999Y-117942500D01*
X139675999Y-120119500D01*
G37*
G36*
X140851442Y-118240953D02*
G01*
X139861555Y-118240953D01*
X139861555Y-117821046D01*
X140851442Y-117821046D01*
X140851442Y-118240953D01*
G37*
G36*
X140851442Y-118740955D02*
G01*
X139861555Y-118740955D01*
X139861555Y-118321047D01*
X140851442Y-118321047D01*
X140851442Y-118740955D01*
G37*
G36*
X140851442Y-119240954D02*
G01*
X139861555Y-119240954D01*
X139861555Y-118821046D01*
X140851442Y-118821046D01*
X140851442Y-119240954D01*
G37*
G36*
X140851442Y-119740953D02*
G01*
X139861555Y-119740953D01*
X139861555Y-119321045D01*
X140851442Y-119321045D01*
X140851442Y-119740953D01*
G37*
G36*
X140851442Y-120240954D02*
G01*
X139861555Y-120240954D01*
X139861555Y-119821047D01*
X140851442Y-119821047D01*
X140851442Y-120240954D01*
G37*
%TO.C,U7*%
G36*
X149894942Y-96834952D02*
G01*
X148905058Y-96834952D01*
X148905058Y-96415044D01*
X149894942Y-96415044D01*
X149894942Y-96834952D01*
G37*
G36*
X149894942Y-98334954D02*
G01*
X148905058Y-98334954D01*
X148905058Y-97915046D01*
X149894942Y-97915046D01*
X149894942Y-98334954D01*
G37*
G36*
X150340953Y-96100943D02*
G01*
X149921046Y-96100943D01*
X149921046Y-95111056D01*
X150340953Y-95111056D01*
X150340953Y-96100943D01*
G37*
G36*
X150340953Y-99638942D02*
G01*
X149921046Y-99638942D01*
X149921046Y-98649055D01*
X150340953Y-98649055D01*
X150340953Y-99638942D01*
G37*
G36*
X152219500Y-96781299D02*
G01*
X150042500Y-96781299D01*
X150042500Y-96286499D01*
X152219500Y-96286499D01*
X152219500Y-96781299D01*
G37*
G36*
X152219500Y-97568699D02*
G01*
X150042500Y-97568699D01*
X150042500Y-97181299D01*
X152219500Y-97181299D01*
X152219500Y-97568699D01*
G37*
G36*
X150537300Y-98463499D02*
G01*
X150042500Y-98463499D01*
X150042500Y-96286499D01*
X150537300Y-96286499D01*
X150537300Y-98463499D01*
G37*
G36*
X152219500Y-98463499D02*
G01*
X150042500Y-98463499D01*
X150042500Y-97968699D01*
X152219500Y-97968699D01*
X152219500Y-98463499D01*
G37*
G36*
X150840955Y-96100943D02*
G01*
X150421047Y-96100943D01*
X150421047Y-95111056D01*
X150840955Y-95111056D01*
X150840955Y-96100943D01*
G37*
G36*
X150840955Y-99638942D02*
G01*
X150421047Y-99638942D01*
X150421047Y-98649055D01*
X150840955Y-98649055D01*
X150840955Y-99638942D01*
G37*
G36*
X151340954Y-96100943D02*
G01*
X150921046Y-96100943D01*
X150921046Y-95111056D01*
X151340954Y-95111056D01*
X151340954Y-96100943D01*
G37*
G36*
X151340954Y-99638942D02*
G01*
X150921046Y-99638942D01*
X150921046Y-98649055D01*
X151340954Y-98649055D01*
X151340954Y-99638942D01*
G37*
G36*
X151324700Y-98463499D02*
G01*
X150937300Y-98463499D01*
X150937300Y-96286499D01*
X151324700Y-96286499D01*
X151324700Y-98463499D01*
G37*
G36*
X151840953Y-96100943D02*
G01*
X151421045Y-96100943D01*
X151421045Y-95111056D01*
X151840953Y-95111056D01*
X151840953Y-96100943D01*
G37*
G36*
X151840953Y-99638942D02*
G01*
X151421045Y-99638942D01*
X151421045Y-98649055D01*
X151840953Y-98649055D01*
X151840953Y-99638942D01*
G37*
G36*
X152219500Y-98463499D02*
G01*
X151724700Y-98463499D01*
X151724700Y-96286499D01*
X152219500Y-96286499D01*
X152219500Y-98463499D01*
G37*
G36*
X152340954Y-96100943D02*
G01*
X151921047Y-96100943D01*
X151921047Y-95111056D01*
X152340954Y-95111056D01*
X152340954Y-96100943D01*
G37*
G36*
X152340954Y-99638942D02*
G01*
X151921047Y-99638942D01*
X151921047Y-98649055D01*
X152340954Y-98649055D01*
X152340954Y-99638942D01*
G37*
G36*
X153356942Y-96834952D02*
G01*
X152367058Y-96834952D01*
X152367058Y-96415044D01*
X153356942Y-96415044D01*
X153356942Y-96834952D01*
G37*
G36*
X153356942Y-98334954D02*
G01*
X152367058Y-98334954D01*
X152367058Y-97915046D01*
X153356942Y-97915046D01*
X153356942Y-98334954D01*
G37*
%TD*%
D17*
%TO.C,U4*%
X119048780Y-74600000D03*
X119048780Y-75100001D03*
X119048780Y-75600001D03*
X119048780Y-76100002D03*
D18*
X119773592Y-76825002D03*
X120273718Y-76825002D03*
X120773844Y-76825002D03*
X121273970Y-76825002D03*
D17*
X121998782Y-76100002D03*
X121998782Y-75600001D03*
X121998782Y-75100001D03*
X121998782Y-74600000D03*
D18*
X121273970Y-73875000D03*
X120773844Y-73875000D03*
X120273718Y-73875000D03*
X119773592Y-73875000D03*
D19*
X120130081Y-75743701D03*
X120130081Y-74956301D03*
X120917481Y-75743701D03*
X120917481Y-74956301D03*
%TD*%
D20*
%TO.C,IC2*%
X143350000Y-120550000D03*
X142850000Y-120550000D03*
X142350000Y-120550000D03*
X141850000Y-120550000D03*
X141850000Y-123700000D03*
X142350000Y-123700000D03*
X142850000Y-123700000D03*
X143350000Y-123700000D03*
%TD*%
D21*
%TO.C,servo1*%
X172600000Y-102250000D03*
D22*
X174600000Y-102250000D03*
X176600000Y-102250000D03*
%TD*%
D23*
%TO.C,BZ1*%
X148000000Y-120000000D03*
D24*
X155600000Y-120000000D03*
%TD*%
D25*
%TO.C,H2*%
X175000000Y-74000000D03*
%TD*%
D26*
%TO.C,C24*%
X145000000Y-96400000D03*
X145000000Y-94325000D03*
%TD*%
D27*
%TO.C,J1*%
X137790000Y-74250000D03*
D28*
X135250000Y-74250000D03*
X132710000Y-74250000D03*
X130170000Y-74250000D03*
%TD*%
D29*
%TO.C,C23*%
X147200000Y-94325000D03*
X147200000Y-96400000D03*
%TD*%
D30*
%TO.C,R11*%
X147200000Y-86450000D03*
X145200000Y-86450000D03*
%TD*%
D25*
%TO.C,H1*%
X109000000Y-74000000D03*
%TD*%
D31*
%TO.C,R1*%
X114373718Y-77225002D03*
X116373718Y-77225002D03*
%TD*%
D30*
%TO.C,R2*%
X156800000Y-99925000D03*
X154800000Y-99925000D03*
%TD*%
D32*
%TO.C,C17*%
X139400000Y-115250000D03*
X141475000Y-115250000D03*
%TD*%
D21*
%TO.C,servo13*%
X172600000Y-96650000D03*
D22*
X174600000Y-96650000D03*
X176600000Y-96650000D03*
%TD*%
D33*
%TO.C,C2*%
X109437500Y-84200000D03*
X107362500Y-84200000D03*
%TD*%
D34*
%TO.C,U6*%
X149700000Y-102425000D03*
X149700000Y-102825000D03*
X149700000Y-103225000D03*
X149700000Y-103625000D03*
X149700000Y-104025000D03*
X149700000Y-104425000D03*
D35*
X150200000Y-104925000D03*
X150600000Y-104925000D03*
X151000000Y-104925000D03*
X151400000Y-104925000D03*
X151800000Y-104925000D03*
X152200000Y-104925000D03*
D34*
X152700000Y-104425000D03*
X152700000Y-104025000D03*
X152700000Y-103625000D03*
X152700000Y-103225000D03*
X152700000Y-102825000D03*
X152700000Y-102425000D03*
D35*
X152200000Y-101925000D03*
X151800000Y-101925000D03*
X151400000Y-101925000D03*
X151000000Y-101925000D03*
X150600000Y-101925000D03*
X150200000Y-101925000D03*
%TD*%
D30*
%TO.C,R13*%
X147200000Y-84200000D03*
X145200000Y-84200000D03*
%TD*%
D32*
%TO.C,C21*%
X135600000Y-115250000D03*
X137675000Y-115250000D03*
%TD*%
D36*
%TO.C,VCC*%
X140650000Y-84425000D03*
X140650000Y-82375000D03*
%TD*%
D26*
%TO.C,C18*%
X154610000Y-104137500D03*
X154610000Y-102062500D03*
%TD*%
%TO.C,C14*%
X111600000Y-86437500D03*
X111600000Y-84362500D03*
%TD*%
D37*
%TO.C,C13*%
X152000000Y-81000000D03*
X152000000Y-73000000D03*
%TD*%
D26*
%TO.C,C16*%
X145025000Y-100387500D03*
X145025000Y-98312500D03*
%TD*%
D18*
%TO.C,U3*%
X137837498Y-117300000D03*
D17*
X136818498Y-118030999D03*
X136818498Y-118531001D03*
X136818498Y-119031000D03*
X136818498Y-119530999D03*
X136818498Y-120031001D03*
D18*
X137837498Y-120762000D03*
X139337500Y-120762000D03*
D17*
X140356500Y-120031001D03*
X140356500Y-119530999D03*
X140356500Y-119031000D03*
X140356500Y-118531001D03*
X140356500Y-118030999D03*
D18*
X139337500Y-117300000D03*
%TD*%
D30*
%TO.C,R3*%
X147200000Y-88700000D03*
X145200000Y-88700000D03*
%TD*%
D27*
%TO.C,U2*%
X115610500Y-112175000D03*
D38*
X118150500Y-112175000D03*
X115610500Y-114715000D03*
X118150500Y-114715000D03*
X115610500Y-117255000D03*
X118150500Y-117255000D03*
X115610500Y-119795000D03*
X118150500Y-119795000D03*
%TD*%
D21*
%TO.C,servo11*%
X172600000Y-85400000D03*
D22*
X174600000Y-85400000D03*
X176600000Y-85400000D03*
%TD*%
D39*
%TO.C,R9*%
X133112500Y-115050000D03*
X133112500Y-113050000D03*
%TD*%
D26*
%TO.C,C3*%
X122350000Y-113837500D03*
X122350000Y-111762500D03*
%TD*%
D21*
%TO.C,servo5*%
X163600000Y-107800000D03*
D22*
X165600000Y-107800000D03*
X167600000Y-107800000D03*
%TD*%
D21*
%TO.C,servo4*%
X163600000Y-119250000D03*
D22*
X165600000Y-119250000D03*
X167600000Y-119250000D03*
%TD*%
D27*
%TO.C,5V*%
X144250000Y-73630000D03*
D28*
X144250000Y-76170000D03*
X144250000Y-78710000D03*
%TD*%
D26*
%TO.C,C7*%
X152010000Y-108737500D03*
X152010000Y-106662500D03*
%TD*%
D21*
%TO.C,servo2*%
X163600000Y-113450000D03*
D22*
X165600000Y-113450000D03*
X167600000Y-113450000D03*
%TD*%
D26*
%TO.C,C11*%
X151600000Y-87387500D03*
X151600000Y-85312500D03*
%TD*%
D39*
%TO.C,R7*%
X107400000Y-102810000D03*
X107400000Y-100810000D03*
%TD*%
D36*
%TO.C,3V3*%
X136150000Y-84425000D03*
X136150000Y-82375000D03*
%TD*%
D32*
%TO.C,C20*%
X135600000Y-113000000D03*
X137675000Y-113000000D03*
%TD*%
D31*
%TO.C,R4*%
X151000000Y-112000000D03*
X153000000Y-112000000D03*
%TD*%
D27*
%TO.C,S4*%
X125800000Y-84300000D03*
D28*
X125800000Y-81760000D03*
%TD*%
D40*
%TO.C,Main-Power1*%
X167545000Y-75695000D03*
D41*
X162465000Y-75695000D03*
%TD*%
D33*
%TO.C,C8*%
X158025000Y-83712500D03*
X155950000Y-83712500D03*
%TD*%
D17*
%TO.C,U7*%
X149400000Y-98125000D03*
D18*
X150130999Y-99144000D03*
X150631001Y-99144000D03*
X151131000Y-99144000D03*
X151630999Y-99144000D03*
X152131001Y-99144000D03*
D17*
X152862000Y-98125000D03*
X152862000Y-96624998D03*
D18*
X152131001Y-95605998D03*
X151630999Y-95605998D03*
X151131000Y-95605998D03*
X150631001Y-95605998D03*
X150130999Y-95605998D03*
D17*
X149400000Y-96624998D03*
%TD*%
D36*
%TO.C,5V*%
X138400000Y-84425000D03*
X138400000Y-82375000D03*
%TD*%
D21*
%TO.C,servo10*%
X163600000Y-102250000D03*
D22*
X165600000Y-102250000D03*
X167600000Y-102250000D03*
%TD*%
D26*
%TO.C,C15*%
X124800000Y-113837500D03*
X124800000Y-111762500D03*
%TD*%
D27*
%TO.C,S2*%
X131600000Y-84275000D03*
D28*
X131600000Y-81735000D03*
%TD*%
D42*
%TO.C,U1*%
X107490000Y-105620000D03*
X110030000Y-105620000D03*
X112570000Y-105620000D03*
X115110000Y-105620000D03*
X117650000Y-105620000D03*
X120190000Y-105620000D03*
X122730000Y-105620000D03*
X125270000Y-105620000D03*
X127810000Y-105620000D03*
X130350000Y-105620000D03*
X132890000Y-105620000D03*
X135430000Y-105620000D03*
X137970000Y-105620000D03*
X140510000Y-105620000D03*
X140510000Y-103080000D03*
X140510000Y-100540000D03*
X140510000Y-98000000D03*
X140510000Y-95460000D03*
X140510000Y-92920000D03*
X140510000Y-90380000D03*
X137970000Y-90380000D03*
X135430000Y-90380000D03*
X132890000Y-90380000D03*
X130350000Y-90380000D03*
X127810000Y-90380000D03*
X125270000Y-90380000D03*
X122730000Y-90380000D03*
X120190000Y-90380000D03*
X117650000Y-90380000D03*
X115110000Y-90380000D03*
X112570000Y-90380000D03*
X110030000Y-90380000D03*
X107490000Y-90380000D03*
X110030000Y-92920000D03*
X135430000Y-92920000D03*
X132890000Y-92920000D03*
X135430000Y-95460000D03*
X132890000Y-95460000D03*
X135430000Y-98000000D03*
X132890000Y-98000000D03*
X135430000Y-100540000D03*
X132890000Y-100540000D03*
X135430000Y-103080000D03*
X132890000Y-103080000D03*
%TD*%
D25*
%TO.C,H4*%
X175000000Y-122000000D03*
%TD*%
D21*
%TO.C,servo3*%
X163600000Y-96650000D03*
D22*
X165600000Y-96650000D03*
X167600000Y-96650000D03*
%TD*%
D43*
%TO.C,R14*%
X154800000Y-95525000D03*
X154800000Y-97525000D03*
%TD*%
D21*
%TO.C,servo9*%
X172600000Y-91000000D03*
D22*
X174600000Y-91000000D03*
X176600000Y-91000000D03*
%TD*%
D25*
%TO.C,H3*%
X109000000Y-122000000D03*
%TD*%
D26*
%TO.C,C19*%
X156810000Y-104137500D03*
X156810000Y-102062500D03*
%TD*%
D24*
%TO.C,button1*%
X106750000Y-116500000D03*
X106750000Y-110000000D03*
X111250000Y-116500000D03*
X111250000Y-110000000D03*
%TD*%
D27*
%TO.C,J2*%
X137790000Y-77000000D03*
D28*
X135250000Y-77000000D03*
X132710000Y-77000000D03*
X130170000Y-77000000D03*
%TD*%
D27*
%TO.C,S3*%
X128700000Y-84300000D03*
D28*
X128700000Y-81760000D03*
%TD*%
D44*
%TO.C,U5*%
X158075000Y-87700000D03*
X158075000Y-86750000D03*
X158075000Y-85800000D03*
X155800000Y-85800000D03*
X155800000Y-87700000D03*
%TD*%
D32*
%TO.C,C5*%
X120236218Y-79125002D03*
X122311218Y-79125002D03*
%TD*%
D45*
%TO.C,D3*%
X145200000Y-112375000D03*
X145200000Y-114425000D03*
%TD*%
D26*
%TO.C,C12*%
X153822500Y-87425000D03*
X153822500Y-85350000D03*
%TD*%
D21*
%TO.C,servo12*%
X163600000Y-91050000D03*
D22*
X165600000Y-91050000D03*
X167600000Y-91050000D03*
%TD*%
D46*
%TO.C,U8*%
X158152500Y-111669600D03*
X156247500Y-111669600D03*
X157200000Y-113600000D03*
%TD*%
D32*
%TO.C,C4*%
X118136218Y-71625002D03*
X120211218Y-71625002D03*
%TD*%
D21*
%TO.C,servo8*%
X172600000Y-113450000D03*
D22*
X174600000Y-113450000D03*
X176600000Y-113450000D03*
%TD*%
D32*
%TO.C,C10*%
X139400000Y-113000000D03*
X141475000Y-113000000D03*
%TD*%
D29*
%TO.C,C22*%
X147200000Y-98325000D03*
X147200000Y-100400000D03*
%TD*%
D33*
%TO.C,C1*%
X109437500Y-86450000D03*
X107362500Y-86450000D03*
%TD*%
D32*
%TO.C,C9*%
X110037500Y-81200000D03*
X107962500Y-81200000D03*
%TD*%
D21*
%TO.C,servo6*%
X163600000Y-85400000D03*
D22*
X165600000Y-85400000D03*
X167600000Y-85400000D03*
%TD*%
D21*
%TO.C,servo7*%
X172600000Y-107800000D03*
D22*
X174600000Y-107800000D03*
X176600000Y-107800000D03*
%TD*%
D27*
%TO.C,GND*%
X141500000Y-73670000D03*
D28*
X141500000Y-76210000D03*
X141500000Y-78750000D03*
%TD*%
D29*
%TO.C,C6*%
X124573718Y-72187502D03*
X124573718Y-74262502D03*
%TD*%
D47*
%TO.C,L1*%
X115673718Y-72972502D03*
X115673718Y-74877502D03*
%TD*%
%LPD*%
M02*
