%TF.GenerationSoftware,KiCad,Pcbnew,8.0.7*%
%TF.CreationDate,2025-01-15T19:07:21+07:00*%
%TF.ProjectId,Teensy4.0,5465656e-7379-4342-9e30-2e6b69636164,rev?*%
%TF.SameCoordinates,Original*%
%TF.FileFunction,Copper,L3,Inr*%
%TF.FilePolarity,Positive*%
%FSLAX46Y46*%
G04 Gerber Fmt 4.6, Leading zero omitted, Abs format (unit mm)*
G04 Created by KiCad (PCBNEW 8.0.7) date 2025-01-15 19:07:21*
%MOMM*%
%LPD*%
G01*
G04 APERTURE LIST*
G04 Aperture macros list*
%AMRoundRect*
0 Rectangle with rounded corners*
0 $1 Rounding radius*
0 $2 $3 $4 $5 $6 $7 $8 $9 X,Y pos of 4 corners*
0 Add a 4 corners polygon primitive as box body*
4,1,4,$2,$3,$4,$5,$6,$7,$8,$9,$2,$3,0*
0 Add four circle primitives for the rounded corners*
1,1,$1+$1,$2,$3*
1,1,$1+$1,$4,$5*
1,1,$1+$1,$6,$7*
1,1,$1+$1,$8,$9*
0 Add four rect primitives between the rounded corners*
20,1,$1+$1,$2,$3,$4,$5,0*
20,1,$1+$1,$4,$5,$6,$7,0*
20,1,$1+$1,$6,$7,$8,$9,0*
20,1,$1+$1,$8,$9,$2,$3,0*%
G04 Aperture macros list end*
%TA.AperFunction,ComponentPad*%
%ADD10C,0.508000*%
%TD*%
%TA.AperFunction,ComponentPad*%
%ADD11RoundRect,0.250000X-0.350000X-0.625000X0.350000X-0.625000X0.350000X0.625000X-0.350000X0.625000X0*%
%TD*%
%TA.AperFunction,ComponentPad*%
%ADD12O,1.200000X1.750000*%
%TD*%
%TA.AperFunction,ComponentPad*%
%ADD13R,2.000000X2.000000*%
%TD*%
%TA.AperFunction,ComponentPad*%
%ADD14C,2.000000*%
%TD*%
%TA.AperFunction,ComponentPad*%
%ADD15R,1.700000X1.700000*%
%TD*%
%TA.AperFunction,ComponentPad*%
%ADD16O,1.700000X1.700000*%
%TD*%
%TA.AperFunction,ComponentPad*%
%ADD17C,1.700000*%
%TD*%
%TA.AperFunction,ComponentPad*%
%ADD18R,2.600000X2.600000*%
%TD*%
%TA.AperFunction,ComponentPad*%
%ADD19C,2.600000*%
%TD*%
%TA.AperFunction,ComponentPad*%
%ADD20C,1.600000*%
%TD*%
%TA.AperFunction,ViaPad*%
%ADD21C,1.000000*%
%TD*%
%TA.AperFunction,ViaPad*%
%ADD22C,0.600000*%
%TD*%
G04 APERTURE END LIST*
D10*
%TO.N,N/C*%
%TO.C,U4*%
X120130081Y-75743701D03*
X120130081Y-74956301D03*
X120917481Y-75743701D03*
X120917481Y-74956301D03*
%TD*%
D11*
%TO.N,GND*%
%TO.C,servo1*%
X172600000Y-102250000D03*
D12*
%TO.N,VCC*%
X174600000Y-102250000D03*
%TO.N,Net-(IC2-A2)*%
X176600000Y-102250000D03*
%TD*%
D13*
%TO.N,+5V*%
%TO.C,BZ1*%
X148000000Y-120000000D03*
D14*
%TO.N,Net-(BZ1--)*%
X155600000Y-120000000D03*
%TD*%
D15*
%TO.N,Net-(J1-Pin_1)*%
%TO.C,J1*%
X137790000Y-74250000D03*
D16*
%TO.N,Net-(J1-Pin_2)*%
X135250000Y-74250000D03*
%TO.N,Net-(J1-Pin_3)*%
X132710000Y-74250000D03*
%TO.N,Net-(J1-Pin_4)*%
X130170000Y-74250000D03*
%TD*%
D11*
%TO.N,GND*%
%TO.C,servo13*%
X172600000Y-96650000D03*
D12*
%TO.N,VCC*%
X174600000Y-96650000D03*
%TO.N,Net-(IC2-A2)*%
X176600000Y-96650000D03*
%TD*%
D15*
%TO.N,GND*%
%TO.C,U2*%
X115610500Y-112175000D03*
D17*
%TO.N,+3V3*%
X118150500Y-112175000D03*
%TO.N,/NRF_CE*%
X115610500Y-114715000D03*
%TO.N,/NRF_CSN*%
X118150500Y-114715000D03*
%TO.N,/NRF_SCK*%
X115610500Y-117255000D03*
%TO.N,/NRF_MOSI*%
X118150500Y-117255000D03*
%TO.N,/NRF_MISO*%
X115610500Y-119795000D03*
%TO.N,unconnected-(U2-IRQ-Pad8)*%
X118150500Y-119795000D03*
%TD*%
D11*
%TO.N,GND*%
%TO.C,servo11*%
X172600000Y-85400000D03*
D12*
%TO.N,VCC*%
X174600000Y-85400000D03*
%TO.N,Net-(IC2-A2)*%
X176600000Y-85400000D03*
%TD*%
D11*
%TO.N,GND*%
%TO.C,servo5*%
X163600000Y-107800000D03*
D12*
%TO.N,VCC*%
X165600000Y-107800000D03*
%TO.N,Net-(IC2-A2)*%
X167600000Y-107800000D03*
%TD*%
D11*
%TO.N,GND*%
%TO.C,servo4*%
X163600000Y-119250000D03*
D12*
%TO.N,VCC*%
X165600000Y-119250000D03*
%TO.N,Net-(IC2-A2)*%
X167600000Y-119250000D03*
%TD*%
D15*
%TO.N,+5V*%
%TO.C,5V*%
X144250000Y-73630000D03*
D16*
X144250000Y-76170000D03*
X144250000Y-78710000D03*
%TD*%
D11*
%TO.N,GND*%
%TO.C,servo2*%
X163600000Y-113450000D03*
D12*
%TO.N,VCC*%
X165600000Y-113450000D03*
%TO.N,Net-(IC2-A2)*%
X167600000Y-113450000D03*
%TD*%
D15*
%TO.N,/serial_rx4*%
%TO.C,S4*%
X125800000Y-84300000D03*
D16*
%TO.N,/serial_tx4*%
X125800000Y-81760000D03*
%TD*%
D18*
%TO.N,VCC*%
%TO.C,Main-Power1*%
X167545000Y-75695000D03*
D19*
%TO.N,GND*%
X162465000Y-75695000D03*
%TD*%
D11*
%TO.N,GND*%
%TO.C,servo10*%
X163600000Y-102250000D03*
D12*
%TO.N,VCC*%
X165600000Y-102250000D03*
%TO.N,Net-(IC2-A2)*%
X167600000Y-102250000D03*
%TD*%
D15*
%TO.N,/serial_rx2*%
%TO.C,S2*%
X131600000Y-84275000D03*
D16*
%TO.N,/serial_tx2*%
X131600000Y-81735000D03*
%TD*%
D20*
%TO.N,GND*%
%TO.C,U1*%
X107490000Y-105620000D03*
%TO.N,/servo_rx*%
X110030000Y-105620000D03*
%TO.N,/servo_tx*%
X112570000Y-105620000D03*
%TO.N,/servo_dir*%
X115110000Y-105620000D03*
%TO.N,/button*%
X117650000Y-105620000D03*
%TO.N,/buzzer*%
X120190000Y-105620000D03*
%TO.N,unconnected-(U1-5_IN2-Pad7)*%
X122730000Y-105620000D03*
%TO.N,unconnected-(U1-6_OUT1D-Pad8)*%
X125270000Y-105620000D03*
%TO.N,/serial_rx2*%
X127810000Y-105620000D03*
%TO.N,/serial_tx2*%
X130350000Y-105620000D03*
%TO.N,/NRF_CE*%
X132890000Y-105620000D03*
%TO.N,/NRF_CSN*%
X135430000Y-105620000D03*
%TO.N,/NRF_MOSI*%
X137970000Y-105620000D03*
%TO.N,/NRF_MISO*%
X140510000Y-105620000D03*
%TO.N,unconnected-(U1-VBAT-Pad15)*%
X140510000Y-103080000D03*
%TO.N,unconnected-(U1-3V3-Pad16)*%
X140510000Y-100540000D03*
%TO.N,GND*%
X140510000Y-98000000D03*
%TO.N,unconnected-(U1-PROGRAM-Pad18)*%
X140510000Y-95460000D03*
%TO.N,unconnected-(U1-ON_OFF-Pad19)*%
X140510000Y-92920000D03*
%TO.N,/NRF_SCK*%
X140510000Y-90380000D03*
%TO.N,/serial_tx3*%
X137970000Y-90380000D03*
%TO.N,/serial_rx3*%
X135430000Y-90380000D03*
%TO.N,/serial_rx4*%
X132890000Y-90380000D03*
%TO.N,/serial_tx4*%
X130350000Y-90380000D03*
%TO.N,/SDA*%
X127810000Y-90380000D03*
%TO.N,/SCL*%
X125270000Y-90380000D03*
%TO.N,/ICM_INT*%
X122730000Y-90380000D03*
%TO.N,unconnected-(U1-21_A7_RX5_BCLK1-Pad28)*%
X120190000Y-90380000D03*
%TO.N,unconnected-(U1-22_A8_CTX1-Pad29)*%
X117650000Y-90380000D03*
%TO.N,unconnected-(U1-23_A9_CRX1_MCLK1-Pad30)*%
X115110000Y-90380000D03*
%TO.N,+3V3*%
X112570000Y-90380000D03*
%TO.N,GND*%
X110030000Y-90380000D03*
%TO.N,+5V*%
X107490000Y-90380000D03*
%TO.N,unconnected-(U1-VUSB-Pad34)*%
X110030000Y-92920000D03*
%TO.N,Net-(J1-Pin_1)*%
X135430000Y-92920000D03*
%TO.N,Net-(J1-Pin_2)*%
X132890000Y-92920000D03*
%TO.N,Net-(J1-Pin_3)*%
X135430000Y-95460000D03*
%TO.N,Net-(J1-Pin_4)*%
X132890000Y-95460000D03*
%TO.N,Net-(J2-Pin_1)*%
X135430000Y-98000000D03*
%TO.N,Net-(J2-Pin_2)*%
X132890000Y-98000000D03*
%TO.N,Net-(J2-Pin_3)*%
X135430000Y-100540000D03*
%TO.N,Net-(J2-Pin_4)*%
X132890000Y-100540000D03*
%TO.N,unconnected-(U1-32_OUT1B-Pad43)*%
X135430000Y-103080000D03*
%TO.N,unconnected-(U1-33_MCLK2-Pad44)*%
X132890000Y-103080000D03*
%TD*%
D11*
%TO.N,GND*%
%TO.C,servo3*%
X163600000Y-96650000D03*
D12*
%TO.N,VCC*%
X165600000Y-96650000D03*
%TO.N,Net-(IC2-A2)*%
X167600000Y-96650000D03*
%TD*%
D11*
%TO.N,GND*%
%TO.C,servo9*%
X172600000Y-91000000D03*
D12*
%TO.N,VCC*%
X174600000Y-91000000D03*
%TO.N,Net-(IC2-A2)*%
X176600000Y-91000000D03*
%TD*%
D14*
%TO.N,/button*%
%TO.C,button1*%
X106750000Y-116500000D03*
X106750000Y-110000000D03*
%TO.N,GND*%
X111250000Y-116500000D03*
X111250000Y-110000000D03*
%TD*%
D15*
%TO.N,Net-(J2-Pin_1)*%
%TO.C,J2*%
X137790000Y-77000000D03*
D16*
%TO.N,Net-(J2-Pin_2)*%
X135250000Y-77000000D03*
%TO.N,Net-(J2-Pin_3)*%
X132710000Y-77000000D03*
%TO.N,Net-(J2-Pin_4)*%
X130170000Y-77000000D03*
%TD*%
D15*
%TO.N,/serial_rx3*%
%TO.C,S3*%
X128700000Y-84300000D03*
D16*
%TO.N,/serial_tx3*%
X128700000Y-81760000D03*
%TD*%
D11*
%TO.N,GND*%
%TO.C,servo12*%
X163600000Y-91050000D03*
D12*
%TO.N,VCC*%
X165600000Y-91050000D03*
%TO.N,Net-(IC2-A2)*%
X167600000Y-91050000D03*
%TD*%
D11*
%TO.N,GND*%
%TO.C,servo8*%
X172600000Y-113450000D03*
D12*
%TO.N,VCC*%
X174600000Y-113450000D03*
%TO.N,Net-(IC2-A2)*%
X176600000Y-113450000D03*
%TD*%
D11*
%TO.N,GND*%
%TO.C,servo6*%
X163600000Y-85400000D03*
D12*
%TO.N,VCC*%
X165600000Y-85400000D03*
%TO.N,Net-(IC2-A2)*%
X167600000Y-85400000D03*
%TD*%
D11*
%TO.N,GND*%
%TO.C,servo7*%
X172600000Y-107800000D03*
D12*
%TO.N,VCC*%
X174600000Y-107800000D03*
%TO.N,Net-(IC2-A2)*%
X176600000Y-107800000D03*
%TD*%
D15*
%TO.N,GND*%
%TO.C,GND*%
X141500000Y-73670000D03*
D16*
X141500000Y-76210000D03*
X141500000Y-78750000D03*
%TD*%
D21*
%TO.N,+5V*%
X157461715Y-82005718D03*
X129300000Y-71800000D03*
D22*
X139900000Y-111400000D03*
X121673718Y-72925002D03*
D21*
X116900000Y-71625002D03*
D22*
X112973718Y-78273718D03*
D21*
%TO.N,GND*%
X171750000Y-70500000D03*
D22*
X148800000Y-94200000D03*
D21*
X112500000Y-74500000D03*
X138587499Y-119031000D03*
D22*
X154900000Y-112100000D03*
D21*
X151178000Y-97422000D03*
X121800000Y-103100000D03*
X111750000Y-70250000D03*
X109000000Y-113300000D03*
X158800000Y-91400000D03*
X128300000Y-120700000D03*
X167300000Y-125100000D03*
X106500000Y-78000000D03*
X115500000Y-85000000D03*
X175100000Y-80800000D03*
D22*
X134400000Y-113000000D03*
X135600500Y-120762000D03*
D21*
X115500000Y-93900000D03*
X128900000Y-102300000D03*
X111250000Y-125500000D03*
X159900000Y-105300000D03*
X178250000Y-77750000D03*
D22*
X120373718Y-80725002D03*
X138600000Y-117200000D03*
X142800000Y-115200000D03*
X122073718Y-80725002D03*
D21*
X105250000Y-119000000D03*
X155900000Y-70800000D03*
X147500000Y-111500000D03*
X147900000Y-73500000D03*
X107700000Y-95100000D03*
X124300000Y-76100000D03*
X178500000Y-118000000D03*
X116500000Y-124300000D03*
X118200000Y-78700000D03*
X122600000Y-71300000D03*
X159000000Y-116200000D03*
D22*
%TO.N,+3V3*%
X138400000Y-109000000D03*
X137400000Y-110600000D03*
%TO.N,+1V8*%
X143400000Y-96200000D03*
X144700000Y-91100000D03*
%TO.N,Net-(J2-Pin_1)*%
X137900000Y-87500000D03*
X138200000Y-94300000D03*
%TO.N,/SDA*%
X150000000Y-94200000D03*
%TO.N,/SCL*%
X150000000Y-93200000D03*
%TO.N,/buzzer*%
X133700000Y-109600000D03*
X125400000Y-107600000D03*
%TO.N,/serial_rx2*%
X122400000Y-87300000D03*
%TO.N,/servo_tx*%
X134981250Y-119181250D03*
%TO.N,/NRF_SCK*%
X130700000Y-113100000D03*
%TO.N,/servo_dir*%
X134912500Y-118250000D03*
%TO.N,/servo_rx*%
X134912500Y-120050000D03*
%TO.N,/ICM_INT*%
X150800000Y-93000000D03*
%TO.N,/INT_1V8*%
X153200000Y-105500000D03*
X151600000Y-100200000D03*
%TD*%
%TA.AperFunction,Conductor*%
%TO.N,GND*%
G36*
X175002702Y-69500617D02*
G01*
X175386771Y-69517386D01*
X175397506Y-69518326D01*
X175775971Y-69568152D01*
X175786597Y-69570025D01*
X176159284Y-69652648D01*
X176169710Y-69655442D01*
X176533765Y-69770227D01*
X176543911Y-69773920D01*
X176896578Y-69920000D01*
X176906369Y-69924566D01*
X177244942Y-70100816D01*
X177254310Y-70106224D01*
X177576244Y-70311318D01*
X177585105Y-70317523D01*
X177887930Y-70549889D01*
X177896217Y-70556843D01*
X178177635Y-70814715D01*
X178185284Y-70822364D01*
X178443156Y-71103782D01*
X178450110Y-71112069D01*
X178682476Y-71414894D01*
X178688681Y-71423755D01*
X178893775Y-71745689D01*
X178899183Y-71755057D01*
X179075430Y-72093623D01*
X179080002Y-72103427D01*
X179226075Y-72456078D01*
X179229775Y-72466244D01*
X179344554Y-72830278D01*
X179347354Y-72840727D01*
X179429971Y-73213389D01*
X179431849Y-73224042D01*
X179481671Y-73602473D01*
X179482614Y-73613249D01*
X179499382Y-73997297D01*
X179499500Y-74002706D01*
X179499500Y-121997293D01*
X179499382Y-122002702D01*
X179482614Y-122386750D01*
X179481671Y-122397526D01*
X179431849Y-122775957D01*
X179429971Y-122786610D01*
X179347354Y-123159272D01*
X179344554Y-123169721D01*
X179229775Y-123533755D01*
X179226075Y-123543921D01*
X179080002Y-123896572D01*
X179075430Y-123906376D01*
X178899183Y-124244942D01*
X178893775Y-124254310D01*
X178688681Y-124576244D01*
X178682476Y-124585105D01*
X178450110Y-124887930D01*
X178443156Y-124896217D01*
X178185284Y-125177635D01*
X178177635Y-125185284D01*
X177896217Y-125443156D01*
X177887930Y-125450110D01*
X177585105Y-125682476D01*
X177576244Y-125688681D01*
X177254310Y-125893775D01*
X177244942Y-125899183D01*
X176906376Y-126075430D01*
X176896572Y-126080002D01*
X176543921Y-126226075D01*
X176533755Y-126229775D01*
X176169721Y-126344554D01*
X176159272Y-126347354D01*
X175786610Y-126429971D01*
X175775957Y-126431849D01*
X175397526Y-126481671D01*
X175386750Y-126482614D01*
X175002703Y-126499382D01*
X174997294Y-126499500D01*
X109002706Y-126499500D01*
X108997297Y-126499382D01*
X108613249Y-126482614D01*
X108602473Y-126481671D01*
X108224042Y-126431849D01*
X108213389Y-126429971D01*
X107840727Y-126347354D01*
X107830278Y-126344554D01*
X107466244Y-126229775D01*
X107456078Y-126226075D01*
X107103427Y-126080002D01*
X107093623Y-126075430D01*
X106755057Y-125899183D01*
X106745689Y-125893775D01*
X106423755Y-125688681D01*
X106414894Y-125682476D01*
X106112069Y-125450110D01*
X106103782Y-125443156D01*
X105822364Y-125185284D01*
X105814715Y-125177635D01*
X105556843Y-124896217D01*
X105549889Y-124887930D01*
X105317523Y-124585105D01*
X105311318Y-124576244D01*
X105106224Y-124254310D01*
X105100816Y-124244942D01*
X104924569Y-123906376D01*
X104919997Y-123896572D01*
X104773920Y-123543911D01*
X104770224Y-123533755D01*
X104655442Y-123169710D01*
X104652648Y-123159284D01*
X104570025Y-122786597D01*
X104568152Y-122775971D01*
X104518326Y-122397506D01*
X104517386Y-122386771D01*
X104500618Y-122002702D01*
X104500500Y-121997293D01*
X104500500Y-121878711D01*
X107149500Y-121878711D01*
X107149500Y-122121288D01*
X107181161Y-122361785D01*
X107243947Y-122596104D01*
X107336773Y-122820205D01*
X107336776Y-122820212D01*
X107458064Y-123030289D01*
X107458066Y-123030292D01*
X107458067Y-123030293D01*
X107605733Y-123222736D01*
X107605739Y-123222743D01*
X107777256Y-123394260D01*
X107777262Y-123394265D01*
X107969711Y-123541936D01*
X108179788Y-123663224D01*
X108403900Y-123756054D01*
X108638211Y-123818838D01*
X108818586Y-123842584D01*
X108878711Y-123850500D01*
X108878712Y-123850500D01*
X109121289Y-123850500D01*
X109169388Y-123844167D01*
X109361789Y-123818838D01*
X109596100Y-123756054D01*
X109820212Y-123663224D01*
X110030289Y-123541936D01*
X110222738Y-123394265D01*
X110394265Y-123222738D01*
X110541936Y-123030289D01*
X110663224Y-122820212D01*
X110756054Y-122596100D01*
X110818838Y-122361789D01*
X110850500Y-122121288D01*
X110850500Y-121878712D01*
X110850500Y-121878711D01*
X173149500Y-121878711D01*
X173149500Y-122121288D01*
X173181161Y-122361785D01*
X173243947Y-122596104D01*
X173336773Y-122820205D01*
X173336776Y-122820212D01*
X173458064Y-123030289D01*
X173458066Y-123030292D01*
X173458067Y-123030293D01*
X173605733Y-123222736D01*
X173605739Y-123222743D01*
X173777256Y-123394260D01*
X173777262Y-123394265D01*
X173969711Y-123541936D01*
X174179788Y-123663224D01*
X174403900Y-123756054D01*
X174638211Y-123818838D01*
X174818586Y-123842584D01*
X174878711Y-123850500D01*
X174878712Y-123850500D01*
X175121289Y-123850500D01*
X175169388Y-123844167D01*
X175361789Y-123818838D01*
X175596100Y-123756054D01*
X175820212Y-123663224D01*
X176030289Y-123541936D01*
X176222738Y-123394265D01*
X176394265Y-123222738D01*
X176541936Y-123030289D01*
X176663224Y-122820212D01*
X176756054Y-122596100D01*
X176818838Y-122361789D01*
X176850500Y-122121288D01*
X176850500Y-121878712D01*
X176818838Y-121638211D01*
X176756054Y-121403900D01*
X176663224Y-121179788D01*
X176541936Y-120969711D01*
X176450525Y-120850582D01*
X176394266Y-120777263D01*
X176394260Y-120777256D01*
X176222743Y-120605739D01*
X176222736Y-120605733D01*
X176030293Y-120458067D01*
X176030292Y-120458066D01*
X176030289Y-120458064D01*
X175820212Y-120336776D01*
X175820205Y-120336773D01*
X175596104Y-120243947D01*
X175478944Y-120212554D01*
X175361789Y-120181162D01*
X175361788Y-120181161D01*
X175361785Y-120181161D01*
X175121289Y-120149500D01*
X175121288Y-120149500D01*
X174878712Y-120149500D01*
X174878711Y-120149500D01*
X174638214Y-120181161D01*
X174403895Y-120243947D01*
X174179794Y-120336773D01*
X174179785Y-120336777D01*
X173969706Y-120458067D01*
X173777263Y-120605733D01*
X173777256Y-120605739D01*
X173605739Y-120777256D01*
X173605733Y-120777263D01*
X173458067Y-120969706D01*
X173336777Y-121179785D01*
X173336773Y-121179794D01*
X173243947Y-121403895D01*
X173181161Y-121638214D01*
X173149500Y-121878711D01*
X110850500Y-121878711D01*
X110818838Y-121638211D01*
X110756054Y-121403900D01*
X110663224Y-121179788D01*
X110541936Y-120969711D01*
X110450525Y-120850582D01*
X110394266Y-120777263D01*
X110394260Y-120777256D01*
X110222743Y-120605739D01*
X110222736Y-120605733D01*
X110030293Y-120458067D01*
X110030292Y-120458066D01*
X110030289Y-120458064D01*
X109820212Y-120336776D01*
X109820205Y-120336773D01*
X109596104Y-120243947D01*
X109478944Y-120212554D01*
X109361789Y-120181162D01*
X109361788Y-120181161D01*
X109361785Y-120181161D01*
X109121289Y-120149500D01*
X109121288Y-120149500D01*
X108878712Y-120149500D01*
X108878711Y-120149500D01*
X108638214Y-120181161D01*
X108403895Y-120243947D01*
X108179794Y-120336773D01*
X108179785Y-120336777D01*
X107969706Y-120458067D01*
X107777263Y-120605733D01*
X107777256Y-120605739D01*
X107605739Y-120777256D01*
X107605733Y-120777263D01*
X107458067Y-120969706D01*
X107336777Y-121179785D01*
X107336773Y-121179794D01*
X107243947Y-121403895D01*
X107181161Y-121638214D01*
X107149500Y-121878711D01*
X104500500Y-121878711D01*
X104500500Y-119795000D01*
X114554917Y-119795000D01*
X114575199Y-120000932D01*
X114575200Y-120000934D01*
X114635268Y-120198954D01*
X114732815Y-120381450D01*
X114732817Y-120381452D01*
X114864089Y-120541410D01*
X114960709Y-120620702D01*
X115024050Y-120672685D01*
X115206546Y-120770232D01*
X115404566Y-120830300D01*
X115404565Y-120830300D01*
X115423029Y-120832118D01*
X115610500Y-120850583D01*
X115816434Y-120830300D01*
X116014454Y-120770232D01*
X116196950Y-120672685D01*
X116356910Y-120541410D01*
X116488185Y-120381450D01*
X116585732Y-120198954D01*
X116645800Y-120000934D01*
X116666083Y-119795000D01*
X117094917Y-119795000D01*
X117115199Y-120000932D01*
X117115200Y-120000934D01*
X117175268Y-120198954D01*
X117272815Y-120381450D01*
X117272817Y-120381452D01*
X117404089Y-120541410D01*
X117500709Y-120620702D01*
X117564050Y-120672685D01*
X117746546Y-120770232D01*
X117944566Y-120830300D01*
X117944565Y-120830300D01*
X117963029Y-120832118D01*
X118150500Y-120850583D01*
X118356434Y-120830300D01*
X118554454Y-120770232D01*
X118736950Y-120672685D01*
X118896910Y-120541410D01*
X119028185Y-120381450D01*
X119125732Y-120198954D01*
X119185800Y-120000934D01*
X119206083Y-119795000D01*
X119185800Y-119589066D01*
X119125732Y-119391046D01*
X119028185Y-119208550D01*
X118976202Y-119145209D01*
X118896910Y-119048589D01*
X118736952Y-118917317D01*
X118736953Y-118917317D01*
X118736950Y-118917315D01*
X118554454Y-118819768D01*
X118356434Y-118759700D01*
X118356432Y-118759699D01*
X118356434Y-118759699D01*
X118150500Y-118739417D01*
X117944567Y-118759699D01*
X117746543Y-118819769D01*
X117679794Y-118855448D01*
X117564050Y-118917315D01*
X117564048Y-118917316D01*
X117564047Y-118917317D01*
X117404089Y-119048589D01*
X117272817Y-119208547D01*
X117175269Y-119391043D01*
X117115199Y-119589067D01*
X117094917Y-119795000D01*
X116666083Y-119795000D01*
X116645800Y-119589066D01*
X116585732Y-119391046D01*
X116488185Y-119208550D01*
X116436202Y-119145209D01*
X116356910Y-119048589D01*
X116196952Y-118917317D01*
X116196953Y-118917317D01*
X116196950Y-118917315D01*
X116014454Y-118819768D01*
X115816434Y-118759700D01*
X115816432Y-118759699D01*
X115816434Y-118759699D01*
X115610500Y-118739417D01*
X115404567Y-118759699D01*
X115206543Y-118819769D01*
X115139794Y-118855448D01*
X115024050Y-118917315D01*
X115024048Y-118917316D01*
X115024047Y-118917317D01*
X114864089Y-119048589D01*
X114732817Y-119208547D01*
X114635269Y-119391043D01*
X114575199Y-119589067D01*
X114554917Y-119795000D01*
X104500500Y-119795000D01*
X104500500Y-116499999D01*
X105544357Y-116499999D01*
X105544357Y-116500000D01*
X105564884Y-116721535D01*
X105564885Y-116721537D01*
X105625769Y-116935523D01*
X105625775Y-116935538D01*
X105724938Y-117134683D01*
X105724943Y-117134691D01*
X105859020Y-117312238D01*
X106011088Y-117450866D01*
X106022130Y-117460932D01*
X106023437Y-117462123D01*
X106023439Y-117462125D01*
X106212595Y-117579245D01*
X106212596Y-117579245D01*
X106212599Y-117579247D01*
X106420060Y-117659618D01*
X106638757Y-117700500D01*
X106638759Y-117700500D01*
X106861241Y-117700500D01*
X106861243Y-117700500D01*
X107079940Y-117659618D01*
X107287401Y-117579247D01*
X107476562Y-117462124D01*
X107640981Y-117312236D01*
X107684204Y-117255000D01*
X114554917Y-117255000D01*
X114575199Y-117460932D01*
X114575561Y-117462124D01*
X114635268Y-117658954D01*
X114732815Y-117841450D01*
X114732817Y-117841452D01*
X114864089Y-118001410D01*
X114960709Y-118080702D01*
X115024050Y-118132685D01*
X115206546Y-118230232D01*
X115404566Y-118290300D01*
X115404565Y-118290300D01*
X115423029Y-118292118D01*
X115610500Y-118310583D01*
X115816434Y-118290300D01*
X116014454Y-118230232D01*
X116196950Y-118132685D01*
X116356910Y-118001410D01*
X116488185Y-117841450D01*
X116585732Y-117658954D01*
X116645800Y-117460934D01*
X116666083Y-117255000D01*
X117094917Y-117255000D01*
X117115199Y-117460932D01*
X117115561Y-117462124D01*
X117175268Y-117658954D01*
X117272815Y-117841450D01*
X117272817Y-117841452D01*
X117404089Y-118001410D01*
X117500709Y-118080702D01*
X117564050Y-118132685D01*
X117746546Y-118230232D01*
X117944566Y-118290300D01*
X117944565Y-118290300D01*
X117963029Y-118292118D01*
X118150500Y-118310583D01*
X118356434Y-118290300D01*
X118489287Y-118250000D01*
X134406853Y-118250000D01*
X134427334Y-118392456D01*
X134487122Y-118523371D01*
X134487123Y-118523373D01*
X134581372Y-118632143D01*
X134598069Y-118642874D01*
X134643825Y-118695676D01*
X134653770Y-118764835D01*
X134624747Y-118828391D01*
X134624746Y-118828392D01*
X134555873Y-118907877D01*
X134555872Y-118907878D01*
X134496084Y-119038793D01*
X134475603Y-119181250D01*
X134496084Y-119323706D01*
X134555872Y-119454621D01*
X134555875Y-119454627D01*
X134591136Y-119495320D01*
X134620161Y-119558876D01*
X134610217Y-119628034D01*
X134586116Y-119660233D01*
X134587179Y-119661154D01*
X134487125Y-119776622D01*
X134487122Y-119776628D01*
X134427334Y-119907543D01*
X134406853Y-120050000D01*
X134427334Y-120192456D01*
X134450850Y-120243947D01*
X134487123Y-120323373D01*
X134581372Y-120432143D01*
X134702447Y-120509953D01*
X134702450Y-120509954D01*
X134702449Y-120509954D01*
X134840536Y-120550499D01*
X134840538Y-120550500D01*
X134840539Y-120550500D01*
X134984462Y-120550500D01*
X134984462Y-120550499D01*
X135122553Y-120509953D01*
X135243628Y-120432143D01*
X135337877Y-120323373D01*
X135397665Y-120192457D01*
X135418147Y-120050000D01*
X135397665Y-119907543D01*
X135337877Y-119776627D01*
X135337875Y-119776625D01*
X135337874Y-119776622D01*
X135302612Y-119735927D01*
X135273588Y-119672371D01*
X135283532Y-119603213D01*
X135307635Y-119571018D01*
X135306570Y-119570095D01*
X135312376Y-119563394D01*
X135312378Y-119563393D01*
X135406627Y-119454623D01*
X135466415Y-119323707D01*
X135486897Y-119181250D01*
X135466415Y-119038793D01*
X135439678Y-118980247D01*
X146799500Y-118980247D01*
X146799500Y-121019752D01*
X146811131Y-121078229D01*
X146811132Y-121078230D01*
X146855447Y-121144552D01*
X146921769Y-121188867D01*
X146921770Y-121188868D01*
X146980247Y-121200499D01*
X146980250Y-121200500D01*
X146980252Y-121200500D01*
X149019750Y-121200500D01*
X149019751Y-121200499D01*
X149034568Y-121197552D01*
X149078229Y-121188868D01*
X149078229Y-121188867D01*
X149078231Y-121188867D01*
X149144552Y-121144552D01*
X149188867Y-121078231D01*
X149188867Y-121078229D01*
X149188868Y-121078229D01*
X149200499Y-121019752D01*
X149200500Y-121019750D01*
X149200500Y-119999999D01*
X154394357Y-119999999D01*
X154394357Y-120000000D01*
X154414884Y-120221535D01*
X154414885Y-120221537D01*
X154475769Y-120435523D01*
X154475775Y-120435538D01*
X154574938Y-120634683D01*
X154574943Y-120634691D01*
X154709020Y-120812238D01*
X154873437Y-120962123D01*
X154873439Y-120962125D01*
X155062595Y-121079245D01*
X155062596Y-121079245D01*
X155062599Y-121079247D01*
X155270060Y-121159618D01*
X155488757Y-121200500D01*
X155488759Y-121200500D01*
X155711241Y-121200500D01*
X155711243Y-121200500D01*
X155929940Y-121159618D01*
X156137401Y-121079247D01*
X156326562Y-120962124D01*
X156490981Y-120812236D01*
X156625058Y-120634689D01*
X156724229Y-120435528D01*
X156785115Y-120221536D01*
X156805643Y-120000000D01*
X156785115Y-119778464D01*
X156724229Y-119564472D01*
X156721443Y-119558876D01*
X156625061Y-119365316D01*
X156625056Y-119365308D01*
X156490979Y-119187761D01*
X156326562Y-119037876D01*
X156326560Y-119037874D01*
X156137404Y-118920754D01*
X156137398Y-118920752D01*
X156073901Y-118896153D01*
X164799500Y-118896153D01*
X164799500Y-119603846D01*
X164830261Y-119758489D01*
X164830264Y-119758501D01*
X164890602Y-119904172D01*
X164890609Y-119904185D01*
X164978210Y-120035288D01*
X164978213Y-120035292D01*
X165089707Y-120146786D01*
X165089711Y-120146789D01*
X165220814Y-120234390D01*
X165220827Y-120234397D01*
X165366498Y-120294735D01*
X165366503Y-120294737D01*
X165510455Y-120323371D01*
X165521153Y-120325499D01*
X165521156Y-120325500D01*
X165521158Y-120325500D01*
X165678844Y-120325500D01*
X165678845Y-120325499D01*
X165833497Y-120294737D01*
X165979179Y-120234394D01*
X166110289Y-120146789D01*
X166221789Y-120035289D01*
X166309394Y-119904179D01*
X166369737Y-119758497D01*
X166400500Y-119603842D01*
X166400500Y-118896158D01*
X166400500Y-118896155D01*
X166400499Y-118896153D01*
X166799500Y-118896153D01*
X166799500Y-119603846D01*
X166830261Y-119758489D01*
X166830264Y-119758501D01*
X166890602Y-119904172D01*
X166890609Y-119904185D01*
X166978210Y-120035288D01*
X166978213Y-120035292D01*
X167089707Y-120146786D01*
X167089711Y-120146789D01*
X167220814Y-120234390D01*
X167220827Y-120234397D01*
X167366498Y-120294735D01*
X167366503Y-120294737D01*
X167510455Y-120323371D01*
X167521153Y-120325499D01*
X167521156Y-120325500D01*
X167521158Y-120325500D01*
X167678844Y-120325500D01*
X167678845Y-120325499D01*
X167833497Y-120294737D01*
X167979179Y-120234394D01*
X168110289Y-120146789D01*
X168221789Y-120035289D01*
X168309394Y-119904179D01*
X168369737Y-119758497D01*
X168400500Y-119603842D01*
X168400500Y-118896158D01*
X168400500Y-118896155D01*
X168400499Y-118896153D01*
X168381195Y-118799105D01*
X168369737Y-118741503D01*
X168363881Y-118727366D01*
X168309397Y-118595827D01*
X168309390Y-118595814D01*
X168221789Y-118464711D01*
X168221786Y-118464707D01*
X168110292Y-118353213D01*
X168110288Y-118353210D01*
X167979185Y-118265609D01*
X167979172Y-118265602D01*
X167833501Y-118205264D01*
X167833489Y-118205261D01*
X167678845Y-118174500D01*
X167678842Y-118174500D01*
X167521158Y-118174500D01*
X167521155Y-118174500D01*
X167366510Y-118205261D01*
X167366498Y-118205264D01*
X167220827Y-118265602D01*
X167220814Y-118265609D01*
X167089711Y-118353210D01*
X167089707Y-118353213D01*
X166978213Y-118464707D01*
X166978210Y-118464711D01*
X166890609Y-118595814D01*
X166890602Y-118595827D01*
X166830264Y-118741498D01*
X166830261Y-118741510D01*
X166799500Y-118896153D01*
X166400499Y-118896153D01*
X166381195Y-118799105D01*
X166369737Y-118741503D01*
X166363881Y-118727366D01*
X166309397Y-118595827D01*
X166309390Y-118595814D01*
X166221789Y-118464711D01*
X166221786Y-118464707D01*
X166110292Y-118353213D01*
X166110288Y-118353210D01*
X165979185Y-118265609D01*
X165979172Y-118265602D01*
X165833501Y-118205264D01*
X165833489Y-118205261D01*
X165678845Y-118174500D01*
X165678842Y-118174500D01*
X165521158Y-118174500D01*
X165521155Y-118174500D01*
X165366510Y-118205261D01*
X165366498Y-118205264D01*
X165220827Y-118265602D01*
X165220814Y-118265609D01*
X165089711Y-118353210D01*
X165089707Y-118353213D01*
X164978213Y-118464707D01*
X164978210Y-118464711D01*
X164890609Y-118595814D01*
X164890602Y-118595827D01*
X164830264Y-118741498D01*
X164830261Y-118741510D01*
X164799500Y-118896153D01*
X156073901Y-118896153D01*
X155929940Y-118840382D01*
X155711243Y-118799500D01*
X155488757Y-118799500D01*
X155270060Y-118840382D01*
X155138864Y-118891207D01*
X155062601Y-118920752D01*
X155062595Y-118920754D01*
X154873439Y-119037874D01*
X154873437Y-119037876D01*
X154709020Y-119187761D01*
X154574943Y-119365308D01*
X154574938Y-119365316D01*
X154475775Y-119564461D01*
X154475769Y-119564476D01*
X154414885Y-119778462D01*
X154414884Y-119778464D01*
X154394357Y-119999999D01*
X149200500Y-119999999D01*
X149200500Y-118980249D01*
X149200499Y-118980247D01*
X149188868Y-118921770D01*
X149188867Y-118921769D01*
X149144552Y-118855447D01*
X149078230Y-118811132D01*
X149078229Y-118811131D01*
X149019752Y-118799500D01*
X149019748Y-118799500D01*
X146980252Y-118799500D01*
X146980247Y-118799500D01*
X146921770Y-118811131D01*
X146921769Y-118811132D01*
X146855447Y-118855447D01*
X146811132Y-118921769D01*
X146811131Y-118921770D01*
X146799500Y-118980247D01*
X135439678Y-118980247D01*
X135406627Y-118907877D01*
X135312378Y-118799107D01*
X135312375Y-118799105D01*
X135312375Y-118799104D01*
X135295679Y-118788375D01*
X135249923Y-118735572D01*
X135239979Y-118666413D01*
X135269001Y-118602860D01*
X135337877Y-118523373D01*
X135397665Y-118392457D01*
X135418147Y-118250000D01*
X135397665Y-118107543D01*
X135337877Y-117976627D01*
X135243628Y-117867857D01*
X135122553Y-117790047D01*
X135122551Y-117790046D01*
X135122549Y-117790045D01*
X135122550Y-117790045D01*
X134984463Y-117749500D01*
X134984461Y-117749500D01*
X134840539Y-117749500D01*
X134840536Y-117749500D01*
X134702449Y-117790045D01*
X134581373Y-117867856D01*
X134487123Y-117976626D01*
X134487122Y-117976628D01*
X134427334Y-118107543D01*
X134406853Y-118250000D01*
X118489287Y-118250000D01*
X118554454Y-118230232D01*
X118736950Y-118132685D01*
X118896910Y-118001410D01*
X119028185Y-117841450D01*
X119125732Y-117658954D01*
X119185800Y-117460934D01*
X119206083Y-117255000D01*
X119185800Y-117049066D01*
X119125732Y-116851046D01*
X119028185Y-116668550D01*
X118976202Y-116605209D01*
X118896910Y-116508589D01*
X118736952Y-116377317D01*
X118736953Y-116377317D01*
X118736950Y-116377315D01*
X118554454Y-116279768D01*
X118356434Y-116219700D01*
X118356432Y-116219699D01*
X118356434Y-116219699D01*
X118150500Y-116199417D01*
X117944567Y-116219699D01*
X117769192Y-116272898D01*
X117750852Y-116278462D01*
X117746543Y-116279769D01*
X117636398Y-116338643D01*
X117564050Y-116377315D01*
X117564048Y-116377316D01*
X117564047Y-116377317D01*
X117404089Y-116508589D01*
X117272817Y-116668547D01*
X117175269Y-116851043D01*
X117115199Y-117049067D01*
X117094917Y-117255000D01*
X116666083Y-117255000D01*
X116645800Y-117049066D01*
X116585732Y-116851046D01*
X116488185Y-116668550D01*
X116436202Y-116605209D01*
X116356910Y-116508589D01*
X116196952Y-116377317D01*
X116196953Y-116377317D01*
X116196950Y-116377315D01*
X116014454Y-116279768D01*
X115816434Y-116219700D01*
X115816432Y-116219699D01*
X115816434Y-116219699D01*
X115610500Y-116199417D01*
X115404567Y-116219699D01*
X115229192Y-116272898D01*
X115210852Y-116278462D01*
X115206543Y-116279769D01*
X115096398Y-116338643D01*
X115024050Y-116377315D01*
X115024048Y-116377316D01*
X115024047Y-116377317D01*
X114864089Y-116508589D01*
X114732817Y-116668547D01*
X114635269Y-116851043D01*
X114575199Y-117049067D01*
X114554917Y-117255000D01*
X107684204Y-117255000D01*
X107775058Y-117134689D01*
X107874229Y-116935528D01*
X107935115Y-116721536D01*
X107955643Y-116500000D01*
X107935115Y-116278464D01*
X107874229Y-116064472D01*
X107874224Y-116064461D01*
X107775061Y-115865316D01*
X107775056Y-115865308D01*
X107640979Y-115687761D01*
X107476562Y-115537876D01*
X107476560Y-115537874D01*
X107287404Y-115420754D01*
X107287398Y-115420752D01*
X107079940Y-115340382D01*
X106861243Y-115299500D01*
X106638757Y-115299500D01*
X106420060Y-115340382D01*
X106288864Y-115391207D01*
X106212601Y-115420752D01*
X106212595Y-115420754D01*
X106023439Y-115537874D01*
X106023437Y-115537876D01*
X105859020Y-115687761D01*
X105724943Y-115865308D01*
X105724938Y-115865316D01*
X105625775Y-116064461D01*
X105625769Y-116064476D01*
X105564885Y-116278462D01*
X105564884Y-116278464D01*
X105544357Y-116499999D01*
X104500500Y-116499999D01*
X104500500Y-114715000D01*
X114554917Y-114715000D01*
X114575199Y-114920932D01*
X114575200Y-114920934D01*
X114635268Y-115118954D01*
X114732815Y-115301450D01*
X114767469Y-115343677D01*
X114864089Y-115461410D01*
X114957262Y-115537874D01*
X115024050Y-115592685D01*
X115206546Y-115690232D01*
X115404566Y-115750300D01*
X115404565Y-115750300D01*
X115423029Y-115752118D01*
X115610500Y-115770583D01*
X115816434Y-115750300D01*
X116014454Y-115690232D01*
X116196950Y-115592685D01*
X116356910Y-115461410D01*
X116488185Y-115301450D01*
X116585732Y-115118954D01*
X116645800Y-114920934D01*
X116666083Y-114715000D01*
X117094917Y-114715000D01*
X117115199Y-114920932D01*
X117115200Y-114920934D01*
X117175268Y-115118954D01*
X117272815Y-115301450D01*
X117307469Y-115343677D01*
X117404089Y-115461410D01*
X117497262Y-115537874D01*
X117564050Y-115592685D01*
X117746546Y-115690232D01*
X117944566Y-115750300D01*
X117944565Y-115750300D01*
X117963029Y-115752118D01*
X118150500Y-115770583D01*
X118356434Y-115750300D01*
X118554454Y-115690232D01*
X118736950Y-115592685D01*
X118896910Y-115461410D01*
X119028185Y-115301450D01*
X119125732Y-115118954D01*
X119185800Y-114920934D01*
X119206083Y-114715000D01*
X119185800Y-114509066D01*
X119125732Y-114311046D01*
X119028185Y-114128550D01*
X118976202Y-114065209D01*
X118896910Y-113968589D01*
X118736952Y-113837317D01*
X118736953Y-113837317D01*
X118736950Y-113837315D01*
X118554454Y-113739768D01*
X118356434Y-113679700D01*
X118356432Y-113679699D01*
X118356434Y-113679699D01*
X118150500Y-113659417D01*
X117944567Y-113679699D01*
X117746543Y-113739769D01*
X117636398Y-113798643D01*
X117564050Y-113837315D01*
X117564048Y-113837316D01*
X117564047Y-113837317D01*
X117404089Y-113968589D01*
X117272817Y-114128547D01*
X117175269Y-114311043D01*
X117115199Y-114509067D01*
X117094917Y-114715000D01*
X116666083Y-114715000D01*
X116645800Y-114509066D01*
X116585732Y-114311046D01*
X116488185Y-114128550D01*
X116436202Y-114065209D01*
X116356910Y-113968589D01*
X116196952Y-113837317D01*
X116196953Y-113837317D01*
X116196950Y-113837315D01*
X116014454Y-113739768D01*
X115816434Y-113679700D01*
X115816432Y-113679699D01*
X115816434Y-113679699D01*
X115610500Y-113659417D01*
X115404567Y-113679699D01*
X115206543Y-113739769D01*
X115096398Y-113798643D01*
X115024050Y-113837315D01*
X115024048Y-113837316D01*
X115024047Y-113837317D01*
X114864089Y-113968589D01*
X114732817Y-114128547D01*
X114635269Y-114311043D01*
X114575199Y-114509067D01*
X114554917Y-114715000D01*
X104500500Y-114715000D01*
X104500500Y-112175000D01*
X117094917Y-112175000D01*
X117115199Y-112380932D01*
X117115200Y-112380934D01*
X117175268Y-112578954D01*
X117272815Y-112761450D01*
X117272817Y-112761452D01*
X117404089Y-112921410D01*
X117448118Y-112957543D01*
X117564050Y-113052685D01*
X117746546Y-113150232D01*
X117944566Y-113210300D01*
X117944565Y-113210300D01*
X117963029Y-113212118D01*
X118150500Y-113230583D01*
X118356434Y-113210300D01*
X118554454Y-113150232D01*
X118648431Y-113100000D01*
X130194353Y-113100000D01*
X130214834Y-113242456D01*
X130274622Y-113373371D01*
X130274623Y-113373373D01*
X130368872Y-113482143D01*
X130489947Y-113559953D01*
X130489950Y-113559954D01*
X130489949Y-113559954D01*
X130628036Y-113600499D01*
X130628038Y-113600500D01*
X130628039Y-113600500D01*
X130771962Y-113600500D01*
X130771962Y-113600499D01*
X130910053Y-113559953D01*
X131031128Y-113482143D01*
X131125377Y-113373373D01*
X131185165Y-113242457D01*
X131205647Y-113100000D01*
X131205094Y-113096153D01*
X164799500Y-113096153D01*
X164799500Y-113803846D01*
X164830261Y-113958489D01*
X164830264Y-113958501D01*
X164890602Y-114104172D01*
X164890609Y-114104185D01*
X164978210Y-114235288D01*
X164978213Y-114235292D01*
X165089707Y-114346786D01*
X165089711Y-114346789D01*
X165220814Y-114434390D01*
X165220827Y-114434397D01*
X165366498Y-114494735D01*
X165366503Y-114494737D01*
X165521153Y-114525499D01*
X165521156Y-114525500D01*
X165521158Y-114525500D01*
X165678844Y-114525500D01*
X165678845Y-114525499D01*
X165833497Y-114494737D01*
X165979179Y-114434394D01*
X166110289Y-114346789D01*
X166221789Y-114235289D01*
X166309394Y-114104179D01*
X166369737Y-113958497D01*
X166400500Y-113803842D01*
X166400500Y-113096158D01*
X166400500Y-113096155D01*
X166400499Y-113096153D01*
X166799500Y-113096153D01*
X166799500Y-113803846D01*
X166830261Y-113958489D01*
X166830264Y-113958501D01*
X166890602Y-114104172D01*
X166890609Y-114104185D01*
X166978210Y-114235288D01*
X166978213Y-114235292D01*
X167089707Y-114346786D01*
X167089711Y-114346789D01*
X167220814Y-114434390D01*
X167220827Y-114434397D01*
X167366498Y-114494735D01*
X167366503Y-114494737D01*
X167521153Y-114525499D01*
X167521156Y-114525500D01*
X167521158Y-114525500D01*
X167678844Y-114525500D01*
X167678845Y-114525499D01*
X167833497Y-114494737D01*
X167979179Y-114434394D01*
X168110289Y-114346789D01*
X168221789Y-114235289D01*
X168309394Y-114104179D01*
X168369737Y-113958497D01*
X168400500Y-113803842D01*
X168400500Y-113096158D01*
X168400500Y-113096155D01*
X168400499Y-113096153D01*
X173799500Y-113096153D01*
X173799500Y-113803846D01*
X173830261Y-113958489D01*
X173830264Y-113958501D01*
X173890602Y-114104172D01*
X173890609Y-114104185D01*
X173978210Y-114235288D01*
X173978213Y-114235292D01*
X174089707Y-114346786D01*
X174089711Y-114346789D01*
X174220814Y-114434390D01*
X174220827Y-114434397D01*
X174366498Y-114494735D01*
X174366503Y-114494737D01*
X174521153Y-114525499D01*
X174521156Y-114525500D01*
X174521158Y-114525500D01*
X174678844Y-114525500D01*
X174678845Y-114525499D01*
X174833497Y-114494737D01*
X174979179Y-114434394D01*
X175110289Y-114346789D01*
X175221789Y-114235289D01*
X175309394Y-114104179D01*
X175369737Y-113958497D01*
X175400500Y-113803842D01*
X175400500Y-113096158D01*
X175400500Y-113096155D01*
X175400499Y-113096153D01*
X175799500Y-113096153D01*
X175799500Y-113803846D01*
X175830261Y-113958489D01*
X175830264Y-113958501D01*
X175890602Y-114104172D01*
X175890609Y-114104185D01*
X175978210Y-114235288D01*
X175978213Y-114235292D01*
X176089707Y-114346786D01*
X176089711Y-114346789D01*
X176220814Y-114434390D01*
X176220827Y-114434397D01*
X176366498Y-114494735D01*
X176366503Y-114494737D01*
X176521153Y-114525499D01*
X176521156Y-114525500D01*
X176521158Y-114525500D01*
X176678844Y-114525500D01*
X176678845Y-114525499D01*
X176833497Y-114494737D01*
X176979179Y-114434394D01*
X177110289Y-114346789D01*
X177221789Y-114235289D01*
X177309394Y-114104179D01*
X177369737Y-113958497D01*
X177400500Y-113803842D01*
X177400500Y-113096158D01*
X177400500Y-113096155D01*
X177400499Y-113096153D01*
X177391852Y-113052682D01*
X177369737Y-112941503D01*
X177322155Y-112826628D01*
X177309397Y-112795827D01*
X177309390Y-112795814D01*
X177221789Y-112664711D01*
X177221786Y-112664707D01*
X177110292Y-112553213D01*
X177110288Y-112553210D01*
X176979185Y-112465609D01*
X176979172Y-112465602D01*
X176833501Y-112405264D01*
X176833489Y-112405261D01*
X176678845Y-112374500D01*
X176678842Y-112374500D01*
X176521158Y-112374500D01*
X176521155Y-112374500D01*
X176366510Y-112405261D01*
X176366498Y-112405264D01*
X176220827Y-112465602D01*
X176220814Y-112465609D01*
X176089711Y-112553210D01*
X176089707Y-112553213D01*
X175978213Y-112664707D01*
X175978210Y-112664711D01*
X175890609Y-112795814D01*
X175890602Y-112795827D01*
X175830264Y-112941498D01*
X175830261Y-112941510D01*
X175799500Y-113096153D01*
X175400499Y-113096153D01*
X175391852Y-113052682D01*
X175369737Y-112941503D01*
X175322155Y-112826628D01*
X175309397Y-112795827D01*
X175309390Y-112795814D01*
X175221789Y-112664711D01*
X175221786Y-112664707D01*
X175110292Y-112553213D01*
X175110288Y-112553210D01*
X174979185Y-112465609D01*
X174979172Y-112465602D01*
X174833501Y-112405264D01*
X174833489Y-112405261D01*
X174678845Y-112374500D01*
X174678842Y-112374500D01*
X174521158Y-112374500D01*
X174521155Y-112374500D01*
X174366510Y-112405261D01*
X174366498Y-112405264D01*
X174220827Y-112465602D01*
X174220814Y-112465609D01*
X174089711Y-112553210D01*
X174089707Y-112553213D01*
X173978213Y-112664707D01*
X173978210Y-112664711D01*
X173890609Y-112795814D01*
X173890602Y-112795827D01*
X173830264Y-112941498D01*
X173830261Y-112941510D01*
X173799500Y-113096153D01*
X168400499Y-113096153D01*
X168391852Y-113052682D01*
X168369737Y-112941503D01*
X168322155Y-112826628D01*
X168309397Y-112795827D01*
X168309390Y-112795814D01*
X168221789Y-112664711D01*
X168221786Y-112664707D01*
X168110292Y-112553213D01*
X168110288Y-112553210D01*
X167979185Y-112465609D01*
X167979172Y-112465602D01*
X167833501Y-112405264D01*
X167833489Y-112405261D01*
X167678845Y-112374500D01*
X167678842Y-112374500D01*
X167521158Y-112374500D01*
X167521155Y-112374500D01*
X167366510Y-112405261D01*
X167366498Y-112405264D01*
X167220827Y-112465602D01*
X167220814Y-112465609D01*
X167089711Y-112553210D01*
X167089707Y-112553213D01*
X166978213Y-112664707D01*
X166978210Y-112664711D01*
X166890609Y-112795814D01*
X166890602Y-112795827D01*
X166830264Y-112941498D01*
X166830261Y-112941510D01*
X166799500Y-113096153D01*
X166400499Y-113096153D01*
X166391852Y-113052682D01*
X166369737Y-112941503D01*
X166322155Y-112826628D01*
X166309397Y-112795827D01*
X166309390Y-112795814D01*
X166221789Y-112664711D01*
X166221786Y-112664707D01*
X166110292Y-112553213D01*
X166110288Y-112553210D01*
X165979185Y-112465609D01*
X165979172Y-112465602D01*
X165833501Y-112405264D01*
X165833489Y-112405261D01*
X165678845Y-112374500D01*
X165678842Y-112374500D01*
X165521158Y-112374500D01*
X165521155Y-112374500D01*
X165366510Y-112405261D01*
X165366498Y-112405264D01*
X165220827Y-112465602D01*
X165220814Y-112465609D01*
X165089711Y-112553210D01*
X165089707Y-112553213D01*
X164978213Y-112664707D01*
X164978210Y-112664711D01*
X164890609Y-112795814D01*
X164890602Y-112795827D01*
X164830264Y-112941498D01*
X164830261Y-112941510D01*
X164799500Y-113096153D01*
X131205094Y-113096153D01*
X131185165Y-112957543D01*
X131125377Y-112826627D01*
X131031128Y-112717857D01*
X130910053Y-112640047D01*
X130910051Y-112640046D01*
X130910049Y-112640045D01*
X130910050Y-112640045D01*
X130771963Y-112599500D01*
X130771961Y-112599500D01*
X130628039Y-112599500D01*
X130628036Y-112599500D01*
X130489949Y-112640045D01*
X130368873Y-112717856D01*
X130274623Y-112826626D01*
X130274622Y-112826628D01*
X130214834Y-112957543D01*
X130194353Y-113100000D01*
X118648431Y-113100000D01*
X118736950Y-113052685D01*
X118896910Y-112921410D01*
X119028185Y-112761450D01*
X119125732Y-112578954D01*
X119185800Y-112380934D01*
X119206083Y-112175000D01*
X119185800Y-111969066D01*
X119125732Y-111771046D01*
X119028185Y-111588550D01*
X118976202Y-111525209D01*
X118896910Y-111428589D01*
X118862074Y-111400000D01*
X139394353Y-111400000D01*
X139414834Y-111542456D01*
X139435885Y-111588550D01*
X139474623Y-111673373D01*
X139568872Y-111782143D01*
X139689947Y-111859953D01*
X139689950Y-111859954D01*
X139689949Y-111859954D01*
X139828036Y-111900499D01*
X139828038Y-111900500D01*
X139828039Y-111900500D01*
X139971962Y-111900500D01*
X139971962Y-111900499D01*
X140110053Y-111859953D01*
X140231128Y-111782143D01*
X140325377Y-111673373D01*
X140385165Y-111542457D01*
X140405647Y-111400000D01*
X140385165Y-111257543D01*
X140325377Y-111126627D01*
X140231128Y-111017857D01*
X140110053Y-110940047D01*
X140110051Y-110940046D01*
X140110049Y-110940045D01*
X140110050Y-110940045D01*
X139971963Y-110899500D01*
X139971961Y-110899500D01*
X139828039Y-110899500D01*
X139828036Y-110899500D01*
X139689949Y-110940045D01*
X139568873Y-111017856D01*
X139474623Y-111126626D01*
X139474622Y-111126628D01*
X139414834Y-111257543D01*
X139394353Y-111400000D01*
X118862074Y-111400000D01*
X118736952Y-111297317D01*
X118736953Y-111297317D01*
X118736950Y-111297315D01*
X118567054Y-111206502D01*
X118554456Y-111199769D01*
X118554455Y-111199768D01*
X118554454Y-111199768D01*
X118356434Y-111139700D01*
X118356432Y-111139699D01*
X118356434Y-111139699D01*
X118150500Y-111119417D01*
X117944567Y-111139699D01*
X117746543Y-111199769D01*
X117638458Y-111257543D01*
X117564050Y-111297315D01*
X117564048Y-111297316D01*
X117564047Y-111297317D01*
X117404089Y-111428589D01*
X117272817Y-111588547D01*
X117175269Y-111771043D01*
X117115199Y-111969067D01*
X117094917Y-112175000D01*
X104500500Y-112175000D01*
X104500500Y-109999999D01*
X105544357Y-109999999D01*
X105544357Y-110000000D01*
X105564884Y-110221535D01*
X105564885Y-110221537D01*
X105625769Y-110435523D01*
X105625775Y-110435538D01*
X105724938Y-110634683D01*
X105724943Y-110634691D01*
X105859020Y-110812238D01*
X106023437Y-110962123D01*
X106023439Y-110962125D01*
X106212595Y-111079245D01*
X106212596Y-111079245D01*
X106212599Y-111079247D01*
X106420060Y-111159618D01*
X106638757Y-111200500D01*
X106638759Y-111200500D01*
X106861241Y-111200500D01*
X106861243Y-111200500D01*
X107079940Y-111159618D01*
X107287401Y-111079247D01*
X107476562Y-110962124D01*
X107640981Y-110812236D01*
X107775058Y-110634689D01*
X107792331Y-110600000D01*
X136894353Y-110600000D01*
X136914834Y-110742456D01*
X136946702Y-110812236D01*
X136974623Y-110873373D01*
X137068872Y-110982143D01*
X137189947Y-111059953D01*
X137189950Y-111059954D01*
X137189949Y-111059954D01*
X137328036Y-111100499D01*
X137328038Y-111100500D01*
X137328039Y-111100500D01*
X137471962Y-111100500D01*
X137471962Y-111100499D01*
X137610053Y-111059953D01*
X137731128Y-110982143D01*
X137825377Y-110873373D01*
X137885165Y-110742457D01*
X137905647Y-110600000D01*
X137885165Y-110457543D01*
X137825377Y-110326627D01*
X137731128Y-110217857D01*
X137610053Y-110140047D01*
X137610051Y-110140046D01*
X137610049Y-110140045D01*
X137610050Y-110140045D01*
X137471963Y-110099500D01*
X137471961Y-110099500D01*
X137328039Y-110099500D01*
X137328036Y-110099500D01*
X137189949Y-110140045D01*
X137068873Y-110217856D01*
X136974623Y-110326626D01*
X136974622Y-110326628D01*
X136914834Y-110457543D01*
X136894353Y-110600000D01*
X107792331Y-110600000D01*
X107874229Y-110435528D01*
X107935115Y-110221536D01*
X107955643Y-110000000D01*
X107943909Y-109873373D01*
X107935115Y-109778464D01*
X107935114Y-109778462D01*
X107924869Y-109742456D01*
X107884337Y-109600000D01*
X133194353Y-109600000D01*
X133214834Y-109742456D01*
X133231278Y-109778462D01*
X133274623Y-109873373D01*
X133368872Y-109982143D01*
X133489947Y-110059953D01*
X133489950Y-110059954D01*
X133489949Y-110059954D01*
X133597107Y-110091417D01*
X133624633Y-110099500D01*
X133628036Y-110100499D01*
X133628038Y-110100500D01*
X133628039Y-110100500D01*
X133771962Y-110100500D01*
X133771962Y-110100499D01*
X133910053Y-110059953D01*
X134031128Y-109982143D01*
X134125377Y-109873373D01*
X134185165Y-109742457D01*
X134205647Y-109600000D01*
X134185165Y-109457543D01*
X134125377Y-109326627D01*
X134031128Y-109217857D01*
X133910053Y-109140047D01*
X133910051Y-109140046D01*
X133910049Y-109140045D01*
X133910050Y-109140045D01*
X133771963Y-109099500D01*
X133771961Y-109099500D01*
X133628039Y-109099500D01*
X133628036Y-109099500D01*
X133489949Y-109140045D01*
X133368873Y-109217856D01*
X133274623Y-109326626D01*
X133274622Y-109326628D01*
X133214834Y-109457543D01*
X133194353Y-109600000D01*
X107884337Y-109600000D01*
X107874229Y-109564472D01*
X107842375Y-109500500D01*
X107775061Y-109365316D01*
X107775056Y-109365308D01*
X107640979Y-109187761D01*
X107476562Y-109037876D01*
X107476560Y-109037874D01*
X107415391Y-109000000D01*
X137894353Y-109000000D01*
X137914834Y-109142456D01*
X137935526Y-109187764D01*
X137974623Y-109273373D01*
X138068872Y-109382143D01*
X138189947Y-109459953D01*
X138189950Y-109459954D01*
X138189949Y-109459954D01*
X138328036Y-109500499D01*
X138328038Y-109500500D01*
X138328039Y-109500500D01*
X138471962Y-109500500D01*
X138471962Y-109500499D01*
X138610053Y-109459953D01*
X138731128Y-109382143D01*
X138825377Y-109273373D01*
X138885165Y-109142457D01*
X138905647Y-109000000D01*
X138885165Y-108857543D01*
X138825377Y-108726627D01*
X138731128Y-108617857D01*
X138610053Y-108540047D01*
X138610051Y-108540046D01*
X138610049Y-108540045D01*
X138610050Y-108540045D01*
X138471963Y-108499500D01*
X138471961Y-108499500D01*
X138328039Y-108499500D01*
X138328036Y-108499500D01*
X138189949Y-108540045D01*
X138068873Y-108617856D01*
X137974623Y-108726626D01*
X137974622Y-108726628D01*
X137914834Y-108857543D01*
X137894353Y-109000000D01*
X107415391Y-109000000D01*
X107287404Y-108920754D01*
X107287398Y-108920752D01*
X107079940Y-108840382D01*
X106861243Y-108799500D01*
X106638757Y-108799500D01*
X106420060Y-108840382D01*
X106288864Y-108891207D01*
X106212601Y-108920752D01*
X106212595Y-108920754D01*
X106023439Y-109037874D01*
X106023437Y-109037876D01*
X105859020Y-109187761D01*
X105724943Y-109365308D01*
X105724938Y-109365316D01*
X105625775Y-109564461D01*
X105625769Y-109564476D01*
X105564885Y-109778462D01*
X105564884Y-109778464D01*
X105544357Y-109999999D01*
X104500500Y-109999999D01*
X104500500Y-107600000D01*
X124894353Y-107600000D01*
X124914834Y-107742456D01*
X124974622Y-107873371D01*
X124974623Y-107873373D01*
X125068872Y-107982143D01*
X125189947Y-108059953D01*
X125189950Y-108059954D01*
X125189949Y-108059954D01*
X125328036Y-108100499D01*
X125328038Y-108100500D01*
X125328039Y-108100500D01*
X125471962Y-108100500D01*
X125471962Y-108100499D01*
X125610053Y-108059953D01*
X125731128Y-107982143D01*
X125825377Y-107873373D01*
X125885165Y-107742457D01*
X125905647Y-107600000D01*
X125885165Y-107457543D01*
X125879963Y-107446153D01*
X164799500Y-107446153D01*
X164799500Y-108153846D01*
X164830261Y-108308489D01*
X164830264Y-108308501D01*
X164890602Y-108454172D01*
X164890609Y-108454185D01*
X164978210Y-108585288D01*
X164978213Y-108585292D01*
X165089707Y-108696786D01*
X165089711Y-108696789D01*
X165220814Y-108784390D01*
X165220827Y-108784397D01*
X165355989Y-108840382D01*
X165366503Y-108844737D01*
X165521153Y-108875499D01*
X165521156Y-108875500D01*
X165521158Y-108875500D01*
X165678844Y-108875500D01*
X165678845Y-108875499D01*
X165833497Y-108844737D01*
X165979179Y-108784394D01*
X166110289Y-108696789D01*
X166221789Y-108585289D01*
X166309394Y-108454179D01*
X166369737Y-108308497D01*
X166400500Y-108153842D01*
X166400500Y-107446158D01*
X166400500Y-107446155D01*
X166400499Y-107446153D01*
X166799500Y-107446153D01*
X166799500Y-108153846D01*
X166830261Y-108308489D01*
X166830264Y-108308501D01*
X166890602Y-108454172D01*
X166890609Y-108454185D01*
X166978210Y-108585288D01*
X166978213Y-108585292D01*
X167089707Y-108696786D01*
X167089711Y-108696789D01*
X167220814Y-108784390D01*
X167220827Y-108784397D01*
X167355989Y-108840382D01*
X167366503Y-108844737D01*
X167521153Y-108875499D01*
X167521156Y-108875500D01*
X167521158Y-108875500D01*
X167678844Y-108875500D01*
X167678845Y-108875499D01*
X167833497Y-108844737D01*
X167979179Y-108784394D01*
X168110289Y-108696789D01*
X168221789Y-108585289D01*
X168309394Y-108454179D01*
X168369737Y-108308497D01*
X168400500Y-108153842D01*
X168400500Y-107446158D01*
X168400500Y-107446155D01*
X168400499Y-107446153D01*
X173799500Y-107446153D01*
X173799500Y-108153846D01*
X173830261Y-108308489D01*
X173830264Y-108308501D01*
X173890602Y-108454172D01*
X173890609Y-108454185D01*
X173978210Y-108585288D01*
X173978213Y-108585292D01*
X174089707Y-108696786D01*
X174089711Y-108696789D01*
X174220814Y-108784390D01*
X174220827Y-108784397D01*
X174355989Y-108840382D01*
X174366503Y-108844737D01*
X174521153Y-108875499D01*
X174521156Y-108875500D01*
X174521158Y-108875500D01*
X174678844Y-108875500D01*
X174678845Y-108875499D01*
X174833497Y-108844737D01*
X174979179Y-108784394D01*
X175110289Y-108696789D01*
X175221789Y-108585289D01*
X175309394Y-108454179D01*
X175369737Y-108308497D01*
X175400500Y-108153842D01*
X175400500Y-107446158D01*
X175400500Y-107446155D01*
X175400499Y-107446153D01*
X175799500Y-107446153D01*
X175799500Y-108153846D01*
X175830261Y-108308489D01*
X175830264Y-108308501D01*
X175890602Y-108454172D01*
X175890609Y-108454185D01*
X175978210Y-108585288D01*
X175978213Y-108585292D01*
X176089707Y-108696786D01*
X176089711Y-108696789D01*
X176220814Y-108784390D01*
X176220827Y-108784397D01*
X176355989Y-108840382D01*
X176366503Y-108844737D01*
X176521153Y-108875499D01*
X176521156Y-108875500D01*
X176521158Y-108875500D01*
X176678844Y-108875500D01*
X176678845Y-108875499D01*
X176833497Y-108844737D01*
X176979179Y-108784394D01*
X177110289Y-108696789D01*
X177221789Y-108585289D01*
X177309394Y-108454179D01*
X177369737Y-108308497D01*
X177400500Y-108153842D01*
X177400500Y-107446158D01*
X177400500Y-107446155D01*
X177400499Y-107446153D01*
X177376724Y-107326628D01*
X177369737Y-107291503D01*
X177339232Y-107217856D01*
X177309397Y-107145827D01*
X177309390Y-107145814D01*
X177221789Y-107014711D01*
X177221786Y-107014707D01*
X177110292Y-106903213D01*
X177110288Y-106903210D01*
X176979185Y-106815609D01*
X176979172Y-106815602D01*
X176833501Y-106755264D01*
X176833489Y-106755261D01*
X176678845Y-106724500D01*
X176678842Y-106724500D01*
X176521158Y-106724500D01*
X176521155Y-106724500D01*
X176366510Y-106755261D01*
X176366498Y-106755264D01*
X176220827Y-106815602D01*
X176220814Y-106815609D01*
X176089711Y-106903210D01*
X176089707Y-106903213D01*
X175978213Y-107014707D01*
X175978210Y-107014711D01*
X175890609Y-107145814D01*
X175890602Y-107145827D01*
X175830264Y-107291498D01*
X175830261Y-107291510D01*
X175799500Y-107446153D01*
X175400499Y-107446153D01*
X175376724Y-107326628D01*
X175369737Y-107291503D01*
X175339232Y-107217856D01*
X175309397Y-107145827D01*
X175309390Y-107145814D01*
X175221789Y-107014711D01*
X175221786Y-107014707D01*
X175110292Y-106903213D01*
X175110288Y-106903210D01*
X174979185Y-106815609D01*
X174979172Y-106815602D01*
X174833501Y-106755264D01*
X174833489Y-106755261D01*
X174678845Y-106724500D01*
X174678842Y-106724500D01*
X174521158Y-106724500D01*
X174521155Y-106724500D01*
X174366510Y-106755261D01*
X174366498Y-106755264D01*
X174220827Y-106815602D01*
X174220814Y-106815609D01*
X174089711Y-106903210D01*
X174089707Y-106903213D01*
X173978213Y-107014707D01*
X173978210Y-107014711D01*
X173890609Y-107145814D01*
X173890602Y-107145827D01*
X173830264Y-107291498D01*
X173830261Y-107291510D01*
X173799500Y-107446153D01*
X168400499Y-107446153D01*
X168376724Y-107326628D01*
X168369737Y-107291503D01*
X168339232Y-107217856D01*
X168309397Y-107145827D01*
X168309390Y-107145814D01*
X168221789Y-107014711D01*
X168221786Y-107014707D01*
X168110292Y-106903213D01*
X168110288Y-106903210D01*
X167979185Y-106815609D01*
X167979172Y-106815602D01*
X167833501Y-106755264D01*
X167833489Y-106755261D01*
X167678845Y-106724500D01*
X167678842Y-106724500D01*
X167521158Y-106724500D01*
X167521155Y-106724500D01*
X167366510Y-106755261D01*
X167366498Y-106755264D01*
X167220827Y-106815602D01*
X167220814Y-106815609D01*
X167089711Y-106903210D01*
X167089707Y-106903213D01*
X166978213Y-107014707D01*
X166978210Y-107014711D01*
X166890609Y-107145814D01*
X166890602Y-107145827D01*
X166830264Y-107291498D01*
X166830261Y-107291510D01*
X166799500Y-107446153D01*
X166400499Y-107446153D01*
X166376724Y-107326628D01*
X166369737Y-107291503D01*
X166339232Y-107217856D01*
X166309397Y-107145827D01*
X166309390Y-107145814D01*
X166221789Y-107014711D01*
X166221786Y-107014707D01*
X166110292Y-106903213D01*
X166110288Y-106903210D01*
X165979185Y-106815609D01*
X165979172Y-106815602D01*
X165833501Y-106755264D01*
X165833489Y-106755261D01*
X165678845Y-106724500D01*
X165678842Y-106724500D01*
X165521158Y-106724500D01*
X165521155Y-106724500D01*
X165366510Y-106755261D01*
X165366498Y-106755264D01*
X165220827Y-106815602D01*
X165220814Y-106815609D01*
X165089711Y-106903210D01*
X165089707Y-106903213D01*
X164978213Y-107014707D01*
X164978210Y-107014711D01*
X164890609Y-107145814D01*
X164890602Y-107145827D01*
X164830264Y-107291498D01*
X164830261Y-107291510D01*
X164799500Y-107446153D01*
X125879963Y-107446153D01*
X125825377Y-107326627D01*
X125731128Y-107217857D01*
X125610053Y-107140047D01*
X125610051Y-107140046D01*
X125610049Y-107140045D01*
X125610050Y-107140045D01*
X125471963Y-107099500D01*
X125471961Y-107099500D01*
X125328039Y-107099500D01*
X125328036Y-107099500D01*
X125189949Y-107140045D01*
X125068873Y-107217856D01*
X124974623Y-107326626D01*
X124974622Y-107326628D01*
X124914834Y-107457543D01*
X124894353Y-107600000D01*
X104500500Y-107600000D01*
X104500500Y-105620000D01*
X109024659Y-105620000D01*
X109043975Y-105816129D01*
X109043976Y-105816132D01*
X109099903Y-106000499D01*
X109101188Y-106004733D01*
X109194086Y-106178532D01*
X109194090Y-106178539D01*
X109319116Y-106330883D01*
X109471460Y-106455909D01*
X109471467Y-106455913D01*
X109645266Y-106548811D01*
X109645269Y-106548811D01*
X109645273Y-106548814D01*
X109833868Y-106606024D01*
X110030000Y-106625341D01*
X110226132Y-106606024D01*
X110414727Y-106548814D01*
X110588538Y-106455910D01*
X110740883Y-106330883D01*
X110865910Y-106178538D01*
X110958814Y-106004727D01*
X111016024Y-105816132D01*
X111035341Y-105620000D01*
X111564659Y-105620000D01*
X111583975Y-105816129D01*
X111583976Y-105816132D01*
X111639903Y-106000499D01*
X111641188Y-106004733D01*
X111734086Y-106178532D01*
X111734090Y-106178539D01*
X111859116Y-106330883D01*
X112011460Y-106455909D01*
X112011467Y-106455913D01*
X112185266Y-106548811D01*
X112185269Y-106548811D01*
X112185273Y-106548814D01*
X112373868Y-106606024D01*
X112570000Y-106625341D01*
X112766132Y-106606024D01*
X112954727Y-106548814D01*
X113128538Y-106455910D01*
X113280883Y-106330883D01*
X113405910Y-106178538D01*
X113498814Y-106004727D01*
X113556024Y-105816132D01*
X113575341Y-105620000D01*
X114104659Y-105620000D01*
X114123975Y-105816129D01*
X114123976Y-105816132D01*
X114179903Y-106000499D01*
X114181188Y-106004733D01*
X114274086Y-106178532D01*
X114274090Y-106178539D01*
X114399116Y-106330883D01*
X114551460Y-106455909D01*
X114551467Y-106455913D01*
X114725266Y-106548811D01*
X114725269Y-106548811D01*
X114725273Y-106548814D01*
X114913868Y-106606024D01*
X115110000Y-106625341D01*
X115306132Y-106606024D01*
X115494727Y-106548814D01*
X115668538Y-106455910D01*
X115820883Y-106330883D01*
X115945910Y-106178538D01*
X116038814Y-106004727D01*
X116096024Y-105816132D01*
X116115341Y-105620000D01*
X116644659Y-105620000D01*
X116663975Y-105816129D01*
X116663976Y-105816132D01*
X116719903Y-106000499D01*
X116721188Y-106004733D01*
X116814086Y-106178532D01*
X116814090Y-106178539D01*
X116939116Y-106330883D01*
X117091460Y-106455909D01*
X117091467Y-106455913D01*
X117265266Y-106548811D01*
X117265269Y-106548811D01*
X117265273Y-106548814D01*
X117453868Y-106606024D01*
X117650000Y-106625341D01*
X117846132Y-106606024D01*
X118034727Y-106548814D01*
X118208538Y-106455910D01*
X118360883Y-106330883D01*
X118485910Y-106178538D01*
X118578814Y-106004727D01*
X118636024Y-105816132D01*
X118655341Y-105620000D01*
X119184659Y-105620000D01*
X119203975Y-105816129D01*
X119203976Y-105816132D01*
X119259903Y-106000499D01*
X119261188Y-106004733D01*
X119354086Y-106178532D01*
X119354090Y-106178539D01*
X119479116Y-106330883D01*
X119631460Y-106455909D01*
X119631467Y-106455913D01*
X119805266Y-106548811D01*
X119805269Y-106548811D01*
X119805273Y-106548814D01*
X119993868Y-106606024D01*
X120190000Y-106625341D01*
X120386132Y-106606024D01*
X120574727Y-106548814D01*
X120748538Y-106455910D01*
X120900883Y-106330883D01*
X121025910Y-106178538D01*
X121118814Y-106004727D01*
X121176024Y-105816132D01*
X121195341Y-105620000D01*
X121724659Y-105620000D01*
X121743975Y-105816129D01*
X121743976Y-105816132D01*
X121799903Y-106000499D01*
X121801188Y-106004733D01*
X121894086Y-106178532D01*
X121894090Y-106178539D01*
X122019116Y-106330883D01*
X122171460Y-106455909D01*
X122171467Y-106455913D01*
X122345266Y-106548811D01*
X122345269Y-106548811D01*
X122345273Y-106548814D01*
X122533868Y-106606024D01*
X122730000Y-106625341D01*
X122926132Y-106606024D01*
X123114727Y-106548814D01*
X123288538Y-106455910D01*
X123440883Y-106330883D01*
X123565910Y-106178538D01*
X123658814Y-106004727D01*
X123716024Y-105816132D01*
X123735341Y-105620000D01*
X124264659Y-105620000D01*
X124283975Y-105816129D01*
X124283976Y-105816132D01*
X124339903Y-106000499D01*
X124341188Y-106004733D01*
X124434086Y-106178532D01*
X124434090Y-106178539D01*
X124559116Y-106330883D01*
X124711460Y-106455909D01*
X124711467Y-106455913D01*
X124885266Y-106548811D01*
X124885269Y-106548811D01*
X124885273Y-106548814D01*
X125073868Y-106606024D01*
X125270000Y-106625341D01*
X125466132Y-106606024D01*
X125654727Y-106548814D01*
X125828538Y-106455910D01*
X125980883Y-106330883D01*
X126105910Y-106178538D01*
X126198814Y-106004727D01*
X126256024Y-105816132D01*
X126275341Y-105620000D01*
X126804659Y-105620000D01*
X126823975Y-105816129D01*
X126823976Y-105816132D01*
X126879903Y-106000499D01*
X126881188Y-106004733D01*
X126974086Y-106178532D01*
X126974090Y-106178539D01*
X127099116Y-106330883D01*
X127251460Y-106455909D01*
X127251467Y-106455913D01*
X127425266Y-106548811D01*
X127425269Y-106548811D01*
X127425273Y-106548814D01*
X127613868Y-106606024D01*
X127810000Y-106625341D01*
X128006132Y-106606024D01*
X128194727Y-106548814D01*
X128368538Y-106455910D01*
X128520883Y-106330883D01*
X128645910Y-106178538D01*
X128738814Y-106004727D01*
X128796024Y-105816132D01*
X128815341Y-105620000D01*
X129344659Y-105620000D01*
X129363975Y-105816129D01*
X129363976Y-105816132D01*
X129419903Y-106000499D01*
X129421188Y-106004733D01*
X129514086Y-106178532D01*
X129514090Y-106178539D01*
X129639116Y-106330883D01*
X129791460Y-106455909D01*
X129791467Y-106455913D01*
X129965266Y-106548811D01*
X129965269Y-106548811D01*
X129965273Y-106548814D01*
X130153868Y-106606024D01*
X130350000Y-106625341D01*
X130546132Y-106606024D01*
X130734727Y-106548814D01*
X130908538Y-106455910D01*
X131060883Y-106330883D01*
X131185910Y-106178538D01*
X131278814Y-106004727D01*
X131336024Y-105816132D01*
X131355341Y-105620000D01*
X131884659Y-105620000D01*
X131903975Y-105816129D01*
X131903976Y-105816132D01*
X131959903Y-106000499D01*
X131961188Y-106004733D01*
X132054086Y-106178532D01*
X132054090Y-106178539D01*
X132179116Y-106330883D01*
X132331460Y-106455909D01*
X132331467Y-106455913D01*
X132505266Y-106548811D01*
X132505269Y-106548811D01*
X132505273Y-106548814D01*
X132693868Y-106606024D01*
X132890000Y-106625341D01*
X133086132Y-106606024D01*
X133274727Y-106548814D01*
X133448538Y-106455910D01*
X133600883Y-106330883D01*
X133725910Y-106178538D01*
X133818814Y-106004727D01*
X133876024Y-105816132D01*
X133895341Y-105620000D01*
X134424659Y-105620000D01*
X134443975Y-105816129D01*
X134443976Y-105816132D01*
X134499903Y-106000499D01*
X134501188Y-106004733D01*
X134594086Y-106178532D01*
X134594090Y-106178539D01*
X134719116Y-106330883D01*
X134871460Y-106455909D01*
X134871467Y-106455913D01*
X135045266Y-106548811D01*
X135045269Y-106548811D01*
X135045273Y-106548814D01*
X135233868Y-106606024D01*
X135430000Y-106625341D01*
X135626132Y-106606024D01*
X135814727Y-106548814D01*
X135988538Y-106455910D01*
X136140883Y-106330883D01*
X136265910Y-106178538D01*
X136358814Y-106004727D01*
X136416024Y-105816132D01*
X136435341Y-105620000D01*
X136964659Y-105620000D01*
X136983975Y-105816129D01*
X136983976Y-105816132D01*
X137039903Y-106000499D01*
X137041188Y-106004733D01*
X137134086Y-106178532D01*
X137134090Y-106178539D01*
X137259116Y-106330883D01*
X137411460Y-106455909D01*
X137411467Y-106455913D01*
X137585266Y-106548811D01*
X137585269Y-106548811D01*
X137585273Y-106548814D01*
X137773868Y-106606024D01*
X137970000Y-106625341D01*
X138166132Y-106606024D01*
X138354727Y-106548814D01*
X138528538Y-106455910D01*
X138680883Y-106330883D01*
X138805910Y-106178538D01*
X138898814Y-106004727D01*
X138956024Y-105816132D01*
X138975341Y-105620000D01*
X139504659Y-105620000D01*
X139523975Y-105816129D01*
X139523976Y-105816132D01*
X139579903Y-106000499D01*
X139581188Y-106004733D01*
X139674086Y-106178532D01*
X139674090Y-106178539D01*
X139799116Y-106330883D01*
X139951460Y-106455909D01*
X139951467Y-106455913D01*
X140125266Y-106548811D01*
X140125269Y-106548811D01*
X140125273Y-106548814D01*
X140313868Y-106606024D01*
X140510000Y-106625341D01*
X140706132Y-106606024D01*
X140894727Y-106548814D01*
X141068538Y-106455910D01*
X141220883Y-106330883D01*
X141345910Y-106178538D01*
X141438814Y-106004727D01*
X141496024Y-105816132D01*
X141515341Y-105620000D01*
X141503522Y-105500000D01*
X152694353Y-105500000D01*
X152714834Y-105642456D01*
X152774622Y-105773371D01*
X152774623Y-105773373D01*
X152868872Y-105882143D01*
X152989947Y-105959953D01*
X152989950Y-105959954D01*
X152989949Y-105959954D01*
X153128036Y-106000499D01*
X153128038Y-106000500D01*
X153128039Y-106000500D01*
X153271962Y-106000500D01*
X153271962Y-106000499D01*
X153410053Y-105959953D01*
X153531128Y-105882143D01*
X153625377Y-105773373D01*
X153685165Y-105642457D01*
X153705647Y-105500000D01*
X153685165Y-105357543D01*
X153625377Y-105226627D01*
X153531128Y-105117857D01*
X153410053Y-105040047D01*
X153410051Y-105040046D01*
X153410049Y-105040045D01*
X153410050Y-105040045D01*
X153271963Y-104999500D01*
X153271961Y-104999500D01*
X153128039Y-104999500D01*
X153128036Y-104999500D01*
X152989949Y-105040045D01*
X152868873Y-105117856D01*
X152774623Y-105226626D01*
X152774622Y-105226628D01*
X152714834Y-105357543D01*
X152694353Y-105500000D01*
X141503522Y-105500000D01*
X141496024Y-105423868D01*
X141438814Y-105235273D01*
X141438811Y-105235269D01*
X141438811Y-105235266D01*
X141345913Y-105061467D01*
X141345909Y-105061460D01*
X141220883Y-104909116D01*
X141068539Y-104784090D01*
X141068532Y-104784086D01*
X140894733Y-104691188D01*
X140894727Y-104691186D01*
X140706132Y-104633976D01*
X140706129Y-104633975D01*
X140510000Y-104614659D01*
X140313870Y-104633975D01*
X140125266Y-104691188D01*
X139951467Y-104784086D01*
X139951460Y-104784090D01*
X139799116Y-104909116D01*
X139674090Y-105061460D01*
X139674086Y-105061467D01*
X139581188Y-105235266D01*
X139523975Y-105423870D01*
X139504659Y-105620000D01*
X138975341Y-105620000D01*
X138956024Y-105423868D01*
X138898814Y-105235273D01*
X138898811Y-105235269D01*
X138898811Y-105235266D01*
X138805913Y-105061467D01*
X138805909Y-105061460D01*
X138680883Y-104909116D01*
X138528539Y-104784090D01*
X138528532Y-104784086D01*
X138354733Y-104691188D01*
X138354727Y-104691186D01*
X138166132Y-104633976D01*
X138166129Y-104633975D01*
X137970000Y-104614659D01*
X137773870Y-104633975D01*
X137585266Y-104691188D01*
X137411467Y-104784086D01*
X137411460Y-104784090D01*
X137259116Y-104909116D01*
X137134090Y-105061460D01*
X137134086Y-105061467D01*
X137041188Y-105235266D01*
X136983975Y-105423870D01*
X136964659Y-105620000D01*
X136435341Y-105620000D01*
X136416024Y-105423868D01*
X136358814Y-105235273D01*
X136358811Y-105235269D01*
X136358811Y-105235266D01*
X136265913Y-105061467D01*
X136265909Y-105061460D01*
X136140883Y-104909116D01*
X135988539Y-104784090D01*
X135988532Y-104784086D01*
X135814733Y-104691188D01*
X135814727Y-104691186D01*
X135626132Y-104633976D01*
X135626129Y-104633975D01*
X135430000Y-104614659D01*
X135233870Y-104633975D01*
X135045266Y-104691188D01*
X134871467Y-104784086D01*
X134871460Y-104784090D01*
X134719116Y-104909116D01*
X134594090Y-105061460D01*
X134594086Y-105061467D01*
X134501188Y-105235266D01*
X134443975Y-105423870D01*
X134424659Y-105620000D01*
X133895341Y-105620000D01*
X133876024Y-105423868D01*
X133818814Y-105235273D01*
X133818811Y-105235269D01*
X133818811Y-105235266D01*
X133725913Y-105061467D01*
X133725909Y-105061460D01*
X133600883Y-104909116D01*
X133448539Y-104784090D01*
X133448532Y-104784086D01*
X133274733Y-104691188D01*
X133274727Y-104691186D01*
X133086132Y-104633976D01*
X133086129Y-104633975D01*
X132890000Y-104614659D01*
X132693870Y-104633975D01*
X132505266Y-104691188D01*
X132331467Y-104784086D01*
X132331460Y-104784090D01*
X132179116Y-104909116D01*
X132054090Y-105061460D01*
X132054086Y-105061467D01*
X131961188Y-105235266D01*
X131903975Y-105423870D01*
X131884659Y-105620000D01*
X131355341Y-105620000D01*
X131336024Y-105423868D01*
X131278814Y-105235273D01*
X131278811Y-105235269D01*
X131278811Y-105235266D01*
X131185913Y-105061467D01*
X131185909Y-105061460D01*
X131060883Y-104909116D01*
X130908539Y-104784090D01*
X130908532Y-104784086D01*
X130734733Y-104691188D01*
X130734727Y-104691186D01*
X130546132Y-104633976D01*
X130546129Y-104633975D01*
X130350000Y-104614659D01*
X130153870Y-104633975D01*
X129965266Y-104691188D01*
X129791467Y-104784086D01*
X129791460Y-104784090D01*
X129639116Y-104909116D01*
X129514090Y-105061460D01*
X129514086Y-105061467D01*
X129421188Y-105235266D01*
X129363975Y-105423870D01*
X129344659Y-105620000D01*
X128815341Y-105620000D01*
X128796024Y-105423868D01*
X128738814Y-105235273D01*
X128738811Y-105235269D01*
X128738811Y-105235266D01*
X128645913Y-105061467D01*
X128645909Y-105061460D01*
X128520883Y-104909116D01*
X128368539Y-104784090D01*
X128368532Y-104784086D01*
X128194733Y-104691188D01*
X128194727Y-104691186D01*
X128006132Y-104633976D01*
X128006129Y-104633975D01*
X127810000Y-104614659D01*
X127613870Y-104633975D01*
X127425266Y-104691188D01*
X127251467Y-104784086D01*
X127251460Y-104784090D01*
X127099116Y-104909116D01*
X126974090Y-105061460D01*
X126974086Y-105061467D01*
X126881188Y-105235266D01*
X126823975Y-105423870D01*
X126804659Y-105620000D01*
X126275341Y-105620000D01*
X126256024Y-105423868D01*
X126198814Y-105235273D01*
X126198811Y-105235269D01*
X126198811Y-105235266D01*
X126105913Y-105061467D01*
X126105909Y-105061460D01*
X125980883Y-104909116D01*
X125828539Y-104784090D01*
X125828532Y-104784086D01*
X125654733Y-104691188D01*
X125654727Y-104691186D01*
X125466132Y-104633976D01*
X125466129Y-104633975D01*
X125270000Y-104614659D01*
X125073870Y-104633975D01*
X124885266Y-104691188D01*
X124711467Y-104784086D01*
X124711460Y-104784090D01*
X124559116Y-104909116D01*
X124434090Y-105061460D01*
X124434086Y-105061467D01*
X124341188Y-105235266D01*
X124283975Y-105423870D01*
X124264659Y-105620000D01*
X123735341Y-105620000D01*
X123716024Y-105423868D01*
X123658814Y-105235273D01*
X123658811Y-105235269D01*
X123658811Y-105235266D01*
X123565913Y-105061467D01*
X123565909Y-105061460D01*
X123440883Y-104909116D01*
X123288539Y-104784090D01*
X123288532Y-104784086D01*
X123114733Y-104691188D01*
X123114727Y-104691186D01*
X122926132Y-104633976D01*
X122926129Y-104633975D01*
X122730000Y-104614659D01*
X122533870Y-104633975D01*
X122345266Y-104691188D01*
X122171467Y-104784086D01*
X122171460Y-104784090D01*
X122019116Y-104909116D01*
X121894090Y-105061460D01*
X121894086Y-105061467D01*
X121801188Y-105235266D01*
X121743975Y-105423870D01*
X121724659Y-105620000D01*
X121195341Y-105620000D01*
X121176024Y-105423868D01*
X121118814Y-105235273D01*
X121118811Y-105235269D01*
X121118811Y-105235266D01*
X121025913Y-105061467D01*
X121025909Y-105061460D01*
X120900883Y-104909116D01*
X120748539Y-104784090D01*
X120748532Y-104784086D01*
X120574733Y-104691188D01*
X120574727Y-104691186D01*
X120386132Y-104633976D01*
X120386129Y-104633975D01*
X120190000Y-104614659D01*
X119993870Y-104633975D01*
X119805266Y-104691188D01*
X119631467Y-104784086D01*
X119631460Y-104784090D01*
X119479116Y-104909116D01*
X119354090Y-105061460D01*
X119354086Y-105061467D01*
X119261188Y-105235266D01*
X119203975Y-105423870D01*
X119184659Y-105620000D01*
X118655341Y-105620000D01*
X118636024Y-105423868D01*
X118578814Y-105235273D01*
X118578811Y-105235269D01*
X118578811Y-105235266D01*
X118485913Y-105061467D01*
X118485909Y-105061460D01*
X118360883Y-104909116D01*
X118208539Y-104784090D01*
X118208532Y-104784086D01*
X118034733Y-104691188D01*
X118034727Y-104691186D01*
X117846132Y-104633976D01*
X117846129Y-104633975D01*
X117650000Y-104614659D01*
X117453870Y-104633975D01*
X117265266Y-104691188D01*
X117091467Y-104784086D01*
X117091460Y-104784090D01*
X116939116Y-104909116D01*
X116814090Y-105061460D01*
X116814086Y-105061467D01*
X116721188Y-105235266D01*
X116663975Y-105423870D01*
X116644659Y-105620000D01*
X116115341Y-105620000D01*
X116096024Y-105423868D01*
X116038814Y-105235273D01*
X116038811Y-105235269D01*
X116038811Y-105235266D01*
X115945913Y-105061467D01*
X115945909Y-105061460D01*
X115820883Y-104909116D01*
X115668539Y-104784090D01*
X115668532Y-104784086D01*
X115494733Y-104691188D01*
X115494727Y-104691186D01*
X115306132Y-104633976D01*
X115306129Y-104633975D01*
X115110000Y-104614659D01*
X114913870Y-104633975D01*
X114725266Y-104691188D01*
X114551467Y-104784086D01*
X114551460Y-104784090D01*
X114399116Y-104909116D01*
X114274090Y-105061460D01*
X114274086Y-105061467D01*
X114181188Y-105235266D01*
X114123975Y-105423870D01*
X114104659Y-105620000D01*
X113575341Y-105620000D01*
X113556024Y-105423868D01*
X113498814Y-105235273D01*
X113498811Y-105235269D01*
X113498811Y-105235266D01*
X113405913Y-105061467D01*
X113405909Y-105061460D01*
X113280883Y-104909116D01*
X113128539Y-104784090D01*
X113128532Y-104784086D01*
X112954733Y-104691188D01*
X112954727Y-104691186D01*
X112766132Y-104633976D01*
X112766129Y-104633975D01*
X112570000Y-104614659D01*
X112373870Y-104633975D01*
X112185266Y-104691188D01*
X112011467Y-104784086D01*
X112011460Y-104784090D01*
X111859116Y-104909116D01*
X111734090Y-105061460D01*
X111734086Y-105061467D01*
X111641188Y-105235266D01*
X111583975Y-105423870D01*
X111564659Y-105620000D01*
X111035341Y-105620000D01*
X111016024Y-105423868D01*
X110958814Y-105235273D01*
X110958811Y-105235269D01*
X110958811Y-105235266D01*
X110865913Y-105061467D01*
X110865909Y-105061460D01*
X110740883Y-104909116D01*
X110588539Y-104784090D01*
X110588532Y-104784086D01*
X110414733Y-104691188D01*
X110414727Y-104691186D01*
X110226132Y-104633976D01*
X110226129Y-104633975D01*
X110030000Y-104614659D01*
X109833870Y-104633975D01*
X109645266Y-104691188D01*
X109471467Y-104784086D01*
X109471460Y-104784090D01*
X109319116Y-104909116D01*
X109194090Y-105061460D01*
X109194086Y-105061467D01*
X109101188Y-105235266D01*
X109043975Y-105423870D01*
X109024659Y-105620000D01*
X104500500Y-105620000D01*
X104500500Y-103080000D01*
X131884659Y-103080000D01*
X131903975Y-103276129D01*
X131961188Y-103464733D01*
X132054086Y-103638532D01*
X132054090Y-103638539D01*
X132179116Y-103790883D01*
X132331460Y-103915909D01*
X132331467Y-103915913D01*
X132505266Y-104008811D01*
X132505269Y-104008811D01*
X132505273Y-104008814D01*
X132693868Y-104066024D01*
X132890000Y-104085341D01*
X133086132Y-104066024D01*
X133274727Y-104008814D01*
X133448538Y-103915910D01*
X133600883Y-103790883D01*
X133725910Y-103638538D01*
X133818814Y-103464727D01*
X133876024Y-103276132D01*
X133895341Y-103080000D01*
X134424659Y-103080000D01*
X134443975Y-103276129D01*
X134501188Y-103464733D01*
X134594086Y-103638532D01*
X134594090Y-103638539D01*
X134719116Y-103790883D01*
X134871460Y-103915909D01*
X134871467Y-103915913D01*
X135045266Y-104008811D01*
X135045269Y-104008811D01*
X135045273Y-104008814D01*
X135233868Y-104066024D01*
X135430000Y-104085341D01*
X135626132Y-104066024D01*
X135814727Y-104008814D01*
X135988538Y-103915910D01*
X136140883Y-103790883D01*
X136265910Y-103638538D01*
X136358814Y-103464727D01*
X136416024Y-103276132D01*
X136435341Y-103080000D01*
X139504659Y-103080000D01*
X139523975Y-103276129D01*
X139581188Y-103464733D01*
X139674086Y-103638532D01*
X139674090Y-103638539D01*
X139799116Y-103790883D01*
X139951460Y-103915909D01*
X139951467Y-103915913D01*
X140125266Y-104008811D01*
X140125269Y-104008811D01*
X140125273Y-104008814D01*
X140313868Y-104066024D01*
X140510000Y-104085341D01*
X140706132Y-104066024D01*
X140894727Y-104008814D01*
X141068538Y-103915910D01*
X141220883Y-103790883D01*
X141345910Y-103638538D01*
X141438814Y-103464727D01*
X141496024Y-103276132D01*
X141515341Y-103080000D01*
X141496024Y-102883868D01*
X141438814Y-102695273D01*
X141438811Y-102695269D01*
X141438811Y-102695266D01*
X141345913Y-102521467D01*
X141345909Y-102521460D01*
X141220883Y-102369116D01*
X141068539Y-102244090D01*
X141068532Y-102244086D01*
X140894733Y-102151188D01*
X140894727Y-102151186D01*
X140706132Y-102093976D01*
X140706129Y-102093975D01*
X140510000Y-102074659D01*
X140313870Y-102093975D01*
X140125266Y-102151188D01*
X139951467Y-102244086D01*
X139951460Y-102244090D01*
X139799116Y-102369116D01*
X139674090Y-102521460D01*
X139674086Y-102521467D01*
X139581188Y-102695266D01*
X139523975Y-102883870D01*
X139504659Y-103080000D01*
X136435341Y-103080000D01*
X136416024Y-102883868D01*
X136358814Y-102695273D01*
X136358811Y-102695269D01*
X136358811Y-102695266D01*
X136265913Y-102521467D01*
X136265909Y-102521460D01*
X136140883Y-102369116D01*
X135988539Y-102244090D01*
X135988532Y-102244086D01*
X135814733Y-102151188D01*
X135814727Y-102151186D01*
X135626132Y-102093976D01*
X135626129Y-102093975D01*
X135430000Y-102074659D01*
X135233870Y-102093975D01*
X135045266Y-102151188D01*
X134871467Y-102244086D01*
X134871460Y-102244090D01*
X134719116Y-102369116D01*
X134594090Y-102521460D01*
X134594086Y-102521467D01*
X134501188Y-102695266D01*
X134443975Y-102883870D01*
X134424659Y-103080000D01*
X133895341Y-103080000D01*
X133876024Y-102883868D01*
X133818814Y-102695273D01*
X133818811Y-102695269D01*
X133818811Y-102695266D01*
X133725913Y-102521467D01*
X133725909Y-102521460D01*
X133600883Y-102369116D01*
X133448539Y-102244090D01*
X133448532Y-102244086D01*
X133274733Y-102151188D01*
X133274727Y-102151186D01*
X133086132Y-102093976D01*
X133086129Y-102093975D01*
X132890000Y-102074659D01*
X132693870Y-102093975D01*
X132505266Y-102151188D01*
X132331467Y-102244086D01*
X132331460Y-102244090D01*
X132179116Y-102369116D01*
X132054090Y-102521460D01*
X132054086Y-102521467D01*
X131961188Y-102695266D01*
X131903975Y-102883870D01*
X131884659Y-103080000D01*
X104500500Y-103080000D01*
X104500500Y-101896153D01*
X164799500Y-101896153D01*
X164799500Y-102603846D01*
X164830261Y-102758489D01*
X164830264Y-102758501D01*
X164890602Y-102904172D01*
X164890609Y-102904185D01*
X164978210Y-103035288D01*
X164978213Y-103035292D01*
X165089707Y-103146786D01*
X165089711Y-103146789D01*
X165220814Y-103234390D01*
X165220827Y-103234397D01*
X165321586Y-103276132D01*
X165366503Y-103294737D01*
X165521153Y-103325499D01*
X165521156Y-103325500D01*
X165521158Y-103325500D01*
X165678844Y-103325500D01*
X165678845Y-103325499D01*
X165833497Y-103294737D01*
X165979179Y-103234394D01*
X166110289Y-103146789D01*
X166221789Y-103035289D01*
X166309394Y-102904179D01*
X166369737Y-102758497D01*
X166400500Y-102603842D01*
X166400500Y-101896158D01*
X166400500Y-101896155D01*
X166400499Y-101896153D01*
X166799500Y-101896153D01*
X166799500Y-102603846D01*
X166830261Y-102758489D01*
X166830264Y-102758501D01*
X166890602Y-102904172D01*
X166890609Y-102904185D01*
X166978210Y-103035288D01*
X166978213Y-103035292D01*
X167089707Y-103146786D01*
X167089711Y-103146789D01*
X167220814Y-103234390D01*
X167220827Y-103234397D01*
X167321586Y-103276132D01*
X167366503Y-103294737D01*
X167521153Y-103325499D01*
X167521156Y-103325500D01*
X167521158Y-103325500D01*
X167678844Y-103325500D01*
X167678845Y-103325499D01*
X167833497Y-103294737D01*
X167979179Y-103234394D01*
X168110289Y-103146789D01*
X168221789Y-103035289D01*
X168309394Y-102904179D01*
X168369737Y-102758497D01*
X168400500Y-102603842D01*
X168400500Y-101896158D01*
X168400500Y-101896155D01*
X168400499Y-101896153D01*
X173799500Y-101896153D01*
X173799500Y-102603846D01*
X173830261Y-102758489D01*
X173830264Y-102758501D01*
X173890602Y-102904172D01*
X173890609Y-102904185D01*
X173978210Y-103035288D01*
X173978213Y-103035292D01*
X174089707Y-103146786D01*
X174089711Y-103146789D01*
X174220814Y-103234390D01*
X174220827Y-103234397D01*
X174321586Y-103276132D01*
X174366503Y-103294737D01*
X174521153Y-103325499D01*
X174521156Y-103325500D01*
X174521158Y-103325500D01*
X174678844Y-103325500D01*
X174678845Y-103325499D01*
X174833497Y-103294737D01*
X174979179Y-103234394D01*
X175110289Y-103146789D01*
X175221789Y-103035289D01*
X175309394Y-102904179D01*
X175369737Y-102758497D01*
X175400500Y-102603842D01*
X175400500Y-101896158D01*
X175400500Y-101896155D01*
X175400499Y-101896153D01*
X175799500Y-101896153D01*
X175799500Y-102603846D01*
X175830261Y-102758489D01*
X175830264Y-102758501D01*
X175890602Y-102904172D01*
X175890609Y-102904185D01*
X175978210Y-103035288D01*
X175978213Y-103035292D01*
X176089707Y-103146786D01*
X176089711Y-103146789D01*
X176220814Y-103234390D01*
X176220827Y-103234397D01*
X176321586Y-103276132D01*
X176366503Y-103294737D01*
X176521153Y-103325499D01*
X176521156Y-103325500D01*
X176521158Y-103325500D01*
X176678844Y-103325500D01*
X176678845Y-103325499D01*
X176833497Y-103294737D01*
X176979179Y-103234394D01*
X177110289Y-103146789D01*
X177221789Y-103035289D01*
X177309394Y-102904179D01*
X177369737Y-102758497D01*
X177400500Y-102603842D01*
X177400500Y-101896158D01*
X177400500Y-101896155D01*
X177400499Y-101896153D01*
X177369738Y-101741510D01*
X177369737Y-101741503D01*
X177369735Y-101741498D01*
X177309397Y-101595827D01*
X177309390Y-101595814D01*
X177221789Y-101464711D01*
X177221786Y-101464707D01*
X177110292Y-101353213D01*
X177110288Y-101353210D01*
X176979185Y-101265609D01*
X176979172Y-101265602D01*
X176833501Y-101205264D01*
X176833489Y-101205261D01*
X176678845Y-101174500D01*
X176678842Y-101174500D01*
X176521158Y-101174500D01*
X176521155Y-101174500D01*
X176366510Y-101205261D01*
X176366498Y-101205264D01*
X176220827Y-101265602D01*
X176220814Y-101265609D01*
X176089711Y-101353210D01*
X176089707Y-101353213D01*
X175978213Y-101464707D01*
X175978210Y-101464711D01*
X175890609Y-101595814D01*
X175890602Y-101595827D01*
X175830264Y-101741498D01*
X175830261Y-101741510D01*
X175799500Y-101896153D01*
X175400499Y-101896153D01*
X175369738Y-101741510D01*
X175369737Y-101741503D01*
X175369735Y-101741498D01*
X175309397Y-101595827D01*
X175309390Y-101595814D01*
X175221789Y-101464711D01*
X175221786Y-101464707D01*
X175110292Y-101353213D01*
X175110288Y-101353210D01*
X174979185Y-101265609D01*
X174979172Y-101265602D01*
X174833501Y-101205264D01*
X174833489Y-101205261D01*
X174678845Y-101174500D01*
X174678842Y-101174500D01*
X174521158Y-101174500D01*
X174521155Y-101174500D01*
X174366510Y-101205261D01*
X174366498Y-101205264D01*
X174220827Y-101265602D01*
X174220814Y-101265609D01*
X174089711Y-101353210D01*
X174089707Y-101353213D01*
X173978213Y-101464707D01*
X173978210Y-101464711D01*
X173890609Y-101595814D01*
X173890602Y-101595827D01*
X173830264Y-101741498D01*
X173830261Y-101741510D01*
X173799500Y-101896153D01*
X168400499Y-101896153D01*
X168369738Y-101741510D01*
X168369737Y-101741503D01*
X168369735Y-101741498D01*
X168309397Y-101595827D01*
X168309390Y-101595814D01*
X168221789Y-101464711D01*
X168221786Y-101464707D01*
X168110292Y-101353213D01*
X168110288Y-101353210D01*
X167979185Y-101265609D01*
X167979172Y-101265602D01*
X167833501Y-101205264D01*
X167833489Y-101205261D01*
X167678845Y-101174500D01*
X167678842Y-101174500D01*
X167521158Y-101174500D01*
X167521155Y-101174500D01*
X167366510Y-101205261D01*
X167366498Y-101205264D01*
X167220827Y-101265602D01*
X167220814Y-101265609D01*
X167089711Y-101353210D01*
X167089707Y-101353213D01*
X166978213Y-101464707D01*
X166978210Y-101464711D01*
X166890609Y-101595814D01*
X166890602Y-101595827D01*
X166830264Y-101741498D01*
X166830261Y-101741510D01*
X166799500Y-101896153D01*
X166400499Y-101896153D01*
X166369738Y-101741510D01*
X166369737Y-101741503D01*
X166369735Y-101741498D01*
X166309397Y-101595827D01*
X166309390Y-101595814D01*
X166221789Y-101464711D01*
X166221786Y-101464707D01*
X166110292Y-101353213D01*
X166110288Y-101353210D01*
X165979185Y-101265609D01*
X165979172Y-101265602D01*
X165833501Y-101205264D01*
X165833489Y-101205261D01*
X165678845Y-101174500D01*
X165678842Y-101174500D01*
X165521158Y-101174500D01*
X165521155Y-101174500D01*
X165366510Y-101205261D01*
X165366498Y-101205264D01*
X165220827Y-101265602D01*
X165220814Y-101265609D01*
X165089711Y-101353210D01*
X165089707Y-101353213D01*
X164978213Y-101464707D01*
X164978210Y-101464711D01*
X164890609Y-101595814D01*
X164890602Y-101595827D01*
X164830264Y-101741498D01*
X164830261Y-101741510D01*
X164799500Y-101896153D01*
X104500500Y-101896153D01*
X104500500Y-100540000D01*
X131884659Y-100540000D01*
X131903975Y-100736129D01*
X131961188Y-100924733D01*
X132054086Y-101098532D01*
X132054090Y-101098539D01*
X132179116Y-101250883D01*
X132331460Y-101375909D01*
X132331467Y-101375913D01*
X132505266Y-101468811D01*
X132505269Y-101468811D01*
X132505273Y-101468814D01*
X132693868Y-101526024D01*
X132890000Y-101545341D01*
X133086132Y-101526024D01*
X133274727Y-101468814D01*
X133282404Y-101464711D01*
X133448532Y-101375913D01*
X133448538Y-101375910D01*
X133600883Y-101250883D01*
X133725910Y-101098538D01*
X133818814Y-100924727D01*
X133876024Y-100736132D01*
X133895341Y-100540000D01*
X134424659Y-100540000D01*
X134443975Y-100736129D01*
X134501188Y-100924733D01*
X134594086Y-101098532D01*
X134594090Y-101098539D01*
X134719116Y-101250883D01*
X134871460Y-101375909D01*
X134871467Y-101375913D01*
X135045266Y-101468811D01*
X135045269Y-101468811D01*
X135045273Y-101468814D01*
X135233868Y-101526024D01*
X135430000Y-101545341D01*
X135626132Y-101526024D01*
X135814727Y-101468814D01*
X135822404Y-101464711D01*
X135988532Y-101375913D01*
X135988538Y-101375910D01*
X136140883Y-101250883D01*
X136265910Y-101098538D01*
X136358814Y-100924727D01*
X136416024Y-100736132D01*
X136435341Y-100540000D01*
X139504659Y-100540000D01*
X139523975Y-100736129D01*
X139581188Y-100924733D01*
X139674086Y-101098532D01*
X139674090Y-101098539D01*
X139799116Y-101250883D01*
X139951460Y-101375909D01*
X139951467Y-101375913D01*
X140125266Y-101468811D01*
X140125269Y-101468811D01*
X140125273Y-101468814D01*
X140313868Y-101526024D01*
X140510000Y-101545341D01*
X140706132Y-101526024D01*
X140894727Y-101468814D01*
X140902404Y-101464711D01*
X141068532Y-101375913D01*
X141068538Y-101375910D01*
X141220883Y-101250883D01*
X141345910Y-101098538D01*
X141438814Y-100924727D01*
X141496024Y-100736132D01*
X141515341Y-100540000D01*
X141496024Y-100343868D01*
X141452382Y-100200000D01*
X151094353Y-100200000D01*
X151114834Y-100342456D01*
X151115479Y-100343868D01*
X151174623Y-100473373D01*
X151268872Y-100582143D01*
X151389947Y-100659953D01*
X151389950Y-100659954D01*
X151389949Y-100659954D01*
X151528036Y-100700499D01*
X151528038Y-100700500D01*
X151528039Y-100700500D01*
X151671962Y-100700500D01*
X151671962Y-100700499D01*
X151810053Y-100659953D01*
X151931128Y-100582143D01*
X152025377Y-100473373D01*
X152085165Y-100342457D01*
X152105647Y-100200000D01*
X152085165Y-100057543D01*
X152025377Y-99926627D01*
X151931128Y-99817857D01*
X151810053Y-99740047D01*
X151810051Y-99740046D01*
X151810049Y-99740045D01*
X151810050Y-99740045D01*
X151671963Y-99699500D01*
X151671961Y-99699500D01*
X151528039Y-99699500D01*
X151528036Y-99699500D01*
X151389949Y-99740045D01*
X151268873Y-99817856D01*
X151174623Y-99926626D01*
X151174622Y-99926628D01*
X151114834Y-100057543D01*
X151094353Y-100200000D01*
X141452382Y-100200000D01*
X141438814Y-100155273D01*
X141438811Y-100155269D01*
X141438811Y-100155266D01*
X141345913Y-99981467D01*
X141345909Y-99981460D01*
X141220883Y-99829116D01*
X141068539Y-99704090D01*
X141068532Y-99704086D01*
X140894733Y-99611188D01*
X140894727Y-99611186D01*
X140706132Y-99553976D01*
X140706129Y-99553975D01*
X140510000Y-99534659D01*
X140313870Y-99553975D01*
X140125266Y-99611188D01*
X139951467Y-99704086D01*
X139951460Y-99704090D01*
X139799116Y-99829116D01*
X139674090Y-99981460D01*
X139674086Y-99981467D01*
X139581188Y-100155266D01*
X139523975Y-100343870D01*
X139504659Y-100540000D01*
X136435341Y-100540000D01*
X136416024Y-100343868D01*
X136358814Y-100155273D01*
X136358811Y-100155269D01*
X136358811Y-100155266D01*
X136265913Y-99981467D01*
X136265909Y-99981460D01*
X136140883Y-99829116D01*
X135988539Y-99704090D01*
X135988532Y-99704086D01*
X135814733Y-99611188D01*
X135814727Y-99611186D01*
X135626132Y-99553976D01*
X135626129Y-99553975D01*
X135430000Y-99534659D01*
X135233870Y-99553975D01*
X135045266Y-99611188D01*
X134871467Y-99704086D01*
X134871460Y-99704090D01*
X134719116Y-99829116D01*
X134594090Y-99981460D01*
X134594086Y-99981467D01*
X134501188Y-100155266D01*
X134443975Y-100343870D01*
X134424659Y-100540000D01*
X133895341Y-100540000D01*
X133876024Y-100343868D01*
X133818814Y-100155273D01*
X133818811Y-100155269D01*
X133818811Y-100155266D01*
X133725913Y-99981467D01*
X133725909Y-99981460D01*
X133600883Y-99829116D01*
X133448539Y-99704090D01*
X133448532Y-99704086D01*
X133274733Y-99611188D01*
X133274727Y-99611186D01*
X133086132Y-99553976D01*
X133086129Y-99553975D01*
X132890000Y-99534659D01*
X132693870Y-99553975D01*
X132505266Y-99611188D01*
X132331467Y-99704086D01*
X132331460Y-99704090D01*
X132179116Y-99829116D01*
X132054090Y-99981460D01*
X132054086Y-99981467D01*
X131961188Y-100155266D01*
X131903975Y-100343870D01*
X131884659Y-100540000D01*
X104500500Y-100540000D01*
X104500500Y-98000000D01*
X131884659Y-98000000D01*
X131903975Y-98196129D01*
X131961188Y-98384733D01*
X132054086Y-98558532D01*
X132054090Y-98558539D01*
X132179116Y-98710883D01*
X132331460Y-98835909D01*
X132331467Y-98835913D01*
X132505266Y-98928811D01*
X132505269Y-98928811D01*
X132505273Y-98928814D01*
X132693868Y-98986024D01*
X132890000Y-99005341D01*
X133086132Y-98986024D01*
X133274727Y-98928814D01*
X133448538Y-98835910D01*
X133600883Y-98710883D01*
X133725910Y-98558538D01*
X133818814Y-98384727D01*
X133876024Y-98196132D01*
X133895341Y-98000000D01*
X134424659Y-98000000D01*
X134443975Y-98196129D01*
X134501188Y-98384733D01*
X134594086Y-98558532D01*
X134594090Y-98558539D01*
X134719116Y-98710883D01*
X134871460Y-98835909D01*
X134871467Y-98835913D01*
X135045266Y-98928811D01*
X135045269Y-98928811D01*
X135045273Y-98928814D01*
X135233868Y-98986024D01*
X135430000Y-99005341D01*
X135626132Y-98986024D01*
X135814727Y-98928814D01*
X135988538Y-98835910D01*
X136140883Y-98710883D01*
X136265910Y-98558538D01*
X136358814Y-98384727D01*
X136416024Y-98196132D01*
X136435341Y-98000000D01*
X136416024Y-97803868D01*
X136358814Y-97615273D01*
X136358811Y-97615269D01*
X136358811Y-97615266D01*
X136265913Y-97441467D01*
X136265909Y-97441460D01*
X136140883Y-97289116D01*
X135988539Y-97164090D01*
X135988532Y-97164086D01*
X135814733Y-97071188D01*
X135814727Y-97071186D01*
X135626132Y-97013976D01*
X135626129Y-97013975D01*
X135430000Y-96994659D01*
X135233870Y-97013975D01*
X135045266Y-97071188D01*
X134871467Y-97164086D01*
X134871460Y-97164090D01*
X134719116Y-97289116D01*
X134594090Y-97441460D01*
X134594086Y-97441467D01*
X134501188Y-97615266D01*
X134443975Y-97803870D01*
X134424659Y-98000000D01*
X133895341Y-98000000D01*
X133876024Y-97803868D01*
X133818814Y-97615273D01*
X133818811Y-97615269D01*
X133818811Y-97615266D01*
X133725913Y-97441467D01*
X133725909Y-97441460D01*
X133600883Y-97289116D01*
X133448539Y-97164090D01*
X133448532Y-97164086D01*
X133274733Y-97071188D01*
X133274727Y-97071186D01*
X133086132Y-97013976D01*
X133086129Y-97013975D01*
X132890000Y-96994659D01*
X132693870Y-97013975D01*
X132505266Y-97071188D01*
X132331467Y-97164086D01*
X132331460Y-97164090D01*
X132179116Y-97289116D01*
X132054090Y-97441460D01*
X132054086Y-97441467D01*
X131961188Y-97615266D01*
X131903975Y-97803870D01*
X131884659Y-98000000D01*
X104500500Y-98000000D01*
X104500500Y-95460000D01*
X131884659Y-95460000D01*
X131903975Y-95656129D01*
X131903976Y-95656132D01*
X131933424Y-95753210D01*
X131961188Y-95844733D01*
X132054086Y-96018532D01*
X132054090Y-96018539D01*
X132179116Y-96170883D01*
X132331460Y-96295909D01*
X132331467Y-96295913D01*
X132505266Y-96388811D01*
X132505269Y-96388811D01*
X132505273Y-96388814D01*
X132693868Y-96446024D01*
X132890000Y-96465341D01*
X133086132Y-96446024D01*
X133274727Y-96388814D01*
X133448538Y-96295910D01*
X133600883Y-96170883D01*
X133725910Y-96018538D01*
X133775037Y-95926628D01*
X133818811Y-95844733D01*
X133818811Y-95844732D01*
X133818814Y-95844727D01*
X133876024Y-95656132D01*
X133895341Y-95460000D01*
X134424659Y-95460000D01*
X134443975Y-95656129D01*
X134443976Y-95656132D01*
X134473424Y-95753210D01*
X134501188Y-95844733D01*
X134594086Y-96018532D01*
X134594090Y-96018539D01*
X134719116Y-96170883D01*
X134871460Y-96295909D01*
X134871467Y-96295913D01*
X135045266Y-96388811D01*
X135045269Y-96388811D01*
X135045273Y-96388814D01*
X135233868Y-96446024D01*
X135430000Y-96465341D01*
X135626132Y-96446024D01*
X135814727Y-96388814D01*
X135988538Y-96295910D01*
X136140883Y-96170883D01*
X136265910Y-96018538D01*
X136315037Y-95926628D01*
X136358811Y-95844733D01*
X136358811Y-95844732D01*
X136358814Y-95844727D01*
X136416024Y-95656132D01*
X136435341Y-95460000D01*
X139504659Y-95460000D01*
X139523975Y-95656129D01*
X139523976Y-95656132D01*
X139553424Y-95753210D01*
X139581188Y-95844733D01*
X139674086Y-96018532D01*
X139674090Y-96018539D01*
X139799116Y-96170883D01*
X139951460Y-96295909D01*
X139951467Y-96295913D01*
X140125266Y-96388811D01*
X140125269Y-96388811D01*
X140125273Y-96388814D01*
X140313868Y-96446024D01*
X140510000Y-96465341D01*
X140706132Y-96446024D01*
X140894727Y-96388814D01*
X141068538Y-96295910D01*
X141185404Y-96200000D01*
X142894353Y-96200000D01*
X142914834Y-96342456D01*
X142962133Y-96446024D01*
X142974623Y-96473373D01*
X143068872Y-96582143D01*
X143189947Y-96659953D01*
X143189950Y-96659954D01*
X143189949Y-96659954D01*
X143328036Y-96700499D01*
X143328038Y-96700500D01*
X143328039Y-96700500D01*
X143471962Y-96700500D01*
X143471962Y-96700499D01*
X143610053Y-96659953D01*
X143731128Y-96582143D01*
X143825377Y-96473373D01*
X143885165Y-96342457D01*
X143891822Y-96296153D01*
X164799500Y-96296153D01*
X164799500Y-97003846D01*
X164830261Y-97158489D01*
X164830264Y-97158501D01*
X164890602Y-97304172D01*
X164890609Y-97304185D01*
X164978210Y-97435288D01*
X164978213Y-97435292D01*
X165089707Y-97546786D01*
X165089711Y-97546789D01*
X165220814Y-97634390D01*
X165220827Y-97634397D01*
X165366498Y-97694735D01*
X165366503Y-97694737D01*
X165521153Y-97725499D01*
X165521156Y-97725500D01*
X165521158Y-97725500D01*
X165678844Y-97725500D01*
X165678845Y-97725499D01*
X165833497Y-97694737D01*
X165979179Y-97634394D01*
X166110289Y-97546789D01*
X166221789Y-97435289D01*
X166309394Y-97304179D01*
X166369737Y-97158497D01*
X166400500Y-97003842D01*
X166400500Y-96296158D01*
X166400500Y-96296155D01*
X166400499Y-96296153D01*
X166799500Y-96296153D01*
X166799500Y-97003846D01*
X166830261Y-97158489D01*
X166830264Y-97158501D01*
X166890602Y-97304172D01*
X166890609Y-97304185D01*
X166978210Y-97435288D01*
X166978213Y-97435292D01*
X167089707Y-97546786D01*
X167089711Y-97546789D01*
X167220814Y-97634390D01*
X167220827Y-97634397D01*
X167366498Y-97694735D01*
X167366503Y-97694737D01*
X167521153Y-97725499D01*
X167521156Y-97725500D01*
X167521158Y-97725500D01*
X167678844Y-97725500D01*
X167678845Y-97725499D01*
X167833497Y-97694737D01*
X167979179Y-97634394D01*
X168110289Y-97546789D01*
X168221789Y-97435289D01*
X168309394Y-97304179D01*
X168369737Y-97158497D01*
X168400500Y-97003842D01*
X168400500Y-96296158D01*
X168400500Y-96296155D01*
X168400499Y-96296153D01*
X173799500Y-96296153D01*
X173799500Y-97003846D01*
X173830261Y-97158489D01*
X173830264Y-97158501D01*
X173890602Y-97304172D01*
X173890609Y-97304185D01*
X173978210Y-97435288D01*
X173978213Y-97435292D01*
X174089707Y-97546786D01*
X174089711Y-97546789D01*
X174220814Y-97634390D01*
X174220827Y-97634397D01*
X174366498Y-97694735D01*
X174366503Y-97694737D01*
X174521153Y-97725499D01*
X174521156Y-97725500D01*
X174521158Y-97725500D01*
X174678844Y-97725500D01*
X174678845Y-97725499D01*
X174833497Y-97694737D01*
X174979179Y-97634394D01*
X175110289Y-97546789D01*
X175221789Y-97435289D01*
X175309394Y-97304179D01*
X175369737Y-97158497D01*
X175400500Y-97003842D01*
X175400500Y-96296158D01*
X175400500Y-96296155D01*
X175400499Y-96296153D01*
X175799500Y-96296153D01*
X175799500Y-97003846D01*
X175830261Y-97158489D01*
X175830264Y-97158501D01*
X175890602Y-97304172D01*
X175890609Y-97304185D01*
X175978210Y-97435288D01*
X175978213Y-97435292D01*
X176089707Y-97546786D01*
X176089711Y-97546789D01*
X176220814Y-97634390D01*
X176220827Y-97634397D01*
X176366498Y-97694735D01*
X176366503Y-97694737D01*
X176521153Y-97725499D01*
X176521156Y-97725500D01*
X176521158Y-97725500D01*
X176678844Y-97725500D01*
X176678845Y-97725499D01*
X176833497Y-97694737D01*
X176979179Y-97634394D01*
X177110289Y-97546789D01*
X177221789Y-97435289D01*
X177309394Y-97304179D01*
X177369737Y-97158497D01*
X177400500Y-97003842D01*
X177400500Y-96296158D01*
X177400500Y-96296155D01*
X177400499Y-96296153D01*
X177369738Y-96141510D01*
X177369737Y-96141503D01*
X177318804Y-96018538D01*
X177309397Y-95995827D01*
X177309390Y-95995814D01*
X177221789Y-95864711D01*
X177221786Y-95864707D01*
X177110292Y-95753213D01*
X177110288Y-95753210D01*
X176979185Y-95665609D01*
X176979172Y-95665602D01*
X176833501Y-95605264D01*
X176833489Y-95605261D01*
X176678845Y-95574500D01*
X176678842Y-95574500D01*
X176521158Y-95574500D01*
X176521155Y-95574500D01*
X176366510Y-95605261D01*
X176366498Y-95605264D01*
X176220827Y-95665602D01*
X176220814Y-95665609D01*
X176089711Y-95753210D01*
X176089707Y-95753213D01*
X175978213Y-95864707D01*
X175978210Y-95864711D01*
X175890609Y-95995814D01*
X175890602Y-95995827D01*
X175830264Y-96141498D01*
X175830261Y-96141510D01*
X175799500Y-96296153D01*
X175400499Y-96296153D01*
X175369738Y-96141510D01*
X175369737Y-96141503D01*
X175318804Y-96018538D01*
X175309397Y-95995827D01*
X175309390Y-95995814D01*
X175221789Y-95864711D01*
X175221786Y-95864707D01*
X175110292Y-95753213D01*
X175110288Y-95753210D01*
X174979185Y-95665609D01*
X174979172Y-95665602D01*
X174833501Y-95605264D01*
X174833489Y-95605261D01*
X174678845Y-95574500D01*
X174678842Y-95574500D01*
X174521158Y-95574500D01*
X174521155Y-95574500D01*
X174366510Y-95605261D01*
X174366498Y-95605264D01*
X174220827Y-95665602D01*
X174220814Y-95665609D01*
X174089711Y-95753210D01*
X174089707Y-95753213D01*
X173978213Y-95864707D01*
X173978210Y-95864711D01*
X173890609Y-95995814D01*
X173890602Y-95995827D01*
X173830264Y-96141498D01*
X173830261Y-96141510D01*
X173799500Y-96296153D01*
X168400499Y-96296153D01*
X168369738Y-96141510D01*
X168369737Y-96141503D01*
X168318804Y-96018538D01*
X168309397Y-95995827D01*
X168309390Y-95995814D01*
X168221789Y-95864711D01*
X168221786Y-95864707D01*
X168110292Y-95753213D01*
X168110288Y-95753210D01*
X167979185Y-95665609D01*
X167979172Y-95665602D01*
X167833501Y-95605264D01*
X167833489Y-95605261D01*
X167678845Y-95574500D01*
X167678842Y-95574500D01*
X167521158Y-95574500D01*
X167521155Y-95574500D01*
X167366510Y-95605261D01*
X167366498Y-95605264D01*
X167220827Y-95665602D01*
X167220814Y-95665609D01*
X167089711Y-95753210D01*
X167089707Y-95753213D01*
X166978213Y-95864707D01*
X166978210Y-95864711D01*
X166890609Y-95995814D01*
X166890602Y-95995827D01*
X166830264Y-96141498D01*
X166830261Y-96141510D01*
X166799500Y-96296153D01*
X166400499Y-96296153D01*
X166369738Y-96141510D01*
X166369737Y-96141503D01*
X166318804Y-96018538D01*
X166309397Y-95995827D01*
X166309390Y-95995814D01*
X166221789Y-95864711D01*
X166221786Y-95864707D01*
X166110292Y-95753213D01*
X166110288Y-95753210D01*
X165979185Y-95665609D01*
X165979172Y-95665602D01*
X165833501Y-95605264D01*
X165833489Y-95605261D01*
X165678845Y-95574500D01*
X165678842Y-95574500D01*
X165521158Y-95574500D01*
X165521155Y-95574500D01*
X165366510Y-95605261D01*
X165366498Y-95605264D01*
X165220827Y-95665602D01*
X165220814Y-95665609D01*
X165089711Y-95753210D01*
X165089707Y-95753213D01*
X164978213Y-95864707D01*
X164978210Y-95864711D01*
X164890609Y-95995814D01*
X164890602Y-95995827D01*
X164830264Y-96141498D01*
X164830261Y-96141510D01*
X164799500Y-96296153D01*
X143891822Y-96296153D01*
X143905647Y-96200000D01*
X143885165Y-96057543D01*
X143825377Y-95926627D01*
X143731128Y-95817857D01*
X143610053Y-95740047D01*
X143610051Y-95740046D01*
X143610049Y-95740045D01*
X143610050Y-95740045D01*
X143471963Y-95699500D01*
X143471961Y-95699500D01*
X143328039Y-95699500D01*
X143328036Y-95699500D01*
X143189949Y-95740045D01*
X143068873Y-95817856D01*
X142974623Y-95926626D01*
X142974622Y-95926628D01*
X142914834Y-96057543D01*
X142894353Y-96200000D01*
X141185404Y-96200000D01*
X141220883Y-96170883D01*
X141345910Y-96018538D01*
X141395037Y-95926628D01*
X141438811Y-95844733D01*
X141438811Y-95844732D01*
X141438814Y-95844727D01*
X141496024Y-95656132D01*
X141515341Y-95460000D01*
X141496024Y-95263868D01*
X141438814Y-95075273D01*
X141438811Y-95075269D01*
X141438811Y-95075266D01*
X141345913Y-94901467D01*
X141345909Y-94901460D01*
X141220883Y-94749116D01*
X141068539Y-94624090D01*
X141068532Y-94624086D01*
X140894733Y-94531188D01*
X140894727Y-94531186D01*
X140706132Y-94473976D01*
X140706129Y-94473975D01*
X140510000Y-94454659D01*
X140313870Y-94473975D01*
X140125266Y-94531188D01*
X139951467Y-94624086D01*
X139951460Y-94624090D01*
X139799116Y-94749116D01*
X139674090Y-94901460D01*
X139674086Y-94901467D01*
X139581188Y-95075266D01*
X139523975Y-95263870D01*
X139504659Y-95460000D01*
X136435341Y-95460000D01*
X136416024Y-95263868D01*
X136358814Y-95075273D01*
X136358811Y-95075269D01*
X136358811Y-95075266D01*
X136265913Y-94901467D01*
X136265909Y-94901460D01*
X136140883Y-94749116D01*
X135988539Y-94624090D01*
X135988532Y-94624086D01*
X135814733Y-94531188D01*
X135814727Y-94531186D01*
X135626132Y-94473976D01*
X135626129Y-94473975D01*
X135430000Y-94454659D01*
X135233870Y-94473975D01*
X135045266Y-94531188D01*
X134871467Y-94624086D01*
X134871460Y-94624090D01*
X134719116Y-94749116D01*
X134594090Y-94901460D01*
X134594086Y-94901467D01*
X134501188Y-95075266D01*
X134443975Y-95263870D01*
X134424659Y-95460000D01*
X133895341Y-95460000D01*
X133876024Y-95263868D01*
X133818814Y-95075273D01*
X133818811Y-95075269D01*
X133818811Y-95075266D01*
X133725913Y-94901467D01*
X133725909Y-94901460D01*
X133600883Y-94749116D01*
X133448539Y-94624090D01*
X133448532Y-94624086D01*
X133274733Y-94531188D01*
X133274727Y-94531186D01*
X133086132Y-94473976D01*
X133086129Y-94473975D01*
X132890000Y-94454659D01*
X132693870Y-94473975D01*
X132505266Y-94531188D01*
X132331467Y-94624086D01*
X132331460Y-94624090D01*
X132179116Y-94749116D01*
X132054090Y-94901460D01*
X132054086Y-94901467D01*
X131961188Y-95075266D01*
X131903975Y-95263870D01*
X131884659Y-95460000D01*
X104500500Y-95460000D01*
X104500500Y-94300000D01*
X137694353Y-94300000D01*
X137714834Y-94442456D01*
X137774622Y-94573371D01*
X137774623Y-94573373D01*
X137868872Y-94682143D01*
X137989947Y-94759953D01*
X137989950Y-94759954D01*
X137989949Y-94759954D01*
X138128036Y-94800499D01*
X138128038Y-94800500D01*
X138128039Y-94800500D01*
X138271962Y-94800500D01*
X138271962Y-94800499D01*
X138410053Y-94759953D01*
X138531128Y-94682143D01*
X138625377Y-94573373D01*
X138685165Y-94442457D01*
X138705647Y-94300000D01*
X138685165Y-94157543D01*
X138625377Y-94026627D01*
X138531128Y-93917857D01*
X138410053Y-93840047D01*
X138410051Y-93840046D01*
X138410049Y-93840045D01*
X138410050Y-93840045D01*
X138271963Y-93799500D01*
X138271961Y-93799500D01*
X138128039Y-93799500D01*
X138128036Y-93799500D01*
X137989949Y-93840045D01*
X137868873Y-93917856D01*
X137774623Y-94026626D01*
X137774622Y-94026628D01*
X137714834Y-94157543D01*
X137694353Y-94300000D01*
X104500500Y-94300000D01*
X104500500Y-92920000D01*
X109024659Y-92920000D01*
X109043975Y-93116129D01*
X109101188Y-93304733D01*
X109194086Y-93478532D01*
X109194090Y-93478539D01*
X109319116Y-93630883D01*
X109471460Y-93755909D01*
X109471467Y-93755913D01*
X109645266Y-93848811D01*
X109645269Y-93848811D01*
X109645273Y-93848814D01*
X109833868Y-93906024D01*
X110030000Y-93925341D01*
X110226132Y-93906024D01*
X110414727Y-93848814D01*
X110472644Y-93817857D01*
X110588532Y-93755913D01*
X110588538Y-93755910D01*
X110740883Y-93630883D01*
X110865910Y-93478538D01*
X110938647Y-93342457D01*
X110958811Y-93304733D01*
X110958811Y-93304732D01*
X110958814Y-93304727D01*
X111016024Y-93116132D01*
X111035341Y-92920000D01*
X131884659Y-92920000D01*
X131903975Y-93116129D01*
X131961188Y-93304733D01*
X132054086Y-93478532D01*
X132054090Y-93478539D01*
X132179116Y-93630883D01*
X132331460Y-93755909D01*
X132331467Y-93755913D01*
X132505266Y-93848811D01*
X132505269Y-93848811D01*
X132505273Y-93848814D01*
X132693868Y-93906024D01*
X132890000Y-93925341D01*
X133086132Y-93906024D01*
X133274727Y-93848814D01*
X133332644Y-93817857D01*
X133448532Y-93755913D01*
X133448538Y-93755910D01*
X133600883Y-93630883D01*
X133725910Y-93478538D01*
X133798647Y-93342457D01*
X133818811Y-93304733D01*
X133818811Y-93304732D01*
X133818814Y-93304727D01*
X133876024Y-93116132D01*
X133895341Y-92920000D01*
X134424659Y-92920000D01*
X134443975Y-93116129D01*
X134501188Y-93304733D01*
X134594086Y-93478532D01*
X134594090Y-93478539D01*
X134719116Y-93630883D01*
X134871460Y-93755909D01*
X134871467Y-93755913D01*
X135045266Y-93848811D01*
X135045269Y-93848811D01*
X135045273Y-93848814D01*
X135233868Y-93906024D01*
X135430000Y-93925341D01*
X135626132Y-93906024D01*
X135814727Y-93848814D01*
X135872644Y-93817857D01*
X135988532Y-93755913D01*
X135988538Y-93755910D01*
X136140883Y-93630883D01*
X136265910Y-93478538D01*
X136338647Y-93342457D01*
X136358811Y-93304733D01*
X136358811Y-93304732D01*
X136358814Y-93304727D01*
X136416024Y-93116132D01*
X136435341Y-92920000D01*
X139504659Y-92920000D01*
X139523975Y-93116129D01*
X139581188Y-93304733D01*
X139674086Y-93478532D01*
X139674090Y-93478539D01*
X139799116Y-93630883D01*
X139951460Y-93755909D01*
X139951467Y-93755913D01*
X140125266Y-93848811D01*
X140125269Y-93848811D01*
X140125273Y-93848814D01*
X140313868Y-93906024D01*
X140510000Y-93925341D01*
X140706132Y-93906024D01*
X140894727Y-93848814D01*
X140952644Y-93817857D01*
X141068532Y-93755913D01*
X141068538Y-93755910D01*
X141220883Y-93630883D01*
X141345910Y-93478538D01*
X141418647Y-93342457D01*
X141438811Y-93304733D01*
X141438811Y-93304732D01*
X141438814Y-93304727D01*
X141470583Y-93200000D01*
X149494353Y-93200000D01*
X149514834Y-93342456D01*
X149532327Y-93380759D01*
X149574623Y-93473373D01*
X149668872Y-93582143D01*
X149676324Y-93586932D01*
X149689943Y-93595685D01*
X149735698Y-93648489D01*
X149745641Y-93717648D01*
X149716615Y-93781203D01*
X149689943Y-93804315D01*
X149668874Y-93817855D01*
X149574623Y-93926626D01*
X149574622Y-93926628D01*
X149514834Y-94057543D01*
X149494353Y-94200000D01*
X149514834Y-94342456D01*
X149574622Y-94473371D01*
X149574623Y-94473373D01*
X149668872Y-94582143D01*
X149789947Y-94659953D01*
X149789950Y-94659954D01*
X149789949Y-94659954D01*
X149928036Y-94700499D01*
X149928038Y-94700500D01*
X149928039Y-94700500D01*
X150071962Y-94700500D01*
X150071962Y-94700499D01*
X150210053Y-94659953D01*
X150331128Y-94582143D01*
X150425377Y-94473373D01*
X150485165Y-94342457D01*
X150505647Y-94200000D01*
X150485165Y-94057543D01*
X150425377Y-93926627D01*
X150331128Y-93817857D01*
X150331125Y-93817855D01*
X150331125Y-93817854D01*
X150310058Y-93804316D01*
X150264302Y-93751513D01*
X150254358Y-93682354D01*
X150283382Y-93618798D01*
X150310058Y-93595684D01*
X150331125Y-93582145D01*
X150331125Y-93582144D01*
X150331128Y-93582143D01*
X150421350Y-93478020D01*
X150480124Y-93440248D01*
X150549994Y-93440248D01*
X150582100Y-93454910D01*
X150589948Y-93459954D01*
X150728036Y-93500499D01*
X150728038Y-93500500D01*
X150728039Y-93500500D01*
X150871962Y-93500500D01*
X150871962Y-93500499D01*
X151010053Y-93459953D01*
X151131128Y-93382143D01*
X151225377Y-93273373D01*
X151285165Y-93142457D01*
X151305647Y-93000000D01*
X151285165Y-92857543D01*
X151225377Y-92726627D01*
X151131128Y-92617857D01*
X151010053Y-92540047D01*
X151010051Y-92540046D01*
X151010049Y-92540045D01*
X151010050Y-92540045D01*
X150871963Y-92499500D01*
X150871961Y-92499500D01*
X150728039Y-92499500D01*
X150728036Y-92499500D01*
X150589949Y-92540045D01*
X150468873Y-92617856D01*
X150378652Y-92721977D01*
X150319874Y-92759751D01*
X150250004Y-92759751D01*
X150217901Y-92745090D01*
X150210053Y-92740046D01*
X150210050Y-92740045D01*
X150071963Y-92699500D01*
X150071961Y-92699500D01*
X149928039Y-92699500D01*
X149928036Y-92699500D01*
X149789949Y-92740045D01*
X149668873Y-92817856D01*
X149574623Y-92926626D01*
X149574622Y-92926628D01*
X149514834Y-93057543D01*
X149494353Y-93200000D01*
X141470583Y-93200000D01*
X141496024Y-93116132D01*
X141515341Y-92920000D01*
X141496024Y-92723868D01*
X141438814Y-92535273D01*
X141438811Y-92535269D01*
X141438811Y-92535266D01*
X141345913Y-92361467D01*
X141345909Y-92361460D01*
X141220883Y-92209116D01*
X141068539Y-92084090D01*
X141068532Y-92084086D01*
X140894733Y-91991188D01*
X140894727Y-91991186D01*
X140706132Y-91933976D01*
X140706129Y-91933975D01*
X140510000Y-91914659D01*
X140313870Y-91933975D01*
X140125266Y-91991188D01*
X139951467Y-92084086D01*
X139951460Y-92084090D01*
X139799116Y-92209116D01*
X139674090Y-92361460D01*
X139674086Y-92361467D01*
X139581188Y-92535266D01*
X139523975Y-92723870D01*
X139504659Y-92920000D01*
X136435341Y-92920000D01*
X136416024Y-92723868D01*
X136358814Y-92535273D01*
X136358811Y-92535269D01*
X136358811Y-92535266D01*
X136265913Y-92361467D01*
X136265909Y-92361460D01*
X136140883Y-92209116D01*
X135988539Y-92084090D01*
X135988532Y-92084086D01*
X135814733Y-91991188D01*
X135814727Y-91991186D01*
X135626132Y-91933976D01*
X135626129Y-91933975D01*
X135430000Y-91914659D01*
X135233870Y-91933975D01*
X135045266Y-91991188D01*
X134871467Y-92084086D01*
X134871460Y-92084090D01*
X134719116Y-92209116D01*
X134594090Y-92361460D01*
X134594086Y-92361467D01*
X134501188Y-92535266D01*
X134443975Y-92723870D01*
X134424659Y-92920000D01*
X133895341Y-92920000D01*
X133876024Y-92723868D01*
X133818814Y-92535273D01*
X133818811Y-92535269D01*
X133818811Y-92535266D01*
X133725913Y-92361467D01*
X133725909Y-92361460D01*
X133600883Y-92209116D01*
X133448539Y-92084090D01*
X133448532Y-92084086D01*
X133274733Y-91991188D01*
X133274727Y-91991186D01*
X133086132Y-91933976D01*
X133086129Y-91933975D01*
X132890000Y-91914659D01*
X132693870Y-91933975D01*
X132505266Y-91991188D01*
X132331467Y-92084086D01*
X132331460Y-92084090D01*
X132179116Y-92209116D01*
X132054090Y-92361460D01*
X132054086Y-92361467D01*
X131961188Y-92535266D01*
X131903975Y-92723870D01*
X131884659Y-92920000D01*
X111035341Y-92920000D01*
X111016024Y-92723868D01*
X110958814Y-92535273D01*
X110958811Y-92535269D01*
X110958811Y-92535266D01*
X110865913Y-92361467D01*
X110865909Y-92361460D01*
X110740883Y-92209116D01*
X110588539Y-92084090D01*
X110588532Y-92084086D01*
X110414733Y-91991188D01*
X110414727Y-91991186D01*
X110226132Y-91933976D01*
X110226129Y-91933975D01*
X110030000Y-91914659D01*
X109833870Y-91933975D01*
X109645266Y-91991188D01*
X109471467Y-92084086D01*
X109471460Y-92084090D01*
X109319116Y-92209116D01*
X109194090Y-92361460D01*
X109194086Y-92361467D01*
X109101188Y-92535266D01*
X109043975Y-92723870D01*
X109024659Y-92920000D01*
X104500500Y-92920000D01*
X104500500Y-90380000D01*
X106484659Y-90380000D01*
X106503975Y-90576129D01*
X106561188Y-90764733D01*
X106654086Y-90938532D01*
X106654090Y-90938539D01*
X106779116Y-91090883D01*
X106931460Y-91215909D01*
X106931467Y-91215913D01*
X107105266Y-91308811D01*
X107105269Y-91308811D01*
X107105273Y-91308814D01*
X107293868Y-91366024D01*
X107490000Y-91385341D01*
X107686132Y-91366024D01*
X107874727Y-91308814D01*
X108048538Y-91215910D01*
X108200883Y-91090883D01*
X108325910Y-90938538D01*
X108418814Y-90764727D01*
X108476024Y-90576132D01*
X108495341Y-90380000D01*
X111564659Y-90380000D01*
X111583975Y-90576129D01*
X111641188Y-90764733D01*
X111734086Y-90938532D01*
X111734090Y-90938539D01*
X111859116Y-91090883D01*
X112011460Y-91215909D01*
X112011467Y-91215913D01*
X112185266Y-91308811D01*
X112185269Y-91308811D01*
X112185273Y-91308814D01*
X112373868Y-91366024D01*
X112570000Y-91385341D01*
X112766132Y-91366024D01*
X112954727Y-91308814D01*
X113128538Y-91215910D01*
X113280883Y-91090883D01*
X113405910Y-90938538D01*
X113498814Y-90764727D01*
X113556024Y-90576132D01*
X113575341Y-90380000D01*
X114104659Y-90380000D01*
X114123975Y-90576129D01*
X114181188Y-90764733D01*
X114274086Y-90938532D01*
X114274090Y-90938539D01*
X114399116Y-91090883D01*
X114551460Y-91215909D01*
X114551467Y-91215913D01*
X114725266Y-91308811D01*
X114725269Y-91308811D01*
X114725273Y-91308814D01*
X114913868Y-91366024D01*
X115110000Y-91385341D01*
X115306132Y-91366024D01*
X115494727Y-91308814D01*
X115668538Y-91215910D01*
X115820883Y-91090883D01*
X115945910Y-90938538D01*
X116038814Y-90764727D01*
X116096024Y-90576132D01*
X116115341Y-90380000D01*
X116644659Y-90380000D01*
X116663975Y-90576129D01*
X116721188Y-90764733D01*
X116814086Y-90938532D01*
X116814090Y-90938539D01*
X116939116Y-91090883D01*
X117091460Y-91215909D01*
X117091467Y-91215913D01*
X117265266Y-91308811D01*
X117265269Y-91308811D01*
X117265273Y-91308814D01*
X117453868Y-91366024D01*
X117650000Y-91385341D01*
X117846132Y-91366024D01*
X118034727Y-91308814D01*
X118208538Y-91215910D01*
X118360883Y-91090883D01*
X118485910Y-90938538D01*
X118578814Y-90764727D01*
X118636024Y-90576132D01*
X118655341Y-90380000D01*
X119184659Y-90380000D01*
X119203975Y-90576129D01*
X119261188Y-90764733D01*
X119354086Y-90938532D01*
X119354090Y-90938539D01*
X119479116Y-91090883D01*
X119631460Y-91215909D01*
X119631467Y-91215913D01*
X119805266Y-91308811D01*
X119805269Y-91308811D01*
X119805273Y-91308814D01*
X119993868Y-91366024D01*
X120190000Y-91385341D01*
X120386132Y-91366024D01*
X120574727Y-91308814D01*
X120748538Y-91215910D01*
X120900883Y-91090883D01*
X121025910Y-90938538D01*
X121118814Y-90764727D01*
X121176024Y-90576132D01*
X121195341Y-90380000D01*
X121724659Y-90380000D01*
X121743975Y-90576129D01*
X121801188Y-90764733D01*
X121894086Y-90938532D01*
X121894090Y-90938539D01*
X122019116Y-91090883D01*
X122171460Y-91215909D01*
X122171467Y-91215913D01*
X122345266Y-91308811D01*
X122345269Y-91308811D01*
X122345273Y-91308814D01*
X122533868Y-91366024D01*
X122730000Y-91385341D01*
X122926132Y-91366024D01*
X123114727Y-91308814D01*
X123288538Y-91215910D01*
X123440883Y-91090883D01*
X123565910Y-90938538D01*
X123658814Y-90764727D01*
X123716024Y-90576132D01*
X123735341Y-90380000D01*
X124264659Y-90380000D01*
X124283975Y-90576129D01*
X124341188Y-90764733D01*
X124434086Y-90938532D01*
X124434090Y-90938539D01*
X124559116Y-91090883D01*
X124711460Y-91215909D01*
X124711467Y-91215913D01*
X124885266Y-91308811D01*
X124885269Y-91308811D01*
X124885273Y-91308814D01*
X125073868Y-91366024D01*
X125270000Y-91385341D01*
X125466132Y-91366024D01*
X125654727Y-91308814D01*
X125828538Y-91215910D01*
X125980883Y-91090883D01*
X126105910Y-90938538D01*
X126198814Y-90764727D01*
X126256024Y-90576132D01*
X126275341Y-90380000D01*
X126804659Y-90380000D01*
X126823975Y-90576129D01*
X126881188Y-90764733D01*
X126974086Y-90938532D01*
X126974090Y-90938539D01*
X127099116Y-91090883D01*
X127251460Y-91215909D01*
X127251467Y-91215913D01*
X127425266Y-91308811D01*
X127425269Y-91308811D01*
X127425273Y-91308814D01*
X127613868Y-91366024D01*
X127810000Y-91385341D01*
X128006132Y-91366024D01*
X128194727Y-91308814D01*
X128368538Y-91215910D01*
X128520883Y-91090883D01*
X128645910Y-90938538D01*
X128738814Y-90764727D01*
X128796024Y-90576132D01*
X128815341Y-90380000D01*
X129344659Y-90380000D01*
X129363975Y-90576129D01*
X129421188Y-90764733D01*
X129514086Y-90938532D01*
X129514090Y-90938539D01*
X129639116Y-91090883D01*
X129791460Y-91215909D01*
X129791467Y-91215913D01*
X129965266Y-91308811D01*
X129965269Y-91308811D01*
X129965273Y-91308814D01*
X130153868Y-91366024D01*
X130350000Y-91385341D01*
X130546132Y-91366024D01*
X130734727Y-91308814D01*
X130908538Y-91215910D01*
X131060883Y-91090883D01*
X131185910Y-90938538D01*
X131278814Y-90764727D01*
X131336024Y-90576132D01*
X131355341Y-90380000D01*
X131884659Y-90380000D01*
X131903975Y-90576129D01*
X131961188Y-90764733D01*
X132054086Y-90938532D01*
X132054090Y-90938539D01*
X132179116Y-91090883D01*
X132331460Y-91215909D01*
X132331467Y-91215913D01*
X132505266Y-91308811D01*
X132505269Y-91308811D01*
X132505273Y-91308814D01*
X132693868Y-91366024D01*
X132890000Y-91385341D01*
X133086132Y-91366024D01*
X133274727Y-91308814D01*
X133448538Y-91215910D01*
X133600883Y-91090883D01*
X133725910Y-90938538D01*
X133818814Y-90764727D01*
X133876024Y-90576132D01*
X133895341Y-90380000D01*
X134424659Y-90380000D01*
X134443975Y-90576129D01*
X134501188Y-90764733D01*
X134594086Y-90938532D01*
X134594090Y-90938539D01*
X134719116Y-91090883D01*
X134871460Y-91215909D01*
X134871467Y-91215913D01*
X135045266Y-91308811D01*
X135045269Y-91308811D01*
X135045273Y-91308814D01*
X135233868Y-91366024D01*
X135430000Y-91385341D01*
X135626132Y-91366024D01*
X135814727Y-91308814D01*
X135988538Y-91215910D01*
X136140883Y-91090883D01*
X136265910Y-90938538D01*
X136358814Y-90764727D01*
X136416024Y-90576132D01*
X136435341Y-90380000D01*
X136964659Y-90380000D01*
X136983975Y-90576129D01*
X137041188Y-90764733D01*
X137134086Y-90938532D01*
X137134090Y-90938539D01*
X137259116Y-91090883D01*
X137411460Y-91215909D01*
X137411467Y-91215913D01*
X137585266Y-91308811D01*
X137585269Y-91308811D01*
X137585273Y-91308814D01*
X137773868Y-91366024D01*
X137970000Y-91385341D01*
X138166132Y-91366024D01*
X138354727Y-91308814D01*
X138528538Y-91215910D01*
X138680883Y-91090883D01*
X138805910Y-90938538D01*
X138898814Y-90764727D01*
X138956024Y-90576132D01*
X138975341Y-90380000D01*
X139504659Y-90380000D01*
X139523975Y-90576129D01*
X139581188Y-90764733D01*
X139674086Y-90938532D01*
X139674090Y-90938539D01*
X139799116Y-91090883D01*
X139951460Y-91215909D01*
X139951467Y-91215913D01*
X140125266Y-91308811D01*
X140125269Y-91308811D01*
X140125273Y-91308814D01*
X140313868Y-91366024D01*
X140510000Y-91385341D01*
X140706132Y-91366024D01*
X140894727Y-91308814D01*
X141068538Y-91215910D01*
X141209774Y-91100000D01*
X144194353Y-91100000D01*
X144214834Y-91242456D01*
X144265703Y-91353842D01*
X144274623Y-91373373D01*
X144368872Y-91482143D01*
X144489947Y-91559953D01*
X144489950Y-91559954D01*
X144489949Y-91559954D01*
X144628036Y-91600499D01*
X144628038Y-91600500D01*
X144628039Y-91600500D01*
X144771962Y-91600500D01*
X144771962Y-91600499D01*
X144910053Y-91559953D01*
X145031128Y-91482143D01*
X145125377Y-91373373D01*
X145185165Y-91242457D01*
X145205647Y-91100000D01*
X145185165Y-90957543D01*
X145125377Y-90826627D01*
X145031128Y-90717857D01*
X144997356Y-90696153D01*
X164799500Y-90696153D01*
X164799500Y-91403846D01*
X164830261Y-91558489D01*
X164830264Y-91558501D01*
X164890602Y-91704172D01*
X164890609Y-91704185D01*
X164978210Y-91835288D01*
X164978213Y-91835292D01*
X165089707Y-91946786D01*
X165089711Y-91946789D01*
X165220814Y-92034390D01*
X165220827Y-92034397D01*
X165366498Y-92094735D01*
X165366503Y-92094737D01*
X165521153Y-92125499D01*
X165521156Y-92125500D01*
X165521158Y-92125500D01*
X165678844Y-92125500D01*
X165678845Y-92125499D01*
X165833497Y-92094737D01*
X165979179Y-92034394D01*
X166110289Y-91946789D01*
X166221789Y-91835289D01*
X166309394Y-91704179D01*
X166369737Y-91558497D01*
X166400500Y-91403842D01*
X166400500Y-90696158D01*
X166400500Y-90696155D01*
X166400499Y-90696153D01*
X166799500Y-90696153D01*
X166799500Y-91403846D01*
X166830261Y-91558489D01*
X166830264Y-91558501D01*
X166890602Y-91704172D01*
X166890609Y-91704185D01*
X166978210Y-91835288D01*
X166978213Y-91835292D01*
X167089707Y-91946786D01*
X167089711Y-91946789D01*
X167220814Y-92034390D01*
X167220827Y-92034397D01*
X167366498Y-92094735D01*
X167366503Y-92094737D01*
X167521153Y-92125499D01*
X167521156Y-92125500D01*
X167521158Y-92125500D01*
X167678844Y-92125500D01*
X167678845Y-92125499D01*
X167833497Y-92094737D01*
X167979179Y-92034394D01*
X168110289Y-91946789D01*
X168221789Y-91835289D01*
X168309394Y-91704179D01*
X168369737Y-91558497D01*
X168400500Y-91403842D01*
X168400500Y-90696158D01*
X168400500Y-90696155D01*
X168400499Y-90696153D01*
X168390553Y-90646153D01*
X173799500Y-90646153D01*
X173799500Y-91353846D01*
X173830261Y-91508489D01*
X173830264Y-91508501D01*
X173890602Y-91654172D01*
X173890609Y-91654185D01*
X173978210Y-91785288D01*
X173978213Y-91785292D01*
X174089707Y-91896786D01*
X174089711Y-91896789D01*
X174220814Y-91984390D01*
X174220827Y-91984397D01*
X174366498Y-92044735D01*
X174366503Y-92044737D01*
X174521153Y-92075499D01*
X174521156Y-92075500D01*
X174521158Y-92075500D01*
X174678844Y-92075500D01*
X174678845Y-92075499D01*
X174833497Y-92044737D01*
X174979179Y-91984394D01*
X175110289Y-91896789D01*
X175221789Y-91785289D01*
X175309394Y-91654179D01*
X175369737Y-91508497D01*
X175400500Y-91353842D01*
X175400500Y-90646158D01*
X175400500Y-90646155D01*
X175400499Y-90646153D01*
X175799500Y-90646153D01*
X175799500Y-91353846D01*
X175830261Y-91508489D01*
X175830264Y-91508501D01*
X175890602Y-91654172D01*
X175890609Y-91654185D01*
X175978210Y-91785288D01*
X175978213Y-91785292D01*
X176089707Y-91896786D01*
X176089711Y-91896789D01*
X176220814Y-91984390D01*
X176220827Y-91984397D01*
X176366498Y-92044735D01*
X176366503Y-92044737D01*
X176521153Y-92075499D01*
X176521156Y-92075500D01*
X176521158Y-92075500D01*
X176678844Y-92075500D01*
X176678845Y-92075499D01*
X176833497Y-92044737D01*
X176979179Y-91984394D01*
X177110289Y-91896789D01*
X177221789Y-91785289D01*
X177309394Y-91654179D01*
X177369737Y-91508497D01*
X177400500Y-91353842D01*
X177400500Y-90646158D01*
X177400500Y-90646155D01*
X177400499Y-90646153D01*
X177379684Y-90541510D01*
X177369737Y-90491503D01*
X177330102Y-90395814D01*
X177309397Y-90345827D01*
X177309390Y-90345814D01*
X177221789Y-90214711D01*
X177221786Y-90214707D01*
X177110292Y-90103213D01*
X177110288Y-90103210D01*
X176979185Y-90015609D01*
X176979172Y-90015602D01*
X176833501Y-89955264D01*
X176833489Y-89955261D01*
X176678845Y-89924500D01*
X176678842Y-89924500D01*
X176521158Y-89924500D01*
X176521155Y-89924500D01*
X176366510Y-89955261D01*
X176366498Y-89955264D01*
X176220827Y-90015602D01*
X176220814Y-90015609D01*
X176089711Y-90103210D01*
X176089707Y-90103213D01*
X175978213Y-90214707D01*
X175978210Y-90214711D01*
X175890609Y-90345814D01*
X175890602Y-90345827D01*
X175830264Y-90491498D01*
X175830261Y-90491510D01*
X175799500Y-90646153D01*
X175400499Y-90646153D01*
X175379684Y-90541510D01*
X175369737Y-90491503D01*
X175330102Y-90395814D01*
X175309397Y-90345827D01*
X175309390Y-90345814D01*
X175221789Y-90214711D01*
X175221786Y-90214707D01*
X175110292Y-90103213D01*
X175110288Y-90103210D01*
X174979185Y-90015609D01*
X174979172Y-90015602D01*
X174833501Y-89955264D01*
X174833489Y-89955261D01*
X174678845Y-89924500D01*
X174678842Y-89924500D01*
X174521158Y-89924500D01*
X174521155Y-89924500D01*
X174366510Y-89955261D01*
X174366498Y-89955264D01*
X174220827Y-90015602D01*
X174220814Y-90015609D01*
X174089711Y-90103210D01*
X174089707Y-90103213D01*
X173978213Y-90214707D01*
X173978210Y-90214711D01*
X173890609Y-90345814D01*
X173890602Y-90345827D01*
X173830264Y-90491498D01*
X173830261Y-90491510D01*
X173799500Y-90646153D01*
X168390553Y-90646153D01*
X168376625Y-90576132D01*
X168369737Y-90541503D01*
X168369735Y-90541498D01*
X168309397Y-90395827D01*
X168309390Y-90395814D01*
X168221789Y-90264711D01*
X168221786Y-90264707D01*
X168110292Y-90153213D01*
X168110288Y-90153210D01*
X167979185Y-90065609D01*
X167979172Y-90065602D01*
X167833501Y-90005264D01*
X167833489Y-90005261D01*
X167678845Y-89974500D01*
X167678842Y-89974500D01*
X167521158Y-89974500D01*
X167521155Y-89974500D01*
X167366510Y-90005261D01*
X167366498Y-90005264D01*
X167220827Y-90065602D01*
X167220814Y-90065609D01*
X167089711Y-90153210D01*
X167089707Y-90153213D01*
X166978213Y-90264707D01*
X166978210Y-90264711D01*
X166890609Y-90395814D01*
X166890602Y-90395827D01*
X166830264Y-90541498D01*
X166830261Y-90541510D01*
X166799500Y-90696153D01*
X166400499Y-90696153D01*
X166376625Y-90576132D01*
X166369737Y-90541503D01*
X166369735Y-90541498D01*
X166309397Y-90395827D01*
X166309390Y-90395814D01*
X166221789Y-90264711D01*
X166221786Y-90264707D01*
X166110292Y-90153213D01*
X166110288Y-90153210D01*
X165979185Y-90065609D01*
X165979172Y-90065602D01*
X165833501Y-90005264D01*
X165833489Y-90005261D01*
X165678845Y-89974500D01*
X165678842Y-89974500D01*
X165521158Y-89974500D01*
X165521155Y-89974500D01*
X165366510Y-90005261D01*
X165366498Y-90005264D01*
X165220827Y-90065602D01*
X165220814Y-90065609D01*
X165089711Y-90153210D01*
X165089707Y-90153213D01*
X164978213Y-90264707D01*
X164978210Y-90264711D01*
X164890609Y-90395814D01*
X164890602Y-90395827D01*
X164830264Y-90541498D01*
X164830261Y-90541510D01*
X164799500Y-90696153D01*
X144997356Y-90696153D01*
X144910053Y-90640047D01*
X144910051Y-90640046D01*
X144910049Y-90640045D01*
X144910050Y-90640045D01*
X144771963Y-90599500D01*
X144771961Y-90599500D01*
X144628039Y-90599500D01*
X144628036Y-90599500D01*
X144489949Y-90640045D01*
X144368873Y-90717856D01*
X144274623Y-90826626D01*
X144274622Y-90826628D01*
X144214834Y-90957543D01*
X144194353Y-91100000D01*
X141209774Y-91100000D01*
X141220883Y-91090883D01*
X141345910Y-90938538D01*
X141438814Y-90764727D01*
X141496024Y-90576132D01*
X141515341Y-90380000D01*
X141496024Y-90183868D01*
X141438814Y-89995273D01*
X141438811Y-89995269D01*
X141438811Y-89995266D01*
X141345913Y-89821467D01*
X141345909Y-89821460D01*
X141220883Y-89669116D01*
X141068539Y-89544090D01*
X141068532Y-89544086D01*
X140894733Y-89451188D01*
X140894727Y-89451186D01*
X140706132Y-89393976D01*
X140706129Y-89393975D01*
X140510000Y-89374659D01*
X140313870Y-89393975D01*
X140125266Y-89451188D01*
X139951467Y-89544086D01*
X139951460Y-89544090D01*
X139799116Y-89669116D01*
X139674090Y-89821460D01*
X139674086Y-89821467D01*
X139581188Y-89995266D01*
X139523975Y-90183870D01*
X139504659Y-90380000D01*
X138975341Y-90380000D01*
X138956024Y-90183868D01*
X138898814Y-89995273D01*
X138898811Y-89995269D01*
X138898811Y-89995266D01*
X138805913Y-89821467D01*
X138805909Y-89821460D01*
X138680883Y-89669116D01*
X138528539Y-89544090D01*
X138528532Y-89544086D01*
X138354733Y-89451188D01*
X138354727Y-89451186D01*
X138166132Y-89393976D01*
X138166129Y-89393975D01*
X137970000Y-89374659D01*
X137773870Y-89393975D01*
X137585266Y-89451188D01*
X137411467Y-89544086D01*
X137411460Y-89544090D01*
X137259116Y-89669116D01*
X137134090Y-89821460D01*
X137134086Y-89821467D01*
X137041188Y-89995266D01*
X136983975Y-90183870D01*
X136964659Y-90380000D01*
X136435341Y-90380000D01*
X136416024Y-90183868D01*
X136358814Y-89995273D01*
X136358811Y-89995269D01*
X136358811Y-89995266D01*
X136265913Y-89821467D01*
X136265909Y-89821460D01*
X136140883Y-89669116D01*
X135988539Y-89544090D01*
X135988532Y-89544086D01*
X135814733Y-89451188D01*
X135814727Y-89451186D01*
X135626132Y-89393976D01*
X135626129Y-89393975D01*
X135430000Y-89374659D01*
X135233870Y-89393975D01*
X135045266Y-89451188D01*
X134871467Y-89544086D01*
X134871460Y-89544090D01*
X134719116Y-89669116D01*
X134594090Y-89821460D01*
X134594086Y-89821467D01*
X134501188Y-89995266D01*
X134443975Y-90183870D01*
X134424659Y-90380000D01*
X133895341Y-90380000D01*
X133876024Y-90183868D01*
X133818814Y-89995273D01*
X133818811Y-89995269D01*
X133818811Y-89995266D01*
X133725913Y-89821467D01*
X133725909Y-89821460D01*
X133600883Y-89669116D01*
X133448539Y-89544090D01*
X133448532Y-89544086D01*
X133274733Y-89451188D01*
X133274727Y-89451186D01*
X133086132Y-89393976D01*
X133086129Y-89393975D01*
X132890000Y-89374659D01*
X132693870Y-89393975D01*
X132505266Y-89451188D01*
X132331467Y-89544086D01*
X132331460Y-89544090D01*
X132179116Y-89669116D01*
X132054090Y-89821460D01*
X132054086Y-89821467D01*
X131961188Y-89995266D01*
X131903975Y-90183870D01*
X131884659Y-90380000D01*
X131355341Y-90380000D01*
X131336024Y-90183868D01*
X131278814Y-89995273D01*
X131278811Y-89995269D01*
X131278811Y-89995266D01*
X131185913Y-89821467D01*
X131185909Y-89821460D01*
X131060883Y-89669116D01*
X130908539Y-89544090D01*
X130908532Y-89544086D01*
X130734733Y-89451188D01*
X130734727Y-89451186D01*
X130546132Y-89393976D01*
X130546129Y-89393975D01*
X130350000Y-89374659D01*
X130153870Y-89393975D01*
X129965266Y-89451188D01*
X129791467Y-89544086D01*
X129791460Y-89544090D01*
X129639116Y-89669116D01*
X129514090Y-89821460D01*
X129514086Y-89821467D01*
X129421188Y-89995266D01*
X129363975Y-90183870D01*
X129344659Y-90380000D01*
X128815341Y-90380000D01*
X128796024Y-90183868D01*
X128738814Y-89995273D01*
X128738811Y-89995269D01*
X128738811Y-89995266D01*
X128645913Y-89821467D01*
X128645909Y-89821460D01*
X128520883Y-89669116D01*
X128368539Y-89544090D01*
X128368532Y-89544086D01*
X128194733Y-89451188D01*
X128194727Y-89451186D01*
X128006132Y-89393976D01*
X128006129Y-89393975D01*
X127810000Y-89374659D01*
X127613870Y-89393975D01*
X127425266Y-89451188D01*
X127251467Y-89544086D01*
X127251460Y-89544090D01*
X127099116Y-89669116D01*
X126974090Y-89821460D01*
X126974086Y-89821467D01*
X126881188Y-89995266D01*
X126823975Y-90183870D01*
X126804659Y-90380000D01*
X126275341Y-90380000D01*
X126256024Y-90183868D01*
X126198814Y-89995273D01*
X126198811Y-89995269D01*
X126198811Y-89995266D01*
X126105913Y-89821467D01*
X126105909Y-89821460D01*
X125980883Y-89669116D01*
X125828539Y-89544090D01*
X125828532Y-89544086D01*
X125654733Y-89451188D01*
X125654727Y-89451186D01*
X125466132Y-89393976D01*
X125466129Y-89393975D01*
X125270000Y-89374659D01*
X125073870Y-89393975D01*
X124885266Y-89451188D01*
X124711467Y-89544086D01*
X124711460Y-89544090D01*
X124559116Y-89669116D01*
X124434090Y-89821460D01*
X124434086Y-89821467D01*
X124341188Y-89995266D01*
X124283975Y-90183870D01*
X124264659Y-90380000D01*
X123735341Y-90380000D01*
X123716024Y-90183868D01*
X123658814Y-89995273D01*
X123658811Y-89995269D01*
X123658811Y-89995266D01*
X123565913Y-89821467D01*
X123565909Y-89821460D01*
X123440883Y-89669116D01*
X123288539Y-89544090D01*
X123288532Y-89544086D01*
X123114733Y-89451188D01*
X123114727Y-89451186D01*
X122926132Y-89393976D01*
X122926129Y-89393975D01*
X122730000Y-89374659D01*
X122533870Y-89393975D01*
X122345266Y-89451188D01*
X122171467Y-89544086D01*
X122171460Y-89544090D01*
X122019116Y-89669116D01*
X121894090Y-89821460D01*
X121894086Y-89821467D01*
X121801188Y-89995266D01*
X121743975Y-90183870D01*
X121724659Y-90380000D01*
X121195341Y-90380000D01*
X121176024Y-90183868D01*
X121118814Y-89995273D01*
X121118811Y-89995269D01*
X121118811Y-89995266D01*
X121025913Y-89821467D01*
X121025909Y-89821460D01*
X120900883Y-89669116D01*
X120748539Y-89544090D01*
X120748532Y-89544086D01*
X120574733Y-89451188D01*
X120574727Y-89451186D01*
X120386132Y-89393976D01*
X120386129Y-89393975D01*
X120190000Y-89374659D01*
X119993870Y-89393975D01*
X119805266Y-89451188D01*
X119631467Y-89544086D01*
X119631460Y-89544090D01*
X119479116Y-89669116D01*
X119354090Y-89821460D01*
X119354086Y-89821467D01*
X119261188Y-89995266D01*
X119203975Y-90183870D01*
X119184659Y-90380000D01*
X118655341Y-90380000D01*
X118636024Y-90183868D01*
X118578814Y-89995273D01*
X118578811Y-89995269D01*
X118578811Y-89995266D01*
X118485913Y-89821467D01*
X118485909Y-89821460D01*
X118360883Y-89669116D01*
X118208539Y-89544090D01*
X118208532Y-89544086D01*
X118034733Y-89451188D01*
X118034727Y-89451186D01*
X117846132Y-89393976D01*
X117846129Y-89393975D01*
X117650000Y-89374659D01*
X117453870Y-89393975D01*
X117265266Y-89451188D01*
X117091467Y-89544086D01*
X117091460Y-89544090D01*
X116939116Y-89669116D01*
X116814090Y-89821460D01*
X116814086Y-89821467D01*
X116721188Y-89995266D01*
X116663975Y-90183870D01*
X116644659Y-90380000D01*
X116115341Y-90380000D01*
X116096024Y-90183868D01*
X116038814Y-89995273D01*
X116038811Y-89995269D01*
X116038811Y-89995266D01*
X115945913Y-89821467D01*
X115945909Y-89821460D01*
X115820883Y-89669116D01*
X115668539Y-89544090D01*
X115668532Y-89544086D01*
X115494733Y-89451188D01*
X115494727Y-89451186D01*
X115306132Y-89393976D01*
X115306129Y-89393975D01*
X115110000Y-89374659D01*
X114913870Y-89393975D01*
X114725266Y-89451188D01*
X114551467Y-89544086D01*
X114551460Y-89544090D01*
X114399116Y-89669116D01*
X114274090Y-89821460D01*
X114274086Y-89821467D01*
X114181188Y-89995266D01*
X114123975Y-90183870D01*
X114104659Y-90380000D01*
X113575341Y-90380000D01*
X113556024Y-90183868D01*
X113498814Y-89995273D01*
X113498811Y-89995269D01*
X113498811Y-89995266D01*
X113405913Y-89821467D01*
X113405909Y-89821460D01*
X113280883Y-89669116D01*
X113128539Y-89544090D01*
X113128532Y-89544086D01*
X112954733Y-89451188D01*
X112954727Y-89451186D01*
X112766132Y-89393976D01*
X112766129Y-89393975D01*
X112570000Y-89374659D01*
X112373870Y-89393975D01*
X112185266Y-89451188D01*
X112011467Y-89544086D01*
X112011460Y-89544090D01*
X111859116Y-89669116D01*
X111734090Y-89821460D01*
X111734086Y-89821467D01*
X111641188Y-89995266D01*
X111583975Y-90183870D01*
X111564659Y-90380000D01*
X108495341Y-90380000D01*
X108476024Y-90183868D01*
X108418814Y-89995273D01*
X108418811Y-89995269D01*
X108418811Y-89995266D01*
X108325913Y-89821467D01*
X108325909Y-89821460D01*
X108200883Y-89669116D01*
X108048539Y-89544090D01*
X108048532Y-89544086D01*
X107874733Y-89451188D01*
X107874727Y-89451186D01*
X107686132Y-89393976D01*
X107686129Y-89393975D01*
X107490000Y-89374659D01*
X107293870Y-89393975D01*
X107105266Y-89451188D01*
X106931467Y-89544086D01*
X106931460Y-89544090D01*
X106779116Y-89669116D01*
X106654090Y-89821460D01*
X106654086Y-89821467D01*
X106561188Y-89995266D01*
X106503975Y-90183870D01*
X106484659Y-90380000D01*
X104500500Y-90380000D01*
X104500500Y-87300000D01*
X121894353Y-87300000D01*
X121914834Y-87442456D01*
X121941114Y-87500000D01*
X121974623Y-87573373D01*
X122068872Y-87682143D01*
X122189947Y-87759953D01*
X122189950Y-87759954D01*
X122189949Y-87759954D01*
X122328036Y-87800499D01*
X122328038Y-87800500D01*
X122328039Y-87800500D01*
X122471962Y-87800500D01*
X122471962Y-87800499D01*
X122610053Y-87759953D01*
X122731128Y-87682143D01*
X122825377Y-87573373D01*
X122858886Y-87500000D01*
X137394353Y-87500000D01*
X137414834Y-87642456D01*
X137432959Y-87682143D01*
X137474623Y-87773373D01*
X137568872Y-87882143D01*
X137689947Y-87959953D01*
X137689950Y-87959954D01*
X137689949Y-87959954D01*
X137828036Y-88000499D01*
X137828038Y-88000500D01*
X137828039Y-88000500D01*
X137971962Y-88000500D01*
X137971962Y-88000499D01*
X138110053Y-87959953D01*
X138231128Y-87882143D01*
X138325377Y-87773373D01*
X138385165Y-87642457D01*
X138405647Y-87500000D01*
X138385165Y-87357543D01*
X138325377Y-87226627D01*
X138231128Y-87117857D01*
X138110053Y-87040047D01*
X138110051Y-87040046D01*
X138110049Y-87040045D01*
X138110050Y-87040045D01*
X137971963Y-86999500D01*
X137971961Y-86999500D01*
X137828039Y-86999500D01*
X137828036Y-86999500D01*
X137689949Y-87040045D01*
X137568873Y-87117856D01*
X137474623Y-87226626D01*
X137474622Y-87226628D01*
X137414834Y-87357543D01*
X137394353Y-87500000D01*
X122858886Y-87500000D01*
X122885165Y-87442457D01*
X122905647Y-87300000D01*
X122885165Y-87157543D01*
X122825377Y-87026627D01*
X122731128Y-86917857D01*
X122610053Y-86840047D01*
X122610051Y-86840046D01*
X122610049Y-86840045D01*
X122610050Y-86840045D01*
X122471963Y-86799500D01*
X122471961Y-86799500D01*
X122328039Y-86799500D01*
X122328036Y-86799500D01*
X122189949Y-86840045D01*
X122068873Y-86917856D01*
X121974623Y-87026626D01*
X121974622Y-87026628D01*
X121914834Y-87157543D01*
X121894353Y-87300000D01*
X104500500Y-87300000D01*
X104500500Y-83430247D01*
X124749500Y-83430247D01*
X124749500Y-85169752D01*
X124761131Y-85228229D01*
X124761132Y-85228230D01*
X124805447Y-85294552D01*
X124871769Y-85338867D01*
X124871770Y-85338868D01*
X124930247Y-85350499D01*
X124930250Y-85350500D01*
X124930252Y-85350500D01*
X126669750Y-85350500D01*
X126669751Y-85350499D01*
X126684568Y-85347552D01*
X126728229Y-85338868D01*
X126728229Y-85338867D01*
X126728231Y-85338867D01*
X126794552Y-85294552D01*
X126838867Y-85228231D01*
X126838867Y-85228229D01*
X126838868Y-85228229D01*
X126850499Y-85169752D01*
X126850500Y-85169750D01*
X126850500Y-83430249D01*
X126850499Y-83430247D01*
X127649500Y-83430247D01*
X127649500Y-85169752D01*
X127661131Y-85228229D01*
X127661132Y-85228230D01*
X127705447Y-85294552D01*
X127771769Y-85338867D01*
X127771770Y-85338868D01*
X127830247Y-85350499D01*
X127830250Y-85350500D01*
X127830252Y-85350500D01*
X129569750Y-85350500D01*
X129569751Y-85350499D01*
X129584568Y-85347552D01*
X129628229Y-85338868D01*
X129628229Y-85338867D01*
X129628231Y-85338867D01*
X129694552Y-85294552D01*
X129738867Y-85228231D01*
X129738867Y-85228229D01*
X129738868Y-85228229D01*
X129750499Y-85169752D01*
X129750500Y-85169750D01*
X129750500Y-83430249D01*
X129750499Y-83430247D01*
X129745527Y-83405247D01*
X130549500Y-83405247D01*
X130549500Y-85144752D01*
X130561131Y-85203229D01*
X130561132Y-85203230D01*
X130605447Y-85269552D01*
X130671769Y-85313867D01*
X130671770Y-85313868D01*
X130730247Y-85325499D01*
X130730250Y-85325500D01*
X130730252Y-85325500D01*
X132469750Y-85325500D01*
X132469751Y-85325499D01*
X132484568Y-85322552D01*
X132528229Y-85313868D01*
X132528229Y-85313867D01*
X132528231Y-85313867D01*
X132594552Y-85269552D01*
X132638867Y-85203231D01*
X132638867Y-85203229D01*
X132638868Y-85203229D01*
X132650499Y-85144752D01*
X132650500Y-85144750D01*
X132650500Y-85046153D01*
X164799500Y-85046153D01*
X164799500Y-85753846D01*
X164830261Y-85908489D01*
X164830264Y-85908501D01*
X164890602Y-86054172D01*
X164890609Y-86054185D01*
X164978210Y-86185288D01*
X164978213Y-86185292D01*
X165089707Y-86296786D01*
X165089711Y-86296789D01*
X165220814Y-86384390D01*
X165220827Y-86384397D01*
X165366498Y-86444735D01*
X165366503Y-86444737D01*
X165521153Y-86475499D01*
X165521156Y-86475500D01*
X165521158Y-86475500D01*
X165678844Y-86475500D01*
X165678845Y-86475499D01*
X165833497Y-86444737D01*
X165979179Y-86384394D01*
X166110289Y-86296789D01*
X166221789Y-86185289D01*
X166309394Y-86054179D01*
X166369737Y-85908497D01*
X166400500Y-85753842D01*
X166400500Y-85046158D01*
X166400500Y-85046155D01*
X166400499Y-85046153D01*
X166799500Y-85046153D01*
X166799500Y-85753846D01*
X166830261Y-85908489D01*
X166830264Y-85908501D01*
X166890602Y-86054172D01*
X166890609Y-86054185D01*
X166978210Y-86185288D01*
X166978213Y-86185292D01*
X167089707Y-86296786D01*
X167089711Y-86296789D01*
X167220814Y-86384390D01*
X167220827Y-86384397D01*
X167366498Y-86444735D01*
X167366503Y-86444737D01*
X167521153Y-86475499D01*
X167521156Y-86475500D01*
X167521158Y-86475500D01*
X167678844Y-86475500D01*
X167678845Y-86475499D01*
X167833497Y-86444737D01*
X167979179Y-86384394D01*
X168110289Y-86296789D01*
X168221789Y-86185289D01*
X168309394Y-86054179D01*
X168369737Y-85908497D01*
X168400500Y-85753842D01*
X168400500Y-85046158D01*
X168400500Y-85046155D01*
X168400499Y-85046153D01*
X173799500Y-85046153D01*
X173799500Y-85753846D01*
X173830261Y-85908489D01*
X173830264Y-85908501D01*
X173890602Y-86054172D01*
X173890609Y-86054185D01*
X173978210Y-86185288D01*
X173978213Y-86185292D01*
X174089707Y-86296786D01*
X174089711Y-86296789D01*
X174220814Y-86384390D01*
X174220827Y-86384397D01*
X174366498Y-86444735D01*
X174366503Y-86444737D01*
X174521153Y-86475499D01*
X174521156Y-86475500D01*
X174521158Y-86475500D01*
X174678844Y-86475500D01*
X174678845Y-86475499D01*
X174833497Y-86444737D01*
X174979179Y-86384394D01*
X175110289Y-86296789D01*
X175221789Y-86185289D01*
X175309394Y-86054179D01*
X175369737Y-85908497D01*
X175400500Y-85753842D01*
X175400500Y-85046158D01*
X175400500Y-85046155D01*
X175400499Y-85046153D01*
X175799500Y-85046153D01*
X175799500Y-85753846D01*
X175830261Y-85908489D01*
X175830264Y-85908501D01*
X175890602Y-86054172D01*
X175890609Y-86054185D01*
X175978210Y-86185288D01*
X175978213Y-86185292D01*
X176089707Y-86296786D01*
X176089711Y-86296789D01*
X176220814Y-86384390D01*
X176220827Y-86384397D01*
X176366498Y-86444735D01*
X176366503Y-86444737D01*
X176521153Y-86475499D01*
X176521156Y-86475500D01*
X176521158Y-86475500D01*
X176678844Y-86475500D01*
X176678845Y-86475499D01*
X176833497Y-86444737D01*
X176979179Y-86384394D01*
X177110289Y-86296789D01*
X177221789Y-86185289D01*
X177309394Y-86054179D01*
X177369737Y-85908497D01*
X177400500Y-85753842D01*
X177400500Y-85046158D01*
X177400500Y-85046155D01*
X177400499Y-85046153D01*
X177369738Y-84891510D01*
X177369737Y-84891503D01*
X177369735Y-84891498D01*
X177309397Y-84745827D01*
X177309390Y-84745814D01*
X177221789Y-84614711D01*
X177221786Y-84614707D01*
X177110292Y-84503213D01*
X177110288Y-84503210D01*
X176979185Y-84415609D01*
X176979172Y-84415602D01*
X176833501Y-84355264D01*
X176833489Y-84355261D01*
X176678845Y-84324500D01*
X176678842Y-84324500D01*
X176521158Y-84324500D01*
X176521155Y-84324500D01*
X176366510Y-84355261D01*
X176366498Y-84355264D01*
X176220827Y-84415602D01*
X176220814Y-84415609D01*
X176089711Y-84503210D01*
X176089707Y-84503213D01*
X175978213Y-84614707D01*
X175978210Y-84614711D01*
X175890609Y-84745814D01*
X175890602Y-84745827D01*
X175830264Y-84891498D01*
X175830261Y-84891510D01*
X175799500Y-85046153D01*
X175400499Y-85046153D01*
X175369738Y-84891510D01*
X175369737Y-84891503D01*
X175369735Y-84891498D01*
X175309397Y-84745827D01*
X175309390Y-84745814D01*
X175221789Y-84614711D01*
X175221786Y-84614707D01*
X175110292Y-84503213D01*
X175110288Y-84503210D01*
X174979185Y-84415609D01*
X174979172Y-84415602D01*
X174833501Y-84355264D01*
X174833489Y-84355261D01*
X174678845Y-84324500D01*
X174678842Y-84324500D01*
X174521158Y-84324500D01*
X174521155Y-84324500D01*
X174366510Y-84355261D01*
X174366498Y-84355264D01*
X174220827Y-84415602D01*
X174220814Y-84415609D01*
X174089711Y-84503210D01*
X174089707Y-84503213D01*
X173978213Y-84614707D01*
X173978210Y-84614711D01*
X173890609Y-84745814D01*
X173890602Y-84745827D01*
X173830264Y-84891498D01*
X173830261Y-84891510D01*
X173799500Y-85046153D01*
X168400499Y-85046153D01*
X168369738Y-84891510D01*
X168369737Y-84891503D01*
X168369735Y-84891498D01*
X168309397Y-84745827D01*
X168309390Y-84745814D01*
X168221789Y-84614711D01*
X168221786Y-84614707D01*
X168110292Y-84503213D01*
X168110288Y-84503210D01*
X167979185Y-84415609D01*
X167979172Y-84415602D01*
X167833501Y-84355264D01*
X167833489Y-84355261D01*
X167678845Y-84324500D01*
X167678842Y-84324500D01*
X167521158Y-84324500D01*
X167521155Y-84324500D01*
X167366510Y-84355261D01*
X167366498Y-84355264D01*
X167220827Y-84415602D01*
X167220814Y-84415609D01*
X167089711Y-84503210D01*
X167089707Y-84503213D01*
X166978213Y-84614707D01*
X166978210Y-84614711D01*
X166890609Y-84745814D01*
X166890602Y-84745827D01*
X166830264Y-84891498D01*
X166830261Y-84891510D01*
X166799500Y-85046153D01*
X166400499Y-85046153D01*
X166369738Y-84891510D01*
X166369737Y-84891503D01*
X166369735Y-84891498D01*
X166309397Y-84745827D01*
X166309390Y-84745814D01*
X166221789Y-84614711D01*
X166221786Y-84614707D01*
X166110292Y-84503213D01*
X166110288Y-84503210D01*
X165979185Y-84415609D01*
X165979172Y-84415602D01*
X165833501Y-84355264D01*
X165833489Y-84355261D01*
X165678845Y-84324500D01*
X165678842Y-84324500D01*
X165521158Y-84324500D01*
X165521155Y-84324500D01*
X165366510Y-84355261D01*
X165366498Y-84355264D01*
X165220827Y-84415602D01*
X165220814Y-84415609D01*
X165089711Y-84503210D01*
X165089707Y-84503213D01*
X164978213Y-84614707D01*
X164978210Y-84614711D01*
X164890609Y-84745814D01*
X164890602Y-84745827D01*
X164830264Y-84891498D01*
X164830261Y-84891510D01*
X164799500Y-85046153D01*
X132650500Y-85046153D01*
X132650500Y-83405249D01*
X132650499Y-83405247D01*
X132638868Y-83346770D01*
X132638867Y-83346769D01*
X132594552Y-83280447D01*
X132528230Y-83236132D01*
X132528229Y-83236131D01*
X132469752Y-83224500D01*
X132469748Y-83224500D01*
X130730252Y-83224500D01*
X130730247Y-83224500D01*
X130671770Y-83236131D01*
X130671769Y-83236132D01*
X130605447Y-83280447D01*
X130561132Y-83346769D01*
X130561131Y-83346770D01*
X130549500Y-83405247D01*
X129745527Y-83405247D01*
X129738868Y-83371770D01*
X129738867Y-83371769D01*
X129694552Y-83305447D01*
X129628230Y-83261132D01*
X129628229Y-83261131D01*
X129569752Y-83249500D01*
X129569748Y-83249500D01*
X127830252Y-83249500D01*
X127830247Y-83249500D01*
X127771770Y-83261131D01*
X127771769Y-83261132D01*
X127705447Y-83305447D01*
X127661132Y-83371769D01*
X127661131Y-83371770D01*
X127649500Y-83430247D01*
X126850499Y-83430247D01*
X126838868Y-83371770D01*
X126838867Y-83371769D01*
X126794552Y-83305447D01*
X126728230Y-83261132D01*
X126728229Y-83261131D01*
X126669752Y-83249500D01*
X126669748Y-83249500D01*
X124930252Y-83249500D01*
X124930247Y-83249500D01*
X124871770Y-83261131D01*
X124871769Y-83261132D01*
X124805447Y-83305447D01*
X124761132Y-83371769D01*
X124761131Y-83371770D01*
X124749500Y-83430247D01*
X104500500Y-83430247D01*
X104500500Y-81760000D01*
X124744417Y-81760000D01*
X124764699Y-81965932D01*
X124764700Y-81965934D01*
X124817184Y-82138954D01*
X124824769Y-82163956D01*
X124830453Y-82174590D01*
X124922315Y-82346450D01*
X124922317Y-82346452D01*
X125053589Y-82506410D01*
X125150209Y-82585702D01*
X125213550Y-82637685D01*
X125396046Y-82735232D01*
X125594066Y-82795300D01*
X125594065Y-82795300D01*
X125612529Y-82797118D01*
X125800000Y-82815583D01*
X126005934Y-82795300D01*
X126203954Y-82735232D01*
X126386450Y-82637685D01*
X126546410Y-82506410D01*
X126677685Y-82346450D01*
X126775232Y-82163954D01*
X126835300Y-81965934D01*
X126855583Y-81760000D01*
X127644417Y-81760000D01*
X127664699Y-81965932D01*
X127664700Y-81965934D01*
X127717184Y-82138954D01*
X127724769Y-82163956D01*
X127730453Y-82174590D01*
X127822315Y-82346450D01*
X127822317Y-82346452D01*
X127953589Y-82506410D01*
X128050209Y-82585702D01*
X128113550Y-82637685D01*
X128296046Y-82735232D01*
X128494066Y-82795300D01*
X128494065Y-82795300D01*
X128512529Y-82797118D01*
X128700000Y-82815583D01*
X128905934Y-82795300D01*
X129103954Y-82735232D01*
X129286450Y-82637685D01*
X129446410Y-82506410D01*
X129577685Y-82346450D01*
X129675232Y-82163954D01*
X129735300Y-81965934D01*
X129755583Y-81760000D01*
X129753121Y-81735000D01*
X130544417Y-81735000D01*
X130564699Y-81940932D01*
X130584352Y-82005718D01*
X130624768Y-82138954D01*
X130722315Y-82321450D01*
X130756969Y-82363677D01*
X130853589Y-82481410D01*
X130950209Y-82560702D01*
X131013550Y-82612685D01*
X131196046Y-82710232D01*
X131394066Y-82770300D01*
X131394065Y-82770300D01*
X131412529Y-82772118D01*
X131600000Y-82790583D01*
X131805934Y-82770300D01*
X132003954Y-82710232D01*
X132186450Y-82612685D01*
X132346410Y-82481410D01*
X132477685Y-82321450D01*
X132575232Y-82138954D01*
X132615648Y-82005718D01*
X156756070Y-82005718D01*
X156776574Y-82174587D01*
X156776575Y-82174592D01*
X156836897Y-82333649D01*
X156899190Y-82423895D01*
X156933532Y-82473647D01*
X157039220Y-82567278D01*
X157060865Y-82586454D01*
X157158478Y-82637685D01*
X157211490Y-82665508D01*
X157376659Y-82706218D01*
X157546771Y-82706218D01*
X157711940Y-82665508D01*
X157812585Y-82612685D01*
X157862564Y-82586454D01*
X157862565Y-82586452D01*
X157862567Y-82586452D01*
X157989898Y-82473647D01*
X158086533Y-82333648D01*
X158146855Y-82174590D01*
X158167360Y-82005718D01*
X158146855Y-81836846D01*
X158086533Y-81677788D01*
X157989898Y-81537789D01*
X157862567Y-81424984D01*
X157862564Y-81424981D01*
X157711941Y-81345928D01*
X157546771Y-81305218D01*
X157376659Y-81305218D01*
X157211488Y-81345928D01*
X157060865Y-81424981D01*
X156933531Y-81537790D01*
X156836897Y-81677786D01*
X156776575Y-81836843D01*
X156776574Y-81836848D01*
X156756070Y-82005718D01*
X132615648Y-82005718D01*
X132635300Y-81940934D01*
X132655583Y-81735000D01*
X132635300Y-81529066D01*
X132575232Y-81331046D01*
X132477685Y-81148550D01*
X132366927Y-81013590D01*
X132346410Y-80988589D01*
X132186452Y-80857317D01*
X132186453Y-80857317D01*
X132186450Y-80857315D01*
X132003954Y-80759768D01*
X131805934Y-80699700D01*
X131805932Y-80699699D01*
X131805934Y-80699699D01*
X131600000Y-80679417D01*
X131394067Y-80699699D01*
X131196043Y-80759769D01*
X131085898Y-80818643D01*
X131013550Y-80857315D01*
X131013548Y-80857316D01*
X131013547Y-80857317D01*
X130853589Y-80988589D01*
X130722317Y-81148547D01*
X130624769Y-81331043D01*
X130564699Y-81529067D01*
X130544417Y-81735000D01*
X129753121Y-81735000D01*
X129735300Y-81554066D01*
X129675232Y-81356046D01*
X129577685Y-81173550D01*
X129525702Y-81110209D01*
X129446410Y-81013589D01*
X129286452Y-80882317D01*
X129286453Y-80882317D01*
X129286450Y-80882315D01*
X129103954Y-80784768D01*
X128905934Y-80724700D01*
X128905932Y-80724699D01*
X128905934Y-80724699D01*
X128700000Y-80704417D01*
X128494067Y-80724699D01*
X128296043Y-80784769D01*
X128185898Y-80843643D01*
X128113550Y-80882315D01*
X128113548Y-80882316D01*
X128113547Y-80882317D01*
X127953589Y-81013589D01*
X127822317Y-81173547D01*
X127724769Y-81356043D01*
X127664699Y-81554067D01*
X127644417Y-81760000D01*
X126855583Y-81760000D01*
X126835300Y-81554066D01*
X126775232Y-81356046D01*
X126677685Y-81173550D01*
X126625702Y-81110209D01*
X126546410Y-81013589D01*
X126386452Y-80882317D01*
X126386453Y-80882317D01*
X126386450Y-80882315D01*
X126203954Y-80784768D01*
X126005934Y-80724700D01*
X126005932Y-80724699D01*
X126005934Y-80724699D01*
X125800000Y-80704417D01*
X125594067Y-80724699D01*
X125396043Y-80784769D01*
X125285898Y-80843643D01*
X125213550Y-80882315D01*
X125213548Y-80882316D01*
X125213547Y-80882317D01*
X125053589Y-81013589D01*
X124922317Y-81173547D01*
X124824769Y-81356043D01*
X124764699Y-81554067D01*
X124744417Y-81760000D01*
X104500500Y-81760000D01*
X104500500Y-78273718D01*
X112468071Y-78273718D01*
X112488552Y-78416174D01*
X112528692Y-78504066D01*
X112548341Y-78547091D01*
X112642590Y-78655861D01*
X112763665Y-78733671D01*
X112763668Y-78733672D01*
X112763667Y-78733672D01*
X112901754Y-78774217D01*
X112901756Y-78774218D01*
X112901757Y-78774218D01*
X113045680Y-78774218D01*
X113045680Y-78774217D01*
X113183771Y-78733671D01*
X113220604Y-78710000D01*
X143194417Y-78710000D01*
X143214699Y-78915932D01*
X143214700Y-78915934D01*
X143274768Y-79113954D01*
X143372315Y-79296450D01*
X143372317Y-79296452D01*
X143503589Y-79456410D01*
X143600209Y-79535702D01*
X143663550Y-79587685D01*
X143846046Y-79685232D01*
X144044066Y-79745300D01*
X144044065Y-79745300D01*
X144062529Y-79747118D01*
X144250000Y-79765583D01*
X144455934Y-79745300D01*
X144653954Y-79685232D01*
X144836450Y-79587685D01*
X144996410Y-79456410D01*
X145127685Y-79296450D01*
X145225232Y-79113954D01*
X145285300Y-78915934D01*
X145305583Y-78710000D01*
X145285300Y-78504066D01*
X145225232Y-78306046D01*
X145127685Y-78123550D01*
X145026574Y-78000345D01*
X144996410Y-77963589D01*
X144836452Y-77832317D01*
X144836453Y-77832317D01*
X144836450Y-77832315D01*
X144653954Y-77734768D01*
X144455934Y-77674700D01*
X144455932Y-77674699D01*
X144455934Y-77674699D01*
X144250000Y-77654417D01*
X144044067Y-77674699D01*
X143846043Y-77734769D01*
X143735898Y-77793643D01*
X143663550Y-77832315D01*
X143663548Y-77832316D01*
X143663547Y-77832317D01*
X143503589Y-77963589D01*
X143372317Y-78123547D01*
X143372315Y-78123550D01*
X143333643Y-78195898D01*
X143274769Y-78306043D01*
X143214699Y-78504067D01*
X143194417Y-78710000D01*
X113220604Y-78710000D01*
X113304846Y-78655861D01*
X113399095Y-78547091D01*
X113458883Y-78416175D01*
X113479365Y-78273718D01*
X113458883Y-78131261D01*
X113399095Y-78000345D01*
X113304846Y-77891575D01*
X113183771Y-77813765D01*
X113183769Y-77813764D01*
X113183767Y-77813763D01*
X113183768Y-77813763D01*
X113045681Y-77773218D01*
X113045679Y-77773218D01*
X112901757Y-77773218D01*
X112901754Y-77773218D01*
X112763667Y-77813763D01*
X112642591Y-77891574D01*
X112548341Y-78000344D01*
X112548340Y-78000346D01*
X112488552Y-78131261D01*
X112468071Y-78273718D01*
X104500500Y-78273718D01*
X104500500Y-77000000D01*
X129114417Y-77000000D01*
X129134699Y-77205932D01*
X129134700Y-77205934D01*
X129194768Y-77403954D01*
X129292315Y-77586450D01*
X129292317Y-77586452D01*
X129423589Y-77746410D01*
X129505660Y-77813763D01*
X129583550Y-77877685D01*
X129766046Y-77975232D01*
X129964066Y-78035300D01*
X129964065Y-78035300D01*
X129982529Y-78037118D01*
X130170000Y-78055583D01*
X130375934Y-78035300D01*
X130573954Y-77975232D01*
X130756450Y-77877685D01*
X130916410Y-77746410D01*
X131047685Y-77586450D01*
X131145232Y-77403954D01*
X131205300Y-77205934D01*
X131225583Y-77000000D01*
X131654417Y-77000000D01*
X131674699Y-77205932D01*
X131674700Y-77205934D01*
X131734768Y-77403954D01*
X131832315Y-77586450D01*
X131832317Y-77586452D01*
X131963589Y-77746410D01*
X132045660Y-77813763D01*
X132123550Y-77877685D01*
X132306046Y-77975232D01*
X132504066Y-78035300D01*
X132504065Y-78035300D01*
X132522529Y-78037118D01*
X132710000Y-78055583D01*
X132915934Y-78035300D01*
X133113954Y-77975232D01*
X133296450Y-77877685D01*
X133456410Y-77746410D01*
X133587685Y-77586450D01*
X133685232Y-77403954D01*
X133745300Y-77205934D01*
X133765583Y-77000000D01*
X134194417Y-77000000D01*
X134214699Y-77205932D01*
X134214700Y-77205934D01*
X134274768Y-77403954D01*
X134372315Y-77586450D01*
X134372317Y-77586452D01*
X134503589Y-77746410D01*
X134585660Y-77813763D01*
X134663550Y-77877685D01*
X134846046Y-77975232D01*
X135044066Y-78035300D01*
X135044065Y-78035300D01*
X135062529Y-78037118D01*
X135250000Y-78055583D01*
X135455934Y-78035300D01*
X135653954Y-77975232D01*
X135836450Y-77877685D01*
X135996410Y-77746410D01*
X136127685Y-77586450D01*
X136225232Y-77403954D01*
X136285300Y-77205934D01*
X136305583Y-77000000D01*
X136285300Y-76794066D01*
X136225232Y-76596046D01*
X136127685Y-76413550D01*
X136075702Y-76350209D01*
X135996410Y-76253589D01*
X135846121Y-76130252D01*
X135846115Y-76130247D01*
X136739500Y-76130247D01*
X136739500Y-77869752D01*
X136751131Y-77928229D01*
X136751132Y-77928230D01*
X136795447Y-77994552D01*
X136861769Y-78038867D01*
X136861770Y-78038868D01*
X136920247Y-78050499D01*
X136920250Y-78050500D01*
X136920252Y-78050500D01*
X138659750Y-78050500D01*
X138659751Y-78050499D01*
X138674568Y-78047552D01*
X138718229Y-78038868D01*
X138718229Y-78038867D01*
X138718231Y-78038867D01*
X138784552Y-77994552D01*
X138828867Y-77928231D01*
X138828867Y-77928229D01*
X138828868Y-77928229D01*
X138840499Y-77869752D01*
X138840500Y-77869750D01*
X138840500Y-76170000D01*
X143194417Y-76170000D01*
X143214699Y-76375932D01*
X143244734Y-76474944D01*
X143274768Y-76573954D01*
X143372315Y-76756450D01*
X143403186Y-76794067D01*
X143503589Y-76916410D01*
X143600209Y-76995702D01*
X143663550Y-77047685D01*
X143846046Y-77145232D01*
X144044066Y-77205300D01*
X144044065Y-77205300D01*
X144062529Y-77207118D01*
X144250000Y-77225583D01*
X144455934Y-77205300D01*
X144653954Y-77145232D01*
X144836450Y-77047685D01*
X144996410Y-76916410D01*
X145127685Y-76756450D01*
X145225232Y-76573954D01*
X145285300Y-76375934D01*
X145305583Y-76170000D01*
X145285300Y-75964066D01*
X145225232Y-75766046D01*
X145127685Y-75583550D01*
X145075702Y-75520209D01*
X144996410Y-75423589D01*
X144852616Y-75305582D01*
X144836450Y-75292315D01*
X144653954Y-75194768D01*
X144455934Y-75134700D01*
X144455932Y-75134699D01*
X144455934Y-75134699D01*
X144250000Y-75114417D01*
X144044067Y-75134699D01*
X143846043Y-75194769D01*
X143735898Y-75253643D01*
X143663550Y-75292315D01*
X143663548Y-75292316D01*
X143663547Y-75292317D01*
X143503589Y-75423589D01*
X143372317Y-75583547D01*
X143274769Y-75766043D01*
X143214699Y-75964067D01*
X143194417Y-76170000D01*
X138840500Y-76170000D01*
X138840500Y-76130249D01*
X138840499Y-76130247D01*
X138828868Y-76071770D01*
X138828867Y-76071769D01*
X138784552Y-76005447D01*
X138718230Y-75961132D01*
X138718229Y-75961131D01*
X138659752Y-75949500D01*
X138659748Y-75949500D01*
X136920252Y-75949500D01*
X136920247Y-75949500D01*
X136861770Y-75961131D01*
X136861769Y-75961132D01*
X136795447Y-76005447D01*
X136751132Y-76071769D01*
X136751131Y-76071770D01*
X136739500Y-76130247D01*
X135846115Y-76130247D01*
X135836450Y-76122315D01*
X135653954Y-76024768D01*
X135455934Y-75964700D01*
X135455932Y-75964699D01*
X135455934Y-75964699D01*
X135250000Y-75944417D01*
X135044067Y-75964699D01*
X134846043Y-76024769D01*
X134758114Y-76071769D01*
X134663550Y-76122315D01*
X134663548Y-76122316D01*
X134663547Y-76122317D01*
X134503589Y-76253589D01*
X134372317Y-76413547D01*
X134274769Y-76596043D01*
X134214699Y-76794067D01*
X134194417Y-77000000D01*
X133765583Y-77000000D01*
X133745300Y-76794066D01*
X133685232Y-76596046D01*
X133587685Y-76413550D01*
X133535702Y-76350209D01*
X133456410Y-76253589D01*
X133306121Y-76130252D01*
X133296450Y-76122315D01*
X133113954Y-76024768D01*
X132915934Y-75964700D01*
X132915932Y-75964699D01*
X132915934Y-75964699D01*
X132710000Y-75944417D01*
X132504067Y-75964699D01*
X132306043Y-76024769D01*
X132218114Y-76071769D01*
X132123550Y-76122315D01*
X132123548Y-76122316D01*
X132123547Y-76122317D01*
X131963589Y-76253589D01*
X131832317Y-76413547D01*
X131734769Y-76596043D01*
X131674699Y-76794067D01*
X131654417Y-77000000D01*
X131225583Y-77000000D01*
X131205300Y-76794066D01*
X131145232Y-76596046D01*
X131047685Y-76413550D01*
X130995702Y-76350209D01*
X130916410Y-76253589D01*
X130766121Y-76130252D01*
X130756450Y-76122315D01*
X130573954Y-76024768D01*
X130375934Y-75964700D01*
X130375932Y-75964699D01*
X130375934Y-75964699D01*
X130170000Y-75944417D01*
X129964067Y-75964699D01*
X129766043Y-76024769D01*
X129678114Y-76071769D01*
X129583550Y-76122315D01*
X129583548Y-76122316D01*
X129583547Y-76122317D01*
X129423589Y-76253589D01*
X129292317Y-76413547D01*
X129194769Y-76596043D01*
X129134699Y-76794067D01*
X129114417Y-77000000D01*
X104500500Y-77000000D01*
X104500500Y-74002706D01*
X104500618Y-73997297D01*
X104503377Y-73934108D01*
X104505796Y-73878711D01*
X107149500Y-73878711D01*
X107149500Y-74121288D01*
X107181161Y-74361785D01*
X107243947Y-74596104D01*
X107336773Y-74820205D01*
X107336776Y-74820212D01*
X107458064Y-75030289D01*
X107458066Y-75030292D01*
X107458067Y-75030293D01*
X107605733Y-75222736D01*
X107605739Y-75222743D01*
X107777256Y-75394260D01*
X107777262Y-75394265D01*
X107969711Y-75541936D01*
X108179788Y-75663224D01*
X108403900Y-75756054D01*
X108638211Y-75818838D01*
X108818586Y-75842584D01*
X108878711Y-75850500D01*
X108878712Y-75850500D01*
X109121289Y-75850500D01*
X109169388Y-75844167D01*
X109361789Y-75818838D01*
X109596100Y-75756054D01*
X109820212Y-75663224D01*
X110030289Y-75541936D01*
X110222738Y-75394265D01*
X110394265Y-75222738D01*
X110541936Y-75030289D01*
X110663224Y-74820212D01*
X110756054Y-74596100D01*
X110818838Y-74361789D01*
X110833555Y-74250000D01*
X129114417Y-74250000D01*
X129134699Y-74455932D01*
X129147991Y-74499750D01*
X129194768Y-74653954D01*
X129292315Y-74836450D01*
X129292317Y-74836452D01*
X129423589Y-74996410D01*
X129520209Y-75075702D01*
X129583550Y-75127685D01*
X129766046Y-75225232D01*
X129964066Y-75285300D01*
X129964065Y-75285300D01*
X129982529Y-75287118D01*
X130170000Y-75305583D01*
X130375934Y-75285300D01*
X130573954Y-75225232D01*
X130756450Y-75127685D01*
X130916410Y-74996410D01*
X131047685Y-74836450D01*
X131145232Y-74653954D01*
X131205300Y-74455934D01*
X131225583Y-74250000D01*
X131654417Y-74250000D01*
X131674699Y-74455932D01*
X131687991Y-74499750D01*
X131734768Y-74653954D01*
X131832315Y-74836450D01*
X131832317Y-74836452D01*
X131963589Y-74996410D01*
X132060209Y-75075702D01*
X132123550Y-75127685D01*
X132306046Y-75225232D01*
X132504066Y-75285300D01*
X132504065Y-75285300D01*
X132522529Y-75287118D01*
X132710000Y-75305583D01*
X132915934Y-75285300D01*
X133113954Y-75225232D01*
X133296450Y-75127685D01*
X133456410Y-74996410D01*
X133587685Y-74836450D01*
X133685232Y-74653954D01*
X133745300Y-74455934D01*
X133765583Y-74250000D01*
X134194417Y-74250000D01*
X134214699Y-74455932D01*
X134227991Y-74499750D01*
X134274768Y-74653954D01*
X134372315Y-74836450D01*
X134372317Y-74836452D01*
X134503589Y-74996410D01*
X134600209Y-75075702D01*
X134663550Y-75127685D01*
X134846046Y-75225232D01*
X135044066Y-75285300D01*
X135044065Y-75285300D01*
X135062529Y-75287118D01*
X135250000Y-75305583D01*
X135455934Y-75285300D01*
X135653954Y-75225232D01*
X135836450Y-75127685D01*
X135996410Y-74996410D01*
X136127685Y-74836450D01*
X136225232Y-74653954D01*
X136285300Y-74455934D01*
X136305583Y-74250000D01*
X136285300Y-74044066D01*
X136225232Y-73846046D01*
X136127685Y-73663550D01*
X136075702Y-73600209D01*
X135996410Y-73503589D01*
X135846121Y-73380252D01*
X135846115Y-73380247D01*
X136739500Y-73380247D01*
X136739500Y-75119752D01*
X136751131Y-75178229D01*
X136751132Y-75178230D01*
X136795447Y-75244552D01*
X136861769Y-75288867D01*
X136861770Y-75288868D01*
X136920247Y-75300499D01*
X136920250Y-75300500D01*
X136920252Y-75300500D01*
X138659750Y-75300500D01*
X138659751Y-75300499D01*
X138674568Y-75297552D01*
X138718229Y-75288868D01*
X138718229Y-75288867D01*
X138718231Y-75288867D01*
X138784552Y-75244552D01*
X138828867Y-75178231D01*
X138828867Y-75178229D01*
X138828868Y-75178229D01*
X138840499Y-75119752D01*
X138840500Y-75119750D01*
X138840500Y-73380249D01*
X138840499Y-73380247D01*
X138828868Y-73321770D01*
X138828867Y-73321769D01*
X138784552Y-73255447D01*
X138718230Y-73211132D01*
X138718229Y-73211131D01*
X138659752Y-73199500D01*
X138659748Y-73199500D01*
X136920252Y-73199500D01*
X136920247Y-73199500D01*
X136861770Y-73211131D01*
X136861769Y-73211132D01*
X136795447Y-73255447D01*
X136751132Y-73321769D01*
X136751131Y-73321770D01*
X136739500Y-73380247D01*
X135846115Y-73380247D01*
X135836450Y-73372315D01*
X135653954Y-73274768D01*
X135455934Y-73214700D01*
X135455932Y-73214699D01*
X135455934Y-73214699D01*
X135250000Y-73194417D01*
X135044067Y-73214699D01*
X134846043Y-73274769D01*
X134758114Y-73321769D01*
X134663550Y-73372315D01*
X134663548Y-73372316D01*
X134663547Y-73372317D01*
X134503589Y-73503589D01*
X134372317Y-73663547D01*
X134274769Y-73846043D01*
X134214699Y-74044067D01*
X134194417Y-74250000D01*
X133765583Y-74250000D01*
X133745300Y-74044066D01*
X133685232Y-73846046D01*
X133587685Y-73663550D01*
X133535702Y-73600209D01*
X133456410Y-73503589D01*
X133306121Y-73380252D01*
X133296450Y-73372315D01*
X133113954Y-73274768D01*
X132915934Y-73214700D01*
X132915932Y-73214699D01*
X132915934Y-73214699D01*
X132710000Y-73194417D01*
X132504067Y-73214699D01*
X132306043Y-73274769D01*
X132218114Y-73321769D01*
X132123550Y-73372315D01*
X132123548Y-73372316D01*
X132123547Y-73372317D01*
X131963589Y-73503589D01*
X131832317Y-73663547D01*
X131734769Y-73846043D01*
X131674699Y-74044067D01*
X131654417Y-74250000D01*
X131225583Y-74250000D01*
X131205300Y-74044066D01*
X131145232Y-73846046D01*
X131047685Y-73663550D01*
X130995702Y-73600209D01*
X130916410Y-73503589D01*
X130766121Y-73380252D01*
X130756450Y-73372315D01*
X130573954Y-73274768D01*
X130375934Y-73214700D01*
X130375932Y-73214699D01*
X130375934Y-73214699D01*
X130170000Y-73194417D01*
X129964067Y-73214699D01*
X129766043Y-73274769D01*
X129678114Y-73321769D01*
X129583550Y-73372315D01*
X129583548Y-73372316D01*
X129583547Y-73372317D01*
X129423589Y-73503589D01*
X129292317Y-73663547D01*
X129194769Y-73846043D01*
X129134699Y-74044067D01*
X129114417Y-74250000D01*
X110833555Y-74250000D01*
X110850500Y-74121288D01*
X110850500Y-73878712D01*
X110818838Y-73638211D01*
X110756054Y-73403900D01*
X110663224Y-73179788D01*
X110541936Y-72969711D01*
X110507630Y-72925002D01*
X121168071Y-72925002D01*
X121188552Y-73067458D01*
X121239855Y-73179794D01*
X121248341Y-73198375D01*
X121342590Y-73307145D01*
X121463665Y-73384955D01*
X121463668Y-73384956D01*
X121463667Y-73384956D01*
X121601754Y-73425501D01*
X121601756Y-73425502D01*
X121601757Y-73425502D01*
X121745680Y-73425502D01*
X121745680Y-73425501D01*
X121883771Y-73384955D01*
X122004846Y-73307145D01*
X122099095Y-73198375D01*
X122158883Y-73067459D01*
X122179365Y-72925002D01*
X122158883Y-72782545D01*
X122148700Y-72760247D01*
X143199500Y-72760247D01*
X143199500Y-74499752D01*
X143211131Y-74558229D01*
X143211132Y-74558230D01*
X143255447Y-74624552D01*
X143321769Y-74668867D01*
X143321770Y-74668868D01*
X143380247Y-74680499D01*
X143380250Y-74680500D01*
X143380252Y-74680500D01*
X145119750Y-74680500D01*
X145119751Y-74680499D01*
X145134568Y-74677552D01*
X145178229Y-74668868D01*
X145178229Y-74668867D01*
X145178231Y-74668867D01*
X145244552Y-74624552D01*
X145288867Y-74558231D01*
X145288867Y-74558229D01*
X145288868Y-74558229D01*
X145300499Y-74499752D01*
X145300500Y-74499750D01*
X145300500Y-74375247D01*
X166044500Y-74375247D01*
X166044500Y-77014752D01*
X166056131Y-77073229D01*
X166056132Y-77073230D01*
X166100447Y-77139552D01*
X166166769Y-77183867D01*
X166166770Y-77183868D01*
X166225247Y-77195499D01*
X166225250Y-77195500D01*
X166225252Y-77195500D01*
X168864750Y-77195500D01*
X168864751Y-77195499D01*
X168879568Y-77192552D01*
X168923229Y-77183868D01*
X168923229Y-77183867D01*
X168923231Y-77183867D01*
X168989552Y-77139552D01*
X169033867Y-77073231D01*
X169033867Y-77073229D01*
X169033868Y-77073229D01*
X169045499Y-77014752D01*
X169045500Y-77014750D01*
X169045500Y-76250000D01*
X172250000Y-76250000D01*
X177750000Y-76250000D01*
X177750000Y-71750000D01*
X172250000Y-71750000D01*
X172250000Y-76250000D01*
X169045500Y-76250000D01*
X169045500Y-74375249D01*
X169045499Y-74375247D01*
X169033868Y-74316770D01*
X169033867Y-74316769D01*
X168989552Y-74250447D01*
X168923230Y-74206132D01*
X168923229Y-74206131D01*
X168864752Y-74194500D01*
X168864748Y-74194500D01*
X166225252Y-74194500D01*
X166225247Y-74194500D01*
X166166770Y-74206131D01*
X166166769Y-74206132D01*
X166100447Y-74250447D01*
X166056132Y-74316769D01*
X166056131Y-74316770D01*
X166044500Y-74375247D01*
X145300500Y-74375247D01*
X145300500Y-72760249D01*
X145300499Y-72760247D01*
X145288868Y-72701770D01*
X145288867Y-72701769D01*
X145244552Y-72635447D01*
X145178230Y-72591132D01*
X145178229Y-72591131D01*
X145119752Y-72579500D01*
X145119748Y-72579500D01*
X143380252Y-72579500D01*
X143380247Y-72579500D01*
X143321770Y-72591131D01*
X143321769Y-72591132D01*
X143255447Y-72635447D01*
X143211132Y-72701769D01*
X143211131Y-72701770D01*
X143199500Y-72760247D01*
X122148700Y-72760247D01*
X122099095Y-72651629D01*
X122004846Y-72542859D01*
X121883771Y-72465049D01*
X121883769Y-72465048D01*
X121883767Y-72465047D01*
X121883768Y-72465047D01*
X121745681Y-72424502D01*
X121745679Y-72424502D01*
X121601757Y-72424502D01*
X121601754Y-72424502D01*
X121463667Y-72465047D01*
X121342591Y-72542858D01*
X121248341Y-72651628D01*
X121248340Y-72651630D01*
X121188552Y-72782545D01*
X121168071Y-72925002D01*
X110507630Y-72925002D01*
X110394265Y-72777262D01*
X110394260Y-72777256D01*
X110222743Y-72605739D01*
X110222736Y-72605733D01*
X110030293Y-72458067D01*
X110030292Y-72458066D01*
X110030289Y-72458064D01*
X109820212Y-72336776D01*
X109792994Y-72325502D01*
X109596104Y-72243947D01*
X109361785Y-72181161D01*
X109121289Y-72149500D01*
X109121288Y-72149500D01*
X108878712Y-72149500D01*
X108878711Y-72149500D01*
X108638214Y-72181161D01*
X108403895Y-72243947D01*
X108179794Y-72336773D01*
X108179785Y-72336777D01*
X107969706Y-72458067D01*
X107777263Y-72605733D01*
X107777256Y-72605739D01*
X107605739Y-72777256D01*
X107605733Y-72777263D01*
X107458067Y-72969706D01*
X107336777Y-73179785D01*
X107336773Y-73179794D01*
X107243947Y-73403895D01*
X107181161Y-73638214D01*
X107149500Y-73878711D01*
X104505796Y-73878711D01*
X104517386Y-73613226D01*
X104518326Y-73602495D01*
X104568152Y-73224025D01*
X104570025Y-73213405D01*
X104652649Y-72840709D01*
X104655440Y-72830295D01*
X104770230Y-72466227D01*
X104773917Y-72456095D01*
X104920003Y-72103412D01*
X104924561Y-72093638D01*
X105100822Y-71755045D01*
X105106217Y-71745700D01*
X105183110Y-71625002D01*
X116194355Y-71625002D01*
X116214859Y-71793871D01*
X116214860Y-71793876D01*
X116275182Y-71952933D01*
X116306853Y-71998815D01*
X116371817Y-72092931D01*
X116471410Y-72181162D01*
X116499150Y-72205738D01*
X116649773Y-72284791D01*
X116649775Y-72284792D01*
X116814944Y-72325502D01*
X116985056Y-72325502D01*
X117150225Y-72284792D01*
X117229692Y-72243083D01*
X117300849Y-72205738D01*
X117300850Y-72205736D01*
X117300852Y-72205736D01*
X117428183Y-72092931D01*
X117524818Y-71952932D01*
X117582817Y-71800000D01*
X128594355Y-71800000D01*
X128614859Y-71968869D01*
X128614860Y-71968874D01*
X128675182Y-72127931D01*
X128728888Y-72205736D01*
X128771817Y-72267929D01*
X128849531Y-72336777D01*
X128899150Y-72380736D01*
X128991426Y-72429166D01*
X129049775Y-72459790D01*
X129214944Y-72500500D01*
X129385056Y-72500500D01*
X129550225Y-72459790D01*
X129629692Y-72418081D01*
X129700849Y-72380736D01*
X129700850Y-72380734D01*
X129700852Y-72380734D01*
X129828183Y-72267929D01*
X129924818Y-72127930D01*
X129985140Y-71968872D01*
X130005645Y-71800000D01*
X129985140Y-71631128D01*
X129924818Y-71472070D01*
X129913815Y-71456130D01*
X129885352Y-71414894D01*
X129828183Y-71332071D01*
X129700852Y-71219266D01*
X129700849Y-71219263D01*
X129550226Y-71140210D01*
X129385056Y-71099500D01*
X129214944Y-71099500D01*
X129049773Y-71140210D01*
X128899150Y-71219263D01*
X128771816Y-71332072D01*
X128675182Y-71472068D01*
X128614860Y-71631125D01*
X128614859Y-71631130D01*
X128594355Y-71800000D01*
X117582817Y-71800000D01*
X117585140Y-71793874D01*
X117605645Y-71625002D01*
X117585140Y-71456130D01*
X117524818Y-71297072D01*
X117428183Y-71157073D01*
X117300852Y-71044268D01*
X117300849Y-71044265D01*
X117150226Y-70965212D01*
X116985056Y-70924502D01*
X116814944Y-70924502D01*
X116649773Y-70965212D01*
X116499150Y-71044265D01*
X116371816Y-71157074D01*
X116275182Y-71297070D01*
X116214860Y-71456127D01*
X116214859Y-71456132D01*
X116194355Y-71625002D01*
X105183110Y-71625002D01*
X105311325Y-71423744D01*
X105317515Y-71414905D01*
X105549896Y-71112060D01*
X105556834Y-71103791D01*
X105814726Y-70822352D01*
X105822352Y-70814726D01*
X106103791Y-70556834D01*
X106112060Y-70549896D01*
X106414905Y-70317515D01*
X106423744Y-70311325D01*
X106745700Y-70106217D01*
X106755045Y-70100822D01*
X107093638Y-69924561D01*
X107103412Y-69920003D01*
X107456095Y-69773917D01*
X107466227Y-69770230D01*
X107830295Y-69655440D01*
X107840709Y-69652649D01*
X108213405Y-69570025D01*
X108224025Y-69568152D01*
X108602495Y-69518326D01*
X108613226Y-69517386D01*
X108997297Y-69500617D01*
X109002706Y-69500500D01*
X109065892Y-69500500D01*
X174934108Y-69500500D01*
X174997294Y-69500500D01*
X175002702Y-69500617D01*
G37*
%TD.AperFunction*%
%TD*%
M02*
