%TF.GenerationSoftware,KiCad,Pcbnew,8.0.7*%
%TF.CreationDate,2025-01-14T18:40:28+07:00*%
%TF.ProjectId,Teensy4.0,5465656e-7379-4342-9e30-2e6b69636164,rev?*%
%TF.SameCoordinates,Original*%
%TF.FileFunction,Soldermask,Bot*%
%TF.FilePolarity,Negative*%
%FSLAX46Y46*%
G04 Gerber Fmt 4.6, Leading zero omitted, Abs format (unit mm)*
G04 Created by KiCad (PCBNEW 8.0.7) date 2025-01-14 18:40:28*
%MOMM*%
%LPD*%
G01*
G04 APERTURE LIST*
G04 Aperture macros list*
%AMRoundRect*
0 Rectangle with rounded corners*
0 $1 Rounding radius*
0 $2 $3 $4 $5 $6 $7 $8 $9 X,Y pos of 4 corners*
0 Add a 4 corners polygon primitive as box body*
4,1,4,$2,$3,$4,$5,$6,$7,$8,$9,$2,$3,0*
0 Add four circle primitives for the rounded corners*
1,1,$1+$1,$2,$3*
1,1,$1+$1,$4,$5*
1,1,$1+$1,$6,$7*
1,1,$1+$1,$8,$9*
0 Add four rect primitives between the rounded corners*
20,1,$1+$1,$2,$3,$4,$5,0*
20,1,$1+$1,$4,$5,$6,$7,0*
20,1,$1+$1,$6,$7,$8,$9,0*
20,1,$1+$1,$8,$9,$2,$3,0*%
G04 Aperture macros list end*
%ADD10C,1.700000*%
%ADD11R,1.700000X1.700000*%
%ADD12C,1.600000*%
%ADD13RoundRect,0.250000X-0.350000X-0.625000X0.350000X-0.625000X0.350000X0.625000X-0.350000X0.625000X0*%
%ADD14O,1.200000X1.750000*%
%ADD15R,2.000000X2.000000*%
%ADD16C,2.000000*%
%ADD17C,3.200000*%
%ADD18O,1.700000X1.700000*%
%ADD19R,2.600000X2.600000*%
%ADD20C,2.600000*%
G04 APERTURE END LIST*
D10*
%TO.C,U2*%
X117650500Y-119795000D03*
X115110500Y-119795000D03*
X117650500Y-117255000D03*
X115110500Y-117255000D03*
X117650500Y-114715000D03*
X115110500Y-114715000D03*
X117650500Y-112175000D03*
D11*
X115110500Y-112175000D03*
%TD*%
D12*
%TO.C,U1*%
X107490000Y-105620000D03*
X110030000Y-105620000D03*
X112570000Y-105620000D03*
X115110000Y-105620000D03*
X117650000Y-105620000D03*
X120190000Y-105620000D03*
X122730000Y-105620000D03*
X125270000Y-105620000D03*
X127810000Y-105620000D03*
X130350000Y-105620000D03*
X132890000Y-105620000D03*
X135430000Y-105620000D03*
X137970000Y-105620000D03*
X140510000Y-105620000D03*
X140510000Y-103080000D03*
X140510000Y-100540000D03*
X140510000Y-98000000D03*
X140510000Y-95460000D03*
X140510000Y-92920000D03*
X140510000Y-90380000D03*
X137970000Y-90380000D03*
X135430000Y-90380000D03*
X132890000Y-90380000D03*
X130350000Y-90380000D03*
X127810000Y-90380000D03*
X125270000Y-90380000D03*
X122730000Y-90380000D03*
X120190000Y-90380000D03*
X117650000Y-90380000D03*
X115110000Y-90380000D03*
X112570000Y-90380000D03*
X110030000Y-90380000D03*
X107490000Y-90380000D03*
X110030000Y-92920000D03*
X135430000Y-92920000D03*
X132890000Y-92920000D03*
X135430000Y-95460000D03*
X132890000Y-95460000D03*
X135430000Y-98000000D03*
X132890000Y-98000000D03*
X135430000Y-100540000D03*
X132890000Y-100540000D03*
X135430000Y-103080000D03*
X132890000Y-103080000D03*
%TD*%
D13*
%TO.C,servo1*%
X172600000Y-102250000D03*
D14*
X174600000Y-102250000D03*
X176600000Y-102250000D03*
%TD*%
D15*
%TO.C,BZ1*%
X147700000Y-119500000D03*
D16*
X155300000Y-119500000D03*
%TD*%
D17*
%TO.C,H2*%
X175000000Y-74000000D03*
%TD*%
D11*
%TO.C,J1*%
X137790000Y-74250000D03*
D18*
X135250000Y-74250000D03*
X132710000Y-74250000D03*
X130170000Y-74250000D03*
%TD*%
D17*
%TO.C,H1*%
X109000000Y-74000000D03*
%TD*%
D13*
%TO.C,servo13*%
X172600000Y-96650000D03*
D14*
X174600000Y-96650000D03*
X176600000Y-96650000D03*
%TD*%
D13*
%TO.C,servo11*%
X172600000Y-85400000D03*
D14*
X174600000Y-85400000D03*
X176600000Y-85400000D03*
%TD*%
D13*
%TO.C,servo5*%
X163600000Y-107800000D03*
D14*
X165600000Y-107800000D03*
X167600000Y-107800000D03*
%TD*%
D13*
%TO.C,servo4*%
X163600000Y-119250000D03*
D14*
X165600000Y-119250000D03*
X167600000Y-119250000D03*
%TD*%
D11*
%TO.C,5V1*%
X144250000Y-73630000D03*
D18*
X144250000Y-76170000D03*
X144250000Y-78710000D03*
%TD*%
D13*
%TO.C,servo2*%
X163600000Y-113450000D03*
D14*
X165600000Y-113450000D03*
X167600000Y-113450000D03*
%TD*%
D11*
%TO.C,S4*%
X130100000Y-84275000D03*
D18*
X130100000Y-81735000D03*
%TD*%
D19*
%TO.C,Main-Power1*%
X167545000Y-75695000D03*
D20*
X162465000Y-75695000D03*
%TD*%
D13*
%TO.C,servo10*%
X163600000Y-102250000D03*
D14*
X165600000Y-102250000D03*
X167600000Y-102250000D03*
%TD*%
D11*
%TO.C,S2*%
X135900000Y-84250000D03*
D18*
X135900000Y-81710000D03*
%TD*%
D17*
%TO.C,H4*%
X175000000Y-122000000D03*
%TD*%
D13*
%TO.C,servo3*%
X163600000Y-96650000D03*
D14*
X165600000Y-96650000D03*
X167600000Y-96650000D03*
%TD*%
D13*
%TO.C,servo9*%
X172600000Y-91000000D03*
D14*
X174600000Y-91000000D03*
X176600000Y-91000000D03*
%TD*%
D17*
%TO.C,H3*%
X109000000Y-122000000D03*
%TD*%
D16*
%TO.C,button1*%
X106750000Y-116500000D03*
X106750000Y-110000000D03*
X111250000Y-116500000D03*
X111250000Y-110000000D03*
%TD*%
D11*
%TO.C,J2*%
X137790000Y-77000000D03*
D18*
X135250000Y-77000000D03*
X132710000Y-77000000D03*
X130170000Y-77000000D03*
%TD*%
D11*
%TO.C,S3*%
X133000000Y-84275000D03*
D18*
X133000000Y-81735000D03*
%TD*%
D13*
%TO.C,servo12*%
X163600000Y-91050000D03*
D14*
X165600000Y-91050000D03*
X167600000Y-91050000D03*
%TD*%
D13*
%TO.C,servo8*%
X172600000Y-113450000D03*
D14*
X174600000Y-113450000D03*
X176600000Y-113450000D03*
%TD*%
D13*
%TO.C,servo6*%
X163600000Y-85400000D03*
D14*
X165600000Y-85400000D03*
X167600000Y-85400000D03*
%TD*%
D13*
%TO.C,servo7*%
X172600000Y-107800000D03*
D14*
X174600000Y-107800000D03*
X176600000Y-107800000D03*
%TD*%
D11*
%TO.C,GND1*%
X141500000Y-73670000D03*
D18*
X141500000Y-76210000D03*
X141500000Y-78750000D03*
%TD*%
M02*
