%TF.GenerationSoftware,KiCad,Pcbnew,8.0.7*%
%TF.CreationDate,2025-01-14T18:40:28+07:00*%
%TF.ProjectId,Teensy4.0,5465656e-7379-4342-9e30-2e6b69636164,rev?*%
%TF.SameCoordinates,Original*%
%TF.FileFunction,Soldermask,Top*%
%TF.FilePolarity,Negative*%
%FSLAX46Y46*%
G04 Gerber Fmt 4.6, Leading zero omitted, Abs format (unit mm)*
G04 Created by KiCad (PCBNEW 8.0.7) date 2025-01-14 18:40:28*
%MOMM*%
%LPD*%
G01*
G04 APERTURE LIST*
G04 Aperture macros list*
%AMRoundRect*
0 Rectangle with rounded corners*
0 $1 Rounding radius*
0 $2 $3 $4 $5 $6 $7 $8 $9 X,Y pos of 4 corners*
0 Add a 4 corners polygon primitive as box body*
4,1,4,$2,$3,$4,$5,$6,$7,$8,$9,$2,$3,0*
0 Add four circle primitives for the rounded corners*
1,1,$1+$1,$2,$3*
1,1,$1+$1,$4,$5*
1,1,$1+$1,$6,$7*
1,1,$1+$1,$8,$9*
0 Add four rect primitives between the rounded corners*
20,1,$1+$1,$2,$3,$4,$5,0*
20,1,$1+$1,$4,$5,$6,$7,0*
20,1,$1+$1,$6,$7,$8,$9,0*
20,1,$1+$1,$8,$9,$2,$3,0*%
G04 Aperture macros list end*
%ADD10C,0.000000*%
%ADD11C,1.700000*%
%ADD12R,1.700000X1.700000*%
%ADD13C,1.600000*%
%ADD14R,0.850000X0.300000*%
%ADD15RoundRect,0.250000X-0.350000X-0.625000X0.350000X-0.625000X0.350000X0.625000X-0.350000X0.625000X0*%
%ADD16O,1.200000X1.750000*%
%ADD17R,2.000000X2.000000*%
%ADD18C,2.000000*%
%ADD19C,3.200000*%
%ADD20RoundRect,0.250000X0.475000X-0.337500X0.475000X0.337500X-0.475000X0.337500X-0.475000X-0.337500X0*%
%ADD21O,1.700000X1.700000*%
%ADD22RoundRect,0.250000X-0.475000X0.337500X-0.475000X-0.337500X0.475000X-0.337500X0.475000X0.337500X0*%
%ADD23RoundRect,0.250000X0.450000X-0.350000X0.450000X0.350000X-0.450000X0.350000X-0.450000X-0.350000X0*%
%ADD24RoundRect,0.250000X-0.450000X0.350000X-0.450000X-0.350000X0.450000X-0.350000X0.450000X0.350000X0*%
%ADD25RoundRect,0.250000X-0.337500X-0.475000X0.337500X-0.475000X0.337500X0.475000X-0.337500X0.475000X0*%
%ADD26RoundRect,0.250000X0.337500X0.475000X-0.337500X0.475000X-0.337500X-0.475000X0.337500X-0.475000X0*%
%ADD27RoundRect,0.050000X0.050000X-0.225000X0.050000X0.225000X-0.050000X0.225000X-0.050000X-0.225000X0*%
%ADD28RoundRect,0.050000X0.225000X0.050000X-0.225000X0.050000X-0.225000X-0.050000X0.225000X-0.050000X0*%
%ADD29RoundRect,0.250000X0.450000X-0.325000X0.450000X0.325000X-0.450000X0.325000X-0.450000X-0.325000X0*%
%ADD30RoundRect,0.250000X1.000000X-1.750000X1.000000X1.750000X-1.000000X1.750000X-1.000000X-1.750000X0*%
%ADD31R,0.280000X0.850000*%
%ADD32R,0.850000X0.280000*%
%ADD33RoundRect,0.250000X-0.350000X-0.450000X0.350000X-0.450000X0.350000X0.450000X-0.350000X0.450000X0*%
%ADD34R,2.600000X2.600000*%
%ADD35C,2.600000*%
%ADD36R,2.260600X1.498600*%
%ADD37RoundRect,0.250000X0.350000X0.450000X-0.350000X0.450000X-0.350000X-0.450000X0.350000X-0.450000X0*%
%ADD38RoundRect,0.150000X0.512500X0.150000X-0.512500X0.150000X-0.512500X-0.150000X0.512500X-0.150000X0*%
%ADD39RoundRect,0.250000X-0.450000X0.325000X-0.450000X-0.325000X0.450000X-0.325000X0.450000X0.325000X0*%
%ADD40R,0.558800X1.422400*%
G04 APERTURE END LIST*
D10*
%TO.C,U3*%
G36*
X132800943Y-119190953D02*
G01*
X131811056Y-119190953D01*
X131811056Y-118771046D01*
X132800943Y-118771046D01*
X132800943Y-119190953D01*
G37*
G36*
X132800943Y-119690955D02*
G01*
X131811056Y-119690955D01*
X131811056Y-119271047D01*
X132800943Y-119271047D01*
X132800943Y-119690955D01*
G37*
G36*
X132800943Y-120190954D02*
G01*
X131811056Y-120190954D01*
X131811056Y-119771046D01*
X132800943Y-119771046D01*
X132800943Y-120190954D01*
G37*
G36*
X132800943Y-120690953D02*
G01*
X131811056Y-120690953D01*
X131811056Y-120271045D01*
X132800943Y-120271045D01*
X132800943Y-120690953D01*
G37*
G36*
X132800943Y-121190954D02*
G01*
X131811056Y-121190954D01*
X131811056Y-120771047D01*
X132800943Y-120771047D01*
X132800943Y-121190954D01*
G37*
G36*
X133481299Y-121069500D02*
G01*
X132986499Y-121069500D01*
X132986499Y-118892500D01*
X133481299Y-118892500D01*
X133481299Y-121069500D01*
G37*
G36*
X135163499Y-119387300D02*
G01*
X132986499Y-119387300D01*
X132986499Y-118892500D01*
X135163499Y-118892500D01*
X135163499Y-119387300D01*
G37*
G36*
X135163499Y-120174700D02*
G01*
X132986499Y-120174700D01*
X132986499Y-119787300D01*
X135163499Y-119787300D01*
X135163499Y-120174700D01*
G37*
G36*
X135163499Y-121069500D02*
G01*
X132986499Y-121069500D01*
X132986499Y-120574700D01*
X135163499Y-120574700D01*
X135163499Y-121069500D01*
G37*
G36*
X133534952Y-118744942D02*
G01*
X133115044Y-118744942D01*
X133115044Y-117755058D01*
X133534952Y-117755058D01*
X133534952Y-118744942D01*
G37*
G36*
X133534952Y-122206942D02*
G01*
X133115044Y-122206942D01*
X133115044Y-121217058D01*
X133534952Y-121217058D01*
X133534952Y-122206942D01*
G37*
G36*
X134268699Y-121069500D02*
G01*
X133881299Y-121069500D01*
X133881299Y-118892500D01*
X134268699Y-118892500D01*
X134268699Y-121069500D01*
G37*
G36*
X135034954Y-118744942D02*
G01*
X134615046Y-118744942D01*
X134615046Y-117755058D01*
X135034954Y-117755058D01*
X135034954Y-118744942D01*
G37*
G36*
X135034954Y-122206942D02*
G01*
X134615046Y-122206942D01*
X134615046Y-121217058D01*
X135034954Y-121217058D01*
X135034954Y-122206942D01*
G37*
G36*
X135163499Y-121069500D02*
G01*
X134668699Y-121069500D01*
X134668699Y-118892500D01*
X135163499Y-118892500D01*
X135163499Y-121069500D01*
G37*
G36*
X136338942Y-119190953D02*
G01*
X135349055Y-119190953D01*
X135349055Y-118771046D01*
X136338942Y-118771046D01*
X136338942Y-119190953D01*
G37*
G36*
X136338942Y-119690955D02*
G01*
X135349055Y-119690955D01*
X135349055Y-119271047D01*
X136338942Y-119271047D01*
X136338942Y-119690955D01*
G37*
G36*
X136338942Y-120190954D02*
G01*
X135349055Y-120190954D01*
X135349055Y-119771046D01*
X136338942Y-119771046D01*
X136338942Y-120190954D01*
G37*
G36*
X136338942Y-120690953D02*
G01*
X135349055Y-120690953D01*
X135349055Y-120271045D01*
X136338942Y-120271045D01*
X136338942Y-120690953D01*
G37*
G36*
X136338942Y-121190954D02*
G01*
X135349055Y-121190954D01*
X135349055Y-120771047D01*
X136338942Y-120771047D01*
X136338942Y-121190954D01*
G37*
%TO.C,U7*%
G36*
X148870242Y-102603653D02*
G01*
X147880358Y-102603653D01*
X147880358Y-102183745D01*
X148870242Y-102183745D01*
X148870242Y-102603653D01*
G37*
G36*
X148870242Y-104103655D02*
G01*
X147880358Y-104103655D01*
X147880358Y-103683747D01*
X148870242Y-103683747D01*
X148870242Y-104103655D01*
G37*
G36*
X149316253Y-101869644D02*
G01*
X148896346Y-101869644D01*
X148896346Y-100879757D01*
X149316253Y-100879757D01*
X149316253Y-101869644D01*
G37*
G36*
X149316253Y-105407643D02*
G01*
X148896346Y-105407643D01*
X148896346Y-104417756D01*
X149316253Y-104417756D01*
X149316253Y-105407643D01*
G37*
G36*
X151194800Y-102550000D02*
G01*
X149017800Y-102550000D01*
X149017800Y-102055200D01*
X151194800Y-102055200D01*
X151194800Y-102550000D01*
G37*
G36*
X151194800Y-103337400D02*
G01*
X149017800Y-103337400D01*
X149017800Y-102950000D01*
X151194800Y-102950000D01*
X151194800Y-103337400D01*
G37*
G36*
X149512600Y-104232200D02*
G01*
X149017800Y-104232200D01*
X149017800Y-102055200D01*
X149512600Y-102055200D01*
X149512600Y-104232200D01*
G37*
G36*
X151194800Y-104232200D02*
G01*
X149017800Y-104232200D01*
X149017800Y-103737400D01*
X151194800Y-103737400D01*
X151194800Y-104232200D01*
G37*
G36*
X149816255Y-101869644D02*
G01*
X149396347Y-101869644D01*
X149396347Y-100879757D01*
X149816255Y-100879757D01*
X149816255Y-101869644D01*
G37*
G36*
X149816255Y-105407643D02*
G01*
X149396347Y-105407643D01*
X149396347Y-104417756D01*
X149816255Y-104417756D01*
X149816255Y-105407643D01*
G37*
G36*
X150316254Y-101869644D02*
G01*
X149896346Y-101869644D01*
X149896346Y-100879757D01*
X150316254Y-100879757D01*
X150316254Y-101869644D01*
G37*
G36*
X150316254Y-105407643D02*
G01*
X149896346Y-105407643D01*
X149896346Y-104417756D01*
X150316254Y-104417756D01*
X150316254Y-105407643D01*
G37*
G36*
X150300000Y-104232200D02*
G01*
X149912600Y-104232200D01*
X149912600Y-102055200D01*
X150300000Y-102055200D01*
X150300000Y-104232200D01*
G37*
G36*
X150816253Y-101869644D02*
G01*
X150396345Y-101869644D01*
X150396345Y-100879757D01*
X150816253Y-100879757D01*
X150816253Y-101869644D01*
G37*
G36*
X150816253Y-105407643D02*
G01*
X150396345Y-105407643D01*
X150396345Y-104417756D01*
X150816253Y-104417756D01*
X150816253Y-105407643D01*
G37*
G36*
X151194800Y-104232200D02*
G01*
X150700000Y-104232200D01*
X150700000Y-102055200D01*
X151194800Y-102055200D01*
X151194800Y-104232200D01*
G37*
G36*
X151316254Y-101869644D02*
G01*
X150896347Y-101869644D01*
X150896347Y-100879757D01*
X151316254Y-100879757D01*
X151316254Y-101869644D01*
G37*
G36*
X151316254Y-105407643D02*
G01*
X150896347Y-105407643D01*
X150896347Y-104417756D01*
X151316254Y-104417756D01*
X151316254Y-105407643D01*
G37*
G36*
X152332242Y-102603653D02*
G01*
X151342358Y-102603653D01*
X151342358Y-102183745D01*
X152332242Y-102183745D01*
X152332242Y-102603653D01*
G37*
G36*
X152332242Y-104103655D02*
G01*
X151342358Y-104103655D01*
X151342358Y-103683747D01*
X152332242Y-103683747D01*
X152332242Y-104103655D01*
G37*
%TO.C,U4*%
G36*
X118910845Y-77380847D02*
G01*
X117921654Y-77380847D01*
X117921654Y-76961653D01*
X118910845Y-76961653D01*
X118910845Y-77380847D01*
G37*
G36*
X118910845Y-77880846D02*
G01*
X117921654Y-77880846D01*
X117921654Y-77461655D01*
X118910845Y-77461655D01*
X118910845Y-77880846D01*
G37*
G36*
X118910845Y-78380845D02*
G01*
X117921654Y-78380845D01*
X117921654Y-77961654D01*
X118910845Y-77961654D01*
X118910845Y-78380845D01*
G37*
G36*
X118910845Y-78880847D02*
G01*
X117921654Y-78880847D01*
X117921654Y-78461653D01*
X118910845Y-78461653D01*
X118910845Y-78880847D01*
G37*
G36*
X119297549Y-78834750D02*
G01*
X118977749Y-78834750D01*
X118977749Y-77007750D01*
X119297549Y-77007750D01*
X119297549Y-78834750D01*
G37*
G36*
X119350656Y-76940846D02*
G01*
X118931464Y-76940846D01*
X118931464Y-75951655D01*
X119350656Y-75951655D01*
X119350656Y-76940846D01*
G37*
G36*
X119350656Y-79890845D02*
G01*
X118931464Y-79890845D01*
X118931464Y-78901654D01*
X119350656Y-78901654D01*
X119350656Y-79890845D01*
G37*
G36*
X120084949Y-78834750D02*
G01*
X119697549Y-78834750D01*
X119697549Y-77007750D01*
X120084949Y-77007750D01*
X120084949Y-78834750D01*
G37*
G36*
X119850782Y-76940846D02*
G01*
X119431590Y-76940846D01*
X119431590Y-75951655D01*
X119850782Y-75951655D01*
X119850782Y-76940846D01*
G37*
G36*
X119850782Y-79890845D02*
G01*
X119431590Y-79890845D01*
X119431590Y-78901654D01*
X119850782Y-78901654D01*
X119850782Y-79890845D01*
G37*
G36*
X120350908Y-76940846D02*
G01*
X119931716Y-76940846D01*
X119931716Y-75951655D01*
X120350908Y-75951655D01*
X120350908Y-76940846D01*
G37*
G36*
X120350908Y-79890845D02*
G01*
X119931716Y-79890845D01*
X119931716Y-78901654D01*
X120350908Y-78901654D01*
X120350908Y-79890845D01*
G37*
G36*
X120804749Y-77327550D02*
G01*
X118977749Y-77327550D01*
X118977749Y-77007750D01*
X120804749Y-77007750D01*
X120804749Y-77327550D01*
G37*
G36*
X120804749Y-78114950D02*
G01*
X118977749Y-78114950D01*
X118977749Y-77727550D01*
X120804749Y-77727550D01*
X120804749Y-78114950D01*
G37*
G36*
X120804749Y-78834750D02*
G01*
X118977749Y-78834750D01*
X118977749Y-78514950D01*
X120804749Y-78514950D01*
X120804749Y-78834750D01*
G37*
G36*
X120804749Y-78834750D02*
G01*
X120484949Y-78834750D01*
X120484949Y-77007750D01*
X120804749Y-77007750D01*
X120804749Y-78834750D01*
G37*
G36*
X120851034Y-76940846D02*
G01*
X120431842Y-76940846D01*
X120431842Y-75951655D01*
X120851034Y-75951655D01*
X120851034Y-76940846D01*
G37*
G36*
X120851034Y-79890845D02*
G01*
X120431842Y-79890845D01*
X120431842Y-78901654D01*
X120851034Y-78901654D01*
X120851034Y-79890845D01*
G37*
G36*
X121860844Y-77380847D02*
G01*
X120871653Y-77380847D01*
X120871653Y-76961653D01*
X121860844Y-76961653D01*
X121860844Y-77380847D01*
G37*
G36*
X121860844Y-77880846D02*
G01*
X120871653Y-77880846D01*
X120871653Y-77461655D01*
X121860844Y-77461655D01*
X121860844Y-77880846D01*
G37*
G36*
X121860844Y-78380845D02*
G01*
X120871653Y-78380845D01*
X120871653Y-77961654D01*
X121860844Y-77961654D01*
X121860844Y-78380845D01*
G37*
G36*
X121860844Y-78880847D02*
G01*
X120871653Y-78880847D01*
X120871653Y-78461653D01*
X121860844Y-78461653D01*
X121860844Y-78880847D01*
G37*
%TD*%
D11*
%TO.C,U2*%
X117650500Y-119795000D03*
X115110500Y-119795000D03*
X117650500Y-117255000D03*
X115110500Y-117255000D03*
X117650500Y-114715000D03*
X115110500Y-114715000D03*
X117650500Y-112175000D03*
D12*
X115110500Y-112175000D03*
%TD*%
D13*
%TO.C,U1*%
X107490000Y-105620000D03*
X110030000Y-105620000D03*
X112570000Y-105620000D03*
X115110000Y-105620000D03*
X117650000Y-105620000D03*
X120190000Y-105620000D03*
X122730000Y-105620000D03*
X125270000Y-105620000D03*
X127810000Y-105620000D03*
X130350000Y-105620000D03*
X132890000Y-105620000D03*
X135430000Y-105620000D03*
X137970000Y-105620000D03*
X140510000Y-105620000D03*
X140510000Y-103080000D03*
X140510000Y-100540000D03*
X140510000Y-98000000D03*
X140510000Y-95460000D03*
X140510000Y-92920000D03*
X140510000Y-90380000D03*
X137970000Y-90380000D03*
X135430000Y-90380000D03*
X132890000Y-90380000D03*
X130350000Y-90380000D03*
X127810000Y-90380000D03*
X125270000Y-90380000D03*
X122730000Y-90380000D03*
X120190000Y-90380000D03*
X117650000Y-90380000D03*
X115110000Y-90380000D03*
X112570000Y-90380000D03*
X110030000Y-90380000D03*
X107490000Y-90380000D03*
X110030000Y-92920000D03*
X135430000Y-92920000D03*
X132890000Y-92920000D03*
X135430000Y-95460000D03*
X132890000Y-95460000D03*
X135430000Y-98000000D03*
X132890000Y-98000000D03*
X135430000Y-100540000D03*
X132890000Y-100540000D03*
X135430000Y-103080000D03*
X132890000Y-103080000D03*
%TD*%
D14*
%TO.C,IC2*%
X139250000Y-118500000D03*
X139250000Y-119000000D03*
X139250000Y-119500000D03*
X139250000Y-120000000D03*
X142400000Y-120000000D03*
X142400000Y-119500000D03*
X142400000Y-119000000D03*
X142400000Y-118500000D03*
%TD*%
D15*
%TO.C,servo1*%
X172600000Y-102250000D03*
D16*
X174600000Y-102250000D03*
X176600000Y-102250000D03*
%TD*%
D17*
%TO.C,BZ1*%
X147700000Y-119500000D03*
D18*
X155300000Y-119500000D03*
%TD*%
D19*
%TO.C,H2*%
X175000000Y-74000000D03*
%TD*%
D20*
%TO.C,C24*%
X144500000Y-102037500D03*
X144500000Y-99962500D03*
%TD*%
D12*
%TO.C,J1*%
X137790000Y-74250000D03*
D21*
X135250000Y-74250000D03*
X132710000Y-74250000D03*
X130170000Y-74250000D03*
%TD*%
D22*
%TO.C,C23*%
X146500000Y-99962500D03*
X146500000Y-102037500D03*
%TD*%
D23*
%TO.C,R11*%
X145250000Y-90250000D03*
X145250000Y-88250000D03*
%TD*%
D19*
%TO.C,H1*%
X109000000Y-74000000D03*
%TD*%
D24*
%TO.C,R1*%
X123018750Y-72718750D03*
X123018750Y-74718750D03*
%TD*%
%TO.C,R2*%
X147468799Y-94243701D03*
X147468799Y-96243701D03*
%TD*%
D25*
%TO.C,C17*%
X134887500Y-116200000D03*
X136962500Y-116200000D03*
%TD*%
D15*
%TO.C,servo13*%
X172600000Y-96650000D03*
D16*
X174600000Y-96650000D03*
X176600000Y-96650000D03*
%TD*%
D26*
%TO.C,C2*%
X109537500Y-85250000D03*
X107462500Y-85250000D03*
%TD*%
D27*
%TO.C,U6*%
X149568799Y-98343701D03*
X149968799Y-98343701D03*
X150368799Y-98343701D03*
X150768799Y-98343701D03*
X151168799Y-98343701D03*
X151568799Y-98343701D03*
D28*
X152068799Y-97843701D03*
X152068799Y-97443701D03*
X152068799Y-97043701D03*
X152068799Y-96643701D03*
X152068799Y-96243701D03*
X152068799Y-95843701D03*
D27*
X151568799Y-95343701D03*
X151168799Y-95343701D03*
X150768799Y-95343701D03*
X150368799Y-95343701D03*
X149968799Y-95343701D03*
X149568799Y-95343701D03*
D28*
X149068799Y-95843701D03*
X149068799Y-96243701D03*
X149068799Y-96643701D03*
X149068799Y-97043701D03*
X149068799Y-97443701D03*
X149068799Y-97843701D03*
%TD*%
D23*
%TO.C,R13*%
X147500000Y-90250000D03*
X147500000Y-88250000D03*
%TD*%
D25*
%TO.C,C21*%
X131087500Y-116200000D03*
X133162500Y-116200000D03*
%TD*%
D29*
%TO.C,VCC*%
X146500000Y-86275000D03*
X146500000Y-84225000D03*
%TD*%
D22*
%TO.C,C18*%
X155668799Y-97906201D03*
X155668799Y-99981201D03*
%TD*%
D20*
%TO.C,C14*%
X111800000Y-88037500D03*
X111800000Y-85962500D03*
%TD*%
D30*
%TO.C,C13*%
X152000000Y-81000000D03*
X152000000Y-73000000D03*
%TD*%
D20*
%TO.C,C16*%
X144500000Y-106037500D03*
X144500000Y-103962500D03*
%TD*%
D31*
%TO.C,U3*%
X133324998Y-118250000D03*
D32*
X132305998Y-118980999D03*
X132305998Y-119481001D03*
X132305998Y-119981000D03*
X132305998Y-120480999D03*
X132305998Y-120981001D03*
D31*
X133324998Y-121712000D03*
X134825000Y-121712000D03*
D32*
X135844000Y-120981001D03*
X135844000Y-120480999D03*
X135844000Y-119981000D03*
X135844000Y-119481001D03*
X135844000Y-118980999D03*
D31*
X134825000Y-118250000D03*
%TD*%
D23*
%TO.C,R3*%
X143000000Y-90250000D03*
X143000000Y-88250000D03*
%TD*%
D15*
%TO.C,servo11*%
X172600000Y-85400000D03*
D16*
X174600000Y-85400000D03*
X176600000Y-85400000D03*
%TD*%
D23*
%TO.C,R9*%
X129500000Y-121750000D03*
X129500000Y-119750000D03*
%TD*%
D25*
%TO.C,C3*%
X121212500Y-112250000D03*
X123287500Y-112250000D03*
%TD*%
D15*
%TO.C,servo5*%
X163600000Y-107800000D03*
D16*
X165600000Y-107800000D03*
X167600000Y-107800000D03*
%TD*%
D15*
%TO.C,servo4*%
X163600000Y-119250000D03*
D16*
X165600000Y-119250000D03*
X167600000Y-119250000D03*
%TD*%
D12*
%TO.C,5V1*%
X144250000Y-73630000D03*
D21*
X144250000Y-76170000D03*
X144250000Y-78710000D03*
%TD*%
D22*
%TO.C,C7*%
X154968799Y-93506201D03*
X154968799Y-95581201D03*
%TD*%
D15*
%TO.C,servo2*%
X163600000Y-113450000D03*
D16*
X165600000Y-113450000D03*
X167600000Y-113450000D03*
%TD*%
D22*
%TO.C,C11*%
X152078799Y-91093701D03*
X152078799Y-93168701D03*
%TD*%
D23*
%TO.C,R7*%
X107400000Y-102810000D03*
X107400000Y-100810000D03*
%TD*%
D29*
%TO.C,3V3*%
X142000000Y-86275000D03*
X142000000Y-84225000D03*
%TD*%
D20*
%TO.C,C6*%
X115818750Y-81856250D03*
X115818750Y-79781250D03*
%TD*%
D25*
%TO.C,C20*%
X131087500Y-113950000D03*
X133162500Y-113950000D03*
%TD*%
D33*
%TO.C,R4*%
X154774000Y-108215200D03*
X156774000Y-108215200D03*
%TD*%
D12*
%TO.C,S4*%
X130100000Y-84275000D03*
D21*
X130100000Y-81735000D03*
%TD*%
D34*
%TO.C,Main-Power1*%
X167545000Y-75695000D03*
D35*
X162465000Y-75695000D03*
%TD*%
D25*
%TO.C,C8*%
X153281299Y-86593701D03*
X155356299Y-86593701D03*
%TD*%
D32*
%TO.C,U7*%
X148375300Y-103893701D03*
D31*
X149106299Y-104912701D03*
X149606301Y-104912701D03*
X150106300Y-104912701D03*
X150606299Y-104912701D03*
X151106301Y-104912701D03*
D32*
X151837300Y-103893701D03*
X151837300Y-102393699D03*
D31*
X151106301Y-101374699D03*
X150606299Y-101374699D03*
X150106300Y-101374699D03*
X149606301Y-101374699D03*
X149106299Y-101374699D03*
D32*
X148375300Y-102393699D03*
%TD*%
D29*
%TO.C,5V*%
X144250000Y-86275000D03*
X144250000Y-84225000D03*
%TD*%
D15*
%TO.C,servo10*%
X163600000Y-102250000D03*
D16*
X165600000Y-102250000D03*
X167600000Y-102250000D03*
%TD*%
D25*
%TO.C,C15*%
X121212500Y-114250000D03*
X123287500Y-114250000D03*
%TD*%
D36*
%TO.C,L1*%
X124318750Y-80171250D03*
X124318750Y-78266250D03*
%TD*%
D12*
%TO.C,S2*%
X135900000Y-84250000D03*
D21*
X135900000Y-81710000D03*
%TD*%
D19*
%TO.C,H4*%
X175000000Y-122000000D03*
%TD*%
D15*
%TO.C,servo3*%
X163600000Y-96650000D03*
D16*
X165600000Y-96650000D03*
X167600000Y-96650000D03*
%TD*%
D37*
%TO.C,R14*%
X151000000Y-108250000D03*
X149000000Y-108250000D03*
%TD*%
D15*
%TO.C,servo9*%
X172600000Y-91000000D03*
D16*
X174600000Y-91000000D03*
X176600000Y-91000000D03*
%TD*%
D19*
%TO.C,H3*%
X109000000Y-122000000D03*
%TD*%
D22*
%TO.C,C19*%
X153658799Y-97968701D03*
X153658799Y-100043701D03*
%TD*%
D18*
%TO.C,button1*%
X106750000Y-116500000D03*
X106750000Y-110000000D03*
X111250000Y-116500000D03*
X111250000Y-110000000D03*
%TD*%
D12*
%TO.C,J2*%
X137790000Y-77000000D03*
D21*
X135250000Y-77000000D03*
X132710000Y-77000000D03*
X130170000Y-77000000D03*
%TD*%
D12*
%TO.C,S3*%
X133000000Y-84275000D03*
D21*
X133000000Y-81735000D03*
%TD*%
D38*
%TO.C,U5*%
X156593799Y-91093701D03*
X156593799Y-90143701D03*
X156593799Y-89193701D03*
X154318799Y-89193701D03*
X154318799Y-91093701D03*
%TD*%
D26*
%TO.C,C5*%
X120756250Y-74518750D03*
X118681250Y-74518750D03*
%TD*%
D39*
%TO.C,D3*%
X153774000Y-110440200D03*
X153774000Y-112490200D03*
%TD*%
D22*
%TO.C,C12*%
X150068799Y-91056201D03*
X150068799Y-93131201D03*
%TD*%
D15*
%TO.C,servo12*%
X163600000Y-91050000D03*
D16*
X165600000Y-91050000D03*
X167600000Y-91050000D03*
%TD*%
D40*
%TO.C,U8*%
X158655000Y-110250000D03*
X156750000Y-110250000D03*
X157702500Y-112180400D03*
%TD*%
D26*
%TO.C,C4*%
X122056250Y-81518750D03*
X119981250Y-81518750D03*
%TD*%
D32*
%TO.C,U4*%
X121366250Y-78671251D03*
X121366250Y-78171250D03*
X121366250Y-77671250D03*
X121366250Y-77171249D03*
D31*
X120641438Y-76446249D03*
X120141312Y-76446249D03*
X119641186Y-76446249D03*
X119141060Y-76446249D03*
D32*
X118416248Y-77171249D03*
X118416248Y-77671250D03*
X118416248Y-78171250D03*
X118416248Y-78671251D03*
D31*
X119141060Y-79396251D03*
X119641186Y-79396251D03*
X120141312Y-79396251D03*
X120641438Y-79396251D03*
%TD*%
D15*
%TO.C,servo8*%
X172600000Y-113450000D03*
D16*
X174600000Y-113450000D03*
X176600000Y-113450000D03*
%TD*%
D25*
%TO.C,C10*%
X134887500Y-113950000D03*
X136962500Y-113950000D03*
%TD*%
D22*
%TO.C,C22*%
X146500000Y-103962500D03*
X146500000Y-106037500D03*
%TD*%
D26*
%TO.C,C1*%
X109537500Y-87500000D03*
X107462500Y-87500000D03*
%TD*%
D20*
%TO.C,C9*%
X106600000Y-79125000D03*
X106600000Y-81200000D03*
%TD*%
D15*
%TO.C,servo6*%
X163600000Y-85400000D03*
D16*
X165600000Y-85400000D03*
X167600000Y-85400000D03*
%TD*%
D15*
%TO.C,servo7*%
X172600000Y-107800000D03*
D16*
X174600000Y-107800000D03*
X176600000Y-107800000D03*
%TD*%
D12*
%TO.C,GND1*%
X141500000Y-73670000D03*
D21*
X141500000Y-76210000D03*
X141500000Y-78750000D03*
%TD*%
M02*
