M48
; DRILL file {KiCad 8.0.7} date 2025-01-14T18:40:24+0700
; FORMAT={-:-/ absolute / metric / decimal}
; #@! TF.CreationDate,2025-01-14T18:40:24+07:00
; #@! TF.GenerationSoftware,Kicad,Pcbnew,8.0.7
; #@! TF.FileFunction,Plated,1,4,PTH
FMAT,2
METRIC
; #@! TA.AperFunction,Plated,PTH,ViaDrill
T1C0.300
; #@! TA.AperFunction,Plated,PTH,ComponentDrill
T2C0.750
; #@! TA.AperFunction,Plated,PTH,ComponentDrill
T3C1.000
; #@! TA.AperFunction,Plated,PTH,ComponentDrill
T4C1.100
; #@! TA.AperFunction,Plated,PTH,ComponentDrill
T5C1.300
%
G90
G05
T1
X105.6Y-77.0
X113.5Y-87.7
X115.5Y-86.7
X116.9Y-86.8
X118.6Y-80.619
X119.9Y-92.1
X119.906Y-77.906
X121.0Y-80.4
X121.469Y-73.219
X123.4Y-89.2
X124.231Y-83.269
X124.55Y-110.95
X125.374Y-110.926
X125.75Y-85.15
X126.2Y-110.951
X126.6Y-84.4
X127.4Y-83.6
X127.6Y-119.0
X127.9Y-92.4
X130.1Y-94.1
X131.1Y-119.625
X131.2Y-97.4
X131.2Y-118.7
X131.2Y-120.75
X131.5Y-122.0
X134.075Y-119.981
X135.5Y-111.0
X135.9Y-112.476
X137.6Y-108.5
X138.125Y-120.15
X141.6Y-117.55
X142.6Y-104.6
X142.7Y-103.3
X142.75Y-81.25
X143.0Y-107.5
X143.15Y-98.85
X143.2Y-95.9
X143.3Y-97.3
X144.25Y-81.4
X145.1Y-96.1
X146.1Y-96.11
X147.2Y-92.0
X148.0Y-100.7
X148.669Y-93.944
X148.8Y-106.5
X149.75Y-106.5
X149.8Y-99.7
X150.106Y-103.144
X150.6Y-106.5
X152.0Y-100.0
X152.2Y-110.4
X152.75Y-104.75
X153.0Y-84.4
X153.0Y-95.7
X153.109Y-96.7
X153.569Y-93.044
X153.9Y-106.8
X154.669Y-96.544
T2
X163.6Y-85.4
X163.6Y-91.05
X163.6Y-96.65
X163.6Y-102.25
X163.6Y-107.8
X163.6Y-113.45
X163.6Y-119.25
X165.6Y-85.4
X165.6Y-91.05
X165.6Y-96.65
X165.6Y-102.25
X165.6Y-107.8
X165.6Y-113.45
X165.6Y-119.25
X167.6Y-85.4
X167.6Y-91.05
X167.6Y-96.65
X167.6Y-102.25
X167.6Y-107.8
X167.6Y-113.45
X167.6Y-119.25
X172.6Y-85.4
X172.6Y-91.0
X172.6Y-96.65
X172.6Y-102.25
X172.6Y-107.8
X172.6Y-113.45
X174.6Y-85.4
X174.6Y-91.0
X174.6Y-96.65
X174.6Y-102.25
X174.6Y-107.8
X174.6Y-113.45
X176.6Y-85.4
X176.6Y-91.0
X176.6Y-96.65
X176.6Y-102.25
X176.6Y-107.8
X176.6Y-113.45
T3
X115.111Y-112.175
X115.111Y-114.715
X115.111Y-117.255
X115.111Y-119.795
X117.65Y-112.175
X117.65Y-114.715
X117.65Y-117.255
X117.65Y-119.795
X130.1Y-81.735
X130.1Y-84.275
X130.17Y-74.25
X130.17Y-77.0
X132.71Y-74.25
X132.71Y-77.0
X133.0Y-81.735
X133.0Y-84.275
X135.25Y-74.25
X135.25Y-77.0
X135.9Y-81.71
X135.9Y-84.25
X137.79Y-74.25
X137.79Y-77.0
X141.5Y-73.67
X141.5Y-76.21
X141.5Y-78.75
X144.25Y-73.63
X144.25Y-76.17
X144.25Y-78.71
X147.7Y-119.5
X155.3Y-119.5
T4
X106.75Y-110.0
X106.75Y-116.5
X107.49Y-90.38
X107.49Y-105.62
X110.03Y-90.38
X110.03Y-92.92
X110.03Y-105.62
X111.25Y-110.0
X111.25Y-116.5
X112.57Y-90.38
X112.57Y-105.62
X115.11Y-90.38
X115.11Y-105.62
X117.65Y-90.38
X117.65Y-105.62
X120.19Y-90.38
X120.19Y-105.62
X122.73Y-90.38
X122.73Y-105.62
X125.27Y-90.38
X125.27Y-105.62
X127.81Y-90.38
X127.81Y-105.62
X130.35Y-90.38
X130.35Y-105.62
X132.89Y-90.38
X132.89Y-92.92
X132.89Y-95.46
X132.89Y-98.0
X132.89Y-100.54
X132.89Y-103.08
X132.89Y-105.62
X135.43Y-90.38
X135.43Y-92.92
X135.43Y-95.46
X135.43Y-98.0
X135.43Y-100.54
X135.43Y-103.08
X135.43Y-105.62
X137.97Y-90.38
X137.97Y-105.62
X140.51Y-90.38
X140.51Y-92.92
X140.51Y-95.46
X140.51Y-98.0
X140.51Y-100.54
X140.51Y-103.08
X140.51Y-105.62
T5
X162.465Y-75.695
X167.545Y-75.695
M30
