%TF.GenerationSoftware,KiCad,Pcbnew,8.0.7*%
%TF.CreationDate,2025-01-14T18:40:28+07:00*%
%TF.ProjectId,Teensy4.0,5465656e-7379-4342-9e30-2e6b69636164,rev?*%
%TF.SameCoordinates,Original*%
%TF.FileFunction,Legend,Top*%
%TF.FilePolarity,Positive*%
%FSLAX46Y46*%
G04 Gerber Fmt 4.6, Leading zero omitted, Abs format (unit mm)*
G04 Created by KiCad (PCBNEW 8.0.7) date 2025-01-14 18:40:28*
%MOMM*%
%LPD*%
G01*
G04 APERTURE LIST*
%ADD10C,0.300000*%
%ADD11C,0.150000*%
%ADD12C,0.254000*%
%ADD13C,0.120000*%
%ADD14C,0.200000*%
%ADD15C,0.152400*%
%ADD16C,0.000000*%
G04 APERTURE END LIST*
D10*
X109983082Y-94670996D02*
X109983082Y-95742425D01*
X109983082Y-95742425D02*
X109911653Y-95956710D01*
X109911653Y-95956710D02*
X109768796Y-96099568D01*
X109768796Y-96099568D02*
X109554510Y-96170996D01*
X109554510Y-96170996D02*
X109411653Y-96170996D01*
X110697367Y-96170996D02*
X110697367Y-95170996D01*
X110697367Y-94670996D02*
X110625939Y-94742425D01*
X110625939Y-94742425D02*
X110697367Y-94813853D01*
X110697367Y-94813853D02*
X110768796Y-94742425D01*
X110768796Y-94742425D02*
X110697367Y-94670996D01*
X110697367Y-94670996D02*
X110697367Y-94813853D01*
X111411653Y-96170996D02*
X111411653Y-95170996D01*
X111411653Y-95456710D02*
X111483082Y-95313853D01*
X111483082Y-95313853D02*
X111554511Y-95242425D01*
X111554511Y-95242425D02*
X111697368Y-95170996D01*
X111697368Y-95170996D02*
X111840225Y-95170996D01*
X112983082Y-96170996D02*
X112983082Y-95385282D01*
X112983082Y-95385282D02*
X112911653Y-95242425D01*
X112911653Y-95242425D02*
X112768796Y-95170996D01*
X112768796Y-95170996D02*
X112483082Y-95170996D01*
X112483082Y-95170996D02*
X112340224Y-95242425D01*
X112983082Y-96099568D02*
X112840224Y-96170996D01*
X112840224Y-96170996D02*
X112483082Y-96170996D01*
X112483082Y-96170996D02*
X112340224Y-96099568D01*
X112340224Y-96099568D02*
X112268796Y-95956710D01*
X112268796Y-95956710D02*
X112268796Y-95813853D01*
X112268796Y-95813853D02*
X112340224Y-95670996D01*
X112340224Y-95670996D02*
X112483082Y-95599568D01*
X112483082Y-95599568D02*
X112840224Y-95599568D01*
X112840224Y-95599568D02*
X112983082Y-95528139D01*
X113697367Y-96170996D02*
X113697367Y-94670996D01*
X113840225Y-95599568D02*
X114268796Y-96170996D01*
X114268796Y-95170996D02*
X113697367Y-95742425D01*
X115125939Y-96170996D02*
X114983082Y-96099568D01*
X114983082Y-96099568D02*
X114911653Y-96028139D01*
X114911653Y-96028139D02*
X114840225Y-95885282D01*
X114840225Y-95885282D02*
X114840225Y-95456710D01*
X114840225Y-95456710D02*
X114911653Y-95313853D01*
X114911653Y-95313853D02*
X114983082Y-95242425D01*
X114983082Y-95242425D02*
X115125939Y-95170996D01*
X115125939Y-95170996D02*
X115340225Y-95170996D01*
X115340225Y-95170996D02*
X115483082Y-95242425D01*
X115483082Y-95242425D02*
X115554511Y-95313853D01*
X115554511Y-95313853D02*
X115625939Y-95456710D01*
X115625939Y-95456710D02*
X115625939Y-95885282D01*
X115625939Y-95885282D02*
X115554511Y-96028139D01*
X115554511Y-96028139D02*
X115483082Y-96099568D01*
X115483082Y-96099568D02*
X115340225Y-96170996D01*
X115340225Y-96170996D02*
X115125939Y-96170996D01*
X116268796Y-96170996D02*
X116268796Y-95170996D01*
X116268796Y-95456710D02*
X116340225Y-95313853D01*
X116340225Y-95313853D02*
X116411654Y-95242425D01*
X116411654Y-95242425D02*
X116554511Y-95170996D01*
X116554511Y-95170996D02*
X116697368Y-95170996D01*
X117197367Y-95170996D02*
X117197367Y-96170996D01*
X117197367Y-95313853D02*
X117268796Y-95242425D01*
X117268796Y-95242425D02*
X117411653Y-95170996D01*
X117411653Y-95170996D02*
X117625939Y-95170996D01*
X117625939Y-95170996D02*
X117768796Y-95242425D01*
X117768796Y-95242425D02*
X117840225Y-95385282D01*
X117840225Y-95385282D02*
X117840225Y-96170996D01*
X119625939Y-96099568D02*
X119840225Y-96170996D01*
X119840225Y-96170996D02*
X120197367Y-96170996D01*
X120197367Y-96170996D02*
X120340225Y-96099568D01*
X120340225Y-96099568D02*
X120411653Y-96028139D01*
X120411653Y-96028139D02*
X120483082Y-95885282D01*
X120483082Y-95885282D02*
X120483082Y-95742425D01*
X120483082Y-95742425D02*
X120411653Y-95599568D01*
X120411653Y-95599568D02*
X120340225Y-95528139D01*
X120340225Y-95528139D02*
X120197367Y-95456710D01*
X120197367Y-95456710D02*
X119911653Y-95385282D01*
X119911653Y-95385282D02*
X119768796Y-95313853D01*
X119768796Y-95313853D02*
X119697367Y-95242425D01*
X119697367Y-95242425D02*
X119625939Y-95099568D01*
X119625939Y-95099568D02*
X119625939Y-94956710D01*
X119625939Y-94956710D02*
X119697367Y-94813853D01*
X119697367Y-94813853D02*
X119768796Y-94742425D01*
X119768796Y-94742425D02*
X119911653Y-94670996D01*
X119911653Y-94670996D02*
X120268796Y-94670996D01*
X120268796Y-94670996D02*
X120483082Y-94742425D01*
X121768796Y-95170996D02*
X121768796Y-96170996D01*
X121125938Y-95170996D02*
X121125938Y-95956710D01*
X121125938Y-95956710D02*
X121197367Y-96099568D01*
X121197367Y-96099568D02*
X121340224Y-96170996D01*
X121340224Y-96170996D02*
X121554510Y-96170996D01*
X121554510Y-96170996D02*
X121697367Y-96099568D01*
X121697367Y-96099568D02*
X121768796Y-96028139D01*
X122483081Y-96170996D02*
X122483081Y-94670996D01*
X122625939Y-95599568D02*
X123054510Y-96170996D01*
X123054510Y-95170996D02*
X122483081Y-95742425D01*
X123697367Y-96170996D02*
X123697367Y-95170996D01*
X123697367Y-95313853D02*
X123768796Y-95242425D01*
X123768796Y-95242425D02*
X123911653Y-95170996D01*
X123911653Y-95170996D02*
X124125939Y-95170996D01*
X124125939Y-95170996D02*
X124268796Y-95242425D01*
X124268796Y-95242425D02*
X124340225Y-95385282D01*
X124340225Y-95385282D02*
X124340225Y-96170996D01*
X124340225Y-95385282D02*
X124411653Y-95242425D01*
X124411653Y-95242425D02*
X124554510Y-95170996D01*
X124554510Y-95170996D02*
X124768796Y-95170996D01*
X124768796Y-95170996D02*
X124911653Y-95242425D01*
X124911653Y-95242425D02*
X124983082Y-95385282D01*
X124983082Y-95385282D02*
X124983082Y-96170996D01*
X126268796Y-96099568D02*
X126125939Y-96170996D01*
X126125939Y-96170996D02*
X125840225Y-96170996D01*
X125840225Y-96170996D02*
X125697367Y-96099568D01*
X125697367Y-96099568D02*
X125625939Y-95956710D01*
X125625939Y-95956710D02*
X125625939Y-95385282D01*
X125625939Y-95385282D02*
X125697367Y-95242425D01*
X125697367Y-95242425D02*
X125840225Y-95170996D01*
X125840225Y-95170996D02*
X126125939Y-95170996D01*
X126125939Y-95170996D02*
X126268796Y-95242425D01*
X126268796Y-95242425D02*
X126340225Y-95385282D01*
X126340225Y-95385282D02*
X126340225Y-95528139D01*
X126340225Y-95528139D02*
X125625939Y-95670996D01*
X127554510Y-96099568D02*
X127411653Y-96170996D01*
X127411653Y-96170996D02*
X127125939Y-96170996D01*
X127125939Y-96170996D02*
X126983081Y-96099568D01*
X126983081Y-96099568D02*
X126911653Y-95956710D01*
X126911653Y-95956710D02*
X126911653Y-95385282D01*
X126911653Y-95385282D02*
X126983081Y-95242425D01*
X126983081Y-95242425D02*
X127125939Y-95170996D01*
X127125939Y-95170996D02*
X127411653Y-95170996D01*
X127411653Y-95170996D02*
X127554510Y-95242425D01*
X127554510Y-95242425D02*
X127625939Y-95385282D01*
X127625939Y-95385282D02*
X127625939Y-95528139D01*
X127625939Y-95528139D02*
X126911653Y-95670996D01*
X128340224Y-94670996D02*
X128197367Y-94956710D01*
X128911653Y-96099568D02*
X129054510Y-96170996D01*
X129054510Y-96170996D02*
X129340224Y-96170996D01*
X129340224Y-96170996D02*
X129483081Y-96099568D01*
X129483081Y-96099568D02*
X129554510Y-95956710D01*
X129554510Y-95956710D02*
X129554510Y-95885282D01*
X129554510Y-95885282D02*
X129483081Y-95742425D01*
X129483081Y-95742425D02*
X129340224Y-95670996D01*
X129340224Y-95670996D02*
X129125939Y-95670996D01*
X129125939Y-95670996D02*
X128983081Y-95599568D01*
X128983081Y-95599568D02*
X128911653Y-95456710D01*
X128911653Y-95456710D02*
X128911653Y-95385282D01*
X128911653Y-95385282D02*
X128983081Y-95242425D01*
X128983081Y-95242425D02*
X129125939Y-95170996D01*
X129125939Y-95170996D02*
X129340224Y-95170996D01*
X129340224Y-95170996D02*
X129483081Y-95242425D01*
X109340225Y-97085912D02*
X110197368Y-97085912D01*
X109768796Y-98585912D02*
X109768796Y-97085912D01*
X111268796Y-98514484D02*
X111125939Y-98585912D01*
X111125939Y-98585912D02*
X110840225Y-98585912D01*
X110840225Y-98585912D02*
X110697367Y-98514484D01*
X110697367Y-98514484D02*
X110625939Y-98371626D01*
X110625939Y-98371626D02*
X110625939Y-97800198D01*
X110625939Y-97800198D02*
X110697367Y-97657341D01*
X110697367Y-97657341D02*
X110840225Y-97585912D01*
X110840225Y-97585912D02*
X111125939Y-97585912D01*
X111125939Y-97585912D02*
X111268796Y-97657341D01*
X111268796Y-97657341D02*
X111340225Y-97800198D01*
X111340225Y-97800198D02*
X111340225Y-97943055D01*
X111340225Y-97943055D02*
X110625939Y-98085912D01*
X112554510Y-98514484D02*
X112411653Y-98585912D01*
X112411653Y-98585912D02*
X112125939Y-98585912D01*
X112125939Y-98585912D02*
X111983081Y-98514484D01*
X111983081Y-98514484D02*
X111911653Y-98371626D01*
X111911653Y-98371626D02*
X111911653Y-97800198D01*
X111911653Y-97800198D02*
X111983081Y-97657341D01*
X111983081Y-97657341D02*
X112125939Y-97585912D01*
X112125939Y-97585912D02*
X112411653Y-97585912D01*
X112411653Y-97585912D02*
X112554510Y-97657341D01*
X112554510Y-97657341D02*
X112625939Y-97800198D01*
X112625939Y-97800198D02*
X112625939Y-97943055D01*
X112625939Y-97943055D02*
X111911653Y-98085912D01*
X113268795Y-97585912D02*
X113268795Y-98585912D01*
X113268795Y-97728769D02*
X113340224Y-97657341D01*
X113340224Y-97657341D02*
X113483081Y-97585912D01*
X113483081Y-97585912D02*
X113697367Y-97585912D01*
X113697367Y-97585912D02*
X113840224Y-97657341D01*
X113840224Y-97657341D02*
X113911653Y-97800198D01*
X113911653Y-97800198D02*
X113911653Y-98585912D01*
X114554510Y-98514484D02*
X114697367Y-98585912D01*
X114697367Y-98585912D02*
X114983081Y-98585912D01*
X114983081Y-98585912D02*
X115125938Y-98514484D01*
X115125938Y-98514484D02*
X115197367Y-98371626D01*
X115197367Y-98371626D02*
X115197367Y-98300198D01*
X115197367Y-98300198D02*
X115125938Y-98157341D01*
X115125938Y-98157341D02*
X114983081Y-98085912D01*
X114983081Y-98085912D02*
X114768796Y-98085912D01*
X114768796Y-98085912D02*
X114625938Y-98014484D01*
X114625938Y-98014484D02*
X114554510Y-97871626D01*
X114554510Y-97871626D02*
X114554510Y-97800198D01*
X114554510Y-97800198D02*
X114625938Y-97657341D01*
X114625938Y-97657341D02*
X114768796Y-97585912D01*
X114768796Y-97585912D02*
X114983081Y-97585912D01*
X114983081Y-97585912D02*
X115125938Y-97657341D01*
X115697367Y-97585912D02*
X116054510Y-98585912D01*
X116411653Y-97585912D02*
X116054510Y-98585912D01*
X116054510Y-98585912D02*
X115911653Y-98943055D01*
X115911653Y-98943055D02*
X115840224Y-99014484D01*
X115840224Y-99014484D02*
X115697367Y-99085912D01*
X118768796Y-97585912D02*
X118768796Y-98585912D01*
X118411653Y-97014484D02*
X118054510Y-98085912D01*
X118054510Y-98085912D02*
X118983081Y-98085912D01*
X119554509Y-98443055D02*
X119625938Y-98514484D01*
X119625938Y-98514484D02*
X119554509Y-98585912D01*
X119554509Y-98585912D02*
X119483081Y-98514484D01*
X119483081Y-98514484D02*
X119554509Y-98443055D01*
X119554509Y-98443055D02*
X119554509Y-98585912D01*
X120554510Y-97085912D02*
X120697367Y-97085912D01*
X120697367Y-97085912D02*
X120840224Y-97157341D01*
X120840224Y-97157341D02*
X120911653Y-97228769D01*
X120911653Y-97228769D02*
X120983081Y-97371626D01*
X120983081Y-97371626D02*
X121054510Y-97657341D01*
X121054510Y-97657341D02*
X121054510Y-98014484D01*
X121054510Y-98014484D02*
X120983081Y-98300198D01*
X120983081Y-98300198D02*
X120911653Y-98443055D01*
X120911653Y-98443055D02*
X120840224Y-98514484D01*
X120840224Y-98514484D02*
X120697367Y-98585912D01*
X120697367Y-98585912D02*
X120554510Y-98585912D01*
X120554510Y-98585912D02*
X120411653Y-98514484D01*
X120411653Y-98514484D02*
X120340224Y-98443055D01*
X120340224Y-98443055D02*
X120268795Y-98300198D01*
X120268795Y-98300198D02*
X120197367Y-98014484D01*
X120197367Y-98014484D02*
X120197367Y-97657341D01*
X120197367Y-97657341D02*
X120268795Y-97371626D01*
X120268795Y-97371626D02*
X120340224Y-97228769D01*
X120340224Y-97228769D02*
X120411653Y-97157341D01*
X120411653Y-97157341D02*
X120554510Y-97085912D01*
X109554510Y-101000828D02*
X109554510Y-99500828D01*
X109554510Y-100215114D02*
X110411653Y-100215114D01*
X110411653Y-101000828D02*
X110411653Y-99500828D01*
X111697368Y-100929400D02*
X111554511Y-101000828D01*
X111554511Y-101000828D02*
X111268797Y-101000828D01*
X111268797Y-101000828D02*
X111125939Y-100929400D01*
X111125939Y-100929400D02*
X111054511Y-100786542D01*
X111054511Y-100786542D02*
X111054511Y-100215114D01*
X111054511Y-100215114D02*
X111125939Y-100072257D01*
X111125939Y-100072257D02*
X111268797Y-100000828D01*
X111268797Y-100000828D02*
X111554511Y-100000828D01*
X111554511Y-100000828D02*
X111697368Y-100072257D01*
X111697368Y-100072257D02*
X111768797Y-100215114D01*
X111768797Y-100215114D02*
X111768797Y-100357971D01*
X111768797Y-100357971D02*
X111054511Y-100500828D01*
X112268796Y-101000828D02*
X113054511Y-100000828D01*
X112268796Y-100000828D02*
X113054511Y-101000828D01*
X114268797Y-101000828D02*
X114268797Y-100215114D01*
X114268797Y-100215114D02*
X114197368Y-100072257D01*
X114197368Y-100072257D02*
X114054511Y-100000828D01*
X114054511Y-100000828D02*
X113768797Y-100000828D01*
X113768797Y-100000828D02*
X113625939Y-100072257D01*
X114268797Y-100929400D02*
X114125939Y-101000828D01*
X114125939Y-101000828D02*
X113768797Y-101000828D01*
X113768797Y-101000828D02*
X113625939Y-100929400D01*
X113625939Y-100929400D02*
X113554511Y-100786542D01*
X113554511Y-100786542D02*
X113554511Y-100643685D01*
X113554511Y-100643685D02*
X113625939Y-100500828D01*
X113625939Y-100500828D02*
X113768797Y-100429400D01*
X113768797Y-100429400D02*
X114125939Y-100429400D01*
X114125939Y-100429400D02*
X114268797Y-100357971D01*
X114983082Y-100000828D02*
X114983082Y-101500828D01*
X114983082Y-100072257D02*
X115125940Y-100000828D01*
X115125940Y-100000828D02*
X115411654Y-100000828D01*
X115411654Y-100000828D02*
X115554511Y-100072257D01*
X115554511Y-100072257D02*
X115625940Y-100143685D01*
X115625940Y-100143685D02*
X115697368Y-100286542D01*
X115697368Y-100286542D02*
X115697368Y-100715114D01*
X115697368Y-100715114D02*
X115625940Y-100857971D01*
X115625940Y-100857971D02*
X115554511Y-100929400D01*
X115554511Y-100929400D02*
X115411654Y-101000828D01*
X115411654Y-101000828D02*
X115125940Y-101000828D01*
X115125940Y-101000828D02*
X114983082Y-100929400D01*
X116554511Y-101000828D02*
X116411654Y-100929400D01*
X116411654Y-100929400D02*
X116340225Y-100857971D01*
X116340225Y-100857971D02*
X116268797Y-100715114D01*
X116268797Y-100715114D02*
X116268797Y-100286542D01*
X116268797Y-100286542D02*
X116340225Y-100143685D01*
X116340225Y-100143685D02*
X116411654Y-100072257D01*
X116411654Y-100072257D02*
X116554511Y-100000828D01*
X116554511Y-100000828D02*
X116768797Y-100000828D01*
X116768797Y-100000828D02*
X116911654Y-100072257D01*
X116911654Y-100072257D02*
X116983083Y-100143685D01*
X116983083Y-100143685D02*
X117054511Y-100286542D01*
X117054511Y-100286542D02*
X117054511Y-100715114D01*
X117054511Y-100715114D02*
X116983083Y-100857971D01*
X116983083Y-100857971D02*
X116911654Y-100929400D01*
X116911654Y-100929400D02*
X116768797Y-101000828D01*
X116768797Y-101000828D02*
X116554511Y-101000828D01*
X118340226Y-101000828D02*
X118340226Y-99500828D01*
X118340226Y-100929400D02*
X118197368Y-101000828D01*
X118197368Y-101000828D02*
X117911654Y-101000828D01*
X117911654Y-101000828D02*
X117768797Y-100929400D01*
X117768797Y-100929400D02*
X117697368Y-100857971D01*
X117697368Y-100857971D02*
X117625940Y-100715114D01*
X117625940Y-100715114D02*
X117625940Y-100286542D01*
X117625940Y-100286542D02*
X117697368Y-100143685D01*
X117697368Y-100143685D02*
X117768797Y-100072257D01*
X117768797Y-100072257D02*
X117911654Y-100000828D01*
X117911654Y-100000828D02*
X118197368Y-100000828D01*
X118197368Y-100000828D02*
X118340226Y-100072257D01*
X121054511Y-100857971D02*
X120983083Y-100929400D01*
X120983083Y-100929400D02*
X120768797Y-101000828D01*
X120768797Y-101000828D02*
X120625940Y-101000828D01*
X120625940Y-101000828D02*
X120411654Y-100929400D01*
X120411654Y-100929400D02*
X120268797Y-100786542D01*
X120268797Y-100786542D02*
X120197368Y-100643685D01*
X120197368Y-100643685D02*
X120125940Y-100357971D01*
X120125940Y-100357971D02*
X120125940Y-100143685D01*
X120125940Y-100143685D02*
X120197368Y-99857971D01*
X120197368Y-99857971D02*
X120268797Y-99715114D01*
X120268797Y-99715114D02*
X120411654Y-99572257D01*
X120411654Y-99572257D02*
X120625940Y-99500828D01*
X120625940Y-99500828D02*
X120768797Y-99500828D01*
X120768797Y-99500828D02*
X120983083Y-99572257D01*
X120983083Y-99572257D02*
X121054511Y-99643685D01*
X121911654Y-101000828D02*
X121768797Y-100929400D01*
X121768797Y-100929400D02*
X121697368Y-100857971D01*
X121697368Y-100857971D02*
X121625940Y-100715114D01*
X121625940Y-100715114D02*
X121625940Y-100286542D01*
X121625940Y-100286542D02*
X121697368Y-100143685D01*
X121697368Y-100143685D02*
X121768797Y-100072257D01*
X121768797Y-100072257D02*
X121911654Y-100000828D01*
X121911654Y-100000828D02*
X122125940Y-100000828D01*
X122125940Y-100000828D02*
X122268797Y-100072257D01*
X122268797Y-100072257D02*
X122340226Y-100143685D01*
X122340226Y-100143685D02*
X122411654Y-100286542D01*
X122411654Y-100286542D02*
X122411654Y-100715114D01*
X122411654Y-100715114D02*
X122340226Y-100857971D01*
X122340226Y-100857971D02*
X122268797Y-100929400D01*
X122268797Y-100929400D02*
X122125940Y-101000828D01*
X122125940Y-101000828D02*
X121911654Y-101000828D01*
X123054511Y-100000828D02*
X123054511Y-101000828D01*
X123054511Y-100143685D02*
X123125940Y-100072257D01*
X123125940Y-100072257D02*
X123268797Y-100000828D01*
X123268797Y-100000828D02*
X123483083Y-100000828D01*
X123483083Y-100000828D02*
X123625940Y-100072257D01*
X123625940Y-100072257D02*
X123697369Y-100215114D01*
X123697369Y-100215114D02*
X123697369Y-101000828D01*
X124197369Y-100000828D02*
X124768797Y-100000828D01*
X124411654Y-99500828D02*
X124411654Y-100786542D01*
X124411654Y-100786542D02*
X124483083Y-100929400D01*
X124483083Y-100929400D02*
X124625940Y-101000828D01*
X124625940Y-101000828D02*
X124768797Y-101000828D01*
X125268797Y-101000828D02*
X125268797Y-100000828D01*
X125268797Y-100286542D02*
X125340226Y-100143685D01*
X125340226Y-100143685D02*
X125411655Y-100072257D01*
X125411655Y-100072257D02*
X125554512Y-100000828D01*
X125554512Y-100000828D02*
X125697369Y-100000828D01*
X126411654Y-101000828D02*
X126268797Y-100929400D01*
X126268797Y-100929400D02*
X126197368Y-100857971D01*
X126197368Y-100857971D02*
X126125940Y-100715114D01*
X126125940Y-100715114D02*
X126125940Y-100286542D01*
X126125940Y-100286542D02*
X126197368Y-100143685D01*
X126197368Y-100143685D02*
X126268797Y-100072257D01*
X126268797Y-100072257D02*
X126411654Y-100000828D01*
X126411654Y-100000828D02*
X126625940Y-100000828D01*
X126625940Y-100000828D02*
X126768797Y-100072257D01*
X126768797Y-100072257D02*
X126840226Y-100143685D01*
X126840226Y-100143685D02*
X126911654Y-100286542D01*
X126911654Y-100286542D02*
X126911654Y-100715114D01*
X126911654Y-100715114D02*
X126840226Y-100857971D01*
X126840226Y-100857971D02*
X126768797Y-100929400D01*
X126768797Y-100929400D02*
X126625940Y-101000828D01*
X126625940Y-101000828D02*
X126411654Y-101000828D01*
X127768797Y-101000828D02*
X127625940Y-100929400D01*
X127625940Y-100929400D02*
X127554511Y-100786542D01*
X127554511Y-100786542D02*
X127554511Y-99500828D01*
X128554511Y-101000828D02*
X128411654Y-100929400D01*
X128411654Y-100929400D02*
X128340225Y-100786542D01*
X128340225Y-100786542D02*
X128340225Y-99500828D01*
X129697368Y-100929400D02*
X129554511Y-101000828D01*
X129554511Y-101000828D02*
X129268797Y-101000828D01*
X129268797Y-101000828D02*
X129125939Y-100929400D01*
X129125939Y-100929400D02*
X129054511Y-100786542D01*
X129054511Y-100786542D02*
X129054511Y-100215114D01*
X129054511Y-100215114D02*
X129125939Y-100072257D01*
X129125939Y-100072257D02*
X129268797Y-100000828D01*
X129268797Y-100000828D02*
X129554511Y-100000828D01*
X129554511Y-100000828D02*
X129697368Y-100072257D01*
X129697368Y-100072257D02*
X129768797Y-100215114D01*
X129768797Y-100215114D02*
X129768797Y-100357971D01*
X129768797Y-100357971D02*
X129054511Y-100500828D01*
X130411653Y-101000828D02*
X130411653Y-100000828D01*
X130411653Y-100286542D02*
X130483082Y-100143685D01*
X130483082Y-100143685D02*
X130554511Y-100072257D01*
X130554511Y-100072257D02*
X130697368Y-100000828D01*
X130697368Y-100000828D02*
X130840225Y-100000828D01*
D11*
X113988095Y-121954819D02*
X113988095Y-122764342D01*
X113988095Y-122764342D02*
X114035714Y-122859580D01*
X114035714Y-122859580D02*
X114083333Y-122907200D01*
X114083333Y-122907200D02*
X114178571Y-122954819D01*
X114178571Y-122954819D02*
X114369047Y-122954819D01*
X114369047Y-122954819D02*
X114464285Y-122907200D01*
X114464285Y-122907200D02*
X114511904Y-122859580D01*
X114511904Y-122859580D02*
X114559523Y-122764342D01*
X114559523Y-122764342D02*
X114559523Y-121954819D01*
X114988095Y-122050057D02*
X115035714Y-122002438D01*
X115035714Y-122002438D02*
X115130952Y-121954819D01*
X115130952Y-121954819D02*
X115369047Y-121954819D01*
X115369047Y-121954819D02*
X115464285Y-122002438D01*
X115464285Y-122002438D02*
X115511904Y-122050057D01*
X115511904Y-122050057D02*
X115559523Y-122145295D01*
X115559523Y-122145295D02*
X115559523Y-122240533D01*
X115559523Y-122240533D02*
X115511904Y-122383390D01*
X115511904Y-122383390D02*
X114940476Y-122954819D01*
X114940476Y-122954819D02*
X115559523Y-122954819D01*
X111988095Y-92204819D02*
X111988095Y-93014342D01*
X111988095Y-93014342D02*
X112035714Y-93109580D01*
X112035714Y-93109580D02*
X112083333Y-93157200D01*
X112083333Y-93157200D02*
X112178571Y-93204819D01*
X112178571Y-93204819D02*
X112369047Y-93204819D01*
X112369047Y-93204819D02*
X112464285Y-93157200D01*
X112464285Y-93157200D02*
X112511904Y-93109580D01*
X112511904Y-93109580D02*
X112559523Y-93014342D01*
X112559523Y-93014342D02*
X112559523Y-92204819D01*
X113559523Y-93204819D02*
X112988095Y-93204819D01*
X113273809Y-93204819D02*
X113273809Y-92204819D01*
X113273809Y-92204819D02*
X113178571Y-92347676D01*
X113178571Y-92347676D02*
X113083333Y-92442914D01*
X113083333Y-92442914D02*
X112988095Y-92490533D01*
D12*
X139585237Y-119824318D02*
X139585237Y-118554318D01*
X140915714Y-119703365D02*
X140855238Y-119763842D01*
X140855238Y-119763842D02*
X140673809Y-119824318D01*
X140673809Y-119824318D02*
X140552857Y-119824318D01*
X140552857Y-119824318D02*
X140371428Y-119763842D01*
X140371428Y-119763842D02*
X140250476Y-119642889D01*
X140250476Y-119642889D02*
X140189999Y-119521937D01*
X140189999Y-119521937D02*
X140129523Y-119280032D01*
X140129523Y-119280032D02*
X140129523Y-119098603D01*
X140129523Y-119098603D02*
X140189999Y-118856699D01*
X140189999Y-118856699D02*
X140250476Y-118735746D01*
X140250476Y-118735746D02*
X140371428Y-118614794D01*
X140371428Y-118614794D02*
X140552857Y-118554318D01*
X140552857Y-118554318D02*
X140673809Y-118554318D01*
X140673809Y-118554318D02*
X140855238Y-118614794D01*
X140855238Y-118614794D02*
X140915714Y-118675270D01*
X141399523Y-118675270D02*
X141459999Y-118614794D01*
X141459999Y-118614794D02*
X141580952Y-118554318D01*
X141580952Y-118554318D02*
X141883333Y-118554318D01*
X141883333Y-118554318D02*
X142004285Y-118614794D01*
X142004285Y-118614794D02*
X142064761Y-118675270D01*
X142064761Y-118675270D02*
X142125238Y-118796222D01*
X142125238Y-118796222D02*
X142125238Y-118917175D01*
X142125238Y-118917175D02*
X142064761Y-119098603D01*
X142064761Y-119098603D02*
X141339047Y-119824318D01*
X141339047Y-119824318D02*
X142125238Y-119824318D01*
D11*
X151219047Y-121931009D02*
X151361904Y-121978628D01*
X151361904Y-121978628D02*
X151409523Y-122026247D01*
X151409523Y-122026247D02*
X151457142Y-122121485D01*
X151457142Y-122121485D02*
X151457142Y-122264342D01*
X151457142Y-122264342D02*
X151409523Y-122359580D01*
X151409523Y-122359580D02*
X151361904Y-122407200D01*
X151361904Y-122407200D02*
X151266666Y-122454819D01*
X151266666Y-122454819D02*
X150885714Y-122454819D01*
X150885714Y-122454819D02*
X150885714Y-121454819D01*
X150885714Y-121454819D02*
X151219047Y-121454819D01*
X151219047Y-121454819D02*
X151314285Y-121502438D01*
X151314285Y-121502438D02*
X151361904Y-121550057D01*
X151361904Y-121550057D02*
X151409523Y-121645295D01*
X151409523Y-121645295D02*
X151409523Y-121740533D01*
X151409523Y-121740533D02*
X151361904Y-121835771D01*
X151361904Y-121835771D02*
X151314285Y-121883390D01*
X151314285Y-121883390D02*
X151219047Y-121931009D01*
X151219047Y-121931009D02*
X150885714Y-121931009D01*
X151790476Y-121454819D02*
X152457142Y-121454819D01*
X152457142Y-121454819D02*
X151790476Y-122454819D01*
X151790476Y-122454819D02*
X152457142Y-122454819D01*
X153361904Y-122454819D02*
X152790476Y-122454819D01*
X153076190Y-122454819D02*
X153076190Y-121454819D01*
X153076190Y-121454819D02*
X152980952Y-121597676D01*
X152980952Y-121597676D02*
X152885714Y-121692914D01*
X152885714Y-121692914D02*
X152790476Y-121740533D01*
X147309048Y-117033866D02*
X148070953Y-117033866D01*
X147690000Y-117414819D02*
X147690000Y-116652914D01*
X174238095Y-79204819D02*
X174238095Y-78204819D01*
X174238095Y-78681009D02*
X174809523Y-78681009D01*
X174809523Y-79204819D02*
X174809523Y-78204819D01*
X175238095Y-78300057D02*
X175285714Y-78252438D01*
X175285714Y-78252438D02*
X175380952Y-78204819D01*
X175380952Y-78204819D02*
X175619047Y-78204819D01*
X175619047Y-78204819D02*
X175714285Y-78252438D01*
X175714285Y-78252438D02*
X175761904Y-78300057D01*
X175761904Y-78300057D02*
X175809523Y-78395295D01*
X175809523Y-78395295D02*
X175809523Y-78490533D01*
X175809523Y-78490533D02*
X175761904Y-78633390D01*
X175761904Y-78633390D02*
X175190476Y-79204819D01*
X175190476Y-79204819D02*
X175809523Y-79204819D01*
X144759580Y-98442857D02*
X144807200Y-98490476D01*
X144807200Y-98490476D02*
X144854819Y-98633333D01*
X144854819Y-98633333D02*
X144854819Y-98728571D01*
X144854819Y-98728571D02*
X144807200Y-98871428D01*
X144807200Y-98871428D02*
X144711961Y-98966666D01*
X144711961Y-98966666D02*
X144616723Y-99014285D01*
X144616723Y-99014285D02*
X144426247Y-99061904D01*
X144426247Y-99061904D02*
X144283390Y-99061904D01*
X144283390Y-99061904D02*
X144092914Y-99014285D01*
X144092914Y-99014285D02*
X143997676Y-98966666D01*
X143997676Y-98966666D02*
X143902438Y-98871428D01*
X143902438Y-98871428D02*
X143854819Y-98728571D01*
X143854819Y-98728571D02*
X143854819Y-98633333D01*
X143854819Y-98633333D02*
X143902438Y-98490476D01*
X143902438Y-98490476D02*
X143950057Y-98442857D01*
X143950057Y-98061904D02*
X143902438Y-98014285D01*
X143902438Y-98014285D02*
X143854819Y-97919047D01*
X143854819Y-97919047D02*
X143854819Y-97680952D01*
X143854819Y-97680952D02*
X143902438Y-97585714D01*
X143902438Y-97585714D02*
X143950057Y-97538095D01*
X143950057Y-97538095D02*
X144045295Y-97490476D01*
X144045295Y-97490476D02*
X144140533Y-97490476D01*
X144140533Y-97490476D02*
X144283390Y-97538095D01*
X144283390Y-97538095D02*
X144854819Y-98109523D01*
X144854819Y-98109523D02*
X144854819Y-97490476D01*
X144188152Y-96633333D02*
X144854819Y-96633333D01*
X143807200Y-96871428D02*
X144521485Y-97109523D01*
X144521485Y-97109523D02*
X144521485Y-96490476D01*
X127366666Y-73704819D02*
X127366666Y-74419104D01*
X127366666Y-74419104D02*
X127319047Y-74561961D01*
X127319047Y-74561961D02*
X127223809Y-74657200D01*
X127223809Y-74657200D02*
X127080952Y-74704819D01*
X127080952Y-74704819D02*
X126985714Y-74704819D01*
X128366666Y-74704819D02*
X127795238Y-74704819D01*
X128080952Y-74704819D02*
X128080952Y-73704819D01*
X128080952Y-73704819D02*
X127985714Y-73847676D01*
X127985714Y-73847676D02*
X127890476Y-73942914D01*
X127890476Y-73942914D02*
X127795238Y-73990533D01*
X146259580Y-98442857D02*
X146307200Y-98490476D01*
X146307200Y-98490476D02*
X146354819Y-98633333D01*
X146354819Y-98633333D02*
X146354819Y-98728571D01*
X146354819Y-98728571D02*
X146307200Y-98871428D01*
X146307200Y-98871428D02*
X146211961Y-98966666D01*
X146211961Y-98966666D02*
X146116723Y-99014285D01*
X146116723Y-99014285D02*
X145926247Y-99061904D01*
X145926247Y-99061904D02*
X145783390Y-99061904D01*
X145783390Y-99061904D02*
X145592914Y-99014285D01*
X145592914Y-99014285D02*
X145497676Y-98966666D01*
X145497676Y-98966666D02*
X145402438Y-98871428D01*
X145402438Y-98871428D02*
X145354819Y-98728571D01*
X145354819Y-98728571D02*
X145354819Y-98633333D01*
X145354819Y-98633333D02*
X145402438Y-98490476D01*
X145402438Y-98490476D02*
X145450057Y-98442857D01*
X145450057Y-98061904D02*
X145402438Y-98014285D01*
X145402438Y-98014285D02*
X145354819Y-97919047D01*
X145354819Y-97919047D02*
X145354819Y-97680952D01*
X145354819Y-97680952D02*
X145402438Y-97585714D01*
X145402438Y-97585714D02*
X145450057Y-97538095D01*
X145450057Y-97538095D02*
X145545295Y-97490476D01*
X145545295Y-97490476D02*
X145640533Y-97490476D01*
X145640533Y-97490476D02*
X145783390Y-97538095D01*
X145783390Y-97538095D02*
X146354819Y-98109523D01*
X146354819Y-98109523D02*
X146354819Y-97490476D01*
X145354819Y-97157142D02*
X145354819Y-96538095D01*
X145354819Y-96538095D02*
X145735771Y-96871428D01*
X145735771Y-96871428D02*
X145735771Y-96728571D01*
X145735771Y-96728571D02*
X145783390Y-96633333D01*
X145783390Y-96633333D02*
X145831009Y-96585714D01*
X145831009Y-96585714D02*
X145926247Y-96538095D01*
X145926247Y-96538095D02*
X146164342Y-96538095D01*
X146164342Y-96538095D02*
X146259580Y-96585714D01*
X146259580Y-96585714D02*
X146307200Y-96633333D01*
X146307200Y-96633333D02*
X146354819Y-96728571D01*
X146354819Y-96728571D02*
X146354819Y-97014285D01*
X146354819Y-97014285D02*
X146307200Y-97109523D01*
X146307200Y-97109523D02*
X146259580Y-97157142D01*
X143607142Y-92454819D02*
X143273809Y-91978628D01*
X143035714Y-92454819D02*
X143035714Y-91454819D01*
X143035714Y-91454819D02*
X143416666Y-91454819D01*
X143416666Y-91454819D02*
X143511904Y-91502438D01*
X143511904Y-91502438D02*
X143559523Y-91550057D01*
X143559523Y-91550057D02*
X143607142Y-91645295D01*
X143607142Y-91645295D02*
X143607142Y-91788152D01*
X143607142Y-91788152D02*
X143559523Y-91883390D01*
X143559523Y-91883390D02*
X143511904Y-91931009D01*
X143511904Y-91931009D02*
X143416666Y-91978628D01*
X143416666Y-91978628D02*
X143035714Y-91978628D01*
X144559523Y-92454819D02*
X143988095Y-92454819D01*
X144273809Y-92454819D02*
X144273809Y-91454819D01*
X144273809Y-91454819D02*
X144178571Y-91597676D01*
X144178571Y-91597676D02*
X144083333Y-91692914D01*
X144083333Y-91692914D02*
X143988095Y-91740533D01*
X145511904Y-92454819D02*
X144940476Y-92454819D01*
X145226190Y-92454819D02*
X145226190Y-91454819D01*
X145226190Y-91454819D02*
X145130952Y-91597676D01*
X145130952Y-91597676D02*
X145035714Y-91692914D01*
X145035714Y-91692914D02*
X144940476Y-91740533D01*
X108238095Y-78704819D02*
X108238095Y-77704819D01*
X108238095Y-78181009D02*
X108809523Y-78181009D01*
X108809523Y-78704819D02*
X108809523Y-77704819D01*
X109809523Y-78704819D02*
X109238095Y-78704819D01*
X109523809Y-78704819D02*
X109523809Y-77704819D01*
X109523809Y-77704819D02*
X109428571Y-77847676D01*
X109428571Y-77847676D02*
X109333333Y-77942914D01*
X109333333Y-77942914D02*
X109238095Y-77990533D01*
X125123569Y-73885416D02*
X124647378Y-74218749D01*
X125123569Y-74456844D02*
X124123569Y-74456844D01*
X124123569Y-74456844D02*
X124123569Y-74075892D01*
X124123569Y-74075892D02*
X124171188Y-73980654D01*
X124171188Y-73980654D02*
X124218807Y-73933035D01*
X124218807Y-73933035D02*
X124314045Y-73885416D01*
X124314045Y-73885416D02*
X124456902Y-73885416D01*
X124456902Y-73885416D02*
X124552140Y-73933035D01*
X124552140Y-73933035D02*
X124599759Y-73980654D01*
X124599759Y-73980654D02*
X124647378Y-74075892D01*
X124647378Y-74075892D02*
X124647378Y-74456844D01*
X125123569Y-72933035D02*
X125123569Y-73504463D01*
X125123569Y-73218749D02*
X124123569Y-73218749D01*
X124123569Y-73218749D02*
X124266426Y-73313987D01*
X124266426Y-73313987D02*
X124361664Y-73409225D01*
X124361664Y-73409225D02*
X124409283Y-73504463D01*
X146273618Y-94310367D02*
X145797427Y-94643700D01*
X146273618Y-94881795D02*
X145273618Y-94881795D01*
X145273618Y-94881795D02*
X145273618Y-94500843D01*
X145273618Y-94500843D02*
X145321237Y-94405605D01*
X145321237Y-94405605D02*
X145368856Y-94357986D01*
X145368856Y-94357986D02*
X145464094Y-94310367D01*
X145464094Y-94310367D02*
X145606951Y-94310367D01*
X145606951Y-94310367D02*
X145702189Y-94357986D01*
X145702189Y-94357986D02*
X145749808Y-94405605D01*
X145749808Y-94405605D02*
X145797427Y-94500843D01*
X145797427Y-94500843D02*
X145797427Y-94881795D01*
X145368856Y-93929414D02*
X145321237Y-93881795D01*
X145321237Y-93881795D02*
X145273618Y-93786557D01*
X145273618Y-93786557D02*
X145273618Y-93548462D01*
X145273618Y-93548462D02*
X145321237Y-93453224D01*
X145321237Y-93453224D02*
X145368856Y-93405605D01*
X145368856Y-93405605D02*
X145464094Y-93357986D01*
X145464094Y-93357986D02*
X145559332Y-93357986D01*
X145559332Y-93357986D02*
X145702189Y-93405605D01*
X145702189Y-93405605D02*
X146273618Y-93977033D01*
X146273618Y-93977033D02*
X146273618Y-93357986D01*
X136857142Y-118359580D02*
X136809523Y-118407200D01*
X136809523Y-118407200D02*
X136666666Y-118454819D01*
X136666666Y-118454819D02*
X136571428Y-118454819D01*
X136571428Y-118454819D02*
X136428571Y-118407200D01*
X136428571Y-118407200D02*
X136333333Y-118311961D01*
X136333333Y-118311961D02*
X136285714Y-118216723D01*
X136285714Y-118216723D02*
X136238095Y-118026247D01*
X136238095Y-118026247D02*
X136238095Y-117883390D01*
X136238095Y-117883390D02*
X136285714Y-117692914D01*
X136285714Y-117692914D02*
X136333333Y-117597676D01*
X136333333Y-117597676D02*
X136428571Y-117502438D01*
X136428571Y-117502438D02*
X136571428Y-117454819D01*
X136571428Y-117454819D02*
X136666666Y-117454819D01*
X136666666Y-117454819D02*
X136809523Y-117502438D01*
X136809523Y-117502438D02*
X136857142Y-117550057D01*
X137809523Y-118454819D02*
X137238095Y-118454819D01*
X137523809Y-118454819D02*
X137523809Y-117454819D01*
X137523809Y-117454819D02*
X137428571Y-117597676D01*
X137428571Y-117597676D02*
X137333333Y-117692914D01*
X137333333Y-117692914D02*
X137238095Y-117740533D01*
X138142857Y-117454819D02*
X138809523Y-117454819D01*
X138809523Y-117454819D02*
X138380952Y-118454819D01*
X108233333Y-83659580D02*
X108185714Y-83707200D01*
X108185714Y-83707200D02*
X108042857Y-83754819D01*
X108042857Y-83754819D02*
X107947619Y-83754819D01*
X107947619Y-83754819D02*
X107804762Y-83707200D01*
X107804762Y-83707200D02*
X107709524Y-83611961D01*
X107709524Y-83611961D02*
X107661905Y-83516723D01*
X107661905Y-83516723D02*
X107614286Y-83326247D01*
X107614286Y-83326247D02*
X107614286Y-83183390D01*
X107614286Y-83183390D02*
X107661905Y-82992914D01*
X107661905Y-82992914D02*
X107709524Y-82897676D01*
X107709524Y-82897676D02*
X107804762Y-82802438D01*
X107804762Y-82802438D02*
X107947619Y-82754819D01*
X107947619Y-82754819D02*
X108042857Y-82754819D01*
X108042857Y-82754819D02*
X108185714Y-82802438D01*
X108185714Y-82802438D02*
X108233333Y-82850057D01*
X108614286Y-82850057D02*
X108661905Y-82802438D01*
X108661905Y-82802438D02*
X108757143Y-82754819D01*
X108757143Y-82754819D02*
X108995238Y-82754819D01*
X108995238Y-82754819D02*
X109090476Y-82802438D01*
X109090476Y-82802438D02*
X109138095Y-82850057D01*
X109138095Y-82850057D02*
X109185714Y-82945295D01*
X109185714Y-82945295D02*
X109185714Y-83040533D01*
X109185714Y-83040533D02*
X109138095Y-83183390D01*
X109138095Y-83183390D02*
X108566667Y-83754819D01*
X108566667Y-83754819D02*
X109185714Y-83754819D01*
X152723618Y-95355605D02*
X153533141Y-95355605D01*
X153533141Y-95355605D02*
X153628379Y-95307986D01*
X153628379Y-95307986D02*
X153675999Y-95260367D01*
X153675999Y-95260367D02*
X153723618Y-95165129D01*
X153723618Y-95165129D02*
X153723618Y-94974653D01*
X153723618Y-94974653D02*
X153675999Y-94879415D01*
X153675999Y-94879415D02*
X153628379Y-94831796D01*
X153628379Y-94831796D02*
X153533141Y-94784177D01*
X153533141Y-94784177D02*
X152723618Y-94784177D01*
X152723618Y-93879415D02*
X152723618Y-94069891D01*
X152723618Y-94069891D02*
X152771237Y-94165129D01*
X152771237Y-94165129D02*
X152818856Y-94212748D01*
X152818856Y-94212748D02*
X152961713Y-94307986D01*
X152961713Y-94307986D02*
X153152189Y-94355605D01*
X153152189Y-94355605D02*
X153533141Y-94355605D01*
X153533141Y-94355605D02*
X153628379Y-94307986D01*
X153628379Y-94307986D02*
X153675999Y-94260367D01*
X153675999Y-94260367D02*
X153723618Y-94165129D01*
X153723618Y-94165129D02*
X153723618Y-93974653D01*
X153723618Y-93974653D02*
X153675999Y-93879415D01*
X153675999Y-93879415D02*
X153628379Y-93831796D01*
X153628379Y-93831796D02*
X153533141Y-93784177D01*
X153533141Y-93784177D02*
X153295046Y-93784177D01*
X153295046Y-93784177D02*
X153199808Y-93831796D01*
X153199808Y-93831796D02*
X153152189Y-93879415D01*
X153152189Y-93879415D02*
X153104570Y-93974653D01*
X153104570Y-93974653D02*
X153104570Y-94165129D01*
X153104570Y-94165129D02*
X153152189Y-94260367D01*
X153152189Y-94260367D02*
X153199808Y-94307986D01*
X153199808Y-94307986D02*
X153295046Y-94355605D01*
X146357142Y-92454819D02*
X146023809Y-91978628D01*
X145785714Y-92454819D02*
X145785714Y-91454819D01*
X145785714Y-91454819D02*
X146166666Y-91454819D01*
X146166666Y-91454819D02*
X146261904Y-91502438D01*
X146261904Y-91502438D02*
X146309523Y-91550057D01*
X146309523Y-91550057D02*
X146357142Y-91645295D01*
X146357142Y-91645295D02*
X146357142Y-91788152D01*
X146357142Y-91788152D02*
X146309523Y-91883390D01*
X146309523Y-91883390D02*
X146261904Y-91931009D01*
X146261904Y-91931009D02*
X146166666Y-91978628D01*
X146166666Y-91978628D02*
X145785714Y-91978628D01*
X147309523Y-92454819D02*
X146738095Y-92454819D01*
X147023809Y-92454819D02*
X147023809Y-91454819D01*
X147023809Y-91454819D02*
X146928571Y-91597676D01*
X146928571Y-91597676D02*
X146833333Y-91692914D01*
X146833333Y-91692914D02*
X146738095Y-91740533D01*
X147642857Y-91454819D02*
X148261904Y-91454819D01*
X148261904Y-91454819D02*
X147928571Y-91835771D01*
X147928571Y-91835771D02*
X148071428Y-91835771D01*
X148071428Y-91835771D02*
X148166666Y-91883390D01*
X148166666Y-91883390D02*
X148214285Y-91931009D01*
X148214285Y-91931009D02*
X148261904Y-92026247D01*
X148261904Y-92026247D02*
X148261904Y-92264342D01*
X148261904Y-92264342D02*
X148214285Y-92359580D01*
X148214285Y-92359580D02*
X148166666Y-92407200D01*
X148166666Y-92407200D02*
X148071428Y-92454819D01*
X148071428Y-92454819D02*
X147785714Y-92454819D01*
X147785714Y-92454819D02*
X147690476Y-92407200D01*
X147690476Y-92407200D02*
X147642857Y-92359580D01*
X129607142Y-118359580D02*
X129559523Y-118407200D01*
X129559523Y-118407200D02*
X129416666Y-118454819D01*
X129416666Y-118454819D02*
X129321428Y-118454819D01*
X129321428Y-118454819D02*
X129178571Y-118407200D01*
X129178571Y-118407200D02*
X129083333Y-118311961D01*
X129083333Y-118311961D02*
X129035714Y-118216723D01*
X129035714Y-118216723D02*
X128988095Y-118026247D01*
X128988095Y-118026247D02*
X128988095Y-117883390D01*
X128988095Y-117883390D02*
X129035714Y-117692914D01*
X129035714Y-117692914D02*
X129083333Y-117597676D01*
X129083333Y-117597676D02*
X129178571Y-117502438D01*
X129178571Y-117502438D02*
X129321428Y-117454819D01*
X129321428Y-117454819D02*
X129416666Y-117454819D01*
X129416666Y-117454819D02*
X129559523Y-117502438D01*
X129559523Y-117502438D02*
X129607142Y-117550057D01*
X129988095Y-117550057D02*
X130035714Y-117502438D01*
X130035714Y-117502438D02*
X130130952Y-117454819D01*
X130130952Y-117454819D02*
X130369047Y-117454819D01*
X130369047Y-117454819D02*
X130464285Y-117502438D01*
X130464285Y-117502438D02*
X130511904Y-117550057D01*
X130511904Y-117550057D02*
X130559523Y-117645295D01*
X130559523Y-117645295D02*
X130559523Y-117740533D01*
X130559523Y-117740533D02*
X130511904Y-117883390D01*
X130511904Y-117883390D02*
X129940476Y-118454819D01*
X129940476Y-118454819D02*
X130559523Y-118454819D01*
X131511904Y-118454819D02*
X130940476Y-118454819D01*
X131226190Y-118454819D02*
X131226190Y-117454819D01*
X131226190Y-117454819D02*
X131130952Y-117597676D01*
X131130952Y-117597676D02*
X131035714Y-117692914D01*
X131035714Y-117692914D02*
X130940476Y-117740533D01*
X146666667Y-82454819D02*
X147000000Y-83454819D01*
X147000000Y-83454819D02*
X147333333Y-82454819D01*
X148238095Y-83359580D02*
X148190476Y-83407200D01*
X148190476Y-83407200D02*
X148047619Y-83454819D01*
X148047619Y-83454819D02*
X147952381Y-83454819D01*
X147952381Y-83454819D02*
X147809524Y-83407200D01*
X147809524Y-83407200D02*
X147714286Y-83311961D01*
X147714286Y-83311961D02*
X147666667Y-83216723D01*
X147666667Y-83216723D02*
X147619048Y-83026247D01*
X147619048Y-83026247D02*
X147619048Y-82883390D01*
X147619048Y-82883390D02*
X147666667Y-82692914D01*
X147666667Y-82692914D02*
X147714286Y-82597676D01*
X147714286Y-82597676D02*
X147809524Y-82502438D01*
X147809524Y-82502438D02*
X147952381Y-82454819D01*
X147952381Y-82454819D02*
X148047619Y-82454819D01*
X148047619Y-82454819D02*
X148190476Y-82502438D01*
X148190476Y-82502438D02*
X148238095Y-82550057D01*
X149238095Y-83359580D02*
X149190476Y-83407200D01*
X149190476Y-83407200D02*
X149047619Y-83454819D01*
X149047619Y-83454819D02*
X148952381Y-83454819D01*
X148952381Y-83454819D02*
X148809524Y-83407200D01*
X148809524Y-83407200D02*
X148714286Y-83311961D01*
X148714286Y-83311961D02*
X148666667Y-83216723D01*
X148666667Y-83216723D02*
X148619048Y-83026247D01*
X148619048Y-83026247D02*
X148619048Y-82883390D01*
X148619048Y-82883390D02*
X148666667Y-82692914D01*
X148666667Y-82692914D02*
X148714286Y-82597676D01*
X148714286Y-82597676D02*
X148809524Y-82502438D01*
X148809524Y-82502438D02*
X148952381Y-82454819D01*
X148952381Y-82454819D02*
X149047619Y-82454819D01*
X149047619Y-82454819D02*
X149190476Y-82502438D01*
X149190476Y-82502438D02*
X149238095Y-82550057D01*
X156028379Y-102924058D02*
X156075999Y-102971677D01*
X156075999Y-102971677D02*
X156123618Y-103114534D01*
X156123618Y-103114534D02*
X156123618Y-103209772D01*
X156123618Y-103209772D02*
X156075999Y-103352629D01*
X156075999Y-103352629D02*
X155980760Y-103447867D01*
X155980760Y-103447867D02*
X155885522Y-103495486D01*
X155885522Y-103495486D02*
X155695046Y-103543105D01*
X155695046Y-103543105D02*
X155552189Y-103543105D01*
X155552189Y-103543105D02*
X155361713Y-103495486D01*
X155361713Y-103495486D02*
X155266475Y-103447867D01*
X155266475Y-103447867D02*
X155171237Y-103352629D01*
X155171237Y-103352629D02*
X155123618Y-103209772D01*
X155123618Y-103209772D02*
X155123618Y-103114534D01*
X155123618Y-103114534D02*
X155171237Y-102971677D01*
X155171237Y-102971677D02*
X155218856Y-102924058D01*
X156123618Y-101971677D02*
X156123618Y-102543105D01*
X156123618Y-102257391D02*
X155123618Y-102257391D01*
X155123618Y-102257391D02*
X155266475Y-102352629D01*
X155266475Y-102352629D02*
X155361713Y-102447867D01*
X155361713Y-102447867D02*
X155409332Y-102543105D01*
X155552189Y-101400248D02*
X155504570Y-101495486D01*
X155504570Y-101495486D02*
X155456951Y-101543105D01*
X155456951Y-101543105D02*
X155361713Y-101590724D01*
X155361713Y-101590724D02*
X155314094Y-101590724D01*
X155314094Y-101590724D02*
X155218856Y-101543105D01*
X155218856Y-101543105D02*
X155171237Y-101495486D01*
X155171237Y-101495486D02*
X155123618Y-101400248D01*
X155123618Y-101400248D02*
X155123618Y-101209772D01*
X155123618Y-101209772D02*
X155171237Y-101114534D01*
X155171237Y-101114534D02*
X155218856Y-101066915D01*
X155218856Y-101066915D02*
X155314094Y-101019296D01*
X155314094Y-101019296D02*
X155361713Y-101019296D01*
X155361713Y-101019296D02*
X155456951Y-101066915D01*
X155456951Y-101066915D02*
X155504570Y-101114534D01*
X155504570Y-101114534D02*
X155552189Y-101209772D01*
X155552189Y-101209772D02*
X155552189Y-101400248D01*
X155552189Y-101400248D02*
X155599808Y-101495486D01*
X155599808Y-101495486D02*
X155647427Y-101543105D01*
X155647427Y-101543105D02*
X155742665Y-101590724D01*
X155742665Y-101590724D02*
X155933141Y-101590724D01*
X155933141Y-101590724D02*
X156028379Y-101543105D01*
X156028379Y-101543105D02*
X156075999Y-101495486D01*
X156075999Y-101495486D02*
X156123618Y-101400248D01*
X156123618Y-101400248D02*
X156123618Y-101209772D01*
X156123618Y-101209772D02*
X156075999Y-101114534D01*
X156075999Y-101114534D02*
X156028379Y-101066915D01*
X156028379Y-101066915D02*
X155933141Y-101019296D01*
X155933141Y-101019296D02*
X155742665Y-101019296D01*
X155742665Y-101019296D02*
X155647427Y-101066915D01*
X155647427Y-101066915D02*
X155599808Y-101114534D01*
X155599808Y-101114534D02*
X155552189Y-101209772D01*
X112107142Y-84759580D02*
X112059523Y-84807200D01*
X112059523Y-84807200D02*
X111916666Y-84854819D01*
X111916666Y-84854819D02*
X111821428Y-84854819D01*
X111821428Y-84854819D02*
X111678571Y-84807200D01*
X111678571Y-84807200D02*
X111583333Y-84711961D01*
X111583333Y-84711961D02*
X111535714Y-84616723D01*
X111535714Y-84616723D02*
X111488095Y-84426247D01*
X111488095Y-84426247D02*
X111488095Y-84283390D01*
X111488095Y-84283390D02*
X111535714Y-84092914D01*
X111535714Y-84092914D02*
X111583333Y-83997676D01*
X111583333Y-83997676D02*
X111678571Y-83902438D01*
X111678571Y-83902438D02*
X111821428Y-83854819D01*
X111821428Y-83854819D02*
X111916666Y-83854819D01*
X111916666Y-83854819D02*
X112059523Y-83902438D01*
X112059523Y-83902438D02*
X112107142Y-83950057D01*
X113059523Y-84854819D02*
X112488095Y-84854819D01*
X112773809Y-84854819D02*
X112773809Y-83854819D01*
X112773809Y-83854819D02*
X112678571Y-83997676D01*
X112678571Y-83997676D02*
X112583333Y-84092914D01*
X112583333Y-84092914D02*
X112488095Y-84140533D01*
X113916666Y-84188152D02*
X113916666Y-84854819D01*
X113678571Y-83807200D02*
X113440476Y-84521485D01*
X113440476Y-84521485D02*
X114059523Y-84521485D01*
X150109580Y-77392857D02*
X150157200Y-77440476D01*
X150157200Y-77440476D02*
X150204819Y-77583333D01*
X150204819Y-77583333D02*
X150204819Y-77678571D01*
X150204819Y-77678571D02*
X150157200Y-77821428D01*
X150157200Y-77821428D02*
X150061961Y-77916666D01*
X150061961Y-77916666D02*
X149966723Y-77964285D01*
X149966723Y-77964285D02*
X149776247Y-78011904D01*
X149776247Y-78011904D02*
X149633390Y-78011904D01*
X149633390Y-78011904D02*
X149442914Y-77964285D01*
X149442914Y-77964285D02*
X149347676Y-77916666D01*
X149347676Y-77916666D02*
X149252438Y-77821428D01*
X149252438Y-77821428D02*
X149204819Y-77678571D01*
X149204819Y-77678571D02*
X149204819Y-77583333D01*
X149204819Y-77583333D02*
X149252438Y-77440476D01*
X149252438Y-77440476D02*
X149300057Y-77392857D01*
X150204819Y-76440476D02*
X150204819Y-77011904D01*
X150204819Y-76726190D02*
X149204819Y-76726190D01*
X149204819Y-76726190D02*
X149347676Y-76821428D01*
X149347676Y-76821428D02*
X149442914Y-76916666D01*
X149442914Y-76916666D02*
X149490533Y-77011904D01*
X149204819Y-76107142D02*
X149204819Y-75488095D01*
X149204819Y-75488095D02*
X149585771Y-75821428D01*
X149585771Y-75821428D02*
X149585771Y-75678571D01*
X149585771Y-75678571D02*
X149633390Y-75583333D01*
X149633390Y-75583333D02*
X149681009Y-75535714D01*
X149681009Y-75535714D02*
X149776247Y-75488095D01*
X149776247Y-75488095D02*
X150014342Y-75488095D01*
X150014342Y-75488095D02*
X150109580Y-75535714D01*
X150109580Y-75535714D02*
X150157200Y-75583333D01*
X150157200Y-75583333D02*
X150204819Y-75678571D01*
X150204819Y-75678571D02*
X150204819Y-75964285D01*
X150204819Y-75964285D02*
X150157200Y-76059523D01*
X150157200Y-76059523D02*
X150109580Y-76107142D01*
X144859580Y-108892857D02*
X144907200Y-108940476D01*
X144907200Y-108940476D02*
X144954819Y-109083333D01*
X144954819Y-109083333D02*
X144954819Y-109178571D01*
X144954819Y-109178571D02*
X144907200Y-109321428D01*
X144907200Y-109321428D02*
X144811961Y-109416666D01*
X144811961Y-109416666D02*
X144716723Y-109464285D01*
X144716723Y-109464285D02*
X144526247Y-109511904D01*
X144526247Y-109511904D02*
X144383390Y-109511904D01*
X144383390Y-109511904D02*
X144192914Y-109464285D01*
X144192914Y-109464285D02*
X144097676Y-109416666D01*
X144097676Y-109416666D02*
X144002438Y-109321428D01*
X144002438Y-109321428D02*
X143954819Y-109178571D01*
X143954819Y-109178571D02*
X143954819Y-109083333D01*
X143954819Y-109083333D02*
X144002438Y-108940476D01*
X144002438Y-108940476D02*
X144050057Y-108892857D01*
X144954819Y-107940476D02*
X144954819Y-108511904D01*
X144954819Y-108226190D02*
X143954819Y-108226190D01*
X143954819Y-108226190D02*
X144097676Y-108321428D01*
X144097676Y-108321428D02*
X144192914Y-108416666D01*
X144192914Y-108416666D02*
X144240533Y-108511904D01*
X143954819Y-107083333D02*
X143954819Y-107273809D01*
X143954819Y-107273809D02*
X144002438Y-107369047D01*
X144002438Y-107369047D02*
X144050057Y-107416666D01*
X144050057Y-107416666D02*
X144192914Y-107511904D01*
X144192914Y-107511904D02*
X144383390Y-107559523D01*
X144383390Y-107559523D02*
X144764342Y-107559523D01*
X144764342Y-107559523D02*
X144859580Y-107511904D01*
X144859580Y-107511904D02*
X144907200Y-107464285D01*
X144907200Y-107464285D02*
X144954819Y-107369047D01*
X144954819Y-107369047D02*
X144954819Y-107178571D01*
X144954819Y-107178571D02*
X144907200Y-107083333D01*
X144907200Y-107083333D02*
X144859580Y-107035714D01*
X144859580Y-107035714D02*
X144764342Y-106988095D01*
X144764342Y-106988095D02*
X144526247Y-106988095D01*
X144526247Y-106988095D02*
X144431009Y-107035714D01*
X144431009Y-107035714D02*
X144383390Y-107083333D01*
X144383390Y-107083333D02*
X144335771Y-107178571D01*
X144335771Y-107178571D02*
X144335771Y-107369047D01*
X144335771Y-107369047D02*
X144383390Y-107464285D01*
X144383390Y-107464285D02*
X144431009Y-107511904D01*
X144431009Y-107511904D02*
X144526247Y-107559523D01*
X136738095Y-121204819D02*
X136738095Y-122014342D01*
X136738095Y-122014342D02*
X136785714Y-122109580D01*
X136785714Y-122109580D02*
X136833333Y-122157200D01*
X136833333Y-122157200D02*
X136928571Y-122204819D01*
X136928571Y-122204819D02*
X137119047Y-122204819D01*
X137119047Y-122204819D02*
X137214285Y-122157200D01*
X137214285Y-122157200D02*
X137261904Y-122109580D01*
X137261904Y-122109580D02*
X137309523Y-122014342D01*
X137309523Y-122014342D02*
X137309523Y-121204819D01*
X137690476Y-121204819D02*
X138309523Y-121204819D01*
X138309523Y-121204819D02*
X137976190Y-121585771D01*
X137976190Y-121585771D02*
X138119047Y-121585771D01*
X138119047Y-121585771D02*
X138214285Y-121633390D01*
X138214285Y-121633390D02*
X138261904Y-121681009D01*
X138261904Y-121681009D02*
X138309523Y-121776247D01*
X138309523Y-121776247D02*
X138309523Y-122014342D01*
X138309523Y-122014342D02*
X138261904Y-122109580D01*
X138261904Y-122109580D02*
X138214285Y-122157200D01*
X138214285Y-122157200D02*
X138119047Y-122204819D01*
X138119047Y-122204819D02*
X137833333Y-122204819D01*
X137833333Y-122204819D02*
X137738095Y-122157200D01*
X137738095Y-122157200D02*
X137690476Y-122109580D01*
X132500000Y-117204819D02*
X132500000Y-117442914D01*
X132261905Y-117347676D02*
X132500000Y-117442914D01*
X132500000Y-117442914D02*
X132738095Y-117347676D01*
X132357143Y-117633390D02*
X132500000Y-117442914D01*
X132500000Y-117442914D02*
X132642857Y-117633390D01*
X132500000Y-117204819D02*
X132500000Y-117442914D01*
X132261905Y-117347676D02*
X132500000Y-117442914D01*
X132500000Y-117442914D02*
X132738095Y-117347676D01*
X132357143Y-117633390D02*
X132500000Y-117442914D01*
X132500000Y-117442914D02*
X132642857Y-117633390D01*
X140833333Y-88704819D02*
X140500000Y-88228628D01*
X140261905Y-88704819D02*
X140261905Y-87704819D01*
X140261905Y-87704819D02*
X140642857Y-87704819D01*
X140642857Y-87704819D02*
X140738095Y-87752438D01*
X140738095Y-87752438D02*
X140785714Y-87800057D01*
X140785714Y-87800057D02*
X140833333Y-87895295D01*
X140833333Y-87895295D02*
X140833333Y-88038152D01*
X140833333Y-88038152D02*
X140785714Y-88133390D01*
X140785714Y-88133390D02*
X140738095Y-88181009D01*
X140738095Y-88181009D02*
X140642857Y-88228628D01*
X140642857Y-88228628D02*
X140261905Y-88228628D01*
X141166667Y-87704819D02*
X141785714Y-87704819D01*
X141785714Y-87704819D02*
X141452381Y-88085771D01*
X141452381Y-88085771D02*
X141595238Y-88085771D01*
X141595238Y-88085771D02*
X141690476Y-88133390D01*
X141690476Y-88133390D02*
X141738095Y-88181009D01*
X141738095Y-88181009D02*
X141785714Y-88276247D01*
X141785714Y-88276247D02*
X141785714Y-88514342D01*
X141785714Y-88514342D02*
X141738095Y-88609580D01*
X141738095Y-88609580D02*
X141690476Y-88657200D01*
X141690476Y-88657200D02*
X141595238Y-88704819D01*
X141595238Y-88704819D02*
X141309524Y-88704819D01*
X141309524Y-88704819D02*
X141214286Y-88657200D01*
X141214286Y-88657200D02*
X141166667Y-88609580D01*
X128154819Y-121116666D02*
X127678628Y-121449999D01*
X128154819Y-121688094D02*
X127154819Y-121688094D01*
X127154819Y-121688094D02*
X127154819Y-121307142D01*
X127154819Y-121307142D02*
X127202438Y-121211904D01*
X127202438Y-121211904D02*
X127250057Y-121164285D01*
X127250057Y-121164285D02*
X127345295Y-121116666D01*
X127345295Y-121116666D02*
X127488152Y-121116666D01*
X127488152Y-121116666D02*
X127583390Y-121164285D01*
X127583390Y-121164285D02*
X127631009Y-121211904D01*
X127631009Y-121211904D02*
X127678628Y-121307142D01*
X127678628Y-121307142D02*
X127678628Y-121688094D01*
X128154819Y-120640475D02*
X128154819Y-120449999D01*
X128154819Y-120449999D02*
X128107200Y-120354761D01*
X128107200Y-120354761D02*
X128059580Y-120307142D01*
X128059580Y-120307142D02*
X127916723Y-120211904D01*
X127916723Y-120211904D02*
X127726247Y-120164285D01*
X127726247Y-120164285D02*
X127345295Y-120164285D01*
X127345295Y-120164285D02*
X127250057Y-120211904D01*
X127250057Y-120211904D02*
X127202438Y-120259523D01*
X127202438Y-120259523D02*
X127154819Y-120354761D01*
X127154819Y-120354761D02*
X127154819Y-120545237D01*
X127154819Y-120545237D02*
X127202438Y-120640475D01*
X127202438Y-120640475D02*
X127250057Y-120688094D01*
X127250057Y-120688094D02*
X127345295Y-120735713D01*
X127345295Y-120735713D02*
X127583390Y-120735713D01*
X127583390Y-120735713D02*
X127678628Y-120688094D01*
X127678628Y-120688094D02*
X127726247Y-120640475D01*
X127726247Y-120640475D02*
X127773866Y-120545237D01*
X127773866Y-120545237D02*
X127773866Y-120354761D01*
X127773866Y-120354761D02*
X127726247Y-120259523D01*
X127726247Y-120259523D02*
X127678628Y-120211904D01*
X127678628Y-120211904D02*
X127583390Y-120164285D01*
X124833333Y-112609580D02*
X124785714Y-112657200D01*
X124785714Y-112657200D02*
X124642857Y-112704819D01*
X124642857Y-112704819D02*
X124547619Y-112704819D01*
X124547619Y-112704819D02*
X124404762Y-112657200D01*
X124404762Y-112657200D02*
X124309524Y-112561961D01*
X124309524Y-112561961D02*
X124261905Y-112466723D01*
X124261905Y-112466723D02*
X124214286Y-112276247D01*
X124214286Y-112276247D02*
X124214286Y-112133390D01*
X124214286Y-112133390D02*
X124261905Y-111942914D01*
X124261905Y-111942914D02*
X124309524Y-111847676D01*
X124309524Y-111847676D02*
X124404762Y-111752438D01*
X124404762Y-111752438D02*
X124547619Y-111704819D01*
X124547619Y-111704819D02*
X124642857Y-111704819D01*
X124642857Y-111704819D02*
X124785714Y-111752438D01*
X124785714Y-111752438D02*
X124833333Y-111800057D01*
X125166667Y-111704819D02*
X125785714Y-111704819D01*
X125785714Y-111704819D02*
X125452381Y-112085771D01*
X125452381Y-112085771D02*
X125595238Y-112085771D01*
X125595238Y-112085771D02*
X125690476Y-112133390D01*
X125690476Y-112133390D02*
X125738095Y-112181009D01*
X125738095Y-112181009D02*
X125785714Y-112276247D01*
X125785714Y-112276247D02*
X125785714Y-112514342D01*
X125785714Y-112514342D02*
X125738095Y-112609580D01*
X125738095Y-112609580D02*
X125690476Y-112657200D01*
X125690476Y-112657200D02*
X125595238Y-112704819D01*
X125595238Y-112704819D02*
X125309524Y-112704819D01*
X125309524Y-112704819D02*
X125214286Y-112657200D01*
X125214286Y-112657200D02*
X125166667Y-112609580D01*
X143704819Y-71296666D02*
X143704819Y-71772856D01*
X143704819Y-71772856D02*
X144181009Y-71820475D01*
X144181009Y-71820475D02*
X144133390Y-71772856D01*
X144133390Y-71772856D02*
X144085771Y-71677618D01*
X144085771Y-71677618D02*
X144085771Y-71439523D01*
X144085771Y-71439523D02*
X144133390Y-71344285D01*
X144133390Y-71344285D02*
X144181009Y-71296666D01*
X144181009Y-71296666D02*
X144276247Y-71249047D01*
X144276247Y-71249047D02*
X144514342Y-71249047D01*
X144514342Y-71249047D02*
X144609580Y-71296666D01*
X144609580Y-71296666D02*
X144657200Y-71344285D01*
X144657200Y-71344285D02*
X144704819Y-71439523D01*
X144704819Y-71439523D02*
X144704819Y-71677618D01*
X144704819Y-71677618D02*
X144657200Y-71772856D01*
X144657200Y-71772856D02*
X144609580Y-71820475D01*
X143704819Y-70963332D02*
X144704819Y-70629999D01*
X144704819Y-70629999D02*
X143704819Y-70296666D01*
X144704819Y-69439523D02*
X144704819Y-70010951D01*
X144704819Y-69725237D02*
X143704819Y-69725237D01*
X143704819Y-69725237D02*
X143847676Y-69820475D01*
X143847676Y-69820475D02*
X143942914Y-69915713D01*
X143942914Y-69915713D02*
X143990533Y-70010951D01*
X157028379Y-94810367D02*
X157075999Y-94857986D01*
X157075999Y-94857986D02*
X157123618Y-95000843D01*
X157123618Y-95000843D02*
X157123618Y-95096081D01*
X157123618Y-95096081D02*
X157075999Y-95238938D01*
X157075999Y-95238938D02*
X156980760Y-95334176D01*
X156980760Y-95334176D02*
X156885522Y-95381795D01*
X156885522Y-95381795D02*
X156695046Y-95429414D01*
X156695046Y-95429414D02*
X156552189Y-95429414D01*
X156552189Y-95429414D02*
X156361713Y-95381795D01*
X156361713Y-95381795D02*
X156266475Y-95334176D01*
X156266475Y-95334176D02*
X156171237Y-95238938D01*
X156171237Y-95238938D02*
X156123618Y-95096081D01*
X156123618Y-95096081D02*
X156123618Y-95000843D01*
X156123618Y-95000843D02*
X156171237Y-94857986D01*
X156171237Y-94857986D02*
X156218856Y-94810367D01*
X156123618Y-94477033D02*
X156123618Y-93810367D01*
X156123618Y-93810367D02*
X157123618Y-94238938D01*
X151678379Y-89236558D02*
X151725999Y-89284177D01*
X151725999Y-89284177D02*
X151773618Y-89427034D01*
X151773618Y-89427034D02*
X151773618Y-89522272D01*
X151773618Y-89522272D02*
X151725999Y-89665129D01*
X151725999Y-89665129D02*
X151630760Y-89760367D01*
X151630760Y-89760367D02*
X151535522Y-89807986D01*
X151535522Y-89807986D02*
X151345046Y-89855605D01*
X151345046Y-89855605D02*
X151202189Y-89855605D01*
X151202189Y-89855605D02*
X151011713Y-89807986D01*
X151011713Y-89807986D02*
X150916475Y-89760367D01*
X150916475Y-89760367D02*
X150821237Y-89665129D01*
X150821237Y-89665129D02*
X150773618Y-89522272D01*
X150773618Y-89522272D02*
X150773618Y-89427034D01*
X150773618Y-89427034D02*
X150821237Y-89284177D01*
X150821237Y-89284177D02*
X150868856Y-89236558D01*
X151773618Y-88284177D02*
X151773618Y-88855605D01*
X151773618Y-88569891D02*
X150773618Y-88569891D01*
X150773618Y-88569891D02*
X150916475Y-88665129D01*
X150916475Y-88665129D02*
X151011713Y-88760367D01*
X151011713Y-88760367D02*
X151059332Y-88855605D01*
X151773618Y-87331796D02*
X151773618Y-87903224D01*
X151773618Y-87617510D02*
X150773618Y-87617510D01*
X150773618Y-87617510D02*
X150916475Y-87712748D01*
X150916475Y-87712748D02*
X151011713Y-87807986D01*
X151011713Y-87807986D02*
X151059332Y-87903224D01*
X140261905Y-82204819D02*
X140880952Y-82204819D01*
X140880952Y-82204819D02*
X140547619Y-82585771D01*
X140547619Y-82585771D02*
X140690476Y-82585771D01*
X140690476Y-82585771D02*
X140785714Y-82633390D01*
X140785714Y-82633390D02*
X140833333Y-82681009D01*
X140833333Y-82681009D02*
X140880952Y-82776247D01*
X140880952Y-82776247D02*
X140880952Y-83014342D01*
X140880952Y-83014342D02*
X140833333Y-83109580D01*
X140833333Y-83109580D02*
X140785714Y-83157200D01*
X140785714Y-83157200D02*
X140690476Y-83204819D01*
X140690476Y-83204819D02*
X140404762Y-83204819D01*
X140404762Y-83204819D02*
X140309524Y-83157200D01*
X140309524Y-83157200D02*
X140261905Y-83109580D01*
X141166667Y-82204819D02*
X141500000Y-83204819D01*
X141500000Y-83204819D02*
X141833333Y-82204819D01*
X142071429Y-82204819D02*
X142690476Y-82204819D01*
X142690476Y-82204819D02*
X142357143Y-82585771D01*
X142357143Y-82585771D02*
X142500000Y-82585771D01*
X142500000Y-82585771D02*
X142595238Y-82633390D01*
X142595238Y-82633390D02*
X142642857Y-82681009D01*
X142642857Y-82681009D02*
X142690476Y-82776247D01*
X142690476Y-82776247D02*
X142690476Y-83014342D01*
X142690476Y-83014342D02*
X142642857Y-83109580D01*
X142642857Y-83109580D02*
X142595238Y-83157200D01*
X142595238Y-83157200D02*
X142500000Y-83204819D01*
X142500000Y-83204819D02*
X142214286Y-83204819D01*
X142214286Y-83204819D02*
X142119048Y-83157200D01*
X142119048Y-83157200D02*
X142071429Y-83109580D01*
X114498330Y-80985416D02*
X114545950Y-81033035D01*
X114545950Y-81033035D02*
X114593569Y-81175892D01*
X114593569Y-81175892D02*
X114593569Y-81271130D01*
X114593569Y-81271130D02*
X114545950Y-81413987D01*
X114545950Y-81413987D02*
X114450711Y-81509225D01*
X114450711Y-81509225D02*
X114355473Y-81556844D01*
X114355473Y-81556844D02*
X114164997Y-81604463D01*
X114164997Y-81604463D02*
X114022140Y-81604463D01*
X114022140Y-81604463D02*
X113831664Y-81556844D01*
X113831664Y-81556844D02*
X113736426Y-81509225D01*
X113736426Y-81509225D02*
X113641188Y-81413987D01*
X113641188Y-81413987D02*
X113593569Y-81271130D01*
X113593569Y-81271130D02*
X113593569Y-81175892D01*
X113593569Y-81175892D02*
X113641188Y-81033035D01*
X113641188Y-81033035D02*
X113688807Y-80985416D01*
X113593569Y-80128273D02*
X113593569Y-80318749D01*
X113593569Y-80318749D02*
X113641188Y-80413987D01*
X113641188Y-80413987D02*
X113688807Y-80461606D01*
X113688807Y-80461606D02*
X113831664Y-80556844D01*
X113831664Y-80556844D02*
X114022140Y-80604463D01*
X114022140Y-80604463D02*
X114403092Y-80604463D01*
X114403092Y-80604463D02*
X114498330Y-80556844D01*
X114498330Y-80556844D02*
X114545950Y-80509225D01*
X114545950Y-80509225D02*
X114593569Y-80413987D01*
X114593569Y-80413987D02*
X114593569Y-80223511D01*
X114593569Y-80223511D02*
X114545950Y-80128273D01*
X114545950Y-80128273D02*
X114498330Y-80080654D01*
X114498330Y-80080654D02*
X114403092Y-80033035D01*
X114403092Y-80033035D02*
X114164997Y-80033035D01*
X114164997Y-80033035D02*
X114069759Y-80080654D01*
X114069759Y-80080654D02*
X114022140Y-80128273D01*
X114022140Y-80128273D02*
X113974521Y-80223511D01*
X113974521Y-80223511D02*
X113974521Y-80413987D01*
X113974521Y-80413987D02*
X114022140Y-80509225D01*
X114022140Y-80509225D02*
X114069759Y-80556844D01*
X114069759Y-80556844D02*
X114164997Y-80604463D01*
X129857142Y-112359580D02*
X129809523Y-112407200D01*
X129809523Y-112407200D02*
X129666666Y-112454819D01*
X129666666Y-112454819D02*
X129571428Y-112454819D01*
X129571428Y-112454819D02*
X129428571Y-112407200D01*
X129428571Y-112407200D02*
X129333333Y-112311961D01*
X129333333Y-112311961D02*
X129285714Y-112216723D01*
X129285714Y-112216723D02*
X129238095Y-112026247D01*
X129238095Y-112026247D02*
X129238095Y-111883390D01*
X129238095Y-111883390D02*
X129285714Y-111692914D01*
X129285714Y-111692914D02*
X129333333Y-111597676D01*
X129333333Y-111597676D02*
X129428571Y-111502438D01*
X129428571Y-111502438D02*
X129571428Y-111454819D01*
X129571428Y-111454819D02*
X129666666Y-111454819D01*
X129666666Y-111454819D02*
X129809523Y-111502438D01*
X129809523Y-111502438D02*
X129857142Y-111550057D01*
X130238095Y-111550057D02*
X130285714Y-111502438D01*
X130285714Y-111502438D02*
X130380952Y-111454819D01*
X130380952Y-111454819D02*
X130619047Y-111454819D01*
X130619047Y-111454819D02*
X130714285Y-111502438D01*
X130714285Y-111502438D02*
X130761904Y-111550057D01*
X130761904Y-111550057D02*
X130809523Y-111645295D01*
X130809523Y-111645295D02*
X130809523Y-111740533D01*
X130809523Y-111740533D02*
X130761904Y-111883390D01*
X130761904Y-111883390D02*
X130190476Y-112454819D01*
X130190476Y-112454819D02*
X130809523Y-112454819D01*
X131428571Y-111454819D02*
X131523809Y-111454819D01*
X131523809Y-111454819D02*
X131619047Y-111502438D01*
X131619047Y-111502438D02*
X131666666Y-111550057D01*
X131666666Y-111550057D02*
X131714285Y-111645295D01*
X131714285Y-111645295D02*
X131761904Y-111835771D01*
X131761904Y-111835771D02*
X131761904Y-112073866D01*
X131761904Y-112073866D02*
X131714285Y-112264342D01*
X131714285Y-112264342D02*
X131666666Y-112359580D01*
X131666666Y-112359580D02*
X131619047Y-112407200D01*
X131619047Y-112407200D02*
X131523809Y-112454819D01*
X131523809Y-112454819D02*
X131428571Y-112454819D01*
X131428571Y-112454819D02*
X131333333Y-112407200D01*
X131333333Y-112407200D02*
X131285714Y-112359580D01*
X131285714Y-112359580D02*
X131238095Y-112264342D01*
X131238095Y-112264342D02*
X131190476Y-112073866D01*
X131190476Y-112073866D02*
X131190476Y-111835771D01*
X131190476Y-111835771D02*
X131238095Y-111645295D01*
X131238095Y-111645295D02*
X131285714Y-111550057D01*
X131285714Y-111550057D02*
X131333333Y-111502438D01*
X131333333Y-111502438D02*
X131428571Y-111454819D01*
X155607333Y-107020019D02*
X155274000Y-106543828D01*
X155035905Y-107020019D02*
X155035905Y-106020019D01*
X155035905Y-106020019D02*
X155416857Y-106020019D01*
X155416857Y-106020019D02*
X155512095Y-106067638D01*
X155512095Y-106067638D02*
X155559714Y-106115257D01*
X155559714Y-106115257D02*
X155607333Y-106210495D01*
X155607333Y-106210495D02*
X155607333Y-106353352D01*
X155607333Y-106353352D02*
X155559714Y-106448590D01*
X155559714Y-106448590D02*
X155512095Y-106496209D01*
X155512095Y-106496209D02*
X155416857Y-106543828D01*
X155416857Y-106543828D02*
X155035905Y-106543828D01*
X156464476Y-106353352D02*
X156464476Y-107020019D01*
X156226381Y-105972400D02*
X155988286Y-106686685D01*
X155988286Y-106686685D02*
X156607333Y-106686685D01*
X129338095Y-87012200D02*
X129480952Y-87059819D01*
X129480952Y-87059819D02*
X129719047Y-87059819D01*
X129719047Y-87059819D02*
X129814285Y-87012200D01*
X129814285Y-87012200D02*
X129861904Y-86964580D01*
X129861904Y-86964580D02*
X129909523Y-86869342D01*
X129909523Y-86869342D02*
X129909523Y-86774104D01*
X129909523Y-86774104D02*
X129861904Y-86678866D01*
X129861904Y-86678866D02*
X129814285Y-86631247D01*
X129814285Y-86631247D02*
X129719047Y-86583628D01*
X129719047Y-86583628D02*
X129528571Y-86536009D01*
X129528571Y-86536009D02*
X129433333Y-86488390D01*
X129433333Y-86488390D02*
X129385714Y-86440771D01*
X129385714Y-86440771D02*
X129338095Y-86345533D01*
X129338095Y-86345533D02*
X129338095Y-86250295D01*
X129338095Y-86250295D02*
X129385714Y-86155057D01*
X129385714Y-86155057D02*
X129433333Y-86107438D01*
X129433333Y-86107438D02*
X129528571Y-86059819D01*
X129528571Y-86059819D02*
X129766666Y-86059819D01*
X129766666Y-86059819D02*
X129909523Y-86107438D01*
X130766666Y-86393152D02*
X130766666Y-87059819D01*
X130528571Y-86012200D02*
X130290476Y-86726485D01*
X130290476Y-86726485D02*
X130909523Y-86726485D01*
X157402132Y-86953281D02*
X157354513Y-87000901D01*
X157354513Y-87000901D02*
X157211656Y-87048520D01*
X157211656Y-87048520D02*
X157116418Y-87048520D01*
X157116418Y-87048520D02*
X156973561Y-87000901D01*
X156973561Y-87000901D02*
X156878323Y-86905662D01*
X156878323Y-86905662D02*
X156830704Y-86810424D01*
X156830704Y-86810424D02*
X156783085Y-86619948D01*
X156783085Y-86619948D02*
X156783085Y-86477091D01*
X156783085Y-86477091D02*
X156830704Y-86286615D01*
X156830704Y-86286615D02*
X156878323Y-86191377D01*
X156878323Y-86191377D02*
X156973561Y-86096139D01*
X156973561Y-86096139D02*
X157116418Y-86048520D01*
X157116418Y-86048520D02*
X157211656Y-86048520D01*
X157211656Y-86048520D02*
X157354513Y-86096139D01*
X157354513Y-86096139D02*
X157402132Y-86143758D01*
X157973561Y-86477091D02*
X157878323Y-86429472D01*
X157878323Y-86429472D02*
X157830704Y-86381853D01*
X157830704Y-86381853D02*
X157783085Y-86286615D01*
X157783085Y-86286615D02*
X157783085Y-86238996D01*
X157783085Y-86238996D02*
X157830704Y-86143758D01*
X157830704Y-86143758D02*
X157878323Y-86096139D01*
X157878323Y-86096139D02*
X157973561Y-86048520D01*
X157973561Y-86048520D02*
X158164037Y-86048520D01*
X158164037Y-86048520D02*
X158259275Y-86096139D01*
X158259275Y-86096139D02*
X158306894Y-86143758D01*
X158306894Y-86143758D02*
X158354513Y-86238996D01*
X158354513Y-86238996D02*
X158354513Y-86286615D01*
X158354513Y-86286615D02*
X158306894Y-86381853D01*
X158306894Y-86381853D02*
X158259275Y-86429472D01*
X158259275Y-86429472D02*
X158164037Y-86477091D01*
X158164037Y-86477091D02*
X157973561Y-86477091D01*
X157973561Y-86477091D02*
X157878323Y-86524710D01*
X157878323Y-86524710D02*
X157830704Y-86572329D01*
X157830704Y-86572329D02*
X157783085Y-86667567D01*
X157783085Y-86667567D02*
X157783085Y-86858043D01*
X157783085Y-86858043D02*
X157830704Y-86953281D01*
X157830704Y-86953281D02*
X157878323Y-87000901D01*
X157878323Y-87000901D02*
X157973561Y-87048520D01*
X157973561Y-87048520D02*
X158164037Y-87048520D01*
X158164037Y-87048520D02*
X158259275Y-87000901D01*
X158259275Y-87000901D02*
X158306894Y-86953281D01*
X158306894Y-86953281D02*
X158354513Y-86858043D01*
X158354513Y-86858043D02*
X158354513Y-86667567D01*
X158354513Y-86667567D02*
X158306894Y-86572329D01*
X158306894Y-86572329D02*
X158259275Y-86524710D01*
X158259275Y-86524710D02*
X158164037Y-86477091D01*
X151638095Y-105454819D02*
X151638095Y-106264342D01*
X151638095Y-106264342D02*
X151685714Y-106359580D01*
X151685714Y-106359580D02*
X151733333Y-106407200D01*
X151733333Y-106407200D02*
X151828571Y-106454819D01*
X151828571Y-106454819D02*
X152019047Y-106454819D01*
X152019047Y-106454819D02*
X152114285Y-106407200D01*
X152114285Y-106407200D02*
X152161904Y-106359580D01*
X152161904Y-106359580D02*
X152209523Y-106264342D01*
X152209523Y-106264342D02*
X152209523Y-105454819D01*
X152590476Y-105454819D02*
X153257142Y-105454819D01*
X153257142Y-105454819D02*
X152828571Y-106454819D01*
X146617777Y-103893699D02*
X146855872Y-103893699D01*
X146760634Y-104131794D02*
X146855872Y-103893699D01*
X146855872Y-103893699D02*
X146760634Y-103655604D01*
X147046348Y-104036556D02*
X146855872Y-103893699D01*
X146855872Y-103893699D02*
X147046348Y-103750842D01*
X146617777Y-103893699D02*
X146855872Y-103893699D01*
X146760634Y-104131794D02*
X146855872Y-103893699D01*
X146855872Y-103893699D02*
X146760634Y-103655604D01*
X147046348Y-104036556D02*
X146855872Y-103893699D01*
X146855872Y-103893699D02*
X147046348Y-103750842D01*
X144309523Y-82204819D02*
X143833333Y-82204819D01*
X143833333Y-82204819D02*
X143785714Y-82681009D01*
X143785714Y-82681009D02*
X143833333Y-82633390D01*
X143833333Y-82633390D02*
X143928571Y-82585771D01*
X143928571Y-82585771D02*
X144166666Y-82585771D01*
X144166666Y-82585771D02*
X144261904Y-82633390D01*
X144261904Y-82633390D02*
X144309523Y-82681009D01*
X144309523Y-82681009D02*
X144357142Y-82776247D01*
X144357142Y-82776247D02*
X144357142Y-83014342D01*
X144357142Y-83014342D02*
X144309523Y-83109580D01*
X144309523Y-83109580D02*
X144261904Y-83157200D01*
X144261904Y-83157200D02*
X144166666Y-83204819D01*
X144166666Y-83204819D02*
X143928571Y-83204819D01*
X143928571Y-83204819D02*
X143833333Y-83157200D01*
X143833333Y-83157200D02*
X143785714Y-83109580D01*
X144642857Y-82204819D02*
X144976190Y-83204819D01*
X144976190Y-83204819D02*
X145309523Y-82204819D01*
X124857142Y-114609580D02*
X124809523Y-114657200D01*
X124809523Y-114657200D02*
X124666666Y-114704819D01*
X124666666Y-114704819D02*
X124571428Y-114704819D01*
X124571428Y-114704819D02*
X124428571Y-114657200D01*
X124428571Y-114657200D02*
X124333333Y-114561961D01*
X124333333Y-114561961D02*
X124285714Y-114466723D01*
X124285714Y-114466723D02*
X124238095Y-114276247D01*
X124238095Y-114276247D02*
X124238095Y-114133390D01*
X124238095Y-114133390D02*
X124285714Y-113942914D01*
X124285714Y-113942914D02*
X124333333Y-113847676D01*
X124333333Y-113847676D02*
X124428571Y-113752438D01*
X124428571Y-113752438D02*
X124571428Y-113704819D01*
X124571428Y-113704819D02*
X124666666Y-113704819D01*
X124666666Y-113704819D02*
X124809523Y-113752438D01*
X124809523Y-113752438D02*
X124857142Y-113800057D01*
X125809523Y-114704819D02*
X125238095Y-114704819D01*
X125523809Y-114704819D02*
X125523809Y-113704819D01*
X125523809Y-113704819D02*
X125428571Y-113847676D01*
X125428571Y-113847676D02*
X125333333Y-113942914D01*
X125333333Y-113942914D02*
X125238095Y-113990533D01*
X126714285Y-113704819D02*
X126238095Y-113704819D01*
X126238095Y-113704819D02*
X126190476Y-114181009D01*
X126190476Y-114181009D02*
X126238095Y-114133390D01*
X126238095Y-114133390D02*
X126333333Y-114085771D01*
X126333333Y-114085771D02*
X126571428Y-114085771D01*
X126571428Y-114085771D02*
X126666666Y-114133390D01*
X126666666Y-114133390D02*
X126714285Y-114181009D01*
X126714285Y-114181009D02*
X126761904Y-114276247D01*
X126761904Y-114276247D02*
X126761904Y-114514342D01*
X126761904Y-114514342D02*
X126714285Y-114609580D01*
X126714285Y-114609580D02*
X126666666Y-114657200D01*
X126666666Y-114657200D02*
X126571428Y-114704819D01*
X126571428Y-114704819D02*
X126333333Y-114704819D01*
X126333333Y-114704819D02*
X126238095Y-114657200D01*
X126238095Y-114657200D02*
X126190476Y-114609580D01*
X126533333Y-79673569D02*
X126057143Y-79673569D01*
X126057143Y-79673569D02*
X126057143Y-78673569D01*
X127390476Y-79673569D02*
X126819048Y-79673569D01*
X127104762Y-79673569D02*
X127104762Y-78673569D01*
X127104762Y-78673569D02*
X127009524Y-78816426D01*
X127009524Y-78816426D02*
X126914286Y-78911664D01*
X126914286Y-78911664D02*
X126819048Y-78959283D01*
X135138095Y-86987200D02*
X135280952Y-87034819D01*
X135280952Y-87034819D02*
X135519047Y-87034819D01*
X135519047Y-87034819D02*
X135614285Y-86987200D01*
X135614285Y-86987200D02*
X135661904Y-86939580D01*
X135661904Y-86939580D02*
X135709523Y-86844342D01*
X135709523Y-86844342D02*
X135709523Y-86749104D01*
X135709523Y-86749104D02*
X135661904Y-86653866D01*
X135661904Y-86653866D02*
X135614285Y-86606247D01*
X135614285Y-86606247D02*
X135519047Y-86558628D01*
X135519047Y-86558628D02*
X135328571Y-86511009D01*
X135328571Y-86511009D02*
X135233333Y-86463390D01*
X135233333Y-86463390D02*
X135185714Y-86415771D01*
X135185714Y-86415771D02*
X135138095Y-86320533D01*
X135138095Y-86320533D02*
X135138095Y-86225295D01*
X135138095Y-86225295D02*
X135185714Y-86130057D01*
X135185714Y-86130057D02*
X135233333Y-86082438D01*
X135233333Y-86082438D02*
X135328571Y-86034819D01*
X135328571Y-86034819D02*
X135566666Y-86034819D01*
X135566666Y-86034819D02*
X135709523Y-86082438D01*
X136090476Y-86130057D02*
X136138095Y-86082438D01*
X136138095Y-86082438D02*
X136233333Y-86034819D01*
X136233333Y-86034819D02*
X136471428Y-86034819D01*
X136471428Y-86034819D02*
X136566666Y-86082438D01*
X136566666Y-86082438D02*
X136614285Y-86130057D01*
X136614285Y-86130057D02*
X136661904Y-86225295D01*
X136661904Y-86225295D02*
X136661904Y-86320533D01*
X136661904Y-86320533D02*
X136614285Y-86463390D01*
X136614285Y-86463390D02*
X136042857Y-87034819D01*
X136042857Y-87034819D02*
X136661904Y-87034819D01*
X174238095Y-118254819D02*
X174238095Y-117254819D01*
X174238095Y-117731009D02*
X174809523Y-117731009D01*
X174809523Y-118254819D02*
X174809523Y-117254819D01*
X175714285Y-117588152D02*
X175714285Y-118254819D01*
X175476190Y-117207200D02*
X175238095Y-117921485D01*
X175238095Y-117921485D02*
X175857142Y-117921485D01*
X149357142Y-110354819D02*
X149023809Y-109878628D01*
X148785714Y-110354819D02*
X148785714Y-109354819D01*
X148785714Y-109354819D02*
X149166666Y-109354819D01*
X149166666Y-109354819D02*
X149261904Y-109402438D01*
X149261904Y-109402438D02*
X149309523Y-109450057D01*
X149309523Y-109450057D02*
X149357142Y-109545295D01*
X149357142Y-109545295D02*
X149357142Y-109688152D01*
X149357142Y-109688152D02*
X149309523Y-109783390D01*
X149309523Y-109783390D02*
X149261904Y-109831009D01*
X149261904Y-109831009D02*
X149166666Y-109878628D01*
X149166666Y-109878628D02*
X148785714Y-109878628D01*
X150309523Y-110354819D02*
X149738095Y-110354819D01*
X150023809Y-110354819D02*
X150023809Y-109354819D01*
X150023809Y-109354819D02*
X149928571Y-109497676D01*
X149928571Y-109497676D02*
X149833333Y-109592914D01*
X149833333Y-109592914D02*
X149738095Y-109640533D01*
X151166666Y-109688152D02*
X151166666Y-110354819D01*
X150928571Y-109307200D02*
X150690476Y-110021485D01*
X150690476Y-110021485D02*
X151309523Y-110021485D01*
X108238095Y-118254819D02*
X108238095Y-117254819D01*
X108238095Y-117731009D02*
X108809523Y-117731009D01*
X108809523Y-118254819D02*
X108809523Y-117254819D01*
X109190476Y-117254819D02*
X109809523Y-117254819D01*
X109809523Y-117254819D02*
X109476190Y-117635771D01*
X109476190Y-117635771D02*
X109619047Y-117635771D01*
X109619047Y-117635771D02*
X109714285Y-117683390D01*
X109714285Y-117683390D02*
X109761904Y-117731009D01*
X109761904Y-117731009D02*
X109809523Y-117826247D01*
X109809523Y-117826247D02*
X109809523Y-118064342D01*
X109809523Y-118064342D02*
X109761904Y-118159580D01*
X109761904Y-118159580D02*
X109714285Y-118207200D01*
X109714285Y-118207200D02*
X109619047Y-118254819D01*
X109619047Y-118254819D02*
X109333333Y-118254819D01*
X109333333Y-118254819D02*
X109238095Y-118207200D01*
X109238095Y-118207200D02*
X109190476Y-118159580D01*
X154128379Y-102986558D02*
X154175999Y-103034177D01*
X154175999Y-103034177D02*
X154223618Y-103177034D01*
X154223618Y-103177034D02*
X154223618Y-103272272D01*
X154223618Y-103272272D02*
X154175999Y-103415129D01*
X154175999Y-103415129D02*
X154080760Y-103510367D01*
X154080760Y-103510367D02*
X153985522Y-103557986D01*
X153985522Y-103557986D02*
X153795046Y-103605605D01*
X153795046Y-103605605D02*
X153652189Y-103605605D01*
X153652189Y-103605605D02*
X153461713Y-103557986D01*
X153461713Y-103557986D02*
X153366475Y-103510367D01*
X153366475Y-103510367D02*
X153271237Y-103415129D01*
X153271237Y-103415129D02*
X153223618Y-103272272D01*
X153223618Y-103272272D02*
X153223618Y-103177034D01*
X153223618Y-103177034D02*
X153271237Y-103034177D01*
X153271237Y-103034177D02*
X153318856Y-102986558D01*
X154223618Y-102034177D02*
X154223618Y-102605605D01*
X154223618Y-102319891D02*
X153223618Y-102319891D01*
X153223618Y-102319891D02*
X153366475Y-102415129D01*
X153366475Y-102415129D02*
X153461713Y-102510367D01*
X153461713Y-102510367D02*
X153509332Y-102605605D01*
X154223618Y-101557986D02*
X154223618Y-101367510D01*
X154223618Y-101367510D02*
X154175999Y-101272272D01*
X154175999Y-101272272D02*
X154128379Y-101224653D01*
X154128379Y-101224653D02*
X153985522Y-101129415D01*
X153985522Y-101129415D02*
X153795046Y-101081796D01*
X153795046Y-101081796D02*
X153414094Y-101081796D01*
X153414094Y-101081796D02*
X153318856Y-101129415D01*
X153318856Y-101129415D02*
X153271237Y-101177034D01*
X153271237Y-101177034D02*
X153223618Y-101272272D01*
X153223618Y-101272272D02*
X153223618Y-101462748D01*
X153223618Y-101462748D02*
X153271237Y-101557986D01*
X153271237Y-101557986D02*
X153318856Y-101605605D01*
X153318856Y-101605605D02*
X153414094Y-101653224D01*
X153414094Y-101653224D02*
X153652189Y-101653224D01*
X153652189Y-101653224D02*
X153747427Y-101605605D01*
X153747427Y-101605605D02*
X153795046Y-101557986D01*
X153795046Y-101557986D02*
X153842665Y-101462748D01*
X153842665Y-101462748D02*
X153842665Y-101272272D01*
X153842665Y-101272272D02*
X153795046Y-101177034D01*
X153795046Y-101177034D02*
X153747427Y-101129415D01*
X153747427Y-101129415D02*
X153652189Y-101081796D01*
X105204819Y-115869047D02*
X104204819Y-115869047D01*
X104585771Y-115869047D02*
X104538152Y-115773809D01*
X104538152Y-115773809D02*
X104538152Y-115583333D01*
X104538152Y-115583333D02*
X104585771Y-115488095D01*
X104585771Y-115488095D02*
X104633390Y-115440476D01*
X104633390Y-115440476D02*
X104728628Y-115392857D01*
X104728628Y-115392857D02*
X105014342Y-115392857D01*
X105014342Y-115392857D02*
X105109580Y-115440476D01*
X105109580Y-115440476D02*
X105157200Y-115488095D01*
X105157200Y-115488095D02*
X105204819Y-115583333D01*
X105204819Y-115583333D02*
X105204819Y-115773809D01*
X105204819Y-115773809D02*
X105157200Y-115869047D01*
X104538152Y-114535714D02*
X105204819Y-114535714D01*
X104538152Y-114964285D02*
X105061961Y-114964285D01*
X105061961Y-114964285D02*
X105157200Y-114916666D01*
X105157200Y-114916666D02*
X105204819Y-114821428D01*
X105204819Y-114821428D02*
X105204819Y-114678571D01*
X105204819Y-114678571D02*
X105157200Y-114583333D01*
X105157200Y-114583333D02*
X105109580Y-114535714D01*
X104538152Y-114202380D02*
X104538152Y-113821428D01*
X104204819Y-114059523D02*
X105061961Y-114059523D01*
X105061961Y-114059523D02*
X105157200Y-114011904D01*
X105157200Y-114011904D02*
X105204819Y-113916666D01*
X105204819Y-113916666D02*
X105204819Y-113821428D01*
X104538152Y-113630951D02*
X104538152Y-113249999D01*
X104204819Y-113488094D02*
X105061961Y-113488094D01*
X105061961Y-113488094D02*
X105157200Y-113440475D01*
X105157200Y-113440475D02*
X105204819Y-113345237D01*
X105204819Y-113345237D02*
X105204819Y-113249999D01*
X105204819Y-112773808D02*
X105157200Y-112869046D01*
X105157200Y-112869046D02*
X105109580Y-112916665D01*
X105109580Y-112916665D02*
X105014342Y-112964284D01*
X105014342Y-112964284D02*
X104728628Y-112964284D01*
X104728628Y-112964284D02*
X104633390Y-112916665D01*
X104633390Y-112916665D02*
X104585771Y-112869046D01*
X104585771Y-112869046D02*
X104538152Y-112773808D01*
X104538152Y-112773808D02*
X104538152Y-112630951D01*
X104538152Y-112630951D02*
X104585771Y-112535713D01*
X104585771Y-112535713D02*
X104633390Y-112488094D01*
X104633390Y-112488094D02*
X104728628Y-112440475D01*
X104728628Y-112440475D02*
X105014342Y-112440475D01*
X105014342Y-112440475D02*
X105109580Y-112488094D01*
X105109580Y-112488094D02*
X105157200Y-112535713D01*
X105157200Y-112535713D02*
X105204819Y-112630951D01*
X105204819Y-112630951D02*
X105204819Y-112773808D01*
X104538152Y-112011903D02*
X105204819Y-112011903D01*
X104633390Y-112011903D02*
X104585771Y-111964284D01*
X104585771Y-111964284D02*
X104538152Y-111869046D01*
X104538152Y-111869046D02*
X104538152Y-111726189D01*
X104538152Y-111726189D02*
X104585771Y-111630951D01*
X104585771Y-111630951D02*
X104681009Y-111583332D01*
X104681009Y-111583332D02*
X105204819Y-111583332D01*
X105204819Y-110583332D02*
X105204819Y-111154760D01*
X105204819Y-110869046D02*
X104204819Y-110869046D01*
X104204819Y-110869046D02*
X104347676Y-110964284D01*
X104347676Y-110964284D02*
X104442914Y-111059522D01*
X104442914Y-111059522D02*
X104490533Y-111154760D01*
X127266666Y-76454819D02*
X127266666Y-77169104D01*
X127266666Y-77169104D02*
X127219047Y-77311961D01*
X127219047Y-77311961D02*
X127123809Y-77407200D01*
X127123809Y-77407200D02*
X126980952Y-77454819D01*
X126980952Y-77454819D02*
X126885714Y-77454819D01*
X127695238Y-76550057D02*
X127742857Y-76502438D01*
X127742857Y-76502438D02*
X127838095Y-76454819D01*
X127838095Y-76454819D02*
X128076190Y-76454819D01*
X128076190Y-76454819D02*
X128171428Y-76502438D01*
X128171428Y-76502438D02*
X128219047Y-76550057D01*
X128219047Y-76550057D02*
X128266666Y-76645295D01*
X128266666Y-76645295D02*
X128266666Y-76740533D01*
X128266666Y-76740533D02*
X128219047Y-76883390D01*
X128219047Y-76883390D02*
X127647619Y-77454819D01*
X127647619Y-77454819D02*
X128266666Y-77454819D01*
X132238095Y-87012200D02*
X132380952Y-87059819D01*
X132380952Y-87059819D02*
X132619047Y-87059819D01*
X132619047Y-87059819D02*
X132714285Y-87012200D01*
X132714285Y-87012200D02*
X132761904Y-86964580D01*
X132761904Y-86964580D02*
X132809523Y-86869342D01*
X132809523Y-86869342D02*
X132809523Y-86774104D01*
X132809523Y-86774104D02*
X132761904Y-86678866D01*
X132761904Y-86678866D02*
X132714285Y-86631247D01*
X132714285Y-86631247D02*
X132619047Y-86583628D01*
X132619047Y-86583628D02*
X132428571Y-86536009D01*
X132428571Y-86536009D02*
X132333333Y-86488390D01*
X132333333Y-86488390D02*
X132285714Y-86440771D01*
X132285714Y-86440771D02*
X132238095Y-86345533D01*
X132238095Y-86345533D02*
X132238095Y-86250295D01*
X132238095Y-86250295D02*
X132285714Y-86155057D01*
X132285714Y-86155057D02*
X132333333Y-86107438D01*
X132333333Y-86107438D02*
X132428571Y-86059819D01*
X132428571Y-86059819D02*
X132666666Y-86059819D01*
X132666666Y-86059819D02*
X132809523Y-86107438D01*
X133142857Y-86059819D02*
X133761904Y-86059819D01*
X133761904Y-86059819D02*
X133428571Y-86440771D01*
X133428571Y-86440771D02*
X133571428Y-86440771D01*
X133571428Y-86440771D02*
X133666666Y-86488390D01*
X133666666Y-86488390D02*
X133714285Y-86536009D01*
X133714285Y-86536009D02*
X133761904Y-86631247D01*
X133761904Y-86631247D02*
X133761904Y-86869342D01*
X133761904Y-86869342D02*
X133714285Y-86964580D01*
X133714285Y-86964580D02*
X133666666Y-87012200D01*
X133666666Y-87012200D02*
X133571428Y-87059819D01*
X133571428Y-87059819D02*
X133285714Y-87059819D01*
X133285714Y-87059819D02*
X133190476Y-87012200D01*
X133190476Y-87012200D02*
X133142857Y-86964580D01*
X157773618Y-90855605D02*
X158583141Y-90855605D01*
X158583141Y-90855605D02*
X158678379Y-90807986D01*
X158678379Y-90807986D02*
X158725999Y-90760367D01*
X158725999Y-90760367D02*
X158773618Y-90665129D01*
X158773618Y-90665129D02*
X158773618Y-90474653D01*
X158773618Y-90474653D02*
X158725999Y-90379415D01*
X158725999Y-90379415D02*
X158678379Y-90331796D01*
X158678379Y-90331796D02*
X158583141Y-90284177D01*
X158583141Y-90284177D02*
X157773618Y-90284177D01*
X157773618Y-89331796D02*
X157773618Y-89807986D01*
X157773618Y-89807986D02*
X158249808Y-89855605D01*
X158249808Y-89855605D02*
X158202189Y-89807986D01*
X158202189Y-89807986D02*
X158154570Y-89712748D01*
X158154570Y-89712748D02*
X158154570Y-89474653D01*
X158154570Y-89474653D02*
X158202189Y-89379415D01*
X158202189Y-89379415D02*
X158249808Y-89331796D01*
X158249808Y-89331796D02*
X158345046Y-89284177D01*
X158345046Y-89284177D02*
X158583141Y-89284177D01*
X158583141Y-89284177D02*
X158678379Y-89331796D01*
X158678379Y-89331796D02*
X158725999Y-89379415D01*
X158725999Y-89379415D02*
X158773618Y-89474653D01*
X158773618Y-89474653D02*
X158773618Y-89712748D01*
X158773618Y-89712748D02*
X158725999Y-89807986D01*
X158725999Y-89807986D02*
X158678379Y-89855605D01*
X119202083Y-73078330D02*
X119154464Y-73125950D01*
X119154464Y-73125950D02*
X119011607Y-73173569D01*
X119011607Y-73173569D02*
X118916369Y-73173569D01*
X118916369Y-73173569D02*
X118773512Y-73125950D01*
X118773512Y-73125950D02*
X118678274Y-73030711D01*
X118678274Y-73030711D02*
X118630655Y-72935473D01*
X118630655Y-72935473D02*
X118583036Y-72744997D01*
X118583036Y-72744997D02*
X118583036Y-72602140D01*
X118583036Y-72602140D02*
X118630655Y-72411664D01*
X118630655Y-72411664D02*
X118678274Y-72316426D01*
X118678274Y-72316426D02*
X118773512Y-72221188D01*
X118773512Y-72221188D02*
X118916369Y-72173569D01*
X118916369Y-72173569D02*
X119011607Y-72173569D01*
X119011607Y-72173569D02*
X119154464Y-72221188D01*
X119154464Y-72221188D02*
X119202083Y-72268807D01*
X120106845Y-72173569D02*
X119630655Y-72173569D01*
X119630655Y-72173569D02*
X119583036Y-72649759D01*
X119583036Y-72649759D02*
X119630655Y-72602140D01*
X119630655Y-72602140D02*
X119725893Y-72554521D01*
X119725893Y-72554521D02*
X119963988Y-72554521D01*
X119963988Y-72554521D02*
X120059226Y-72602140D01*
X120059226Y-72602140D02*
X120106845Y-72649759D01*
X120106845Y-72649759D02*
X120154464Y-72744997D01*
X120154464Y-72744997D02*
X120154464Y-72983092D01*
X120154464Y-72983092D02*
X120106845Y-73078330D01*
X120106845Y-73078330D02*
X120059226Y-73125950D01*
X120059226Y-73125950D02*
X119963988Y-73173569D01*
X119963988Y-73173569D02*
X119725893Y-73173569D01*
X119725893Y-73173569D02*
X119630655Y-73125950D01*
X119630655Y-73125950D02*
X119583036Y-73078330D01*
X155878819Y-112203294D02*
X154878819Y-112203294D01*
X154878819Y-112203294D02*
X154878819Y-111965199D01*
X154878819Y-111965199D02*
X154926438Y-111822342D01*
X154926438Y-111822342D02*
X155021676Y-111727104D01*
X155021676Y-111727104D02*
X155116914Y-111679485D01*
X155116914Y-111679485D02*
X155307390Y-111631866D01*
X155307390Y-111631866D02*
X155450247Y-111631866D01*
X155450247Y-111631866D02*
X155640723Y-111679485D01*
X155640723Y-111679485D02*
X155735961Y-111727104D01*
X155735961Y-111727104D02*
X155831200Y-111822342D01*
X155831200Y-111822342D02*
X155878819Y-111965199D01*
X155878819Y-111965199D02*
X155878819Y-112203294D01*
X154878819Y-111298532D02*
X154878819Y-110679485D01*
X154878819Y-110679485D02*
X155259771Y-111012818D01*
X155259771Y-111012818D02*
X155259771Y-110869961D01*
X155259771Y-110869961D02*
X155307390Y-110774723D01*
X155307390Y-110774723D02*
X155355009Y-110727104D01*
X155355009Y-110727104D02*
X155450247Y-110679485D01*
X155450247Y-110679485D02*
X155688342Y-110679485D01*
X155688342Y-110679485D02*
X155783580Y-110727104D01*
X155783580Y-110727104D02*
X155831200Y-110774723D01*
X155831200Y-110774723D02*
X155878819Y-110869961D01*
X155878819Y-110869961D02*
X155878819Y-111155675D01*
X155878819Y-111155675D02*
X155831200Y-111250913D01*
X155831200Y-111250913D02*
X155783580Y-111298532D01*
X149678379Y-89236558D02*
X149725999Y-89284177D01*
X149725999Y-89284177D02*
X149773618Y-89427034D01*
X149773618Y-89427034D02*
X149773618Y-89522272D01*
X149773618Y-89522272D02*
X149725999Y-89665129D01*
X149725999Y-89665129D02*
X149630760Y-89760367D01*
X149630760Y-89760367D02*
X149535522Y-89807986D01*
X149535522Y-89807986D02*
X149345046Y-89855605D01*
X149345046Y-89855605D02*
X149202189Y-89855605D01*
X149202189Y-89855605D02*
X149011713Y-89807986D01*
X149011713Y-89807986D02*
X148916475Y-89760367D01*
X148916475Y-89760367D02*
X148821237Y-89665129D01*
X148821237Y-89665129D02*
X148773618Y-89522272D01*
X148773618Y-89522272D02*
X148773618Y-89427034D01*
X148773618Y-89427034D02*
X148821237Y-89284177D01*
X148821237Y-89284177D02*
X148868856Y-89236558D01*
X149773618Y-88284177D02*
X149773618Y-88855605D01*
X149773618Y-88569891D02*
X148773618Y-88569891D01*
X148773618Y-88569891D02*
X148916475Y-88665129D01*
X148916475Y-88665129D02*
X149011713Y-88760367D01*
X149011713Y-88760367D02*
X149059332Y-88855605D01*
X148868856Y-87903224D02*
X148821237Y-87855605D01*
X148821237Y-87855605D02*
X148773618Y-87760367D01*
X148773618Y-87760367D02*
X148773618Y-87522272D01*
X148773618Y-87522272D02*
X148821237Y-87427034D01*
X148821237Y-87427034D02*
X148868856Y-87379415D01*
X148868856Y-87379415D02*
X148964094Y-87331796D01*
X148964094Y-87331796D02*
X149059332Y-87331796D01*
X149059332Y-87331796D02*
X149202189Y-87379415D01*
X149202189Y-87379415D02*
X149773618Y-87950843D01*
X149773618Y-87950843D02*
X149773618Y-87331796D01*
X158464404Y-111760380D02*
X158464404Y-110950857D01*
X158464404Y-110950857D02*
X158416785Y-110855619D01*
X158416785Y-110855619D02*
X158369166Y-110808000D01*
X158369166Y-110808000D02*
X158273928Y-110760380D01*
X158273928Y-110760380D02*
X158083452Y-110760380D01*
X158083452Y-110760380D02*
X157988214Y-110808000D01*
X157988214Y-110808000D02*
X157940595Y-110855619D01*
X157940595Y-110855619D02*
X157892976Y-110950857D01*
X157892976Y-110950857D02*
X157892976Y-111760380D01*
X157273928Y-111331809D02*
X157369166Y-111379428D01*
X157369166Y-111379428D02*
X157416785Y-111427047D01*
X157416785Y-111427047D02*
X157464404Y-111522285D01*
X157464404Y-111522285D02*
X157464404Y-111569904D01*
X157464404Y-111569904D02*
X157416785Y-111665142D01*
X157416785Y-111665142D02*
X157369166Y-111712761D01*
X157369166Y-111712761D02*
X157273928Y-111760380D01*
X157273928Y-111760380D02*
X157083452Y-111760380D01*
X157083452Y-111760380D02*
X156988214Y-111712761D01*
X156988214Y-111712761D02*
X156940595Y-111665142D01*
X156940595Y-111665142D02*
X156892976Y-111569904D01*
X156892976Y-111569904D02*
X156892976Y-111522285D01*
X156892976Y-111522285D02*
X156940595Y-111427047D01*
X156940595Y-111427047D02*
X156988214Y-111379428D01*
X156988214Y-111379428D02*
X157083452Y-111331809D01*
X157083452Y-111331809D02*
X157273928Y-111331809D01*
X157273928Y-111331809D02*
X157369166Y-111284190D01*
X157369166Y-111284190D02*
X157416785Y-111236571D01*
X157416785Y-111236571D02*
X157464404Y-111141333D01*
X157464404Y-111141333D02*
X157464404Y-110950857D01*
X157464404Y-110950857D02*
X157416785Y-110855619D01*
X157416785Y-110855619D02*
X157369166Y-110808000D01*
X157369166Y-110808000D02*
X157273928Y-110760380D01*
X157273928Y-110760380D02*
X157083452Y-110760380D01*
X157083452Y-110760380D02*
X156988214Y-110808000D01*
X156988214Y-110808000D02*
X156940595Y-110855619D01*
X156940595Y-110855619D02*
X156892976Y-110950857D01*
X156892976Y-110950857D02*
X156892976Y-111141333D01*
X156892976Y-111141333D02*
X156940595Y-111236571D01*
X156940595Y-111236571D02*
X156988214Y-111284190D01*
X156988214Y-111284190D02*
X157083452Y-111331809D01*
X120852083Y-83558330D02*
X120804464Y-83605950D01*
X120804464Y-83605950D02*
X120661607Y-83653569D01*
X120661607Y-83653569D02*
X120566369Y-83653569D01*
X120566369Y-83653569D02*
X120423512Y-83605950D01*
X120423512Y-83605950D02*
X120328274Y-83510711D01*
X120328274Y-83510711D02*
X120280655Y-83415473D01*
X120280655Y-83415473D02*
X120233036Y-83224997D01*
X120233036Y-83224997D02*
X120233036Y-83082140D01*
X120233036Y-83082140D02*
X120280655Y-82891664D01*
X120280655Y-82891664D02*
X120328274Y-82796426D01*
X120328274Y-82796426D02*
X120423512Y-82701188D01*
X120423512Y-82701188D02*
X120566369Y-82653569D01*
X120566369Y-82653569D02*
X120661607Y-82653569D01*
X120661607Y-82653569D02*
X120804464Y-82701188D01*
X120804464Y-82701188D02*
X120852083Y-82748807D01*
X121709226Y-82986902D02*
X121709226Y-83653569D01*
X121471131Y-82605950D02*
X121233036Y-83320235D01*
X121233036Y-83320235D02*
X121852083Y-83320235D01*
X115938095Y-75454819D02*
X115938095Y-76264342D01*
X115938095Y-76264342D02*
X115985714Y-76359580D01*
X115985714Y-76359580D02*
X116033333Y-76407200D01*
X116033333Y-76407200D02*
X116128571Y-76454819D01*
X116128571Y-76454819D02*
X116319047Y-76454819D01*
X116319047Y-76454819D02*
X116414285Y-76407200D01*
X116414285Y-76407200D02*
X116461904Y-76359580D01*
X116461904Y-76359580D02*
X116509523Y-76264342D01*
X116509523Y-76264342D02*
X116509523Y-75454819D01*
X117414285Y-75788152D02*
X117414285Y-76454819D01*
X117176190Y-75407200D02*
X116938095Y-76121485D01*
X116938095Y-76121485D02*
X117557142Y-76121485D01*
X122426249Y-78757069D02*
X122426249Y-78995164D01*
X122188154Y-78899926D02*
X122426249Y-78995164D01*
X122426249Y-78995164D02*
X122664344Y-78899926D01*
X122283392Y-79185640D02*
X122426249Y-78995164D01*
X122426249Y-78995164D02*
X122569106Y-79185640D01*
X122426248Y-79847430D02*
X122426248Y-79609335D01*
X122664343Y-79704573D02*
X122426248Y-79609335D01*
X122426248Y-79609335D02*
X122188153Y-79704573D01*
X122569105Y-79418859D02*
X122426248Y-79609335D01*
X122426248Y-79609335D02*
X122283391Y-79418859D01*
X137107142Y-112359580D02*
X137059523Y-112407200D01*
X137059523Y-112407200D02*
X136916666Y-112454819D01*
X136916666Y-112454819D02*
X136821428Y-112454819D01*
X136821428Y-112454819D02*
X136678571Y-112407200D01*
X136678571Y-112407200D02*
X136583333Y-112311961D01*
X136583333Y-112311961D02*
X136535714Y-112216723D01*
X136535714Y-112216723D02*
X136488095Y-112026247D01*
X136488095Y-112026247D02*
X136488095Y-111883390D01*
X136488095Y-111883390D02*
X136535714Y-111692914D01*
X136535714Y-111692914D02*
X136583333Y-111597676D01*
X136583333Y-111597676D02*
X136678571Y-111502438D01*
X136678571Y-111502438D02*
X136821428Y-111454819D01*
X136821428Y-111454819D02*
X136916666Y-111454819D01*
X136916666Y-111454819D02*
X137059523Y-111502438D01*
X137059523Y-111502438D02*
X137107142Y-111550057D01*
X138059523Y-112454819D02*
X137488095Y-112454819D01*
X137773809Y-112454819D02*
X137773809Y-111454819D01*
X137773809Y-111454819D02*
X137678571Y-111597676D01*
X137678571Y-111597676D02*
X137583333Y-111692914D01*
X137583333Y-111692914D02*
X137488095Y-111740533D01*
X138678571Y-111454819D02*
X138773809Y-111454819D01*
X138773809Y-111454819D02*
X138869047Y-111502438D01*
X138869047Y-111502438D02*
X138916666Y-111550057D01*
X138916666Y-111550057D02*
X138964285Y-111645295D01*
X138964285Y-111645295D02*
X139011904Y-111835771D01*
X139011904Y-111835771D02*
X139011904Y-112073866D01*
X139011904Y-112073866D02*
X138964285Y-112264342D01*
X138964285Y-112264342D02*
X138916666Y-112359580D01*
X138916666Y-112359580D02*
X138869047Y-112407200D01*
X138869047Y-112407200D02*
X138773809Y-112454819D01*
X138773809Y-112454819D02*
X138678571Y-112454819D01*
X138678571Y-112454819D02*
X138583333Y-112407200D01*
X138583333Y-112407200D02*
X138535714Y-112359580D01*
X138535714Y-112359580D02*
X138488095Y-112264342D01*
X138488095Y-112264342D02*
X138440476Y-112073866D01*
X138440476Y-112073866D02*
X138440476Y-111835771D01*
X138440476Y-111835771D02*
X138488095Y-111645295D01*
X138488095Y-111645295D02*
X138535714Y-111550057D01*
X138535714Y-111550057D02*
X138583333Y-111502438D01*
X138583333Y-111502438D02*
X138678571Y-111454819D01*
X146859580Y-108892857D02*
X146907200Y-108940476D01*
X146907200Y-108940476D02*
X146954819Y-109083333D01*
X146954819Y-109083333D02*
X146954819Y-109178571D01*
X146954819Y-109178571D02*
X146907200Y-109321428D01*
X146907200Y-109321428D02*
X146811961Y-109416666D01*
X146811961Y-109416666D02*
X146716723Y-109464285D01*
X146716723Y-109464285D02*
X146526247Y-109511904D01*
X146526247Y-109511904D02*
X146383390Y-109511904D01*
X146383390Y-109511904D02*
X146192914Y-109464285D01*
X146192914Y-109464285D02*
X146097676Y-109416666D01*
X146097676Y-109416666D02*
X146002438Y-109321428D01*
X146002438Y-109321428D02*
X145954819Y-109178571D01*
X145954819Y-109178571D02*
X145954819Y-109083333D01*
X145954819Y-109083333D02*
X146002438Y-108940476D01*
X146002438Y-108940476D02*
X146050057Y-108892857D01*
X146050057Y-108511904D02*
X146002438Y-108464285D01*
X146002438Y-108464285D02*
X145954819Y-108369047D01*
X145954819Y-108369047D02*
X145954819Y-108130952D01*
X145954819Y-108130952D02*
X146002438Y-108035714D01*
X146002438Y-108035714D02*
X146050057Y-107988095D01*
X146050057Y-107988095D02*
X146145295Y-107940476D01*
X146145295Y-107940476D02*
X146240533Y-107940476D01*
X146240533Y-107940476D02*
X146383390Y-107988095D01*
X146383390Y-107988095D02*
X146954819Y-108559523D01*
X146954819Y-108559523D02*
X146954819Y-107940476D01*
X146050057Y-107559523D02*
X146002438Y-107511904D01*
X146002438Y-107511904D02*
X145954819Y-107416666D01*
X145954819Y-107416666D02*
X145954819Y-107178571D01*
X145954819Y-107178571D02*
X146002438Y-107083333D01*
X146002438Y-107083333D02*
X146050057Y-107035714D01*
X146050057Y-107035714D02*
X146145295Y-106988095D01*
X146145295Y-106988095D02*
X146240533Y-106988095D01*
X146240533Y-106988095D02*
X146383390Y-107035714D01*
X146383390Y-107035714D02*
X146954819Y-107607142D01*
X146954819Y-107607142D02*
X146954819Y-106988095D01*
X105433333Y-87659580D02*
X105385714Y-87707200D01*
X105385714Y-87707200D02*
X105242857Y-87754819D01*
X105242857Y-87754819D02*
X105147619Y-87754819D01*
X105147619Y-87754819D02*
X105004762Y-87707200D01*
X105004762Y-87707200D02*
X104909524Y-87611961D01*
X104909524Y-87611961D02*
X104861905Y-87516723D01*
X104861905Y-87516723D02*
X104814286Y-87326247D01*
X104814286Y-87326247D02*
X104814286Y-87183390D01*
X104814286Y-87183390D02*
X104861905Y-86992914D01*
X104861905Y-86992914D02*
X104909524Y-86897676D01*
X104909524Y-86897676D02*
X105004762Y-86802438D01*
X105004762Y-86802438D02*
X105147619Y-86754819D01*
X105147619Y-86754819D02*
X105242857Y-86754819D01*
X105242857Y-86754819D02*
X105385714Y-86802438D01*
X105385714Y-86802438D02*
X105433333Y-86850057D01*
X106385714Y-87754819D02*
X105814286Y-87754819D01*
X106100000Y-87754819D02*
X106100000Y-86754819D01*
X106100000Y-86754819D02*
X106004762Y-86897676D01*
X106004762Y-86897676D02*
X105909524Y-86992914D01*
X105909524Y-86992914D02*
X105814286Y-87040533D01*
X105279580Y-80329166D02*
X105327200Y-80376785D01*
X105327200Y-80376785D02*
X105374819Y-80519642D01*
X105374819Y-80519642D02*
X105374819Y-80614880D01*
X105374819Y-80614880D02*
X105327200Y-80757737D01*
X105327200Y-80757737D02*
X105231961Y-80852975D01*
X105231961Y-80852975D02*
X105136723Y-80900594D01*
X105136723Y-80900594D02*
X104946247Y-80948213D01*
X104946247Y-80948213D02*
X104803390Y-80948213D01*
X104803390Y-80948213D02*
X104612914Y-80900594D01*
X104612914Y-80900594D02*
X104517676Y-80852975D01*
X104517676Y-80852975D02*
X104422438Y-80757737D01*
X104422438Y-80757737D02*
X104374819Y-80614880D01*
X104374819Y-80614880D02*
X104374819Y-80519642D01*
X104374819Y-80519642D02*
X104422438Y-80376785D01*
X104422438Y-80376785D02*
X104470057Y-80329166D01*
X105374819Y-79852975D02*
X105374819Y-79662499D01*
X105374819Y-79662499D02*
X105327200Y-79567261D01*
X105327200Y-79567261D02*
X105279580Y-79519642D01*
X105279580Y-79519642D02*
X105136723Y-79424404D01*
X105136723Y-79424404D02*
X104946247Y-79376785D01*
X104946247Y-79376785D02*
X104565295Y-79376785D01*
X104565295Y-79376785D02*
X104470057Y-79424404D01*
X104470057Y-79424404D02*
X104422438Y-79472023D01*
X104422438Y-79472023D02*
X104374819Y-79567261D01*
X104374819Y-79567261D02*
X104374819Y-79757737D01*
X104374819Y-79757737D02*
X104422438Y-79852975D01*
X104422438Y-79852975D02*
X104470057Y-79900594D01*
X104470057Y-79900594D02*
X104565295Y-79948213D01*
X104565295Y-79948213D02*
X104803390Y-79948213D01*
X104803390Y-79948213D02*
X104898628Y-79900594D01*
X104898628Y-79900594D02*
X104946247Y-79852975D01*
X104946247Y-79852975D02*
X104993866Y-79757737D01*
X104993866Y-79757737D02*
X104993866Y-79567261D01*
X104993866Y-79567261D02*
X104946247Y-79472023D01*
X104946247Y-79472023D02*
X104898628Y-79424404D01*
X104898628Y-79424404D02*
X104803390Y-79376785D01*
X141002438Y-71908095D02*
X140954819Y-72003333D01*
X140954819Y-72003333D02*
X140954819Y-72146190D01*
X140954819Y-72146190D02*
X141002438Y-72289047D01*
X141002438Y-72289047D02*
X141097676Y-72384285D01*
X141097676Y-72384285D02*
X141192914Y-72431904D01*
X141192914Y-72431904D02*
X141383390Y-72479523D01*
X141383390Y-72479523D02*
X141526247Y-72479523D01*
X141526247Y-72479523D02*
X141716723Y-72431904D01*
X141716723Y-72431904D02*
X141811961Y-72384285D01*
X141811961Y-72384285D02*
X141907200Y-72289047D01*
X141907200Y-72289047D02*
X141954819Y-72146190D01*
X141954819Y-72146190D02*
X141954819Y-72050952D01*
X141954819Y-72050952D02*
X141907200Y-71908095D01*
X141907200Y-71908095D02*
X141859580Y-71860476D01*
X141859580Y-71860476D02*
X141526247Y-71860476D01*
X141526247Y-71860476D02*
X141526247Y-72050952D01*
X141954819Y-71431904D02*
X140954819Y-71431904D01*
X140954819Y-71431904D02*
X141954819Y-70860476D01*
X141954819Y-70860476D02*
X140954819Y-70860476D01*
X141954819Y-70384285D02*
X140954819Y-70384285D01*
X140954819Y-70384285D02*
X140954819Y-70146190D01*
X140954819Y-70146190D02*
X141002438Y-70003333D01*
X141002438Y-70003333D02*
X141097676Y-69908095D01*
X141097676Y-69908095D02*
X141192914Y-69860476D01*
X141192914Y-69860476D02*
X141383390Y-69812857D01*
X141383390Y-69812857D02*
X141526247Y-69812857D01*
X141526247Y-69812857D02*
X141716723Y-69860476D01*
X141716723Y-69860476D02*
X141811961Y-69908095D01*
X141811961Y-69908095D02*
X141907200Y-70003333D01*
X141907200Y-70003333D02*
X141954819Y-70146190D01*
X141954819Y-70146190D02*
X141954819Y-70384285D01*
X141954819Y-68860476D02*
X141954819Y-69431904D01*
X141954819Y-69146190D02*
X140954819Y-69146190D01*
X140954819Y-69146190D02*
X141097676Y-69241428D01*
X141097676Y-69241428D02*
X141192914Y-69336666D01*
X141192914Y-69336666D02*
X141240533Y-69431904D01*
D13*
%TO.C,U2*%
X113310500Y-112175000D02*
X112974500Y-112415000D01*
X112974500Y-111935000D01*
X113310500Y-112175000D01*
G36*
X113310500Y-112175000D02*
G01*
X112974500Y-112415000D01*
X112974500Y-111935000D01*
X113310500Y-112175000D01*
G37*
X142710500Y-125525000D02*
X113510500Y-125525000D01*
X142710500Y-110075000D02*
X142710500Y-125525000D01*
X119174500Y-121319000D02*
X113840500Y-121319000D01*
X119174500Y-110651000D02*
X119174500Y-121319000D01*
X113840500Y-121319000D02*
X113840500Y-121319000D01*
X113840500Y-121319000D02*
X113840500Y-110651000D01*
X113840500Y-110651000D02*
X119174500Y-110651000D01*
X113840500Y-110651000D02*
X113840500Y-110651000D01*
X113510500Y-125525000D02*
X113510500Y-110075000D01*
X113510500Y-110075000D02*
X142710500Y-110075000D01*
X113510500Y-110075000D02*
X113510500Y-110075000D01*
D11*
%TO.C,U1*%
X106220000Y-89110000D02*
X141780000Y-89110000D01*
X106220000Y-106890000D02*
X106220000Y-89110000D01*
X141780000Y-89110000D02*
X141780000Y-106890000D01*
X141780000Y-106890000D02*
X106220000Y-106890000D01*
D14*
%TO.C,IC2*%
X138825000Y-118000000D02*
X139675000Y-118000000D01*
X140025000Y-118250000D02*
X141625000Y-118250000D01*
X140025000Y-120250000D02*
X140025000Y-118250000D01*
X141625000Y-118250000D02*
X141625000Y-120250000D01*
X141625000Y-120250000D02*
X140025000Y-120250000D01*
D13*
%TO.C,servo1*%
X170240000Y-100140000D02*
X170240000Y-101390000D01*
X170540000Y-100440000D02*
X170540000Y-105160000D01*
X170540000Y-101750000D02*
X171150000Y-101750000D01*
X170540000Y-103050000D02*
X171150000Y-103050000D01*
X170540000Y-105160000D02*
X178660000Y-105160000D01*
X171150000Y-101050000D02*
X171150000Y-104550000D01*
X171150000Y-104550000D02*
X178050000Y-104550000D01*
X171490000Y-100140000D02*
X170240000Y-100140000D01*
X172000000Y-100240000D02*
X172000000Y-100440000D01*
X172300000Y-100240000D02*
X172000000Y-100240000D01*
X172300000Y-100340000D02*
X172000000Y-100340000D01*
X172300000Y-100440000D02*
X172300000Y-100240000D01*
X173100000Y-100440000D02*
X173100000Y-101050000D01*
X173100000Y-101050000D02*
X171150000Y-101050000D01*
X173500000Y-104050000D02*
X173700000Y-104050000D01*
X173500000Y-104550000D02*
X173500000Y-104050000D01*
X173600000Y-104550000D02*
X173600000Y-104050000D01*
X173700000Y-104050000D02*
X173700000Y-104550000D01*
X175500000Y-104050000D02*
X175700000Y-104050000D01*
X175500000Y-104550000D02*
X175500000Y-104050000D01*
X175600000Y-104550000D02*
X175600000Y-104050000D01*
X175700000Y-104050000D02*
X175700000Y-104550000D01*
X176100000Y-101050000D02*
X176100000Y-100440000D01*
X178050000Y-101050000D02*
X176100000Y-101050000D01*
X178050000Y-104550000D02*
X178050000Y-101050000D01*
X178660000Y-100440000D02*
X170540000Y-100440000D01*
X178660000Y-101750000D02*
X178050000Y-101750000D01*
X178660000Y-103050000D02*
X178050000Y-103050000D01*
X178660000Y-105160000D02*
X178660000Y-100440000D01*
%TO.C,BZ1*%
X157600000Y-119500000D02*
G75*
G02*
X145400000Y-119500000I-6100000J0D01*
G01*
X145400000Y-119500000D02*
G75*
G02*
X157600000Y-119500000I6100000J0D01*
G01*
%TO.C,C24*%
X143765000Y-101261252D02*
X143765000Y-100738748D01*
X145235000Y-101261252D02*
X145235000Y-100738748D01*
%TO.C,J1*%
X128840000Y-72920000D02*
X128840000Y-75580000D01*
X136520000Y-72920000D02*
X128840000Y-72920000D01*
X136520000Y-72920000D02*
X136520000Y-75580000D01*
X136520000Y-75580000D02*
X128840000Y-75580000D01*
X137790000Y-72920000D02*
X139120000Y-72920000D01*
X139120000Y-72920000D02*
X139120000Y-74250000D01*
%TO.C,C23*%
X145765000Y-100738748D02*
X145765000Y-101261252D01*
X147235000Y-100738748D02*
X147235000Y-101261252D01*
%TO.C,R11*%
X144515000Y-89477064D02*
X144515000Y-89022936D01*
X145985000Y-89477064D02*
X145985000Y-89022936D01*
%TO.C,R1*%
X122283750Y-73491686D02*
X122283750Y-73945814D01*
X123753750Y-73491686D02*
X123753750Y-73945814D01*
%TO.C,R2*%
X146733799Y-95016637D02*
X146733799Y-95470765D01*
X148203799Y-95016637D02*
X148203799Y-95470765D01*
%TO.C,C17*%
X135663748Y-115465000D02*
X136186252Y-115465000D01*
X135663748Y-116935000D02*
X136186252Y-116935000D01*
%TO.C,servo13*%
X170240000Y-94540000D02*
X170240000Y-95790000D01*
X170540000Y-94840000D02*
X170540000Y-99560000D01*
X170540000Y-96150000D02*
X171150000Y-96150000D01*
X170540000Y-97450000D02*
X171150000Y-97450000D01*
X170540000Y-99560000D02*
X178660000Y-99560000D01*
X171150000Y-95450000D02*
X171150000Y-98950000D01*
X171150000Y-98950000D02*
X178050000Y-98950000D01*
X171490000Y-94540000D02*
X170240000Y-94540000D01*
X172000000Y-94640000D02*
X172000000Y-94840000D01*
X172300000Y-94640000D02*
X172000000Y-94640000D01*
X172300000Y-94740000D02*
X172000000Y-94740000D01*
X172300000Y-94840000D02*
X172300000Y-94640000D01*
X173100000Y-94840000D02*
X173100000Y-95450000D01*
X173100000Y-95450000D02*
X171150000Y-95450000D01*
X173500000Y-98450000D02*
X173700000Y-98450000D01*
X173500000Y-98950000D02*
X173500000Y-98450000D01*
X173600000Y-98950000D02*
X173600000Y-98450000D01*
X173700000Y-98450000D02*
X173700000Y-98950000D01*
X175500000Y-98450000D02*
X175700000Y-98450000D01*
X175500000Y-98950000D02*
X175500000Y-98450000D01*
X175600000Y-98950000D02*
X175600000Y-98450000D01*
X175700000Y-98450000D02*
X175700000Y-98950000D01*
X176100000Y-95450000D02*
X176100000Y-94840000D01*
X178050000Y-95450000D02*
X176100000Y-95450000D01*
X178050000Y-98950000D02*
X178050000Y-95450000D01*
X178660000Y-94840000D02*
X170540000Y-94840000D01*
X178660000Y-96150000D02*
X178050000Y-96150000D01*
X178660000Y-97450000D02*
X178050000Y-97450000D01*
X178660000Y-99560000D02*
X178660000Y-94840000D01*
%TO.C,C2*%
X108761252Y-84515000D02*
X108238748Y-84515000D01*
X108761252Y-85985000D02*
X108238748Y-85985000D01*
%TO.C,U6*%
X148968799Y-95243701D02*
X148968799Y-95493701D01*
X148968799Y-95243701D02*
X149218799Y-95243701D01*
X152168799Y-95243701D02*
X151918799Y-95243701D01*
X152168799Y-95243701D02*
X152168799Y-95493701D01*
X152168799Y-98443701D02*
X151918799Y-98443701D01*
X152168799Y-98443701D02*
X152168799Y-98193701D01*
X148968799Y-98443701D02*
X148638799Y-98683701D01*
X148638799Y-98203701D01*
X148968799Y-98443701D01*
G36*
X148968799Y-98443701D02*
G01*
X148638799Y-98683701D01*
X148638799Y-98203701D01*
X148968799Y-98443701D01*
G37*
%TO.C,R13*%
X146765000Y-89477064D02*
X146765000Y-89022936D01*
X148235000Y-89477064D02*
X148235000Y-89022936D01*
%TO.C,C21*%
X131863748Y-115465000D02*
X132386252Y-115465000D01*
X131863748Y-116935000D02*
X132386252Y-116935000D01*
%TO.C,VCC*%
X145540000Y-84250000D02*
X145540000Y-87110000D01*
X145540000Y-87110000D02*
X147460000Y-87110000D01*
X147460000Y-87110000D02*
X147460000Y-84250000D01*
%TO.C,C18*%
X154933799Y-98682449D02*
X154933799Y-99204953D01*
X156403799Y-98682449D02*
X156403799Y-99204953D01*
%TO.C,C14*%
X111065000Y-87261252D02*
X111065000Y-86738748D01*
X112535000Y-87261252D02*
X112535000Y-86738748D01*
%TO.C,C13*%
X146740000Y-71740000D02*
X150490000Y-71740000D01*
X146740000Y-81195563D02*
X146740000Y-71740000D01*
X147804437Y-82260000D02*
X146740000Y-81195563D01*
X147804437Y-82260000D02*
X150490000Y-82260000D01*
X148875000Y-79875000D02*
X150125000Y-79875000D01*
X149500000Y-80500000D02*
X149500000Y-79250000D01*
X156195563Y-82260000D02*
X153510000Y-82260000D01*
X156195563Y-82260000D02*
X157260000Y-81195563D01*
X157260000Y-71740000D02*
X153510000Y-71740000D01*
X157260000Y-81195563D02*
X157260000Y-71740000D01*
%TO.C,C16*%
X143765000Y-105261252D02*
X143765000Y-104738748D01*
X145235000Y-105261252D02*
X145235000Y-104738748D01*
D15*
%TO.C,U3*%
X132249999Y-118156000D02*
X132249999Y-118508305D01*
X132249999Y-121453695D02*
X132249999Y-121806000D01*
X132249999Y-121806000D02*
X132852304Y-121806000D01*
X132852304Y-118156000D02*
X132249999Y-118156000D01*
X133797692Y-121806000D02*
X134352306Y-121806000D01*
X134352306Y-118156000D02*
X133797692Y-118156000D01*
X135297694Y-121806000D02*
X135899999Y-121806000D01*
X135899999Y-118156000D02*
X135297694Y-118156000D01*
X135899999Y-118508305D02*
X135899999Y-118156000D01*
X135899999Y-121806000D02*
X135899999Y-121453695D01*
D16*
G36*
X136776942Y-120671499D02*
G01*
X136522942Y-120671499D01*
X136522942Y-120290499D01*
X136776942Y-120290499D01*
X136776942Y-120671499D01*
G37*
D13*
%TO.C,R3*%
X142265000Y-89477064D02*
X142265000Y-89022936D01*
X143735000Y-89477064D02*
X143735000Y-89022936D01*
%TO.C,servo11*%
X170240000Y-83290000D02*
X170240000Y-84540000D01*
X170540000Y-83590000D02*
X170540000Y-88310000D01*
X170540000Y-84900000D02*
X171150000Y-84900000D01*
X170540000Y-86200000D02*
X171150000Y-86200000D01*
X170540000Y-88310000D02*
X178660000Y-88310000D01*
X171150000Y-84200000D02*
X171150000Y-87700000D01*
X171150000Y-87700000D02*
X178050000Y-87700000D01*
X171490000Y-83290000D02*
X170240000Y-83290000D01*
X172000000Y-83390000D02*
X172000000Y-83590000D01*
X172300000Y-83390000D02*
X172000000Y-83390000D01*
X172300000Y-83490000D02*
X172000000Y-83490000D01*
X172300000Y-83590000D02*
X172300000Y-83390000D01*
X173100000Y-83590000D02*
X173100000Y-84200000D01*
X173100000Y-84200000D02*
X171150000Y-84200000D01*
X173500000Y-87200000D02*
X173700000Y-87200000D01*
X173500000Y-87700000D02*
X173500000Y-87200000D01*
X173600000Y-87700000D02*
X173600000Y-87200000D01*
X173700000Y-87200000D02*
X173700000Y-87700000D01*
X175500000Y-87200000D02*
X175700000Y-87200000D01*
X175500000Y-87700000D02*
X175500000Y-87200000D01*
X175600000Y-87700000D02*
X175600000Y-87200000D01*
X175700000Y-87200000D02*
X175700000Y-87700000D01*
X176100000Y-84200000D02*
X176100000Y-83590000D01*
X178050000Y-84200000D02*
X176100000Y-84200000D01*
X178050000Y-87700000D02*
X178050000Y-84200000D01*
X178660000Y-83590000D02*
X170540000Y-83590000D01*
X178660000Y-84900000D02*
X178050000Y-84900000D01*
X178660000Y-86200000D02*
X178050000Y-86200000D01*
X178660000Y-88310000D02*
X178660000Y-83590000D01*
%TO.C,R9*%
X128765000Y-120977064D02*
X128765000Y-120522936D01*
X130235000Y-120977064D02*
X130235000Y-120522936D01*
%TO.C,C3*%
X121988748Y-111515000D02*
X122511252Y-111515000D01*
X121988748Y-112985000D02*
X122511252Y-112985000D01*
%TO.C,servo5*%
X161240000Y-105690000D02*
X161240000Y-106940000D01*
X161540000Y-105990000D02*
X161540000Y-110710000D01*
X161540000Y-107300000D02*
X162150000Y-107300000D01*
X161540000Y-108600000D02*
X162150000Y-108600000D01*
X161540000Y-110710000D02*
X169660000Y-110710000D01*
X162150000Y-106600000D02*
X162150000Y-110100000D01*
X162150000Y-110100000D02*
X169050000Y-110100000D01*
X162490000Y-105690000D02*
X161240000Y-105690000D01*
X163000000Y-105790000D02*
X163000000Y-105990000D01*
X163300000Y-105790000D02*
X163000000Y-105790000D01*
X163300000Y-105890000D02*
X163000000Y-105890000D01*
X163300000Y-105990000D02*
X163300000Y-105790000D01*
X164100000Y-105990000D02*
X164100000Y-106600000D01*
X164100000Y-106600000D02*
X162150000Y-106600000D01*
X164500000Y-109600000D02*
X164700000Y-109600000D01*
X164500000Y-110100000D02*
X164500000Y-109600000D01*
X164600000Y-110100000D02*
X164600000Y-109600000D01*
X164700000Y-109600000D02*
X164700000Y-110100000D01*
X166500000Y-109600000D02*
X166700000Y-109600000D01*
X166500000Y-110100000D02*
X166500000Y-109600000D01*
X166600000Y-110100000D02*
X166600000Y-109600000D01*
X166700000Y-109600000D02*
X166700000Y-110100000D01*
X167100000Y-106600000D02*
X167100000Y-105990000D01*
X169050000Y-106600000D02*
X167100000Y-106600000D01*
X169050000Y-110100000D02*
X169050000Y-106600000D01*
X169660000Y-105990000D02*
X161540000Y-105990000D01*
X169660000Y-107300000D02*
X169050000Y-107300000D01*
X169660000Y-108600000D02*
X169050000Y-108600000D01*
X169660000Y-110710000D02*
X169660000Y-105990000D01*
%TO.C,servo4*%
X161240000Y-117140000D02*
X161240000Y-118390000D01*
X161540000Y-117440000D02*
X161540000Y-122160000D01*
X161540000Y-118750000D02*
X162150000Y-118750000D01*
X161540000Y-120050000D02*
X162150000Y-120050000D01*
X161540000Y-122160000D02*
X169660000Y-122160000D01*
X162150000Y-118050000D02*
X162150000Y-121550000D01*
X162150000Y-121550000D02*
X169050000Y-121550000D01*
X162490000Y-117140000D02*
X161240000Y-117140000D01*
X163000000Y-117240000D02*
X163000000Y-117440000D01*
X163300000Y-117240000D02*
X163000000Y-117240000D01*
X163300000Y-117340000D02*
X163000000Y-117340000D01*
X163300000Y-117440000D02*
X163300000Y-117240000D01*
X164100000Y-117440000D02*
X164100000Y-118050000D01*
X164100000Y-118050000D02*
X162150000Y-118050000D01*
X164500000Y-121050000D02*
X164700000Y-121050000D01*
X164500000Y-121550000D02*
X164500000Y-121050000D01*
X164600000Y-121550000D02*
X164600000Y-121050000D01*
X164700000Y-121050000D02*
X164700000Y-121550000D01*
X166500000Y-121050000D02*
X166700000Y-121050000D01*
X166500000Y-121550000D02*
X166500000Y-121050000D01*
X166600000Y-121550000D02*
X166600000Y-121050000D01*
X166700000Y-121050000D02*
X166700000Y-121550000D01*
X167100000Y-118050000D02*
X167100000Y-117440000D01*
X169050000Y-118050000D02*
X167100000Y-118050000D01*
X169050000Y-121550000D02*
X169050000Y-118050000D01*
X169660000Y-117440000D02*
X161540000Y-117440000D01*
X169660000Y-118750000D02*
X169050000Y-118750000D01*
X169660000Y-120050000D02*
X169050000Y-120050000D01*
X169660000Y-122160000D02*
X169660000Y-117440000D01*
%TO.C,5V1*%
X142920000Y-72300000D02*
X144250000Y-72300000D01*
X142920000Y-73630000D02*
X142920000Y-72300000D01*
X142920000Y-74900000D02*
X142920000Y-80040000D01*
X142920000Y-74900000D02*
X145580000Y-74900000D01*
X142920000Y-80040000D02*
X145580000Y-80040000D01*
X145580000Y-74900000D02*
X145580000Y-80040000D01*
%TO.C,C7*%
X154233799Y-94282449D02*
X154233799Y-94804953D01*
X155703799Y-94282449D02*
X155703799Y-94804953D01*
%TO.C,servo2*%
X161240000Y-111340000D02*
X161240000Y-112590000D01*
X161540000Y-111640000D02*
X161540000Y-116360000D01*
X161540000Y-112950000D02*
X162150000Y-112950000D01*
X161540000Y-114250000D02*
X162150000Y-114250000D01*
X161540000Y-116360000D02*
X169660000Y-116360000D01*
X162150000Y-112250000D02*
X162150000Y-115750000D01*
X162150000Y-115750000D02*
X169050000Y-115750000D01*
X162490000Y-111340000D02*
X161240000Y-111340000D01*
X163000000Y-111440000D02*
X163000000Y-111640000D01*
X163300000Y-111440000D02*
X163000000Y-111440000D01*
X163300000Y-111540000D02*
X163000000Y-111540000D01*
X163300000Y-111640000D02*
X163300000Y-111440000D01*
X164100000Y-111640000D02*
X164100000Y-112250000D01*
X164100000Y-112250000D02*
X162150000Y-112250000D01*
X164500000Y-115250000D02*
X164700000Y-115250000D01*
X164500000Y-115750000D02*
X164500000Y-115250000D01*
X164600000Y-115750000D02*
X164600000Y-115250000D01*
X164700000Y-115250000D02*
X164700000Y-115750000D01*
X166500000Y-115250000D02*
X166700000Y-115250000D01*
X166500000Y-115750000D02*
X166500000Y-115250000D01*
X166600000Y-115750000D02*
X166600000Y-115250000D01*
X166700000Y-115250000D02*
X166700000Y-115750000D01*
X167100000Y-112250000D02*
X167100000Y-111640000D01*
X169050000Y-112250000D02*
X167100000Y-112250000D01*
X169050000Y-115750000D02*
X169050000Y-112250000D01*
X169660000Y-111640000D02*
X161540000Y-111640000D01*
X169660000Y-112950000D02*
X169050000Y-112950000D01*
X169660000Y-114250000D02*
X169050000Y-114250000D01*
X169660000Y-116360000D02*
X169660000Y-111640000D01*
%TO.C,C11*%
X151343799Y-91869949D02*
X151343799Y-92392453D01*
X152813799Y-91869949D02*
X152813799Y-92392453D01*
%TO.C,R7*%
X106665000Y-102037064D02*
X106665000Y-101582936D01*
X108135000Y-102037064D02*
X108135000Y-101582936D01*
%TO.C,3V3*%
X141040000Y-84250000D02*
X141040000Y-87110000D01*
X141040000Y-87110000D02*
X142960000Y-87110000D01*
X142960000Y-87110000D02*
X142960000Y-84250000D01*
%TO.C,C6*%
X115083750Y-81080002D02*
X115083750Y-80557498D01*
X116553750Y-81080002D02*
X116553750Y-80557498D01*
%TO.C,C20*%
X131863748Y-113215000D02*
X132386252Y-113215000D01*
X131863748Y-114685000D02*
X132386252Y-114685000D01*
%TO.C,R4*%
X155546936Y-107480200D02*
X156001064Y-107480200D01*
X155546936Y-108950200D02*
X156001064Y-108950200D01*
%TO.C,S4*%
X128770000Y-83005000D02*
X128770000Y-80405000D01*
X131430000Y-80405000D02*
X128770000Y-80405000D01*
X131430000Y-83005000D02*
X128770000Y-83005000D01*
X131430000Y-83005000D02*
X131430000Y-80405000D01*
X131430000Y-84275000D02*
X131430000Y-85605000D01*
X131430000Y-85605000D02*
X130100000Y-85605000D01*
%TO.C,Main-Power1*%
X159865000Y-80956000D02*
X159865000Y-71035000D01*
X161190000Y-76764000D02*
X161237000Y-76718000D01*
X161395000Y-76970000D02*
X161430000Y-76934000D01*
X163499000Y-74456000D02*
X163534000Y-74421000D01*
X163692000Y-74672000D02*
X163739000Y-74626000D01*
X170145000Y-71035000D02*
X159865000Y-71035000D01*
X170145000Y-71595000D02*
X159865000Y-71595000D01*
X170145000Y-73095000D02*
X159865000Y-73095000D01*
X170145000Y-77996000D02*
X159865000Y-77996000D01*
X170145000Y-80956000D02*
X159865000Y-80956000D01*
X170145000Y-80956000D02*
X170145000Y-71035000D01*
X170385000Y-70795000D02*
X169885000Y-70795000D01*
X170385000Y-71535000D02*
X170385000Y-70795000D01*
X166009573Y-76378042D02*
G75*
G02*
X166010000Y-75011000I1535427J683042D01*
G01*
X166861682Y-74160244D02*
G75*
G02*
X167545000Y-74015000I683318J-1534756D01*
G01*
X167516195Y-74014747D02*
G75*
G02*
X168229000Y-74160000I28806J-1680254D01*
G01*
X168228042Y-77230427D02*
G75*
G02*
X166861000Y-77230000I-683041J1535420D01*
G01*
X169080427Y-75011958D02*
G75*
G02*
X169080000Y-76379000I-1535420J-683041D01*
G01*
X164145000Y-75695000D02*
G75*
G02*
X160785000Y-75695000I-1680000J0D01*
G01*
X160785000Y-75695000D02*
G75*
G02*
X164145000Y-75695000I1680000J0D01*
G01*
%TO.C,C8*%
X154057547Y-85858701D02*
X154580051Y-85858701D01*
X154057547Y-87328701D02*
X154580051Y-87328701D01*
D15*
%TO.C,U7*%
X148281300Y-101318700D02*
X148281300Y-101921005D01*
X148281300Y-102866393D02*
X148281300Y-103421007D01*
X148281300Y-104366395D02*
X148281300Y-104968700D01*
X148281300Y-104968700D02*
X148633605Y-104968700D01*
X148633605Y-101318700D02*
X148281300Y-101318700D01*
X151578995Y-104968700D02*
X151931300Y-104968700D01*
X151931300Y-101318700D02*
X151578995Y-101318700D01*
X151931300Y-101921005D02*
X151931300Y-101318700D01*
X151931300Y-103421007D02*
X151931300Y-102866393D01*
X151931300Y-104968700D02*
X151931300Y-104366395D01*
D16*
G36*
X150796799Y-100695757D02*
G01*
X150415799Y-100695757D01*
X150415799Y-100441757D01*
X150796799Y-100441757D01*
X150796799Y-100695757D01*
G37*
D13*
%TO.C,5V*%
X143290000Y-84250000D02*
X143290000Y-87110000D01*
X143290000Y-87110000D02*
X145210000Y-87110000D01*
X145210000Y-87110000D02*
X145210000Y-84250000D01*
%TO.C,servo10*%
X161240000Y-100140000D02*
X161240000Y-101390000D01*
X161540000Y-100440000D02*
X161540000Y-105160000D01*
X161540000Y-101750000D02*
X162150000Y-101750000D01*
X161540000Y-103050000D02*
X162150000Y-103050000D01*
X161540000Y-105160000D02*
X169660000Y-105160000D01*
X162150000Y-101050000D02*
X162150000Y-104550000D01*
X162150000Y-104550000D02*
X169050000Y-104550000D01*
X162490000Y-100140000D02*
X161240000Y-100140000D01*
X163000000Y-100240000D02*
X163000000Y-100440000D01*
X163300000Y-100240000D02*
X163000000Y-100240000D01*
X163300000Y-100340000D02*
X163000000Y-100340000D01*
X163300000Y-100440000D02*
X163300000Y-100240000D01*
X164100000Y-100440000D02*
X164100000Y-101050000D01*
X164100000Y-101050000D02*
X162150000Y-101050000D01*
X164500000Y-104050000D02*
X164700000Y-104050000D01*
X164500000Y-104550000D02*
X164500000Y-104050000D01*
X164600000Y-104550000D02*
X164600000Y-104050000D01*
X164700000Y-104050000D02*
X164700000Y-104550000D01*
X166500000Y-104050000D02*
X166700000Y-104050000D01*
X166500000Y-104550000D02*
X166500000Y-104050000D01*
X166600000Y-104550000D02*
X166600000Y-104050000D01*
X166700000Y-104050000D02*
X166700000Y-104550000D01*
X167100000Y-101050000D02*
X167100000Y-100440000D01*
X169050000Y-101050000D02*
X167100000Y-101050000D01*
X169050000Y-104550000D02*
X169050000Y-101050000D01*
X169660000Y-100440000D02*
X161540000Y-100440000D01*
X169660000Y-101750000D02*
X169050000Y-101750000D01*
X169660000Y-103050000D02*
X169050000Y-103050000D01*
X169660000Y-105160000D02*
X169660000Y-100440000D01*
%TO.C,C15*%
X121988748Y-113515000D02*
X122511252Y-113515000D01*
X121988748Y-114985000D02*
X122511252Y-114985000D01*
%TO.C,S2*%
X134570000Y-82980000D02*
X134570000Y-80380000D01*
X137230000Y-80380000D02*
X134570000Y-80380000D01*
X137230000Y-82980000D02*
X134570000Y-82980000D01*
X137230000Y-82980000D02*
X137230000Y-80380000D01*
X137230000Y-84250000D02*
X137230000Y-85580000D01*
X137230000Y-85580000D02*
X135900000Y-85580000D01*
%TO.C,servo3*%
X161240000Y-94540000D02*
X161240000Y-95790000D01*
X161540000Y-94840000D02*
X161540000Y-99560000D01*
X161540000Y-96150000D02*
X162150000Y-96150000D01*
X161540000Y-97450000D02*
X162150000Y-97450000D01*
X161540000Y-99560000D02*
X169660000Y-99560000D01*
X162150000Y-95450000D02*
X162150000Y-98950000D01*
X162150000Y-98950000D02*
X169050000Y-98950000D01*
X162490000Y-94540000D02*
X161240000Y-94540000D01*
X163000000Y-94640000D02*
X163000000Y-94840000D01*
X163300000Y-94640000D02*
X163000000Y-94640000D01*
X163300000Y-94740000D02*
X163000000Y-94740000D01*
X163300000Y-94840000D02*
X163300000Y-94640000D01*
X164100000Y-94840000D02*
X164100000Y-95450000D01*
X164100000Y-95450000D02*
X162150000Y-95450000D01*
X164500000Y-98450000D02*
X164700000Y-98450000D01*
X164500000Y-98950000D02*
X164500000Y-98450000D01*
X164600000Y-98950000D02*
X164600000Y-98450000D01*
X164700000Y-98450000D02*
X164700000Y-98950000D01*
X166500000Y-98450000D02*
X166700000Y-98450000D01*
X166500000Y-98950000D02*
X166500000Y-98450000D01*
X166600000Y-98950000D02*
X166600000Y-98450000D01*
X166700000Y-98450000D02*
X166700000Y-98950000D01*
X167100000Y-95450000D02*
X167100000Y-94840000D01*
X169050000Y-95450000D02*
X167100000Y-95450000D01*
X169050000Y-98950000D02*
X169050000Y-95450000D01*
X169660000Y-94840000D02*
X161540000Y-94840000D01*
X169660000Y-96150000D02*
X169050000Y-96150000D01*
X169660000Y-97450000D02*
X169050000Y-97450000D01*
X169660000Y-99560000D02*
X169660000Y-94840000D01*
%TO.C,R14*%
X150227064Y-107515000D02*
X149772936Y-107515000D01*
X150227064Y-108985000D02*
X149772936Y-108985000D01*
%TO.C,servo9*%
X170240000Y-88890000D02*
X170240000Y-90140000D01*
X170540000Y-89190000D02*
X170540000Y-93910000D01*
X170540000Y-90500000D02*
X171150000Y-90500000D01*
X170540000Y-91800000D02*
X171150000Y-91800000D01*
X170540000Y-93910000D02*
X178660000Y-93910000D01*
X171150000Y-89800000D02*
X171150000Y-93300000D01*
X171150000Y-93300000D02*
X178050000Y-93300000D01*
X171490000Y-88890000D02*
X170240000Y-88890000D01*
X172000000Y-88990000D02*
X172000000Y-89190000D01*
X172300000Y-88990000D02*
X172000000Y-88990000D01*
X172300000Y-89090000D02*
X172000000Y-89090000D01*
X172300000Y-89190000D02*
X172300000Y-88990000D01*
X173100000Y-89190000D02*
X173100000Y-89800000D01*
X173100000Y-89800000D02*
X171150000Y-89800000D01*
X173500000Y-92800000D02*
X173700000Y-92800000D01*
X173500000Y-93300000D02*
X173500000Y-92800000D01*
X173600000Y-93300000D02*
X173600000Y-92800000D01*
X173700000Y-92800000D02*
X173700000Y-93300000D01*
X175500000Y-92800000D02*
X175700000Y-92800000D01*
X175500000Y-93300000D02*
X175500000Y-92800000D01*
X175600000Y-93300000D02*
X175600000Y-92800000D01*
X175700000Y-92800000D02*
X175700000Y-93300000D01*
X176100000Y-89800000D02*
X176100000Y-89190000D01*
X178050000Y-89800000D02*
X176100000Y-89800000D01*
X178050000Y-93300000D02*
X178050000Y-89800000D01*
X178660000Y-89190000D02*
X170540000Y-89190000D01*
X178660000Y-90500000D02*
X178050000Y-90500000D01*
X178660000Y-91800000D02*
X178050000Y-91800000D01*
X178660000Y-93910000D02*
X178660000Y-89190000D01*
%TO.C,C19*%
X152923799Y-98744949D02*
X152923799Y-99267453D01*
X154393799Y-98744949D02*
X154393799Y-99267453D01*
%TO.C,button1*%
X105750000Y-111000000D02*
X105750000Y-115500000D01*
X108250000Y-116750000D02*
X109750000Y-116750000D01*
X109750000Y-109750000D02*
X108250000Y-109750000D01*
X112250000Y-115500000D02*
X112250000Y-111000000D01*
%TO.C,J2*%
X128840000Y-75670000D02*
X128840000Y-78330000D01*
X136520000Y-75670000D02*
X128840000Y-75670000D01*
X136520000Y-75670000D02*
X136520000Y-78330000D01*
X136520000Y-78330000D02*
X128840000Y-78330000D01*
X137790000Y-75670000D02*
X139120000Y-75670000D01*
X139120000Y-75670000D02*
X139120000Y-77000000D01*
%TO.C,S3*%
X131670000Y-83005000D02*
X131670000Y-80405000D01*
X134330000Y-80405000D02*
X131670000Y-80405000D01*
X134330000Y-83005000D02*
X131670000Y-83005000D01*
X134330000Y-83005000D02*
X134330000Y-80405000D01*
X134330000Y-84275000D02*
X134330000Y-85605000D01*
X134330000Y-85605000D02*
X133000000Y-85605000D01*
%TO.C,U5*%
X155456299Y-88583701D02*
X154656299Y-88583701D01*
X155456299Y-88583701D02*
X156256299Y-88583701D01*
X155456299Y-91703701D02*
X154656299Y-91703701D01*
X155456299Y-91703701D02*
X156256299Y-91703701D01*
X156996299Y-91983701D02*
X156516299Y-91983701D01*
X156756299Y-91653701D01*
X156996299Y-91983701D01*
G36*
X156996299Y-91983701D02*
G01*
X156516299Y-91983701D01*
X156756299Y-91653701D01*
X156996299Y-91983701D01*
G37*
%TO.C,C5*%
X119980002Y-73783750D02*
X119457498Y-73783750D01*
X119980002Y-75253750D02*
X119457498Y-75253750D01*
%TO.C,D3*%
X152814000Y-109605200D02*
X152814000Y-112465200D01*
X154734000Y-109605200D02*
X152814000Y-109605200D01*
X154734000Y-112465200D02*
X154734000Y-109605200D01*
%TO.C,C12*%
X149333799Y-91832449D02*
X149333799Y-92354953D01*
X150803799Y-91832449D02*
X150803799Y-92354953D01*
%TO.C,servo12*%
X161240000Y-88940000D02*
X161240000Y-90190000D01*
X161540000Y-89240000D02*
X161540000Y-93960000D01*
X161540000Y-90550000D02*
X162150000Y-90550000D01*
X161540000Y-91850000D02*
X162150000Y-91850000D01*
X161540000Y-93960000D02*
X169660000Y-93960000D01*
X162150000Y-89850000D02*
X162150000Y-93350000D01*
X162150000Y-93350000D02*
X169050000Y-93350000D01*
X162490000Y-88940000D02*
X161240000Y-88940000D01*
X163000000Y-89040000D02*
X163000000Y-89240000D01*
X163300000Y-89040000D02*
X163000000Y-89040000D01*
X163300000Y-89140000D02*
X163000000Y-89140000D01*
X163300000Y-89240000D02*
X163300000Y-89040000D01*
X164100000Y-89240000D02*
X164100000Y-89850000D01*
X164100000Y-89850000D02*
X162150000Y-89850000D01*
X164500000Y-92850000D02*
X164700000Y-92850000D01*
X164500000Y-93350000D02*
X164500000Y-92850000D01*
X164600000Y-93350000D02*
X164600000Y-92850000D01*
X164700000Y-92850000D02*
X164700000Y-93350000D01*
X166500000Y-92850000D02*
X166700000Y-92850000D01*
X166500000Y-93350000D02*
X166500000Y-92850000D01*
X166600000Y-93350000D02*
X166600000Y-92850000D01*
X166700000Y-92850000D02*
X166700000Y-93350000D01*
X167100000Y-89850000D02*
X167100000Y-89240000D01*
X169050000Y-89850000D02*
X167100000Y-89850000D01*
X169050000Y-93350000D02*
X169050000Y-89850000D01*
X169660000Y-89240000D02*
X161540000Y-89240000D01*
X169660000Y-90550000D02*
X169050000Y-90550000D01*
X169660000Y-91850000D02*
X169050000Y-91850000D01*
X169660000Y-93960000D02*
X169660000Y-89240000D01*
D15*
%TO.C,U8*%
X156051500Y-110389700D02*
X156051500Y-112040700D01*
X156051500Y-112040700D02*
X157090360Y-112040700D01*
X158042860Y-110389700D02*
X157362140Y-110389700D01*
X158314640Y-112040700D02*
X159353500Y-112040700D01*
X159353500Y-112040700D02*
X159353500Y-110389700D01*
X160623500Y-109894400D02*
G75*
G02*
X160369500Y-109894400I-127000J0D01*
G01*
X160369500Y-109894400D02*
G75*
G02*
X160623500Y-109894400I127000J0D01*
G01*
D13*
%TO.C,C4*%
X121280002Y-80783750D02*
X120757498Y-80783750D01*
X121280002Y-82253750D02*
X120757498Y-82253750D01*
D15*
%TO.C,U4*%
X118062250Y-76092251D02*
X118062250Y-76698509D01*
X118062250Y-79143991D02*
X118062250Y-79750249D01*
X118062250Y-79750249D02*
X118668320Y-79750249D01*
X118668320Y-76092251D02*
X118062250Y-76092251D01*
X121114178Y-79750249D02*
X121720248Y-79750249D01*
X121720248Y-76092251D02*
X121114178Y-76092251D01*
X121720248Y-76698509D02*
X121720248Y-76092251D01*
X121720248Y-79750249D02*
X121720248Y-79143991D01*
D16*
G36*
X117737250Y-77861751D02*
G01*
X117483250Y-77861751D01*
X117483250Y-77480750D01*
X117737250Y-77480750D01*
X117737250Y-77861751D01*
G37*
D13*
%TO.C,servo8*%
X170240000Y-111340000D02*
X170240000Y-112590000D01*
X170540000Y-111640000D02*
X170540000Y-116360000D01*
X170540000Y-112950000D02*
X171150000Y-112950000D01*
X170540000Y-114250000D02*
X171150000Y-114250000D01*
X170540000Y-116360000D02*
X178660000Y-116360000D01*
X171150000Y-112250000D02*
X171150000Y-115750000D01*
X171150000Y-115750000D02*
X178050000Y-115750000D01*
X171490000Y-111340000D02*
X170240000Y-111340000D01*
X172000000Y-111440000D02*
X172000000Y-111640000D01*
X172300000Y-111440000D02*
X172000000Y-111440000D01*
X172300000Y-111540000D02*
X172000000Y-111540000D01*
X172300000Y-111640000D02*
X172300000Y-111440000D01*
X173100000Y-111640000D02*
X173100000Y-112250000D01*
X173100000Y-112250000D02*
X171150000Y-112250000D01*
X173500000Y-115250000D02*
X173700000Y-115250000D01*
X173500000Y-115750000D02*
X173500000Y-115250000D01*
X173600000Y-115750000D02*
X173600000Y-115250000D01*
X173700000Y-115250000D02*
X173700000Y-115750000D01*
X175500000Y-115250000D02*
X175700000Y-115250000D01*
X175500000Y-115750000D02*
X175500000Y-115250000D01*
X175600000Y-115750000D02*
X175600000Y-115250000D01*
X175700000Y-115250000D02*
X175700000Y-115750000D01*
X176100000Y-112250000D02*
X176100000Y-111640000D01*
X178050000Y-112250000D02*
X176100000Y-112250000D01*
X178050000Y-115750000D02*
X178050000Y-112250000D01*
X178660000Y-111640000D02*
X170540000Y-111640000D01*
X178660000Y-112950000D02*
X178050000Y-112950000D01*
X178660000Y-114250000D02*
X178050000Y-114250000D01*
X178660000Y-116360000D02*
X178660000Y-111640000D01*
%TO.C,C10*%
X135663748Y-113215000D02*
X136186252Y-113215000D01*
X135663748Y-114685000D02*
X136186252Y-114685000D01*
%TO.C,C22*%
X145765000Y-104738748D02*
X145765000Y-105261252D01*
X147235000Y-104738748D02*
X147235000Y-105261252D01*
%TO.C,C1*%
X108761252Y-86765000D02*
X108238748Y-86765000D01*
X108761252Y-88235000D02*
X108238748Y-88235000D01*
%TO.C,C9*%
X107335000Y-80423752D02*
X107335000Y-79901248D01*
X105865000Y-80423752D02*
X105865000Y-79901248D01*
%TO.C,servo6*%
X161240000Y-83290000D02*
X161240000Y-84540000D01*
X161540000Y-83590000D02*
X161540000Y-88310000D01*
X161540000Y-84900000D02*
X162150000Y-84900000D01*
X161540000Y-86200000D02*
X162150000Y-86200000D01*
X161540000Y-88310000D02*
X169660000Y-88310000D01*
X162150000Y-84200000D02*
X162150000Y-87700000D01*
X162150000Y-87700000D02*
X169050000Y-87700000D01*
X162490000Y-83290000D02*
X161240000Y-83290000D01*
X163000000Y-83390000D02*
X163000000Y-83590000D01*
X163300000Y-83390000D02*
X163000000Y-83390000D01*
X163300000Y-83490000D02*
X163000000Y-83490000D01*
X163300000Y-83590000D02*
X163300000Y-83390000D01*
X164100000Y-83590000D02*
X164100000Y-84200000D01*
X164100000Y-84200000D02*
X162150000Y-84200000D01*
X164500000Y-87200000D02*
X164700000Y-87200000D01*
X164500000Y-87700000D02*
X164500000Y-87200000D01*
X164600000Y-87700000D02*
X164600000Y-87200000D01*
X164700000Y-87200000D02*
X164700000Y-87700000D01*
X166500000Y-87200000D02*
X166700000Y-87200000D01*
X166500000Y-87700000D02*
X166500000Y-87200000D01*
X166600000Y-87700000D02*
X166600000Y-87200000D01*
X166700000Y-87200000D02*
X166700000Y-87700000D01*
X167100000Y-84200000D02*
X167100000Y-83590000D01*
X169050000Y-84200000D02*
X167100000Y-84200000D01*
X169050000Y-87700000D02*
X169050000Y-84200000D01*
X169660000Y-83590000D02*
X161540000Y-83590000D01*
X169660000Y-84900000D02*
X169050000Y-84900000D01*
X169660000Y-86200000D02*
X169050000Y-86200000D01*
X169660000Y-88310000D02*
X169660000Y-83590000D01*
%TO.C,servo7*%
X170240000Y-105690000D02*
X170240000Y-106940000D01*
X170540000Y-105990000D02*
X170540000Y-110710000D01*
X170540000Y-107300000D02*
X171150000Y-107300000D01*
X170540000Y-108600000D02*
X171150000Y-108600000D01*
X170540000Y-110710000D02*
X178660000Y-110710000D01*
X171150000Y-106600000D02*
X171150000Y-110100000D01*
X171150000Y-110100000D02*
X178050000Y-110100000D01*
X171490000Y-105690000D02*
X170240000Y-105690000D01*
X172000000Y-105790000D02*
X172000000Y-105990000D01*
X172300000Y-105790000D02*
X172000000Y-105790000D01*
X172300000Y-105890000D02*
X172000000Y-105890000D01*
X172300000Y-105990000D02*
X172300000Y-105790000D01*
X173100000Y-105990000D02*
X173100000Y-106600000D01*
X173100000Y-106600000D02*
X171150000Y-106600000D01*
X173500000Y-109600000D02*
X173700000Y-109600000D01*
X173500000Y-110100000D02*
X173500000Y-109600000D01*
X173600000Y-110100000D02*
X173600000Y-109600000D01*
X173700000Y-109600000D02*
X173700000Y-110100000D01*
X175500000Y-109600000D02*
X175700000Y-109600000D01*
X175500000Y-110100000D02*
X175500000Y-109600000D01*
X175600000Y-110100000D02*
X175600000Y-109600000D01*
X175700000Y-109600000D02*
X175700000Y-110100000D01*
X176100000Y-106600000D02*
X176100000Y-105990000D01*
X178050000Y-106600000D02*
X176100000Y-106600000D01*
X178050000Y-110100000D02*
X178050000Y-106600000D01*
X178660000Y-105990000D02*
X170540000Y-105990000D01*
X178660000Y-107300000D02*
X178050000Y-107300000D01*
X178660000Y-108600000D02*
X178050000Y-108600000D01*
X178660000Y-110710000D02*
X178660000Y-105990000D01*
%TO.C,GND1*%
X140170000Y-72340000D02*
X141500000Y-72340000D01*
X140170000Y-73670000D02*
X140170000Y-72340000D01*
X140170000Y-74940000D02*
X140170000Y-80080000D01*
X140170000Y-74940000D02*
X142830000Y-74940000D01*
X140170000Y-80080000D02*
X142830000Y-80080000D01*
X142830000Y-74940000D02*
X142830000Y-80080000D01*
%TD*%
M02*
