%TF.GenerationSoftware,KiCad,Pcbnew,8.0.7*%
%TF.CreationDate,2024-12-25T21:29:49+07:00*%
%TF.ProjectId,Morphex-PCB,4d6f7270-6865-4782-9d50-43422e6b6963,rev?*%
%TF.SameCoordinates,Original*%
%TF.FileFunction,Copper,L1,Top*%
%TF.FilePolarity,Positive*%
%FSLAX46Y46*%
G04 Gerber Fmt 4.6, Leading zero omitted, Abs format (unit mm)*
G04 Created by KiCad (PCBNEW 8.0.7) date 2024-12-25 21:29:49*
%MOMM*%
%LPD*%
G01*
G04 APERTURE LIST*
G04 Aperture macros list*
%AMRoundRect*
0 Rectangle with rounded corners*
0 $1 Rounding radius*
0 $2 $3 $4 $5 $6 $7 $8 $9 X,Y pos of 4 corners*
0 Add a 4 corners polygon primitive as box body*
4,1,4,$2,$3,$4,$5,$6,$7,$8,$9,$2,$3,0*
0 Add four circle primitives for the rounded corners*
1,1,$1+$1,$2,$3*
1,1,$1+$1,$4,$5*
1,1,$1+$1,$6,$7*
1,1,$1+$1,$8,$9*
0 Add four rect primitives between the rounded corners*
20,1,$1+$1,$2,$3,$4,$5,0*
20,1,$1+$1,$4,$5,$6,$7,0*
20,1,$1+$1,$6,$7,$8,$9,0*
20,1,$1+$1,$8,$9,$2,$3,0*%
G04 Aperture macros list end*
%TA.AperFunction,ComponentPad*%
%ADD10RoundRect,0.250000X0.625000X-0.350000X0.625000X0.350000X-0.625000X0.350000X-0.625000X-0.350000X0*%
%TD*%
%TA.AperFunction,ComponentPad*%
%ADD11O,1.750000X1.200000*%
%TD*%
%TA.AperFunction,SMDPad,CuDef*%
%ADD12RoundRect,0.250000X0.337500X0.475000X-0.337500X0.475000X-0.337500X-0.475000X0.337500X-0.475000X0*%
%TD*%
%TA.AperFunction,ComponentPad*%
%ADD13R,1.700000X1.700000*%
%TD*%
%TA.AperFunction,ComponentPad*%
%ADD14O,1.700000X1.700000*%
%TD*%
%TA.AperFunction,ComponentPad*%
%ADD15C,1.700000*%
%TD*%
%TA.AperFunction,SMDPad,CuDef*%
%ADD16R,0.850000X0.300000*%
%TD*%
%TA.AperFunction,SMDPad,CuDef*%
%ADD17RoundRect,0.250000X-0.475000X0.337500X-0.475000X-0.337500X0.475000X-0.337500X0.475000X0.337500X0*%
%TD*%
%TA.AperFunction,SMDPad,CuDef*%
%ADD18RoundRect,0.250000X-0.337500X-0.475000X0.337500X-0.475000X0.337500X0.475000X-0.337500X0.475000X0*%
%TD*%
%TA.AperFunction,SMDPad,CuDef*%
%ADD19RoundRect,0.250000X0.475000X-0.337500X0.475000X0.337500X-0.475000X0.337500X-0.475000X-0.337500X0*%
%TD*%
%TA.AperFunction,ComponentPad*%
%ADD20R,2.600000X2.600000*%
%TD*%
%TA.AperFunction,ComponentPad*%
%ADD21C,2.600000*%
%TD*%
%TA.AperFunction,SMDPad,CuDef*%
%ADD22R,0.939800X2.489200*%
%TD*%
%TA.AperFunction,SMDPad,CuDef*%
%ADD23R,5.562600X6.299200*%
%TD*%
%TA.AperFunction,SMDPad,CuDef*%
%ADD24RoundRect,0.237500X-0.237500X0.250000X-0.237500X-0.250000X0.237500X-0.250000X0.237500X0.250000X0*%
%TD*%
%TA.AperFunction,SMDPad,CuDef*%
%ADD25RoundRect,0.237500X-0.250000X-0.237500X0.250000X-0.237500X0.250000X0.237500X-0.250000X0.237500X0*%
%TD*%
%TA.AperFunction,ComponentPad*%
%ADD26C,2.000000*%
%TD*%
%TA.AperFunction,SMDPad,CuDef*%
%ADD27R,0.675000X0.254000*%
%TD*%
%TA.AperFunction,SMDPad,CuDef*%
%ADD28R,0.254000X0.675000*%
%TD*%
%TA.AperFunction,SMDPad,CuDef*%
%ADD29RoundRect,0.237500X-0.237500X0.300000X-0.237500X-0.300000X0.237500X-0.300000X0.237500X0.300000X0*%
%TD*%
%TA.AperFunction,SMDPad,CuDef*%
%ADD30R,1.475000X0.450000*%
%TD*%
%TA.AperFunction,SMDPad,CuDef*%
%ADD31RoundRect,0.237500X0.250000X0.237500X-0.250000X0.237500X-0.250000X-0.237500X0.250000X-0.237500X0*%
%TD*%
%TA.AperFunction,ComponentPad*%
%ADD32C,1.308000*%
%TD*%
%TA.AperFunction,ComponentPad*%
%ADD33C,1.258000*%
%TD*%
%TA.AperFunction,ComponentPad*%
%ADD34C,1.208000*%
%TD*%
%TA.AperFunction,ViaPad*%
%ADD35C,0.500000*%
%TD*%
%TA.AperFunction,ViaPad*%
%ADD36C,0.600000*%
%TD*%
%TA.AperFunction,ViaPad*%
%ADD37C,0.700000*%
%TD*%
%TA.AperFunction,Conductor*%
%ADD38C,0.300000*%
%TD*%
%TA.AperFunction,Conductor*%
%ADD39C,1.500000*%
%TD*%
%TA.AperFunction,Conductor*%
%ADD40C,0.600000*%
%TD*%
%TA.AperFunction,Conductor*%
%ADD41C,0.500000*%
%TD*%
%TA.AperFunction,Conductor*%
%ADD42C,1.000000*%
%TD*%
%TA.AperFunction,Conductor*%
%ADD43C,0.700000*%
%TD*%
G04 APERTURE END LIST*
D10*
%TO.P,servo11,1,Pin_1*%
%TO.N,VCC*%
X173000000Y-127250000D03*
D11*
%TO.P,servo11,2,Pin_2*%
%TO.N,GND*%
X173000000Y-125250000D03*
%TO.P,servo11,3,Pin_3*%
%TO.N,/from_servo*%
X173000000Y-123250000D03*
%TD*%
D12*
%TO.P,C6,1*%
%TO.N,GND*%
X179537500Y-104750000D03*
%TO.P,C6,2*%
%TO.N,+3.3V*%
X177462500Y-104750000D03*
%TD*%
D10*
%TO.P,servo2,1,Pin_1*%
%TO.N,VCC*%
X173000000Y-117250000D03*
D11*
%TO.P,servo2,2,Pin_2*%
%TO.N,GND*%
X173000000Y-115250000D03*
%TO.P,servo2,3,Pin_3*%
%TO.N,/from_servo*%
X173000000Y-113250000D03*
%TD*%
D13*
%TO.P,3.3V,1,Pin_1*%
%TO.N,+3.3V*%
X185120000Y-85000000D03*
D14*
%TO.P,3.3V,2,Pin_2*%
X187660000Y-85000000D03*
%TO.P,3.3V,3,Pin_3*%
X190200000Y-85000000D03*
%TD*%
D13*
%TO.P,U2,1,GND*%
%TO.N,GND*%
X154040000Y-87120000D03*
D15*
%TO.P,U2,2,VCC*%
%TO.N,+3.3V*%
X151500000Y-87120000D03*
%TO.P,U2,3,CE*%
%TO.N,/NRF_CE*%
X154040000Y-84580000D03*
%TO.P,U2,4,~{CSN}*%
%TO.N,/NRF_CS*%
X151500000Y-84580000D03*
%TO.P,U2,5,SCK*%
%TO.N,/NRF_SCK*%
X154040000Y-82040000D03*
%TO.P,U2,6,MOSI*%
%TO.N,/NRF_MOSI*%
X151500000Y-82040000D03*
%TO.P,U2,7,MISO*%
%TO.N,/NRF_MISO*%
X154040000Y-79500000D03*
%TO.P,U2,8,IRQ*%
%TO.N,unconnected-(U2-IRQ-Pad8)*%
X151500000Y-79500000D03*
%TD*%
D16*
%TO.P,IC2,1,~{OE}*%
%TO.N,Net-(IC1-B1)*%
X156825000Y-99000000D03*
%TO.P,IC2,2,A1*%
%TO.N,Net-(IC1-B3)*%
X156825000Y-98500000D03*
%TO.P,IC2,3,Y2*%
%TO.N,Net-(IC1-B2)*%
X156825000Y-98000000D03*
%TO.P,IC2,4,GND*%
%TO.N,GND*%
X156825000Y-97500000D03*
%TO.P,IC2,5,A2*%
%TO.N,/from_servo*%
X153675000Y-97500000D03*
%TO.P,IC2,6,Y1*%
X153675000Y-98000000D03*
%TO.P,IC2,7,OE*%
%TO.N,Net-(IC1-B1)*%
X153675000Y-98500000D03*
%TO.P,IC2,8,VCC*%
%TO.N,+5V*%
X153675000Y-99000000D03*
%TD*%
D13*
%TO.P,J2,1,Pin_1*%
%TO.N,/tx2*%
X161900000Y-83460000D03*
D14*
%TO.P,J2,2,Pin_2*%
%TO.N,/rx2*%
X161900000Y-86000000D03*
%TD*%
D10*
%TO.P,servo6,1,Pin_1*%
%TO.N,VCC*%
X150500000Y-117250000D03*
D11*
%TO.P,servo6,2,Pin_2*%
%TO.N,GND*%
X150500000Y-115250000D03*
%TO.P,servo6,3,Pin_3*%
%TO.N,/from_servo*%
X150500000Y-113250000D03*
%TD*%
D10*
%TO.P,servo13,1,Pin_1*%
%TO.N,VCC*%
X135500000Y-117250000D03*
D11*
%TO.P,servo13,2,Pin_2*%
%TO.N,GND*%
X135500000Y-115250000D03*
%TO.P,servo13,3,Pin_3*%
%TO.N,/from_servo*%
X135500000Y-113250000D03*
%TD*%
D17*
%TO.P,C3,1*%
%TO.N,GND*%
X148200000Y-85362500D03*
%TO.P,C3,2*%
%TO.N,+3.3V*%
X148200000Y-87437500D03*
%TD*%
D10*
%TO.P,servo10,1,Pin_1*%
%TO.N,VCC*%
X143000000Y-127250000D03*
D11*
%TO.P,servo10,2,Pin_2*%
%TO.N,GND*%
X143000000Y-125250000D03*
%TO.P,servo10,3,Pin_3*%
%TO.N,/from_servo*%
X143000000Y-123250000D03*
%TD*%
D18*
%TO.P,C2,1*%
%TO.N,+5V*%
X120675000Y-86750000D03*
%TO.P,C2,2*%
%TO.N,GND*%
X122750000Y-86750000D03*
%TD*%
D19*
%TO.P,C7,1*%
%TO.N,+3.3V*%
X171750000Y-103287500D03*
%TO.P,C7,2*%
%TO.N,GND*%
X171750000Y-101212500D03*
%TD*%
D13*
%TO.P,J5,1,Pin_1*%
%TO.N,/tx8*%
X170150000Y-83460000D03*
D14*
%TO.P,J5,2,Pin_2*%
%TO.N,/rx8*%
X170150000Y-86000000D03*
%TD*%
D20*
%TO.P,Main Terminal,1,Pin_1*%
%TO.N,VCC*%
X124445000Y-113205000D03*
D21*
%TO.P,Main Terminal,2,Pin_2*%
%TO.N,GND*%
X124445000Y-118285000D03*
%TD*%
D22*
%TO.P,33R,1,INPUT*%
%TO.N,VCC*%
X190786000Y-108861900D03*
%TO.P,33R,2,OUTPUT*%
%TO.N,+3.3V*%
X186214000Y-108861900D03*
D23*
%TO.P,33R,3,GROUND*%
%TO.N,GND*%
X188500000Y-117015300D03*
%TD*%
D24*
%TO.P,R4,1*%
%TO.N,Net-(R4-Pad1)*%
X184200000Y-79487500D03*
%TO.P,R4,2*%
%TO.N,GND*%
X184200000Y-81312500D03*
%TD*%
D25*
%TO.P,R1,1*%
%TO.N,+3.3V*%
X142087500Y-105250000D03*
%TO.P,R1,2*%
%TO.N,Net-(IC1-OE)*%
X143912500Y-105250000D03*
%TD*%
D13*
%TO.P,J4,1,Pin_1*%
%TO.N,/ctx3*%
X167400000Y-83460000D03*
D14*
%TO.P,J4,2,Pin_2*%
%TO.N,/crx3*%
X167400000Y-86000000D03*
%TD*%
D10*
%TO.P,servo5,1,Pin_1*%
%TO.N,VCC*%
X150500000Y-127250000D03*
D11*
%TO.P,servo5,2,Pin_2*%
%TO.N,GND*%
X150500000Y-125250000D03*
%TO.P,servo5,3,Pin_3*%
%TO.N,/from_servo*%
X150500000Y-123250000D03*
%TD*%
D10*
%TO.P,servo8,1,Pin_1*%
%TO.N,VCC*%
X165500000Y-127250000D03*
D11*
%TO.P,servo8,2,Pin_2*%
%TO.N,GND*%
X165500000Y-125250000D03*
%TO.P,servo8,3,Pin_3*%
%TO.N,/from_servo*%
X165500000Y-123250000D03*
%TD*%
D10*
%TO.P,servo3,1,Pin_1*%
%TO.N,VCC*%
X180200000Y-122250000D03*
D11*
%TO.P,servo3,2,Pin_2*%
%TO.N,GND*%
X180200000Y-120250000D03*
%TO.P,servo3,3,Pin_3*%
%TO.N,/from_servo*%
X180200000Y-118250000D03*
%TD*%
D17*
%TO.P,C4,1*%
%TO.N,+3.3V*%
X140000000Y-103212500D03*
%TO.P,C4,2*%
%TO.N,GND*%
X140000000Y-105287500D03*
%TD*%
D13*
%TO.P,J3,1,Pin_1*%
%TO.N,/tx7*%
X164650000Y-83460000D03*
D14*
%TO.P,J3,2,Pin_2*%
%TO.N,/rx7*%
X164650000Y-86000000D03*
%TD*%
D18*
%TO.P,C5,1*%
%TO.N,+5V*%
X146962500Y-94800000D03*
%TO.P,C5,2*%
%TO.N,GND*%
X149037500Y-94800000D03*
%TD*%
D24*
%TO.P,R3,1*%
%TO.N,+3.3V*%
X182000000Y-96587500D03*
%TO.P,R3,2*%
%TO.N,/BNO_RESET*%
X182000000Y-98412500D03*
%TD*%
D10*
%TO.P,servo7,1,Pin_1*%
%TO.N,VCC*%
X165500000Y-117250000D03*
D11*
%TO.P,servo7,2,Pin_2*%
%TO.N,GND*%
X165500000Y-115250000D03*
%TO.P,servo7,3,Pin_3*%
%TO.N,/from_servo*%
X165500000Y-113250000D03*
%TD*%
D26*
%TO.P,SW1,1,1*%
%TO.N,/BUTTON_PIN*%
X176750000Y-81250000D03*
X176750000Y-74750000D03*
%TO.P,SW1,2,2*%
%TO.N,Net-(R4-Pad1)*%
X181250000Y-81250000D03*
X181250000Y-74750000D03*
%TD*%
D10*
%TO.P,servo12,1,Pin_1*%
%TO.N,VCC*%
X158000000Y-127250000D03*
D11*
%TO.P,servo12,2,Pin_2*%
%TO.N,GND*%
X158000000Y-125250000D03*
%TO.P,servo12,3,Pin_3*%
%TO.N,/from_servo*%
X158000000Y-123250000D03*
%TD*%
D27*
%TO.P,U3,1,PIN1*%
%TO.N,unconnected-(U3-PIN1-Pad1)*%
X176250000Y-101750000D03*
D28*
%TO.P,U3,2,GND*%
%TO.N,GND*%
X177162500Y-101887500D03*
%TO.P,U3,3,VDD*%
%TO.N,+3.3V*%
X177662500Y-101887500D03*
%TO.P,U3,4,~{BOOT_LOAD_PIN}*%
%TO.N,Net-(U3-~{BOOT_LOAD_PIN})*%
X178162500Y-101887500D03*
%TO.P,U3,5,PS1*%
%TO.N,GND*%
X178662500Y-101887500D03*
D27*
%TO.P,U3,6,PS0*%
X179575000Y-101750000D03*
%TO.P,U3,7,PIN7*%
%TO.N,unconnected-(U3-PIN7-Pad7)*%
X179575000Y-101250000D03*
%TO.P,U3,8,PIN8*%
%TO.N,unconnected-(U3-PIN8-Pad8)*%
X179575000Y-100750000D03*
%TO.P,U3,9,CAP*%
%TO.N,Net-(U3-CAP)*%
X179575000Y-100250000D03*
%TO.P,U3,10,BL_IND*%
%TO.N,unconnected-(U3-BL_IND-Pad10)*%
X179575000Y-99750000D03*
%TO.P,U3,11,~{RESET}*%
%TO.N,/BNO_RESET*%
X179575000Y-99250000D03*
%TO.P,U3,12,PIN12*%
%TO.N,unconnected-(U3-PIN12-Pad12)*%
X179575000Y-98750000D03*
%TO.P,U3,13,PIN13*%
%TO.N,unconnected-(U3-PIN13-Pad13)*%
X179575000Y-98250000D03*
%TO.P,U3,14,INT*%
%TO.N,/BNO_INT*%
X179575000Y-97750000D03*
%TO.P,U3,15,GNDIO*%
%TO.N,GND*%
X179575000Y-97250000D03*
D28*
%TO.P,U3,16,GNDIO*%
X178662500Y-97112500D03*
%TO.P,U3,17,COM3*%
X178162500Y-97112500D03*
%TO.P,U3,18,COM2*%
X177662500Y-97112500D03*
%TO.P,U3,19,COM1*%
%TO.N,/SCL*%
X177162500Y-97112500D03*
D27*
%TO.P,U3,20,COM0*%
%TO.N,/SDA*%
X176250000Y-97250000D03*
%TO.P,U3,21,PIN21*%
%TO.N,unconnected-(U3-PIN21-Pad21)*%
X176250000Y-97750000D03*
%TO.P,U3,22,PIN22*%
%TO.N,unconnected-(U3-PIN22-Pad22)*%
X176250000Y-98250000D03*
%TO.P,U3,23,PIN23*%
%TO.N,unconnected-(U3-PIN23-Pad23)*%
X176250000Y-98750000D03*
%TO.P,U3,24,PIN24*%
%TO.N,unconnected-(U3-PIN24-Pad24)*%
X176250000Y-99250000D03*
%TO.P,U3,25,GNDIO*%
%TO.N,GND*%
X176250000Y-99750000D03*
%TO.P,U3,26,XOUT32*%
%TO.N,unconnected-(U3-XOUT32-Pad26)*%
X176250000Y-100250000D03*
%TO.P,U3,27,XIN32*%
%TO.N,unconnected-(U3-XIN32-Pad27)*%
X176250000Y-100750000D03*
%TO.P,U3,28,VDDIO*%
%TO.N,+3.3V*%
X176250000Y-101250000D03*
%TD*%
D10*
%TO.P,servo9,1,Pin_1*%
%TO.N,VCC*%
X135500000Y-127250000D03*
D11*
%TO.P,servo9,2,Pin_2*%
%TO.N,GND*%
X135500000Y-125250000D03*
%TO.P,servo9,3,Pin_3*%
%TO.N,/from_servo*%
X135500000Y-123250000D03*
%TD*%
D19*
%TO.P,C9,1*%
%TO.N,GND*%
X182000000Y-104637500D03*
%TO.P,C9,2*%
%TO.N,Net-(U3-CAP)*%
X182000000Y-102562500D03*
%TD*%
D22*
%TO.P,50R,1,INPUT*%
%TO.N,VCC*%
X190786000Y-94096600D03*
%TO.P,50R,2,OUTPUT*%
%TO.N,+5V*%
X186214000Y-94096600D03*
D23*
%TO.P,50R,3,GROUND*%
%TO.N,GND*%
X188500000Y-102250000D03*
%TD*%
D29*
%TO.P,C8,1*%
%TO.N,GND*%
X174000000Y-101775000D03*
%TO.P,C8,2*%
%TO.N,+3.3V*%
X174000000Y-103500000D03*
%TD*%
D30*
%TO.P,IC1,1,A1*%
%TO.N,/servo_dir*%
X142874000Y-97325000D03*
%TO.P,IC1,2,VCCA*%
%TO.N,+3.3V*%
X142874000Y-97975000D03*
%TO.P,IC1,3,A2*%
%TO.N,/servo_rx1*%
X142874000Y-98625000D03*
%TO.P,IC1,4,A3*%
%TO.N,/servo_tx1*%
X142874000Y-99275000D03*
%TO.P,IC1,5,A4*%
%TO.N,unconnected-(IC1-A4-Pad5)*%
X142874000Y-99925000D03*
%TO.P,IC1,6,A5*%
%TO.N,unconnected-(IC1-A5-Pad6)*%
X142874000Y-100575000D03*
%TO.P,IC1,7,A6*%
%TO.N,unconnected-(IC1-A6-Pad7)*%
X142874000Y-101225000D03*
%TO.P,IC1,8,A7*%
%TO.N,unconnected-(IC1-A7-Pad8)*%
X142874000Y-101875000D03*
%TO.P,IC1,9,A8*%
%TO.N,unconnected-(IC1-A8-Pad9)*%
X142874000Y-102525000D03*
%TO.P,IC1,10,OE*%
%TO.N,Net-(IC1-OE)*%
X142874000Y-103175000D03*
%TO.P,IC1,11,GND*%
%TO.N,GND*%
X148750000Y-103175000D03*
%TO.P,IC1,12,B8*%
%TO.N,unconnected-(IC1-B8-Pad12)*%
X148750000Y-102525000D03*
%TO.P,IC1,13,B7*%
%TO.N,unconnected-(IC1-B7-Pad13)*%
X148750000Y-101875000D03*
%TO.P,IC1,14,B6*%
%TO.N,unconnected-(IC1-B6-Pad14)*%
X148750000Y-101225000D03*
%TO.P,IC1,15,B5*%
%TO.N,unconnected-(IC1-B5-Pad15)*%
X148750000Y-100575000D03*
%TO.P,IC1,16,B4*%
%TO.N,unconnected-(IC1-B4-Pad16)*%
X148750000Y-99925000D03*
%TO.P,IC1,17,B3*%
%TO.N,Net-(IC1-B3)*%
X148750000Y-99275000D03*
%TO.P,IC1,18,B2*%
%TO.N,Net-(IC1-B2)*%
X148750000Y-98625000D03*
%TO.P,IC1,19,VCCB*%
%TO.N,+5V*%
X148750000Y-97975000D03*
%TO.P,IC1,20,B1*%
%TO.N,Net-(IC1-B1)*%
X148750000Y-97325000D03*
%TD*%
D31*
%TO.P,R2,1*%
%TO.N,+3.3V*%
X179112500Y-95200000D03*
%TO.P,R2,2*%
%TO.N,Net-(U3-~{BOOT_LOAD_PIN})*%
X177287500Y-95200000D03*
%TD*%
D18*
%TO.P,C1,1*%
%TO.N,+5V*%
X120675000Y-83740000D03*
%TO.P,C1,2*%
%TO.N,GND*%
X122750000Y-83740000D03*
%TD*%
D10*
%TO.P,servo4,1,Pin_1*%
%TO.N,VCC*%
X143000000Y-117250000D03*
D11*
%TO.P,servo4,2,Pin_2*%
%TO.N,GND*%
X143000000Y-115250000D03*
%TO.P,servo4,3,Pin_3*%
%TO.N,/from_servo*%
X143000000Y-113250000D03*
%TD*%
D13*
%TO.P,5V,1,Pin_1*%
%TO.N,+5V*%
X185120000Y-89650000D03*
D14*
%TO.P,5V,2,Pin_2*%
X187660000Y-89650000D03*
%TO.P,5V,3,Pin_3*%
X190200000Y-89650000D03*
%TD*%
D10*
%TO.P,servo1,1,Pin_1*%
%TO.N,VCC*%
X158000000Y-117250000D03*
D11*
%TO.P,servo1,2,Pin_2*%
%TO.N,GND*%
X158000000Y-115250000D03*
%TO.P,servo1,3,Pin_3*%
%TO.N,/from_servo*%
X158000000Y-113250000D03*
%TD*%
D32*
%TO.P,U1,0,RX1*%
%TO.N,/servo_rx1*%
X123180000Y-107352500D03*
%TO.P,U1,1,TX1*%
%TO.N,/servo_tx1*%
X125720000Y-107352500D03*
%TO.P,U1,2,OUT2*%
%TO.N,unconnected-(U1-OUT2-Pad2)*%
X128260000Y-107352500D03*
%TO.P,U1,3,LRCLK2*%
%TO.N,unconnected-(U1-LRCLK2-Pad3)*%
X130800000Y-107352500D03*
%TO.P,U1,3.3V_1,3.3V*%
%TO.N,Net-(U1-3.3V-Pad3.3V_1)*%
X156200000Y-107352500D03*
%TO.P,U1,3.3V_2,3.3V*%
X125720000Y-92112500D03*
%TO.P,U1,3.3V_3,3.3V*%
X166360000Y-102272500D03*
%TO.P,U1,4,BCLK2*%
%TO.N,unconnected-(U1-BCLK2-Pad4)*%
X133340000Y-107352500D03*
%TO.P,U1,5,IN2*%
%TO.N,unconnected-(U1-IN2-Pad5)*%
X135880000Y-107352500D03*
D33*
%TO.P,U1,5V,5V*%
%TO.N,unconnected-(U1-Pad5V)*%
X126990000Y-104302500D03*
D32*
%TO.P,U1,6,OUT1D*%
%TO.N,unconnected-(U1-OUT1D-Pad6)*%
X138420000Y-107352500D03*
%TO.P,U1,7,RX2*%
%TO.N,/rx2*%
X140960000Y-107352500D03*
%TO.P,U1,8,TX2*%
%TO.N,/tx2*%
X143500000Y-107352500D03*
%TO.P,U1,9,OUT1C*%
%TO.N,unconnected-(U1-OUT1C-Pad9)*%
X146040000Y-107352500D03*
%TO.P,U1,10,CS1*%
%TO.N,/NRF_CS*%
X148580000Y-107352500D03*
%TO.P,U1,11,MOSI*%
%TO.N,/NRF_MOSI*%
X151120000Y-107352500D03*
%TO.P,U1,12,MISO*%
%TO.N,/NRF_MISO*%
X153660000Y-107352500D03*
%TO.P,U1,13,SCK*%
%TO.N,/NRF_SCK*%
X153660000Y-92112500D03*
%TO.P,U1,14,A0*%
%TO.N,/BNO_RESET*%
X151120000Y-92112500D03*
%TO.P,U1,15,A1*%
%TO.N,/BNO_INT*%
X148580000Y-92112500D03*
%TO.P,U1,16,A2*%
%TO.N,unconnected-(U1-A2-Pad16)*%
X146040000Y-92112500D03*
%TO.P,U1,17,A3*%
%TO.N,unconnected-(U1-A3-Pad17)*%
X143500000Y-92112500D03*
%TO.P,U1,18,A4*%
%TO.N,/SDA*%
X140960000Y-92112500D03*
%TO.P,U1,19,A5*%
%TO.N,/SCL*%
X138420000Y-92112500D03*
%TO.P,U1,20,A6*%
%TO.N,unconnected-(U1-A6-Pad20)*%
X135880000Y-92112500D03*
%TO.P,U1,21,A7*%
%TO.N,unconnected-(U1-A7-Pad21)*%
X133340000Y-92112500D03*
%TO.P,U1,22,A8*%
%TO.N,unconnected-(U1-A8-Pad22)*%
X130800000Y-92112500D03*
%TO.P,U1,23,A9*%
%TO.N,unconnected-(U1-A9-Pad23)*%
X128260000Y-92112500D03*
%TO.P,U1,24,A10*%
%TO.N,unconnected-(U1-A10-Pad24)*%
X158740000Y-107352500D03*
%TO.P,U1,25,A11*%
%TO.N,unconnected-(U1-A11-Pad25)*%
X161280000Y-107352500D03*
%TO.P,U1,26,A12*%
%TO.N,unconnected-(U1-A12-Pad26)*%
X163820000Y-107352500D03*
%TO.P,U1,27,A13*%
%TO.N,unconnected-(U1-A13-Pad27)*%
X166360000Y-107352500D03*
%TO.P,U1,28,RX7*%
%TO.N,/rx7*%
X168900000Y-107352500D03*
%TO.P,U1,29,TX7*%
%TO.N,/tx7*%
X171440000Y-107352500D03*
%TO.P,U1,30,CRX3*%
%TO.N,/crx3*%
X173980000Y-107352500D03*
%TO.P,U1,31,CTX3*%
%TO.N,/ctx3*%
X176520000Y-107352500D03*
%TO.P,U1,32,OUT1B*%
%TO.N,unconnected-(U1-OUT1B-Pad32)*%
X179060000Y-107352500D03*
%TO.P,U1,33,MCLK2*%
%TO.N,unconnected-(U1-MCLK2-Pad33)*%
X179060000Y-92112500D03*
%TO.P,U1,34,RX8*%
%TO.N,/rx8*%
X176520000Y-92112500D03*
%TO.P,U1,35,TX8*%
%TO.N,/tx8*%
X173980000Y-92112500D03*
%TO.P,U1,36,CS2*%
%TO.N,unconnected-(U1-CS2-Pad36)*%
X171440000Y-92112500D03*
%TO.P,U1,37,CS3*%
%TO.N,/BUTTON_PIN*%
X168900000Y-92112500D03*
%TO.P,U1,38,A14*%
%TO.N,unconnected-(U1-A14-Pad38)*%
X166360000Y-92112500D03*
%TO.P,U1,39,A15*%
%TO.N,unconnected-(U1-A15-Pad39)*%
X163820000Y-92112500D03*
%TO.P,U1,40,A16*%
%TO.N,/NRF_CE*%
X161280000Y-92112500D03*
%TO.P,U1,41,A17*%
%TO.N,/servo_dir*%
X158740000Y-92112500D03*
D33*
%TO.P,U1,D+,D+*%
%TO.N,unconnected-(U1-PadD+)*%
X132070000Y-104302500D03*
%TO.P,U1,D-,D-*%
%TO.N,unconnected-(U1-PadD-)*%
X129530000Y-104302500D03*
D32*
%TO.P,U1,GND1,GND*%
%TO.N,GND*%
X120640000Y-107352500D03*
%TO.P,U1,GND2,GND*%
X156200000Y-92112500D03*
%TO.P,U1,GND3,GND*%
X123180000Y-92112500D03*
%TO.P,U1,GND4,GND*%
X166360000Y-99732500D03*
D34*
%TO.P,U1,GND5,GND*%
X135610000Y-96562500D03*
%TO.P,U1,LED,LED*%
%TO.N,unconnected-(U1-PadLED)*%
X133610000Y-96562500D03*
D32*
%TO.P,U1,ON/OFF,ON/OFF*%
%TO.N,unconnected-(U1-PadON{slash}OFF)*%
X166360000Y-94652500D03*
%TO.P,U1,PROGRAM,PROGRAM*%
%TO.N,unconnected-(U1-PadPROGRAM)*%
X166360000Y-97192500D03*
D34*
%TO.P,U1,R+,R+*%
%TO.N,unconnected-(U1-PadR+)*%
X133610000Y-94562500D03*
%TO.P,U1,R-,R-*%
%TO.N,unconnected-(U1-PadR-)*%
X135610000Y-94562500D03*
%TO.P,U1,T+,T+*%
%TO.N,unconnected-(U1-PadT+)*%
X135610000Y-98562500D03*
%TO.P,U1,T-,T-*%
%TO.N,unconnected-(U1-PadT-)*%
X133610000Y-98562500D03*
D33*
%TO.P,U1,USB_GND1,USB_GND*%
%TO.N,GND*%
X134610000Y-104302500D03*
%TO.P,U1,USB_GND2,USB_GND*%
X137150000Y-104302500D03*
D32*
%TO.P,U1,VBAT,VBAT*%
%TO.N,unconnected-(U1-PadVBAT)*%
X166360000Y-104812500D03*
%TO.P,U1,VIN,VIN*%
%TO.N,+5V*%
X120640000Y-92112500D03*
%TO.P,U1,VUSB,VUSB*%
%TO.N,unconnected-(U1-PadVUSB)*%
X123180000Y-94652500D03*
%TD*%
D35*
%TO.N,GND*%
X157200000Y-89400000D03*
X187600000Y-94600000D03*
X150200000Y-95200000D03*
X173400000Y-100600000D03*
X183400000Y-114400000D03*
X157800000Y-97000000D03*
X131400000Y-98800000D03*
X182400000Y-106800000D03*
X179400000Y-96200000D03*
X159950000Y-103250000D03*
X185800000Y-81800000D03*
%TO.N,+5V*%
X139000000Y-93600000D03*
X151000000Y-98000000D03*
D36*
X145000000Y-95000000D03*
D37*
X181000000Y-88200000D03*
D35*
X124000000Y-82000000D03*
X151400000Y-96725000D03*
D37*
X176600000Y-86000000D03*
D35*
X142400000Y-94400000D03*
D36*
%TO.N,+3.3V*%
X175500000Y-105500000D03*
D37*
X191400000Y-82400000D03*
D35*
X180200000Y-95200000D03*
D36*
X146400000Y-86600000D03*
X171800000Y-104800000D03*
X137000000Y-102500000D03*
X137375000Y-98375000D03*
X183700000Y-108800000D03*
D35*
%TO.N,VCC*%
X188600000Y-94200000D03*
X188800000Y-108600000D03*
D36*
%TO.N,Net-(IC1-B3)*%
X151565380Y-100234620D03*
X159750000Y-98750000D03*
%TO.N,Net-(IC1-B1)*%
X158750000Y-99000000D03*
X152600000Y-96450000D03*
D37*
%TO.N,/servo_dir*%
X140600000Y-96400000D03*
D35*
%TO.N,/from_servo*%
X155400000Y-99800000D03*
D36*
%TO.N,Net-(U3-~{BOOT_LOAD_PIN})*%
X179000000Y-94000000D03*
X179200000Y-102800000D03*
%TO.N,/BNO_RESET*%
X154800000Y-94200000D03*
X182800000Y-99600000D03*
X151800000Y-94200000D03*
X158200000Y-93800000D03*
%TO.N,/NRF_MOSI*%
X145200000Y-84000000D03*
X161975499Y-94450000D03*
%TO.N,/rx8*%
X172600000Y-88400000D03*
X175200000Y-89600000D03*
%TO.N,/NRF_MISO*%
X162600000Y-93950000D03*
%TO.N,/SDA*%
X153400000Y-102600000D03*
%TO.N,/ctx3*%
X171659620Y-97140380D03*
X167800000Y-90400000D03*
X169400000Y-98200000D03*
%TO.N,/rx2*%
X139400000Y-94800000D03*
%TO.N,/crx3*%
X170400000Y-98200000D03*
X172600000Y-97600000D03*
%TO.N,/NRF_CS*%
X161600000Y-95800000D03*
%TO.N,/SCL*%
X142000000Y-93400000D03*
X159200000Y-96600000D03*
%TO.N,/BNO_INT*%
X143600000Y-95800000D03*
X152700000Y-95100000D03*
%TO.N,/tx2*%
X138400000Y-96400000D03*
%TO.N,/rx7*%
X165000000Y-95000000D03*
%TO.N,/tx7*%
X168400000Y-105000000D03*
X170600000Y-94600000D03*
X167800000Y-95200000D03*
%TD*%
D38*
%TO.N,GND*%
X139015000Y-104302500D02*
X140000000Y-105287500D01*
D39*
X135450000Y-125200000D02*
X135500000Y-125250000D01*
D38*
X179400000Y-96200000D02*
X178400000Y-96200000D01*
D39*
X124445000Y-118285000D02*
X125880000Y-119720000D01*
D38*
X181187500Y-106400000D02*
X179537500Y-104750000D01*
X140687500Y-105287500D02*
X141800000Y-106400000D01*
X142400000Y-106200000D02*
X144643716Y-106200000D01*
D39*
X125880000Y-118520000D02*
X129000000Y-115400000D01*
D40*
X188500000Y-102250000D02*
X186800000Y-100550000D01*
D38*
X120800000Y-94492500D02*
X123180000Y-92112500D01*
X173400000Y-100600000D02*
X172362500Y-100600000D01*
X134572500Y-97600000D02*
X135610000Y-96562500D01*
X154040000Y-87120000D02*
X152720000Y-85800000D01*
X182000000Y-104637500D02*
X182000000Y-106400000D01*
X174000000Y-101775000D02*
X174000000Y-101200000D01*
X148637500Y-85800000D02*
X148200000Y-85362500D01*
X177623000Y-100762500D02*
X177800000Y-100762500D01*
X172362500Y-100600000D02*
X171750000Y-101212500D01*
D40*
X177400000Y-124000000D02*
X180400000Y-127000000D01*
D38*
X144643716Y-106200000D02*
X146443716Y-104400000D01*
D39*
X125880000Y-119720000D02*
X131360000Y-125200000D01*
D38*
X148825000Y-103250000D02*
X159950000Y-103250000D01*
X177800000Y-96200000D02*
X177662500Y-96337500D01*
X149037500Y-94800000D02*
X149800000Y-94800000D01*
X177162500Y-101887500D02*
X177162500Y-101223000D01*
D40*
X131600000Y-120200000D02*
X175400000Y-120200000D01*
D38*
X157300000Y-97500000D02*
X157800000Y-97000000D01*
X120640000Y-107352500D02*
X120800000Y-107192500D01*
X123180000Y-91020000D02*
X122750000Y-90590000D01*
X137150000Y-104302500D02*
X139015000Y-104302500D01*
X123180000Y-92112500D02*
X123180000Y-91020000D01*
D40*
X124445000Y-118285000D02*
X129685000Y-118285000D01*
D38*
X122750000Y-83740000D02*
X122750000Y-86750000D01*
D40*
X129685000Y-118285000D02*
X131600000Y-120200000D01*
D38*
X149800000Y-94800000D02*
X150200000Y-95200000D01*
X157200000Y-91112500D02*
X156200000Y-92112500D01*
X178162500Y-100762500D02*
X178662500Y-101262500D01*
X185312500Y-81312500D02*
X185800000Y-81800000D01*
X176250000Y-99750000D02*
X176787500Y-99750000D01*
D39*
X124445000Y-118285000D02*
X120640000Y-114480000D01*
D38*
X178162500Y-96437500D02*
X178162500Y-97112500D01*
D40*
X188500000Y-117015300D02*
X185884700Y-114400000D01*
D38*
X156825000Y-97500000D02*
X157300000Y-97500000D01*
X129800000Y-97400000D02*
X130000000Y-97600000D01*
D40*
X188500000Y-120100000D02*
X188500000Y-117015300D01*
D38*
X148750000Y-103175000D02*
X148825000Y-103250000D01*
X179575000Y-101750000D02*
X178800000Y-101750000D01*
X130000000Y-97600000D02*
X130200000Y-97600000D01*
D39*
X135500000Y-125250000D02*
X173000000Y-125250000D01*
D38*
X177800000Y-100762500D02*
X178162500Y-100762500D01*
X146443716Y-104400000D02*
X147525000Y-104400000D01*
X180000000Y-96800000D02*
X180000000Y-97250000D01*
X174000000Y-101200000D02*
X173400000Y-100600000D01*
D40*
X184400000Y-126800000D02*
X184400000Y-124200000D01*
D39*
X131360000Y-125200000D02*
X133000000Y-125200000D01*
D40*
X185884700Y-114400000D02*
X183400000Y-114400000D01*
X175400000Y-120200000D02*
X177400000Y-122200000D01*
D38*
X120800000Y-97400000D02*
X120800000Y-94492500D01*
D39*
X133000000Y-125200000D02*
X135450000Y-125200000D01*
D38*
X178800000Y-101750000D02*
X178662500Y-101887500D01*
X177662500Y-96337500D02*
X177662500Y-97112500D01*
X178400000Y-96200000D02*
X177800000Y-96200000D01*
D40*
X187600000Y-97000000D02*
X187600000Y-94600000D01*
D38*
X120800000Y-107192500D02*
X120800000Y-97400000D01*
X122750000Y-90590000D02*
X122750000Y-86750000D01*
D39*
X129000000Y-115400000D02*
X130400000Y-115400000D01*
D38*
X178662500Y-101262500D02*
X178662500Y-101887500D01*
X177162500Y-101223000D02*
X177623000Y-100762500D01*
D39*
X125880000Y-119720000D02*
X125880000Y-118520000D01*
D38*
X130200000Y-97600000D02*
X131400000Y-98800000D01*
X130200000Y-97600000D02*
X134572500Y-97600000D01*
X140000000Y-105287500D02*
X140687500Y-105287500D01*
X182000000Y-106400000D02*
X182400000Y-106800000D01*
D40*
X184400000Y-124200000D02*
X188500000Y-120100000D01*
X180400000Y-127000000D02*
X184200000Y-127000000D01*
D38*
X157200000Y-89400000D02*
X157200000Y-91112500D01*
X179400000Y-96200000D02*
X180000000Y-96800000D01*
D39*
X130550000Y-115250000D02*
X173000000Y-115250000D01*
D38*
X178162500Y-97112500D02*
X178162500Y-100762500D01*
X182000000Y-106400000D02*
X181187500Y-106400000D01*
D39*
X120640000Y-114480000D02*
X120640000Y-107352500D01*
D40*
X184200000Y-127000000D02*
X184400000Y-126800000D01*
D38*
X176787500Y-99750000D02*
X177800000Y-100762500D01*
X178662500Y-97112500D02*
X178662500Y-96537500D01*
X179000000Y-96200000D02*
X179400000Y-96200000D01*
X180000000Y-97250000D02*
X179575000Y-97250000D01*
D40*
X177400000Y-122200000D02*
X177400000Y-124000000D01*
D38*
X178400000Y-96200000D02*
X178162500Y-96437500D01*
D40*
X186800000Y-100550000D02*
X186800000Y-97800000D01*
D38*
X147525000Y-104400000D02*
X148750000Y-103175000D01*
X184200000Y-81312500D02*
X185312500Y-81312500D01*
X141800000Y-106400000D02*
X142200000Y-106400000D01*
D40*
X186800000Y-97800000D02*
X187600000Y-97000000D01*
D38*
X178662500Y-96537500D02*
X179000000Y-96200000D01*
X120800000Y-97400000D02*
X129800000Y-97400000D01*
X152720000Y-85800000D02*
X148637500Y-85800000D01*
X142200000Y-106400000D02*
X142400000Y-106200000D01*
D39*
X130400000Y-115400000D02*
X130550000Y-115250000D01*
D41*
%TO.N,+5V*%
X120800000Y-82400000D02*
X120675000Y-82525000D01*
D38*
X151075000Y-96400000D02*
X148200000Y-96400000D01*
D41*
X120800000Y-82000000D02*
X120800000Y-82400000D01*
D38*
X151000000Y-98000000D02*
X148775000Y-98000000D01*
D41*
X176600000Y-86000000D02*
X166600000Y-76000000D01*
D38*
X142150000Y-94150000D02*
X139550000Y-94150000D01*
D42*
X182400000Y-91600000D02*
X182400000Y-89800000D01*
D38*
X146712500Y-95250000D02*
X145250000Y-95250000D01*
X148200000Y-96400000D02*
X146962500Y-95162500D01*
D42*
X182550000Y-89650000D02*
X190200000Y-89650000D01*
D38*
X139550000Y-94150000D02*
X139000000Y-93600000D01*
X151000000Y-98000000D02*
X152000000Y-99000000D01*
D41*
X130400000Y-76000000D02*
X124400000Y-82000000D01*
D38*
X146962500Y-95162500D02*
X146962500Y-94800000D01*
D41*
X120675000Y-86750000D02*
X120675000Y-92077500D01*
X182550000Y-89650000D02*
X181100000Y-88200000D01*
D42*
X184896600Y-94096600D02*
X182400000Y-91600000D01*
D38*
X145250000Y-95250000D02*
X145000000Y-95000000D01*
D41*
X120675000Y-92077500D02*
X120640000Y-92112500D01*
D38*
X151400000Y-96725000D02*
X151075000Y-96400000D01*
D41*
X120675000Y-83740000D02*
X120675000Y-86750000D01*
D42*
X186214000Y-94096600D02*
X184896600Y-94096600D01*
D38*
X152000000Y-99000000D02*
X153675000Y-99000000D01*
D41*
X181100000Y-88200000D02*
X181000000Y-88200000D01*
X166600000Y-76000000D02*
X130400000Y-76000000D01*
D38*
X142400000Y-94400000D02*
X142150000Y-94150000D01*
D41*
X182400000Y-89800000D02*
X182550000Y-89650000D01*
X120675000Y-82525000D02*
X120675000Y-83740000D01*
X124400000Y-82000000D02*
X120800000Y-82000000D01*
D38*
X148775000Y-98000000D02*
X148750000Y-97975000D01*
%TO.N,+3.3V*%
X148200000Y-87437500D02*
X147237500Y-87437500D01*
X174475000Y-103500000D02*
X175250000Y-102725000D01*
X184000000Y-106250000D02*
X186214000Y-108464000D01*
X140000000Y-103212500D02*
X139287500Y-102500000D01*
X182000000Y-96587500D02*
X183337500Y-96587500D01*
D41*
X192800000Y-85200000D02*
X192600000Y-85000000D01*
D38*
X139287500Y-102500000D02*
X137000000Y-102500000D01*
X179112500Y-95200000D02*
X180200000Y-95200000D01*
X137775000Y-97975000D02*
X142874000Y-97975000D01*
X137375000Y-98375000D02*
X137775000Y-97975000D01*
X186214000Y-108464000D02*
X186214000Y-108861900D01*
X183700000Y-108800000D02*
X183761900Y-108861900D01*
X171800000Y-103337500D02*
X171750000Y-103287500D01*
X177462500Y-104750000D02*
X177662500Y-104550000D01*
D43*
X192800000Y-105600000D02*
X192800000Y-85200000D01*
D38*
X171800000Y-104800000D02*
X171800000Y-103337500D01*
X175250000Y-102725000D02*
X175250000Y-101250000D01*
X175250000Y-101250000D02*
X176250000Y-101250000D01*
X148200000Y-87437500D02*
X148562500Y-87437500D01*
X176250000Y-104750000D02*
X175500000Y-105500000D01*
X183761900Y-108861900D02*
X186214000Y-108861900D01*
X174000000Y-103500000D02*
X171962500Y-103500000D01*
X183337500Y-96587500D02*
X184000000Y-97250000D01*
X174000000Y-103500000D02*
X174475000Y-103500000D01*
D41*
X148880000Y-87120000D02*
X151500000Y-87120000D01*
D38*
X171962500Y-103500000D02*
X171750000Y-103287500D01*
D43*
X192200000Y-106200000D02*
X187600000Y-106200000D01*
D38*
X142087500Y-105250000D02*
X142037500Y-105250000D01*
D43*
X187600000Y-106200000D02*
X186214000Y-107586000D01*
D38*
X147237500Y-87437500D02*
X146400000Y-86600000D01*
D41*
X192600000Y-85000000D02*
X192600000Y-83600000D01*
D38*
X184000000Y-97250000D02*
X184000000Y-106250000D01*
X148562500Y-87437500D02*
X148880000Y-87120000D01*
X177462500Y-104750000D02*
X176250000Y-104750000D01*
D41*
X186214000Y-108861900D02*
X186214000Y-107586000D01*
D38*
X142037500Y-105250000D02*
X140000000Y-103212500D01*
X177662500Y-104550000D02*
X177662500Y-101887500D01*
D43*
X192200000Y-106200000D02*
X192800000Y-105600000D01*
D42*
X192600000Y-85000000D02*
X185120000Y-85000000D01*
D38*
X185311900Y-108861900D02*
X186214000Y-108861900D01*
D41*
X192600000Y-83600000D02*
X191400000Y-82400000D01*
D38*
%TO.N,Net-(U3-CAP)*%
X180600000Y-100250000D02*
X182000000Y-101650000D01*
X182000000Y-101650000D02*
X182000000Y-102562500D01*
X179575000Y-100250000D02*
X180600000Y-100250000D01*
D40*
%TO.N,VCC*%
X125500000Y-112150000D02*
X131450000Y-112150000D01*
X124445000Y-113205000D02*
X125500000Y-112150000D01*
X190786000Y-94096600D02*
X188703400Y-94096600D01*
X182600000Y-112400000D02*
X187247900Y-112400000D01*
X188703400Y-94096600D02*
X188600000Y-94200000D01*
X133800000Y-109800000D02*
X180000000Y-109800000D01*
X180000000Y-109800000D02*
X182600000Y-112400000D01*
X190786000Y-108861900D02*
X189061900Y-108861900D01*
X131450000Y-112150000D02*
X133800000Y-109800000D01*
X187247900Y-112400000D02*
X190786000Y-108861900D01*
X189061900Y-108861900D02*
X188800000Y-108600000D01*
D38*
%TO.N,Net-(IC1-B3)*%
X156825000Y-98500000D02*
X158330761Y-98500000D01*
X158330761Y-98500000D02*
X158580761Y-98250000D01*
X150605760Y-99275000D02*
X148750000Y-99275000D01*
X151565380Y-100234620D02*
X150605760Y-99275000D01*
X159250000Y-98250000D02*
X159750000Y-98750000D01*
X158580761Y-98250000D02*
X159250000Y-98250000D01*
%TO.N,/servo_tx1*%
X142874000Y-99275000D02*
X138975000Y-99275000D01*
X125250000Y-106882500D02*
X125720000Y-107352500D01*
X128250000Y-101000000D02*
X125250000Y-104000000D01*
X137250000Y-101000000D02*
X128250000Y-101000000D01*
X125250000Y-104000000D02*
X125250000Y-106882500D01*
X138975000Y-99275000D02*
X137250000Y-101000000D01*
%TO.N,Net-(IC1-OE)*%
X143912500Y-104213500D02*
X142874000Y-103175000D01*
X143912500Y-105250000D02*
X143912500Y-104213500D01*
%TO.N,/servo_rx1*%
X127750000Y-100000000D02*
X123180000Y-104570000D01*
X123180000Y-104570000D02*
X123180000Y-107352500D01*
X137000000Y-100000000D02*
X127750000Y-100000000D01*
X142874000Y-98625000D02*
X138375000Y-98625000D01*
X138375000Y-98625000D02*
X137000000Y-100000000D01*
%TO.N,Net-(IC1-B1)*%
X152900000Y-98500000D02*
X153675000Y-98500000D01*
X151725000Y-97325000D02*
X152900000Y-98500000D01*
X151725000Y-97325000D02*
X152600000Y-96450000D01*
X148750000Y-97325000D02*
X151500000Y-97325000D01*
X151500000Y-97325000D02*
X151725000Y-97325000D01*
X158750000Y-99000000D02*
X156825000Y-99000000D01*
%TO.N,/servo_dir*%
X141525000Y-97325000D02*
X140600000Y-96400000D01*
X142874000Y-97325000D02*
X141525000Y-97325000D01*
%TO.N,Net-(IC1-B2)*%
X150875000Y-98625000D02*
X154000000Y-101750000D01*
X158123654Y-98000000D02*
X156825000Y-98000000D01*
X159669239Y-97750000D02*
X158373654Y-97750000D01*
X160600000Y-98680761D02*
X159669239Y-97750000D01*
X158373654Y-97750000D02*
X158123654Y-98000000D01*
X160600000Y-100400000D02*
X160600000Y-98680761D01*
X148750000Y-98625000D02*
X150875000Y-98625000D01*
X154000000Y-101750000D02*
X159250000Y-101750000D01*
X159250000Y-101750000D02*
X160600000Y-100400000D01*
%TO.N,/from_servo*%
X153200000Y-96800000D02*
X153600000Y-96800000D01*
X152800000Y-97200000D02*
X153200000Y-96800000D01*
X155200000Y-96800000D02*
X155400000Y-97000000D01*
X153675000Y-97500000D02*
X153100000Y-97500000D01*
X153600000Y-96800000D02*
X155200000Y-96800000D01*
X153100000Y-97500000D02*
X152800000Y-97200000D01*
X153200000Y-98000000D02*
X152600000Y-97400000D01*
X152600000Y-97400000D02*
X152800000Y-97200000D01*
X153675000Y-98000000D02*
X153200000Y-98000000D01*
X155400000Y-97000000D02*
X155400000Y-99800000D01*
%TO.N,Net-(U3-~{BOOT_LOAD_PIN})*%
X177400000Y-94000000D02*
X177200000Y-94200000D01*
X177200000Y-95112500D02*
X177287500Y-95200000D01*
X179200000Y-102800000D02*
X178410500Y-102800000D01*
X178162500Y-102552000D02*
X178162500Y-101887500D01*
X178410500Y-102800000D02*
X178162500Y-102552000D01*
X177200000Y-94200000D02*
X177200000Y-95112500D01*
X179000000Y-94000000D02*
X177400000Y-94000000D01*
%TO.N,/BNO_RESET*%
X151200000Y-93200000D02*
X151120000Y-93120000D01*
X181162500Y-99250000D02*
X182000000Y-98412500D01*
X182000000Y-98800000D02*
X182800000Y-99600000D01*
X151120000Y-93120000D02*
X151120000Y-92112500D01*
X158200000Y-93800000D02*
X157600000Y-94400000D01*
X157600000Y-94400000D02*
X155000000Y-94400000D01*
X179575000Y-99250000D02*
X181162500Y-99250000D01*
X151800000Y-94200000D02*
X151200000Y-93600000D01*
X182000000Y-98412500D02*
X182000000Y-98800000D01*
X151200000Y-93600000D02*
X151200000Y-93200000D01*
X155000000Y-94400000D02*
X154800000Y-94200000D01*
%TO.N,/NRF_MOSI*%
X145200000Y-87600000D02*
X145200000Y-84000000D01*
X154000000Y-95000000D02*
X152400000Y-93400000D01*
X152400000Y-93400000D02*
X152400000Y-90400000D01*
X152200000Y-90200000D02*
X150600000Y-90200000D01*
X158466548Y-95000000D02*
X154000000Y-95000000D01*
X149400000Y-89000000D02*
X146600000Y-89000000D01*
X159016548Y-94450000D02*
X158466548Y-95000000D01*
X161975499Y-94450000D02*
X159016548Y-94450000D01*
X146600000Y-89000000D02*
X145200000Y-87600000D01*
X152400000Y-90400000D02*
X152200000Y-90200000D01*
X150600000Y-90200000D02*
X149400000Y-89000000D01*
%TO.N,/rx8*%
X174000000Y-88400000D02*
X175200000Y-89600000D01*
X172600000Y-88400000D02*
X174000000Y-88400000D01*
%TO.N,/NRF_MISO*%
X155900000Y-79500000D02*
X154040000Y-79500000D01*
X160000000Y-89600000D02*
X157600000Y-87200000D01*
X162600000Y-93950000D02*
X162600000Y-90400000D01*
X157600000Y-81200000D02*
X155900000Y-79500000D01*
X161800000Y-89600000D02*
X160000000Y-89600000D01*
X157600000Y-87200000D02*
X157600000Y-81200000D01*
X162600000Y-90400000D02*
X161800000Y-89600000D01*
%TO.N,/SDA*%
X153600000Y-102400000D02*
X162800000Y-102400000D01*
X175562500Y-97273000D02*
X175585500Y-97250000D01*
X175585500Y-97250000D02*
X176250000Y-97250000D01*
X162800000Y-102400000D02*
X164000000Y-101200000D01*
X170900000Y-99800000D02*
X173600000Y-99800000D01*
X169500000Y-101200000D02*
X170900000Y-99800000D01*
X164000000Y-101200000D02*
X169500000Y-101200000D01*
X153400000Y-102600000D02*
X153600000Y-102400000D01*
X173600000Y-99800000D02*
X175562500Y-97837500D01*
X175562500Y-97837500D02*
X175562500Y-97273000D01*
%TO.N,/ctx3*%
X168800000Y-89400000D02*
X167800000Y-90400000D01*
X168800000Y-84860000D02*
X168800000Y-85200000D01*
X167400000Y-83460000D02*
X168800000Y-84860000D01*
X170459620Y-97140380D02*
X169400000Y-98200000D01*
X168800000Y-85200000D02*
X168800000Y-89400000D01*
X171659620Y-97140380D02*
X170459620Y-97140380D01*
%TO.N,/rx2*%
X145000000Y-81000000D02*
X143200000Y-82800000D01*
X158000000Y-79600000D02*
X157000000Y-79600000D01*
X160200000Y-88600000D02*
X158400000Y-86800000D01*
X139000000Y-94800000D02*
X139400000Y-94800000D01*
X137200000Y-90800000D02*
X137200000Y-93000000D01*
X155000000Y-77600000D02*
X150200000Y-77600000D01*
X157000000Y-79600000D02*
X155000000Y-77600000D01*
X138000000Y-90000000D02*
X137200000Y-90800000D01*
X158400000Y-80000000D02*
X158000000Y-79600000D01*
X149200000Y-81000000D02*
X145000000Y-81000000D01*
X150200000Y-77600000D02*
X149400000Y-78400000D01*
X137200000Y-93000000D02*
X139000000Y-94800000D01*
X143200000Y-82800000D02*
X143200000Y-90000000D01*
X161800000Y-88600000D02*
X160200000Y-88600000D01*
X158400000Y-86800000D02*
X158400000Y-80000000D01*
X149400000Y-78400000D02*
X149200000Y-78600000D01*
X149200000Y-78600000D02*
X149200000Y-81000000D01*
X143200000Y-90000000D02*
X138000000Y-90000000D01*
X161900000Y-86000000D02*
X161900000Y-88500000D01*
X161900000Y-88500000D02*
X161800000Y-88600000D01*
%TO.N,/crx3*%
X172000000Y-98200000D02*
X170400000Y-98200000D01*
X172600000Y-97600000D02*
X172000000Y-98200000D01*
%TO.N,/NRF_CS*%
X153269239Y-96200000D02*
X152869239Y-95800000D01*
X158930761Y-95950000D02*
X158680761Y-96200000D01*
X144400000Y-83000000D02*
X149920000Y-83000000D01*
X161450000Y-95950000D02*
X158930761Y-95950000D01*
X149920000Y-83000000D02*
X151500000Y-84580000D01*
X152869239Y-95800000D02*
X152000000Y-95800000D01*
X149800000Y-93600000D02*
X149800000Y-91400000D01*
X144400000Y-87800000D02*
X144400000Y-83000000D01*
X148000000Y-89600000D02*
X146200000Y-89600000D01*
X161600000Y-95800000D02*
X161450000Y-95950000D01*
X149800000Y-91400000D02*
X148000000Y-89600000D01*
X152000000Y-95800000D02*
X149800000Y-93600000D01*
X158680761Y-96200000D02*
X153269239Y-96200000D01*
X146200000Y-89600000D02*
X144400000Y-87800000D01*
%TO.N,/SCL*%
X173400000Y-98400000D02*
X173400000Y-99000000D01*
X161000000Y-96800000D02*
X159400000Y-96800000D01*
X167600000Y-98400000D02*
X162600000Y-98400000D01*
X168200000Y-99000000D02*
X167600000Y-98400000D01*
X142000000Y-93400000D02*
X139707500Y-93400000D01*
X176650000Y-96600000D02*
X175200000Y-96600000D01*
X175200000Y-96600000D02*
X173400000Y-98400000D01*
X177162500Y-97112500D02*
X176650000Y-96600000D01*
X162600000Y-98400000D02*
X161000000Y-96800000D01*
X139707500Y-93400000D02*
X138420000Y-92112500D01*
X173400000Y-99000000D02*
X168200000Y-99000000D01*
X159400000Y-96800000D02*
X159200000Y-96600000D01*
%TO.N,/BNO_INT*%
X173712568Y-94287432D02*
X174650000Y-93350000D01*
X163530761Y-95850000D02*
X173712568Y-95850000D01*
X181175000Y-96087568D02*
X181175000Y-96814500D01*
X162830761Y-95150000D02*
X163530761Y-95850000D01*
X173712568Y-95850000D02*
X173712568Y-94287432D01*
X152876345Y-95100000D02*
X153376345Y-95600000D01*
X158573654Y-95600000D02*
X159023654Y-95150000D01*
X180239500Y-97750000D02*
X179575000Y-97750000D01*
X144200000Y-93400000D02*
X147292500Y-93400000D01*
X181200000Y-94600000D02*
X181200000Y-96062568D01*
X152700000Y-95100000D02*
X152876345Y-95100000D01*
X181200000Y-96062568D02*
X181175000Y-96087568D01*
X159023654Y-95150000D02*
X162830761Y-95150000D01*
X181175000Y-96814500D02*
X180239500Y-97750000D01*
X147292500Y-93400000D02*
X148580000Y-92112500D01*
X143600000Y-94000000D02*
X144200000Y-93400000D01*
X179950000Y-93350000D02*
X181200000Y-94600000D01*
X174650000Y-93350000D02*
X179950000Y-93350000D01*
X143600000Y-95800000D02*
X143600000Y-94000000D01*
X153376345Y-95600000D02*
X158573654Y-95600000D01*
%TO.N,/NRF_SCK*%
X153660000Y-92112500D02*
X156200000Y-89572500D01*
X156200000Y-89572500D02*
X156200000Y-82400000D01*
X155840000Y-82040000D02*
X154040000Y-82040000D01*
X156200000Y-82400000D02*
X155840000Y-82040000D01*
%TO.N,/tx2*%
X134600000Y-92800000D02*
X135200000Y-93400000D01*
X149400000Y-77000000D02*
X148400000Y-78000000D01*
X144892893Y-80400000D02*
X134600000Y-90692893D01*
X158107107Y-79000000D02*
X157400000Y-79000000D01*
X138400000Y-95400000D02*
X138400000Y-96400000D01*
X155400000Y-77000000D02*
X149400000Y-77000000D01*
X134600000Y-90692893D02*
X134600000Y-92800000D01*
X161900000Y-83460000D02*
X161060000Y-83460000D01*
X135200000Y-93400000D02*
X136400000Y-93400000D01*
X159800000Y-82200000D02*
X159800000Y-80692893D01*
X148400000Y-80400000D02*
X144892893Y-80400000D01*
X136400000Y-93400000D02*
X138400000Y-95400000D01*
X148400000Y-78000000D02*
X148400000Y-80400000D01*
X161060000Y-83460000D02*
X159800000Y-82200000D01*
X159800000Y-80692893D02*
X158107107Y-79000000D01*
X157400000Y-79000000D02*
X155400000Y-77000000D01*
%TO.N,/rx7*%
X165000000Y-86350000D02*
X165000000Y-95000000D01*
X164650000Y-86000000D02*
X165000000Y-86350000D01*
%TO.N,/BUTTON_PIN*%
X176750000Y-74750000D02*
X176750000Y-81250000D01*
X173600000Y-90800000D02*
X173400000Y-90600000D01*
X173400000Y-90600000D02*
X170412500Y-90600000D01*
X178200000Y-90800000D02*
X173600000Y-90800000D01*
X170412500Y-90600000D02*
X168900000Y-92112500D01*
X176750000Y-81250000D02*
X178200000Y-82700000D01*
X178200000Y-82700000D02*
X178200000Y-90800000D01*
%TO.N,/NRF_CE*%
X161280000Y-92112500D02*
X156800000Y-87632500D01*
X156800000Y-87632500D02*
X156800000Y-81600000D01*
X152800000Y-83340000D02*
X154040000Y-84580000D01*
X156800000Y-81600000D02*
X156000000Y-80800000D01*
X152800000Y-81400000D02*
X152800000Y-83340000D01*
X156000000Y-80800000D02*
X153400000Y-80800000D01*
X153400000Y-80800000D02*
X152800000Y-81400000D01*
%TO.N,/tx7*%
X170000000Y-95200000D02*
X167800000Y-95200000D01*
X170752500Y-107352500D02*
X171440000Y-107352500D01*
X170600000Y-94600000D02*
X170000000Y-95200000D01*
X168400000Y-105000000D02*
X170752500Y-107352500D01*
%TO.N,Net-(R4-Pad1)*%
X181250000Y-81250000D02*
X182437500Y-81250000D01*
X184200000Y-79487500D02*
X184200000Y-77700000D01*
X184200000Y-77700000D02*
X181250000Y-74750000D01*
X182437500Y-81250000D02*
X184200000Y-79487500D01*
%TD*%
%TA.AperFunction,Conductor*%
%TO.N,VCC*%
G36*
X175534709Y-73020028D02*
G01*
X175645937Y-73076702D01*
X175734209Y-73164974D01*
X175790883Y-73276202D01*
X175810411Y-73399500D01*
X175790883Y-73522798D01*
X175734209Y-73634026D01*
X175704965Y-73669735D01*
X175561837Y-73825212D01*
X175425828Y-74033391D01*
X175325937Y-74261117D01*
X175264893Y-74502172D01*
X175264892Y-74502177D01*
X175244357Y-74749998D01*
X175244357Y-74750001D01*
X175264892Y-74997822D01*
X175264893Y-74997827D01*
X175286243Y-75082134D01*
X175325937Y-75238881D01*
X175425827Y-75466607D01*
X175497997Y-75577071D01*
X175561837Y-75674787D01*
X175730254Y-75857737D01*
X175939514Y-76020610D01*
X175937864Y-76022728D01*
X176011265Y-76089182D01*
X176073387Y-76197462D01*
X176099009Y-76319639D01*
X176099500Y-76339434D01*
X176099500Y-79660565D01*
X176079972Y-79783863D01*
X176023298Y-79895091D01*
X175939288Y-79979100D01*
X175939514Y-79979390D01*
X175937190Y-79981198D01*
X175935026Y-79983363D01*
X175929631Y-79987081D01*
X175730254Y-80142262D01*
X175561837Y-80325212D01*
X175425828Y-80533391D01*
X175325937Y-80761117D01*
X175264893Y-81002172D01*
X175264892Y-81002177D01*
X175244357Y-81249998D01*
X175244357Y-81250001D01*
X175264892Y-81497822D01*
X175264893Y-81497827D01*
X175325937Y-81738882D01*
X175357288Y-81810354D01*
X175425827Y-81966607D01*
X175431345Y-81975053D01*
X175561837Y-82174787D01*
X175730254Y-82357737D01*
X175774119Y-82391878D01*
X175926491Y-82510474D01*
X176145190Y-82628828D01*
X176145196Y-82628830D01*
X176145198Y-82628831D01*
X176145197Y-82628831D01*
X176271784Y-82672288D01*
X176380386Y-82709571D01*
X176523764Y-82733496D01*
X176625657Y-82750499D01*
X176625665Y-82750500D01*
X176874335Y-82750500D01*
X176874342Y-82750499D01*
X177062730Y-82719063D01*
X177187560Y-82718031D01*
X177306600Y-82755624D01*
X177408196Y-82828162D01*
X177410539Y-82830485D01*
X177432636Y-82852582D01*
X177506012Y-82953576D01*
X177544588Y-83072301D01*
X177549500Y-83134718D01*
X177549500Y-84877349D01*
X177529972Y-85000647D01*
X177473298Y-85111875D01*
X177385026Y-85200147D01*
X177273798Y-85256821D01*
X177150500Y-85276349D01*
X177027202Y-85256821D01*
X176988215Y-85241855D01*
X176902574Y-85203726D01*
X176797878Y-85135737D01*
X176782723Y-85121356D01*
X171977179Y-80315812D01*
X167078416Y-75417048D01*
X167004729Y-75367813D01*
X166955495Y-75334916D01*
X166955493Y-75334915D01*
X166818912Y-75278341D01*
X166677688Y-75250250D01*
X166673918Y-75249500D01*
X130473917Y-75249500D01*
X130326082Y-75249500D01*
X130322312Y-75250250D01*
X130181087Y-75278341D01*
X130044507Y-75334914D01*
X129995271Y-75367813D01*
X129921586Y-75417048D01*
X129921583Y-75417050D01*
X124205996Y-81132636D01*
X124105002Y-81206012D01*
X123986277Y-81244588D01*
X123923860Y-81249500D01*
X120873918Y-81249500D01*
X120726082Y-81249500D01*
X120702026Y-81254285D01*
X120581087Y-81278341D01*
X120444507Y-81334914D01*
X120321583Y-81417050D01*
X120217050Y-81521583D01*
X120134914Y-81644507D01*
X120078341Y-81781087D01*
X120049500Y-81926082D01*
X120049500Y-81995503D01*
X120029972Y-82118801D01*
X120016294Y-82150930D01*
X120017417Y-82151395D01*
X119953341Y-82306087D01*
X119924500Y-82451082D01*
X119924500Y-82451360D01*
X119924426Y-82451821D01*
X119922578Y-82470592D01*
X119921471Y-82470482D01*
X119904972Y-82574658D01*
X119848298Y-82685886D01*
X119807636Y-82733496D01*
X119744787Y-82796344D01*
X119652685Y-82945666D01*
X119652684Y-82945668D01*
X119597501Y-83112200D01*
X119587000Y-83214988D01*
X119587000Y-84265005D01*
X119587002Y-84265026D01*
X119597499Y-84367794D01*
X119652685Y-84534332D01*
X119652685Y-84534333D01*
X119744788Y-84683656D01*
X119744789Y-84683658D01*
X119807634Y-84746502D01*
X119881010Y-84847495D01*
X119919587Y-84966219D01*
X119924500Y-85028639D01*
X119924500Y-85461360D01*
X119904972Y-85584658D01*
X119848298Y-85695886D01*
X119807636Y-85743496D01*
X119744787Y-85806344D01*
X119652685Y-85955666D01*
X119652684Y-85955668D01*
X119597501Y-86122200D01*
X119587000Y-86224988D01*
X119587000Y-87275005D01*
X119587002Y-87275026D01*
X119597499Y-87377794D01*
X119652685Y-87544332D01*
X119652685Y-87544333D01*
X119744788Y-87693656D01*
X119744789Y-87693658D01*
X119807634Y-87756502D01*
X119881010Y-87857495D01*
X119919587Y-87976219D01*
X119924500Y-88038639D01*
X119924500Y-91026360D01*
X119904972Y-91149658D01*
X119848298Y-91260886D01*
X119794310Y-91321219D01*
X119783165Y-91331378D01*
X119783157Y-91331387D01*
X119654223Y-91502124D01*
X119654220Y-91502128D01*
X119558848Y-91693661D01*
X119500295Y-91899450D01*
X119480554Y-92112500D01*
X119500295Y-92325549D01*
X119558848Y-92531338D01*
X119558849Y-92531340D01*
X119654219Y-92722870D01*
X119671596Y-92745881D01*
X119783157Y-92893612D01*
X119783160Y-92893616D01*
X119941275Y-93037756D01*
X119941277Y-93037758D01*
X120123186Y-93150391D01*
X120123188Y-93150391D01*
X120123190Y-93150393D01*
X120322703Y-93227685D01*
X120322704Y-93227685D01*
X120339903Y-93234348D01*
X120338706Y-93237435D01*
X120422967Y-93276518D01*
X120514438Y-93361469D01*
X120575182Y-93470529D01*
X120599251Y-93593021D01*
X120584290Y-93716956D01*
X120531763Y-93830202D01*
X120482659Y-93889893D01*
X120294727Y-94077825D01*
X120294720Y-94077833D01*
X120228821Y-94176461D01*
X120223536Y-94184370D01*
X120223534Y-94184373D01*
X120174498Y-94302755D01*
X120149500Y-94428430D01*
X120149500Y-105959864D01*
X120129972Y-106083162D01*
X120073298Y-106194390D01*
X119985028Y-106282661D01*
X119825354Y-106398671D01*
X119686172Y-106537853D01*
X119570472Y-106697100D01*
X119481116Y-106872472D01*
X119420292Y-107059668D01*
X119420291Y-107059673D01*
X119420291Y-107059674D01*
X119389500Y-107254083D01*
X119389500Y-114381583D01*
X119389500Y-114578417D01*
X119398224Y-114633497D01*
X119420292Y-114772832D01*
X119481115Y-114960026D01*
X119481116Y-114960027D01*
X119567254Y-115129082D01*
X119570476Y-115135405D01*
X119595420Y-115169737D01*
X119686172Y-115294646D01*
X122531762Y-118140236D01*
X122605138Y-118241230D01*
X122643714Y-118359955D01*
X122647510Y-118392555D01*
X122659615Y-118554090D01*
X122659617Y-118554105D01*
X122719664Y-118817190D01*
X122719667Y-118817199D01*
X122818256Y-119068397D01*
X122818258Y-119068401D01*
X122953179Y-119302093D01*
X122953182Y-119302098D01*
X122953185Y-119302102D01*
X123121439Y-119513085D01*
X123319259Y-119696635D01*
X123542226Y-119848651D01*
X123785359Y-119965738D01*
X124043228Y-120045280D01*
X124043235Y-120045281D01*
X124310060Y-120085499D01*
X124310068Y-120085499D01*
X124310071Y-120085500D01*
X124311754Y-120085500D01*
X124313263Y-120085739D01*
X124324954Y-120086615D01*
X124324881Y-120087579D01*
X124435052Y-120105028D01*
X124546280Y-120161702D01*
X124593890Y-120202364D01*
X124926171Y-120534645D01*
X124926172Y-120534646D01*
X130406171Y-126014645D01*
X130406172Y-126014646D01*
X130545354Y-126153828D01*
X130704595Y-126269524D01*
X130704597Y-126269525D01*
X130704600Y-126269527D01*
X130788744Y-126312400D01*
X130879975Y-126358884D01*
X130948262Y-126381071D01*
X131006337Y-126399942D01*
X131006341Y-126399942D01*
X131006348Y-126399945D01*
X131067173Y-126419709D01*
X131261583Y-126450500D01*
X132901583Y-126450500D01*
X133723976Y-126450500D01*
X133847274Y-126470028D01*
X133958502Y-126526702D01*
X134046774Y-126614974D01*
X134103448Y-126726202D01*
X134122641Y-126847386D01*
X134125001Y-126850000D01*
X136874997Y-126850000D01*
X136890104Y-126833271D01*
X136891093Y-126815404D01*
X136936170Y-126698992D01*
X137015014Y-126602207D01*
X137119907Y-126534523D01*
X137240582Y-126502566D01*
X137281130Y-126500500D01*
X141218868Y-126500500D01*
X141342166Y-126520028D01*
X141453394Y-126576702D01*
X141541666Y-126664974D01*
X141598340Y-126776202D01*
X141606843Y-126829892D01*
X141625001Y-126850000D01*
X144374997Y-126850000D01*
X144390104Y-126833271D01*
X144391093Y-126815404D01*
X144436170Y-126698992D01*
X144515014Y-126602207D01*
X144619907Y-126534523D01*
X144740582Y-126502566D01*
X144781130Y-126500500D01*
X148718868Y-126500500D01*
X148842166Y-126520028D01*
X148953394Y-126576702D01*
X149041666Y-126664974D01*
X149098340Y-126776202D01*
X149106843Y-126829892D01*
X149125001Y-126850000D01*
X151874997Y-126850000D01*
X151890104Y-126833271D01*
X151891093Y-126815404D01*
X151936170Y-126698992D01*
X152015014Y-126602207D01*
X152119907Y-126534523D01*
X152240582Y-126502566D01*
X152281130Y-126500500D01*
X156218868Y-126500500D01*
X156342166Y-126520028D01*
X156453394Y-126576702D01*
X156541666Y-126664974D01*
X156598340Y-126776202D01*
X156606843Y-126829892D01*
X156625001Y-126850000D01*
X159374997Y-126850000D01*
X159390104Y-126833271D01*
X159391093Y-126815404D01*
X159436170Y-126698992D01*
X159515014Y-126602207D01*
X159619907Y-126534523D01*
X159740582Y-126502566D01*
X159781130Y-126500500D01*
X163718868Y-126500500D01*
X163842166Y-126520028D01*
X163953394Y-126576702D01*
X164041666Y-126664974D01*
X164098340Y-126776202D01*
X164106843Y-126829892D01*
X164125001Y-126850000D01*
X166874997Y-126850000D01*
X166890104Y-126833271D01*
X166891093Y-126815404D01*
X166936170Y-126698992D01*
X167015014Y-126602207D01*
X167119907Y-126534523D01*
X167240582Y-126502566D01*
X167281130Y-126500500D01*
X171218868Y-126500500D01*
X171342166Y-126520028D01*
X171453394Y-126576702D01*
X171541666Y-126664974D01*
X171598340Y-126776202D01*
X171606843Y-126829892D01*
X171625001Y-126850000D01*
X174374996Y-126850000D01*
X174364506Y-126747306D01*
X174364503Y-126747295D01*
X174309360Y-126580884D01*
X174309356Y-126580874D01*
X174217318Y-126431658D01*
X174203121Y-126417461D01*
X174129745Y-126316467D01*
X174091169Y-126197742D01*
X174091169Y-126072908D01*
X174129745Y-125954183D01*
X174162461Y-125900797D01*
X174178507Y-125878712D01*
X174216232Y-125826788D01*
X174294873Y-125672445D01*
X174348402Y-125507701D01*
X174375500Y-125336611D01*
X174375500Y-125163389D01*
X174348402Y-124992299D01*
X174294873Y-124827555D01*
X174216232Y-124673212D01*
X174167203Y-124605730D01*
X174114414Y-124533072D01*
X174113478Y-124532136D01*
X174112694Y-124531057D01*
X174104227Y-124521143D01*
X174105007Y-124520476D01*
X174040102Y-124431142D01*
X174001526Y-124312417D01*
X174001526Y-124187583D01*
X174040102Y-124068858D01*
X174105007Y-123979523D01*
X174104227Y-123978857D01*
X174112694Y-123968942D01*
X174113478Y-123967864D01*
X174114414Y-123966928D01*
X174216232Y-123826788D01*
X174294873Y-123672445D01*
X174348402Y-123507701D01*
X174375500Y-123336611D01*
X174375500Y-123163389D01*
X174348402Y-122992299D01*
X174294873Y-122827555D01*
X174216232Y-122673212D01*
X174199367Y-122650000D01*
X174114414Y-122533072D01*
X173991927Y-122410585D01*
X173851789Y-122308768D01*
X173697445Y-122230127D01*
X173697436Y-122230124D01*
X173532707Y-122176599D01*
X173532701Y-122176598D01*
X173361611Y-122149500D01*
X172638389Y-122149500D01*
X172499144Y-122171554D01*
X172467292Y-122176599D01*
X172302563Y-122230124D01*
X172302554Y-122230127D01*
X172148210Y-122308768D01*
X172008072Y-122410585D01*
X171885585Y-122533072D01*
X171783768Y-122673210D01*
X171705127Y-122827554D01*
X171705124Y-122827563D01*
X171651599Y-122992292D01*
X171651598Y-122992299D01*
X171624500Y-123163389D01*
X171624500Y-123336611D01*
X171651598Y-123507701D01*
X171651599Y-123507705D01*
X171654051Y-123523184D01*
X171652778Y-123523385D01*
X171661308Y-123631823D01*
X171632160Y-123753207D01*
X171566930Y-123859643D01*
X171472001Y-123940713D01*
X171356667Y-123988480D01*
X171263539Y-123999500D01*
X167236461Y-123999500D01*
X167113163Y-123979972D01*
X167001935Y-123923298D01*
X166913663Y-123835026D01*
X166856989Y-123723798D01*
X166837461Y-123600500D01*
X166846597Y-123523286D01*
X166845949Y-123523184D01*
X166848400Y-123507705D01*
X166848402Y-123507701D01*
X166875500Y-123336611D01*
X166875500Y-123163389D01*
X166848402Y-122992299D01*
X166794873Y-122827555D01*
X166716232Y-122673212D01*
X166699367Y-122650000D01*
X166614414Y-122533072D01*
X166491927Y-122410585D01*
X166351789Y-122308768D01*
X166197445Y-122230127D01*
X166197436Y-122230124D01*
X166032707Y-122176599D01*
X166032701Y-122176598D01*
X165861611Y-122149500D01*
X165138389Y-122149500D01*
X164999144Y-122171554D01*
X164967292Y-122176599D01*
X164802563Y-122230124D01*
X164802554Y-122230127D01*
X164648210Y-122308768D01*
X164508072Y-122410585D01*
X164385585Y-122533072D01*
X164283768Y-122673210D01*
X164205127Y-122827554D01*
X164205124Y-122827563D01*
X164151599Y-122992292D01*
X164151598Y-122992299D01*
X164124500Y-123163389D01*
X164124500Y-123336611D01*
X164151598Y-123507701D01*
X164151599Y-123507705D01*
X164154051Y-123523184D01*
X164152778Y-123523385D01*
X164161308Y-123631823D01*
X164132160Y-123753207D01*
X164066930Y-123859643D01*
X163972001Y-123940713D01*
X163856667Y-123988480D01*
X163763539Y-123999500D01*
X159736461Y-123999500D01*
X159613163Y-123979972D01*
X159501935Y-123923298D01*
X159413663Y-123835026D01*
X159356989Y-123723798D01*
X159337461Y-123600500D01*
X159346597Y-123523286D01*
X159345949Y-123523184D01*
X159348400Y-123507705D01*
X159348402Y-123507701D01*
X159375500Y-123336611D01*
X159375500Y-123163389D01*
X159348402Y-122992299D01*
X159294873Y-122827555D01*
X159216232Y-122673212D01*
X159199367Y-122650000D01*
X159114414Y-122533072D01*
X158991927Y-122410585D01*
X158851789Y-122308768D01*
X158697445Y-122230127D01*
X158697436Y-122230124D01*
X158532707Y-122176599D01*
X158532701Y-122176598D01*
X158361611Y-122149500D01*
X157638389Y-122149500D01*
X157499144Y-122171554D01*
X157467292Y-122176599D01*
X157302563Y-122230124D01*
X157302554Y-122230127D01*
X157148210Y-122308768D01*
X157008072Y-122410585D01*
X156885585Y-122533072D01*
X156783768Y-122673210D01*
X156705127Y-122827554D01*
X156705124Y-122827563D01*
X156651599Y-122992292D01*
X156651598Y-122992299D01*
X156624500Y-123163389D01*
X156624500Y-123336611D01*
X156651598Y-123507701D01*
X156651599Y-123507705D01*
X156654051Y-123523184D01*
X156652778Y-123523385D01*
X156661308Y-123631823D01*
X156632160Y-123753207D01*
X156566930Y-123859643D01*
X156472001Y-123940713D01*
X156356667Y-123988480D01*
X156263539Y-123999500D01*
X152236461Y-123999500D01*
X152113163Y-123979972D01*
X152001935Y-123923298D01*
X151913663Y-123835026D01*
X151856989Y-123723798D01*
X151837461Y-123600500D01*
X151846597Y-123523286D01*
X151845949Y-123523184D01*
X151848400Y-123507705D01*
X151848402Y-123507701D01*
X151875500Y-123336611D01*
X151875500Y-123163389D01*
X151848402Y-122992299D01*
X151794873Y-122827555D01*
X151716232Y-122673212D01*
X151699367Y-122650000D01*
X151614414Y-122533072D01*
X151491927Y-122410585D01*
X151351789Y-122308768D01*
X151197445Y-122230127D01*
X151197436Y-122230124D01*
X151032707Y-122176599D01*
X151032701Y-122176598D01*
X150861611Y-122149500D01*
X150138389Y-122149500D01*
X149999144Y-122171554D01*
X149967292Y-122176599D01*
X149802563Y-122230124D01*
X149802554Y-122230127D01*
X149648210Y-122308768D01*
X149508072Y-122410585D01*
X149385585Y-122533072D01*
X149283768Y-122673210D01*
X149205127Y-122827554D01*
X149205124Y-122827563D01*
X149151599Y-122992292D01*
X149151598Y-122992299D01*
X149124500Y-123163389D01*
X149124500Y-123336611D01*
X149151598Y-123507701D01*
X149151599Y-123507705D01*
X149154051Y-123523184D01*
X149152778Y-123523385D01*
X149161308Y-123631823D01*
X149132160Y-123753207D01*
X149066930Y-123859643D01*
X148972001Y-123940713D01*
X148856667Y-123988480D01*
X148763539Y-123999500D01*
X144736461Y-123999500D01*
X144613163Y-123979972D01*
X144501935Y-123923298D01*
X144413663Y-123835026D01*
X144356989Y-123723798D01*
X144337461Y-123600500D01*
X144346597Y-123523286D01*
X144345949Y-123523184D01*
X144348400Y-123507705D01*
X144348402Y-123507701D01*
X144375500Y-123336611D01*
X144375500Y-123163389D01*
X144348402Y-122992299D01*
X144294873Y-122827555D01*
X144216232Y-122673212D01*
X144199367Y-122650000D01*
X144114414Y-122533072D01*
X143991927Y-122410585D01*
X143851789Y-122308768D01*
X143697445Y-122230127D01*
X143697436Y-122230124D01*
X143532707Y-122176599D01*
X143532701Y-122176598D01*
X143361611Y-122149500D01*
X142638389Y-122149500D01*
X142499144Y-122171554D01*
X142467292Y-122176599D01*
X142302563Y-122230124D01*
X142302554Y-122230127D01*
X142148210Y-122308768D01*
X142008072Y-122410585D01*
X141885585Y-122533072D01*
X141783768Y-122673210D01*
X141705127Y-122827554D01*
X141705124Y-122827563D01*
X141651599Y-122992292D01*
X141651598Y-122992299D01*
X141624500Y-123163389D01*
X141624500Y-123336611D01*
X141651598Y-123507701D01*
X141651599Y-123507705D01*
X141654051Y-123523184D01*
X141652778Y-123523385D01*
X141661308Y-123631823D01*
X141632160Y-123753207D01*
X141566930Y-123859643D01*
X141472001Y-123940713D01*
X141356667Y-123988480D01*
X141263539Y-123999500D01*
X137236461Y-123999500D01*
X137113163Y-123979972D01*
X137001935Y-123923298D01*
X136913663Y-123835026D01*
X136856989Y-123723798D01*
X136837461Y-123600500D01*
X136846597Y-123523286D01*
X136845949Y-123523184D01*
X136848400Y-123507705D01*
X136848402Y-123507701D01*
X136875500Y-123336611D01*
X136875500Y-123163389D01*
X136848402Y-122992299D01*
X136794873Y-122827555D01*
X136716232Y-122673212D01*
X136699367Y-122650000D01*
X136614414Y-122533072D01*
X136491927Y-122410585D01*
X136351789Y-122308768D01*
X136197445Y-122230127D01*
X136197436Y-122230124D01*
X136032707Y-122176599D01*
X136032701Y-122176598D01*
X135861611Y-122149500D01*
X135138389Y-122149500D01*
X134999144Y-122171554D01*
X134967292Y-122176599D01*
X134802563Y-122230124D01*
X134802554Y-122230127D01*
X134648210Y-122308768D01*
X134508072Y-122410585D01*
X134385585Y-122533072D01*
X134283768Y-122673210D01*
X134205127Y-122827554D01*
X134205124Y-122827563D01*
X134151599Y-122992292D01*
X134151598Y-122992299D01*
X134124500Y-123163389D01*
X134124500Y-123336611D01*
X134148491Y-123488083D01*
X134148491Y-123612918D01*
X134109915Y-123731642D01*
X134036538Y-123832636D01*
X133935545Y-123906012D01*
X133816820Y-123944588D01*
X133754403Y-123949500D01*
X132043246Y-123949500D01*
X131919948Y-123929972D01*
X131808720Y-123873298D01*
X131761110Y-123832636D01*
X127695110Y-119766636D01*
X127621734Y-119665642D01*
X127583158Y-119546917D01*
X127583158Y-119422083D01*
X127621734Y-119303358D01*
X127695110Y-119202364D01*
X127796104Y-119128988D01*
X127914829Y-119090412D01*
X127977246Y-119085500D01*
X129188150Y-119085500D01*
X129311448Y-119105028D01*
X129422676Y-119161702D01*
X129470286Y-119202364D01*
X131089711Y-120821789D01*
X131220821Y-120909394D01*
X131366503Y-120969737D01*
X131521158Y-121000500D01*
X131678842Y-121000500D01*
X174903150Y-121000500D01*
X175026448Y-121020028D01*
X175137676Y-121076702D01*
X175185286Y-121117364D01*
X176482636Y-122414714D01*
X176556012Y-122515708D01*
X176594588Y-122634433D01*
X176599500Y-122696850D01*
X176599500Y-124078841D01*
X176619852Y-124181161D01*
X176630263Y-124233497D01*
X176690606Y-124379179D01*
X176690607Y-124379181D01*
X176743315Y-124458064D01*
X176778211Y-124510289D01*
X179889711Y-127621789D01*
X179889714Y-127621791D01*
X180020819Y-127709393D01*
X180166503Y-127769738D01*
X180321157Y-127800500D01*
X180321158Y-127800500D01*
X184278842Y-127800500D01*
X184433497Y-127769737D01*
X184579179Y-127709394D01*
X184710289Y-127621789D01*
X185021789Y-127310289D01*
X185109394Y-127179179D01*
X185169738Y-127033497D01*
X185200500Y-126878842D01*
X185200500Y-126721157D01*
X185200500Y-125878712D01*
X186899500Y-125878712D01*
X186899500Y-126121288D01*
X186899765Y-126123298D01*
X186931161Y-126361789D01*
X186931162Y-126361791D01*
X186993943Y-126596093D01*
X186993946Y-126596100D01*
X187086776Y-126820212D01*
X187086777Y-126820215D01*
X187086779Y-126820218D01*
X187208064Y-127030290D01*
X187338771Y-127200630D01*
X187355735Y-127222738D01*
X187527262Y-127394265D01*
X187527266Y-127394268D01*
X187527267Y-127394269D01*
X187719709Y-127541935D01*
X187719711Y-127541936D01*
X187929788Y-127663224D01*
X188153900Y-127756054D01*
X188153903Y-127756054D01*
X188153906Y-127756056D01*
X188310107Y-127797910D01*
X188388208Y-127818837D01*
X188388210Y-127818838D01*
X188428294Y-127824115D01*
X188628712Y-127850500D01*
X188628717Y-127850500D01*
X188871283Y-127850500D01*
X188871288Y-127850500D01*
X189111789Y-127818838D01*
X189346100Y-127756054D01*
X189570212Y-127663224D01*
X189780289Y-127541936D01*
X189972738Y-127394265D01*
X190144265Y-127222738D01*
X190291936Y-127030289D01*
X190413224Y-126820212D01*
X190506054Y-126596100D01*
X190568838Y-126361789D01*
X190600500Y-126121288D01*
X190600500Y-125878712D01*
X190568838Y-125638211D01*
X190506054Y-125403900D01*
X190413224Y-125179788D01*
X190291936Y-124969711D01*
X190291935Y-124969709D01*
X190144269Y-124777267D01*
X190144268Y-124777266D01*
X190144265Y-124777262D01*
X189972738Y-124605735D01*
X189972733Y-124605731D01*
X189972732Y-124605730D01*
X189780290Y-124458064D01*
X189570218Y-124336779D01*
X189570215Y-124336777D01*
X189570212Y-124336776D01*
X189346100Y-124243946D01*
X189346093Y-124243943D01*
X189111791Y-124181162D01*
X189111789Y-124181161D01*
X188966753Y-124162067D01*
X188871288Y-124149500D01*
X188628712Y-124149500D01*
X188540268Y-124161143D01*
X188388210Y-124181161D01*
X188388208Y-124181162D01*
X188153906Y-124243943D01*
X187929781Y-124336779D01*
X187719709Y-124458064D01*
X187527267Y-124605730D01*
X187355730Y-124777267D01*
X187208064Y-124969709D01*
X187086779Y-125179781D01*
X186993943Y-125403906D01*
X186931162Y-125638208D01*
X186931161Y-125638210D01*
X186911143Y-125790268D01*
X186899500Y-125878712D01*
X185200500Y-125878712D01*
X185200500Y-124696849D01*
X185220028Y-124573551D01*
X185276702Y-124462323D01*
X185317358Y-124414719D01*
X188949814Y-120782262D01*
X189050808Y-120708887D01*
X189169533Y-120670311D01*
X189231950Y-120665399D01*
X191329164Y-120665399D01*
X191329172Y-120665399D01*
X191388783Y-120658991D01*
X191523631Y-120608696D01*
X191638846Y-120522446D01*
X191725096Y-120407231D01*
X191775391Y-120272383D01*
X191781800Y-120212773D01*
X191781799Y-113817828D01*
X191775391Y-113758217D01*
X191725096Y-113623369D01*
X191638846Y-113508154D01*
X191523631Y-113421904D01*
X191523630Y-113421903D01*
X191523629Y-113421903D01*
X191388782Y-113371608D01*
X191335581Y-113365888D01*
X191329173Y-113365200D01*
X191329172Y-113365200D01*
X185670836Y-113365200D01*
X185670829Y-113365200D01*
X185670828Y-113365201D01*
X185663649Y-113365972D01*
X185611219Y-113371608D01*
X185611217Y-113371609D01*
X185476372Y-113421902D01*
X185476365Y-113421905D01*
X185345442Y-113519915D01*
X185235034Y-113578172D01*
X185112028Y-113599459D01*
X185106329Y-113599500D01*
X183321158Y-113599500D01*
X183166505Y-113630262D01*
X183020818Y-113690607D01*
X182889714Y-113778208D01*
X182778208Y-113889714D01*
X182690607Y-114020818D01*
X182630262Y-114166505D01*
X182601239Y-114312417D01*
X182599500Y-114321158D01*
X182599500Y-114478842D01*
X182630263Y-114633497D01*
X182687975Y-114772826D01*
X182690607Y-114779181D01*
X182778208Y-114910285D01*
X182778211Y-114910289D01*
X182889711Y-115021789D01*
X183020821Y-115109394D01*
X183166503Y-115169737D01*
X183321158Y-115200500D01*
X184819200Y-115200500D01*
X184942498Y-115220028D01*
X185053726Y-115276702D01*
X185141998Y-115364974D01*
X185198672Y-115476202D01*
X185218200Y-115599500D01*
X185218200Y-120212763D01*
X185218201Y-120212770D01*
X185224608Y-120272380D01*
X185224609Y-120272382D01*
X185274902Y-120407227D01*
X185274903Y-120407229D01*
X185274904Y-120407231D01*
X185361154Y-120522446D01*
X185476369Y-120608696D01*
X185611217Y-120658991D01*
X185670827Y-120665400D01*
X185839252Y-120665399D01*
X185962545Y-120684927D01*
X186073774Y-120741600D01*
X186162045Y-120829871D01*
X186218720Y-120941099D01*
X186238249Y-121064397D01*
X186218721Y-121187695D01*
X186162048Y-121298924D01*
X186121385Y-121346534D01*
X183889711Y-123578208D01*
X183889712Y-123578209D01*
X183778211Y-123689710D01*
X183690607Y-123820818D01*
X183630262Y-123966505D01*
X183599500Y-124121158D01*
X183599500Y-125800500D01*
X183579972Y-125923798D01*
X183523298Y-126035026D01*
X183435026Y-126123298D01*
X183323798Y-126179972D01*
X183200500Y-126199500D01*
X180896850Y-126199500D01*
X180773552Y-126179972D01*
X180662324Y-126123298D01*
X180614714Y-126082636D01*
X178317364Y-123785286D01*
X178243988Y-123684292D01*
X178205412Y-123565567D01*
X178200500Y-123503150D01*
X178200500Y-123207143D01*
X178220028Y-123083845D01*
X178276702Y-122972617D01*
X178364974Y-122884345D01*
X178476202Y-122827671D01*
X178599500Y-122808143D01*
X178722798Y-122827671D01*
X178834026Y-122884345D01*
X178922298Y-122972617D01*
X178939096Y-122997678D01*
X178982681Y-123068341D01*
X179106658Y-123192318D01*
X179255874Y-123284356D01*
X179255882Y-123284359D01*
X179422301Y-123339505D01*
X179525022Y-123349999D01*
X179799999Y-123349998D01*
X179800000Y-123349998D01*
X180600000Y-123349998D01*
X180600001Y-123349999D01*
X180874969Y-123349999D01*
X180874984Y-123349998D01*
X180977696Y-123339505D01*
X180977701Y-123339504D01*
X181144115Y-123284360D01*
X181144125Y-123284356D01*
X181293341Y-123192318D01*
X181417318Y-123068341D01*
X181509356Y-122919125D01*
X181509359Y-122919117D01*
X181564505Y-122752698D01*
X181574998Y-122650000D01*
X180600000Y-122650000D01*
X180600000Y-123349998D01*
X179800000Y-123349998D01*
X179800000Y-122649000D01*
X179819528Y-122525702D01*
X179869518Y-122427590D01*
X179899925Y-122480255D01*
X179969745Y-122550075D01*
X180055255Y-122599444D01*
X180150630Y-122625000D01*
X180249370Y-122625000D01*
X180344745Y-122599444D01*
X180430255Y-122550075D01*
X180500075Y-122480255D01*
X180549444Y-122394745D01*
X180575000Y-122299370D01*
X180575000Y-122200630D01*
X180549444Y-122105255D01*
X180500075Y-122019745D01*
X180430255Y-121949925D01*
X180377590Y-121919518D01*
X180475702Y-121869528D01*
X180599000Y-121850000D01*
X181574996Y-121850000D01*
X181564506Y-121747306D01*
X181564503Y-121747295D01*
X181509360Y-121580884D01*
X181509356Y-121580874D01*
X181417318Y-121431658D01*
X181403121Y-121417461D01*
X181329745Y-121316467D01*
X181291169Y-121197742D01*
X181291169Y-121072908D01*
X181329745Y-120954183D01*
X181362461Y-120900797D01*
X181413992Y-120829871D01*
X181416232Y-120826788D01*
X181494873Y-120672445D01*
X181548402Y-120507701D01*
X181575500Y-120336611D01*
X181575500Y-120163389D01*
X181548402Y-119992299D01*
X181494873Y-119827555D01*
X181416232Y-119673212D01*
X181314414Y-119533072D01*
X181313478Y-119532136D01*
X181312694Y-119531057D01*
X181304227Y-119521143D01*
X181305007Y-119520476D01*
X181240102Y-119431142D01*
X181201526Y-119312417D01*
X181201526Y-119187583D01*
X181240102Y-119068858D01*
X181305007Y-118979523D01*
X181304227Y-118978857D01*
X181312694Y-118968942D01*
X181313478Y-118967864D01*
X181314414Y-118966928D01*
X181416232Y-118826788D01*
X181494873Y-118672445D01*
X181548402Y-118507701D01*
X181575500Y-118336611D01*
X181575500Y-118163389D01*
X181548402Y-117992299D01*
X181494873Y-117827555D01*
X181416232Y-117673212D01*
X181399368Y-117650001D01*
X181314414Y-117533072D01*
X181191927Y-117410585D01*
X181051789Y-117308768D01*
X180897445Y-117230127D01*
X180897436Y-117230124D01*
X180732707Y-117176599D01*
X180732701Y-117176598D01*
X180561611Y-117149500D01*
X179838389Y-117149500D01*
X179699144Y-117171554D01*
X179667292Y-117176599D01*
X179502563Y-117230124D01*
X179502554Y-117230127D01*
X179348210Y-117308768D01*
X179208072Y-117410585D01*
X179085585Y-117533072D01*
X178983768Y-117673210D01*
X178905127Y-117827554D01*
X178905124Y-117827563D01*
X178851599Y-117992292D01*
X178851598Y-117992299D01*
X178824500Y-118163389D01*
X178824500Y-118336611D01*
X178833361Y-118392555D01*
X178851599Y-118507707D01*
X178905124Y-118672436D01*
X178905127Y-118672445D01*
X178983768Y-118826789D01*
X179085585Y-118966927D01*
X179086522Y-118967864D01*
X179087305Y-118968942D01*
X179095773Y-118978857D01*
X179094992Y-118979523D01*
X179159898Y-119068858D01*
X179198474Y-119187583D01*
X179198474Y-119312417D01*
X179159898Y-119431142D01*
X179094992Y-119520476D01*
X179095773Y-119521143D01*
X179087305Y-119531057D01*
X179086522Y-119532136D01*
X179085585Y-119533072D01*
X178983768Y-119673210D01*
X178905127Y-119827554D01*
X178905124Y-119827563D01*
X178851599Y-119992292D01*
X178851598Y-119992299D01*
X178824500Y-120163389D01*
X178824500Y-120336611D01*
X178835685Y-120407229D01*
X178851599Y-120507707D01*
X178905124Y-120672436D01*
X178905127Y-120672445D01*
X178983768Y-120826788D01*
X179037540Y-120900799D01*
X179094214Y-121012028D01*
X179113742Y-121135325D01*
X179094213Y-121258623D01*
X179037540Y-121369852D01*
X178996882Y-121417456D01*
X178982686Y-121431651D01*
X178982682Y-121431657D01*
X178890643Y-121580874D01*
X178890642Y-121580878D01*
X178834991Y-121748819D01*
X178777670Y-121859715D01*
X178688886Y-121947471D01*
X178577329Y-122003496D01*
X178453919Y-122022305D01*
X178330737Y-122002059D01*
X178219841Y-121944738D01*
X178132085Y-121855954D01*
X178120341Y-121837082D01*
X178120285Y-121837120D01*
X178021788Y-121689710D01*
X177910289Y-121578210D01*
X177910289Y-121578211D01*
X175910289Y-119578211D01*
X175910285Y-119578208D01*
X175779181Y-119490607D01*
X175635619Y-119431142D01*
X175633497Y-119430263D01*
X175633495Y-119430262D01*
X175633494Y-119430262D01*
X175478842Y-119399500D01*
X132096850Y-119399500D01*
X131973552Y-119379972D01*
X131862324Y-119323298D01*
X131814714Y-119282636D01*
X131039779Y-118507701D01*
X130195289Y-117663211D01*
X130175519Y-117650001D01*
X130175518Y-117650000D01*
X134125003Y-117650000D01*
X134135493Y-117752693D01*
X134135496Y-117752704D01*
X134190639Y-117919115D01*
X134190643Y-117919125D01*
X134282681Y-118068341D01*
X134406658Y-118192318D01*
X134555874Y-118284356D01*
X134555882Y-118284359D01*
X134722301Y-118339505D01*
X134825022Y-118349999D01*
X135099999Y-118349998D01*
X135100000Y-118349998D01*
X135100000Y-117650001D01*
X135900000Y-117650001D01*
X135900000Y-118349998D01*
X135900001Y-118349999D01*
X136174969Y-118349999D01*
X136174984Y-118349998D01*
X136277696Y-118339505D01*
X136277701Y-118339504D01*
X136444115Y-118284360D01*
X136444125Y-118284356D01*
X136593341Y-118192318D01*
X136717318Y-118068341D01*
X136809356Y-117919125D01*
X136809359Y-117919117D01*
X136864505Y-117752698D01*
X136874998Y-117650000D01*
X141625003Y-117650000D01*
X141635493Y-117752693D01*
X141635496Y-117752704D01*
X141690639Y-117919115D01*
X141690643Y-117919125D01*
X141782681Y-118068341D01*
X141906658Y-118192318D01*
X142055874Y-118284356D01*
X142055882Y-118284359D01*
X142222301Y-118339505D01*
X142325022Y-118349999D01*
X142599999Y-118349998D01*
X142600000Y-118349998D01*
X142600000Y-117650001D01*
X143400000Y-117650001D01*
X143400000Y-118349998D01*
X143400001Y-118349999D01*
X143674969Y-118349999D01*
X143674984Y-118349998D01*
X143777696Y-118339505D01*
X143777701Y-118339504D01*
X143944115Y-118284360D01*
X143944125Y-118284356D01*
X144093341Y-118192318D01*
X144217318Y-118068341D01*
X144309356Y-117919125D01*
X144309359Y-117919117D01*
X144364505Y-117752698D01*
X144374998Y-117650000D01*
X149125003Y-117650000D01*
X149135493Y-117752693D01*
X149135496Y-117752704D01*
X149190639Y-117919115D01*
X149190643Y-117919125D01*
X149282681Y-118068341D01*
X149406658Y-118192318D01*
X149555874Y-118284356D01*
X149555882Y-118284359D01*
X149722301Y-118339505D01*
X149825022Y-118349999D01*
X150099999Y-118349998D01*
X150100000Y-118349998D01*
X150100000Y-117650001D01*
X150900000Y-117650001D01*
X150900000Y-118349998D01*
X150900001Y-118349999D01*
X151174969Y-118349999D01*
X151174984Y-118349998D01*
X151277696Y-118339505D01*
X151277701Y-118339504D01*
X151444115Y-118284360D01*
X151444125Y-118284356D01*
X151593341Y-118192318D01*
X151717318Y-118068341D01*
X151809356Y-117919125D01*
X151809359Y-117919117D01*
X151864505Y-117752698D01*
X151874998Y-117650000D01*
X156625003Y-117650000D01*
X156635493Y-117752693D01*
X156635496Y-117752704D01*
X156690639Y-117919115D01*
X156690643Y-117919125D01*
X156782681Y-118068341D01*
X156906658Y-118192318D01*
X157055874Y-118284356D01*
X157055882Y-118284359D01*
X157222301Y-118339505D01*
X157325022Y-118349999D01*
X157599999Y-118349998D01*
X157600000Y-118349998D01*
X157600000Y-117650001D01*
X158400000Y-117650001D01*
X158400000Y-118349998D01*
X158400001Y-118349999D01*
X158674969Y-118349999D01*
X158674984Y-118349998D01*
X158777696Y-118339505D01*
X158777701Y-118339504D01*
X158944115Y-118284360D01*
X158944125Y-118284356D01*
X159093341Y-118192318D01*
X159217318Y-118068341D01*
X159309356Y-117919125D01*
X159309359Y-117919117D01*
X159364505Y-117752698D01*
X159374998Y-117650000D01*
X164125003Y-117650000D01*
X164135493Y-117752693D01*
X164135496Y-117752704D01*
X164190639Y-117919115D01*
X164190643Y-117919125D01*
X164282681Y-118068341D01*
X164406658Y-118192318D01*
X164555874Y-118284356D01*
X164555882Y-118284359D01*
X164722301Y-118339505D01*
X164825022Y-118349999D01*
X165099999Y-118349998D01*
X165100000Y-118349998D01*
X165100000Y-117650001D01*
X165900000Y-117650001D01*
X165900000Y-118349998D01*
X165900001Y-118349999D01*
X166174969Y-118349999D01*
X166174984Y-118349998D01*
X166277696Y-118339505D01*
X166277701Y-118339504D01*
X166444115Y-118284360D01*
X166444125Y-118284356D01*
X166593341Y-118192318D01*
X166717318Y-118068341D01*
X166809356Y-117919125D01*
X166809359Y-117919117D01*
X166864505Y-117752698D01*
X166874998Y-117650000D01*
X171625003Y-117650000D01*
X171635493Y-117752693D01*
X171635496Y-117752704D01*
X171690639Y-117919115D01*
X171690643Y-117919125D01*
X171782681Y-118068341D01*
X171906658Y-118192318D01*
X172055874Y-118284356D01*
X172055882Y-118284359D01*
X172222301Y-118339505D01*
X172325022Y-118349999D01*
X172599999Y-118349998D01*
X172600000Y-118349998D01*
X172600000Y-117650001D01*
X173400000Y-117650001D01*
X173400000Y-118349998D01*
X173400001Y-118349999D01*
X173674969Y-118349999D01*
X173674984Y-118349998D01*
X173777696Y-118339505D01*
X173777701Y-118339504D01*
X173944115Y-118284360D01*
X173944125Y-118284356D01*
X174093341Y-118192318D01*
X174217318Y-118068341D01*
X174309356Y-117919125D01*
X174309359Y-117919117D01*
X174364505Y-117752698D01*
X174374998Y-117650000D01*
X173400001Y-117650000D01*
X173400000Y-117650001D01*
X172600000Y-117650001D01*
X172599999Y-117650000D01*
X171625003Y-117650000D01*
X166874998Y-117650000D01*
X165900001Y-117650000D01*
X165900000Y-117650001D01*
X165100000Y-117650001D01*
X165099999Y-117650000D01*
X164125003Y-117650000D01*
X159374998Y-117650000D01*
X158400001Y-117650000D01*
X158400000Y-117650001D01*
X157600000Y-117650001D01*
X157599999Y-117650000D01*
X156625003Y-117650000D01*
X151874998Y-117650000D01*
X150900001Y-117650000D01*
X150900000Y-117650001D01*
X150100000Y-117650001D01*
X150099999Y-117650000D01*
X149125003Y-117650000D01*
X144374998Y-117650000D01*
X143400001Y-117650000D01*
X143400000Y-117650001D01*
X142600000Y-117650001D01*
X142599999Y-117650000D01*
X141625003Y-117650000D01*
X136874998Y-117650000D01*
X135900001Y-117650000D01*
X135900000Y-117650001D01*
X135100000Y-117650001D01*
X135099999Y-117650000D01*
X134125003Y-117650000D01*
X130175518Y-117650000D01*
X130064181Y-117575607D01*
X129961492Y-117533072D01*
X129918497Y-117515263D01*
X129918495Y-117515262D01*
X129918494Y-117515262D01*
X129763842Y-117484500D01*
X129647246Y-117484500D01*
X129523948Y-117464972D01*
X129412720Y-117408298D01*
X129324448Y-117320026D01*
X129267774Y-117208798D01*
X129266480Y-117200630D01*
X135125000Y-117200630D01*
X135125000Y-117299370D01*
X135150556Y-117394745D01*
X135199925Y-117480255D01*
X135269745Y-117550075D01*
X135355255Y-117599444D01*
X135450630Y-117625000D01*
X135549370Y-117625000D01*
X135644745Y-117599444D01*
X135730255Y-117550075D01*
X135800075Y-117480255D01*
X135849444Y-117394745D01*
X135875000Y-117299370D01*
X135875000Y-117200630D01*
X142625000Y-117200630D01*
X142625000Y-117299370D01*
X142650556Y-117394745D01*
X142699925Y-117480255D01*
X142769745Y-117550075D01*
X142855255Y-117599444D01*
X142950630Y-117625000D01*
X143049370Y-117625000D01*
X143144745Y-117599444D01*
X143230255Y-117550075D01*
X143300075Y-117480255D01*
X143349444Y-117394745D01*
X143375000Y-117299370D01*
X143375000Y-117200630D01*
X150125000Y-117200630D01*
X150125000Y-117299370D01*
X150150556Y-117394745D01*
X150199925Y-117480255D01*
X150269745Y-117550075D01*
X150355255Y-117599444D01*
X150450630Y-117625000D01*
X150549370Y-117625000D01*
X150644745Y-117599444D01*
X150730255Y-117550075D01*
X150800075Y-117480255D01*
X150849444Y-117394745D01*
X150875000Y-117299370D01*
X150875000Y-117200630D01*
X157625000Y-117200630D01*
X157625000Y-117299370D01*
X157650556Y-117394745D01*
X157699925Y-117480255D01*
X157769745Y-117550075D01*
X157855255Y-117599444D01*
X157950630Y-117625000D01*
X158049370Y-117625000D01*
X158144745Y-117599444D01*
X158230255Y-117550075D01*
X158300075Y-117480255D01*
X158349444Y-117394745D01*
X158375000Y-117299370D01*
X158375000Y-117200630D01*
X165125000Y-117200630D01*
X165125000Y-117299370D01*
X165150556Y-117394745D01*
X165199925Y-117480255D01*
X165269745Y-117550075D01*
X165355255Y-117599444D01*
X165450630Y-117625000D01*
X165549370Y-117625000D01*
X165644745Y-117599444D01*
X165730255Y-117550075D01*
X165800075Y-117480255D01*
X165849444Y-117394745D01*
X165875000Y-117299370D01*
X165875000Y-117200630D01*
X172625000Y-117200630D01*
X172625000Y-117299370D01*
X172650556Y-117394745D01*
X172699925Y-117480255D01*
X172769745Y-117550075D01*
X172855255Y-117599444D01*
X172950630Y-117625000D01*
X173049370Y-117625000D01*
X173144745Y-117599444D01*
X173230255Y-117550075D01*
X173300075Y-117480255D01*
X173349444Y-117394745D01*
X173375000Y-117299370D01*
X173375000Y-117200630D01*
X173349444Y-117105255D01*
X173300075Y-117019745D01*
X173230255Y-116949925D01*
X173144745Y-116900556D01*
X173049370Y-116875000D01*
X172950630Y-116875000D01*
X172855255Y-116900556D01*
X172769745Y-116949925D01*
X172699925Y-117019745D01*
X172650556Y-117105255D01*
X172625000Y-117200630D01*
X165875000Y-117200630D01*
X165849444Y-117105255D01*
X165800075Y-117019745D01*
X165730255Y-116949925D01*
X165644745Y-116900556D01*
X165549370Y-116875000D01*
X165450630Y-116875000D01*
X165355255Y-116900556D01*
X165269745Y-116949925D01*
X165199925Y-117019745D01*
X165150556Y-117105255D01*
X165125000Y-117200630D01*
X158375000Y-117200630D01*
X158349444Y-117105255D01*
X158300075Y-117019745D01*
X158230255Y-116949925D01*
X158144745Y-116900556D01*
X158049370Y-116875000D01*
X157950630Y-116875000D01*
X157855255Y-116900556D01*
X157769745Y-116949925D01*
X157699925Y-117019745D01*
X157650556Y-117105255D01*
X157625000Y-117200630D01*
X150875000Y-117200630D01*
X150849444Y-117105255D01*
X150800075Y-117019745D01*
X150730255Y-116949925D01*
X150644745Y-116900556D01*
X150549370Y-116875000D01*
X150450630Y-116875000D01*
X150355255Y-116900556D01*
X150269745Y-116949925D01*
X150199925Y-117019745D01*
X150150556Y-117105255D01*
X150125000Y-117200630D01*
X143375000Y-117200630D01*
X143349444Y-117105255D01*
X143300075Y-117019745D01*
X143230255Y-116949925D01*
X143144745Y-116900556D01*
X143049370Y-116875000D01*
X142950630Y-116875000D01*
X142855255Y-116900556D01*
X142769745Y-116949925D01*
X142699925Y-117019745D01*
X142650556Y-117105255D01*
X142625000Y-117200630D01*
X135875000Y-117200630D01*
X135849444Y-117105255D01*
X135800075Y-117019745D01*
X135730255Y-116949925D01*
X135644745Y-116900556D01*
X135549370Y-116875000D01*
X135450630Y-116875000D01*
X135355255Y-116900556D01*
X135269745Y-116949925D01*
X135199925Y-117019745D01*
X135150556Y-117105255D01*
X135125000Y-117200630D01*
X129266480Y-117200630D01*
X129248246Y-117085500D01*
X129267774Y-116962202D01*
X129324448Y-116850974D01*
X129365110Y-116803364D01*
X129401110Y-116767364D01*
X129502104Y-116693988D01*
X129620829Y-116655412D01*
X129683246Y-116650500D01*
X130498414Y-116650500D01*
X130498417Y-116650500D01*
X130692826Y-116619709D01*
X130880026Y-116558884D01*
X130909261Y-116543987D01*
X131027986Y-116505412D01*
X131090403Y-116500500D01*
X133718868Y-116500500D01*
X133842166Y-116520028D01*
X133953394Y-116576702D01*
X134041666Y-116664974D01*
X134098340Y-116776202D01*
X134106843Y-116829892D01*
X134125001Y-116850000D01*
X136874997Y-116850000D01*
X136890104Y-116833271D01*
X136891093Y-116815404D01*
X136936170Y-116698992D01*
X137015014Y-116602207D01*
X137119907Y-116534523D01*
X137240582Y-116502566D01*
X137281130Y-116500500D01*
X141218868Y-116500500D01*
X141342166Y-116520028D01*
X141453394Y-116576702D01*
X141541666Y-116664974D01*
X141598340Y-116776202D01*
X141606843Y-116829892D01*
X141625001Y-116850000D01*
X144374997Y-116850000D01*
X144390104Y-116833271D01*
X144391093Y-116815404D01*
X144436170Y-116698992D01*
X144515014Y-116602207D01*
X144619907Y-116534523D01*
X144740582Y-116502566D01*
X144781130Y-116500500D01*
X148718868Y-116500500D01*
X148842166Y-116520028D01*
X148953394Y-116576702D01*
X149041666Y-116664974D01*
X149098340Y-116776202D01*
X149106843Y-116829892D01*
X149125001Y-116850000D01*
X151874997Y-116850000D01*
X151890104Y-116833271D01*
X151891093Y-116815404D01*
X151936170Y-116698992D01*
X152015014Y-116602207D01*
X152119907Y-116534523D01*
X152240582Y-116502566D01*
X152281130Y-116500500D01*
X156218868Y-116500500D01*
X156342166Y-116520028D01*
X156453394Y-116576702D01*
X156541666Y-116664974D01*
X156598340Y-116776202D01*
X156606843Y-116829892D01*
X156625001Y-116850000D01*
X159374997Y-116850000D01*
X159390104Y-116833271D01*
X159391093Y-116815404D01*
X159436170Y-116698992D01*
X159515014Y-116602207D01*
X159619907Y-116534523D01*
X159740582Y-116502566D01*
X159781130Y-116500500D01*
X163718868Y-116500500D01*
X163842166Y-116520028D01*
X163953394Y-116576702D01*
X164041666Y-116664974D01*
X164098340Y-116776202D01*
X164106843Y-116829892D01*
X164125001Y-116850000D01*
X166874997Y-116850000D01*
X166890104Y-116833271D01*
X166891093Y-116815404D01*
X166936170Y-116698992D01*
X167015014Y-116602207D01*
X167119907Y-116534523D01*
X167240582Y-116502566D01*
X167281130Y-116500500D01*
X171218868Y-116500500D01*
X171342166Y-116520028D01*
X171453394Y-116576702D01*
X171541666Y-116664974D01*
X171598340Y-116776202D01*
X171606843Y-116829892D01*
X171625001Y-116850000D01*
X174374996Y-116850000D01*
X174364506Y-116747306D01*
X174364503Y-116747295D01*
X174309360Y-116580884D01*
X174309356Y-116580874D01*
X174217318Y-116431658D01*
X174203121Y-116417461D01*
X174129745Y-116316467D01*
X174091169Y-116197742D01*
X174091169Y-116072908D01*
X174129745Y-115954183D01*
X174162461Y-115900797D01*
X174216232Y-115826788D01*
X174294873Y-115672445D01*
X174348402Y-115507701D01*
X174375500Y-115336611D01*
X174375500Y-115163389D01*
X174348402Y-114992299D01*
X174294873Y-114827555D01*
X174216232Y-114673212D01*
X174187377Y-114633497D01*
X174114414Y-114533072D01*
X174113478Y-114532136D01*
X174112694Y-114531057D01*
X174104227Y-114521143D01*
X174105007Y-114520476D01*
X174040102Y-114431142D01*
X174001526Y-114312417D01*
X174001526Y-114187583D01*
X174040102Y-114068858D01*
X174105007Y-113979523D01*
X174104227Y-113978857D01*
X174112694Y-113968942D01*
X174113478Y-113967864D01*
X174114414Y-113966928D01*
X174216232Y-113826788D01*
X174294873Y-113672445D01*
X174348402Y-113507701D01*
X174375500Y-113336611D01*
X174375500Y-113163389D01*
X174348402Y-112992299D01*
X174294873Y-112827555D01*
X174216232Y-112673212D01*
X174114414Y-112533072D01*
X173991928Y-112410586D01*
X173991927Y-112410585D01*
X173851789Y-112308768D01*
X173697445Y-112230127D01*
X173697436Y-112230124D01*
X173532707Y-112176599D01*
X173532701Y-112176598D01*
X173361611Y-112149500D01*
X172638389Y-112149500D01*
X172499144Y-112171554D01*
X172467292Y-112176599D01*
X172302563Y-112230124D01*
X172302554Y-112230127D01*
X172148210Y-112308768D01*
X172008072Y-112410585D01*
X171885585Y-112533072D01*
X171783768Y-112673210D01*
X171705127Y-112827554D01*
X171705124Y-112827563D01*
X171651599Y-112992292D01*
X171651598Y-112992299D01*
X171624500Y-113163389D01*
X171624500Y-113336611D01*
X171651598Y-113507701D01*
X171651599Y-113507705D01*
X171654051Y-113523184D01*
X171652778Y-113523385D01*
X171661308Y-113631823D01*
X171632160Y-113753207D01*
X171566930Y-113859643D01*
X171472001Y-113940713D01*
X171356667Y-113988480D01*
X171263539Y-113999500D01*
X167236461Y-113999500D01*
X167113163Y-113979972D01*
X167001935Y-113923298D01*
X166913663Y-113835026D01*
X166856989Y-113723798D01*
X166837461Y-113600500D01*
X166846597Y-113523286D01*
X166845949Y-113523184D01*
X166848400Y-113507705D01*
X166848402Y-113507701D01*
X166875500Y-113336611D01*
X166875500Y-113163389D01*
X166848402Y-112992299D01*
X166794873Y-112827555D01*
X166716232Y-112673212D01*
X166614414Y-112533072D01*
X166491928Y-112410586D01*
X166491927Y-112410585D01*
X166351789Y-112308768D01*
X166197445Y-112230127D01*
X166197436Y-112230124D01*
X166032707Y-112176599D01*
X166032701Y-112176598D01*
X165861611Y-112149500D01*
X165138389Y-112149500D01*
X164999144Y-112171554D01*
X164967292Y-112176599D01*
X164802563Y-112230124D01*
X164802554Y-112230127D01*
X164648210Y-112308768D01*
X164508072Y-112410585D01*
X164385585Y-112533072D01*
X164283768Y-112673210D01*
X164205127Y-112827554D01*
X164205124Y-112827563D01*
X164151599Y-112992292D01*
X164151598Y-112992299D01*
X164124500Y-113163389D01*
X164124500Y-113336611D01*
X164151598Y-113507701D01*
X164151599Y-113507705D01*
X164154051Y-113523184D01*
X164152778Y-113523385D01*
X164161308Y-113631823D01*
X164132160Y-113753207D01*
X164066930Y-113859643D01*
X163972001Y-113940713D01*
X163856667Y-113988480D01*
X163763539Y-113999500D01*
X159736461Y-113999500D01*
X159613163Y-113979972D01*
X159501935Y-113923298D01*
X159413663Y-113835026D01*
X159356989Y-113723798D01*
X159337461Y-113600500D01*
X159346597Y-113523286D01*
X159345949Y-113523184D01*
X159348400Y-113507705D01*
X159348402Y-113507701D01*
X159375500Y-113336611D01*
X159375500Y-113163389D01*
X159348402Y-112992299D01*
X159294873Y-112827555D01*
X159216232Y-112673212D01*
X159114414Y-112533072D01*
X158991928Y-112410586D01*
X158991927Y-112410585D01*
X158851789Y-112308768D01*
X158697445Y-112230127D01*
X158697436Y-112230124D01*
X158532707Y-112176599D01*
X158532701Y-112176598D01*
X158361611Y-112149500D01*
X157638389Y-112149500D01*
X157499144Y-112171554D01*
X157467292Y-112176599D01*
X157302563Y-112230124D01*
X157302554Y-112230127D01*
X157148210Y-112308768D01*
X157008072Y-112410585D01*
X156885585Y-112533072D01*
X156783768Y-112673210D01*
X156705127Y-112827554D01*
X156705124Y-112827563D01*
X156651599Y-112992292D01*
X156651598Y-112992299D01*
X156624500Y-113163389D01*
X156624500Y-113336611D01*
X156651598Y-113507701D01*
X156651599Y-113507705D01*
X156654051Y-113523184D01*
X156652778Y-113523385D01*
X156661308Y-113631823D01*
X156632160Y-113753207D01*
X156566930Y-113859643D01*
X156472001Y-113940713D01*
X156356667Y-113988480D01*
X156263539Y-113999500D01*
X152236461Y-113999500D01*
X152113163Y-113979972D01*
X152001935Y-113923298D01*
X151913663Y-113835026D01*
X151856989Y-113723798D01*
X151837461Y-113600500D01*
X151846597Y-113523286D01*
X151845949Y-113523184D01*
X151848400Y-113507705D01*
X151848402Y-113507701D01*
X151875500Y-113336611D01*
X151875500Y-113163389D01*
X151848402Y-112992299D01*
X151794873Y-112827555D01*
X151716232Y-112673212D01*
X151614414Y-112533072D01*
X151491928Y-112410586D01*
X151491927Y-112410585D01*
X151351789Y-112308768D01*
X151197445Y-112230127D01*
X151197436Y-112230124D01*
X151032707Y-112176599D01*
X151032701Y-112176598D01*
X150861611Y-112149500D01*
X150138389Y-112149500D01*
X149999144Y-112171554D01*
X149967292Y-112176599D01*
X149802563Y-112230124D01*
X149802554Y-112230127D01*
X149648210Y-112308768D01*
X149508072Y-112410585D01*
X149385585Y-112533072D01*
X149283768Y-112673210D01*
X149205127Y-112827554D01*
X149205124Y-112827563D01*
X149151599Y-112992292D01*
X149151598Y-112992299D01*
X149124500Y-113163389D01*
X149124500Y-113336611D01*
X149151598Y-113507701D01*
X149151599Y-113507705D01*
X149154051Y-113523184D01*
X149152778Y-113523385D01*
X149161308Y-113631823D01*
X149132160Y-113753207D01*
X149066930Y-113859643D01*
X148972001Y-113940713D01*
X148856667Y-113988480D01*
X148763539Y-113999500D01*
X144736461Y-113999500D01*
X144613163Y-113979972D01*
X144501935Y-113923298D01*
X144413663Y-113835026D01*
X144356989Y-113723798D01*
X144337461Y-113600500D01*
X144346597Y-113523286D01*
X144345949Y-113523184D01*
X144348400Y-113507705D01*
X144348402Y-113507701D01*
X144375500Y-113336611D01*
X144375500Y-113163389D01*
X144348402Y-112992299D01*
X144294873Y-112827555D01*
X144216232Y-112673212D01*
X144114414Y-112533072D01*
X143991928Y-112410586D01*
X143991927Y-112410585D01*
X143851789Y-112308768D01*
X143697445Y-112230127D01*
X143697436Y-112230124D01*
X143532707Y-112176599D01*
X143532701Y-112176598D01*
X143361611Y-112149500D01*
X142638389Y-112149500D01*
X142499144Y-112171554D01*
X142467292Y-112176599D01*
X142302563Y-112230124D01*
X142302554Y-112230127D01*
X142148210Y-112308768D01*
X142008072Y-112410585D01*
X141885585Y-112533072D01*
X141783768Y-112673210D01*
X141705127Y-112827554D01*
X141705124Y-112827563D01*
X141651599Y-112992292D01*
X141651598Y-112992299D01*
X141624500Y-113163389D01*
X141624500Y-113336611D01*
X141651598Y-113507701D01*
X141651599Y-113507705D01*
X141654051Y-113523184D01*
X141652778Y-113523385D01*
X141661308Y-113631823D01*
X141632160Y-113753207D01*
X141566930Y-113859643D01*
X141472001Y-113940713D01*
X141356667Y-113988480D01*
X141263539Y-113999500D01*
X137236461Y-113999500D01*
X137113163Y-113979972D01*
X137001935Y-113923298D01*
X136913663Y-113835026D01*
X136856989Y-113723798D01*
X136837461Y-113600500D01*
X136846597Y-113523286D01*
X136845949Y-113523184D01*
X136848400Y-113507705D01*
X136848402Y-113507701D01*
X136875500Y-113336611D01*
X136875500Y-113163389D01*
X136848402Y-112992299D01*
X136794873Y-112827555D01*
X136716232Y-112673212D01*
X136614414Y-112533072D01*
X136491928Y-112410586D01*
X136491927Y-112410585D01*
X136351789Y-112308768D01*
X136197445Y-112230127D01*
X136197436Y-112230124D01*
X136032707Y-112176599D01*
X136032701Y-112176598D01*
X135861611Y-112149500D01*
X135138389Y-112149500D01*
X134999144Y-112171554D01*
X134967292Y-112176599D01*
X134802563Y-112230124D01*
X134802554Y-112230127D01*
X134648210Y-112308768D01*
X134508072Y-112410585D01*
X134385585Y-112533072D01*
X134283768Y-112673210D01*
X134205127Y-112827554D01*
X134205124Y-112827563D01*
X134151599Y-112992292D01*
X134151598Y-112992299D01*
X134124500Y-113163389D01*
X134124500Y-113336611D01*
X134151598Y-113507701D01*
X134151599Y-113507705D01*
X134154051Y-113523184D01*
X134152778Y-113523385D01*
X134161308Y-113631823D01*
X134132160Y-113753207D01*
X134066930Y-113859643D01*
X133972001Y-113940713D01*
X133856667Y-113988480D01*
X133763539Y-113999500D01*
X130648417Y-113999500D01*
X130451583Y-113999500D01*
X130316985Y-114020818D01*
X130257167Y-114030292D01*
X130069975Y-114091115D01*
X130040739Y-114106012D01*
X129922014Y-114144588D01*
X129859597Y-114149500D01*
X129098416Y-114149500D01*
X128901583Y-114149500D01*
X128707173Y-114180291D01*
X128707172Y-114180291D01*
X128700112Y-114182585D01*
X128685990Y-114187174D01*
X128685989Y-114187174D01*
X128519975Y-114241115D01*
X128411920Y-114296172D01*
X128344600Y-114330472D01*
X128185349Y-114446175D01*
X125915938Y-116715585D01*
X125814945Y-116788961D01*
X125696220Y-116827537D01*
X125571385Y-116827537D01*
X125452661Y-116788961D01*
X125409045Y-116763122D01*
X125347775Y-116721349D01*
X125347774Y-116721348D01*
X125347772Y-116721347D01*
X125200655Y-116650500D01*
X125104641Y-116604262D01*
X124846772Y-116524720D01*
X124846764Y-116524718D01*
X124579939Y-116484500D01*
X124579929Y-116484500D01*
X124578246Y-116484500D01*
X124576736Y-116484260D01*
X124565046Y-116483385D01*
X124565118Y-116482420D01*
X124454948Y-116464972D01*
X124343720Y-116408298D01*
X124296110Y-116367636D01*
X123614610Y-115686136D01*
X123541234Y-115585142D01*
X123502658Y-115466417D01*
X123502658Y-115341583D01*
X123541234Y-115222858D01*
X123614610Y-115121864D01*
X123715604Y-115048488D01*
X123834329Y-115009912D01*
X123896746Y-115005000D01*
X124044999Y-115005000D01*
X124045000Y-115004999D01*
X124045000Y-113719476D01*
X124137110Y-113781022D01*
X124255402Y-113830021D01*
X124380981Y-113855000D01*
X124509019Y-113855000D01*
X124634598Y-113830021D01*
X124752890Y-113781022D01*
X124845000Y-113719476D01*
X124845000Y-115004999D01*
X124845001Y-115005000D01*
X125792825Y-115005000D01*
X125792830Y-115004999D01*
X125852373Y-114998598D01*
X125852377Y-114998597D01*
X125987090Y-114948352D01*
X126102184Y-114862192D01*
X126102192Y-114862184D01*
X126188352Y-114747090D01*
X126238597Y-114612377D01*
X126238598Y-114612373D01*
X126244999Y-114552830D01*
X126245000Y-114552825D01*
X126245000Y-113605001D01*
X126244999Y-113605000D01*
X124959477Y-113605000D01*
X125021022Y-113512890D01*
X125070021Y-113394598D01*
X125095000Y-113269019D01*
X125095000Y-113140981D01*
X125070021Y-113015402D01*
X125021022Y-112897110D01*
X124959477Y-112805000D01*
X126244999Y-112805000D01*
X126245000Y-112804999D01*
X126245000Y-111857175D01*
X126244999Y-111857169D01*
X126238598Y-111797626D01*
X126238597Y-111797622D01*
X126188352Y-111662909D01*
X126102192Y-111547815D01*
X126102184Y-111547807D01*
X125987090Y-111461647D01*
X125852377Y-111411402D01*
X125852373Y-111411401D01*
X125792830Y-111405000D01*
X124845001Y-111405000D01*
X124845000Y-111405001D01*
X124845000Y-112690523D01*
X124752890Y-112628978D01*
X124634598Y-112579979D01*
X124509019Y-112555000D01*
X124380981Y-112555000D01*
X124255402Y-112579979D01*
X124137110Y-112628978D01*
X124045000Y-112690523D01*
X124045000Y-111405001D01*
X124044999Y-111405000D01*
X123097169Y-111405000D01*
X123037626Y-111411401D01*
X123037622Y-111411402D01*
X122902909Y-111461647D01*
X122787815Y-111547807D01*
X122787807Y-111547815D01*
X122701648Y-111662908D01*
X122663343Y-111765609D01*
X122601957Y-111874308D01*
X122509986Y-111958718D01*
X122396432Y-112010576D01*
X122272411Y-112024806D01*
X122150063Y-112000015D01*
X122041364Y-111938629D01*
X121956954Y-111846658D01*
X121905096Y-111733104D01*
X121890500Y-111626172D01*
X121890500Y-108628306D01*
X121910028Y-108505008D01*
X121966702Y-108393780D01*
X122054974Y-108305508D01*
X122166202Y-108248834D01*
X122289500Y-108229306D01*
X122412798Y-108248834D01*
X122499547Y-108289070D01*
X122663186Y-108390391D01*
X122663188Y-108390391D01*
X122663190Y-108390393D01*
X122862703Y-108467685D01*
X122862705Y-108467685D01*
X122862707Y-108467686D01*
X122967861Y-108487342D01*
X123073017Y-108506999D01*
X123073019Y-108507000D01*
X123073020Y-108507000D01*
X123286981Y-108507000D01*
X123286981Y-108506999D01*
X123497297Y-108467685D01*
X123696810Y-108390393D01*
X123878722Y-108277758D01*
X123957781Y-108205686D01*
X124036839Y-108133616D01*
X124036839Y-108133615D01*
X124036841Y-108133614D01*
X124131593Y-108008141D01*
X124221478Y-107921519D01*
X124333735Y-107866910D01*
X124457372Y-107849663D01*
X124580288Y-107871466D01*
X124690451Y-107930186D01*
X124768406Y-108008141D01*
X124773308Y-108014632D01*
X124863159Y-108133614D01*
X124863160Y-108133616D01*
X125021275Y-108277756D01*
X125021277Y-108277758D01*
X125203186Y-108390391D01*
X125203188Y-108390391D01*
X125203190Y-108390393D01*
X125402703Y-108467685D01*
X125402705Y-108467685D01*
X125402707Y-108467686D01*
X125507861Y-108487342D01*
X125613017Y-108506999D01*
X125613019Y-108507000D01*
X125613020Y-108507000D01*
X125826981Y-108507000D01*
X125826981Y-108506999D01*
X126037297Y-108467685D01*
X126236810Y-108390393D01*
X126418722Y-108277758D01*
X126497781Y-108205686D01*
X126576839Y-108133616D01*
X126576839Y-108133615D01*
X126576841Y-108133614D01*
X126671593Y-108008141D01*
X126761478Y-107921519D01*
X126873735Y-107866910D01*
X126997372Y-107849663D01*
X127120288Y-107871466D01*
X127230451Y-107930186D01*
X127308406Y-108008141D01*
X127313308Y-108014632D01*
X127403159Y-108133614D01*
X127403160Y-108133616D01*
X127561275Y-108277756D01*
X127561277Y-108277758D01*
X127743186Y-108390391D01*
X127743188Y-108390391D01*
X127743190Y-108390393D01*
X127942703Y-108467685D01*
X127942705Y-108467685D01*
X127942707Y-108467686D01*
X128047861Y-108487342D01*
X128153017Y-108506999D01*
X128153019Y-108507000D01*
X128153020Y-108507000D01*
X128366981Y-108507000D01*
X128366981Y-108506999D01*
X128577297Y-108467685D01*
X128776810Y-108390393D01*
X128958722Y-108277758D01*
X129037781Y-108205686D01*
X129116839Y-108133616D01*
X129116839Y-108133615D01*
X129116841Y-108133614D01*
X129211593Y-108008141D01*
X129301478Y-107921519D01*
X129413735Y-107866910D01*
X129537372Y-107849663D01*
X129660288Y-107871466D01*
X129770451Y-107930186D01*
X129848406Y-108008141D01*
X129853308Y-108014632D01*
X129943159Y-108133614D01*
X129943160Y-108133616D01*
X130101275Y-108277756D01*
X130101277Y-108277758D01*
X130283186Y-108390391D01*
X130283188Y-108390391D01*
X130283190Y-108390393D01*
X130482703Y-108467685D01*
X130482705Y-108467685D01*
X130482707Y-108467686D01*
X130587861Y-108487342D01*
X130693017Y-108506999D01*
X130693019Y-108507000D01*
X130693020Y-108507000D01*
X130906981Y-108507000D01*
X130906981Y-108506999D01*
X131117297Y-108467685D01*
X131316810Y-108390393D01*
X131498722Y-108277758D01*
X131577781Y-108205686D01*
X131656839Y-108133616D01*
X131656839Y-108133615D01*
X131656841Y-108133614D01*
X131751593Y-108008141D01*
X131841478Y-107921519D01*
X131953735Y-107866910D01*
X132077372Y-107849663D01*
X132200288Y-107871466D01*
X132310451Y-107930186D01*
X132388406Y-108008141D01*
X132393308Y-108014632D01*
X132483159Y-108133614D01*
X132483160Y-108133616D01*
X132641275Y-108277756D01*
X132641277Y-108277758D01*
X132823186Y-108390391D01*
X132823188Y-108390391D01*
X132823190Y-108390393D01*
X133022703Y-108467685D01*
X133022705Y-108467685D01*
X133022707Y-108467686D01*
X133127861Y-108487342D01*
X133233017Y-108506999D01*
X133233019Y-108507000D01*
X133233020Y-108507000D01*
X133446981Y-108507000D01*
X133446981Y-108506999D01*
X133657297Y-108467685D01*
X133856810Y-108390393D01*
X134038722Y-108277758D01*
X134117781Y-108205686D01*
X134196839Y-108133616D01*
X134196839Y-108133615D01*
X134196841Y-108133614D01*
X134291593Y-108008141D01*
X134381478Y-107921519D01*
X134493735Y-107866910D01*
X134617372Y-107849663D01*
X134740288Y-107871466D01*
X134850451Y-107930186D01*
X134928406Y-108008141D01*
X134933308Y-108014632D01*
X135023159Y-108133614D01*
X135023160Y-108133616D01*
X135181275Y-108277756D01*
X135181277Y-108277758D01*
X135363186Y-108390391D01*
X135363188Y-108390391D01*
X135363190Y-108390393D01*
X135562703Y-108467685D01*
X135562705Y-108467685D01*
X135562707Y-108467686D01*
X135667861Y-108487342D01*
X135773017Y-108506999D01*
X135773019Y-108507000D01*
X135773020Y-108507000D01*
X135986981Y-108507000D01*
X135986981Y-108506999D01*
X136197297Y-108467685D01*
X136396810Y-108390393D01*
X136578722Y-108277758D01*
X136657781Y-108205686D01*
X136736839Y-108133616D01*
X136736839Y-108133615D01*
X136736841Y-108133614D01*
X136831593Y-108008141D01*
X136921478Y-107921519D01*
X137033735Y-107866910D01*
X137157372Y-107849663D01*
X137280288Y-107871466D01*
X137390451Y-107930186D01*
X137468406Y-108008141D01*
X137473308Y-108014632D01*
X137563159Y-108133614D01*
X137563160Y-108133616D01*
X137721275Y-108277756D01*
X137721277Y-108277758D01*
X137903186Y-108390391D01*
X137903188Y-108390391D01*
X137903190Y-108390393D01*
X138102703Y-108467685D01*
X138102705Y-108467685D01*
X138102707Y-108467686D01*
X138207861Y-108487342D01*
X138313017Y-108506999D01*
X138313019Y-108507000D01*
X138313020Y-108507000D01*
X138526981Y-108507000D01*
X138526981Y-108506999D01*
X138737297Y-108467685D01*
X138936810Y-108390393D01*
X139118722Y-108277758D01*
X139197781Y-108205686D01*
X139276839Y-108133616D01*
X139276839Y-108133615D01*
X139276841Y-108133614D01*
X139371593Y-108008141D01*
X139461478Y-107921519D01*
X139573735Y-107866910D01*
X139697372Y-107849663D01*
X139820288Y-107871466D01*
X139930451Y-107930186D01*
X140008406Y-108008141D01*
X140013308Y-108014632D01*
X140103159Y-108133614D01*
X140103160Y-108133616D01*
X140261275Y-108277756D01*
X140261277Y-108277758D01*
X140443186Y-108390391D01*
X140443188Y-108390391D01*
X140443190Y-108390393D01*
X140642703Y-108467685D01*
X140642705Y-108467685D01*
X140642707Y-108467686D01*
X140747861Y-108487342D01*
X140853017Y-108506999D01*
X140853019Y-108507000D01*
X140853020Y-108507000D01*
X141066981Y-108507000D01*
X141066981Y-108506999D01*
X141277297Y-108467685D01*
X141476810Y-108390393D01*
X141658722Y-108277758D01*
X141737781Y-108205686D01*
X141816839Y-108133616D01*
X141816839Y-108133615D01*
X141816841Y-108133614D01*
X141911593Y-108008141D01*
X142001478Y-107921519D01*
X142113735Y-107866910D01*
X142237372Y-107849663D01*
X142360288Y-107871466D01*
X142470451Y-107930186D01*
X142548406Y-108008141D01*
X142553308Y-108014632D01*
X142643159Y-108133614D01*
X142643160Y-108133616D01*
X142801275Y-108277756D01*
X142801277Y-108277758D01*
X142983186Y-108390391D01*
X142983188Y-108390391D01*
X142983190Y-108390393D01*
X143182703Y-108467685D01*
X143182705Y-108467685D01*
X143182707Y-108467686D01*
X143287861Y-108487342D01*
X143393017Y-108506999D01*
X143393019Y-108507000D01*
X143393020Y-108507000D01*
X143606981Y-108507000D01*
X143606981Y-108506999D01*
X143817297Y-108467685D01*
X144016810Y-108390393D01*
X144198722Y-108277758D01*
X144277781Y-108205686D01*
X144356839Y-108133616D01*
X144356839Y-108133615D01*
X144356841Y-108133614D01*
X144451593Y-108008141D01*
X144541478Y-107921519D01*
X144653735Y-107866910D01*
X144777372Y-107849663D01*
X144900288Y-107871466D01*
X145010451Y-107930186D01*
X145088406Y-108008141D01*
X145093308Y-108014632D01*
X145183159Y-108133614D01*
X145183160Y-108133616D01*
X145341275Y-108277756D01*
X145341277Y-108277758D01*
X145523186Y-108390391D01*
X145523188Y-108390391D01*
X145523190Y-108390393D01*
X145722703Y-108467685D01*
X145722705Y-108467685D01*
X145722707Y-108467686D01*
X145827861Y-108487342D01*
X145933017Y-108506999D01*
X145933019Y-108507000D01*
X145933020Y-108507000D01*
X146146981Y-108507000D01*
X146146981Y-108506999D01*
X146357297Y-108467685D01*
X146556810Y-108390393D01*
X146738722Y-108277758D01*
X146817781Y-108205686D01*
X146896839Y-108133616D01*
X146896839Y-108133615D01*
X146896841Y-108133614D01*
X146991593Y-108008141D01*
X147081478Y-107921519D01*
X147193735Y-107866910D01*
X147317372Y-107849663D01*
X147440288Y-107871466D01*
X147550451Y-107930186D01*
X147628406Y-108008141D01*
X147633308Y-108014632D01*
X147723159Y-108133614D01*
X147723160Y-108133616D01*
X147881275Y-108277756D01*
X147881277Y-108277758D01*
X148063186Y-108390391D01*
X148063188Y-108390391D01*
X148063190Y-108390393D01*
X148262703Y-108467685D01*
X148262705Y-108467685D01*
X148262707Y-108467686D01*
X148367861Y-108487342D01*
X148473017Y-108506999D01*
X148473019Y-108507000D01*
X148473020Y-108507000D01*
X148686981Y-108507000D01*
X148686981Y-108506999D01*
X148897297Y-108467685D01*
X149096810Y-108390393D01*
X149278722Y-108277758D01*
X149357781Y-108205686D01*
X149436839Y-108133616D01*
X149436839Y-108133615D01*
X149436841Y-108133614D01*
X149531593Y-108008141D01*
X149621478Y-107921519D01*
X149733735Y-107866910D01*
X149857372Y-107849663D01*
X149980288Y-107871466D01*
X150090451Y-107930186D01*
X150168406Y-108008141D01*
X150173308Y-108014632D01*
X150263159Y-108133614D01*
X150263160Y-108133616D01*
X150421275Y-108277756D01*
X150421277Y-108277758D01*
X150603186Y-108390391D01*
X150603188Y-108390391D01*
X150603190Y-108390393D01*
X150802703Y-108467685D01*
X150802705Y-108467685D01*
X150802707Y-108467686D01*
X150907861Y-108487342D01*
X151013017Y-108506999D01*
X151013019Y-108507000D01*
X151013020Y-108507000D01*
X151226981Y-108507000D01*
X151226981Y-108506999D01*
X151437297Y-108467685D01*
X151636810Y-108390393D01*
X151818722Y-108277758D01*
X151897781Y-108205686D01*
X151976839Y-108133616D01*
X151976839Y-108133615D01*
X151976841Y-108133614D01*
X152071593Y-108008141D01*
X152161478Y-107921519D01*
X152273735Y-107866910D01*
X152397372Y-107849663D01*
X152520288Y-107871466D01*
X152630451Y-107930186D01*
X152708406Y-108008141D01*
X152713308Y-108014632D01*
X152803159Y-108133614D01*
X152803160Y-108133616D01*
X152961275Y-108277756D01*
X152961277Y-108277758D01*
X153143186Y-108390391D01*
X153143188Y-108390391D01*
X153143190Y-108390393D01*
X153342703Y-108467685D01*
X153342705Y-108467685D01*
X153342707Y-108467686D01*
X153447861Y-108487342D01*
X153553017Y-108506999D01*
X153553019Y-108507000D01*
X153553020Y-108507000D01*
X153766981Y-108507000D01*
X153766981Y-108506999D01*
X153977297Y-108467685D01*
X154176810Y-108390393D01*
X154358722Y-108277758D01*
X154437781Y-108205686D01*
X154516839Y-108133616D01*
X154516839Y-108133615D01*
X154516841Y-108133614D01*
X154611593Y-108008141D01*
X154701478Y-107921519D01*
X154813735Y-107866910D01*
X154937372Y-107849663D01*
X155060288Y-107871466D01*
X155170451Y-107930186D01*
X155248406Y-108008141D01*
X155253308Y-108014632D01*
X155343159Y-108133614D01*
X155343160Y-108133616D01*
X155501275Y-108277756D01*
X155501277Y-108277758D01*
X155683186Y-108390391D01*
X155683188Y-108390391D01*
X155683190Y-108390393D01*
X155882703Y-108467685D01*
X155882705Y-108467685D01*
X155882707Y-108467686D01*
X155987861Y-108487342D01*
X156093017Y-108506999D01*
X156093019Y-108507000D01*
X156093020Y-108507000D01*
X156306981Y-108507000D01*
X156306981Y-108506999D01*
X156517297Y-108467685D01*
X156716810Y-108390393D01*
X156898722Y-108277758D01*
X156977781Y-108205686D01*
X157056839Y-108133616D01*
X157056839Y-108133615D01*
X157056841Y-108133614D01*
X157151593Y-108008141D01*
X157241478Y-107921519D01*
X157353735Y-107866910D01*
X157477372Y-107849663D01*
X157600288Y-107871466D01*
X157710451Y-107930186D01*
X157788406Y-108008141D01*
X157793308Y-108014632D01*
X157883159Y-108133614D01*
X157883160Y-108133616D01*
X158041275Y-108277756D01*
X158041277Y-108277758D01*
X158223186Y-108390391D01*
X158223188Y-108390391D01*
X158223190Y-108390393D01*
X158422703Y-108467685D01*
X158422705Y-108467685D01*
X158422707Y-108467686D01*
X158527861Y-108487342D01*
X158633017Y-108506999D01*
X158633019Y-108507000D01*
X158633020Y-108507000D01*
X158846981Y-108507000D01*
X158846981Y-108506999D01*
X159057297Y-108467685D01*
X159256810Y-108390393D01*
X159438722Y-108277758D01*
X159517781Y-108205686D01*
X159596839Y-108133616D01*
X159596839Y-108133615D01*
X159596841Y-108133614D01*
X159691593Y-108008141D01*
X159781478Y-107921519D01*
X159893735Y-107866910D01*
X160017372Y-107849663D01*
X160140288Y-107871466D01*
X160250451Y-107930186D01*
X160328406Y-108008141D01*
X160333308Y-108014632D01*
X160423159Y-108133614D01*
X160423160Y-108133616D01*
X160581275Y-108277756D01*
X160581277Y-108277758D01*
X160763186Y-108390391D01*
X160763188Y-108390391D01*
X160763190Y-108390393D01*
X160962703Y-108467685D01*
X160962705Y-108467685D01*
X160962707Y-108467686D01*
X161067861Y-108487342D01*
X161173017Y-108506999D01*
X161173019Y-108507000D01*
X161173020Y-108507000D01*
X161386981Y-108507000D01*
X161386981Y-108506999D01*
X161597297Y-108467685D01*
X161796810Y-108390393D01*
X161978722Y-108277758D01*
X162057781Y-108205686D01*
X162136839Y-108133616D01*
X162136839Y-108133615D01*
X162136841Y-108133614D01*
X162231593Y-108008141D01*
X162321478Y-107921519D01*
X162433735Y-107866910D01*
X162557372Y-107849663D01*
X162680288Y-107871466D01*
X162790451Y-107930186D01*
X162868406Y-108008141D01*
X162873308Y-108014632D01*
X162963159Y-108133614D01*
X162963160Y-108133616D01*
X163121275Y-108277756D01*
X163121277Y-108277758D01*
X163303186Y-108390391D01*
X163303188Y-108390391D01*
X163303190Y-108390393D01*
X163502703Y-108467685D01*
X163502705Y-108467685D01*
X163502707Y-108467686D01*
X163607861Y-108487342D01*
X163713017Y-108506999D01*
X163713019Y-108507000D01*
X163713020Y-108507000D01*
X163926981Y-108507000D01*
X163926981Y-108506999D01*
X164137297Y-108467685D01*
X164336810Y-108390393D01*
X164518722Y-108277758D01*
X164597781Y-108205686D01*
X164676839Y-108133616D01*
X164676839Y-108133615D01*
X164676841Y-108133614D01*
X164771593Y-108008141D01*
X164861478Y-107921519D01*
X164973735Y-107866910D01*
X165097372Y-107849663D01*
X165220288Y-107871466D01*
X165330451Y-107930186D01*
X165408406Y-108008141D01*
X165413308Y-108014632D01*
X165503159Y-108133614D01*
X165503160Y-108133616D01*
X165661275Y-108277756D01*
X165661277Y-108277758D01*
X165843186Y-108390391D01*
X165843188Y-108390391D01*
X165843190Y-108390393D01*
X166042703Y-108467685D01*
X166042705Y-108467685D01*
X166042707Y-108467686D01*
X166147861Y-108487342D01*
X166253017Y-108506999D01*
X166253019Y-108507000D01*
X166253020Y-108507000D01*
X166466981Y-108507000D01*
X166466981Y-108506999D01*
X166677297Y-108467685D01*
X166876810Y-108390393D01*
X167058722Y-108277758D01*
X167137781Y-108205686D01*
X167216839Y-108133616D01*
X167216839Y-108133615D01*
X167216841Y-108133614D01*
X167311593Y-108008141D01*
X167401478Y-107921519D01*
X167513735Y-107866910D01*
X167637372Y-107849663D01*
X167760288Y-107871466D01*
X167870451Y-107930186D01*
X167948406Y-108008141D01*
X167953308Y-108014632D01*
X168043159Y-108133614D01*
X168043160Y-108133616D01*
X168201275Y-108277756D01*
X168201277Y-108277758D01*
X168383186Y-108390391D01*
X168383188Y-108390391D01*
X168383190Y-108390393D01*
X168582703Y-108467685D01*
X168582705Y-108467685D01*
X168582707Y-108467686D01*
X168687861Y-108487342D01*
X168793017Y-108506999D01*
X168793019Y-108507000D01*
X168793020Y-108507000D01*
X169006981Y-108507000D01*
X169006981Y-108506999D01*
X169217297Y-108467685D01*
X169416810Y-108390393D01*
X169598722Y-108277758D01*
X169677781Y-108205686D01*
X169756839Y-108133616D01*
X169756839Y-108133615D01*
X169756841Y-108133614D01*
X169851593Y-108008141D01*
X169941478Y-107921519D01*
X170053735Y-107866910D01*
X170177372Y-107849663D01*
X170300288Y-107871466D01*
X170410451Y-107930186D01*
X170488406Y-108008141D01*
X170493308Y-108014632D01*
X170583159Y-108133614D01*
X170583160Y-108133616D01*
X170741275Y-108277756D01*
X170741277Y-108277758D01*
X170923186Y-108390391D01*
X170923188Y-108390391D01*
X170923190Y-108390393D01*
X171122703Y-108467685D01*
X171122705Y-108467685D01*
X171122707Y-108467686D01*
X171227861Y-108487342D01*
X171333017Y-108506999D01*
X171333019Y-108507000D01*
X171333020Y-108507000D01*
X171546981Y-108507000D01*
X171546981Y-108506999D01*
X171757297Y-108467685D01*
X171956810Y-108390393D01*
X172138722Y-108277758D01*
X172217781Y-108205686D01*
X172296839Y-108133616D01*
X172296839Y-108133615D01*
X172296841Y-108133614D01*
X172391593Y-108008141D01*
X172481478Y-107921519D01*
X172593735Y-107866910D01*
X172717372Y-107849663D01*
X172840288Y-107871466D01*
X172950451Y-107930186D01*
X173028406Y-108008141D01*
X173033308Y-108014632D01*
X173123159Y-108133614D01*
X173123160Y-108133616D01*
X173281275Y-108277756D01*
X173281277Y-108277758D01*
X173463186Y-108390391D01*
X173463188Y-108390391D01*
X173463190Y-108390393D01*
X173662703Y-108467685D01*
X173662705Y-108467685D01*
X173662707Y-108467686D01*
X173767861Y-108487342D01*
X173873017Y-108506999D01*
X173873019Y-108507000D01*
X173873020Y-108507000D01*
X174086981Y-108507000D01*
X174086981Y-108506999D01*
X174297297Y-108467685D01*
X174496810Y-108390393D01*
X174678722Y-108277758D01*
X174757781Y-108205686D01*
X174836839Y-108133616D01*
X174836839Y-108133615D01*
X174836841Y-108133614D01*
X174931593Y-108008141D01*
X175021478Y-107921519D01*
X175133735Y-107866910D01*
X175257372Y-107849663D01*
X175380288Y-107871466D01*
X175490451Y-107930186D01*
X175568406Y-108008141D01*
X175573308Y-108014632D01*
X175663159Y-108133614D01*
X175663160Y-108133616D01*
X175821275Y-108277756D01*
X175821277Y-108277758D01*
X176003186Y-108390391D01*
X176003188Y-108390391D01*
X176003190Y-108390393D01*
X176202703Y-108467685D01*
X176202705Y-108467685D01*
X176202707Y-108467686D01*
X176307861Y-108487342D01*
X176413017Y-108506999D01*
X176413019Y-108507000D01*
X176413020Y-108507000D01*
X176626981Y-108507000D01*
X176626981Y-108506999D01*
X176837297Y-108467685D01*
X177036810Y-108390393D01*
X177218722Y-108277758D01*
X177297781Y-108205686D01*
X177376839Y-108133616D01*
X177376839Y-108133615D01*
X177376841Y-108133614D01*
X177471593Y-108008141D01*
X177561478Y-107921519D01*
X177673735Y-107866910D01*
X177797372Y-107849663D01*
X177920288Y-107871466D01*
X178030451Y-107930186D01*
X178108406Y-108008141D01*
X178113308Y-108014632D01*
X178203159Y-108133614D01*
X178203160Y-108133616D01*
X178361275Y-108277756D01*
X178361277Y-108277758D01*
X178543186Y-108390391D01*
X178543188Y-108390391D01*
X178543190Y-108390393D01*
X178742703Y-108467685D01*
X178742705Y-108467685D01*
X178742707Y-108467686D01*
X178847861Y-108487342D01*
X178953017Y-108506999D01*
X178953019Y-108507000D01*
X178953020Y-108507000D01*
X179166981Y-108507000D01*
X179166981Y-108506999D01*
X179377297Y-108467685D01*
X179576810Y-108390393D01*
X179758722Y-108277758D01*
X179837781Y-108205686D01*
X179916839Y-108133616D01*
X179916841Y-108133614D01*
X180045781Y-107962870D01*
X180141151Y-107771340D01*
X180199704Y-107565548D01*
X180219446Y-107352500D01*
X180216005Y-107315369D01*
X180224073Y-107190801D01*
X180270241Y-107074817D01*
X180349991Y-106978777D01*
X180455515Y-106912081D01*
X180576485Y-106881258D01*
X180701058Y-106889326D01*
X180817042Y-106935494D01*
X180834974Y-106946799D01*
X180879373Y-106976465D01*
X180997756Y-107025501D01*
X181123431Y-107050500D01*
X181450523Y-107050500D01*
X181573821Y-107070028D01*
X181685049Y-107126702D01*
X181773321Y-107214974D01*
X181788364Y-107237217D01*
X181807776Y-107268110D01*
X181809523Y-107270890D01*
X181929110Y-107390477D01*
X182072310Y-107480456D01*
X182231941Y-107536313D01*
X182400000Y-107555249D01*
X182568059Y-107536313D01*
X182727690Y-107480456D01*
X182870890Y-107390477D01*
X182990477Y-107270890D01*
X183080456Y-107127690D01*
X183098131Y-107077176D01*
X183157283Y-106967252D01*
X183247512Y-106880982D01*
X183359983Y-106826817D01*
X183483688Y-106810058D01*
X183606517Y-106832347D01*
X183716446Y-106891501D01*
X183756876Y-106926822D01*
X184160979Y-107330925D01*
X184234355Y-107431919D01*
X184272931Y-107550644D01*
X184272931Y-107675478D01*
X184234355Y-107794203D01*
X184160979Y-107895197D01*
X184059985Y-107968573D01*
X183941260Y-108007149D01*
X183834169Y-108009552D01*
X183700001Y-107994435D01*
X183699999Y-107994435D01*
X183520748Y-108014631D01*
X183520745Y-108014632D01*
X183350478Y-108074211D01*
X183197739Y-108170183D01*
X183070183Y-108297739D01*
X182974211Y-108450478D01*
X182914632Y-108620745D01*
X182914631Y-108620748D01*
X182894435Y-108799999D01*
X182894435Y-108800000D01*
X182914631Y-108979251D01*
X182914631Y-108979253D01*
X182914632Y-108979255D01*
X182974211Y-109149522D01*
X183070184Y-109302262D01*
X183197738Y-109429816D01*
X183350478Y-109525789D01*
X183520745Y-109585368D01*
X183655186Y-109600515D01*
X183699999Y-109605565D01*
X183700000Y-109605565D01*
X183700001Y-109605565D01*
X183735851Y-109601525D01*
X183879255Y-109585368D01*
X184023796Y-109534790D01*
X184146624Y-109512500D01*
X184155577Y-109512400D01*
X184844601Y-109512400D01*
X184967899Y-109531928D01*
X185079127Y-109588602D01*
X185167399Y-109676874D01*
X185224073Y-109788102D01*
X185243601Y-109911400D01*
X185243601Y-110154370D01*
X185250008Y-110213980D01*
X185250009Y-110213982D01*
X185300302Y-110348827D01*
X185300303Y-110348829D01*
X185300304Y-110348831D01*
X185386554Y-110464046D01*
X185501769Y-110550296D01*
X185636617Y-110600591D01*
X185696227Y-110607000D01*
X186731772Y-110606999D01*
X186791383Y-110600591D01*
X186926231Y-110550296D01*
X187041446Y-110464046D01*
X187127696Y-110348831D01*
X187177991Y-110213983D01*
X187184400Y-110154373D01*
X187184400Y-109261901D01*
X189816100Y-109261901D01*
X189816100Y-110154330D01*
X189822501Y-110213873D01*
X189822502Y-110213877D01*
X189872747Y-110348590D01*
X189958907Y-110463684D01*
X189958915Y-110463692D01*
X190074009Y-110549852D01*
X190208722Y-110600097D01*
X190208726Y-110600098D01*
X190268269Y-110606499D01*
X190268275Y-110606500D01*
X190385999Y-110606500D01*
X190386000Y-110606499D01*
X190386000Y-109261901D01*
X191186000Y-109261901D01*
X191186000Y-110606499D01*
X191186001Y-110606500D01*
X191303725Y-110606500D01*
X191303730Y-110606499D01*
X191363273Y-110600098D01*
X191363277Y-110600097D01*
X191497990Y-110549852D01*
X191613084Y-110463692D01*
X191613092Y-110463684D01*
X191699252Y-110348590D01*
X191749497Y-110213877D01*
X191749498Y-110213873D01*
X191755899Y-110154330D01*
X191755900Y-110154325D01*
X191755900Y-109261901D01*
X191755899Y-109261900D01*
X191186001Y-109261900D01*
X191186000Y-109261901D01*
X190386000Y-109261901D01*
X190385999Y-109261900D01*
X189816101Y-109261900D01*
X189816100Y-109261901D01*
X187184400Y-109261901D01*
X187184399Y-107983659D01*
X187203927Y-107860362D01*
X187260601Y-107749134D01*
X187301264Y-107701524D01*
X187835425Y-107167364D01*
X187936418Y-107093988D01*
X188055143Y-107055412D01*
X188117560Y-107050500D01*
X189427699Y-107050500D01*
X189550997Y-107070028D01*
X189662225Y-107126702D01*
X189750497Y-107214974D01*
X189807171Y-107326202D01*
X189826699Y-107449500D01*
X189824413Y-107492150D01*
X189816100Y-107569472D01*
X189816100Y-108461899D01*
X189816101Y-108461900D01*
X191755899Y-108461900D01*
X191755900Y-108461899D01*
X191755900Y-107569475D01*
X191755899Y-107569472D01*
X191747587Y-107492150D01*
X191753824Y-107367472D01*
X191798283Y-107250822D01*
X191876614Y-107153621D01*
X191981147Y-107085382D01*
X192101651Y-107052786D01*
X192144301Y-107050500D01*
X192283768Y-107050500D01*
X192316630Y-107043963D01*
X192448082Y-107017816D01*
X192515856Y-106989743D01*
X192602863Y-106953704D01*
X192628832Y-106936351D01*
X192742190Y-106884092D01*
X192866160Y-106869417D01*
X192988596Y-106893770D01*
X193097515Y-106954765D01*
X193182254Y-107046433D01*
X193234518Y-107159800D01*
X193249500Y-107268110D01*
X193249500Y-125991299D01*
X193249120Y-126008704D01*
X193233137Y-126374756D01*
X193230104Y-126409426D01*
X193183414Y-126764066D01*
X193177372Y-126798333D01*
X193099953Y-127147548D01*
X193090944Y-127181170D01*
X192983387Y-127522300D01*
X192971482Y-127555010D01*
X192834597Y-127885479D01*
X192819886Y-127917026D01*
X192654723Y-128234301D01*
X192637319Y-128264446D01*
X192445138Y-128566109D01*
X192425174Y-128594621D01*
X192207426Y-128878397D01*
X192185051Y-128905063D01*
X191943396Y-129168783D01*
X191918783Y-129193396D01*
X191655063Y-129435051D01*
X191628397Y-129457426D01*
X191344621Y-129675174D01*
X191316109Y-129695138D01*
X191123624Y-129817764D01*
X191014439Y-129887322D01*
X190984301Y-129904723D01*
X190667026Y-130069886D01*
X190635479Y-130084597D01*
X190305010Y-130221482D01*
X190272300Y-130233387D01*
X189931170Y-130340944D01*
X189897548Y-130349953D01*
X189548333Y-130427372D01*
X189514066Y-130433414D01*
X189159426Y-130480104D01*
X189124756Y-130483137D01*
X188771060Y-130498580D01*
X188758702Y-130499120D01*
X188741299Y-130499500D01*
X122508701Y-130499500D01*
X122491297Y-130499120D01*
X122478198Y-130498548D01*
X122125243Y-130483137D01*
X122090575Y-130480104D01*
X121735929Y-130433414D01*
X121701666Y-130427372D01*
X121352451Y-130349953D01*
X121318829Y-130340944D01*
X120977699Y-130233387D01*
X120944989Y-130221482D01*
X120895379Y-130200933D01*
X120614520Y-130084597D01*
X120582973Y-130069886D01*
X120265698Y-129904723D01*
X120235569Y-129887328D01*
X119933889Y-129695137D01*
X119905378Y-129675174D01*
X119752685Y-129558009D01*
X119621592Y-129457417D01*
X119594943Y-129435057D01*
X119331209Y-129193389D01*
X119306610Y-129168790D01*
X119064940Y-128905053D01*
X119042583Y-128878409D01*
X118824825Y-128594621D01*
X118804861Y-128566109D01*
X118710420Y-128417866D01*
X118612666Y-128264423D01*
X118595283Y-128234314D01*
X118430109Y-127917018D01*
X118415402Y-127885479D01*
X118278511Y-127554996D01*
X118266617Y-127522315D01*
X118159053Y-127181162D01*
X118150046Y-127147548D01*
X118124762Y-127033497D01*
X118072625Y-126798322D01*
X118066588Y-126764088D01*
X118019892Y-126409404D01*
X118016862Y-126374755D01*
X118000880Y-126008703D01*
X118000500Y-125991299D01*
X118000500Y-125878712D01*
X120649500Y-125878712D01*
X120649500Y-126121288D01*
X120649765Y-126123298D01*
X120681161Y-126361789D01*
X120681162Y-126361791D01*
X120743943Y-126596093D01*
X120743946Y-126596100D01*
X120836776Y-126820212D01*
X120836777Y-126820215D01*
X120836779Y-126820218D01*
X120958064Y-127030290D01*
X121088771Y-127200630D01*
X121105735Y-127222738D01*
X121277262Y-127394265D01*
X121277266Y-127394268D01*
X121277267Y-127394269D01*
X121469709Y-127541935D01*
X121469711Y-127541936D01*
X121679788Y-127663224D01*
X121903900Y-127756054D01*
X121903903Y-127756054D01*
X121903906Y-127756056D01*
X122060107Y-127797910D01*
X122138208Y-127818837D01*
X122138210Y-127818838D01*
X122178294Y-127824115D01*
X122378712Y-127850500D01*
X122378717Y-127850500D01*
X122621283Y-127850500D01*
X122621288Y-127850500D01*
X122861789Y-127818838D01*
X123096100Y-127756054D01*
X123320212Y-127663224D01*
X123343117Y-127650000D01*
X134125003Y-127650000D01*
X134135493Y-127752693D01*
X134135496Y-127752704D01*
X134190639Y-127919115D01*
X134190643Y-127919125D01*
X134282681Y-128068341D01*
X134406658Y-128192318D01*
X134555874Y-128284356D01*
X134555882Y-128284359D01*
X134722301Y-128339505D01*
X134825022Y-128349999D01*
X135099999Y-128349998D01*
X135100000Y-128349998D01*
X135100000Y-127650001D01*
X135900000Y-127650001D01*
X135900000Y-128349998D01*
X135900001Y-128349999D01*
X136174969Y-128349999D01*
X136174984Y-128349998D01*
X136277696Y-128339505D01*
X136277701Y-128339504D01*
X136444115Y-128284360D01*
X136444125Y-128284356D01*
X136593341Y-128192318D01*
X136717318Y-128068341D01*
X136809356Y-127919125D01*
X136809359Y-127919117D01*
X136864505Y-127752698D01*
X136874998Y-127650000D01*
X141625003Y-127650000D01*
X141635493Y-127752693D01*
X141635496Y-127752704D01*
X141690639Y-127919115D01*
X141690643Y-127919125D01*
X141782681Y-128068341D01*
X141906658Y-128192318D01*
X142055874Y-128284356D01*
X142055882Y-128284359D01*
X142222301Y-128339505D01*
X142325022Y-128349999D01*
X142599999Y-128349998D01*
X142600000Y-128349998D01*
X142600000Y-127650001D01*
X143400000Y-127650001D01*
X143400000Y-128349998D01*
X143400001Y-128349999D01*
X143674969Y-128349999D01*
X143674984Y-128349998D01*
X143777696Y-128339505D01*
X143777701Y-128339504D01*
X143944115Y-128284360D01*
X143944125Y-128284356D01*
X144093341Y-128192318D01*
X144217318Y-128068341D01*
X144309356Y-127919125D01*
X144309359Y-127919117D01*
X144364505Y-127752698D01*
X144374998Y-127650000D01*
X149125003Y-127650000D01*
X149135493Y-127752693D01*
X149135496Y-127752704D01*
X149190639Y-127919115D01*
X149190643Y-127919125D01*
X149282681Y-128068341D01*
X149406658Y-128192318D01*
X149555874Y-128284356D01*
X149555882Y-128284359D01*
X149722301Y-128339505D01*
X149825022Y-128349999D01*
X150099999Y-128349998D01*
X150100000Y-128349998D01*
X150100000Y-127650001D01*
X150900000Y-127650001D01*
X150900000Y-128349998D01*
X150900001Y-128349999D01*
X151174969Y-128349999D01*
X151174984Y-128349998D01*
X151277696Y-128339505D01*
X151277701Y-128339504D01*
X151444115Y-128284360D01*
X151444125Y-128284356D01*
X151593341Y-128192318D01*
X151717318Y-128068341D01*
X151809356Y-127919125D01*
X151809359Y-127919117D01*
X151864505Y-127752698D01*
X151874998Y-127650000D01*
X156625003Y-127650000D01*
X156635493Y-127752693D01*
X156635496Y-127752704D01*
X156690639Y-127919115D01*
X156690643Y-127919125D01*
X156782681Y-128068341D01*
X156906658Y-128192318D01*
X157055874Y-128284356D01*
X157055882Y-128284359D01*
X157222301Y-128339505D01*
X157325022Y-128349999D01*
X157599999Y-128349998D01*
X157600000Y-128349998D01*
X157600000Y-127650001D01*
X158400000Y-127650001D01*
X158400000Y-128349998D01*
X158400001Y-128349999D01*
X158674969Y-128349999D01*
X158674984Y-128349998D01*
X158777696Y-128339505D01*
X158777701Y-128339504D01*
X158944115Y-128284360D01*
X158944125Y-128284356D01*
X159093341Y-128192318D01*
X159217318Y-128068341D01*
X159309356Y-127919125D01*
X159309359Y-127919117D01*
X159364505Y-127752698D01*
X159374998Y-127650000D01*
X164125003Y-127650000D01*
X164135493Y-127752693D01*
X164135496Y-127752704D01*
X164190639Y-127919115D01*
X164190643Y-127919125D01*
X164282681Y-128068341D01*
X164406658Y-128192318D01*
X164555874Y-128284356D01*
X164555882Y-128284359D01*
X164722301Y-128339505D01*
X164825022Y-128349999D01*
X165099999Y-128349998D01*
X165100000Y-128349998D01*
X165100000Y-127650001D01*
X165900000Y-127650001D01*
X165900000Y-128349998D01*
X165900001Y-128349999D01*
X166174969Y-128349999D01*
X166174984Y-128349998D01*
X166277696Y-128339505D01*
X166277701Y-128339504D01*
X166444115Y-128284360D01*
X166444125Y-128284356D01*
X166593341Y-128192318D01*
X166717318Y-128068341D01*
X166809356Y-127919125D01*
X166809359Y-127919117D01*
X166864505Y-127752698D01*
X166874998Y-127650000D01*
X171625003Y-127650000D01*
X171635493Y-127752693D01*
X171635496Y-127752704D01*
X171690639Y-127919115D01*
X171690643Y-127919125D01*
X171782681Y-128068341D01*
X171906658Y-128192318D01*
X172055874Y-128284356D01*
X172055882Y-128284359D01*
X172222301Y-128339505D01*
X172325022Y-128349999D01*
X172599999Y-128349998D01*
X172600000Y-128349998D01*
X172600000Y-127650001D01*
X173400000Y-127650001D01*
X173400000Y-128349998D01*
X173400001Y-128349999D01*
X173674969Y-128349999D01*
X173674984Y-128349998D01*
X173777696Y-128339505D01*
X173777701Y-128339504D01*
X173944115Y-128284360D01*
X173944125Y-128284356D01*
X174093341Y-128192318D01*
X174217318Y-128068341D01*
X174309356Y-127919125D01*
X174309359Y-127919117D01*
X174364505Y-127752698D01*
X174374998Y-127650000D01*
X173400001Y-127650000D01*
X173400000Y-127650001D01*
X172600000Y-127650001D01*
X172599999Y-127650000D01*
X171625003Y-127650000D01*
X166874998Y-127650000D01*
X165900001Y-127650000D01*
X165900000Y-127650001D01*
X165100000Y-127650001D01*
X165099999Y-127650000D01*
X164125003Y-127650000D01*
X159374998Y-127650000D01*
X158400001Y-127650000D01*
X158400000Y-127650001D01*
X157600000Y-127650001D01*
X157599999Y-127650000D01*
X156625003Y-127650000D01*
X151874998Y-127650000D01*
X150900001Y-127650000D01*
X150900000Y-127650001D01*
X150100000Y-127650001D01*
X150099999Y-127650000D01*
X149125003Y-127650000D01*
X144374998Y-127650000D01*
X143400001Y-127650000D01*
X143400000Y-127650001D01*
X142600000Y-127650001D01*
X142599999Y-127650000D01*
X141625003Y-127650000D01*
X136874998Y-127650000D01*
X135900001Y-127650000D01*
X135900000Y-127650001D01*
X135100000Y-127650001D01*
X135099999Y-127650000D01*
X134125003Y-127650000D01*
X123343117Y-127650000D01*
X123530289Y-127541936D01*
X123722738Y-127394265D01*
X123894265Y-127222738D01*
X123911229Y-127200630D01*
X135125000Y-127200630D01*
X135125000Y-127299370D01*
X135150556Y-127394745D01*
X135199925Y-127480255D01*
X135269745Y-127550075D01*
X135355255Y-127599444D01*
X135450630Y-127625000D01*
X135549370Y-127625000D01*
X135644745Y-127599444D01*
X135730255Y-127550075D01*
X135800075Y-127480255D01*
X135849444Y-127394745D01*
X135875000Y-127299370D01*
X135875000Y-127200630D01*
X142625000Y-127200630D01*
X142625000Y-127299370D01*
X142650556Y-127394745D01*
X142699925Y-127480255D01*
X142769745Y-127550075D01*
X142855255Y-127599444D01*
X142950630Y-127625000D01*
X143049370Y-127625000D01*
X143144745Y-127599444D01*
X143230255Y-127550075D01*
X143300075Y-127480255D01*
X143349444Y-127394745D01*
X143375000Y-127299370D01*
X143375000Y-127200630D01*
X150125000Y-127200630D01*
X150125000Y-127299370D01*
X150150556Y-127394745D01*
X150199925Y-127480255D01*
X150269745Y-127550075D01*
X150355255Y-127599444D01*
X150450630Y-127625000D01*
X150549370Y-127625000D01*
X150644745Y-127599444D01*
X150730255Y-127550075D01*
X150800075Y-127480255D01*
X150849444Y-127394745D01*
X150875000Y-127299370D01*
X150875000Y-127200630D01*
X157625000Y-127200630D01*
X157625000Y-127299370D01*
X157650556Y-127394745D01*
X157699925Y-127480255D01*
X157769745Y-127550075D01*
X157855255Y-127599444D01*
X157950630Y-127625000D01*
X158049370Y-127625000D01*
X158144745Y-127599444D01*
X158230255Y-127550075D01*
X158300075Y-127480255D01*
X158349444Y-127394745D01*
X158375000Y-127299370D01*
X158375000Y-127200630D01*
X165125000Y-127200630D01*
X165125000Y-127299370D01*
X165150556Y-127394745D01*
X165199925Y-127480255D01*
X165269745Y-127550075D01*
X165355255Y-127599444D01*
X165450630Y-127625000D01*
X165549370Y-127625000D01*
X165644745Y-127599444D01*
X165730255Y-127550075D01*
X165800075Y-127480255D01*
X165849444Y-127394745D01*
X165875000Y-127299370D01*
X165875000Y-127200630D01*
X172625000Y-127200630D01*
X172625000Y-127299370D01*
X172650556Y-127394745D01*
X172699925Y-127480255D01*
X172769745Y-127550075D01*
X172855255Y-127599444D01*
X172950630Y-127625000D01*
X173049370Y-127625000D01*
X173144745Y-127599444D01*
X173230255Y-127550075D01*
X173300075Y-127480255D01*
X173349444Y-127394745D01*
X173375000Y-127299370D01*
X173375000Y-127200630D01*
X173349444Y-127105255D01*
X173300075Y-127019745D01*
X173230255Y-126949925D01*
X173144745Y-126900556D01*
X173049370Y-126875000D01*
X172950630Y-126875000D01*
X172855255Y-126900556D01*
X172769745Y-126949925D01*
X172699925Y-127019745D01*
X172650556Y-127105255D01*
X172625000Y-127200630D01*
X165875000Y-127200630D01*
X165849444Y-127105255D01*
X165800075Y-127019745D01*
X165730255Y-126949925D01*
X165644745Y-126900556D01*
X165549370Y-126875000D01*
X165450630Y-126875000D01*
X165355255Y-126900556D01*
X165269745Y-126949925D01*
X165199925Y-127019745D01*
X165150556Y-127105255D01*
X165125000Y-127200630D01*
X158375000Y-127200630D01*
X158349444Y-127105255D01*
X158300075Y-127019745D01*
X158230255Y-126949925D01*
X158144745Y-126900556D01*
X158049370Y-126875000D01*
X157950630Y-126875000D01*
X157855255Y-126900556D01*
X157769745Y-126949925D01*
X157699925Y-127019745D01*
X157650556Y-127105255D01*
X157625000Y-127200630D01*
X150875000Y-127200630D01*
X150849444Y-127105255D01*
X150800075Y-127019745D01*
X150730255Y-126949925D01*
X150644745Y-126900556D01*
X150549370Y-126875000D01*
X150450630Y-126875000D01*
X150355255Y-126900556D01*
X150269745Y-126949925D01*
X150199925Y-127019745D01*
X150150556Y-127105255D01*
X150125000Y-127200630D01*
X143375000Y-127200630D01*
X143349444Y-127105255D01*
X143300075Y-127019745D01*
X143230255Y-126949925D01*
X143144745Y-126900556D01*
X143049370Y-126875000D01*
X142950630Y-126875000D01*
X142855255Y-126900556D01*
X142769745Y-126949925D01*
X142699925Y-127019745D01*
X142650556Y-127105255D01*
X142625000Y-127200630D01*
X135875000Y-127200630D01*
X135849444Y-127105255D01*
X135800075Y-127019745D01*
X135730255Y-126949925D01*
X135644745Y-126900556D01*
X135549370Y-126875000D01*
X135450630Y-126875000D01*
X135355255Y-126900556D01*
X135269745Y-126949925D01*
X135199925Y-127019745D01*
X135150556Y-127105255D01*
X135125000Y-127200630D01*
X123911229Y-127200630D01*
X124041936Y-127030289D01*
X124163224Y-126820212D01*
X124256054Y-126596100D01*
X124318838Y-126361789D01*
X124350500Y-126121288D01*
X124350500Y-125878712D01*
X124318838Y-125638211D01*
X124256054Y-125403900D01*
X124163224Y-125179788D01*
X124041936Y-124969711D01*
X124041935Y-124969709D01*
X123894269Y-124777267D01*
X123894268Y-124777266D01*
X123894265Y-124777262D01*
X123722738Y-124605735D01*
X123722733Y-124605731D01*
X123722732Y-124605730D01*
X123530290Y-124458064D01*
X123320218Y-124336779D01*
X123320215Y-124336777D01*
X123320212Y-124336776D01*
X123096100Y-124243946D01*
X123096093Y-124243943D01*
X122861791Y-124181162D01*
X122861789Y-124181161D01*
X122716753Y-124162067D01*
X122621288Y-124149500D01*
X122378712Y-124149500D01*
X122290268Y-124161143D01*
X122138210Y-124181161D01*
X122138208Y-124181162D01*
X121903906Y-124243943D01*
X121679781Y-124336779D01*
X121469709Y-124458064D01*
X121277267Y-124605730D01*
X121105730Y-124777267D01*
X120958064Y-124969709D01*
X120836779Y-125179781D01*
X120743943Y-125403906D01*
X120681162Y-125638208D01*
X120681161Y-125638210D01*
X120661143Y-125790268D01*
X120649500Y-125878712D01*
X118000500Y-125878712D01*
X118000500Y-77508700D01*
X118000880Y-77491296D01*
X118005221Y-77391873D01*
X118005796Y-77378712D01*
X120649500Y-77378712D01*
X120649500Y-77621288D01*
X120658792Y-77691868D01*
X120681161Y-77861789D01*
X120681162Y-77861791D01*
X120743943Y-78096093D01*
X120743946Y-78096100D01*
X120836776Y-78320212D01*
X120836777Y-78320215D01*
X120836779Y-78320218D01*
X120958064Y-78530290D01*
X121105730Y-78722732D01*
X121105735Y-78722738D01*
X121277262Y-78894265D01*
X121277266Y-78894268D01*
X121277267Y-78894269D01*
X121469709Y-79041935D01*
X121679781Y-79163220D01*
X121679788Y-79163224D01*
X121903900Y-79256054D01*
X121903903Y-79256054D01*
X121903906Y-79256056D01*
X122060107Y-79297910D01*
X122138208Y-79318837D01*
X122138210Y-79318838D01*
X122178294Y-79324115D01*
X122378712Y-79350500D01*
X122378717Y-79350500D01*
X122621283Y-79350500D01*
X122621288Y-79350500D01*
X122861789Y-79318838D01*
X123096100Y-79256054D01*
X123320212Y-79163224D01*
X123530289Y-79041936D01*
X123722738Y-78894265D01*
X123894265Y-78722738D01*
X124041936Y-78530289D01*
X124163224Y-78320212D01*
X124256054Y-78096100D01*
X124318838Y-77861789D01*
X124350500Y-77621288D01*
X124350500Y-77378712D01*
X124318838Y-77138211D01*
X124273326Y-76968358D01*
X124256056Y-76903906D01*
X124240920Y-76867364D01*
X124163224Y-76679788D01*
X124041936Y-76469711D01*
X124041935Y-76469709D01*
X123894269Y-76277267D01*
X123894268Y-76277266D01*
X123894265Y-76277262D01*
X123722738Y-76105735D01*
X123722733Y-76105731D01*
X123722732Y-76105730D01*
X123530290Y-75958064D01*
X123320218Y-75836779D01*
X123320215Y-75836777D01*
X123320212Y-75836776D01*
X123096100Y-75743946D01*
X123096093Y-75743943D01*
X122861791Y-75681162D01*
X122861789Y-75681161D01*
X122716753Y-75662067D01*
X122621288Y-75649500D01*
X122378712Y-75649500D01*
X122290268Y-75661143D01*
X122138210Y-75681161D01*
X122138208Y-75681162D01*
X121903906Y-75743943D01*
X121679781Y-75836779D01*
X121469709Y-75958064D01*
X121277267Y-76105730D01*
X121105730Y-76277267D01*
X120958064Y-76469709D01*
X120836779Y-76679781D01*
X120743943Y-76903906D01*
X120681162Y-77138208D01*
X120681161Y-77138210D01*
X120661794Y-77285331D01*
X120649500Y-77378712D01*
X118005796Y-77378712D01*
X118016862Y-77125238D01*
X118019892Y-77090597D01*
X118066588Y-76735907D01*
X118072624Y-76701681D01*
X118150049Y-76352437D01*
X118159051Y-76318843D01*
X118266620Y-75977676D01*
X118278508Y-75945011D01*
X118415409Y-75614502D01*
X118430105Y-75582989D01*
X118595288Y-75265675D01*
X118612660Y-75235586D01*
X118804872Y-74933874D01*
X118824818Y-74905387D01*
X119042592Y-74621578D01*
X119064930Y-74594956D01*
X119306621Y-74331197D01*
X119331197Y-74306621D01*
X119594956Y-74064930D01*
X119621578Y-74042592D01*
X119905387Y-73824818D01*
X119933874Y-73804872D01*
X120235586Y-73612660D01*
X120265675Y-73595288D01*
X120582989Y-73430105D01*
X120614502Y-73415409D01*
X120945011Y-73278508D01*
X120977676Y-73266620D01*
X121318843Y-73159051D01*
X121352437Y-73150049D01*
X121701681Y-73072624D01*
X121735907Y-73066588D01*
X122090597Y-73019892D01*
X122125238Y-73016862D01*
X122491297Y-73000880D01*
X122508701Y-73000500D01*
X122565892Y-73000500D01*
X175411411Y-73000500D01*
X175534709Y-73020028D01*
G37*
%TD.AperFunction*%
%TA.AperFunction,Conductor*%
G36*
X191699963Y-90400353D02*
G01*
X191806968Y-90464646D01*
X191888869Y-90558859D01*
X191937647Y-90673769D01*
X191949500Y-90770301D01*
X191949500Y-92002382D01*
X191929972Y-92125680D01*
X191873298Y-92236908D01*
X191785026Y-92325180D01*
X191673798Y-92381854D01*
X191550500Y-92401382D01*
X191427202Y-92381854D01*
X191411068Y-92376226D01*
X191363283Y-92358403D01*
X191363273Y-92358401D01*
X191303730Y-92352000D01*
X191186001Y-92352000D01*
X191186000Y-92352001D01*
X191186000Y-95841199D01*
X191186001Y-95841200D01*
X191303725Y-95841200D01*
X191303730Y-95841199D01*
X191363273Y-95834798D01*
X191363274Y-95834798D01*
X191411063Y-95816974D01*
X191533412Y-95792183D01*
X191657433Y-95806413D01*
X191770986Y-95858271D01*
X191862957Y-95942681D01*
X191924343Y-96051380D01*
X191949134Y-96173729D01*
X191949500Y-96190817D01*
X191949500Y-98240776D01*
X191929972Y-98364074D01*
X191873298Y-98475302D01*
X191785026Y-98563574D01*
X191673798Y-98620248D01*
X191550500Y-98639776D01*
X191427202Y-98620248D01*
X191411066Y-98614620D01*
X191388782Y-98606308D01*
X191335581Y-98600588D01*
X191329173Y-98599900D01*
X191329172Y-98599900D01*
X188095450Y-98599900D01*
X187972152Y-98580372D01*
X187860924Y-98523698D01*
X187772652Y-98435426D01*
X187715978Y-98324198D01*
X187696450Y-98200900D01*
X187715978Y-98077602D01*
X187772652Y-97966374D01*
X187813314Y-97918765D01*
X188221789Y-97510289D01*
X188231079Y-97496386D01*
X188309394Y-97379179D01*
X188369737Y-97233497D01*
X188400500Y-97078842D01*
X188400500Y-96921157D01*
X188400500Y-94521158D01*
X188395615Y-94496601D01*
X189816100Y-94496601D01*
X189816100Y-95389030D01*
X189822501Y-95448573D01*
X189822502Y-95448577D01*
X189872747Y-95583290D01*
X189958907Y-95698384D01*
X189958915Y-95698392D01*
X190074009Y-95784552D01*
X190208722Y-95834797D01*
X190208726Y-95834798D01*
X190268269Y-95841199D01*
X190268275Y-95841200D01*
X190385999Y-95841200D01*
X190386000Y-95841199D01*
X190386000Y-94496601D01*
X190385999Y-94496600D01*
X189816101Y-94496600D01*
X189816100Y-94496601D01*
X188395615Y-94496601D01*
X188369737Y-94366503D01*
X188309394Y-94220821D01*
X188221789Y-94089711D01*
X188110289Y-93978211D01*
X188098276Y-93970184D01*
X187979181Y-93890607D01*
X187979179Y-93890606D01*
X187833497Y-93830263D01*
X187833495Y-93830262D01*
X187833494Y-93830262D01*
X187678842Y-93799500D01*
X187583399Y-93799500D01*
X187460101Y-93779972D01*
X187348873Y-93723298D01*
X187260601Y-93635026D01*
X187203927Y-93523798D01*
X187184399Y-93400500D01*
X187184399Y-92804169D01*
X189816100Y-92804169D01*
X189816100Y-93696599D01*
X189816101Y-93696600D01*
X190385999Y-93696600D01*
X190386000Y-93696599D01*
X190386000Y-92352001D01*
X190385999Y-92352000D01*
X190268269Y-92352000D01*
X190208726Y-92358401D01*
X190208722Y-92358402D01*
X190074009Y-92408647D01*
X189958915Y-92494807D01*
X189958907Y-92494815D01*
X189872747Y-92609909D01*
X189822502Y-92744622D01*
X189822501Y-92744626D01*
X189816100Y-92804169D01*
X187184399Y-92804169D01*
X187184399Y-92804136D01*
X187184399Y-92804128D01*
X187177991Y-92744517D01*
X187127696Y-92609669D01*
X187120536Y-92600105D01*
X187041449Y-92494458D01*
X187041448Y-92494457D01*
X187041446Y-92494454D01*
X186926231Y-92408204D01*
X186926230Y-92408203D01*
X186926229Y-92408203D01*
X186791382Y-92357908D01*
X186736423Y-92352000D01*
X186731773Y-92351500D01*
X186731772Y-92351500D01*
X185696235Y-92351500D01*
X185696228Y-92351501D01*
X185636619Y-92357908D01*
X185636617Y-92357909D01*
X185501772Y-92408202D01*
X185501765Y-92408206D01*
X185386558Y-92494450D01*
X185386549Y-92494459D01*
X185372591Y-92513105D01*
X185283067Y-92600105D01*
X185171039Y-92655183D01*
X185047475Y-92672946D01*
X184924469Y-92651657D01*
X184814062Y-92593398D01*
X184771044Y-92556123D01*
X183893901Y-91678980D01*
X183820525Y-91577986D01*
X183781949Y-91459261D01*
X183781949Y-91334427D01*
X183820525Y-91215702D01*
X183893901Y-91114708D01*
X183994895Y-91041332D01*
X184113620Y-91002756D01*
X184211435Y-91000312D01*
X184211456Y-90999928D01*
X184216339Y-91000189D01*
X184218693Y-91000131D01*
X184219234Y-91000189D01*
X184222127Y-91000500D01*
X186017872Y-91000499D01*
X186077483Y-90994091D01*
X186212331Y-90943796D01*
X186327546Y-90857546D01*
X186337491Y-90844260D01*
X186427014Y-90757259D01*
X186539040Y-90702179D01*
X186662604Y-90684413D01*
X186785610Y-90705700D01*
X186885760Y-90756528D01*
X186982170Y-90824035D01*
X187196337Y-90923903D01*
X187424592Y-90985063D01*
X187660000Y-91005659D01*
X187895408Y-90985063D01*
X188123663Y-90923903D01*
X188337830Y-90824035D01*
X188482611Y-90722657D01*
X188594809Y-90667935D01*
X188711467Y-90650500D01*
X189148533Y-90650500D01*
X189271831Y-90670028D01*
X189377388Y-90722657D01*
X189426380Y-90756962D01*
X189522166Y-90824033D01*
X189522169Y-90824034D01*
X189522170Y-90824035D01*
X189736337Y-90923903D01*
X189964592Y-90985063D01*
X190200000Y-91005659D01*
X190435408Y-90985063D01*
X190663663Y-90923903D01*
X190877830Y-90824035D01*
X191071401Y-90688495D01*
X191238495Y-90521401D01*
X191238500Y-90521393D01*
X191244845Y-90513833D01*
X191339058Y-90431932D01*
X191453968Y-90383154D01*
X191578328Y-90372273D01*
X191699963Y-90400353D01*
G37*
%TD.AperFunction*%
%TD*%
M02*
