%TF.GenerationSoftware,KiCad,Pcbnew,8.0.7*%
%TF.CreationDate,2024-12-25T21:29:49+07:00*%
%TF.ProjectId,Morphex-PCB,4d6f7270-6865-4782-9d50-43422e6b6963,rev?*%
%TF.SameCoordinates,Original*%
%TF.FileFunction,Legend,Top*%
%TF.FilePolarity,Positive*%
%FSLAX46Y46*%
G04 Gerber Fmt 4.6, Leading zero omitted, Abs format (unit mm)*
G04 Created by KiCad (PCBNEW 8.0.7) date 2024-12-25 21:29:49*
%MOMM*%
%LPD*%
G01*
G04 APERTURE LIST*
%ADD10C,0.125000*%
%ADD11C,0.300000*%
%ADD12C,0.150000*%
%ADD13C,0.254000*%
%ADD14C,0.120000*%
%ADD15C,0.200000*%
%ADD16C,0.152400*%
%ADD17C,0.100000*%
%ADD18C,0.127000*%
G04 APERTURE END LIST*
D10*
X169072712Y-81823500D02*
X169215569Y-81871119D01*
X169215569Y-81871119D02*
X169453664Y-81871119D01*
X169453664Y-81871119D02*
X169548902Y-81823500D01*
X169548902Y-81823500D02*
X169596521Y-81775880D01*
X169596521Y-81775880D02*
X169644140Y-81680642D01*
X169644140Y-81680642D02*
X169644140Y-81585404D01*
X169644140Y-81585404D02*
X169596521Y-81490166D01*
X169596521Y-81490166D02*
X169548902Y-81442547D01*
X169548902Y-81442547D02*
X169453664Y-81394928D01*
X169453664Y-81394928D02*
X169263188Y-81347309D01*
X169263188Y-81347309D02*
X169167950Y-81299690D01*
X169167950Y-81299690D02*
X169120331Y-81252071D01*
X169120331Y-81252071D02*
X169072712Y-81156833D01*
X169072712Y-81156833D02*
X169072712Y-81061595D01*
X169072712Y-81061595D02*
X169120331Y-80966357D01*
X169120331Y-80966357D02*
X169167950Y-80918738D01*
X169167950Y-80918738D02*
X169263188Y-80871119D01*
X169263188Y-80871119D02*
X169501283Y-80871119D01*
X169501283Y-80871119D02*
X169644140Y-80918738D01*
X170215569Y-81299690D02*
X170120331Y-81252071D01*
X170120331Y-81252071D02*
X170072712Y-81204452D01*
X170072712Y-81204452D02*
X170025093Y-81109214D01*
X170025093Y-81109214D02*
X170025093Y-81061595D01*
X170025093Y-81061595D02*
X170072712Y-80966357D01*
X170072712Y-80966357D02*
X170120331Y-80918738D01*
X170120331Y-80918738D02*
X170215569Y-80871119D01*
X170215569Y-80871119D02*
X170406045Y-80871119D01*
X170406045Y-80871119D02*
X170501283Y-80918738D01*
X170501283Y-80918738D02*
X170548902Y-80966357D01*
X170548902Y-80966357D02*
X170596521Y-81061595D01*
X170596521Y-81061595D02*
X170596521Y-81109214D01*
X170596521Y-81109214D02*
X170548902Y-81204452D01*
X170548902Y-81204452D02*
X170501283Y-81252071D01*
X170501283Y-81252071D02*
X170406045Y-81299690D01*
X170406045Y-81299690D02*
X170215569Y-81299690D01*
X170215569Y-81299690D02*
X170120331Y-81347309D01*
X170120331Y-81347309D02*
X170072712Y-81394928D01*
X170072712Y-81394928D02*
X170025093Y-81490166D01*
X170025093Y-81490166D02*
X170025093Y-81680642D01*
X170025093Y-81680642D02*
X170072712Y-81775880D01*
X170072712Y-81775880D02*
X170120331Y-81823500D01*
X170120331Y-81823500D02*
X170215569Y-81871119D01*
X170215569Y-81871119D02*
X170406045Y-81871119D01*
X170406045Y-81871119D02*
X170501283Y-81823500D01*
X170501283Y-81823500D02*
X170548902Y-81775880D01*
X170548902Y-81775880D02*
X170596521Y-81680642D01*
X170596521Y-81680642D02*
X170596521Y-81490166D01*
X170596521Y-81490166D02*
X170548902Y-81394928D01*
X170548902Y-81394928D02*
X170501283Y-81347309D01*
X170501283Y-81347309D02*
X170406045Y-81299690D01*
X166686997Y-80284690D02*
X166663188Y-80308500D01*
X166663188Y-80308500D02*
X166591759Y-80332309D01*
X166591759Y-80332309D02*
X166544140Y-80332309D01*
X166544140Y-80332309D02*
X166472712Y-80308500D01*
X166472712Y-80308500D02*
X166425093Y-80260880D01*
X166425093Y-80260880D02*
X166401283Y-80213261D01*
X166401283Y-80213261D02*
X166377474Y-80118023D01*
X166377474Y-80118023D02*
X166377474Y-80046595D01*
X166377474Y-80046595D02*
X166401283Y-79951357D01*
X166401283Y-79951357D02*
X166425093Y-79903738D01*
X166425093Y-79903738D02*
X166472712Y-79856119D01*
X166472712Y-79856119D02*
X166544140Y-79832309D01*
X166544140Y-79832309D02*
X166591759Y-79832309D01*
X166591759Y-79832309D02*
X166663188Y-79856119D01*
X166663188Y-79856119D02*
X166686997Y-79879928D01*
X166877474Y-80189452D02*
X167115569Y-80189452D01*
X166829855Y-80332309D02*
X166996521Y-79832309D01*
X166996521Y-79832309D02*
X167163188Y-80332309D01*
X167329854Y-80332309D02*
X167329854Y-79832309D01*
X167329854Y-79832309D02*
X167615568Y-80332309D01*
X167615568Y-80332309D02*
X167615568Y-79832309D01*
X163592712Y-81823500D02*
X163735569Y-81871119D01*
X163735569Y-81871119D02*
X163973664Y-81871119D01*
X163973664Y-81871119D02*
X164068902Y-81823500D01*
X164068902Y-81823500D02*
X164116521Y-81775880D01*
X164116521Y-81775880D02*
X164164140Y-81680642D01*
X164164140Y-81680642D02*
X164164140Y-81585404D01*
X164164140Y-81585404D02*
X164116521Y-81490166D01*
X164116521Y-81490166D02*
X164068902Y-81442547D01*
X164068902Y-81442547D02*
X163973664Y-81394928D01*
X163973664Y-81394928D02*
X163783188Y-81347309D01*
X163783188Y-81347309D02*
X163687950Y-81299690D01*
X163687950Y-81299690D02*
X163640331Y-81252071D01*
X163640331Y-81252071D02*
X163592712Y-81156833D01*
X163592712Y-81156833D02*
X163592712Y-81061595D01*
X163592712Y-81061595D02*
X163640331Y-80966357D01*
X163640331Y-80966357D02*
X163687950Y-80918738D01*
X163687950Y-80918738D02*
X163783188Y-80871119D01*
X163783188Y-80871119D02*
X164021283Y-80871119D01*
X164021283Y-80871119D02*
X164164140Y-80918738D01*
X164497474Y-80871119D02*
X165164140Y-80871119D01*
X165164140Y-80871119D02*
X164735569Y-81871119D01*
D11*
X163133082Y-89714400D02*
X163347368Y-89785828D01*
X163347368Y-89785828D02*
X163704510Y-89785828D01*
X163704510Y-89785828D02*
X163847368Y-89714400D01*
X163847368Y-89714400D02*
X163918796Y-89642971D01*
X163918796Y-89642971D02*
X163990225Y-89500114D01*
X163990225Y-89500114D02*
X163990225Y-89357257D01*
X163990225Y-89357257D02*
X163918796Y-89214400D01*
X163918796Y-89214400D02*
X163847368Y-89142971D01*
X163847368Y-89142971D02*
X163704510Y-89071542D01*
X163704510Y-89071542D02*
X163418796Y-89000114D01*
X163418796Y-89000114D02*
X163275939Y-88928685D01*
X163275939Y-88928685D02*
X163204510Y-88857257D01*
X163204510Y-88857257D02*
X163133082Y-88714400D01*
X163133082Y-88714400D02*
X163133082Y-88571542D01*
X163133082Y-88571542D02*
X163204510Y-88428685D01*
X163204510Y-88428685D02*
X163275939Y-88357257D01*
X163275939Y-88357257D02*
X163418796Y-88285828D01*
X163418796Y-88285828D02*
X163775939Y-88285828D01*
X163775939Y-88285828D02*
X163990225Y-88357257D01*
X164633081Y-89000114D02*
X165133081Y-89000114D01*
X165347367Y-89785828D02*
X164633081Y-89785828D01*
X164633081Y-89785828D02*
X164633081Y-88285828D01*
X164633081Y-88285828D02*
X165347367Y-88285828D01*
X166847367Y-89785828D02*
X166347367Y-89071542D01*
X165990224Y-89785828D02*
X165990224Y-88285828D01*
X165990224Y-88285828D02*
X166561653Y-88285828D01*
X166561653Y-88285828D02*
X166704510Y-88357257D01*
X166704510Y-88357257D02*
X166775939Y-88428685D01*
X166775939Y-88428685D02*
X166847367Y-88571542D01*
X166847367Y-88571542D02*
X166847367Y-88785828D01*
X166847367Y-88785828D02*
X166775939Y-88928685D01*
X166775939Y-88928685D02*
X166704510Y-89000114D01*
X166704510Y-89000114D02*
X166561653Y-89071542D01*
X166561653Y-89071542D02*
X165990224Y-89071542D01*
X167490224Y-89785828D02*
X167490224Y-88285828D01*
X168133082Y-89357257D02*
X168847368Y-89357257D01*
X167990225Y-89785828D02*
X168490225Y-88285828D01*
X168490225Y-88285828D02*
X168990225Y-89785828D01*
X170204510Y-89785828D02*
X169490224Y-89785828D01*
X169490224Y-89785828D02*
X169490224Y-88285828D01*
X172490225Y-82535828D02*
X173347368Y-82535828D01*
X172918796Y-84035828D02*
X172918796Y-82535828D01*
X173704510Y-82535828D02*
X174704510Y-84035828D01*
X174704510Y-82535828D02*
X173704510Y-84035828D01*
X173435939Y-86535828D02*
X172935939Y-85821542D01*
X172578796Y-86535828D02*
X172578796Y-85035828D01*
X172578796Y-85035828D02*
X173150225Y-85035828D01*
X173150225Y-85035828D02*
X173293082Y-85107257D01*
X173293082Y-85107257D02*
X173364511Y-85178685D01*
X173364511Y-85178685D02*
X173435939Y-85321542D01*
X173435939Y-85321542D02*
X173435939Y-85535828D01*
X173435939Y-85535828D02*
X173364511Y-85678685D01*
X173364511Y-85678685D02*
X173293082Y-85750114D01*
X173293082Y-85750114D02*
X173150225Y-85821542D01*
X173150225Y-85821542D02*
X172578796Y-85821542D01*
X173935939Y-85035828D02*
X174935939Y-86535828D01*
X174935939Y-85035828D02*
X173935939Y-86535828D01*
D10*
X160842712Y-81823500D02*
X160985569Y-81871119D01*
X160985569Y-81871119D02*
X161223664Y-81871119D01*
X161223664Y-81871119D02*
X161318902Y-81823500D01*
X161318902Y-81823500D02*
X161366521Y-81775880D01*
X161366521Y-81775880D02*
X161414140Y-81680642D01*
X161414140Y-81680642D02*
X161414140Y-81585404D01*
X161414140Y-81585404D02*
X161366521Y-81490166D01*
X161366521Y-81490166D02*
X161318902Y-81442547D01*
X161318902Y-81442547D02*
X161223664Y-81394928D01*
X161223664Y-81394928D02*
X161033188Y-81347309D01*
X161033188Y-81347309D02*
X160937950Y-81299690D01*
X160937950Y-81299690D02*
X160890331Y-81252071D01*
X160890331Y-81252071D02*
X160842712Y-81156833D01*
X160842712Y-81156833D02*
X160842712Y-81061595D01*
X160842712Y-81061595D02*
X160890331Y-80966357D01*
X160890331Y-80966357D02*
X160937950Y-80918738D01*
X160937950Y-80918738D02*
X161033188Y-80871119D01*
X161033188Y-80871119D02*
X161271283Y-80871119D01*
X161271283Y-80871119D02*
X161414140Y-80918738D01*
X161795093Y-80966357D02*
X161842712Y-80918738D01*
X161842712Y-80918738D02*
X161937950Y-80871119D01*
X161937950Y-80871119D02*
X162176045Y-80871119D01*
X162176045Y-80871119D02*
X162271283Y-80918738D01*
X162271283Y-80918738D02*
X162318902Y-80966357D01*
X162318902Y-80966357D02*
X162366521Y-81061595D01*
X162366521Y-81061595D02*
X162366521Y-81156833D01*
X162366521Y-81156833D02*
X162318902Y-81299690D01*
X162318902Y-81299690D02*
X161747474Y-81871119D01*
X161747474Y-81871119D02*
X162366521Y-81871119D01*
X166342712Y-81823500D02*
X166485569Y-81871119D01*
X166485569Y-81871119D02*
X166723664Y-81871119D01*
X166723664Y-81871119D02*
X166818902Y-81823500D01*
X166818902Y-81823500D02*
X166866521Y-81775880D01*
X166866521Y-81775880D02*
X166914140Y-81680642D01*
X166914140Y-81680642D02*
X166914140Y-81585404D01*
X166914140Y-81585404D02*
X166866521Y-81490166D01*
X166866521Y-81490166D02*
X166818902Y-81442547D01*
X166818902Y-81442547D02*
X166723664Y-81394928D01*
X166723664Y-81394928D02*
X166533188Y-81347309D01*
X166533188Y-81347309D02*
X166437950Y-81299690D01*
X166437950Y-81299690D02*
X166390331Y-81252071D01*
X166390331Y-81252071D02*
X166342712Y-81156833D01*
X166342712Y-81156833D02*
X166342712Y-81061595D01*
X166342712Y-81061595D02*
X166390331Y-80966357D01*
X166390331Y-80966357D02*
X166437950Y-80918738D01*
X166437950Y-80918738D02*
X166533188Y-80871119D01*
X166533188Y-80871119D02*
X166771283Y-80871119D01*
X166771283Y-80871119D02*
X166914140Y-80918738D01*
X167247474Y-80871119D02*
X167866521Y-80871119D01*
X167866521Y-80871119D02*
X167533188Y-81252071D01*
X167533188Y-81252071D02*
X167676045Y-81252071D01*
X167676045Y-81252071D02*
X167771283Y-81299690D01*
X167771283Y-81299690D02*
X167818902Y-81347309D01*
X167818902Y-81347309D02*
X167866521Y-81442547D01*
X167866521Y-81442547D02*
X167866521Y-81680642D01*
X167866521Y-81680642D02*
X167818902Y-81775880D01*
X167818902Y-81775880D02*
X167771283Y-81823500D01*
X167771283Y-81823500D02*
X167676045Y-81871119D01*
X167676045Y-81871119D02*
X167390331Y-81871119D01*
X167390331Y-81871119D02*
X167295093Y-81823500D01*
X167295093Y-81823500D02*
X167247474Y-81775880D01*
D12*
X172177506Y-78150068D02*
X172177506Y-77435783D01*
X172177506Y-77435783D02*
X172225125Y-77292926D01*
X172225125Y-77292926D02*
X172320363Y-77197688D01*
X172320363Y-77197688D02*
X172463220Y-77150068D01*
X172463220Y-77150068D02*
X172558458Y-77150068D01*
X171701315Y-77150068D02*
X171701315Y-77816735D01*
X171701315Y-78150068D02*
X171748934Y-78102449D01*
X171748934Y-78102449D02*
X171701315Y-78054830D01*
X171701315Y-78054830D02*
X171653696Y-78102449D01*
X171653696Y-78102449D02*
X171701315Y-78150068D01*
X171701315Y-78150068D02*
X171701315Y-78054830D01*
X171225125Y-77150068D02*
X171225125Y-77816735D01*
X171225125Y-77626259D02*
X171177506Y-77721497D01*
X171177506Y-77721497D02*
X171129887Y-77769116D01*
X171129887Y-77769116D02*
X171034649Y-77816735D01*
X171034649Y-77816735D02*
X170939411Y-77816735D01*
X170177506Y-77150068D02*
X170177506Y-77673878D01*
X170177506Y-77673878D02*
X170225125Y-77769116D01*
X170225125Y-77769116D02*
X170320363Y-77816735D01*
X170320363Y-77816735D02*
X170510839Y-77816735D01*
X170510839Y-77816735D02*
X170606077Y-77769116D01*
X170177506Y-77197688D02*
X170272744Y-77150068D01*
X170272744Y-77150068D02*
X170510839Y-77150068D01*
X170510839Y-77150068D02*
X170606077Y-77197688D01*
X170606077Y-77197688D02*
X170653696Y-77292926D01*
X170653696Y-77292926D02*
X170653696Y-77388164D01*
X170653696Y-77388164D02*
X170606077Y-77483402D01*
X170606077Y-77483402D02*
X170510839Y-77531021D01*
X170510839Y-77531021D02*
X170272744Y-77531021D01*
X170272744Y-77531021D02*
X170177506Y-77578640D01*
X169701315Y-77150068D02*
X169701315Y-78150068D01*
X169606077Y-77531021D02*
X169320363Y-77150068D01*
X169320363Y-77816735D02*
X169701315Y-77435783D01*
X168748934Y-77150068D02*
X168844172Y-77197688D01*
X168844172Y-77197688D02*
X168891791Y-77245307D01*
X168891791Y-77245307D02*
X168939410Y-77340545D01*
X168939410Y-77340545D02*
X168939410Y-77626259D01*
X168939410Y-77626259D02*
X168891791Y-77721497D01*
X168891791Y-77721497D02*
X168844172Y-77769116D01*
X168844172Y-77769116D02*
X168748934Y-77816735D01*
X168748934Y-77816735D02*
X168606077Y-77816735D01*
X168606077Y-77816735D02*
X168510839Y-77769116D01*
X168510839Y-77769116D02*
X168463220Y-77721497D01*
X168463220Y-77721497D02*
X168415601Y-77626259D01*
X168415601Y-77626259D02*
X168415601Y-77340545D01*
X168415601Y-77340545D02*
X168463220Y-77245307D01*
X168463220Y-77245307D02*
X168510839Y-77197688D01*
X168510839Y-77197688D02*
X168606077Y-77150068D01*
X168606077Y-77150068D02*
X168748934Y-77150068D01*
X167987029Y-77150068D02*
X167987029Y-77816735D01*
X167987029Y-77626259D02*
X167939410Y-77721497D01*
X167939410Y-77721497D02*
X167891791Y-77769116D01*
X167891791Y-77769116D02*
X167796553Y-77816735D01*
X167796553Y-77816735D02*
X167701315Y-77816735D01*
X167367981Y-77816735D02*
X167367981Y-77150068D01*
X167367981Y-77721497D02*
X167320362Y-77769116D01*
X167320362Y-77769116D02*
X167225124Y-77816735D01*
X167225124Y-77816735D02*
X167082267Y-77816735D01*
X167082267Y-77816735D02*
X166987029Y-77769116D01*
X166987029Y-77769116D02*
X166939410Y-77673878D01*
X166939410Y-77673878D02*
X166939410Y-77150068D01*
X165748933Y-77197688D02*
X165606076Y-77150068D01*
X165606076Y-77150068D02*
X165367981Y-77150068D01*
X165367981Y-77150068D02*
X165272743Y-77197688D01*
X165272743Y-77197688D02*
X165225124Y-77245307D01*
X165225124Y-77245307D02*
X165177505Y-77340545D01*
X165177505Y-77340545D02*
X165177505Y-77435783D01*
X165177505Y-77435783D02*
X165225124Y-77531021D01*
X165225124Y-77531021D02*
X165272743Y-77578640D01*
X165272743Y-77578640D02*
X165367981Y-77626259D01*
X165367981Y-77626259D02*
X165558457Y-77673878D01*
X165558457Y-77673878D02*
X165653695Y-77721497D01*
X165653695Y-77721497D02*
X165701314Y-77769116D01*
X165701314Y-77769116D02*
X165748933Y-77864354D01*
X165748933Y-77864354D02*
X165748933Y-77959592D01*
X165748933Y-77959592D02*
X165701314Y-78054830D01*
X165701314Y-78054830D02*
X165653695Y-78102449D01*
X165653695Y-78102449D02*
X165558457Y-78150068D01*
X165558457Y-78150068D02*
X165320362Y-78150068D01*
X165320362Y-78150068D02*
X165177505Y-78102449D01*
X164320362Y-77816735D02*
X164320362Y-77150068D01*
X164748933Y-77816735D02*
X164748933Y-77292926D01*
X164748933Y-77292926D02*
X164701314Y-77197688D01*
X164701314Y-77197688D02*
X164606076Y-77150068D01*
X164606076Y-77150068D02*
X164463219Y-77150068D01*
X164463219Y-77150068D02*
X164367981Y-77197688D01*
X164367981Y-77197688D02*
X164320362Y-77245307D01*
X163844171Y-77150068D02*
X163844171Y-78150068D01*
X163748933Y-77531021D02*
X163463219Y-77150068D01*
X163463219Y-77816735D02*
X163844171Y-77435783D01*
X163034647Y-77150068D02*
X163034647Y-77816735D01*
X163034647Y-77721497D02*
X162987028Y-77769116D01*
X162987028Y-77769116D02*
X162891790Y-77816735D01*
X162891790Y-77816735D02*
X162748933Y-77816735D01*
X162748933Y-77816735D02*
X162653695Y-77769116D01*
X162653695Y-77769116D02*
X162606076Y-77673878D01*
X162606076Y-77673878D02*
X162606076Y-77150068D01*
X162606076Y-77673878D02*
X162558457Y-77769116D01*
X162558457Y-77769116D02*
X162463219Y-77816735D01*
X162463219Y-77816735D02*
X162320362Y-77816735D01*
X162320362Y-77816735D02*
X162225123Y-77769116D01*
X162225123Y-77769116D02*
X162177504Y-77673878D01*
X162177504Y-77673878D02*
X162177504Y-77150068D01*
X161320362Y-77197688D02*
X161415600Y-77150068D01*
X161415600Y-77150068D02*
X161606076Y-77150068D01*
X161606076Y-77150068D02*
X161701314Y-77197688D01*
X161701314Y-77197688D02*
X161748933Y-77292926D01*
X161748933Y-77292926D02*
X161748933Y-77673878D01*
X161748933Y-77673878D02*
X161701314Y-77769116D01*
X161701314Y-77769116D02*
X161606076Y-77816735D01*
X161606076Y-77816735D02*
X161415600Y-77816735D01*
X161415600Y-77816735D02*
X161320362Y-77769116D01*
X161320362Y-77769116D02*
X161272743Y-77673878D01*
X161272743Y-77673878D02*
X161272743Y-77578640D01*
X161272743Y-77578640D02*
X161748933Y-77483402D01*
X160463219Y-77197688D02*
X160558457Y-77150068D01*
X160558457Y-77150068D02*
X160748933Y-77150068D01*
X160748933Y-77150068D02*
X160844171Y-77197688D01*
X160844171Y-77197688D02*
X160891790Y-77292926D01*
X160891790Y-77292926D02*
X160891790Y-77673878D01*
X160891790Y-77673878D02*
X160844171Y-77769116D01*
X160844171Y-77769116D02*
X160748933Y-77816735D01*
X160748933Y-77816735D02*
X160558457Y-77816735D01*
X160558457Y-77816735D02*
X160463219Y-77769116D01*
X160463219Y-77769116D02*
X160415600Y-77673878D01*
X160415600Y-77673878D02*
X160415600Y-77578640D01*
X160415600Y-77578640D02*
X160891790Y-77483402D01*
X159939409Y-78150068D02*
X160034647Y-77959592D01*
X159558457Y-77197688D02*
X159463219Y-77150068D01*
X159463219Y-77150068D02*
X159272743Y-77150068D01*
X159272743Y-77150068D02*
X159177505Y-77197688D01*
X159177505Y-77197688D02*
X159129886Y-77292926D01*
X159129886Y-77292926D02*
X159129886Y-77340545D01*
X159129886Y-77340545D02*
X159177505Y-77435783D01*
X159177505Y-77435783D02*
X159272743Y-77483402D01*
X159272743Y-77483402D02*
X159415600Y-77483402D01*
X159415600Y-77483402D02*
X159510838Y-77531021D01*
X159510838Y-77531021D02*
X159558457Y-77626259D01*
X159558457Y-77626259D02*
X159558457Y-77673878D01*
X159558457Y-77673878D02*
X159510838Y-77769116D01*
X159510838Y-77769116D02*
X159415600Y-77816735D01*
X159415600Y-77816735D02*
X159272743Y-77816735D01*
X159272743Y-77816735D02*
X159177505Y-77769116D01*
X172606077Y-76540124D02*
X172034649Y-76540124D01*
X172320363Y-75540124D02*
X172320363Y-76540124D01*
X171320363Y-75587744D02*
X171415601Y-75540124D01*
X171415601Y-75540124D02*
X171606077Y-75540124D01*
X171606077Y-75540124D02*
X171701315Y-75587744D01*
X171701315Y-75587744D02*
X171748934Y-75682982D01*
X171748934Y-75682982D02*
X171748934Y-76063934D01*
X171748934Y-76063934D02*
X171701315Y-76159172D01*
X171701315Y-76159172D02*
X171606077Y-76206791D01*
X171606077Y-76206791D02*
X171415601Y-76206791D01*
X171415601Y-76206791D02*
X171320363Y-76159172D01*
X171320363Y-76159172D02*
X171272744Y-76063934D01*
X171272744Y-76063934D02*
X171272744Y-75968696D01*
X171272744Y-75968696D02*
X171748934Y-75873458D01*
X170463220Y-75587744D02*
X170558458Y-75540124D01*
X170558458Y-75540124D02*
X170748934Y-75540124D01*
X170748934Y-75540124D02*
X170844172Y-75587744D01*
X170844172Y-75587744D02*
X170891791Y-75682982D01*
X170891791Y-75682982D02*
X170891791Y-76063934D01*
X170891791Y-76063934D02*
X170844172Y-76159172D01*
X170844172Y-76159172D02*
X170748934Y-76206791D01*
X170748934Y-76206791D02*
X170558458Y-76206791D01*
X170558458Y-76206791D02*
X170463220Y-76159172D01*
X170463220Y-76159172D02*
X170415601Y-76063934D01*
X170415601Y-76063934D02*
X170415601Y-75968696D01*
X170415601Y-75968696D02*
X170891791Y-75873458D01*
X169987029Y-76206791D02*
X169987029Y-75540124D01*
X169987029Y-76111553D02*
X169939410Y-76159172D01*
X169939410Y-76159172D02*
X169844172Y-76206791D01*
X169844172Y-76206791D02*
X169701315Y-76206791D01*
X169701315Y-76206791D02*
X169606077Y-76159172D01*
X169606077Y-76159172D02*
X169558458Y-76063934D01*
X169558458Y-76063934D02*
X169558458Y-75540124D01*
X169129886Y-75587744D02*
X169034648Y-75540124D01*
X169034648Y-75540124D02*
X168844172Y-75540124D01*
X168844172Y-75540124D02*
X168748934Y-75587744D01*
X168748934Y-75587744D02*
X168701315Y-75682982D01*
X168701315Y-75682982D02*
X168701315Y-75730601D01*
X168701315Y-75730601D02*
X168748934Y-75825839D01*
X168748934Y-75825839D02*
X168844172Y-75873458D01*
X168844172Y-75873458D02*
X168987029Y-75873458D01*
X168987029Y-75873458D02*
X169082267Y-75921077D01*
X169082267Y-75921077D02*
X169129886Y-76016315D01*
X169129886Y-76016315D02*
X169129886Y-76063934D01*
X169129886Y-76063934D02*
X169082267Y-76159172D01*
X169082267Y-76159172D02*
X168987029Y-76206791D01*
X168987029Y-76206791D02*
X168844172Y-76206791D01*
X168844172Y-76206791D02*
X168748934Y-76159172D01*
X168367981Y-76206791D02*
X168129886Y-75540124D01*
X167891791Y-76206791D02*
X168129886Y-75540124D01*
X168129886Y-75540124D02*
X168225124Y-75302029D01*
X168225124Y-75302029D02*
X168272743Y-75254410D01*
X168272743Y-75254410D02*
X168367981Y-75206791D01*
X166320362Y-76206791D02*
X166320362Y-75540124D01*
X166558457Y-76587744D02*
X166796552Y-75873458D01*
X166796552Y-75873458D02*
X166177505Y-75873458D01*
X165796552Y-75635363D02*
X165748933Y-75587744D01*
X165748933Y-75587744D02*
X165796552Y-75540124D01*
X165796552Y-75540124D02*
X165844171Y-75587744D01*
X165844171Y-75587744D02*
X165796552Y-75635363D01*
X165796552Y-75635363D02*
X165796552Y-75540124D01*
X164796553Y-75540124D02*
X165367981Y-75540124D01*
X165082267Y-75540124D02*
X165082267Y-76540124D01*
X165082267Y-76540124D02*
X165177505Y-76397267D01*
X165177505Y-76397267D02*
X165272743Y-76302029D01*
X165272743Y-76302029D02*
X165367981Y-76254410D01*
X172463220Y-73930180D02*
X172463220Y-74930180D01*
X172463220Y-74453990D02*
X171891792Y-74453990D01*
X171891792Y-73930180D02*
X171891792Y-74930180D01*
X171034649Y-73977800D02*
X171129887Y-73930180D01*
X171129887Y-73930180D02*
X171320363Y-73930180D01*
X171320363Y-73930180D02*
X171415601Y-73977800D01*
X171415601Y-73977800D02*
X171463220Y-74073038D01*
X171463220Y-74073038D02*
X171463220Y-74453990D01*
X171463220Y-74453990D02*
X171415601Y-74549228D01*
X171415601Y-74549228D02*
X171320363Y-74596847D01*
X171320363Y-74596847D02*
X171129887Y-74596847D01*
X171129887Y-74596847D02*
X171034649Y-74549228D01*
X171034649Y-74549228D02*
X170987030Y-74453990D01*
X170987030Y-74453990D02*
X170987030Y-74358752D01*
X170987030Y-74358752D02*
X171463220Y-74263514D01*
X170653696Y-73930180D02*
X170129887Y-74596847D01*
X170653696Y-74596847D02*
X170129887Y-73930180D01*
X169320363Y-73930180D02*
X169320363Y-74453990D01*
X169320363Y-74453990D02*
X169367982Y-74549228D01*
X169367982Y-74549228D02*
X169463220Y-74596847D01*
X169463220Y-74596847D02*
X169653696Y-74596847D01*
X169653696Y-74596847D02*
X169748934Y-74549228D01*
X169320363Y-73977800D02*
X169415601Y-73930180D01*
X169415601Y-73930180D02*
X169653696Y-73930180D01*
X169653696Y-73930180D02*
X169748934Y-73977800D01*
X169748934Y-73977800D02*
X169796553Y-74073038D01*
X169796553Y-74073038D02*
X169796553Y-74168276D01*
X169796553Y-74168276D02*
X169748934Y-74263514D01*
X169748934Y-74263514D02*
X169653696Y-74311133D01*
X169653696Y-74311133D02*
X169415601Y-74311133D01*
X169415601Y-74311133D02*
X169320363Y-74358752D01*
X168844172Y-74596847D02*
X168844172Y-73596847D01*
X168844172Y-74549228D02*
X168748934Y-74596847D01*
X168748934Y-74596847D02*
X168558458Y-74596847D01*
X168558458Y-74596847D02*
X168463220Y-74549228D01*
X168463220Y-74549228D02*
X168415601Y-74501609D01*
X168415601Y-74501609D02*
X168367982Y-74406371D01*
X168367982Y-74406371D02*
X168367982Y-74120657D01*
X168367982Y-74120657D02*
X168415601Y-74025419D01*
X168415601Y-74025419D02*
X168463220Y-73977800D01*
X168463220Y-73977800D02*
X168558458Y-73930180D01*
X168558458Y-73930180D02*
X168748934Y-73930180D01*
X168748934Y-73930180D02*
X168844172Y-73977800D01*
X167796553Y-73930180D02*
X167891791Y-73977800D01*
X167891791Y-73977800D02*
X167939410Y-74025419D01*
X167939410Y-74025419D02*
X167987029Y-74120657D01*
X167987029Y-74120657D02*
X167987029Y-74406371D01*
X167987029Y-74406371D02*
X167939410Y-74501609D01*
X167939410Y-74501609D02*
X167891791Y-74549228D01*
X167891791Y-74549228D02*
X167796553Y-74596847D01*
X167796553Y-74596847D02*
X167653696Y-74596847D01*
X167653696Y-74596847D02*
X167558458Y-74549228D01*
X167558458Y-74549228D02*
X167510839Y-74501609D01*
X167510839Y-74501609D02*
X167463220Y-74406371D01*
X167463220Y-74406371D02*
X167463220Y-74120657D01*
X167463220Y-74120657D02*
X167510839Y-74025419D01*
X167510839Y-74025419D02*
X167558458Y-73977800D01*
X167558458Y-73977800D02*
X167653696Y-73930180D01*
X167653696Y-73930180D02*
X167796553Y-73930180D01*
X166606077Y-73930180D02*
X166606077Y-74930180D01*
X166606077Y-73977800D02*
X166701315Y-73930180D01*
X166701315Y-73930180D02*
X166891791Y-73930180D01*
X166891791Y-73930180D02*
X166987029Y-73977800D01*
X166987029Y-73977800D02*
X167034648Y-74025419D01*
X167034648Y-74025419D02*
X167082267Y-74120657D01*
X167082267Y-74120657D02*
X167082267Y-74406371D01*
X167082267Y-74406371D02*
X167034648Y-74501609D01*
X167034648Y-74501609D02*
X166987029Y-74549228D01*
X166987029Y-74549228D02*
X166891791Y-74596847D01*
X166891791Y-74596847D02*
X166701315Y-74596847D01*
X166701315Y-74596847D02*
X166606077Y-74549228D01*
X165367981Y-73930180D02*
X165367981Y-74930180D01*
X165367981Y-74930180D02*
X164987029Y-74930180D01*
X164987029Y-74930180D02*
X164891791Y-74882561D01*
X164891791Y-74882561D02*
X164844172Y-74834942D01*
X164844172Y-74834942D02*
X164796553Y-74739704D01*
X164796553Y-74739704D02*
X164796553Y-74596847D01*
X164796553Y-74596847D02*
X164844172Y-74501609D01*
X164844172Y-74501609D02*
X164891791Y-74453990D01*
X164891791Y-74453990D02*
X164987029Y-74406371D01*
X164987029Y-74406371D02*
X165367981Y-74406371D01*
X163796553Y-74025419D02*
X163844172Y-73977800D01*
X163844172Y-73977800D02*
X163987029Y-73930180D01*
X163987029Y-73930180D02*
X164082267Y-73930180D01*
X164082267Y-73930180D02*
X164225124Y-73977800D01*
X164225124Y-73977800D02*
X164320362Y-74073038D01*
X164320362Y-74073038D02*
X164367981Y-74168276D01*
X164367981Y-74168276D02*
X164415600Y-74358752D01*
X164415600Y-74358752D02*
X164415600Y-74501609D01*
X164415600Y-74501609D02*
X164367981Y-74692085D01*
X164367981Y-74692085D02*
X164320362Y-74787323D01*
X164320362Y-74787323D02*
X164225124Y-74882561D01*
X164225124Y-74882561D02*
X164082267Y-74930180D01*
X164082267Y-74930180D02*
X163987029Y-74930180D01*
X163987029Y-74930180D02*
X163844172Y-74882561D01*
X163844172Y-74882561D02*
X163796553Y-74834942D01*
X163034648Y-74453990D02*
X162891791Y-74406371D01*
X162891791Y-74406371D02*
X162844172Y-74358752D01*
X162844172Y-74358752D02*
X162796553Y-74263514D01*
X162796553Y-74263514D02*
X162796553Y-74120657D01*
X162796553Y-74120657D02*
X162844172Y-74025419D01*
X162844172Y-74025419D02*
X162891791Y-73977800D01*
X162891791Y-73977800D02*
X162987029Y-73930180D01*
X162987029Y-73930180D02*
X163367981Y-73930180D01*
X163367981Y-73930180D02*
X163367981Y-74930180D01*
X163367981Y-74930180D02*
X163034648Y-74930180D01*
X163034648Y-74930180D02*
X162939410Y-74882561D01*
X162939410Y-74882561D02*
X162891791Y-74834942D01*
X162891791Y-74834942D02*
X162844172Y-74739704D01*
X162844172Y-74739704D02*
X162844172Y-74644466D01*
X162844172Y-74644466D02*
X162891791Y-74549228D01*
X162891791Y-74549228D02*
X162939410Y-74501609D01*
X162939410Y-74501609D02*
X163034648Y-74453990D01*
X163034648Y-74453990D02*
X163367981Y-74453990D01*
D10*
X178316666Y-103577190D02*
X178292857Y-103601000D01*
X178292857Y-103601000D02*
X178221428Y-103624809D01*
X178221428Y-103624809D02*
X178173809Y-103624809D01*
X178173809Y-103624809D02*
X178102381Y-103601000D01*
X178102381Y-103601000D02*
X178054762Y-103553380D01*
X178054762Y-103553380D02*
X178030952Y-103505761D01*
X178030952Y-103505761D02*
X178007143Y-103410523D01*
X178007143Y-103410523D02*
X178007143Y-103339095D01*
X178007143Y-103339095D02*
X178030952Y-103243857D01*
X178030952Y-103243857D02*
X178054762Y-103196238D01*
X178054762Y-103196238D02*
X178102381Y-103148619D01*
X178102381Y-103148619D02*
X178173809Y-103124809D01*
X178173809Y-103124809D02*
X178221428Y-103124809D01*
X178221428Y-103124809D02*
X178292857Y-103148619D01*
X178292857Y-103148619D02*
X178316666Y-103172428D01*
X178745238Y-103124809D02*
X178650000Y-103124809D01*
X178650000Y-103124809D02*
X178602381Y-103148619D01*
X178602381Y-103148619D02*
X178578571Y-103172428D01*
X178578571Y-103172428D02*
X178530952Y-103243857D01*
X178530952Y-103243857D02*
X178507143Y-103339095D01*
X178507143Y-103339095D02*
X178507143Y-103529571D01*
X178507143Y-103529571D02*
X178530952Y-103577190D01*
X178530952Y-103577190D02*
X178554762Y-103601000D01*
X178554762Y-103601000D02*
X178602381Y-103624809D01*
X178602381Y-103624809D02*
X178697619Y-103624809D01*
X178697619Y-103624809D02*
X178745238Y-103601000D01*
X178745238Y-103601000D02*
X178769047Y-103577190D01*
X178769047Y-103577190D02*
X178792857Y-103529571D01*
X178792857Y-103529571D02*
X178792857Y-103410523D01*
X178792857Y-103410523D02*
X178769047Y-103362904D01*
X178769047Y-103362904D02*
X178745238Y-103339095D01*
X178745238Y-103339095D02*
X178697619Y-103315285D01*
X178697619Y-103315285D02*
X178602381Y-103315285D01*
X178602381Y-103315285D02*
X178554762Y-103339095D01*
X178554762Y-103339095D02*
X178530952Y-103362904D01*
X178530952Y-103362904D02*
X178507143Y-103410523D01*
D12*
X180523810Y-84654819D02*
X181142857Y-84654819D01*
X181142857Y-84654819D02*
X180809524Y-85035771D01*
X180809524Y-85035771D02*
X180952381Y-85035771D01*
X180952381Y-85035771D02*
X181047619Y-85083390D01*
X181047619Y-85083390D02*
X181095238Y-85131009D01*
X181095238Y-85131009D02*
X181142857Y-85226247D01*
X181142857Y-85226247D02*
X181142857Y-85464342D01*
X181142857Y-85464342D02*
X181095238Y-85559580D01*
X181095238Y-85559580D02*
X181047619Y-85607200D01*
X181047619Y-85607200D02*
X180952381Y-85654819D01*
X180952381Y-85654819D02*
X180666667Y-85654819D01*
X180666667Y-85654819D02*
X180571429Y-85607200D01*
X180571429Y-85607200D02*
X180523810Y-85559580D01*
X181571429Y-85559580D02*
X181619048Y-85607200D01*
X181619048Y-85607200D02*
X181571429Y-85654819D01*
X181571429Y-85654819D02*
X181523810Y-85607200D01*
X181523810Y-85607200D02*
X181571429Y-85559580D01*
X181571429Y-85559580D02*
X181571429Y-85654819D01*
X181952381Y-84654819D02*
X182571428Y-84654819D01*
X182571428Y-84654819D02*
X182238095Y-85035771D01*
X182238095Y-85035771D02*
X182380952Y-85035771D01*
X182380952Y-85035771D02*
X182476190Y-85083390D01*
X182476190Y-85083390D02*
X182523809Y-85131009D01*
X182523809Y-85131009D02*
X182571428Y-85226247D01*
X182571428Y-85226247D02*
X182571428Y-85464342D01*
X182571428Y-85464342D02*
X182523809Y-85559580D01*
X182523809Y-85559580D02*
X182476190Y-85607200D01*
X182476190Y-85607200D02*
X182380952Y-85654819D01*
X182380952Y-85654819D02*
X182095238Y-85654819D01*
X182095238Y-85654819D02*
X182000000Y-85607200D01*
X182000000Y-85607200D02*
X181952381Y-85559580D01*
X182857143Y-84654819D02*
X183190476Y-85654819D01*
X183190476Y-85654819D02*
X183523809Y-84654819D01*
X153278095Y-89574819D02*
X153278095Y-90384342D01*
X153278095Y-90384342D02*
X153325714Y-90479580D01*
X153325714Y-90479580D02*
X153373333Y-90527200D01*
X153373333Y-90527200D02*
X153468571Y-90574819D01*
X153468571Y-90574819D02*
X153659047Y-90574819D01*
X153659047Y-90574819D02*
X153754285Y-90527200D01*
X153754285Y-90527200D02*
X153801904Y-90479580D01*
X153801904Y-90479580D02*
X153849523Y-90384342D01*
X153849523Y-90384342D02*
X153849523Y-89574819D01*
X154278095Y-89670057D02*
X154325714Y-89622438D01*
X154325714Y-89622438D02*
X154420952Y-89574819D01*
X154420952Y-89574819D02*
X154659047Y-89574819D01*
X154659047Y-89574819D02*
X154754285Y-89622438D01*
X154754285Y-89622438D02*
X154801904Y-89670057D01*
X154801904Y-89670057D02*
X154849523Y-89765295D01*
X154849523Y-89765295D02*
X154849523Y-89860533D01*
X154849523Y-89860533D02*
X154801904Y-90003390D01*
X154801904Y-90003390D02*
X154230476Y-90574819D01*
X154230476Y-90574819D02*
X154849523Y-90574819D01*
D13*
X153960237Y-101774318D02*
X153960237Y-100504318D01*
X155290714Y-101653365D02*
X155230238Y-101713842D01*
X155230238Y-101713842D02*
X155048809Y-101774318D01*
X155048809Y-101774318D02*
X154927857Y-101774318D01*
X154927857Y-101774318D02*
X154746428Y-101713842D01*
X154746428Y-101713842D02*
X154625476Y-101592889D01*
X154625476Y-101592889D02*
X154564999Y-101471937D01*
X154564999Y-101471937D02*
X154504523Y-101230032D01*
X154504523Y-101230032D02*
X154504523Y-101048603D01*
X154504523Y-101048603D02*
X154564999Y-100806699D01*
X154564999Y-100806699D02*
X154625476Y-100685746D01*
X154625476Y-100685746D02*
X154746428Y-100564794D01*
X154746428Y-100564794D02*
X154927857Y-100504318D01*
X154927857Y-100504318D02*
X155048809Y-100504318D01*
X155048809Y-100504318D02*
X155230238Y-100564794D01*
X155230238Y-100564794D02*
X155290714Y-100625270D01*
X155774523Y-100625270D02*
X155834999Y-100564794D01*
X155834999Y-100564794D02*
X155955952Y-100504318D01*
X155955952Y-100504318D02*
X156258333Y-100504318D01*
X156258333Y-100504318D02*
X156379285Y-100564794D01*
X156379285Y-100564794D02*
X156439761Y-100625270D01*
X156439761Y-100625270D02*
X156500238Y-100746222D01*
X156500238Y-100746222D02*
X156500238Y-100867175D01*
X156500238Y-100867175D02*
X156439761Y-101048603D01*
X156439761Y-101048603D02*
X155714047Y-101774318D01*
X155714047Y-101774318D02*
X156500238Y-101774318D01*
D12*
X148033333Y-84159580D02*
X147985714Y-84207200D01*
X147985714Y-84207200D02*
X147842857Y-84254819D01*
X147842857Y-84254819D02*
X147747619Y-84254819D01*
X147747619Y-84254819D02*
X147604762Y-84207200D01*
X147604762Y-84207200D02*
X147509524Y-84111961D01*
X147509524Y-84111961D02*
X147461905Y-84016723D01*
X147461905Y-84016723D02*
X147414286Y-83826247D01*
X147414286Y-83826247D02*
X147414286Y-83683390D01*
X147414286Y-83683390D02*
X147461905Y-83492914D01*
X147461905Y-83492914D02*
X147509524Y-83397676D01*
X147509524Y-83397676D02*
X147604762Y-83302438D01*
X147604762Y-83302438D02*
X147747619Y-83254819D01*
X147747619Y-83254819D02*
X147842857Y-83254819D01*
X147842857Y-83254819D02*
X147985714Y-83302438D01*
X147985714Y-83302438D02*
X148033333Y-83350057D01*
X148366667Y-83254819D02*
X148985714Y-83254819D01*
X148985714Y-83254819D02*
X148652381Y-83635771D01*
X148652381Y-83635771D02*
X148795238Y-83635771D01*
X148795238Y-83635771D02*
X148890476Y-83683390D01*
X148890476Y-83683390D02*
X148938095Y-83731009D01*
X148938095Y-83731009D02*
X148985714Y-83826247D01*
X148985714Y-83826247D02*
X148985714Y-84064342D01*
X148985714Y-84064342D02*
X148938095Y-84159580D01*
X148938095Y-84159580D02*
X148890476Y-84207200D01*
X148890476Y-84207200D02*
X148795238Y-84254819D01*
X148795238Y-84254819D02*
X148509524Y-84254819D01*
X148509524Y-84254819D02*
X148414286Y-84207200D01*
X148414286Y-84207200D02*
X148366667Y-84159580D01*
X121738095Y-122254819D02*
X121738095Y-121254819D01*
X121738095Y-121731009D02*
X122309523Y-121731009D01*
X122309523Y-122254819D02*
X122309523Y-121254819D01*
X123214285Y-121588152D02*
X123214285Y-122254819D01*
X122976190Y-121207200D02*
X122738095Y-121921485D01*
X122738095Y-121921485D02*
X123357142Y-121921485D01*
X124433333Y-87159580D02*
X124385714Y-87207200D01*
X124385714Y-87207200D02*
X124242857Y-87254819D01*
X124242857Y-87254819D02*
X124147619Y-87254819D01*
X124147619Y-87254819D02*
X124004762Y-87207200D01*
X124004762Y-87207200D02*
X123909524Y-87111961D01*
X123909524Y-87111961D02*
X123861905Y-87016723D01*
X123861905Y-87016723D02*
X123814286Y-86826247D01*
X123814286Y-86826247D02*
X123814286Y-86683390D01*
X123814286Y-86683390D02*
X123861905Y-86492914D01*
X123861905Y-86492914D02*
X123909524Y-86397676D01*
X123909524Y-86397676D02*
X124004762Y-86302438D01*
X124004762Y-86302438D02*
X124147619Y-86254819D01*
X124147619Y-86254819D02*
X124242857Y-86254819D01*
X124242857Y-86254819D02*
X124385714Y-86302438D01*
X124385714Y-86302438D02*
X124433333Y-86350057D01*
X124814286Y-86350057D02*
X124861905Y-86302438D01*
X124861905Y-86302438D02*
X124957143Y-86254819D01*
X124957143Y-86254819D02*
X125195238Y-86254819D01*
X125195238Y-86254819D02*
X125290476Y-86302438D01*
X125290476Y-86302438D02*
X125338095Y-86350057D01*
X125338095Y-86350057D02*
X125385714Y-86445295D01*
X125385714Y-86445295D02*
X125385714Y-86540533D01*
X125385714Y-86540533D02*
X125338095Y-86683390D01*
X125338095Y-86683390D02*
X124766667Y-87254819D01*
X124766667Y-87254819D02*
X125385714Y-87254819D01*
D10*
X170116666Y-102577190D02*
X170092857Y-102601000D01*
X170092857Y-102601000D02*
X170021428Y-102624809D01*
X170021428Y-102624809D02*
X169973809Y-102624809D01*
X169973809Y-102624809D02*
X169902381Y-102601000D01*
X169902381Y-102601000D02*
X169854762Y-102553380D01*
X169854762Y-102553380D02*
X169830952Y-102505761D01*
X169830952Y-102505761D02*
X169807143Y-102410523D01*
X169807143Y-102410523D02*
X169807143Y-102339095D01*
X169807143Y-102339095D02*
X169830952Y-102243857D01*
X169830952Y-102243857D02*
X169854762Y-102196238D01*
X169854762Y-102196238D02*
X169902381Y-102148619D01*
X169902381Y-102148619D02*
X169973809Y-102124809D01*
X169973809Y-102124809D02*
X170021428Y-102124809D01*
X170021428Y-102124809D02*
X170092857Y-102148619D01*
X170092857Y-102148619D02*
X170116666Y-102172428D01*
X170283333Y-102124809D02*
X170616666Y-102124809D01*
X170616666Y-102124809D02*
X170402381Y-102624809D01*
D12*
X131654819Y-120792618D02*
X130654819Y-120792618D01*
X130654819Y-120792618D02*
X131369104Y-120459285D01*
X131369104Y-120459285D02*
X130654819Y-120125952D01*
X130654819Y-120125952D02*
X131654819Y-120125952D01*
X131654819Y-119221190D02*
X131131009Y-119221190D01*
X131131009Y-119221190D02*
X131035771Y-119268809D01*
X131035771Y-119268809D02*
X130988152Y-119364047D01*
X130988152Y-119364047D02*
X130988152Y-119554523D01*
X130988152Y-119554523D02*
X131035771Y-119649761D01*
X131607200Y-119221190D02*
X131654819Y-119316428D01*
X131654819Y-119316428D02*
X131654819Y-119554523D01*
X131654819Y-119554523D02*
X131607200Y-119649761D01*
X131607200Y-119649761D02*
X131511961Y-119697380D01*
X131511961Y-119697380D02*
X131416723Y-119697380D01*
X131416723Y-119697380D02*
X131321485Y-119649761D01*
X131321485Y-119649761D02*
X131273866Y-119554523D01*
X131273866Y-119554523D02*
X131273866Y-119316428D01*
X131273866Y-119316428D02*
X131226247Y-119221190D01*
X131654819Y-118744999D02*
X130988152Y-118744999D01*
X130654819Y-118744999D02*
X130702438Y-118792618D01*
X130702438Y-118792618D02*
X130750057Y-118744999D01*
X130750057Y-118744999D02*
X130702438Y-118697380D01*
X130702438Y-118697380D02*
X130654819Y-118744999D01*
X130654819Y-118744999D02*
X130750057Y-118744999D01*
X130988152Y-118268809D02*
X131654819Y-118268809D01*
X131083390Y-118268809D02*
X131035771Y-118221190D01*
X131035771Y-118221190D02*
X130988152Y-118125952D01*
X130988152Y-118125952D02*
X130988152Y-117983095D01*
X130988152Y-117983095D02*
X131035771Y-117887857D01*
X131035771Y-117887857D02*
X131131009Y-117840238D01*
X131131009Y-117840238D02*
X131654819Y-117840238D01*
X130654819Y-116744999D02*
X130654819Y-116173571D01*
X131654819Y-116459285D02*
X130654819Y-116459285D01*
X131607200Y-115459285D02*
X131654819Y-115554523D01*
X131654819Y-115554523D02*
X131654819Y-115744999D01*
X131654819Y-115744999D02*
X131607200Y-115840237D01*
X131607200Y-115840237D02*
X131511961Y-115887856D01*
X131511961Y-115887856D02*
X131131009Y-115887856D01*
X131131009Y-115887856D02*
X131035771Y-115840237D01*
X131035771Y-115840237D02*
X130988152Y-115744999D01*
X130988152Y-115744999D02*
X130988152Y-115554523D01*
X130988152Y-115554523D02*
X131035771Y-115459285D01*
X131035771Y-115459285D02*
X131131009Y-115411666D01*
X131131009Y-115411666D02*
X131226247Y-115411666D01*
X131226247Y-115411666D02*
X131321485Y-115887856D01*
X131654819Y-114983094D02*
X130988152Y-114983094D01*
X131178628Y-114983094D02*
X131083390Y-114935475D01*
X131083390Y-114935475D02*
X131035771Y-114887856D01*
X131035771Y-114887856D02*
X130988152Y-114792618D01*
X130988152Y-114792618D02*
X130988152Y-114697380D01*
X131654819Y-114364046D02*
X130988152Y-114364046D01*
X131083390Y-114364046D02*
X131035771Y-114316427D01*
X131035771Y-114316427D02*
X130988152Y-114221189D01*
X130988152Y-114221189D02*
X130988152Y-114078332D01*
X130988152Y-114078332D02*
X131035771Y-113983094D01*
X131035771Y-113983094D02*
X131131009Y-113935475D01*
X131131009Y-113935475D02*
X131654819Y-113935475D01*
X131131009Y-113935475D02*
X131035771Y-113887856D01*
X131035771Y-113887856D02*
X130988152Y-113792618D01*
X130988152Y-113792618D02*
X130988152Y-113649761D01*
X130988152Y-113649761D02*
X131035771Y-113554522D01*
X131035771Y-113554522D02*
X131131009Y-113506903D01*
X131131009Y-113506903D02*
X131654819Y-113506903D01*
X131654819Y-113030713D02*
X130988152Y-113030713D01*
X130654819Y-113030713D02*
X130702438Y-113078332D01*
X130702438Y-113078332D02*
X130750057Y-113030713D01*
X130750057Y-113030713D02*
X130702438Y-112983094D01*
X130702438Y-112983094D02*
X130654819Y-113030713D01*
X130654819Y-113030713D02*
X130750057Y-113030713D01*
X130988152Y-112554523D02*
X131654819Y-112554523D01*
X131083390Y-112554523D02*
X131035771Y-112506904D01*
X131035771Y-112506904D02*
X130988152Y-112411666D01*
X130988152Y-112411666D02*
X130988152Y-112268809D01*
X130988152Y-112268809D02*
X131035771Y-112173571D01*
X131035771Y-112173571D02*
X131131009Y-112125952D01*
X131131009Y-112125952D02*
X131654819Y-112125952D01*
X131654819Y-111221190D02*
X131131009Y-111221190D01*
X131131009Y-111221190D02*
X131035771Y-111268809D01*
X131035771Y-111268809D02*
X130988152Y-111364047D01*
X130988152Y-111364047D02*
X130988152Y-111554523D01*
X130988152Y-111554523D02*
X131035771Y-111649761D01*
X131607200Y-111221190D02*
X131654819Y-111316428D01*
X131654819Y-111316428D02*
X131654819Y-111554523D01*
X131654819Y-111554523D02*
X131607200Y-111649761D01*
X131607200Y-111649761D02*
X131511961Y-111697380D01*
X131511961Y-111697380D02*
X131416723Y-111697380D01*
X131416723Y-111697380D02*
X131321485Y-111649761D01*
X131321485Y-111649761D02*
X131273866Y-111554523D01*
X131273866Y-111554523D02*
X131273866Y-111316428D01*
X131273866Y-111316428D02*
X131226247Y-111221190D01*
X131654819Y-110602142D02*
X131607200Y-110697380D01*
X131607200Y-110697380D02*
X131511961Y-110744999D01*
X131511961Y-110744999D02*
X130654819Y-110744999D01*
X187290476Y-112454819D02*
X187909523Y-112454819D01*
X187909523Y-112454819D02*
X187576190Y-112835771D01*
X187576190Y-112835771D02*
X187719047Y-112835771D01*
X187719047Y-112835771D02*
X187814285Y-112883390D01*
X187814285Y-112883390D02*
X187861904Y-112931009D01*
X187861904Y-112931009D02*
X187909523Y-113026247D01*
X187909523Y-113026247D02*
X187909523Y-113264342D01*
X187909523Y-113264342D02*
X187861904Y-113359580D01*
X187861904Y-113359580D02*
X187814285Y-113407200D01*
X187814285Y-113407200D02*
X187719047Y-113454819D01*
X187719047Y-113454819D02*
X187433333Y-113454819D01*
X187433333Y-113454819D02*
X187338095Y-113407200D01*
X187338095Y-113407200D02*
X187290476Y-113359580D01*
X188242857Y-112454819D02*
X188861904Y-112454819D01*
X188861904Y-112454819D02*
X188528571Y-112835771D01*
X188528571Y-112835771D02*
X188671428Y-112835771D01*
X188671428Y-112835771D02*
X188766666Y-112883390D01*
X188766666Y-112883390D02*
X188814285Y-112931009D01*
X188814285Y-112931009D02*
X188861904Y-113026247D01*
X188861904Y-113026247D02*
X188861904Y-113264342D01*
X188861904Y-113264342D02*
X188814285Y-113359580D01*
X188814285Y-113359580D02*
X188766666Y-113407200D01*
X188766666Y-113407200D02*
X188671428Y-113454819D01*
X188671428Y-113454819D02*
X188385714Y-113454819D01*
X188385714Y-113454819D02*
X188290476Y-113407200D01*
X188290476Y-113407200D02*
X188242857Y-113359580D01*
X189861904Y-113454819D02*
X189528571Y-112978628D01*
X189290476Y-113454819D02*
X189290476Y-112454819D01*
X189290476Y-112454819D02*
X189671428Y-112454819D01*
X189671428Y-112454819D02*
X189766666Y-112502438D01*
X189766666Y-112502438D02*
X189814285Y-112550057D01*
X189814285Y-112550057D02*
X189861904Y-112645295D01*
X189861904Y-112645295D02*
X189861904Y-112788152D01*
X189861904Y-112788152D02*
X189814285Y-112883390D01*
X189814285Y-112883390D02*
X189766666Y-112931009D01*
X189766666Y-112931009D02*
X189671428Y-112978628D01*
X189671428Y-112978628D02*
X189290476Y-112978628D01*
X192055999Y-109407080D02*
X192055999Y-109168985D01*
X192294094Y-109264223D02*
X192055999Y-109168985D01*
X192055999Y-109168985D02*
X191817904Y-109264223D01*
X192198856Y-108978509D02*
X192055999Y-109168985D01*
X192055999Y-109168985D02*
X191913142Y-108978509D01*
X192056000Y-108316719D02*
X192056000Y-108554814D01*
X191817905Y-108459576D02*
X192056000Y-108554814D01*
X192056000Y-108554814D02*
X192294095Y-108459576D01*
X191913143Y-108745290D02*
X192056000Y-108554814D01*
X192056000Y-108554814D02*
X192198857Y-108745290D01*
X186084819Y-80566666D02*
X185608628Y-80899999D01*
X186084819Y-81138094D02*
X185084819Y-81138094D01*
X185084819Y-81138094D02*
X185084819Y-80757142D01*
X185084819Y-80757142D02*
X185132438Y-80661904D01*
X185132438Y-80661904D02*
X185180057Y-80614285D01*
X185180057Y-80614285D02*
X185275295Y-80566666D01*
X185275295Y-80566666D02*
X185418152Y-80566666D01*
X185418152Y-80566666D02*
X185513390Y-80614285D01*
X185513390Y-80614285D02*
X185561009Y-80661904D01*
X185561009Y-80661904D02*
X185608628Y-80757142D01*
X185608628Y-80757142D02*
X185608628Y-81138094D01*
X185418152Y-79709523D02*
X186084819Y-79709523D01*
X185037200Y-79947618D02*
X185751485Y-80185713D01*
X185751485Y-80185713D02*
X185751485Y-79566666D01*
X187988095Y-73754819D02*
X187988095Y-72754819D01*
X187988095Y-73231009D02*
X188559523Y-73231009D01*
X188559523Y-73754819D02*
X188559523Y-72754819D01*
X188988095Y-72850057D02*
X189035714Y-72802438D01*
X189035714Y-72802438D02*
X189130952Y-72754819D01*
X189130952Y-72754819D02*
X189369047Y-72754819D01*
X189369047Y-72754819D02*
X189464285Y-72802438D01*
X189464285Y-72802438D02*
X189511904Y-72850057D01*
X189511904Y-72850057D02*
X189559523Y-72945295D01*
X189559523Y-72945295D02*
X189559523Y-73040533D01*
X189559523Y-73040533D02*
X189511904Y-73183390D01*
X189511904Y-73183390D02*
X188940476Y-73754819D01*
X188940476Y-73754819D02*
X189559523Y-73754819D01*
D10*
X145166666Y-105474809D02*
X145000000Y-105236714D01*
X144880952Y-105474809D02*
X144880952Y-104974809D01*
X144880952Y-104974809D02*
X145071428Y-104974809D01*
X145071428Y-104974809D02*
X145119047Y-104998619D01*
X145119047Y-104998619D02*
X145142857Y-105022428D01*
X145142857Y-105022428D02*
X145166666Y-105070047D01*
X145166666Y-105070047D02*
X145166666Y-105141476D01*
X145166666Y-105141476D02*
X145142857Y-105189095D01*
X145142857Y-105189095D02*
X145119047Y-105212904D01*
X145119047Y-105212904D02*
X145071428Y-105236714D01*
X145071428Y-105236714D02*
X144880952Y-105236714D01*
X145642857Y-105474809D02*
X145357143Y-105474809D01*
X145500000Y-105474809D02*
X145500000Y-104974809D01*
X145500000Y-104974809D02*
X145452381Y-105046238D01*
X145452381Y-105046238D02*
X145404762Y-105093857D01*
X145404762Y-105093857D02*
X145357143Y-105117666D01*
D12*
X187988095Y-122254819D02*
X187988095Y-121254819D01*
X187988095Y-121731009D02*
X188559523Y-121731009D01*
X188559523Y-122254819D02*
X188559523Y-121254819D01*
X188940476Y-121254819D02*
X189559523Y-121254819D01*
X189559523Y-121254819D02*
X189226190Y-121635771D01*
X189226190Y-121635771D02*
X189369047Y-121635771D01*
X189369047Y-121635771D02*
X189464285Y-121683390D01*
X189464285Y-121683390D02*
X189511904Y-121731009D01*
X189511904Y-121731009D02*
X189559523Y-121826247D01*
X189559523Y-121826247D02*
X189559523Y-122064342D01*
X189559523Y-122064342D02*
X189511904Y-122159580D01*
X189511904Y-122159580D02*
X189464285Y-122207200D01*
X189464285Y-122207200D02*
X189369047Y-122254819D01*
X189369047Y-122254819D02*
X189083333Y-122254819D01*
X189083333Y-122254819D02*
X188988095Y-122207200D01*
X188988095Y-122207200D02*
X188940476Y-122159580D01*
D10*
X139916666Y-101927190D02*
X139892857Y-101951000D01*
X139892857Y-101951000D02*
X139821428Y-101974809D01*
X139821428Y-101974809D02*
X139773809Y-101974809D01*
X139773809Y-101974809D02*
X139702381Y-101951000D01*
X139702381Y-101951000D02*
X139654762Y-101903380D01*
X139654762Y-101903380D02*
X139630952Y-101855761D01*
X139630952Y-101855761D02*
X139607143Y-101760523D01*
X139607143Y-101760523D02*
X139607143Y-101689095D01*
X139607143Y-101689095D02*
X139630952Y-101593857D01*
X139630952Y-101593857D02*
X139654762Y-101546238D01*
X139654762Y-101546238D02*
X139702381Y-101498619D01*
X139702381Y-101498619D02*
X139773809Y-101474809D01*
X139773809Y-101474809D02*
X139821428Y-101474809D01*
X139821428Y-101474809D02*
X139892857Y-101498619D01*
X139892857Y-101498619D02*
X139916666Y-101522428D01*
X140345238Y-101641476D02*
X140345238Y-101974809D01*
X140226190Y-101451000D02*
X140107143Y-101808142D01*
X140107143Y-101808142D02*
X140416666Y-101808142D01*
X147916666Y-96377190D02*
X147892857Y-96401000D01*
X147892857Y-96401000D02*
X147821428Y-96424809D01*
X147821428Y-96424809D02*
X147773809Y-96424809D01*
X147773809Y-96424809D02*
X147702381Y-96401000D01*
X147702381Y-96401000D02*
X147654762Y-96353380D01*
X147654762Y-96353380D02*
X147630952Y-96305761D01*
X147630952Y-96305761D02*
X147607143Y-96210523D01*
X147607143Y-96210523D02*
X147607143Y-96139095D01*
X147607143Y-96139095D02*
X147630952Y-96043857D01*
X147630952Y-96043857D02*
X147654762Y-95996238D01*
X147654762Y-95996238D02*
X147702381Y-95948619D01*
X147702381Y-95948619D02*
X147773809Y-95924809D01*
X147773809Y-95924809D02*
X147821428Y-95924809D01*
X147821428Y-95924809D02*
X147892857Y-95948619D01*
X147892857Y-95948619D02*
X147916666Y-95972428D01*
X148369047Y-95924809D02*
X148130952Y-95924809D01*
X148130952Y-95924809D02*
X148107143Y-96162904D01*
X148107143Y-96162904D02*
X148130952Y-96139095D01*
X148130952Y-96139095D02*
X148178571Y-96115285D01*
X148178571Y-96115285D02*
X148297619Y-96115285D01*
X148297619Y-96115285D02*
X148345238Y-96139095D01*
X148345238Y-96139095D02*
X148369047Y-96162904D01*
X148369047Y-96162904D02*
X148392857Y-96210523D01*
X148392857Y-96210523D02*
X148392857Y-96329571D01*
X148392857Y-96329571D02*
X148369047Y-96377190D01*
X148369047Y-96377190D02*
X148345238Y-96401000D01*
X148345238Y-96401000D02*
X148297619Y-96424809D01*
X148297619Y-96424809D02*
X148178571Y-96424809D01*
X148178571Y-96424809D02*
X148130952Y-96401000D01*
X148130952Y-96401000D02*
X148107143Y-96377190D01*
X181916666Y-95624809D02*
X181750000Y-95386714D01*
X181630952Y-95624809D02*
X181630952Y-95124809D01*
X181630952Y-95124809D02*
X181821428Y-95124809D01*
X181821428Y-95124809D02*
X181869047Y-95148619D01*
X181869047Y-95148619D02*
X181892857Y-95172428D01*
X181892857Y-95172428D02*
X181916666Y-95220047D01*
X181916666Y-95220047D02*
X181916666Y-95291476D01*
X181916666Y-95291476D02*
X181892857Y-95339095D01*
X181892857Y-95339095D02*
X181869047Y-95362904D01*
X181869047Y-95362904D02*
X181821428Y-95386714D01*
X181821428Y-95386714D02*
X181630952Y-95386714D01*
X182083333Y-95124809D02*
X182392857Y-95124809D01*
X182392857Y-95124809D02*
X182226190Y-95315285D01*
X182226190Y-95315285D02*
X182297619Y-95315285D01*
X182297619Y-95315285D02*
X182345238Y-95339095D01*
X182345238Y-95339095D02*
X182369047Y-95362904D01*
X182369047Y-95362904D02*
X182392857Y-95410523D01*
X182392857Y-95410523D02*
X182392857Y-95529571D01*
X182392857Y-95529571D02*
X182369047Y-95577190D01*
X182369047Y-95577190D02*
X182345238Y-95601000D01*
X182345238Y-95601000D02*
X182297619Y-95624809D01*
X182297619Y-95624809D02*
X182154762Y-95624809D01*
X182154762Y-95624809D02*
X182107143Y-95601000D01*
X182107143Y-95601000D02*
X182083333Y-95577190D01*
D12*
X175157200Y-79333332D02*
X175204819Y-79190475D01*
X175204819Y-79190475D02*
X175204819Y-78952380D01*
X175204819Y-78952380D02*
X175157200Y-78857142D01*
X175157200Y-78857142D02*
X175109580Y-78809523D01*
X175109580Y-78809523D02*
X175014342Y-78761904D01*
X175014342Y-78761904D02*
X174919104Y-78761904D01*
X174919104Y-78761904D02*
X174823866Y-78809523D01*
X174823866Y-78809523D02*
X174776247Y-78857142D01*
X174776247Y-78857142D02*
X174728628Y-78952380D01*
X174728628Y-78952380D02*
X174681009Y-79142856D01*
X174681009Y-79142856D02*
X174633390Y-79238094D01*
X174633390Y-79238094D02*
X174585771Y-79285713D01*
X174585771Y-79285713D02*
X174490533Y-79333332D01*
X174490533Y-79333332D02*
X174395295Y-79333332D01*
X174395295Y-79333332D02*
X174300057Y-79285713D01*
X174300057Y-79285713D02*
X174252438Y-79238094D01*
X174252438Y-79238094D02*
X174204819Y-79142856D01*
X174204819Y-79142856D02*
X174204819Y-78904761D01*
X174204819Y-78904761D02*
X174252438Y-78761904D01*
X174204819Y-78428570D02*
X175204819Y-78190475D01*
X175204819Y-78190475D02*
X174490533Y-77999999D01*
X174490533Y-77999999D02*
X175204819Y-77809523D01*
X175204819Y-77809523D02*
X174204819Y-77571428D01*
X175204819Y-76666666D02*
X175204819Y-77238094D01*
X175204819Y-76952380D02*
X174204819Y-76952380D01*
X174204819Y-76952380D02*
X174347676Y-77047618D01*
X174347676Y-77047618D02*
X174442914Y-77142856D01*
X174442914Y-77142856D02*
X174490533Y-77238094D01*
X174117319Y-100261904D02*
X174926842Y-100261904D01*
X174926842Y-100261904D02*
X175022080Y-100214285D01*
X175022080Y-100214285D02*
X175069700Y-100166666D01*
X175069700Y-100166666D02*
X175117319Y-100071428D01*
X175117319Y-100071428D02*
X175117319Y-99880952D01*
X175117319Y-99880952D02*
X175069700Y-99785714D01*
X175069700Y-99785714D02*
X175022080Y-99738095D01*
X175022080Y-99738095D02*
X174926842Y-99690476D01*
X174926842Y-99690476D02*
X174117319Y-99690476D01*
X174117319Y-99309523D02*
X174117319Y-98690476D01*
X174117319Y-98690476D02*
X174498271Y-99023809D01*
X174498271Y-99023809D02*
X174498271Y-98880952D01*
X174498271Y-98880952D02*
X174545890Y-98785714D01*
X174545890Y-98785714D02*
X174593509Y-98738095D01*
X174593509Y-98738095D02*
X174688747Y-98690476D01*
X174688747Y-98690476D02*
X174926842Y-98690476D01*
X174926842Y-98690476D02*
X175022080Y-98738095D01*
X175022080Y-98738095D02*
X175069700Y-98785714D01*
X175069700Y-98785714D02*
X175117319Y-98880952D01*
X175117319Y-98880952D02*
X175117319Y-99166666D01*
X175117319Y-99166666D02*
X175069700Y-99261904D01*
X175069700Y-99261904D02*
X175022080Y-99309523D01*
D10*
X183516666Y-103777190D02*
X183492857Y-103801000D01*
X183492857Y-103801000D02*
X183421428Y-103824809D01*
X183421428Y-103824809D02*
X183373809Y-103824809D01*
X183373809Y-103824809D02*
X183302381Y-103801000D01*
X183302381Y-103801000D02*
X183254762Y-103753380D01*
X183254762Y-103753380D02*
X183230952Y-103705761D01*
X183230952Y-103705761D02*
X183207143Y-103610523D01*
X183207143Y-103610523D02*
X183207143Y-103539095D01*
X183207143Y-103539095D02*
X183230952Y-103443857D01*
X183230952Y-103443857D02*
X183254762Y-103396238D01*
X183254762Y-103396238D02*
X183302381Y-103348619D01*
X183302381Y-103348619D02*
X183373809Y-103324809D01*
X183373809Y-103324809D02*
X183421428Y-103324809D01*
X183421428Y-103324809D02*
X183492857Y-103348619D01*
X183492857Y-103348619D02*
X183516666Y-103372428D01*
X183754762Y-103824809D02*
X183850000Y-103824809D01*
X183850000Y-103824809D02*
X183897619Y-103801000D01*
X183897619Y-103801000D02*
X183921428Y-103777190D01*
X183921428Y-103777190D02*
X183969047Y-103705761D01*
X183969047Y-103705761D02*
X183992857Y-103610523D01*
X183992857Y-103610523D02*
X183992857Y-103420047D01*
X183992857Y-103420047D02*
X183969047Y-103372428D01*
X183969047Y-103372428D02*
X183945238Y-103348619D01*
X183945238Y-103348619D02*
X183897619Y-103324809D01*
X183897619Y-103324809D02*
X183802381Y-103324809D01*
X183802381Y-103324809D02*
X183754762Y-103348619D01*
X183754762Y-103348619D02*
X183730952Y-103372428D01*
X183730952Y-103372428D02*
X183707143Y-103420047D01*
X183707143Y-103420047D02*
X183707143Y-103539095D01*
X183707143Y-103539095D02*
X183730952Y-103586714D01*
X183730952Y-103586714D02*
X183754762Y-103610523D01*
X183754762Y-103610523D02*
X183802381Y-103634333D01*
X183802381Y-103634333D02*
X183897619Y-103634333D01*
X183897619Y-103634333D02*
X183945238Y-103610523D01*
X183945238Y-103610523D02*
X183969047Y-103586714D01*
X183969047Y-103586714D02*
X183992857Y-103539095D01*
D12*
X187661904Y-97654819D02*
X187185714Y-97654819D01*
X187185714Y-97654819D02*
X187138095Y-98131009D01*
X187138095Y-98131009D02*
X187185714Y-98083390D01*
X187185714Y-98083390D02*
X187280952Y-98035771D01*
X187280952Y-98035771D02*
X187519047Y-98035771D01*
X187519047Y-98035771D02*
X187614285Y-98083390D01*
X187614285Y-98083390D02*
X187661904Y-98131009D01*
X187661904Y-98131009D02*
X187709523Y-98226247D01*
X187709523Y-98226247D02*
X187709523Y-98464342D01*
X187709523Y-98464342D02*
X187661904Y-98559580D01*
X187661904Y-98559580D02*
X187614285Y-98607200D01*
X187614285Y-98607200D02*
X187519047Y-98654819D01*
X187519047Y-98654819D02*
X187280952Y-98654819D01*
X187280952Y-98654819D02*
X187185714Y-98607200D01*
X187185714Y-98607200D02*
X187138095Y-98559580D01*
X188328571Y-97654819D02*
X188423809Y-97654819D01*
X188423809Y-97654819D02*
X188519047Y-97702438D01*
X188519047Y-97702438D02*
X188566666Y-97750057D01*
X188566666Y-97750057D02*
X188614285Y-97845295D01*
X188614285Y-97845295D02*
X188661904Y-98035771D01*
X188661904Y-98035771D02*
X188661904Y-98273866D01*
X188661904Y-98273866D02*
X188614285Y-98464342D01*
X188614285Y-98464342D02*
X188566666Y-98559580D01*
X188566666Y-98559580D02*
X188519047Y-98607200D01*
X188519047Y-98607200D02*
X188423809Y-98654819D01*
X188423809Y-98654819D02*
X188328571Y-98654819D01*
X188328571Y-98654819D02*
X188233333Y-98607200D01*
X188233333Y-98607200D02*
X188185714Y-98559580D01*
X188185714Y-98559580D02*
X188138095Y-98464342D01*
X188138095Y-98464342D02*
X188090476Y-98273866D01*
X188090476Y-98273866D02*
X188090476Y-98035771D01*
X188090476Y-98035771D02*
X188138095Y-97845295D01*
X188138095Y-97845295D02*
X188185714Y-97750057D01*
X188185714Y-97750057D02*
X188233333Y-97702438D01*
X188233333Y-97702438D02*
X188328571Y-97654819D01*
X189661904Y-98654819D02*
X189328571Y-98178628D01*
X189090476Y-98654819D02*
X189090476Y-97654819D01*
X189090476Y-97654819D02*
X189471428Y-97654819D01*
X189471428Y-97654819D02*
X189566666Y-97702438D01*
X189566666Y-97702438D02*
X189614285Y-97750057D01*
X189614285Y-97750057D02*
X189661904Y-97845295D01*
X189661904Y-97845295D02*
X189661904Y-97988152D01*
X189661904Y-97988152D02*
X189614285Y-98083390D01*
X189614285Y-98083390D02*
X189566666Y-98131009D01*
X189566666Y-98131009D02*
X189471428Y-98178628D01*
X189471428Y-98178628D02*
X189090476Y-98178628D01*
X192055999Y-94641780D02*
X192055999Y-94403685D01*
X192294094Y-94498923D02*
X192055999Y-94403685D01*
X192055999Y-94403685D02*
X191817904Y-94498923D01*
X192198856Y-94213209D02*
X192055999Y-94403685D01*
X192055999Y-94403685D02*
X191913142Y-94213209D01*
X192056000Y-93551419D02*
X192056000Y-93789514D01*
X191817905Y-93694276D02*
X192056000Y-93789514D01*
X192056000Y-93789514D02*
X192294095Y-93694276D01*
X191913143Y-93979990D02*
X192056000Y-93789514D01*
X192056000Y-93789514D02*
X192198857Y-93979990D01*
D10*
X173916666Y-104977190D02*
X173892857Y-105001000D01*
X173892857Y-105001000D02*
X173821428Y-105024809D01*
X173821428Y-105024809D02*
X173773809Y-105024809D01*
X173773809Y-105024809D02*
X173702381Y-105001000D01*
X173702381Y-105001000D02*
X173654762Y-104953380D01*
X173654762Y-104953380D02*
X173630952Y-104905761D01*
X173630952Y-104905761D02*
X173607143Y-104810523D01*
X173607143Y-104810523D02*
X173607143Y-104739095D01*
X173607143Y-104739095D02*
X173630952Y-104643857D01*
X173630952Y-104643857D02*
X173654762Y-104596238D01*
X173654762Y-104596238D02*
X173702381Y-104548619D01*
X173702381Y-104548619D02*
X173773809Y-104524809D01*
X173773809Y-104524809D02*
X173821428Y-104524809D01*
X173821428Y-104524809D02*
X173892857Y-104548619D01*
X173892857Y-104548619D02*
X173916666Y-104572428D01*
X174202381Y-104739095D02*
X174154762Y-104715285D01*
X174154762Y-104715285D02*
X174130952Y-104691476D01*
X174130952Y-104691476D02*
X174107143Y-104643857D01*
X174107143Y-104643857D02*
X174107143Y-104620047D01*
X174107143Y-104620047D02*
X174130952Y-104572428D01*
X174130952Y-104572428D02*
X174154762Y-104548619D01*
X174154762Y-104548619D02*
X174202381Y-104524809D01*
X174202381Y-104524809D02*
X174297619Y-104524809D01*
X174297619Y-104524809D02*
X174345238Y-104548619D01*
X174345238Y-104548619D02*
X174369047Y-104572428D01*
X174369047Y-104572428D02*
X174392857Y-104620047D01*
X174392857Y-104620047D02*
X174392857Y-104643857D01*
X174392857Y-104643857D02*
X174369047Y-104691476D01*
X174369047Y-104691476D02*
X174345238Y-104715285D01*
X174345238Y-104715285D02*
X174297619Y-104739095D01*
X174297619Y-104739095D02*
X174202381Y-104739095D01*
X174202381Y-104739095D02*
X174154762Y-104762904D01*
X174154762Y-104762904D02*
X174130952Y-104786714D01*
X174130952Y-104786714D02*
X174107143Y-104834333D01*
X174107143Y-104834333D02*
X174107143Y-104929571D01*
X174107143Y-104929571D02*
X174130952Y-104977190D01*
X174130952Y-104977190D02*
X174154762Y-105001000D01*
X174154762Y-105001000D02*
X174202381Y-105024809D01*
X174202381Y-105024809D02*
X174297619Y-105024809D01*
X174297619Y-105024809D02*
X174345238Y-105001000D01*
X174345238Y-105001000D02*
X174369047Y-104977190D01*
X174369047Y-104977190D02*
X174392857Y-104929571D01*
X174392857Y-104929571D02*
X174392857Y-104834333D01*
X174392857Y-104834333D02*
X174369047Y-104786714D01*
X174369047Y-104786714D02*
X174345238Y-104762904D01*
X174345238Y-104762904D02*
X174297619Y-104739095D01*
D13*
X146960237Y-105574318D02*
X146960237Y-104304318D01*
X148290714Y-105453365D02*
X148230238Y-105513842D01*
X148230238Y-105513842D02*
X148048809Y-105574318D01*
X148048809Y-105574318D02*
X147927857Y-105574318D01*
X147927857Y-105574318D02*
X147746428Y-105513842D01*
X147746428Y-105513842D02*
X147625476Y-105392889D01*
X147625476Y-105392889D02*
X147564999Y-105271937D01*
X147564999Y-105271937D02*
X147504523Y-105030032D01*
X147504523Y-105030032D02*
X147504523Y-104848603D01*
X147504523Y-104848603D02*
X147564999Y-104606699D01*
X147564999Y-104606699D02*
X147625476Y-104485746D01*
X147625476Y-104485746D02*
X147746428Y-104364794D01*
X147746428Y-104364794D02*
X147927857Y-104304318D01*
X147927857Y-104304318D02*
X148048809Y-104304318D01*
X148048809Y-104304318D02*
X148230238Y-104364794D01*
X148230238Y-104364794D02*
X148290714Y-104425270D01*
X149500238Y-105574318D02*
X148774523Y-105574318D01*
X149137380Y-105574318D02*
X149137380Y-104304318D01*
X149137380Y-104304318D02*
X149016428Y-104485746D01*
X149016428Y-104485746D02*
X148895476Y-104606699D01*
X148895476Y-104606699D02*
X148774523Y-104667175D01*
D12*
X175633333Y-95254819D02*
X175300000Y-94778628D01*
X175061905Y-95254819D02*
X175061905Y-94254819D01*
X175061905Y-94254819D02*
X175442857Y-94254819D01*
X175442857Y-94254819D02*
X175538095Y-94302438D01*
X175538095Y-94302438D02*
X175585714Y-94350057D01*
X175585714Y-94350057D02*
X175633333Y-94445295D01*
X175633333Y-94445295D02*
X175633333Y-94588152D01*
X175633333Y-94588152D02*
X175585714Y-94683390D01*
X175585714Y-94683390D02*
X175538095Y-94731009D01*
X175538095Y-94731009D02*
X175442857Y-94778628D01*
X175442857Y-94778628D02*
X175061905Y-94778628D01*
X176014286Y-94350057D02*
X176061905Y-94302438D01*
X176061905Y-94302438D02*
X176157143Y-94254819D01*
X176157143Y-94254819D02*
X176395238Y-94254819D01*
X176395238Y-94254819D02*
X176490476Y-94302438D01*
X176490476Y-94302438D02*
X176538095Y-94350057D01*
X176538095Y-94350057D02*
X176585714Y-94445295D01*
X176585714Y-94445295D02*
X176585714Y-94540533D01*
X176585714Y-94540533D02*
X176538095Y-94683390D01*
X176538095Y-94683390D02*
X175966667Y-95254819D01*
X175966667Y-95254819D02*
X176585714Y-95254819D01*
X124233333Y-83959580D02*
X124185714Y-84007200D01*
X124185714Y-84007200D02*
X124042857Y-84054819D01*
X124042857Y-84054819D02*
X123947619Y-84054819D01*
X123947619Y-84054819D02*
X123804762Y-84007200D01*
X123804762Y-84007200D02*
X123709524Y-83911961D01*
X123709524Y-83911961D02*
X123661905Y-83816723D01*
X123661905Y-83816723D02*
X123614286Y-83626247D01*
X123614286Y-83626247D02*
X123614286Y-83483390D01*
X123614286Y-83483390D02*
X123661905Y-83292914D01*
X123661905Y-83292914D02*
X123709524Y-83197676D01*
X123709524Y-83197676D02*
X123804762Y-83102438D01*
X123804762Y-83102438D02*
X123947619Y-83054819D01*
X123947619Y-83054819D02*
X124042857Y-83054819D01*
X124042857Y-83054819D02*
X124185714Y-83102438D01*
X124185714Y-83102438D02*
X124233333Y-83150057D01*
X125185714Y-84054819D02*
X124614286Y-84054819D01*
X124900000Y-84054819D02*
X124900000Y-83054819D01*
X124900000Y-83054819D02*
X124804762Y-83197676D01*
X124804762Y-83197676D02*
X124709524Y-83292914D01*
X124709524Y-83292914D02*
X124614286Y-83340533D01*
X121738095Y-74054819D02*
X121738095Y-73054819D01*
X121738095Y-73531009D02*
X122309523Y-73531009D01*
X122309523Y-74054819D02*
X122309523Y-73054819D01*
X123309523Y-74054819D02*
X122738095Y-74054819D01*
X123023809Y-74054819D02*
X123023809Y-73054819D01*
X123023809Y-73054819D02*
X122928571Y-73197676D01*
X122928571Y-73197676D02*
X122833333Y-73292914D01*
X122833333Y-73292914D02*
X122738095Y-73340533D01*
X182209523Y-89454819D02*
X181733333Y-89454819D01*
X181733333Y-89454819D02*
X181685714Y-89931009D01*
X181685714Y-89931009D02*
X181733333Y-89883390D01*
X181733333Y-89883390D02*
X181828571Y-89835771D01*
X181828571Y-89835771D02*
X182066666Y-89835771D01*
X182066666Y-89835771D02*
X182161904Y-89883390D01*
X182161904Y-89883390D02*
X182209523Y-89931009D01*
X182209523Y-89931009D02*
X182257142Y-90026247D01*
X182257142Y-90026247D02*
X182257142Y-90264342D01*
X182257142Y-90264342D02*
X182209523Y-90359580D01*
X182209523Y-90359580D02*
X182161904Y-90407200D01*
X182161904Y-90407200D02*
X182066666Y-90454819D01*
X182066666Y-90454819D02*
X181828571Y-90454819D01*
X181828571Y-90454819D02*
X181733333Y-90407200D01*
X181733333Y-90407200D02*
X181685714Y-90359580D01*
X182542857Y-89454819D02*
X182876190Y-90454819D01*
X182876190Y-90454819D02*
X183209523Y-89454819D01*
X121783095Y-88892319D02*
X121783095Y-89701842D01*
X121783095Y-89701842D02*
X121830714Y-89797080D01*
X121830714Y-89797080D02*
X121878333Y-89844700D01*
X121878333Y-89844700D02*
X121973571Y-89892319D01*
X121973571Y-89892319D02*
X122164047Y-89892319D01*
X122164047Y-89892319D02*
X122259285Y-89844700D01*
X122259285Y-89844700D02*
X122306904Y-89797080D01*
X122306904Y-89797080D02*
X122354523Y-89701842D01*
X122354523Y-89701842D02*
X122354523Y-88892319D01*
X123354523Y-89892319D02*
X122783095Y-89892319D01*
X123068809Y-89892319D02*
X123068809Y-88892319D01*
X123068809Y-88892319D02*
X122973571Y-89035176D01*
X122973571Y-89035176D02*
X122878333Y-89130414D01*
X122878333Y-89130414D02*
X122783095Y-89178033D01*
D14*
%TO.C,servo11*%
X170890000Y-128360000D02*
X170890000Y-129610000D01*
X170890000Y-129610000D02*
X172140000Y-129610000D01*
X170990000Y-127550000D02*
X170990000Y-127850000D01*
X170990000Y-127850000D02*
X171190000Y-127850000D01*
X171090000Y-127550000D02*
X171090000Y-127850000D01*
X171190000Y-121190000D02*
X171190000Y-129310000D01*
X171190000Y-126750000D02*
X171800000Y-126750000D01*
X171190000Y-127550000D02*
X170990000Y-127550000D01*
X171190000Y-129310000D02*
X175910000Y-129310000D01*
X171800000Y-121800000D02*
X171800000Y-123750000D01*
X171800000Y-123750000D02*
X171190000Y-123750000D01*
X171800000Y-126750000D02*
X171800000Y-128700000D01*
X171800000Y-128700000D02*
X175300000Y-128700000D01*
X172500000Y-121190000D02*
X172500000Y-121800000D01*
X172500000Y-129310000D02*
X172500000Y-128700000D01*
X173800000Y-121190000D02*
X173800000Y-121800000D01*
X173800000Y-129310000D02*
X173800000Y-128700000D01*
X174800000Y-124150000D02*
X175300000Y-124150000D01*
X174800000Y-124350000D02*
X174800000Y-124150000D01*
X174800000Y-126150000D02*
X175300000Y-126150000D01*
X174800000Y-126350000D02*
X174800000Y-126150000D01*
X175300000Y-121800000D02*
X171800000Y-121800000D01*
X175300000Y-124250000D02*
X174800000Y-124250000D01*
X175300000Y-124350000D02*
X174800000Y-124350000D01*
X175300000Y-126250000D02*
X174800000Y-126250000D01*
X175300000Y-126350000D02*
X174800000Y-126350000D01*
X175300000Y-128700000D02*
X175300000Y-121800000D01*
X175910000Y-121190000D02*
X171190000Y-121190000D01*
X175910000Y-129310000D02*
X175910000Y-121190000D01*
%TO.C,C6*%
X178761252Y-104015000D02*
X178238748Y-104015000D01*
X178761252Y-105485000D02*
X178238748Y-105485000D01*
%TO.C,servo2*%
X170890000Y-118360000D02*
X170890000Y-119610000D01*
X170890000Y-119610000D02*
X172140000Y-119610000D01*
X170990000Y-117550000D02*
X170990000Y-117850000D01*
X170990000Y-117850000D02*
X171190000Y-117850000D01*
X171090000Y-117550000D02*
X171090000Y-117850000D01*
X171190000Y-111190000D02*
X171190000Y-119310000D01*
X171190000Y-116750000D02*
X171800000Y-116750000D01*
X171190000Y-117550000D02*
X170990000Y-117550000D01*
X171190000Y-119310000D02*
X175910000Y-119310000D01*
X171800000Y-111800000D02*
X171800000Y-113750000D01*
X171800000Y-113750000D02*
X171190000Y-113750000D01*
X171800000Y-116750000D02*
X171800000Y-118700000D01*
X171800000Y-118700000D02*
X175300000Y-118700000D01*
X172500000Y-111190000D02*
X172500000Y-111800000D01*
X172500000Y-119310000D02*
X172500000Y-118700000D01*
X173800000Y-111190000D02*
X173800000Y-111800000D01*
X173800000Y-119310000D02*
X173800000Y-118700000D01*
X174800000Y-114150000D02*
X175300000Y-114150000D01*
X174800000Y-114350000D02*
X174800000Y-114150000D01*
X174800000Y-116150000D02*
X175300000Y-116150000D01*
X174800000Y-116350000D02*
X174800000Y-116150000D01*
X175300000Y-111800000D02*
X171800000Y-111800000D01*
X175300000Y-114250000D02*
X174800000Y-114250000D01*
X175300000Y-114350000D02*
X174800000Y-114350000D01*
X175300000Y-116250000D02*
X174800000Y-116250000D01*
X175300000Y-116350000D02*
X174800000Y-116350000D01*
X175300000Y-118700000D02*
X175300000Y-111800000D01*
X175910000Y-111190000D02*
X171190000Y-111190000D01*
X175910000Y-119310000D02*
X175910000Y-111190000D01*
%TO.C,3.3V*%
X183790000Y-86330000D02*
X183790000Y-85000000D01*
X185120000Y-86330000D02*
X183790000Y-86330000D01*
X186390000Y-83670000D02*
X191530000Y-83670000D01*
X186390000Y-86330000D02*
X186390000Y-83670000D01*
X186390000Y-86330000D02*
X191530000Y-86330000D01*
X191530000Y-86330000D02*
X191530000Y-83670000D01*
%TO.C,U2*%
X126440000Y-73770000D02*
X155640000Y-73770000D01*
X126440000Y-89220000D02*
X126440000Y-73770000D01*
X149976000Y-77976000D02*
X155310000Y-77976000D01*
X149976000Y-88644000D02*
X149976000Y-77976000D01*
X155310000Y-77976000D02*
X155310000Y-77976000D01*
X155310000Y-77976000D02*
X155310000Y-88644000D01*
X155310000Y-88644000D02*
X149976000Y-88644000D01*
X155310000Y-88644000D02*
X155310000Y-88644000D01*
X155640000Y-73770000D02*
X155640000Y-89220000D01*
X155640000Y-89220000D02*
X126440000Y-89220000D01*
X155640000Y-89220000D02*
X155640000Y-89220000D01*
X156176000Y-87360000D02*
X155840000Y-87120000D01*
X156176000Y-86880000D01*
X156176000Y-87360000D01*
G36*
X156176000Y-87360000D02*
G01*
X155840000Y-87120000D01*
X156176000Y-86880000D01*
X156176000Y-87360000D01*
G37*
D15*
%TO.C,IC2*%
X154450000Y-97250000D02*
X156050000Y-97250000D01*
X154450000Y-99250000D02*
X154450000Y-97250000D01*
X156050000Y-97250000D02*
X156050000Y-99250000D01*
X156050000Y-99250000D02*
X154450000Y-99250000D01*
X157250000Y-99500000D02*
X156400000Y-99500000D01*
D14*
%TO.C,J2*%
X160570000Y-82130000D02*
X161900000Y-82130000D01*
X160570000Y-83460000D02*
X160570000Y-82130000D01*
X160570000Y-84730000D02*
X160570000Y-87330000D01*
X160570000Y-84730000D02*
X163230000Y-84730000D01*
X160570000Y-87330000D02*
X163230000Y-87330000D01*
X163230000Y-84730000D02*
X163230000Y-87330000D01*
%TO.C,servo6*%
X148390000Y-118360000D02*
X148390000Y-119610000D01*
X148390000Y-119610000D02*
X149640000Y-119610000D01*
X148490000Y-117550000D02*
X148490000Y-117850000D01*
X148490000Y-117850000D02*
X148690000Y-117850000D01*
X148590000Y-117550000D02*
X148590000Y-117850000D01*
X148690000Y-111190000D02*
X148690000Y-119310000D01*
X148690000Y-116750000D02*
X149300000Y-116750000D01*
X148690000Y-117550000D02*
X148490000Y-117550000D01*
X148690000Y-119310000D02*
X153410000Y-119310000D01*
X149300000Y-111800000D02*
X149300000Y-113750000D01*
X149300000Y-113750000D02*
X148690000Y-113750000D01*
X149300000Y-116750000D02*
X149300000Y-118700000D01*
X149300000Y-118700000D02*
X152800000Y-118700000D01*
X150000000Y-111190000D02*
X150000000Y-111800000D01*
X150000000Y-119310000D02*
X150000000Y-118700000D01*
X151300000Y-111190000D02*
X151300000Y-111800000D01*
X151300000Y-119310000D02*
X151300000Y-118700000D01*
X152300000Y-114150000D02*
X152800000Y-114150000D01*
X152300000Y-114350000D02*
X152300000Y-114150000D01*
X152300000Y-116150000D02*
X152800000Y-116150000D01*
X152300000Y-116350000D02*
X152300000Y-116150000D01*
X152800000Y-111800000D02*
X149300000Y-111800000D01*
X152800000Y-114250000D02*
X152300000Y-114250000D01*
X152800000Y-114350000D02*
X152300000Y-114350000D01*
X152800000Y-116250000D02*
X152300000Y-116250000D01*
X152800000Y-116350000D02*
X152300000Y-116350000D01*
X152800000Y-118700000D02*
X152800000Y-111800000D01*
X153410000Y-111190000D02*
X148690000Y-111190000D01*
X153410000Y-119310000D02*
X153410000Y-111190000D01*
%TO.C,servo13*%
X133390000Y-118360000D02*
X133390000Y-119610000D01*
X133390000Y-119610000D02*
X134640000Y-119610000D01*
X133490000Y-117550000D02*
X133490000Y-117850000D01*
X133490000Y-117850000D02*
X133690000Y-117850000D01*
X133590000Y-117550000D02*
X133590000Y-117850000D01*
X133690000Y-111190000D02*
X133690000Y-119310000D01*
X133690000Y-116750000D02*
X134300000Y-116750000D01*
X133690000Y-117550000D02*
X133490000Y-117550000D01*
X133690000Y-119310000D02*
X138410000Y-119310000D01*
X134300000Y-111800000D02*
X134300000Y-113750000D01*
X134300000Y-113750000D02*
X133690000Y-113750000D01*
X134300000Y-116750000D02*
X134300000Y-118700000D01*
X134300000Y-118700000D02*
X137800000Y-118700000D01*
X135000000Y-111190000D02*
X135000000Y-111800000D01*
X135000000Y-119310000D02*
X135000000Y-118700000D01*
X136300000Y-111190000D02*
X136300000Y-111800000D01*
X136300000Y-119310000D02*
X136300000Y-118700000D01*
X137300000Y-114150000D02*
X137800000Y-114150000D01*
X137300000Y-114350000D02*
X137300000Y-114150000D01*
X137300000Y-116150000D02*
X137800000Y-116150000D01*
X137300000Y-116350000D02*
X137300000Y-116150000D01*
X137800000Y-111800000D02*
X134300000Y-111800000D01*
X137800000Y-114250000D02*
X137300000Y-114250000D01*
X137800000Y-114350000D02*
X137300000Y-114350000D01*
X137800000Y-116250000D02*
X137300000Y-116250000D01*
X137800000Y-116350000D02*
X137300000Y-116350000D01*
X137800000Y-118700000D02*
X137800000Y-111800000D01*
X138410000Y-111190000D02*
X133690000Y-111190000D01*
X138410000Y-119310000D02*
X138410000Y-111190000D01*
%TO.C,C3*%
X147465000Y-86138748D02*
X147465000Y-86661252D01*
X148935000Y-86138748D02*
X148935000Y-86661252D01*
%TO.C,servo10*%
X140890000Y-128360000D02*
X140890000Y-129610000D01*
X140890000Y-129610000D02*
X142140000Y-129610000D01*
X140990000Y-127550000D02*
X140990000Y-127850000D01*
X140990000Y-127850000D02*
X141190000Y-127850000D01*
X141090000Y-127550000D02*
X141090000Y-127850000D01*
X141190000Y-121190000D02*
X141190000Y-129310000D01*
X141190000Y-126750000D02*
X141800000Y-126750000D01*
X141190000Y-127550000D02*
X140990000Y-127550000D01*
X141190000Y-129310000D02*
X145910000Y-129310000D01*
X141800000Y-121800000D02*
X141800000Y-123750000D01*
X141800000Y-123750000D02*
X141190000Y-123750000D01*
X141800000Y-126750000D02*
X141800000Y-128700000D01*
X141800000Y-128700000D02*
X145300000Y-128700000D01*
X142500000Y-121190000D02*
X142500000Y-121800000D01*
X142500000Y-129310000D02*
X142500000Y-128700000D01*
X143800000Y-121190000D02*
X143800000Y-121800000D01*
X143800000Y-129310000D02*
X143800000Y-128700000D01*
X144800000Y-124150000D02*
X145300000Y-124150000D01*
X144800000Y-124350000D02*
X144800000Y-124150000D01*
X144800000Y-126150000D02*
X145300000Y-126150000D01*
X144800000Y-126350000D02*
X144800000Y-126150000D01*
X145300000Y-121800000D02*
X141800000Y-121800000D01*
X145300000Y-124250000D02*
X144800000Y-124250000D01*
X145300000Y-124350000D02*
X144800000Y-124350000D01*
X145300000Y-126250000D02*
X144800000Y-126250000D01*
X145300000Y-126350000D02*
X144800000Y-126350000D01*
X145300000Y-128700000D02*
X145300000Y-121800000D01*
X145910000Y-121190000D02*
X141190000Y-121190000D01*
X145910000Y-129310000D02*
X145910000Y-121190000D01*
%TO.C,C2*%
X121451248Y-86015000D02*
X121973752Y-86015000D01*
X121451248Y-87485000D02*
X121973752Y-87485000D01*
%TO.C,C7*%
X171015000Y-102511252D02*
X171015000Y-101988748D01*
X172485000Y-102511252D02*
X172485000Y-101988748D01*
%TO.C,J5*%
X168820000Y-82130000D02*
X170150000Y-82130000D01*
X168820000Y-83460000D02*
X168820000Y-82130000D01*
X168820000Y-84730000D02*
X168820000Y-87330000D01*
X168820000Y-84730000D02*
X171480000Y-84730000D01*
X168820000Y-87330000D02*
X171480000Y-87330000D01*
X171480000Y-84730000D02*
X171480000Y-87330000D01*
%TO.C,Main Terminal*%
X119545000Y-110365000D02*
X119545000Y-110865000D01*
X119785000Y-110605000D02*
X119785000Y-120885000D01*
X120285000Y-110365000D02*
X119545000Y-110365000D01*
X120345000Y-110605000D02*
X120345000Y-120885000D01*
X121845000Y-110605000D02*
X121845000Y-120885000D01*
X123206000Y-117251000D02*
X123171000Y-117216000D01*
X123422000Y-117058000D02*
X123376000Y-117011000D01*
X125514000Y-119560000D02*
X125468000Y-119513000D01*
X125720000Y-119355000D02*
X125684000Y-119320000D01*
X126746000Y-110605000D02*
X126746000Y-120885000D01*
X129706000Y-110605000D02*
X119785000Y-110605000D01*
X129706000Y-110605000D02*
X129706000Y-120885000D01*
X129706000Y-120885000D02*
X119785000Y-120885000D01*
X122764747Y-113233805D02*
G75*
G02*
X122910000Y-112521000I1680254J28806D01*
G01*
X122910244Y-113888318D02*
G75*
G02*
X122765000Y-113205000I1534756J683318D01*
G01*
X123761958Y-111669573D02*
G75*
G02*
X125129000Y-111670000I683041J-1535420D01*
G01*
X125128042Y-114740427D02*
G75*
G02*
X123761000Y-114740000I-683042J1535427D01*
G01*
X125980427Y-112521958D02*
G75*
G02*
X125980000Y-113889000I-1535420J-683041D01*
G01*
X126125000Y-118285000D02*
G75*
G02*
X122765000Y-118285000I-1680000J0D01*
G01*
X122765000Y-118285000D02*
G75*
G02*
X126125000Y-118285000I1680000J0D01*
G01*
D16*
%TO.C,33R*%
X185007500Y-112011500D02*
X185007500Y-118488500D01*
X185007500Y-118488500D02*
X185385960Y-118488500D01*
X185769500Y-111528900D02*
X185769500Y-110462100D01*
X186658500Y-111528900D02*
X186658500Y-110462100D01*
X187928500Y-110995500D02*
X187928500Y-112011500D01*
X187928500Y-112011500D02*
X185007500Y-112011500D01*
X189071500Y-110995500D02*
X187928500Y-110995500D01*
X189071500Y-112011500D02*
X189071500Y-110995500D01*
X190341500Y-111528900D02*
X190341500Y-110462100D01*
X191230500Y-111528900D02*
X191230500Y-110462100D01*
X191614040Y-118488500D02*
X191992500Y-118488500D01*
X191992500Y-112011500D02*
X189071500Y-112011500D01*
X191992500Y-118488500D02*
X191992500Y-112011500D01*
D14*
%TO.C,R4*%
X183677500Y-80145276D02*
X183677500Y-80654724D01*
X184722500Y-80145276D02*
X184722500Y-80654724D01*
%TO.C,R1*%
X142745276Y-104727500D02*
X143254724Y-104727500D01*
X142745276Y-105772500D02*
X143254724Y-105772500D01*
%TO.C,J4*%
X166070000Y-82130000D02*
X167400000Y-82130000D01*
X166070000Y-83460000D02*
X166070000Y-82130000D01*
X166070000Y-84730000D02*
X166070000Y-87330000D01*
X166070000Y-84730000D02*
X168730000Y-84730000D01*
X166070000Y-87330000D02*
X168730000Y-87330000D01*
X168730000Y-84730000D02*
X168730000Y-87330000D01*
%TO.C,servo5*%
X148390000Y-128360000D02*
X148390000Y-129610000D01*
X148390000Y-129610000D02*
X149640000Y-129610000D01*
X148490000Y-127550000D02*
X148490000Y-127850000D01*
X148490000Y-127850000D02*
X148690000Y-127850000D01*
X148590000Y-127550000D02*
X148590000Y-127850000D01*
X148690000Y-121190000D02*
X148690000Y-129310000D01*
X148690000Y-126750000D02*
X149300000Y-126750000D01*
X148690000Y-127550000D02*
X148490000Y-127550000D01*
X148690000Y-129310000D02*
X153410000Y-129310000D01*
X149300000Y-121800000D02*
X149300000Y-123750000D01*
X149300000Y-123750000D02*
X148690000Y-123750000D01*
X149300000Y-126750000D02*
X149300000Y-128700000D01*
X149300000Y-128700000D02*
X152800000Y-128700000D01*
X150000000Y-121190000D02*
X150000000Y-121800000D01*
X150000000Y-129310000D02*
X150000000Y-128700000D01*
X151300000Y-121190000D02*
X151300000Y-121800000D01*
X151300000Y-129310000D02*
X151300000Y-128700000D01*
X152300000Y-124150000D02*
X152800000Y-124150000D01*
X152300000Y-124350000D02*
X152300000Y-124150000D01*
X152300000Y-126150000D02*
X152800000Y-126150000D01*
X152300000Y-126350000D02*
X152300000Y-126150000D01*
X152800000Y-121800000D02*
X149300000Y-121800000D01*
X152800000Y-124250000D02*
X152300000Y-124250000D01*
X152800000Y-124350000D02*
X152300000Y-124350000D01*
X152800000Y-126250000D02*
X152300000Y-126250000D01*
X152800000Y-126350000D02*
X152300000Y-126350000D01*
X152800000Y-128700000D02*
X152800000Y-121800000D01*
X153410000Y-121190000D02*
X148690000Y-121190000D01*
X153410000Y-129310000D02*
X153410000Y-121190000D01*
%TO.C,servo8*%
X163390000Y-128360000D02*
X163390000Y-129610000D01*
X163390000Y-129610000D02*
X164640000Y-129610000D01*
X163490000Y-127550000D02*
X163490000Y-127850000D01*
X163490000Y-127850000D02*
X163690000Y-127850000D01*
X163590000Y-127550000D02*
X163590000Y-127850000D01*
X163690000Y-121190000D02*
X163690000Y-129310000D01*
X163690000Y-126750000D02*
X164300000Y-126750000D01*
X163690000Y-127550000D02*
X163490000Y-127550000D01*
X163690000Y-129310000D02*
X168410000Y-129310000D01*
X164300000Y-121800000D02*
X164300000Y-123750000D01*
X164300000Y-123750000D02*
X163690000Y-123750000D01*
X164300000Y-126750000D02*
X164300000Y-128700000D01*
X164300000Y-128700000D02*
X167800000Y-128700000D01*
X165000000Y-121190000D02*
X165000000Y-121800000D01*
X165000000Y-129310000D02*
X165000000Y-128700000D01*
X166300000Y-121190000D02*
X166300000Y-121800000D01*
X166300000Y-129310000D02*
X166300000Y-128700000D01*
X167300000Y-124150000D02*
X167800000Y-124150000D01*
X167300000Y-124350000D02*
X167300000Y-124150000D01*
X167300000Y-126150000D02*
X167800000Y-126150000D01*
X167300000Y-126350000D02*
X167300000Y-126150000D01*
X167800000Y-121800000D02*
X164300000Y-121800000D01*
X167800000Y-124250000D02*
X167300000Y-124250000D01*
X167800000Y-124350000D02*
X167300000Y-124350000D01*
X167800000Y-126250000D02*
X167300000Y-126250000D01*
X167800000Y-126350000D02*
X167300000Y-126350000D01*
X167800000Y-128700000D02*
X167800000Y-121800000D01*
X168410000Y-121190000D02*
X163690000Y-121190000D01*
X168410000Y-129310000D02*
X168410000Y-121190000D01*
%TO.C,servo3*%
X178090000Y-123360000D02*
X178090000Y-124610000D01*
X178090000Y-124610000D02*
X179340000Y-124610000D01*
X178190000Y-122550000D02*
X178190000Y-122850000D01*
X178190000Y-122850000D02*
X178390000Y-122850000D01*
X178290000Y-122550000D02*
X178290000Y-122850000D01*
X178390000Y-116190000D02*
X178390000Y-124310000D01*
X178390000Y-121750000D02*
X179000000Y-121750000D01*
X178390000Y-122550000D02*
X178190000Y-122550000D01*
X178390000Y-124310000D02*
X183110000Y-124310000D01*
X179000000Y-116800000D02*
X179000000Y-118750000D01*
X179000000Y-118750000D02*
X178390000Y-118750000D01*
X179000000Y-121750000D02*
X179000000Y-123700000D01*
X179000000Y-123700000D02*
X182500000Y-123700000D01*
X179700000Y-116190000D02*
X179700000Y-116800000D01*
X179700000Y-124310000D02*
X179700000Y-123700000D01*
X181000000Y-116190000D02*
X181000000Y-116800000D01*
X181000000Y-124310000D02*
X181000000Y-123700000D01*
X182000000Y-119150000D02*
X182500000Y-119150000D01*
X182000000Y-119350000D02*
X182000000Y-119150000D01*
X182000000Y-121150000D02*
X182500000Y-121150000D01*
X182000000Y-121350000D02*
X182000000Y-121150000D01*
X182500000Y-116800000D02*
X179000000Y-116800000D01*
X182500000Y-119250000D02*
X182000000Y-119250000D01*
X182500000Y-119350000D02*
X182000000Y-119350000D01*
X182500000Y-121250000D02*
X182000000Y-121250000D01*
X182500000Y-121350000D02*
X182000000Y-121350000D01*
X182500000Y-123700000D02*
X182500000Y-116800000D01*
X183110000Y-116190000D02*
X178390000Y-116190000D01*
X183110000Y-124310000D02*
X183110000Y-116190000D01*
%TO.C,C4*%
X139265000Y-103988748D02*
X139265000Y-104511252D01*
X140735000Y-103988748D02*
X140735000Y-104511252D01*
%TO.C,J3*%
X163320000Y-82130000D02*
X164650000Y-82130000D01*
X163320000Y-83460000D02*
X163320000Y-82130000D01*
X163320000Y-84730000D02*
X163320000Y-87330000D01*
X163320000Y-84730000D02*
X165980000Y-84730000D01*
X163320000Y-87330000D02*
X165980000Y-87330000D01*
X165980000Y-84730000D02*
X165980000Y-87330000D01*
%TO.C,C5*%
X147738748Y-94065000D02*
X148261252Y-94065000D01*
X147738748Y-95535000D02*
X148261252Y-95535000D01*
%TO.C,R3*%
X181477500Y-97245276D02*
X181477500Y-97754724D01*
X182522500Y-97245276D02*
X182522500Y-97754724D01*
%TO.C,servo7*%
X163390000Y-118360000D02*
X163390000Y-119610000D01*
X163390000Y-119610000D02*
X164640000Y-119610000D01*
X163490000Y-117550000D02*
X163490000Y-117850000D01*
X163490000Y-117850000D02*
X163690000Y-117850000D01*
X163590000Y-117550000D02*
X163590000Y-117850000D01*
X163690000Y-111190000D02*
X163690000Y-119310000D01*
X163690000Y-116750000D02*
X164300000Y-116750000D01*
X163690000Y-117550000D02*
X163490000Y-117550000D01*
X163690000Y-119310000D02*
X168410000Y-119310000D01*
X164300000Y-111800000D02*
X164300000Y-113750000D01*
X164300000Y-113750000D02*
X163690000Y-113750000D01*
X164300000Y-116750000D02*
X164300000Y-118700000D01*
X164300000Y-118700000D02*
X167800000Y-118700000D01*
X165000000Y-111190000D02*
X165000000Y-111800000D01*
X165000000Y-119310000D02*
X165000000Y-118700000D01*
X166300000Y-111190000D02*
X166300000Y-111800000D01*
X166300000Y-119310000D02*
X166300000Y-118700000D01*
X167300000Y-114150000D02*
X167800000Y-114150000D01*
X167300000Y-114350000D02*
X167300000Y-114150000D01*
X167300000Y-116150000D02*
X167800000Y-116150000D01*
X167300000Y-116350000D02*
X167300000Y-116150000D01*
X167800000Y-111800000D02*
X164300000Y-111800000D01*
X167800000Y-114250000D02*
X167300000Y-114250000D01*
X167800000Y-114350000D02*
X167300000Y-114350000D01*
X167800000Y-116250000D02*
X167300000Y-116250000D01*
X167800000Y-116350000D02*
X167300000Y-116350000D01*
X167800000Y-118700000D02*
X167800000Y-111800000D01*
X168410000Y-111190000D02*
X163690000Y-111190000D01*
X168410000Y-119310000D02*
X168410000Y-111190000D01*
%TO.C,SW1*%
X175750000Y-75750000D02*
X175750000Y-80250000D01*
X178250000Y-81500000D02*
X179750000Y-81500000D01*
X179750000Y-74500000D02*
X178250000Y-74500000D01*
X182250000Y-80250000D02*
X182250000Y-75750000D01*
%TO.C,servo12*%
X155890000Y-128360000D02*
X155890000Y-129610000D01*
X155890000Y-129610000D02*
X157140000Y-129610000D01*
X155990000Y-127550000D02*
X155990000Y-127850000D01*
X155990000Y-127850000D02*
X156190000Y-127850000D01*
X156090000Y-127550000D02*
X156090000Y-127850000D01*
X156190000Y-121190000D02*
X156190000Y-129310000D01*
X156190000Y-126750000D02*
X156800000Y-126750000D01*
X156190000Y-127550000D02*
X155990000Y-127550000D01*
X156190000Y-129310000D02*
X160910000Y-129310000D01*
X156800000Y-121800000D02*
X156800000Y-123750000D01*
X156800000Y-123750000D02*
X156190000Y-123750000D01*
X156800000Y-126750000D02*
X156800000Y-128700000D01*
X156800000Y-128700000D02*
X160300000Y-128700000D01*
X157500000Y-121190000D02*
X157500000Y-121800000D01*
X157500000Y-129310000D02*
X157500000Y-128700000D01*
X158800000Y-121190000D02*
X158800000Y-121800000D01*
X158800000Y-129310000D02*
X158800000Y-128700000D01*
X159800000Y-124150000D02*
X160300000Y-124150000D01*
X159800000Y-124350000D02*
X159800000Y-124150000D01*
X159800000Y-126150000D02*
X160300000Y-126150000D01*
X159800000Y-126350000D02*
X159800000Y-126150000D01*
X160300000Y-121800000D02*
X156800000Y-121800000D01*
X160300000Y-124250000D02*
X159800000Y-124250000D01*
X160300000Y-124350000D02*
X159800000Y-124350000D01*
X160300000Y-126250000D02*
X159800000Y-126250000D01*
X160300000Y-126350000D02*
X159800000Y-126350000D01*
X160300000Y-128700000D02*
X160300000Y-121800000D01*
X160910000Y-121190000D02*
X156190000Y-121190000D01*
X160910000Y-129310000D02*
X160910000Y-121190000D01*
%TO.C,U3*%
X175902500Y-96790000D02*
X175902500Y-97050000D01*
X175902500Y-96790000D02*
X176162500Y-96790000D01*
X179922500Y-96790000D02*
X179662500Y-96790000D01*
X179922500Y-96790000D02*
X179922500Y-97050000D01*
X179922500Y-102210000D02*
X179662500Y-102210000D01*
X179922500Y-102210000D02*
X179922500Y-101950000D01*
D17*
X175902500Y-102570000D02*
X175542500Y-102210000D01*
X175902500Y-102210000D01*
X175902500Y-102570000D01*
G36*
X175902500Y-102570000D02*
G01*
X175542500Y-102210000D01*
X175902500Y-102210000D01*
X175902500Y-102570000D01*
G37*
D14*
%TO.C,servo9*%
X133390000Y-128360000D02*
X133390000Y-129610000D01*
X133390000Y-129610000D02*
X134640000Y-129610000D01*
X133490000Y-127550000D02*
X133490000Y-127850000D01*
X133490000Y-127850000D02*
X133690000Y-127850000D01*
X133590000Y-127550000D02*
X133590000Y-127850000D01*
X133690000Y-121190000D02*
X133690000Y-129310000D01*
X133690000Y-126750000D02*
X134300000Y-126750000D01*
X133690000Y-127550000D02*
X133490000Y-127550000D01*
X133690000Y-129310000D02*
X138410000Y-129310000D01*
X134300000Y-121800000D02*
X134300000Y-123750000D01*
X134300000Y-123750000D02*
X133690000Y-123750000D01*
X134300000Y-126750000D02*
X134300000Y-128700000D01*
X134300000Y-128700000D02*
X137800000Y-128700000D01*
X135000000Y-121190000D02*
X135000000Y-121800000D01*
X135000000Y-129310000D02*
X135000000Y-128700000D01*
X136300000Y-121190000D02*
X136300000Y-121800000D01*
X136300000Y-129310000D02*
X136300000Y-128700000D01*
X137300000Y-124150000D02*
X137800000Y-124150000D01*
X137300000Y-124350000D02*
X137300000Y-124150000D01*
X137300000Y-126150000D02*
X137800000Y-126150000D01*
X137300000Y-126350000D02*
X137300000Y-126150000D01*
X137800000Y-121800000D02*
X134300000Y-121800000D01*
X137800000Y-124250000D02*
X137300000Y-124250000D01*
X137800000Y-124350000D02*
X137300000Y-124350000D01*
X137800000Y-126250000D02*
X137300000Y-126250000D01*
X137800000Y-126350000D02*
X137300000Y-126350000D01*
X137800000Y-128700000D02*
X137800000Y-121800000D01*
X138410000Y-121190000D02*
X133690000Y-121190000D01*
X138410000Y-129310000D02*
X138410000Y-121190000D01*
%TO.C,C9*%
X181265000Y-103861252D02*
X181265000Y-103338748D01*
X182735000Y-103861252D02*
X182735000Y-103338748D01*
D16*
%TO.C,50R*%
X185007500Y-97246200D02*
X185007500Y-103723200D01*
X185007500Y-103723200D02*
X185385960Y-103723200D01*
X185769500Y-96763600D02*
X185769500Y-95696800D01*
X186658500Y-96763600D02*
X186658500Y-95696800D01*
X187928500Y-96230200D02*
X187928500Y-97246200D01*
X187928500Y-97246200D02*
X185007500Y-97246200D01*
X189071500Y-96230200D02*
X187928500Y-96230200D01*
X189071500Y-97246200D02*
X189071500Y-96230200D01*
X190341500Y-96763600D02*
X190341500Y-95696800D01*
X191230500Y-96763600D02*
X191230500Y-95696800D01*
X191614040Y-103723200D02*
X191992500Y-103723200D01*
X191992500Y-97246200D02*
X189071500Y-97246200D01*
X191992500Y-103723200D02*
X191992500Y-97246200D01*
D14*
%TO.C,C8*%
X173490000Y-102491233D02*
X173490000Y-102783767D01*
X174510000Y-102491233D02*
X174510000Y-102783767D01*
D15*
%TO.C,IC1*%
X142137000Y-96750000D02*
X143612000Y-96750000D01*
X143962000Y-97000000D02*
X147662000Y-97000000D01*
X143962000Y-103500000D02*
X143962000Y-97000000D01*
X147662000Y-97000000D02*
X147662000Y-103500000D01*
X147662000Y-103500000D02*
X143962000Y-103500000D01*
D14*
%TO.C,R2*%
X178454724Y-94677500D02*
X177945276Y-94677500D01*
X178454724Y-95722500D02*
X177945276Y-95722500D01*
%TO.C,C1*%
X121451248Y-83005000D02*
X121973752Y-83005000D01*
X121451248Y-84475000D02*
X121973752Y-84475000D01*
%TO.C,servo4*%
X140890000Y-118360000D02*
X140890000Y-119610000D01*
X140890000Y-119610000D02*
X142140000Y-119610000D01*
X140990000Y-117550000D02*
X140990000Y-117850000D01*
X140990000Y-117850000D02*
X141190000Y-117850000D01*
X141090000Y-117550000D02*
X141090000Y-117850000D01*
X141190000Y-111190000D02*
X141190000Y-119310000D01*
X141190000Y-116750000D02*
X141800000Y-116750000D01*
X141190000Y-117550000D02*
X140990000Y-117550000D01*
X141190000Y-119310000D02*
X145910000Y-119310000D01*
X141800000Y-111800000D02*
X141800000Y-113750000D01*
X141800000Y-113750000D02*
X141190000Y-113750000D01*
X141800000Y-116750000D02*
X141800000Y-118700000D01*
X141800000Y-118700000D02*
X145300000Y-118700000D01*
X142500000Y-111190000D02*
X142500000Y-111800000D01*
X142500000Y-119310000D02*
X142500000Y-118700000D01*
X143800000Y-111190000D02*
X143800000Y-111800000D01*
X143800000Y-119310000D02*
X143800000Y-118700000D01*
X144800000Y-114150000D02*
X145300000Y-114150000D01*
X144800000Y-114350000D02*
X144800000Y-114150000D01*
X144800000Y-116150000D02*
X145300000Y-116150000D01*
X144800000Y-116350000D02*
X144800000Y-116150000D01*
X145300000Y-111800000D02*
X141800000Y-111800000D01*
X145300000Y-114250000D02*
X144800000Y-114250000D01*
X145300000Y-114350000D02*
X144800000Y-114350000D01*
X145300000Y-116250000D02*
X144800000Y-116250000D01*
X145300000Y-116350000D02*
X144800000Y-116350000D01*
X145300000Y-118700000D02*
X145300000Y-111800000D01*
X145910000Y-111190000D02*
X141190000Y-111190000D01*
X145910000Y-119310000D02*
X145910000Y-111190000D01*
%TO.C,5V*%
X183790000Y-90980000D02*
X183790000Y-89650000D01*
X185120000Y-90980000D02*
X183790000Y-90980000D01*
X186390000Y-88320000D02*
X191530000Y-88320000D01*
X186390000Y-90980000D02*
X186390000Y-88320000D01*
X186390000Y-90980000D02*
X191530000Y-90980000D01*
X191530000Y-90980000D02*
X191530000Y-88320000D01*
%TO.C,servo1*%
X155890000Y-118360000D02*
X155890000Y-119610000D01*
X155890000Y-119610000D02*
X157140000Y-119610000D01*
X155990000Y-117550000D02*
X155990000Y-117850000D01*
X155990000Y-117850000D02*
X156190000Y-117850000D01*
X156090000Y-117550000D02*
X156090000Y-117850000D01*
X156190000Y-111190000D02*
X156190000Y-119310000D01*
X156190000Y-116750000D02*
X156800000Y-116750000D01*
X156190000Y-117550000D02*
X155990000Y-117550000D01*
X156190000Y-119310000D02*
X160910000Y-119310000D01*
X156800000Y-111800000D02*
X156800000Y-113750000D01*
X156800000Y-113750000D02*
X156190000Y-113750000D01*
X156800000Y-116750000D02*
X156800000Y-118700000D01*
X156800000Y-118700000D02*
X160300000Y-118700000D01*
X157500000Y-111190000D02*
X157500000Y-111800000D01*
X157500000Y-119310000D02*
X157500000Y-118700000D01*
X158800000Y-111190000D02*
X158800000Y-111800000D01*
X158800000Y-119310000D02*
X158800000Y-118700000D01*
X159800000Y-114150000D02*
X160300000Y-114150000D01*
X159800000Y-114350000D02*
X159800000Y-114150000D01*
X159800000Y-116150000D02*
X160300000Y-116150000D01*
X159800000Y-116350000D02*
X159800000Y-116150000D01*
X160300000Y-111800000D02*
X156800000Y-111800000D01*
X160300000Y-114250000D02*
X159800000Y-114250000D01*
X160300000Y-114350000D02*
X159800000Y-114350000D01*
X160300000Y-116250000D02*
X159800000Y-116250000D01*
X160300000Y-116350000D02*
X159800000Y-116350000D01*
X160300000Y-118700000D02*
X160300000Y-111800000D01*
X160910000Y-111190000D02*
X156190000Y-111190000D01*
X160910000Y-119310000D02*
X160910000Y-111190000D01*
D18*
%TO.C,U1*%
X118670000Y-103762500D02*
X118670000Y-95702500D01*
X119370000Y-90842500D02*
X119370000Y-95702500D01*
X119370000Y-90842500D02*
X180330000Y-90842500D01*
X119370000Y-95702500D02*
X118670000Y-95702500D01*
X119370000Y-103762500D02*
X118670000Y-103762500D01*
X119370000Y-108622500D02*
X119370000Y-103762500D01*
X180330000Y-90842500D02*
X180330000Y-108622500D01*
X180330000Y-108622500D02*
X119370000Y-108622500D01*
D15*
X125820000Y-109232500D02*
G75*
G02*
X125620000Y-109232500I-100000J0D01*
G01*
X125620000Y-109232500D02*
G75*
G02*
X125820000Y-109232500I100000J0D01*
G01*
%TD*%
M02*
