%TF.GenerationSoftware,KiCad,Pcbnew,8.0.7*%
%TF.CreationDate,2024-12-25T21:29:44+07:00*%
%TF.ProjectId,Morphex-PCB,4d6f7270-6865-4782-9d50-43422e6b6963,rev?*%
%TF.SameCoordinates,Original*%
%TF.FileFunction,Drillmap*%
%TF.FilePolarity,Positive*%
%FSLAX45Y45*%
G04 Gerber Fmt 4.5, Leading zero omitted, Abs format (unit mm)*
G04 Created by KiCad (PCBNEW 8.0.7) date 2024-12-25 21:29:44*
%MOMM*%
%LPD*%
G01*
G04 APERTURE LIST*
%ADD10C,0.050000*%
%ADD11C,0.200000*%
%ADD12C,0.320000*%
G04 APERTURE END LIST*
D10*
X11750000Y-7750000D02*
X11750000Y-12600000D01*
X11750000Y-7750000D02*
G75*
G02*
X12250000Y-7250000I500000J0D01*
G01*
X18875000Y-7250000D02*
X12250000Y-7250000D01*
X12250000Y-13100000D02*
G75*
G02*
X11750000Y-12600000I0J500000D01*
G01*
X19375000Y-12600000D02*
G75*
G02*
X18875000Y-13100000I-500000J0D01*
G01*
X12250000Y-13100000D02*
X18875000Y-13100000D01*
X18875000Y-7250000D02*
G75*
G02*
X19375000Y-7750000I0J-500000D01*
G01*
X19375000Y-12600000D02*
X19375000Y-7750000D01*
D11*
D12*
X12090000Y-7590000D02*
X12410000Y-7910000D01*
X12410000Y-7590000D02*
X12090000Y-7910000D01*
X12090000Y-12440000D02*
X12410000Y-12760000D01*
X12410000Y-12440000D02*
X12090000Y-12760000D01*
X18715000Y-7590000D02*
X19035000Y-7910000D01*
X19035000Y-7590000D02*
X18715000Y-7910000D01*
X18715000Y-12440000D02*
X19035000Y-12760000D01*
X19035000Y-12440000D02*
X18715000Y-12760000D01*
D11*
X12008277Y-13413984D02*
X12008277Y-13213984D01*
X12008277Y-13213984D02*
X12055896Y-13213984D01*
X12055896Y-13213984D02*
X12084467Y-13223508D01*
X12084467Y-13223508D02*
X12103515Y-13242555D01*
X12103515Y-13242555D02*
X12113039Y-13261603D01*
X12113039Y-13261603D02*
X12122562Y-13299698D01*
X12122562Y-13299698D02*
X12122562Y-13328269D01*
X12122562Y-13328269D02*
X12113039Y-13366365D01*
X12113039Y-13366365D02*
X12103515Y-13385412D01*
X12103515Y-13385412D02*
X12084467Y-13404460D01*
X12084467Y-13404460D02*
X12055896Y-13413984D01*
X12055896Y-13413984D02*
X12008277Y-13413984D01*
X12208277Y-13413984D02*
X12208277Y-13280650D01*
X12208277Y-13318746D02*
X12217801Y-13299698D01*
X12217801Y-13299698D02*
X12227324Y-13290174D01*
X12227324Y-13290174D02*
X12246372Y-13280650D01*
X12246372Y-13280650D02*
X12265420Y-13280650D01*
X12332086Y-13413984D02*
X12332086Y-13280650D01*
X12332086Y-13213984D02*
X12322562Y-13223508D01*
X12322562Y-13223508D02*
X12332086Y-13233031D01*
X12332086Y-13233031D02*
X12341610Y-13223508D01*
X12341610Y-13223508D02*
X12332086Y-13213984D01*
X12332086Y-13213984D02*
X12332086Y-13233031D01*
X12455896Y-13413984D02*
X12436848Y-13404460D01*
X12436848Y-13404460D02*
X12427324Y-13385412D01*
X12427324Y-13385412D02*
X12427324Y-13213984D01*
X12560658Y-13413984D02*
X12541610Y-13404460D01*
X12541610Y-13404460D02*
X12532086Y-13385412D01*
X12532086Y-13385412D02*
X12532086Y-13213984D01*
X12789229Y-13413984D02*
X12789229Y-13213984D01*
X12789229Y-13213984D02*
X12855896Y-13356841D01*
X12855896Y-13356841D02*
X12922562Y-13213984D01*
X12922562Y-13213984D02*
X12922562Y-13413984D01*
X13103515Y-13413984D02*
X13103515Y-13309222D01*
X13103515Y-13309222D02*
X13093991Y-13290174D01*
X13093991Y-13290174D02*
X13074943Y-13280650D01*
X13074943Y-13280650D02*
X13036848Y-13280650D01*
X13036848Y-13280650D02*
X13017801Y-13290174D01*
X13103515Y-13404460D02*
X13084467Y-13413984D01*
X13084467Y-13413984D02*
X13036848Y-13413984D01*
X13036848Y-13413984D02*
X13017801Y-13404460D01*
X13017801Y-13404460D02*
X13008277Y-13385412D01*
X13008277Y-13385412D02*
X13008277Y-13366365D01*
X13008277Y-13366365D02*
X13017801Y-13347317D01*
X13017801Y-13347317D02*
X13036848Y-13337793D01*
X13036848Y-13337793D02*
X13084467Y-13337793D01*
X13084467Y-13337793D02*
X13103515Y-13328269D01*
X13198753Y-13280650D02*
X13198753Y-13480650D01*
X13198753Y-13290174D02*
X13217801Y-13280650D01*
X13217801Y-13280650D02*
X13255896Y-13280650D01*
X13255896Y-13280650D02*
X13274943Y-13290174D01*
X13274943Y-13290174D02*
X13284467Y-13299698D01*
X13284467Y-13299698D02*
X13293991Y-13318746D01*
X13293991Y-13318746D02*
X13293991Y-13375888D01*
X13293991Y-13375888D02*
X13284467Y-13394936D01*
X13284467Y-13394936D02*
X13274943Y-13404460D01*
X13274943Y-13404460D02*
X13255896Y-13413984D01*
X13255896Y-13413984D02*
X13217801Y-13413984D01*
X13217801Y-13413984D02*
X13198753Y-13404460D01*
X13379705Y-13394936D02*
X13389229Y-13404460D01*
X13389229Y-13404460D02*
X13379705Y-13413984D01*
X13379705Y-13413984D02*
X13370182Y-13404460D01*
X13370182Y-13404460D02*
X13379705Y-13394936D01*
X13379705Y-13394936D02*
X13379705Y-13413984D01*
X13379705Y-13290174D02*
X13389229Y-13299698D01*
X13389229Y-13299698D02*
X13379705Y-13309222D01*
X13379705Y-13309222D02*
X13370182Y-13299698D01*
X13370182Y-13299698D02*
X13379705Y-13290174D01*
X13379705Y-13290174D02*
X13379705Y-13309222D01*
X11547500Y-13642500D02*
X11747500Y-13842500D01*
X11747500Y-13642500D02*
X11547500Y-13842500D01*
X11989229Y-13633984D02*
X12113039Y-13633984D01*
X12113039Y-13633984D02*
X12046372Y-13710174D01*
X12046372Y-13710174D02*
X12074943Y-13710174D01*
X12074943Y-13710174D02*
X12093991Y-13719698D01*
X12093991Y-13719698D02*
X12103515Y-13729222D01*
X12103515Y-13729222D02*
X12113039Y-13748269D01*
X12113039Y-13748269D02*
X12113039Y-13795888D01*
X12113039Y-13795888D02*
X12103515Y-13814936D01*
X12103515Y-13814936D02*
X12093991Y-13824460D01*
X12093991Y-13824460D02*
X12074943Y-13833984D01*
X12074943Y-13833984D02*
X12017801Y-13833984D01*
X12017801Y-13833984D02*
X11998753Y-13824460D01*
X11998753Y-13824460D02*
X11989229Y-13814936D01*
X12198753Y-13814936D02*
X12208277Y-13824460D01*
X12208277Y-13824460D02*
X12198753Y-13833984D01*
X12198753Y-13833984D02*
X12189229Y-13824460D01*
X12189229Y-13824460D02*
X12198753Y-13814936D01*
X12198753Y-13814936D02*
X12198753Y-13833984D01*
X12284467Y-13653031D02*
X12293991Y-13643508D01*
X12293991Y-13643508D02*
X12313039Y-13633984D01*
X12313039Y-13633984D02*
X12360658Y-13633984D01*
X12360658Y-13633984D02*
X12379705Y-13643508D01*
X12379705Y-13643508D02*
X12389229Y-13653031D01*
X12389229Y-13653031D02*
X12398753Y-13672079D01*
X12398753Y-13672079D02*
X12398753Y-13691127D01*
X12398753Y-13691127D02*
X12389229Y-13719698D01*
X12389229Y-13719698D02*
X12274943Y-13833984D01*
X12274943Y-13833984D02*
X12398753Y-13833984D01*
X12522562Y-13633984D02*
X12541610Y-13633984D01*
X12541610Y-13633984D02*
X12560658Y-13643508D01*
X12560658Y-13643508D02*
X12570182Y-13653031D01*
X12570182Y-13653031D02*
X12579705Y-13672079D01*
X12579705Y-13672079D02*
X12589229Y-13710174D01*
X12589229Y-13710174D02*
X12589229Y-13757793D01*
X12589229Y-13757793D02*
X12579705Y-13795888D01*
X12579705Y-13795888D02*
X12570182Y-13814936D01*
X12570182Y-13814936D02*
X12560658Y-13824460D01*
X12560658Y-13824460D02*
X12541610Y-13833984D01*
X12541610Y-13833984D02*
X12522562Y-13833984D01*
X12522562Y-13833984D02*
X12503515Y-13824460D01*
X12503515Y-13824460D02*
X12493991Y-13814936D01*
X12493991Y-13814936D02*
X12484467Y-13795888D01*
X12484467Y-13795888D02*
X12474943Y-13757793D01*
X12474943Y-13757793D02*
X12474943Y-13710174D01*
X12474943Y-13710174D02*
X12484467Y-13672079D01*
X12484467Y-13672079D02*
X12493991Y-13653031D01*
X12493991Y-13653031D02*
X12503515Y-13643508D01*
X12503515Y-13643508D02*
X12522562Y-13633984D01*
X12713039Y-13633984D02*
X12732086Y-13633984D01*
X12732086Y-13633984D02*
X12751134Y-13643508D01*
X12751134Y-13643508D02*
X12760658Y-13653031D01*
X12760658Y-13653031D02*
X12770182Y-13672079D01*
X12770182Y-13672079D02*
X12779705Y-13710174D01*
X12779705Y-13710174D02*
X12779705Y-13757793D01*
X12779705Y-13757793D02*
X12770182Y-13795888D01*
X12770182Y-13795888D02*
X12760658Y-13814936D01*
X12760658Y-13814936D02*
X12751134Y-13824460D01*
X12751134Y-13824460D02*
X12732086Y-13833984D01*
X12732086Y-13833984D02*
X12713039Y-13833984D01*
X12713039Y-13833984D02*
X12693991Y-13824460D01*
X12693991Y-13824460D02*
X12684467Y-13814936D01*
X12684467Y-13814936D02*
X12674943Y-13795888D01*
X12674943Y-13795888D02*
X12665420Y-13757793D01*
X12665420Y-13757793D02*
X12665420Y-13710174D01*
X12665420Y-13710174D02*
X12674943Y-13672079D01*
X12674943Y-13672079D02*
X12684467Y-13653031D01*
X12684467Y-13653031D02*
X12693991Y-13643508D01*
X12693991Y-13643508D02*
X12713039Y-13633984D01*
X12865420Y-13833984D02*
X12865420Y-13700650D01*
X12865420Y-13719698D02*
X12874943Y-13710174D01*
X12874943Y-13710174D02*
X12893991Y-13700650D01*
X12893991Y-13700650D02*
X12922563Y-13700650D01*
X12922563Y-13700650D02*
X12941610Y-13710174D01*
X12941610Y-13710174D02*
X12951134Y-13729222D01*
X12951134Y-13729222D02*
X12951134Y-13833984D01*
X12951134Y-13729222D02*
X12960658Y-13710174D01*
X12960658Y-13710174D02*
X12979705Y-13700650D01*
X12979705Y-13700650D02*
X13008277Y-13700650D01*
X13008277Y-13700650D02*
X13027324Y-13710174D01*
X13027324Y-13710174D02*
X13036848Y-13729222D01*
X13036848Y-13729222D02*
X13036848Y-13833984D01*
X13132086Y-13833984D02*
X13132086Y-13700650D01*
X13132086Y-13719698D02*
X13141610Y-13710174D01*
X13141610Y-13710174D02*
X13160658Y-13700650D01*
X13160658Y-13700650D02*
X13189229Y-13700650D01*
X13189229Y-13700650D02*
X13208277Y-13710174D01*
X13208277Y-13710174D02*
X13217801Y-13729222D01*
X13217801Y-13729222D02*
X13217801Y-13833984D01*
X13217801Y-13729222D02*
X13227324Y-13710174D01*
X13227324Y-13710174D02*
X13246372Y-13700650D01*
X13246372Y-13700650D02*
X13274943Y-13700650D01*
X13274943Y-13700650D02*
X13293991Y-13710174D01*
X13293991Y-13710174D02*
X13303515Y-13729222D01*
X13303515Y-13729222D02*
X13303515Y-13833984D01*
X13693991Y-13624460D02*
X13522563Y-13881603D01*
X13951134Y-13633984D02*
X13970182Y-13633984D01*
X13970182Y-13633984D02*
X13989229Y-13643508D01*
X13989229Y-13643508D02*
X13998753Y-13653031D01*
X13998753Y-13653031D02*
X14008277Y-13672079D01*
X14008277Y-13672079D02*
X14017801Y-13710174D01*
X14017801Y-13710174D02*
X14017801Y-13757793D01*
X14017801Y-13757793D02*
X14008277Y-13795888D01*
X14008277Y-13795888D02*
X13998753Y-13814936D01*
X13998753Y-13814936D02*
X13989229Y-13824460D01*
X13989229Y-13824460D02*
X13970182Y-13833984D01*
X13970182Y-13833984D02*
X13951134Y-13833984D01*
X13951134Y-13833984D02*
X13932086Y-13824460D01*
X13932086Y-13824460D02*
X13922563Y-13814936D01*
X13922563Y-13814936D02*
X13913039Y-13795888D01*
X13913039Y-13795888D02*
X13903515Y-13757793D01*
X13903515Y-13757793D02*
X13903515Y-13710174D01*
X13903515Y-13710174D02*
X13913039Y-13672079D01*
X13913039Y-13672079D02*
X13922563Y-13653031D01*
X13922563Y-13653031D02*
X13932086Y-13643508D01*
X13932086Y-13643508D02*
X13951134Y-13633984D01*
X14103515Y-13814936D02*
X14113039Y-13824460D01*
X14113039Y-13824460D02*
X14103515Y-13833984D01*
X14103515Y-13833984D02*
X14093991Y-13824460D01*
X14093991Y-13824460D02*
X14103515Y-13814936D01*
X14103515Y-13814936D02*
X14103515Y-13833984D01*
X14303515Y-13833984D02*
X14189229Y-13833984D01*
X14246372Y-13833984D02*
X14246372Y-13633984D01*
X14246372Y-13633984D02*
X14227325Y-13662555D01*
X14227325Y-13662555D02*
X14208277Y-13681603D01*
X14208277Y-13681603D02*
X14189229Y-13691127D01*
X14379706Y-13653031D02*
X14389229Y-13643508D01*
X14389229Y-13643508D02*
X14408277Y-13633984D01*
X14408277Y-13633984D02*
X14455896Y-13633984D01*
X14455896Y-13633984D02*
X14474944Y-13643508D01*
X14474944Y-13643508D02*
X14484467Y-13653031D01*
X14484467Y-13653031D02*
X14493991Y-13672079D01*
X14493991Y-13672079D02*
X14493991Y-13691127D01*
X14493991Y-13691127D02*
X14484467Y-13719698D01*
X14484467Y-13719698D02*
X14370182Y-13833984D01*
X14370182Y-13833984D02*
X14493991Y-13833984D01*
X14665420Y-13633984D02*
X14627325Y-13633984D01*
X14627325Y-13633984D02*
X14608277Y-13643508D01*
X14608277Y-13643508D02*
X14598753Y-13653031D01*
X14598753Y-13653031D02*
X14579706Y-13681603D01*
X14579706Y-13681603D02*
X14570182Y-13719698D01*
X14570182Y-13719698D02*
X14570182Y-13795888D01*
X14570182Y-13795888D02*
X14579706Y-13814936D01*
X14579706Y-13814936D02*
X14589229Y-13824460D01*
X14589229Y-13824460D02*
X14608277Y-13833984D01*
X14608277Y-13833984D02*
X14646372Y-13833984D01*
X14646372Y-13833984D02*
X14665420Y-13824460D01*
X14665420Y-13824460D02*
X14674944Y-13814936D01*
X14674944Y-13814936D02*
X14684467Y-13795888D01*
X14684467Y-13795888D02*
X14684467Y-13748269D01*
X14684467Y-13748269D02*
X14674944Y-13729222D01*
X14674944Y-13729222D02*
X14665420Y-13719698D01*
X14665420Y-13719698D02*
X14646372Y-13710174D01*
X14646372Y-13710174D02*
X14608277Y-13710174D01*
X14608277Y-13710174D02*
X14589229Y-13719698D01*
X14589229Y-13719698D02*
X14579706Y-13729222D01*
X14579706Y-13729222D02*
X14570182Y-13748269D01*
X14808277Y-13633984D02*
X14827325Y-13633984D01*
X14827325Y-13633984D02*
X14846372Y-13643508D01*
X14846372Y-13643508D02*
X14855896Y-13653031D01*
X14855896Y-13653031D02*
X14865420Y-13672079D01*
X14865420Y-13672079D02*
X14874944Y-13710174D01*
X14874944Y-13710174D02*
X14874944Y-13757793D01*
X14874944Y-13757793D02*
X14865420Y-13795888D01*
X14865420Y-13795888D02*
X14855896Y-13814936D01*
X14855896Y-13814936D02*
X14846372Y-13824460D01*
X14846372Y-13824460D02*
X14827325Y-13833984D01*
X14827325Y-13833984D02*
X14808277Y-13833984D01*
X14808277Y-13833984D02*
X14789229Y-13824460D01*
X14789229Y-13824460D02*
X14779706Y-13814936D01*
X14779706Y-13814936D02*
X14770182Y-13795888D01*
X14770182Y-13795888D02*
X14760658Y-13757793D01*
X14760658Y-13757793D02*
X14760658Y-13710174D01*
X14760658Y-13710174D02*
X14770182Y-13672079D01*
X14770182Y-13672079D02*
X14779706Y-13653031D01*
X14779706Y-13653031D02*
X14789229Y-13643508D01*
X14789229Y-13643508D02*
X14808277Y-13633984D01*
X14951134Y-13633984D02*
X14951134Y-13672079D01*
X15027325Y-13633984D02*
X15027325Y-13672079D01*
X15322563Y-13910174D02*
X15313039Y-13900650D01*
X15313039Y-13900650D02*
X15293991Y-13872079D01*
X15293991Y-13872079D02*
X15284468Y-13853031D01*
X15284468Y-13853031D02*
X15274944Y-13824460D01*
X15274944Y-13824460D02*
X15265420Y-13776841D01*
X15265420Y-13776841D02*
X15265420Y-13738746D01*
X15265420Y-13738746D02*
X15274944Y-13691127D01*
X15274944Y-13691127D02*
X15284468Y-13662555D01*
X15284468Y-13662555D02*
X15293991Y-13643508D01*
X15293991Y-13643508D02*
X15313039Y-13614936D01*
X15313039Y-13614936D02*
X15322563Y-13605412D01*
X15484468Y-13700650D02*
X15484468Y-13833984D01*
X15436848Y-13624460D02*
X15389229Y-13767317D01*
X15389229Y-13767317D02*
X15513039Y-13767317D01*
X15741610Y-13833984D02*
X15741610Y-13633984D01*
X15827325Y-13833984D02*
X15827325Y-13729222D01*
X15827325Y-13729222D02*
X15817801Y-13710174D01*
X15817801Y-13710174D02*
X15798753Y-13700650D01*
X15798753Y-13700650D02*
X15770182Y-13700650D01*
X15770182Y-13700650D02*
X15751134Y-13710174D01*
X15751134Y-13710174D02*
X15741610Y-13719698D01*
X15951134Y-13833984D02*
X15932087Y-13824460D01*
X15932087Y-13824460D02*
X15922563Y-13814936D01*
X15922563Y-13814936D02*
X15913039Y-13795888D01*
X15913039Y-13795888D02*
X15913039Y-13738746D01*
X15913039Y-13738746D02*
X15922563Y-13719698D01*
X15922563Y-13719698D02*
X15932087Y-13710174D01*
X15932087Y-13710174D02*
X15951134Y-13700650D01*
X15951134Y-13700650D02*
X15979706Y-13700650D01*
X15979706Y-13700650D02*
X15998753Y-13710174D01*
X15998753Y-13710174D02*
X16008277Y-13719698D01*
X16008277Y-13719698D02*
X16017801Y-13738746D01*
X16017801Y-13738746D02*
X16017801Y-13795888D01*
X16017801Y-13795888D02*
X16008277Y-13814936D01*
X16008277Y-13814936D02*
X15998753Y-13824460D01*
X15998753Y-13824460D02*
X15979706Y-13833984D01*
X15979706Y-13833984D02*
X15951134Y-13833984D01*
X16132087Y-13833984D02*
X16113039Y-13824460D01*
X16113039Y-13824460D02*
X16103515Y-13805412D01*
X16103515Y-13805412D02*
X16103515Y-13633984D01*
X16284468Y-13824460D02*
X16265420Y-13833984D01*
X16265420Y-13833984D02*
X16227325Y-13833984D01*
X16227325Y-13833984D02*
X16208277Y-13824460D01*
X16208277Y-13824460D02*
X16198753Y-13805412D01*
X16198753Y-13805412D02*
X16198753Y-13729222D01*
X16198753Y-13729222D02*
X16208277Y-13710174D01*
X16208277Y-13710174D02*
X16227325Y-13700650D01*
X16227325Y-13700650D02*
X16265420Y-13700650D01*
X16265420Y-13700650D02*
X16284468Y-13710174D01*
X16284468Y-13710174D02*
X16293991Y-13729222D01*
X16293991Y-13729222D02*
X16293991Y-13748269D01*
X16293991Y-13748269D02*
X16198753Y-13767317D01*
X16370182Y-13824460D02*
X16389230Y-13833984D01*
X16389230Y-13833984D02*
X16427325Y-13833984D01*
X16427325Y-13833984D02*
X16446372Y-13824460D01*
X16446372Y-13824460D02*
X16455896Y-13805412D01*
X16455896Y-13805412D02*
X16455896Y-13795888D01*
X16455896Y-13795888D02*
X16446372Y-13776841D01*
X16446372Y-13776841D02*
X16427325Y-13767317D01*
X16427325Y-13767317D02*
X16398753Y-13767317D01*
X16398753Y-13767317D02*
X16379706Y-13757793D01*
X16379706Y-13757793D02*
X16370182Y-13738746D01*
X16370182Y-13738746D02*
X16370182Y-13729222D01*
X16370182Y-13729222D02*
X16379706Y-13710174D01*
X16379706Y-13710174D02*
X16398753Y-13700650D01*
X16398753Y-13700650D02*
X16427325Y-13700650D01*
X16427325Y-13700650D02*
X16446372Y-13710174D01*
X16522563Y-13910174D02*
X16532087Y-13900650D01*
X16532087Y-13900650D02*
X16551134Y-13872079D01*
X16551134Y-13872079D02*
X16560658Y-13853031D01*
X16560658Y-13853031D02*
X16570182Y-13824460D01*
X16570182Y-13824460D02*
X16579706Y-13776841D01*
X16579706Y-13776841D02*
X16579706Y-13738746D01*
X16579706Y-13738746D02*
X16570182Y-13691127D01*
X16570182Y-13691127D02*
X16560658Y-13662555D01*
X16560658Y-13662555D02*
X16551134Y-13643508D01*
X16551134Y-13643508D02*
X16532087Y-13614936D01*
X16532087Y-13614936D02*
X16522563Y-13605412D01*
X16884468Y-13910174D02*
X16874944Y-13900650D01*
X16874944Y-13900650D02*
X16855896Y-13872079D01*
X16855896Y-13872079D02*
X16846373Y-13853031D01*
X16846373Y-13853031D02*
X16836849Y-13824460D01*
X16836849Y-13824460D02*
X16827325Y-13776841D01*
X16827325Y-13776841D02*
X16827325Y-13738746D01*
X16827325Y-13738746D02*
X16836849Y-13691127D01*
X16836849Y-13691127D02*
X16846373Y-13662555D01*
X16846373Y-13662555D02*
X16855896Y-13643508D01*
X16855896Y-13643508D02*
X16874944Y-13614936D01*
X16874944Y-13614936D02*
X16884468Y-13605412D01*
X16960658Y-13700650D02*
X16960658Y-13833984D01*
X16960658Y-13719698D02*
X16970182Y-13710174D01*
X16970182Y-13710174D02*
X16989230Y-13700650D01*
X16989230Y-13700650D02*
X17017801Y-13700650D01*
X17017801Y-13700650D02*
X17036849Y-13710174D01*
X17036849Y-13710174D02*
X17046373Y-13729222D01*
X17046373Y-13729222D02*
X17046373Y-13833984D01*
X17170182Y-13833984D02*
X17151134Y-13824460D01*
X17151134Y-13824460D02*
X17141611Y-13814936D01*
X17141611Y-13814936D02*
X17132087Y-13795888D01*
X17132087Y-13795888D02*
X17132087Y-13738746D01*
X17132087Y-13738746D02*
X17141611Y-13719698D01*
X17141611Y-13719698D02*
X17151134Y-13710174D01*
X17151134Y-13710174D02*
X17170182Y-13700650D01*
X17170182Y-13700650D02*
X17198754Y-13700650D01*
X17198754Y-13700650D02*
X17217801Y-13710174D01*
X17217801Y-13710174D02*
X17227325Y-13719698D01*
X17227325Y-13719698D02*
X17236849Y-13738746D01*
X17236849Y-13738746D02*
X17236849Y-13795888D01*
X17236849Y-13795888D02*
X17227325Y-13814936D01*
X17227325Y-13814936D02*
X17217801Y-13824460D01*
X17217801Y-13824460D02*
X17198754Y-13833984D01*
X17198754Y-13833984D02*
X17170182Y-13833984D01*
X17293992Y-13700650D02*
X17370182Y-13700650D01*
X17322563Y-13633984D02*
X17322563Y-13805412D01*
X17322563Y-13805412D02*
X17332087Y-13824460D01*
X17332087Y-13824460D02*
X17351134Y-13833984D01*
X17351134Y-13833984D02*
X17370182Y-13833984D01*
X17589230Y-13700650D02*
X17589230Y-13900650D01*
X17589230Y-13710174D02*
X17608277Y-13700650D01*
X17608277Y-13700650D02*
X17646373Y-13700650D01*
X17646373Y-13700650D02*
X17665420Y-13710174D01*
X17665420Y-13710174D02*
X17674944Y-13719698D01*
X17674944Y-13719698D02*
X17684468Y-13738746D01*
X17684468Y-13738746D02*
X17684468Y-13795888D01*
X17684468Y-13795888D02*
X17674944Y-13814936D01*
X17674944Y-13814936D02*
X17665420Y-13824460D01*
X17665420Y-13824460D02*
X17646373Y-13833984D01*
X17646373Y-13833984D02*
X17608277Y-13833984D01*
X17608277Y-13833984D02*
X17589230Y-13824460D01*
X17798754Y-13833984D02*
X17779706Y-13824460D01*
X17779706Y-13824460D02*
X17770182Y-13805412D01*
X17770182Y-13805412D02*
X17770182Y-13633984D01*
X17960658Y-13833984D02*
X17960658Y-13729222D01*
X17960658Y-13729222D02*
X17951135Y-13710174D01*
X17951135Y-13710174D02*
X17932087Y-13700650D01*
X17932087Y-13700650D02*
X17893992Y-13700650D01*
X17893992Y-13700650D02*
X17874944Y-13710174D01*
X17960658Y-13824460D02*
X17941611Y-13833984D01*
X17941611Y-13833984D02*
X17893992Y-13833984D01*
X17893992Y-13833984D02*
X17874944Y-13824460D01*
X17874944Y-13824460D02*
X17865420Y-13805412D01*
X17865420Y-13805412D02*
X17865420Y-13786365D01*
X17865420Y-13786365D02*
X17874944Y-13767317D01*
X17874944Y-13767317D02*
X17893992Y-13757793D01*
X17893992Y-13757793D02*
X17941611Y-13757793D01*
X17941611Y-13757793D02*
X17960658Y-13748269D01*
X18027325Y-13700650D02*
X18103515Y-13700650D01*
X18055896Y-13633984D02*
X18055896Y-13805412D01*
X18055896Y-13805412D02*
X18065420Y-13824460D01*
X18065420Y-13824460D02*
X18084468Y-13833984D01*
X18084468Y-13833984D02*
X18103515Y-13833984D01*
X18246373Y-13824460D02*
X18227325Y-13833984D01*
X18227325Y-13833984D02*
X18189230Y-13833984D01*
X18189230Y-13833984D02*
X18170182Y-13824460D01*
X18170182Y-13824460D02*
X18160658Y-13805412D01*
X18160658Y-13805412D02*
X18160658Y-13729222D01*
X18160658Y-13729222D02*
X18170182Y-13710174D01*
X18170182Y-13710174D02*
X18189230Y-13700650D01*
X18189230Y-13700650D02*
X18227325Y-13700650D01*
X18227325Y-13700650D02*
X18246373Y-13710174D01*
X18246373Y-13710174D02*
X18255896Y-13729222D01*
X18255896Y-13729222D02*
X18255896Y-13748269D01*
X18255896Y-13748269D02*
X18160658Y-13767317D01*
X18427325Y-13833984D02*
X18427325Y-13633984D01*
X18427325Y-13824460D02*
X18408277Y-13833984D01*
X18408277Y-13833984D02*
X18370182Y-13833984D01*
X18370182Y-13833984D02*
X18351135Y-13824460D01*
X18351135Y-13824460D02*
X18341611Y-13814936D01*
X18341611Y-13814936D02*
X18332087Y-13795888D01*
X18332087Y-13795888D02*
X18332087Y-13738746D01*
X18332087Y-13738746D02*
X18341611Y-13719698D01*
X18341611Y-13719698D02*
X18351135Y-13710174D01*
X18351135Y-13710174D02*
X18370182Y-13700650D01*
X18370182Y-13700650D02*
X18408277Y-13700650D01*
X18408277Y-13700650D02*
X18427325Y-13710174D01*
X18503516Y-13910174D02*
X18513039Y-13900650D01*
X18513039Y-13900650D02*
X18532087Y-13872079D01*
X18532087Y-13872079D02*
X18541611Y-13853031D01*
X18541611Y-13853031D02*
X18551135Y-13824460D01*
X18551135Y-13824460D02*
X18560658Y-13776841D01*
X18560658Y-13776841D02*
X18560658Y-13738746D01*
X18560658Y-13738746D02*
X18551135Y-13691127D01*
X18551135Y-13691127D02*
X18541611Y-13662555D01*
X18541611Y-13662555D02*
X18532087Y-13643508D01*
X18532087Y-13643508D02*
X18513039Y-13614936D01*
X18513039Y-13614936D02*
X18503516Y-13605412D01*
M02*
