M48
; DRILL file {KiCad 8.0.6} date 2024-12-25T20:39:59+0700
; FORMAT={-:-/ absolute / inch / decimal}
; #@! TF.CreationDate,2024-12-25T20:39:59+07:00
; #@! TF.GenerationSoftware,Kicad,Pcbnew,8.0.6
; #@! TF.FileFunction,Plated,1,4,PTH
FMAT,2
INCH
; #@! TA.AperFunction,Plated,PTH,ViaDrill
T1C0.0118
; #@! TA.AperFunction,Plated,PTH,ComponentDrill
T2C0.0276
; #@! TA.AperFunction,Plated,PTH,ComponentDrill
T3C0.0295
; #@! TA.AperFunction,Plated,PTH,ComponentDrill
T4C0.0315
; #@! TA.AperFunction,Plated,PTH,ComponentDrill
T5C0.0394
; #@! TA.AperFunction,Plated,PTH,ComponentDrill
T6C0.0433
; #@! TA.AperFunction,Plated,PTH,ComponentDrill
T7C0.0512
%
G90
G05
T1
X4.8819Y-3.2283
X5.1732Y-3.8898
X5.3937Y-4.0354
X5.4085Y-3.873
X5.4488Y-3.7953
X5.4724Y-3.685
X5.4882Y-3.7323
X5.5354Y-3.7953
X5.5906Y-3.6772
X5.6063Y-3.7165
X5.6535Y-3.7717
X5.7087Y-3.7402
X5.7165Y-3.3071
X5.7638Y-3.4094
X5.9134Y-3.748
X5.9449Y-3.8583
X5.9606Y-3.8081
X5.9671Y-3.9462
X5.9764Y-3.7087
X6.0079Y-3.7972
X6.0118Y-3.7441
X6.0394Y-4.0394
X6.0945Y-3.7087
X6.1181Y-3.9291
X6.189Y-3.5197
X6.2126Y-3.8189
X6.2283Y-3.6929
X6.25Y-3.8976
X6.2677Y-3.8031
X6.2894Y-3.8878
X6.2972Y-4.065
X6.3622Y-3.7717
X6.377Y-3.7185
X6.4016Y-3.6988
X6.4961Y-3.7402
X6.6063Y-3.5591
X6.6063Y-3.748
X6.6299Y-4.1339
X6.6693Y-3.8661
X6.7087Y-3.8661
X6.7165Y-3.7244
X6.7583Y-3.8244
X6.7638Y-4.126
X6.7953Y-3.4803
X6.7953Y-3.8425
X6.8268Y-3.9606
X6.8976Y-3.5276
X6.9094Y-4.1535
X6.9528Y-3.3858
X7.0472Y-3.7008
X7.0551Y-4.0472
X7.063Y-3.7874
X7.0945Y-3.748
X7.126Y-3.4724
X7.1811Y-4.2047
X7.1969Y-3.9213
X7.2205Y-4.5039
X7.2323Y-4.2835
X7.315Y-3.2205
X7.3858Y-3.7244
X7.4252Y-3.7087
X7.4331Y-4.2756
X7.5354Y-3.2441
T2
X5.2602Y-3.7229
X5.2602Y-3.8017
X5.2602Y-3.8804
X5.339Y-3.7229
X5.339Y-3.8017
X5.339Y-3.8804
T3
X4.9996Y-4.1064
X5.0996Y-4.1064
X5.1996Y-4.1064
X5.2996Y-4.1064
X5.3346Y-4.4587
X5.3346Y-4.5374
X5.3346Y-4.6161
X5.3346Y-4.8524
X5.3346Y-4.9311
X5.3346Y-5.0098
X5.3996Y-4.1064
X5.6299Y-4.4587
X5.6299Y-4.5374
X5.6299Y-4.6161
X5.6299Y-4.8524
X5.6299Y-4.9311
X5.6299Y-5.0098
X5.9252Y-4.4587
X5.9252Y-4.5374
X5.9252Y-4.6161
X5.9252Y-4.8524
X5.9252Y-4.9311
X5.9252Y-5.0098
X6.2205Y-4.4587
X6.2205Y-4.5374
X6.2205Y-4.6161
X6.2205Y-4.8524
X6.2205Y-4.9311
X6.2205Y-5.0098
X6.5157Y-4.4587
X6.5157Y-4.5374
X6.5157Y-4.6161
X6.5157Y-4.8524
X6.5157Y-4.9311
X6.5157Y-5.0098
X6.811Y-4.4587
X6.811Y-4.5374
X6.811Y-4.6161
X6.811Y-4.8524
X6.811Y-4.9311
X6.811Y-5.0098
X7.0945Y-4.6555
X7.0945Y-4.7343
X7.0945Y-4.813
T4
X4.7496Y-3.6265
X4.7496Y-4.2265
X4.8496Y-3.6265
X4.8496Y-3.7265
X4.8496Y-4.2265
X4.9496Y-3.6265
X4.9496Y-4.2265
X5.0496Y-3.6265
X5.0496Y-4.2265
X5.1496Y-3.6265
X5.1496Y-4.2265
X5.2496Y-3.6265
X5.2496Y-4.2265
X5.3496Y-3.6265
X5.3496Y-4.2265
X5.4496Y-3.6265
X5.4496Y-4.2265
X5.5496Y-3.6265
X5.5496Y-4.2265
X5.6496Y-3.6265
X5.6496Y-4.2265
X5.7496Y-3.6265
X5.7496Y-4.2265
X5.8496Y-3.6265
X5.8496Y-4.2265
X5.9496Y-3.6265
X5.9496Y-4.2265
X6.0496Y-3.6265
X6.0496Y-4.2265
X6.1496Y-3.6265
X6.1496Y-4.2265
X6.2496Y-3.6265
X6.2496Y-4.2265
X6.3496Y-3.6265
X6.3496Y-4.2265
X6.4496Y-3.6265
X6.4496Y-4.2265
X6.5496Y-3.6265
X6.5496Y-3.7265
X6.5496Y-3.8265
X6.5496Y-3.9265
X6.5496Y-4.0265
X6.5496Y-4.1265
X6.5496Y-4.2265
X6.6496Y-3.6265
X6.6496Y-4.2265
X6.7496Y-3.6265
X6.7496Y-4.2265
X6.8496Y-3.6265
X6.8496Y-4.2265
X6.9496Y-3.6265
X6.9496Y-4.2265
X7.0496Y-3.6265
X7.0496Y-4.2265
T5
X5.9646Y-3.1299
X5.9646Y-3.2299
X5.9646Y-3.3299
X5.9646Y-3.4299
X6.0646Y-3.1299
X6.0646Y-3.2299
X6.0646Y-3.3299
X6.0646Y-3.4299
X6.374Y-3.2858
X6.374Y-3.3858
X6.4823Y-3.2858
X6.4823Y-3.3858
X6.5906Y-3.2858
X6.5906Y-3.3858
X6.6988Y-3.2858
X6.6988Y-3.3858
X7.2882Y-3.3465
X7.2882Y-3.5295
X7.3882Y-3.3465
X7.3882Y-3.5295
X7.4882Y-3.3465
X7.4882Y-3.5295
T6
X6.9587Y-2.9429
X6.9587Y-3.1988
X7.1358Y-2.9429
X7.1358Y-3.1988
T7
X4.8994Y-4.4569
X4.8994Y-4.6569
M30
