%TF.GenerationSoftware,KiCad,Pcbnew,8.0.7*%
%TF.CreationDate,2024-12-25T21:29:49+07:00*%
%TF.ProjectId,Morphex-PCB,4d6f7270-6865-4782-9d50-43422e6b6963,rev?*%
%TF.SameCoordinates,Original*%
%TF.FileFunction,Copper,L2,Inr*%
%TF.FilePolarity,Positive*%
%FSLAX46Y46*%
G04 Gerber Fmt 4.6, Leading zero omitted, Abs format (unit mm)*
G04 Created by KiCad (PCBNEW 8.0.7) date 2024-12-25 21:29:49*
%MOMM*%
%LPD*%
G01*
G04 APERTURE LIST*
G04 Aperture macros list*
%AMRoundRect*
0 Rectangle with rounded corners*
0 $1 Rounding radius*
0 $2 $3 $4 $5 $6 $7 $8 $9 X,Y pos of 4 corners*
0 Add a 4 corners polygon primitive as box body*
4,1,4,$2,$3,$4,$5,$6,$7,$8,$9,$2,$3,0*
0 Add four circle primitives for the rounded corners*
1,1,$1+$1,$2,$3*
1,1,$1+$1,$4,$5*
1,1,$1+$1,$6,$7*
1,1,$1+$1,$8,$9*
0 Add four rect primitives between the rounded corners*
20,1,$1+$1,$2,$3,$4,$5,0*
20,1,$1+$1,$4,$5,$6,$7,0*
20,1,$1+$1,$6,$7,$8,$9,0*
20,1,$1+$1,$8,$9,$2,$3,0*%
G04 Aperture macros list end*
%TA.AperFunction,ComponentPad*%
%ADD10RoundRect,0.250000X0.625000X-0.350000X0.625000X0.350000X-0.625000X0.350000X-0.625000X-0.350000X0*%
%TD*%
%TA.AperFunction,ComponentPad*%
%ADD11O,1.750000X1.200000*%
%TD*%
%TA.AperFunction,ComponentPad*%
%ADD12R,1.700000X1.700000*%
%TD*%
%TA.AperFunction,ComponentPad*%
%ADD13O,1.700000X1.700000*%
%TD*%
%TA.AperFunction,ComponentPad*%
%ADD14C,1.700000*%
%TD*%
%TA.AperFunction,ComponentPad*%
%ADD15R,2.600000X2.600000*%
%TD*%
%TA.AperFunction,ComponentPad*%
%ADD16C,2.600000*%
%TD*%
%TA.AperFunction,ComponentPad*%
%ADD17C,2.000000*%
%TD*%
%TA.AperFunction,ComponentPad*%
%ADD18C,1.308000*%
%TD*%
%TA.AperFunction,ComponentPad*%
%ADD19C,1.258000*%
%TD*%
%TA.AperFunction,ComponentPad*%
%ADD20C,1.208000*%
%TD*%
%TA.AperFunction,ViaPad*%
%ADD21C,0.500000*%
%TD*%
%TA.AperFunction,ViaPad*%
%ADD22C,0.600000*%
%TD*%
%TA.AperFunction,ViaPad*%
%ADD23C,0.700000*%
%TD*%
G04 APERTURE END LIST*
D10*
%TO.N,VCC*%
%TO.C,servo11*%
X173000000Y-127250000D03*
D11*
%TO.N,GND*%
X173000000Y-125250000D03*
%TO.N,/from_servo*%
X173000000Y-123250000D03*
%TD*%
D10*
%TO.N,VCC*%
%TO.C,servo2*%
X173000000Y-117250000D03*
D11*
%TO.N,GND*%
X173000000Y-115250000D03*
%TO.N,/from_servo*%
X173000000Y-113250000D03*
%TD*%
D12*
%TO.N,+3.3V*%
%TO.C,3.3V*%
X185120000Y-85000000D03*
D13*
X187660000Y-85000000D03*
X190200000Y-85000000D03*
%TD*%
D12*
%TO.N,GND*%
%TO.C,U2*%
X154040000Y-87120000D03*
D14*
%TO.N,+3.3V*%
X151500000Y-87120000D03*
%TO.N,/NRF_CE*%
X154040000Y-84580000D03*
%TO.N,/NRF_CS*%
X151500000Y-84580000D03*
%TO.N,/NRF_SCK*%
X154040000Y-82040000D03*
%TO.N,/NRF_MOSI*%
X151500000Y-82040000D03*
%TO.N,/NRF_MISO*%
X154040000Y-79500000D03*
%TO.N,unconnected-(U2-IRQ-Pad8)*%
X151500000Y-79500000D03*
%TD*%
D12*
%TO.N,/tx2*%
%TO.C,J2*%
X161900000Y-83460000D03*
D13*
%TO.N,/rx2*%
X161900000Y-86000000D03*
%TD*%
D10*
%TO.N,VCC*%
%TO.C,servo6*%
X150500000Y-117250000D03*
D11*
%TO.N,GND*%
X150500000Y-115250000D03*
%TO.N,/from_servo*%
X150500000Y-113250000D03*
%TD*%
D10*
%TO.N,VCC*%
%TO.C,servo13*%
X135500000Y-117250000D03*
D11*
%TO.N,GND*%
X135500000Y-115250000D03*
%TO.N,/from_servo*%
X135500000Y-113250000D03*
%TD*%
D10*
%TO.N,VCC*%
%TO.C,servo10*%
X143000000Y-127250000D03*
D11*
%TO.N,GND*%
X143000000Y-125250000D03*
%TO.N,/from_servo*%
X143000000Y-123250000D03*
%TD*%
D12*
%TO.N,/tx8*%
%TO.C,J5*%
X170150000Y-83460000D03*
D13*
%TO.N,/rx8*%
X170150000Y-86000000D03*
%TD*%
D15*
%TO.N,VCC*%
%TO.C,Main Terminal*%
X124445000Y-113205000D03*
D16*
%TO.N,GND*%
X124445000Y-118285000D03*
%TD*%
D12*
%TO.N,/ctx3*%
%TO.C,J4*%
X167400000Y-83460000D03*
D13*
%TO.N,/crx3*%
X167400000Y-86000000D03*
%TD*%
D10*
%TO.N,VCC*%
%TO.C,servo5*%
X150500000Y-127250000D03*
D11*
%TO.N,GND*%
X150500000Y-125250000D03*
%TO.N,/from_servo*%
X150500000Y-123250000D03*
%TD*%
D10*
%TO.N,VCC*%
%TO.C,servo8*%
X165500000Y-127250000D03*
D11*
%TO.N,GND*%
X165500000Y-125250000D03*
%TO.N,/from_servo*%
X165500000Y-123250000D03*
%TD*%
D10*
%TO.N,VCC*%
%TO.C,servo3*%
X180200000Y-122250000D03*
D11*
%TO.N,GND*%
X180200000Y-120250000D03*
%TO.N,/from_servo*%
X180200000Y-118250000D03*
%TD*%
D12*
%TO.N,/tx7*%
%TO.C,J3*%
X164650000Y-83460000D03*
D13*
%TO.N,/rx7*%
X164650000Y-86000000D03*
%TD*%
D10*
%TO.N,VCC*%
%TO.C,servo7*%
X165500000Y-117250000D03*
D11*
%TO.N,GND*%
X165500000Y-115250000D03*
%TO.N,/from_servo*%
X165500000Y-113250000D03*
%TD*%
D17*
%TO.N,/BUTTON_PIN*%
%TO.C,SW1*%
X176750000Y-81250000D03*
X176750000Y-74750000D03*
%TO.N,Net-(R4-Pad1)*%
X181250000Y-81250000D03*
X181250000Y-74750000D03*
%TD*%
D10*
%TO.N,VCC*%
%TO.C,servo12*%
X158000000Y-127250000D03*
D11*
%TO.N,GND*%
X158000000Y-125250000D03*
%TO.N,/from_servo*%
X158000000Y-123250000D03*
%TD*%
D10*
%TO.N,VCC*%
%TO.C,servo9*%
X135500000Y-127250000D03*
D11*
%TO.N,GND*%
X135500000Y-125250000D03*
%TO.N,/from_servo*%
X135500000Y-123250000D03*
%TD*%
D10*
%TO.N,VCC*%
%TO.C,servo4*%
X143000000Y-117250000D03*
D11*
%TO.N,GND*%
X143000000Y-115250000D03*
%TO.N,/from_servo*%
X143000000Y-113250000D03*
%TD*%
D12*
%TO.N,+5V*%
%TO.C,5V*%
X185120000Y-89650000D03*
D13*
X187660000Y-89650000D03*
X190200000Y-89650000D03*
%TD*%
D10*
%TO.N,VCC*%
%TO.C,servo1*%
X158000000Y-117250000D03*
D11*
%TO.N,GND*%
X158000000Y-115250000D03*
%TO.N,/from_servo*%
X158000000Y-113250000D03*
%TD*%
D18*
%TO.N,/servo_rx1*%
%TO.C,U1*%
X123180000Y-107352500D03*
%TO.N,/servo_tx1*%
X125720000Y-107352500D03*
%TO.N,unconnected-(U1-OUT2-Pad2)*%
X128260000Y-107352500D03*
%TO.N,unconnected-(U1-LRCLK2-Pad3)*%
X130800000Y-107352500D03*
%TO.N,Net-(U1-3.3V-Pad3.3V_1)*%
X156200000Y-107352500D03*
X125720000Y-92112500D03*
X166360000Y-102272500D03*
%TO.N,unconnected-(U1-BCLK2-Pad4)*%
X133340000Y-107352500D03*
%TO.N,unconnected-(U1-IN2-Pad5)*%
X135880000Y-107352500D03*
D19*
%TO.N,unconnected-(U1-Pad5V)*%
X126990000Y-104302500D03*
D18*
%TO.N,unconnected-(U1-OUT1D-Pad6)*%
X138420000Y-107352500D03*
%TO.N,/rx2*%
X140960000Y-107352500D03*
%TO.N,/tx2*%
X143500000Y-107352500D03*
%TO.N,unconnected-(U1-OUT1C-Pad9)*%
X146040000Y-107352500D03*
%TO.N,/NRF_CS*%
X148580000Y-107352500D03*
%TO.N,/NRF_MOSI*%
X151120000Y-107352500D03*
%TO.N,/NRF_MISO*%
X153660000Y-107352500D03*
%TO.N,/NRF_SCK*%
X153660000Y-92112500D03*
%TO.N,/BNO_RESET*%
X151120000Y-92112500D03*
%TO.N,/BNO_INT*%
X148580000Y-92112500D03*
%TO.N,unconnected-(U1-A2-Pad16)*%
X146040000Y-92112500D03*
%TO.N,unconnected-(U1-A3-Pad17)*%
X143500000Y-92112500D03*
%TO.N,/SDA*%
X140960000Y-92112500D03*
%TO.N,/SCL*%
X138420000Y-92112500D03*
%TO.N,unconnected-(U1-A6-Pad20)*%
X135880000Y-92112500D03*
%TO.N,unconnected-(U1-A7-Pad21)*%
X133340000Y-92112500D03*
%TO.N,unconnected-(U1-A8-Pad22)*%
X130800000Y-92112500D03*
%TO.N,unconnected-(U1-A9-Pad23)*%
X128260000Y-92112500D03*
%TO.N,unconnected-(U1-A10-Pad24)*%
X158740000Y-107352500D03*
%TO.N,unconnected-(U1-A11-Pad25)*%
X161280000Y-107352500D03*
%TO.N,unconnected-(U1-A12-Pad26)*%
X163820000Y-107352500D03*
%TO.N,unconnected-(U1-A13-Pad27)*%
X166360000Y-107352500D03*
%TO.N,/rx7*%
X168900000Y-107352500D03*
%TO.N,/tx7*%
X171440000Y-107352500D03*
%TO.N,/crx3*%
X173980000Y-107352500D03*
%TO.N,/ctx3*%
X176520000Y-107352500D03*
%TO.N,unconnected-(U1-OUT1B-Pad32)*%
X179060000Y-107352500D03*
%TO.N,unconnected-(U1-MCLK2-Pad33)*%
X179060000Y-92112500D03*
%TO.N,/rx8*%
X176520000Y-92112500D03*
%TO.N,/tx8*%
X173980000Y-92112500D03*
%TO.N,unconnected-(U1-CS2-Pad36)*%
X171440000Y-92112500D03*
%TO.N,/BUTTON_PIN*%
X168900000Y-92112500D03*
%TO.N,unconnected-(U1-A14-Pad38)*%
X166360000Y-92112500D03*
%TO.N,unconnected-(U1-A15-Pad39)*%
X163820000Y-92112500D03*
%TO.N,/NRF_CE*%
X161280000Y-92112500D03*
%TO.N,/servo_dir*%
X158740000Y-92112500D03*
D19*
%TO.N,unconnected-(U1-PadD+)*%
X132070000Y-104302500D03*
%TO.N,unconnected-(U1-PadD-)*%
X129530000Y-104302500D03*
D18*
%TO.N,GND*%
X120640000Y-107352500D03*
X156200000Y-92112500D03*
X123180000Y-92112500D03*
X166360000Y-99732500D03*
D20*
X135610000Y-96562500D03*
%TO.N,unconnected-(U1-PadLED)*%
X133610000Y-96562500D03*
D18*
%TO.N,unconnected-(U1-PadON{slash}OFF)*%
X166360000Y-94652500D03*
%TO.N,unconnected-(U1-PadPROGRAM)*%
X166360000Y-97192500D03*
D20*
%TO.N,unconnected-(U1-PadR+)*%
X133610000Y-94562500D03*
%TO.N,unconnected-(U1-PadR-)*%
X135610000Y-94562500D03*
%TO.N,unconnected-(U1-PadT+)*%
X135610000Y-98562500D03*
%TO.N,unconnected-(U1-PadT-)*%
X133610000Y-98562500D03*
D19*
%TO.N,GND*%
X134610000Y-104302500D03*
X137150000Y-104302500D03*
D18*
%TO.N,unconnected-(U1-PadVBAT)*%
X166360000Y-104812500D03*
%TO.N,+5V*%
X120640000Y-92112500D03*
%TO.N,unconnected-(U1-PadVUSB)*%
X123180000Y-94652500D03*
%TD*%
D21*
%TO.N,GND*%
X157200000Y-89400000D03*
X187600000Y-94600000D03*
X150200000Y-95200000D03*
X173400000Y-100600000D03*
X183400000Y-114400000D03*
X157800000Y-97000000D03*
X131400000Y-98800000D03*
X182400000Y-106800000D03*
X179400000Y-96200000D03*
X159950000Y-103250000D03*
X185800000Y-81800000D03*
%TO.N,+5V*%
X139000000Y-93600000D03*
X151000000Y-98000000D03*
D22*
X145000000Y-95000000D03*
D23*
X181000000Y-88200000D03*
D21*
X124000000Y-82000000D03*
X151400000Y-96725000D03*
D23*
X176600000Y-86000000D03*
D21*
X142400000Y-94400000D03*
D22*
%TO.N,+3.3V*%
X175500000Y-105500000D03*
D23*
X191400000Y-82400000D03*
D21*
X180200000Y-95200000D03*
D22*
X146400000Y-86600000D03*
X171800000Y-104800000D03*
X137000000Y-102500000D03*
X137375000Y-98375000D03*
X183700000Y-108800000D03*
D21*
%TO.N,VCC*%
X188600000Y-94200000D03*
X188800000Y-108600000D03*
D22*
%TO.N,Net-(IC1-B3)*%
X151565380Y-100234620D03*
X159750000Y-98750000D03*
%TO.N,Net-(IC1-B1)*%
X158750000Y-99000000D03*
X152600000Y-96450000D03*
D23*
%TO.N,/servo_dir*%
X140600000Y-96400000D03*
D21*
%TO.N,/from_servo*%
X155400000Y-99800000D03*
D22*
%TO.N,Net-(U3-~{BOOT_LOAD_PIN})*%
X179000000Y-94000000D03*
X179200000Y-102800000D03*
%TO.N,/BNO_RESET*%
X154800000Y-94200000D03*
X182800000Y-99600000D03*
X151800000Y-94200000D03*
X158200000Y-93800000D03*
%TO.N,/NRF_MOSI*%
X145200000Y-84000000D03*
X161975499Y-94450000D03*
%TO.N,/rx8*%
X172600000Y-88400000D03*
X175200000Y-89600000D03*
%TO.N,/NRF_MISO*%
X162600000Y-93950000D03*
%TO.N,/SDA*%
X153400000Y-102600000D03*
%TO.N,/ctx3*%
X171659620Y-97140380D03*
X167800000Y-90400000D03*
X169400000Y-98200000D03*
%TO.N,/rx2*%
X139400000Y-94800000D03*
%TO.N,/crx3*%
X170400000Y-98200000D03*
X172600000Y-97600000D03*
%TO.N,/NRF_CS*%
X161600000Y-95800000D03*
%TO.N,/SCL*%
X142000000Y-93400000D03*
X159200000Y-96600000D03*
%TO.N,/BNO_INT*%
X143600000Y-95800000D03*
X152700000Y-95100000D03*
%TO.N,/tx2*%
X138400000Y-96400000D03*
%TO.N,/rx7*%
X165000000Y-95000000D03*
%TO.N,/tx7*%
X168400000Y-105000000D03*
X170600000Y-94600000D03*
X167800000Y-95200000D03*
%TD*%
%TA.AperFunction,Conductor*%
%TO.N,VCC*%
G36*
X175534709Y-73020028D02*
G01*
X175645937Y-73076702D01*
X175734209Y-73164974D01*
X175790883Y-73276202D01*
X175810411Y-73399500D01*
X175790883Y-73522798D01*
X175734209Y-73634026D01*
X175704965Y-73669735D01*
X175561837Y-73825212D01*
X175425828Y-74033391D01*
X175325937Y-74261117D01*
X175264893Y-74502172D01*
X175264892Y-74502177D01*
X175244357Y-74749998D01*
X175244357Y-74750001D01*
X175264892Y-74997822D01*
X175264893Y-74997827D01*
X175286243Y-75082134D01*
X175325937Y-75238881D01*
X175425827Y-75466607D01*
X175497997Y-75577071D01*
X175561837Y-75674787D01*
X175730254Y-75857737D01*
X175812080Y-75921424D01*
X175926491Y-76010474D01*
X176145190Y-76128828D01*
X176145196Y-76128830D01*
X176145198Y-76128831D01*
X176145197Y-76128831D01*
X176299413Y-76181772D01*
X176380386Y-76209571D01*
X176543604Y-76236806D01*
X176625657Y-76250499D01*
X176625665Y-76250500D01*
X176874335Y-76250500D01*
X176874342Y-76250499D01*
X176915515Y-76243628D01*
X177119614Y-76209571D01*
X177289282Y-76151323D01*
X177354802Y-76128831D01*
X177354803Y-76128830D01*
X177354810Y-76128828D01*
X177573509Y-76010474D01*
X177769744Y-75857738D01*
X177938164Y-75674785D01*
X178074173Y-75466607D01*
X178174063Y-75238881D01*
X178235108Y-74997821D01*
X178255643Y-74750000D01*
X178235108Y-74502179D01*
X178174063Y-74261119D01*
X178074173Y-74033393D01*
X177938164Y-73825215D01*
X177938163Y-73825214D01*
X177938162Y-73825212D01*
X177795035Y-73669735D01*
X177725895Y-73565796D01*
X177692259Y-73445578D01*
X177697417Y-73320850D01*
X177740867Y-73203821D01*
X177818354Y-73105946D01*
X177922293Y-73036806D01*
X178042511Y-73003170D01*
X178088589Y-73000500D01*
X179911411Y-73000500D01*
X180034709Y-73020028D01*
X180145937Y-73076702D01*
X180234209Y-73164974D01*
X180290883Y-73276202D01*
X180310411Y-73399500D01*
X180290883Y-73522798D01*
X180234209Y-73634026D01*
X180204965Y-73669735D01*
X180061837Y-73825212D01*
X179925828Y-74033391D01*
X179825937Y-74261117D01*
X179764893Y-74502172D01*
X179764892Y-74502177D01*
X179744357Y-74749998D01*
X179744357Y-74750001D01*
X179764892Y-74997822D01*
X179764893Y-74997827D01*
X179786243Y-75082134D01*
X179825937Y-75238881D01*
X179925827Y-75466607D01*
X179997997Y-75577071D01*
X180061837Y-75674787D01*
X180230254Y-75857737D01*
X180312080Y-75921424D01*
X180426491Y-76010474D01*
X180645190Y-76128828D01*
X180645196Y-76128830D01*
X180645198Y-76128831D01*
X180645197Y-76128831D01*
X180799413Y-76181772D01*
X180880386Y-76209571D01*
X181043604Y-76236806D01*
X181125657Y-76250499D01*
X181125665Y-76250500D01*
X181374335Y-76250500D01*
X181374342Y-76250499D01*
X181415515Y-76243628D01*
X181619614Y-76209571D01*
X181789282Y-76151323D01*
X181854802Y-76128831D01*
X181854803Y-76128830D01*
X181854810Y-76128828D01*
X182073509Y-76010474D01*
X182269744Y-75857738D01*
X182438164Y-75674785D01*
X182574173Y-75466607D01*
X182674063Y-75238881D01*
X182735108Y-74997821D01*
X182755643Y-74750000D01*
X182735108Y-74502179D01*
X182674063Y-74261119D01*
X182574173Y-74033393D01*
X182438164Y-73825215D01*
X182438163Y-73825214D01*
X182438162Y-73825212D01*
X182295035Y-73669735D01*
X182225895Y-73565796D01*
X182192259Y-73445578D01*
X182197417Y-73320850D01*
X182240867Y-73203821D01*
X182318354Y-73105946D01*
X182422293Y-73036806D01*
X182542511Y-73003170D01*
X182588589Y-73000500D01*
X188684108Y-73000500D01*
X188741299Y-73000500D01*
X188758703Y-73000880D01*
X189124759Y-73016862D01*
X189159404Y-73019892D01*
X189514088Y-73066588D01*
X189548322Y-73072625D01*
X189897557Y-73150048D01*
X189931162Y-73159053D01*
X190272315Y-73266617D01*
X190304996Y-73278511D01*
X190635488Y-73415406D01*
X190667018Y-73430109D01*
X190984314Y-73595283D01*
X191014423Y-73612666D01*
X191316114Y-73804865D01*
X191344621Y-73824825D01*
X191345129Y-73825215D01*
X191628409Y-74042583D01*
X191655053Y-74064940D01*
X191918790Y-74306610D01*
X191943389Y-74331209D01*
X192185057Y-74594943D01*
X192207417Y-74621592D01*
X192349442Y-74806682D01*
X192425174Y-74905378D01*
X192445137Y-74933889D01*
X192637328Y-75235569D01*
X192654723Y-75265698D01*
X192819886Y-75582973D01*
X192834597Y-75614520D01*
X192971482Y-75944989D01*
X192983387Y-75977699D01*
X193090944Y-76318829D01*
X193099953Y-76352451D01*
X193177372Y-76701666D01*
X193183414Y-76735929D01*
X193205529Y-76903906D01*
X193230104Y-77090568D01*
X193233137Y-77125243D01*
X193249120Y-77491295D01*
X193249500Y-77508700D01*
X193249500Y-125991299D01*
X193249120Y-126008704D01*
X193233137Y-126374756D01*
X193230104Y-126409426D01*
X193183414Y-126764066D01*
X193177372Y-126798333D01*
X193099953Y-127147548D01*
X193090944Y-127181170D01*
X192983387Y-127522300D01*
X192971482Y-127555010D01*
X192834597Y-127885479D01*
X192819886Y-127917026D01*
X192654723Y-128234301D01*
X192637319Y-128264446D01*
X192445138Y-128566109D01*
X192425174Y-128594621D01*
X192207426Y-128878397D01*
X192185051Y-128905063D01*
X191943396Y-129168783D01*
X191918783Y-129193396D01*
X191655063Y-129435051D01*
X191628397Y-129457426D01*
X191344621Y-129675174D01*
X191316109Y-129695138D01*
X191123624Y-129817764D01*
X191014439Y-129887322D01*
X190984301Y-129904723D01*
X190667026Y-130069886D01*
X190635479Y-130084597D01*
X190305010Y-130221482D01*
X190272300Y-130233387D01*
X189931170Y-130340944D01*
X189897548Y-130349953D01*
X189548333Y-130427372D01*
X189514066Y-130433414D01*
X189159426Y-130480104D01*
X189124756Y-130483137D01*
X188771060Y-130498580D01*
X188758702Y-130499120D01*
X188741299Y-130499500D01*
X122508701Y-130499500D01*
X122491297Y-130499120D01*
X122478198Y-130498548D01*
X122125243Y-130483137D01*
X122090575Y-130480104D01*
X121735929Y-130433414D01*
X121701666Y-130427372D01*
X121352451Y-130349953D01*
X121318829Y-130340944D01*
X120977699Y-130233387D01*
X120944989Y-130221482D01*
X120895379Y-130200933D01*
X120614520Y-130084597D01*
X120582973Y-130069886D01*
X120265698Y-129904723D01*
X120235569Y-129887328D01*
X119933889Y-129695137D01*
X119905378Y-129675174D01*
X119752685Y-129558009D01*
X119621592Y-129457417D01*
X119594943Y-129435057D01*
X119331209Y-129193389D01*
X119306610Y-129168790D01*
X119064940Y-128905053D01*
X119042583Y-128878409D01*
X118824825Y-128594621D01*
X118804861Y-128566109D01*
X118710420Y-128417866D01*
X118612666Y-128264423D01*
X118595283Y-128234314D01*
X118430109Y-127917018D01*
X118415402Y-127885479D01*
X118278511Y-127554996D01*
X118266617Y-127522315D01*
X118159053Y-127181162D01*
X118150046Y-127147548D01*
X118124051Y-127030290D01*
X118072625Y-126798322D01*
X118066588Y-126764088D01*
X118019892Y-126409404D01*
X118016862Y-126374755D01*
X118000880Y-126008703D01*
X118000500Y-125991299D01*
X118000500Y-125878712D01*
X120649500Y-125878712D01*
X120649500Y-126121288D01*
X120658708Y-126191232D01*
X120681161Y-126361789D01*
X120681162Y-126361791D01*
X120743943Y-126596093D01*
X120743946Y-126596100D01*
X120836776Y-126820212D01*
X120836777Y-126820215D01*
X120836779Y-126820218D01*
X120958064Y-127030290D01*
X121088771Y-127200630D01*
X121105735Y-127222738D01*
X121277262Y-127394265D01*
X121277266Y-127394268D01*
X121277267Y-127394269D01*
X121469709Y-127541935D01*
X121469711Y-127541936D01*
X121679788Y-127663224D01*
X121903900Y-127756054D01*
X121903903Y-127756054D01*
X121903906Y-127756056D01*
X122060107Y-127797910D01*
X122138208Y-127818837D01*
X122138210Y-127818838D01*
X122178294Y-127824115D01*
X122378712Y-127850500D01*
X122378717Y-127850500D01*
X122621283Y-127850500D01*
X122621288Y-127850500D01*
X122861789Y-127818838D01*
X123096100Y-127756054D01*
X123320212Y-127663224D01*
X123343117Y-127650000D01*
X134125003Y-127650000D01*
X134135493Y-127752693D01*
X134135496Y-127752704D01*
X134190639Y-127919115D01*
X134190643Y-127919125D01*
X134282681Y-128068341D01*
X134406658Y-128192318D01*
X134555874Y-128284356D01*
X134555882Y-128284359D01*
X134722301Y-128339505D01*
X134825022Y-128349999D01*
X135099999Y-128349998D01*
X135100000Y-128349998D01*
X135100000Y-127650001D01*
X135900000Y-127650001D01*
X135900000Y-128349998D01*
X135900001Y-128349999D01*
X136174969Y-128349999D01*
X136174984Y-128349998D01*
X136277696Y-128339505D01*
X136277701Y-128339504D01*
X136444115Y-128284360D01*
X136444125Y-128284356D01*
X136593341Y-128192318D01*
X136717318Y-128068341D01*
X136809356Y-127919125D01*
X136809359Y-127919117D01*
X136864505Y-127752698D01*
X136874998Y-127650000D01*
X141625003Y-127650000D01*
X141635493Y-127752693D01*
X141635496Y-127752704D01*
X141690639Y-127919115D01*
X141690643Y-127919125D01*
X141782681Y-128068341D01*
X141906658Y-128192318D01*
X142055874Y-128284356D01*
X142055882Y-128284359D01*
X142222301Y-128339505D01*
X142325022Y-128349999D01*
X142599999Y-128349998D01*
X142600000Y-128349998D01*
X142600000Y-127650001D01*
X143400000Y-127650001D01*
X143400000Y-128349998D01*
X143400001Y-128349999D01*
X143674969Y-128349999D01*
X143674984Y-128349998D01*
X143777696Y-128339505D01*
X143777701Y-128339504D01*
X143944115Y-128284360D01*
X143944125Y-128284356D01*
X144093341Y-128192318D01*
X144217318Y-128068341D01*
X144309356Y-127919125D01*
X144309359Y-127919117D01*
X144364505Y-127752698D01*
X144374998Y-127650000D01*
X149125003Y-127650000D01*
X149135493Y-127752693D01*
X149135496Y-127752704D01*
X149190639Y-127919115D01*
X149190643Y-127919125D01*
X149282681Y-128068341D01*
X149406658Y-128192318D01*
X149555874Y-128284356D01*
X149555882Y-128284359D01*
X149722301Y-128339505D01*
X149825022Y-128349999D01*
X150099999Y-128349998D01*
X150100000Y-128349998D01*
X150100000Y-127650001D01*
X150900000Y-127650001D01*
X150900000Y-128349998D01*
X150900001Y-128349999D01*
X151174969Y-128349999D01*
X151174984Y-128349998D01*
X151277696Y-128339505D01*
X151277701Y-128339504D01*
X151444115Y-128284360D01*
X151444125Y-128284356D01*
X151593341Y-128192318D01*
X151717318Y-128068341D01*
X151809356Y-127919125D01*
X151809359Y-127919117D01*
X151864505Y-127752698D01*
X151874998Y-127650000D01*
X156625003Y-127650000D01*
X156635493Y-127752693D01*
X156635496Y-127752704D01*
X156690639Y-127919115D01*
X156690643Y-127919125D01*
X156782681Y-128068341D01*
X156906658Y-128192318D01*
X157055874Y-128284356D01*
X157055882Y-128284359D01*
X157222301Y-128339505D01*
X157325022Y-128349999D01*
X157599999Y-128349998D01*
X157600000Y-128349998D01*
X157600000Y-127650001D01*
X158400000Y-127650001D01*
X158400000Y-128349998D01*
X158400001Y-128349999D01*
X158674969Y-128349999D01*
X158674984Y-128349998D01*
X158777696Y-128339505D01*
X158777701Y-128339504D01*
X158944115Y-128284360D01*
X158944125Y-128284356D01*
X159093341Y-128192318D01*
X159217318Y-128068341D01*
X159309356Y-127919125D01*
X159309359Y-127919117D01*
X159364505Y-127752698D01*
X159374998Y-127650000D01*
X164125003Y-127650000D01*
X164135493Y-127752693D01*
X164135496Y-127752704D01*
X164190639Y-127919115D01*
X164190643Y-127919125D01*
X164282681Y-128068341D01*
X164406658Y-128192318D01*
X164555874Y-128284356D01*
X164555882Y-128284359D01*
X164722301Y-128339505D01*
X164825022Y-128349999D01*
X165099999Y-128349998D01*
X165100000Y-128349998D01*
X165100000Y-127650001D01*
X165900000Y-127650001D01*
X165900000Y-128349998D01*
X165900001Y-128349999D01*
X166174969Y-128349999D01*
X166174984Y-128349998D01*
X166277696Y-128339505D01*
X166277701Y-128339504D01*
X166444115Y-128284360D01*
X166444125Y-128284356D01*
X166593341Y-128192318D01*
X166717318Y-128068341D01*
X166809356Y-127919125D01*
X166809359Y-127919117D01*
X166864505Y-127752698D01*
X166874998Y-127650000D01*
X171625003Y-127650000D01*
X171635493Y-127752693D01*
X171635496Y-127752704D01*
X171690639Y-127919115D01*
X171690643Y-127919125D01*
X171782681Y-128068341D01*
X171906658Y-128192318D01*
X172055874Y-128284356D01*
X172055882Y-128284359D01*
X172222301Y-128339505D01*
X172325022Y-128349999D01*
X172599999Y-128349998D01*
X172600000Y-128349998D01*
X172600000Y-127650001D01*
X173400000Y-127650001D01*
X173400000Y-128349998D01*
X173400001Y-128349999D01*
X173674969Y-128349999D01*
X173674984Y-128349998D01*
X173777696Y-128339505D01*
X173777701Y-128339504D01*
X173944115Y-128284360D01*
X173944125Y-128284356D01*
X174093341Y-128192318D01*
X174217318Y-128068341D01*
X174309356Y-127919125D01*
X174309359Y-127919117D01*
X174364505Y-127752698D01*
X174374998Y-127650000D01*
X173400001Y-127650000D01*
X173400000Y-127650001D01*
X172600000Y-127650001D01*
X172599999Y-127650000D01*
X171625003Y-127650000D01*
X166874998Y-127650000D01*
X165900001Y-127650000D01*
X165900000Y-127650001D01*
X165100000Y-127650001D01*
X165099999Y-127650000D01*
X164125003Y-127650000D01*
X159374998Y-127650000D01*
X158400001Y-127650000D01*
X158400000Y-127650001D01*
X157600000Y-127650001D01*
X157599999Y-127650000D01*
X156625003Y-127650000D01*
X151874998Y-127650000D01*
X150900001Y-127650000D01*
X150900000Y-127650001D01*
X150100000Y-127650001D01*
X150099999Y-127650000D01*
X149125003Y-127650000D01*
X144374998Y-127650000D01*
X143400001Y-127650000D01*
X143400000Y-127650001D01*
X142600000Y-127650001D01*
X142599999Y-127650000D01*
X141625003Y-127650000D01*
X136874998Y-127650000D01*
X135900001Y-127650000D01*
X135900000Y-127650001D01*
X135100000Y-127650001D01*
X135099999Y-127650000D01*
X134125003Y-127650000D01*
X123343117Y-127650000D01*
X123530289Y-127541936D01*
X123722738Y-127394265D01*
X123894265Y-127222738D01*
X123911229Y-127200630D01*
X135125000Y-127200630D01*
X135125000Y-127299370D01*
X135150556Y-127394745D01*
X135199925Y-127480255D01*
X135269745Y-127550075D01*
X135355255Y-127599444D01*
X135450630Y-127625000D01*
X135549370Y-127625000D01*
X135644745Y-127599444D01*
X135730255Y-127550075D01*
X135800075Y-127480255D01*
X135849444Y-127394745D01*
X135875000Y-127299370D01*
X135875000Y-127200630D01*
X142625000Y-127200630D01*
X142625000Y-127299370D01*
X142650556Y-127394745D01*
X142699925Y-127480255D01*
X142769745Y-127550075D01*
X142855255Y-127599444D01*
X142950630Y-127625000D01*
X143049370Y-127625000D01*
X143144745Y-127599444D01*
X143230255Y-127550075D01*
X143300075Y-127480255D01*
X143349444Y-127394745D01*
X143375000Y-127299370D01*
X143375000Y-127200630D01*
X150125000Y-127200630D01*
X150125000Y-127299370D01*
X150150556Y-127394745D01*
X150199925Y-127480255D01*
X150269745Y-127550075D01*
X150355255Y-127599444D01*
X150450630Y-127625000D01*
X150549370Y-127625000D01*
X150644745Y-127599444D01*
X150730255Y-127550075D01*
X150800075Y-127480255D01*
X150849444Y-127394745D01*
X150875000Y-127299370D01*
X150875000Y-127200630D01*
X157625000Y-127200630D01*
X157625000Y-127299370D01*
X157650556Y-127394745D01*
X157699925Y-127480255D01*
X157769745Y-127550075D01*
X157855255Y-127599444D01*
X157950630Y-127625000D01*
X158049370Y-127625000D01*
X158144745Y-127599444D01*
X158230255Y-127550075D01*
X158300075Y-127480255D01*
X158349444Y-127394745D01*
X158375000Y-127299370D01*
X158375000Y-127200630D01*
X165125000Y-127200630D01*
X165125000Y-127299370D01*
X165150556Y-127394745D01*
X165199925Y-127480255D01*
X165269745Y-127550075D01*
X165355255Y-127599444D01*
X165450630Y-127625000D01*
X165549370Y-127625000D01*
X165644745Y-127599444D01*
X165730255Y-127550075D01*
X165800075Y-127480255D01*
X165849444Y-127394745D01*
X165875000Y-127299370D01*
X165875000Y-127200630D01*
X172625000Y-127200630D01*
X172625000Y-127299370D01*
X172650556Y-127394745D01*
X172699925Y-127480255D01*
X172769745Y-127550075D01*
X172855255Y-127599444D01*
X172950630Y-127625000D01*
X173049370Y-127625000D01*
X173144745Y-127599444D01*
X173230255Y-127550075D01*
X173300075Y-127480255D01*
X173349444Y-127394745D01*
X173375000Y-127299370D01*
X173375000Y-127200630D01*
X173349444Y-127105255D01*
X173300075Y-127019745D01*
X173230255Y-126949925D01*
X173144745Y-126900556D01*
X173049370Y-126875000D01*
X172950630Y-126875000D01*
X172855255Y-126900556D01*
X172769745Y-126949925D01*
X172699925Y-127019745D01*
X172650556Y-127105255D01*
X172625000Y-127200630D01*
X165875000Y-127200630D01*
X165849444Y-127105255D01*
X165800075Y-127019745D01*
X165730255Y-126949925D01*
X165644745Y-126900556D01*
X165549370Y-126875000D01*
X165450630Y-126875000D01*
X165355255Y-126900556D01*
X165269745Y-126949925D01*
X165199925Y-127019745D01*
X165150556Y-127105255D01*
X165125000Y-127200630D01*
X158375000Y-127200630D01*
X158349444Y-127105255D01*
X158300075Y-127019745D01*
X158230255Y-126949925D01*
X158144745Y-126900556D01*
X158049370Y-126875000D01*
X157950630Y-126875000D01*
X157855255Y-126900556D01*
X157769745Y-126949925D01*
X157699925Y-127019745D01*
X157650556Y-127105255D01*
X157625000Y-127200630D01*
X150875000Y-127200630D01*
X150849444Y-127105255D01*
X150800075Y-127019745D01*
X150730255Y-126949925D01*
X150644745Y-126900556D01*
X150549370Y-126875000D01*
X150450630Y-126875000D01*
X150355255Y-126900556D01*
X150269745Y-126949925D01*
X150199925Y-127019745D01*
X150150556Y-127105255D01*
X150125000Y-127200630D01*
X143375000Y-127200630D01*
X143349444Y-127105255D01*
X143300075Y-127019745D01*
X143230255Y-126949925D01*
X143144745Y-126900556D01*
X143049370Y-126875000D01*
X142950630Y-126875000D01*
X142855255Y-126900556D01*
X142769745Y-126949925D01*
X142699925Y-127019745D01*
X142650556Y-127105255D01*
X142625000Y-127200630D01*
X135875000Y-127200630D01*
X135849444Y-127105255D01*
X135800075Y-127019745D01*
X135730255Y-126949925D01*
X135644745Y-126900556D01*
X135549370Y-126875000D01*
X135450630Y-126875000D01*
X135355255Y-126900556D01*
X135269745Y-126949925D01*
X135199925Y-127019745D01*
X135150556Y-127105255D01*
X135125000Y-127200630D01*
X123911229Y-127200630D01*
X124041936Y-127030289D01*
X124163224Y-126820212D01*
X124256054Y-126596100D01*
X124318838Y-126361789D01*
X124350500Y-126121288D01*
X124350500Y-125878712D01*
X124318838Y-125638211D01*
X124256054Y-125403900D01*
X124163224Y-125179788D01*
X124041936Y-124969711D01*
X124041935Y-124969709D01*
X123894269Y-124777267D01*
X123894268Y-124777266D01*
X123894265Y-124777262D01*
X123722738Y-124605735D01*
X123722733Y-124605731D01*
X123722732Y-124605730D01*
X123530290Y-124458064D01*
X123320218Y-124336779D01*
X123320215Y-124336777D01*
X123320212Y-124336776D01*
X123096100Y-124243946D01*
X123096093Y-124243943D01*
X122861791Y-124181162D01*
X122861789Y-124181161D01*
X122716753Y-124162067D01*
X122621288Y-124149500D01*
X122378712Y-124149500D01*
X122290268Y-124161143D01*
X122138210Y-124181161D01*
X122138208Y-124181162D01*
X121903906Y-124243943D01*
X121679781Y-124336779D01*
X121469709Y-124458064D01*
X121277267Y-124605730D01*
X121105730Y-124777267D01*
X120958064Y-124969709D01*
X120836779Y-125179781D01*
X120743943Y-125403906D01*
X120681162Y-125638208D01*
X120681161Y-125638210D01*
X120661143Y-125790268D01*
X120649500Y-125878712D01*
X118000500Y-125878712D01*
X118000500Y-123163389D01*
X134124500Y-123163389D01*
X134124500Y-123336611D01*
X134151598Y-123507701D01*
X134151599Y-123507707D01*
X134205124Y-123672436D01*
X134205127Y-123672445D01*
X134283768Y-123826789D01*
X134385585Y-123966927D01*
X134386522Y-123967864D01*
X134387305Y-123968942D01*
X134395773Y-123978857D01*
X134394992Y-123979523D01*
X134459898Y-124068858D01*
X134498474Y-124187583D01*
X134498474Y-124312417D01*
X134459898Y-124431142D01*
X134394992Y-124520476D01*
X134395773Y-124521143D01*
X134387305Y-124531057D01*
X134386522Y-124532136D01*
X134385585Y-124533072D01*
X134283768Y-124673210D01*
X134205127Y-124827554D01*
X134205124Y-124827563D01*
X134151599Y-124992292D01*
X134151598Y-124992299D01*
X134124500Y-125163389D01*
X134124500Y-125336611D01*
X134151598Y-125507701D01*
X134151599Y-125507707D01*
X134205124Y-125672436D01*
X134205127Y-125672445D01*
X134283768Y-125826788D01*
X134337540Y-125900799D01*
X134394214Y-126012028D01*
X134413742Y-126135325D01*
X134394213Y-126258623D01*
X134337540Y-126369852D01*
X134296882Y-126417456D01*
X134282686Y-126431651D01*
X134282682Y-126431657D01*
X134190643Y-126580874D01*
X134190640Y-126580882D01*
X134135494Y-126747301D01*
X134125002Y-126850000D01*
X136874996Y-126850000D01*
X136864506Y-126747306D01*
X136864503Y-126747295D01*
X136809360Y-126580884D01*
X136809356Y-126580874D01*
X136717318Y-126431658D01*
X136703121Y-126417461D01*
X136629745Y-126316467D01*
X136591169Y-126197742D01*
X136591169Y-126072908D01*
X136629745Y-125954183D01*
X136662461Y-125900797D01*
X136678507Y-125878712D01*
X136716232Y-125826788D01*
X136794873Y-125672445D01*
X136848402Y-125507701D01*
X136875500Y-125336611D01*
X136875500Y-125163389D01*
X136848402Y-124992299D01*
X136794873Y-124827555D01*
X136716232Y-124673212D01*
X136667203Y-124605730D01*
X136614414Y-124533072D01*
X136613478Y-124532136D01*
X136612694Y-124531057D01*
X136604227Y-124521143D01*
X136605007Y-124520476D01*
X136540102Y-124431142D01*
X136501526Y-124312417D01*
X136501526Y-124187583D01*
X136540102Y-124068858D01*
X136605007Y-123979523D01*
X136604227Y-123978857D01*
X136612694Y-123968942D01*
X136613478Y-123967864D01*
X136614414Y-123966928D01*
X136716232Y-123826788D01*
X136794873Y-123672445D01*
X136848402Y-123507701D01*
X136875500Y-123336611D01*
X136875500Y-123163389D01*
X141624500Y-123163389D01*
X141624500Y-123336611D01*
X141651598Y-123507701D01*
X141651599Y-123507707D01*
X141705124Y-123672436D01*
X141705127Y-123672445D01*
X141783768Y-123826789D01*
X141885585Y-123966927D01*
X141886522Y-123967864D01*
X141887305Y-123968942D01*
X141895773Y-123978857D01*
X141894992Y-123979523D01*
X141959898Y-124068858D01*
X141998474Y-124187583D01*
X141998474Y-124312417D01*
X141959898Y-124431142D01*
X141894992Y-124520476D01*
X141895773Y-124521143D01*
X141887305Y-124531057D01*
X141886522Y-124532136D01*
X141885585Y-124533072D01*
X141783768Y-124673210D01*
X141705127Y-124827554D01*
X141705124Y-124827563D01*
X141651599Y-124992292D01*
X141651598Y-124992299D01*
X141624500Y-125163389D01*
X141624500Y-125336611D01*
X141651598Y-125507701D01*
X141651599Y-125507707D01*
X141705124Y-125672436D01*
X141705127Y-125672445D01*
X141783768Y-125826788D01*
X141837540Y-125900799D01*
X141894214Y-126012028D01*
X141913742Y-126135325D01*
X141894213Y-126258623D01*
X141837540Y-126369852D01*
X141796882Y-126417456D01*
X141782686Y-126431651D01*
X141782682Y-126431657D01*
X141690643Y-126580874D01*
X141690640Y-126580882D01*
X141635494Y-126747301D01*
X141625002Y-126850000D01*
X144374996Y-126850000D01*
X144364506Y-126747306D01*
X144364503Y-126747295D01*
X144309360Y-126580884D01*
X144309356Y-126580874D01*
X144217318Y-126431658D01*
X144203121Y-126417461D01*
X144129745Y-126316467D01*
X144091169Y-126197742D01*
X144091169Y-126072908D01*
X144129745Y-125954183D01*
X144162461Y-125900797D01*
X144178507Y-125878712D01*
X144216232Y-125826788D01*
X144294873Y-125672445D01*
X144348402Y-125507701D01*
X144375500Y-125336611D01*
X144375500Y-125163389D01*
X144348402Y-124992299D01*
X144294873Y-124827555D01*
X144216232Y-124673212D01*
X144167203Y-124605730D01*
X144114414Y-124533072D01*
X144113478Y-124532136D01*
X144112694Y-124531057D01*
X144104227Y-124521143D01*
X144105007Y-124520476D01*
X144040102Y-124431142D01*
X144001526Y-124312417D01*
X144001526Y-124187583D01*
X144040102Y-124068858D01*
X144105007Y-123979523D01*
X144104227Y-123978857D01*
X144112694Y-123968942D01*
X144113478Y-123967864D01*
X144114414Y-123966928D01*
X144216232Y-123826788D01*
X144294873Y-123672445D01*
X144348402Y-123507701D01*
X144375500Y-123336611D01*
X144375500Y-123163389D01*
X149124500Y-123163389D01*
X149124500Y-123336611D01*
X149151598Y-123507701D01*
X149151599Y-123507707D01*
X149205124Y-123672436D01*
X149205127Y-123672445D01*
X149283768Y-123826789D01*
X149385585Y-123966927D01*
X149386522Y-123967864D01*
X149387305Y-123968942D01*
X149395773Y-123978857D01*
X149394992Y-123979523D01*
X149459898Y-124068858D01*
X149498474Y-124187583D01*
X149498474Y-124312417D01*
X149459898Y-124431142D01*
X149394992Y-124520476D01*
X149395773Y-124521143D01*
X149387305Y-124531057D01*
X149386522Y-124532136D01*
X149385585Y-124533072D01*
X149283768Y-124673210D01*
X149205127Y-124827554D01*
X149205124Y-124827563D01*
X149151599Y-124992292D01*
X149151598Y-124992299D01*
X149124500Y-125163389D01*
X149124500Y-125336611D01*
X149151598Y-125507701D01*
X149151599Y-125507707D01*
X149205124Y-125672436D01*
X149205127Y-125672445D01*
X149283768Y-125826788D01*
X149337540Y-125900799D01*
X149394214Y-126012028D01*
X149413742Y-126135325D01*
X149394213Y-126258623D01*
X149337540Y-126369852D01*
X149296882Y-126417456D01*
X149282686Y-126431651D01*
X149282682Y-126431657D01*
X149190643Y-126580874D01*
X149190640Y-126580882D01*
X149135494Y-126747301D01*
X149125002Y-126850000D01*
X151874996Y-126850000D01*
X151864506Y-126747306D01*
X151864503Y-126747295D01*
X151809360Y-126580884D01*
X151809356Y-126580874D01*
X151717318Y-126431658D01*
X151703121Y-126417461D01*
X151629745Y-126316467D01*
X151591169Y-126197742D01*
X151591169Y-126072908D01*
X151629745Y-125954183D01*
X151662461Y-125900797D01*
X151678507Y-125878712D01*
X151716232Y-125826788D01*
X151794873Y-125672445D01*
X151848402Y-125507701D01*
X151875500Y-125336611D01*
X151875500Y-125163389D01*
X151848402Y-124992299D01*
X151794873Y-124827555D01*
X151716232Y-124673212D01*
X151667203Y-124605730D01*
X151614414Y-124533072D01*
X151613478Y-124532136D01*
X151612694Y-124531057D01*
X151604227Y-124521143D01*
X151605007Y-124520476D01*
X151540102Y-124431142D01*
X151501526Y-124312417D01*
X151501526Y-124187583D01*
X151540102Y-124068858D01*
X151605007Y-123979523D01*
X151604227Y-123978857D01*
X151612694Y-123968942D01*
X151613478Y-123967864D01*
X151614414Y-123966928D01*
X151716232Y-123826788D01*
X151794873Y-123672445D01*
X151848402Y-123507701D01*
X151875500Y-123336611D01*
X151875500Y-123163389D01*
X156624500Y-123163389D01*
X156624500Y-123336611D01*
X156651598Y-123507701D01*
X156651599Y-123507707D01*
X156705124Y-123672436D01*
X156705127Y-123672445D01*
X156783768Y-123826789D01*
X156885585Y-123966927D01*
X156886522Y-123967864D01*
X156887305Y-123968942D01*
X156895773Y-123978857D01*
X156894992Y-123979523D01*
X156959898Y-124068858D01*
X156998474Y-124187583D01*
X156998474Y-124312417D01*
X156959898Y-124431142D01*
X156894992Y-124520476D01*
X156895773Y-124521143D01*
X156887305Y-124531057D01*
X156886522Y-124532136D01*
X156885585Y-124533072D01*
X156783768Y-124673210D01*
X156705127Y-124827554D01*
X156705124Y-124827563D01*
X156651599Y-124992292D01*
X156651598Y-124992299D01*
X156624500Y-125163389D01*
X156624500Y-125336611D01*
X156651598Y-125507701D01*
X156651599Y-125507707D01*
X156705124Y-125672436D01*
X156705127Y-125672445D01*
X156783768Y-125826788D01*
X156837540Y-125900799D01*
X156894214Y-126012028D01*
X156913742Y-126135325D01*
X156894213Y-126258623D01*
X156837540Y-126369852D01*
X156796882Y-126417456D01*
X156782686Y-126431651D01*
X156782682Y-126431657D01*
X156690643Y-126580874D01*
X156690640Y-126580882D01*
X156635494Y-126747301D01*
X156625002Y-126850000D01*
X159374996Y-126850000D01*
X159364506Y-126747306D01*
X159364503Y-126747295D01*
X159309360Y-126580884D01*
X159309356Y-126580874D01*
X159217318Y-126431658D01*
X159203121Y-126417461D01*
X159129745Y-126316467D01*
X159091169Y-126197742D01*
X159091169Y-126072908D01*
X159129745Y-125954183D01*
X159162461Y-125900797D01*
X159178507Y-125878712D01*
X159216232Y-125826788D01*
X159294873Y-125672445D01*
X159348402Y-125507701D01*
X159375500Y-125336611D01*
X159375500Y-125163389D01*
X159348402Y-124992299D01*
X159294873Y-124827555D01*
X159216232Y-124673212D01*
X159167203Y-124605730D01*
X159114414Y-124533072D01*
X159113478Y-124532136D01*
X159112694Y-124531057D01*
X159104227Y-124521143D01*
X159105007Y-124520476D01*
X159040102Y-124431142D01*
X159001526Y-124312417D01*
X159001526Y-124187583D01*
X159040102Y-124068858D01*
X159105007Y-123979523D01*
X159104227Y-123978857D01*
X159112694Y-123968942D01*
X159113478Y-123967864D01*
X159114414Y-123966928D01*
X159216232Y-123826788D01*
X159294873Y-123672445D01*
X159348402Y-123507701D01*
X159375500Y-123336611D01*
X159375500Y-123163389D01*
X164124500Y-123163389D01*
X164124500Y-123336611D01*
X164151598Y-123507701D01*
X164151599Y-123507707D01*
X164205124Y-123672436D01*
X164205127Y-123672445D01*
X164283768Y-123826789D01*
X164385585Y-123966927D01*
X164386522Y-123967864D01*
X164387305Y-123968942D01*
X164395773Y-123978857D01*
X164394992Y-123979523D01*
X164459898Y-124068858D01*
X164498474Y-124187583D01*
X164498474Y-124312417D01*
X164459898Y-124431142D01*
X164394992Y-124520476D01*
X164395773Y-124521143D01*
X164387305Y-124531057D01*
X164386522Y-124532136D01*
X164385585Y-124533072D01*
X164283768Y-124673210D01*
X164205127Y-124827554D01*
X164205124Y-124827563D01*
X164151599Y-124992292D01*
X164151598Y-124992299D01*
X164124500Y-125163389D01*
X164124500Y-125336611D01*
X164151598Y-125507701D01*
X164151599Y-125507707D01*
X164205124Y-125672436D01*
X164205127Y-125672445D01*
X164283768Y-125826788D01*
X164337540Y-125900799D01*
X164394214Y-126012028D01*
X164413742Y-126135325D01*
X164394213Y-126258623D01*
X164337540Y-126369852D01*
X164296882Y-126417456D01*
X164282686Y-126431651D01*
X164282682Y-126431657D01*
X164190643Y-126580874D01*
X164190640Y-126580882D01*
X164135494Y-126747301D01*
X164125002Y-126850000D01*
X166874996Y-126850000D01*
X166864506Y-126747306D01*
X166864503Y-126747295D01*
X166809360Y-126580884D01*
X166809356Y-126580874D01*
X166717318Y-126431658D01*
X166703121Y-126417461D01*
X166629745Y-126316467D01*
X166591169Y-126197742D01*
X166591169Y-126072908D01*
X166629745Y-125954183D01*
X166662461Y-125900797D01*
X166678507Y-125878712D01*
X166716232Y-125826788D01*
X166794873Y-125672445D01*
X166848402Y-125507701D01*
X166875500Y-125336611D01*
X166875500Y-125163389D01*
X166848402Y-124992299D01*
X166794873Y-124827555D01*
X166716232Y-124673212D01*
X166667203Y-124605730D01*
X166614414Y-124533072D01*
X166613478Y-124532136D01*
X166612694Y-124531057D01*
X166604227Y-124521143D01*
X166605007Y-124520476D01*
X166540102Y-124431142D01*
X166501526Y-124312417D01*
X166501526Y-124187583D01*
X166540102Y-124068858D01*
X166605007Y-123979523D01*
X166604227Y-123978857D01*
X166612694Y-123968942D01*
X166613478Y-123967864D01*
X166614414Y-123966928D01*
X166716232Y-123826788D01*
X166794873Y-123672445D01*
X166848402Y-123507701D01*
X166875500Y-123336611D01*
X166875500Y-123163389D01*
X171624500Y-123163389D01*
X171624500Y-123336611D01*
X171651598Y-123507701D01*
X171651599Y-123507707D01*
X171705124Y-123672436D01*
X171705127Y-123672445D01*
X171783768Y-123826789D01*
X171885585Y-123966927D01*
X171886522Y-123967864D01*
X171887305Y-123968942D01*
X171895773Y-123978857D01*
X171894992Y-123979523D01*
X171959898Y-124068858D01*
X171998474Y-124187583D01*
X171998474Y-124312417D01*
X171959898Y-124431142D01*
X171894992Y-124520476D01*
X171895773Y-124521143D01*
X171887305Y-124531057D01*
X171886522Y-124532136D01*
X171885585Y-124533072D01*
X171783768Y-124673210D01*
X171705127Y-124827554D01*
X171705124Y-124827563D01*
X171651599Y-124992292D01*
X171651598Y-124992299D01*
X171624500Y-125163389D01*
X171624500Y-125336611D01*
X171651598Y-125507701D01*
X171651599Y-125507707D01*
X171705124Y-125672436D01*
X171705127Y-125672445D01*
X171783768Y-125826788D01*
X171837540Y-125900799D01*
X171894214Y-126012028D01*
X171913742Y-126135325D01*
X171894213Y-126258623D01*
X171837540Y-126369852D01*
X171796882Y-126417456D01*
X171782686Y-126431651D01*
X171782682Y-126431657D01*
X171690643Y-126580874D01*
X171690640Y-126580882D01*
X171635494Y-126747301D01*
X171625002Y-126850000D01*
X174374996Y-126850000D01*
X174364506Y-126747306D01*
X174364503Y-126747295D01*
X174309360Y-126580884D01*
X174309356Y-126580874D01*
X174217318Y-126431658D01*
X174203121Y-126417461D01*
X174129745Y-126316467D01*
X174091169Y-126197742D01*
X174091169Y-126072908D01*
X174129745Y-125954183D01*
X174162461Y-125900797D01*
X174178507Y-125878712D01*
X186899500Y-125878712D01*
X186899500Y-126121288D01*
X186908708Y-126191232D01*
X186931161Y-126361789D01*
X186931162Y-126361791D01*
X186993943Y-126596093D01*
X186993946Y-126596100D01*
X187086776Y-126820212D01*
X187086777Y-126820215D01*
X187086779Y-126820218D01*
X187208064Y-127030290D01*
X187338771Y-127200630D01*
X187355735Y-127222738D01*
X187527262Y-127394265D01*
X187527266Y-127394268D01*
X187527267Y-127394269D01*
X187719709Y-127541935D01*
X187719711Y-127541936D01*
X187929788Y-127663224D01*
X188153900Y-127756054D01*
X188153903Y-127756054D01*
X188153906Y-127756056D01*
X188310107Y-127797910D01*
X188388208Y-127818837D01*
X188388210Y-127818838D01*
X188428294Y-127824115D01*
X188628712Y-127850500D01*
X188628717Y-127850500D01*
X188871283Y-127850500D01*
X188871288Y-127850500D01*
X189111789Y-127818838D01*
X189346100Y-127756054D01*
X189570212Y-127663224D01*
X189780289Y-127541936D01*
X189972738Y-127394265D01*
X190144265Y-127222738D01*
X190291936Y-127030289D01*
X190413224Y-126820212D01*
X190506054Y-126596100D01*
X190568838Y-126361789D01*
X190600500Y-126121288D01*
X190600500Y-125878712D01*
X190568838Y-125638211D01*
X190506054Y-125403900D01*
X190413224Y-125179788D01*
X190291936Y-124969711D01*
X190291935Y-124969709D01*
X190144269Y-124777267D01*
X190144268Y-124777266D01*
X190144265Y-124777262D01*
X189972738Y-124605735D01*
X189972733Y-124605731D01*
X189972732Y-124605730D01*
X189780290Y-124458064D01*
X189570218Y-124336779D01*
X189570215Y-124336777D01*
X189570212Y-124336776D01*
X189346100Y-124243946D01*
X189346093Y-124243943D01*
X189111791Y-124181162D01*
X189111789Y-124181161D01*
X188966753Y-124162067D01*
X188871288Y-124149500D01*
X188628712Y-124149500D01*
X188540268Y-124161143D01*
X188388210Y-124181161D01*
X188388208Y-124181162D01*
X188153906Y-124243943D01*
X187929781Y-124336779D01*
X187719709Y-124458064D01*
X187527267Y-124605730D01*
X187355730Y-124777267D01*
X187208064Y-124969709D01*
X187086779Y-125179781D01*
X186993943Y-125403906D01*
X186931162Y-125638208D01*
X186931161Y-125638210D01*
X186911143Y-125790268D01*
X186899500Y-125878712D01*
X174178507Y-125878712D01*
X174216232Y-125826788D01*
X174294873Y-125672445D01*
X174348402Y-125507701D01*
X174375500Y-125336611D01*
X174375500Y-125163389D01*
X174348402Y-124992299D01*
X174294873Y-124827555D01*
X174216232Y-124673212D01*
X174167203Y-124605730D01*
X174114414Y-124533072D01*
X174113478Y-124532136D01*
X174112694Y-124531057D01*
X174104227Y-124521143D01*
X174105007Y-124520476D01*
X174040102Y-124431142D01*
X174001526Y-124312417D01*
X174001526Y-124187583D01*
X174040102Y-124068858D01*
X174105007Y-123979523D01*
X174104227Y-123978857D01*
X174112694Y-123968942D01*
X174113478Y-123967864D01*
X174114414Y-123966928D01*
X174216232Y-123826788D01*
X174294873Y-123672445D01*
X174348402Y-123507701D01*
X174375500Y-123336611D01*
X174375500Y-123163389D01*
X174348402Y-122992299D01*
X174294873Y-122827555D01*
X174216232Y-122673212D01*
X174199368Y-122650001D01*
X174199367Y-122650000D01*
X178825003Y-122650000D01*
X178835493Y-122752693D01*
X178835496Y-122752704D01*
X178890639Y-122919115D01*
X178890643Y-122919125D01*
X178982681Y-123068341D01*
X179106658Y-123192318D01*
X179255874Y-123284356D01*
X179255882Y-123284359D01*
X179422301Y-123339505D01*
X179525022Y-123349999D01*
X179799999Y-123349998D01*
X179800000Y-123349998D01*
X179800000Y-122650001D01*
X180600000Y-122650001D01*
X180600000Y-123349998D01*
X180600001Y-123349999D01*
X180874969Y-123349999D01*
X180874984Y-123349998D01*
X180977696Y-123339505D01*
X180977701Y-123339504D01*
X181144115Y-123284360D01*
X181144125Y-123284356D01*
X181293341Y-123192318D01*
X181417318Y-123068341D01*
X181509356Y-122919125D01*
X181509359Y-122919117D01*
X181564505Y-122752698D01*
X181574998Y-122650000D01*
X180600001Y-122650000D01*
X180600000Y-122650001D01*
X179800000Y-122650001D01*
X179799999Y-122650000D01*
X178825003Y-122650000D01*
X174199367Y-122650000D01*
X174114414Y-122533072D01*
X173991927Y-122410585D01*
X173851789Y-122308768D01*
X173697445Y-122230127D01*
X173697436Y-122230124D01*
X173606665Y-122200630D01*
X179825000Y-122200630D01*
X179825000Y-122299370D01*
X179850556Y-122394745D01*
X179899925Y-122480255D01*
X179969745Y-122550075D01*
X180055255Y-122599444D01*
X180150630Y-122625000D01*
X180249370Y-122625000D01*
X180344745Y-122599444D01*
X180430255Y-122550075D01*
X180500075Y-122480255D01*
X180549444Y-122394745D01*
X180575000Y-122299370D01*
X180575000Y-122200630D01*
X180549444Y-122105255D01*
X180500075Y-122019745D01*
X180430255Y-121949925D01*
X180344745Y-121900556D01*
X180249370Y-121875000D01*
X180150630Y-121875000D01*
X180055255Y-121900556D01*
X179969745Y-121949925D01*
X179899925Y-122019745D01*
X179850556Y-122105255D01*
X179825000Y-122200630D01*
X173606665Y-122200630D01*
X173532707Y-122176599D01*
X173532701Y-122176598D01*
X173361611Y-122149500D01*
X172638389Y-122149500D01*
X172499144Y-122171554D01*
X172467292Y-122176599D01*
X172302563Y-122230124D01*
X172302554Y-122230127D01*
X172148210Y-122308768D01*
X172008072Y-122410585D01*
X171885585Y-122533072D01*
X171783768Y-122673210D01*
X171705127Y-122827554D01*
X171705124Y-122827563D01*
X171651599Y-122992292D01*
X171651598Y-122992299D01*
X171624500Y-123163389D01*
X166875500Y-123163389D01*
X166848402Y-122992299D01*
X166794873Y-122827555D01*
X166716232Y-122673212D01*
X166699368Y-122650001D01*
X166614414Y-122533072D01*
X166491927Y-122410585D01*
X166351789Y-122308768D01*
X166197445Y-122230127D01*
X166197436Y-122230124D01*
X166032707Y-122176599D01*
X166032701Y-122176598D01*
X165861611Y-122149500D01*
X165138389Y-122149500D01*
X164999144Y-122171554D01*
X164967292Y-122176599D01*
X164802563Y-122230124D01*
X164802554Y-122230127D01*
X164648210Y-122308768D01*
X164508072Y-122410585D01*
X164385585Y-122533072D01*
X164283768Y-122673210D01*
X164205127Y-122827554D01*
X164205124Y-122827563D01*
X164151599Y-122992292D01*
X164151598Y-122992299D01*
X164124500Y-123163389D01*
X159375500Y-123163389D01*
X159348402Y-122992299D01*
X159294873Y-122827555D01*
X159216232Y-122673212D01*
X159199368Y-122650001D01*
X159114414Y-122533072D01*
X158991927Y-122410585D01*
X158851789Y-122308768D01*
X158697445Y-122230127D01*
X158697436Y-122230124D01*
X158532707Y-122176599D01*
X158532701Y-122176598D01*
X158361611Y-122149500D01*
X157638389Y-122149500D01*
X157499144Y-122171554D01*
X157467292Y-122176599D01*
X157302563Y-122230124D01*
X157302554Y-122230127D01*
X157148210Y-122308768D01*
X157008072Y-122410585D01*
X156885585Y-122533072D01*
X156783768Y-122673210D01*
X156705127Y-122827554D01*
X156705124Y-122827563D01*
X156651599Y-122992292D01*
X156651598Y-122992299D01*
X156624500Y-123163389D01*
X151875500Y-123163389D01*
X151848402Y-122992299D01*
X151794873Y-122827555D01*
X151716232Y-122673212D01*
X151699368Y-122650001D01*
X151614414Y-122533072D01*
X151491927Y-122410585D01*
X151351789Y-122308768D01*
X151197445Y-122230127D01*
X151197436Y-122230124D01*
X151032707Y-122176599D01*
X151032701Y-122176598D01*
X150861611Y-122149500D01*
X150138389Y-122149500D01*
X149999144Y-122171554D01*
X149967292Y-122176599D01*
X149802563Y-122230124D01*
X149802554Y-122230127D01*
X149648210Y-122308768D01*
X149508072Y-122410585D01*
X149385585Y-122533072D01*
X149283768Y-122673210D01*
X149205127Y-122827554D01*
X149205124Y-122827563D01*
X149151599Y-122992292D01*
X149151598Y-122992299D01*
X149124500Y-123163389D01*
X144375500Y-123163389D01*
X144348402Y-122992299D01*
X144294873Y-122827555D01*
X144216232Y-122673212D01*
X144199368Y-122650001D01*
X144114414Y-122533072D01*
X143991927Y-122410585D01*
X143851789Y-122308768D01*
X143697445Y-122230127D01*
X143697436Y-122230124D01*
X143532707Y-122176599D01*
X143532701Y-122176598D01*
X143361611Y-122149500D01*
X142638389Y-122149500D01*
X142499144Y-122171554D01*
X142467292Y-122176599D01*
X142302563Y-122230124D01*
X142302554Y-122230127D01*
X142148210Y-122308768D01*
X142008072Y-122410585D01*
X141885585Y-122533072D01*
X141783768Y-122673210D01*
X141705127Y-122827554D01*
X141705124Y-122827563D01*
X141651599Y-122992292D01*
X141651598Y-122992299D01*
X141624500Y-123163389D01*
X136875500Y-123163389D01*
X136848402Y-122992299D01*
X136794873Y-122827555D01*
X136716232Y-122673212D01*
X136699368Y-122650001D01*
X136614414Y-122533072D01*
X136491927Y-122410585D01*
X136351789Y-122308768D01*
X136197445Y-122230127D01*
X136197436Y-122230124D01*
X136032707Y-122176599D01*
X136032701Y-122176598D01*
X135861611Y-122149500D01*
X135138389Y-122149500D01*
X134999144Y-122171554D01*
X134967292Y-122176599D01*
X134802563Y-122230124D01*
X134802554Y-122230127D01*
X134648210Y-122308768D01*
X134508072Y-122410585D01*
X134385585Y-122533072D01*
X134283768Y-122673210D01*
X134205127Y-122827554D01*
X134205124Y-122827563D01*
X134151599Y-122992292D01*
X134151598Y-122992299D01*
X134124500Y-123163389D01*
X118000500Y-123163389D01*
X118000500Y-118284994D01*
X122639451Y-118284994D01*
X122639451Y-118285005D01*
X122659615Y-118554090D01*
X122659617Y-118554105D01*
X122719664Y-118817190D01*
X122719667Y-118817199D01*
X122818256Y-119068397D01*
X122818258Y-119068401D01*
X122953179Y-119302093D01*
X122953182Y-119302098D01*
X122953185Y-119302102D01*
X123121439Y-119513085D01*
X123319259Y-119696635D01*
X123542226Y-119848651D01*
X123785359Y-119965738D01*
X124043228Y-120045280D01*
X124043235Y-120045281D01*
X124310060Y-120085499D01*
X124310068Y-120085499D01*
X124310071Y-120085500D01*
X124310073Y-120085500D01*
X124579927Y-120085500D01*
X124579929Y-120085500D01*
X124579931Y-120085499D01*
X124579939Y-120085499D01*
X124769752Y-120056888D01*
X124846772Y-120045280D01*
X125104641Y-119965738D01*
X125347775Y-119848651D01*
X125570741Y-119696635D01*
X125768561Y-119513085D01*
X125936815Y-119302102D01*
X126071743Y-119068398D01*
X126170334Y-118817195D01*
X126230383Y-118554103D01*
X126246465Y-118339504D01*
X126250549Y-118285005D01*
X126250549Y-118284994D01*
X126230384Y-118015909D01*
X126230383Y-118015907D01*
X126230383Y-118015897D01*
X126170334Y-117752805D01*
X126129986Y-117650000D01*
X134125003Y-117650000D01*
X134135493Y-117752693D01*
X134135496Y-117752704D01*
X134190639Y-117919115D01*
X134190643Y-117919125D01*
X134282681Y-118068341D01*
X134406658Y-118192318D01*
X134555874Y-118284356D01*
X134555882Y-118284359D01*
X134722301Y-118339505D01*
X134825022Y-118349999D01*
X135099999Y-118349998D01*
X135100000Y-118349998D01*
X135100000Y-117650001D01*
X135900000Y-117650001D01*
X135900000Y-118349998D01*
X135900001Y-118349999D01*
X136174969Y-118349999D01*
X136174984Y-118349998D01*
X136277696Y-118339505D01*
X136277701Y-118339504D01*
X136444115Y-118284360D01*
X136444125Y-118284356D01*
X136593341Y-118192318D01*
X136717318Y-118068341D01*
X136809356Y-117919125D01*
X136809359Y-117919117D01*
X136864505Y-117752698D01*
X136874998Y-117650000D01*
X141625003Y-117650000D01*
X141635493Y-117752693D01*
X141635496Y-117752704D01*
X141690639Y-117919115D01*
X141690643Y-117919125D01*
X141782681Y-118068341D01*
X141906658Y-118192318D01*
X142055874Y-118284356D01*
X142055882Y-118284359D01*
X142222301Y-118339505D01*
X142325022Y-118349999D01*
X142599999Y-118349998D01*
X142600000Y-118349998D01*
X142600000Y-117650001D01*
X143400000Y-117650001D01*
X143400000Y-118349998D01*
X143400001Y-118349999D01*
X143674969Y-118349999D01*
X143674984Y-118349998D01*
X143777696Y-118339505D01*
X143777701Y-118339504D01*
X143944115Y-118284360D01*
X143944125Y-118284356D01*
X144093341Y-118192318D01*
X144217318Y-118068341D01*
X144309356Y-117919125D01*
X144309359Y-117919117D01*
X144364505Y-117752698D01*
X144374998Y-117650000D01*
X149125003Y-117650000D01*
X149135493Y-117752693D01*
X149135496Y-117752704D01*
X149190639Y-117919115D01*
X149190643Y-117919125D01*
X149282681Y-118068341D01*
X149406658Y-118192318D01*
X149555874Y-118284356D01*
X149555882Y-118284359D01*
X149722301Y-118339505D01*
X149825022Y-118349999D01*
X150099999Y-118349998D01*
X150100000Y-118349998D01*
X150100000Y-117650001D01*
X150900000Y-117650001D01*
X150900000Y-118349998D01*
X150900001Y-118349999D01*
X151174969Y-118349999D01*
X151174984Y-118349998D01*
X151277696Y-118339505D01*
X151277701Y-118339504D01*
X151444115Y-118284360D01*
X151444125Y-118284356D01*
X151593341Y-118192318D01*
X151717318Y-118068341D01*
X151809356Y-117919125D01*
X151809359Y-117919117D01*
X151864505Y-117752698D01*
X151874998Y-117650000D01*
X156625003Y-117650000D01*
X156635493Y-117752693D01*
X156635496Y-117752704D01*
X156690639Y-117919115D01*
X156690643Y-117919125D01*
X156782681Y-118068341D01*
X156906658Y-118192318D01*
X157055874Y-118284356D01*
X157055882Y-118284359D01*
X157222301Y-118339505D01*
X157325022Y-118349999D01*
X157599999Y-118349998D01*
X157600000Y-118349998D01*
X157600000Y-117650001D01*
X158400000Y-117650001D01*
X158400000Y-118349998D01*
X158400001Y-118349999D01*
X158674969Y-118349999D01*
X158674984Y-118349998D01*
X158777696Y-118339505D01*
X158777701Y-118339504D01*
X158944115Y-118284360D01*
X158944125Y-118284356D01*
X159093341Y-118192318D01*
X159217318Y-118068341D01*
X159309356Y-117919125D01*
X159309359Y-117919117D01*
X159364505Y-117752698D01*
X159374998Y-117650000D01*
X164125003Y-117650000D01*
X164135493Y-117752693D01*
X164135496Y-117752704D01*
X164190639Y-117919115D01*
X164190643Y-117919125D01*
X164282681Y-118068341D01*
X164406658Y-118192318D01*
X164555874Y-118284356D01*
X164555882Y-118284359D01*
X164722301Y-118339505D01*
X164825022Y-118349999D01*
X165099999Y-118349998D01*
X165100000Y-118349998D01*
X165100000Y-117650001D01*
X165900000Y-117650001D01*
X165900000Y-118349998D01*
X165900001Y-118349999D01*
X166174969Y-118349999D01*
X166174984Y-118349998D01*
X166277696Y-118339505D01*
X166277701Y-118339504D01*
X166444115Y-118284360D01*
X166444125Y-118284356D01*
X166593341Y-118192318D01*
X166717318Y-118068341D01*
X166809356Y-117919125D01*
X166809359Y-117919117D01*
X166864505Y-117752698D01*
X166874998Y-117650000D01*
X171625003Y-117650000D01*
X171635493Y-117752693D01*
X171635496Y-117752704D01*
X171690639Y-117919115D01*
X171690643Y-117919125D01*
X171782681Y-118068341D01*
X171906658Y-118192318D01*
X172055874Y-118284356D01*
X172055882Y-118284359D01*
X172222301Y-118339505D01*
X172325022Y-118349999D01*
X172599999Y-118349998D01*
X172600000Y-118349998D01*
X172600000Y-117650001D01*
X173400000Y-117650001D01*
X173400000Y-118349998D01*
X173400001Y-118349999D01*
X173674969Y-118349999D01*
X173674984Y-118349998D01*
X173777696Y-118339505D01*
X173777701Y-118339504D01*
X173944115Y-118284360D01*
X173944125Y-118284356D01*
X174093341Y-118192318D01*
X174122270Y-118163389D01*
X178824500Y-118163389D01*
X178824500Y-118336611D01*
X178851598Y-118507701D01*
X178851599Y-118507707D01*
X178905124Y-118672436D01*
X178905127Y-118672445D01*
X178983768Y-118826789D01*
X179085585Y-118966927D01*
X179086522Y-118967864D01*
X179087305Y-118968942D01*
X179095773Y-118978857D01*
X179094992Y-118979523D01*
X179159898Y-119068858D01*
X179198474Y-119187583D01*
X179198474Y-119312417D01*
X179159898Y-119431142D01*
X179094992Y-119520476D01*
X179095773Y-119521143D01*
X179087305Y-119531057D01*
X179086522Y-119532136D01*
X179085585Y-119533072D01*
X178983768Y-119673210D01*
X178905127Y-119827554D01*
X178905124Y-119827563D01*
X178851599Y-119992292D01*
X178851598Y-119992299D01*
X178836837Y-120085500D01*
X178824500Y-120163391D01*
X178824500Y-120336608D01*
X178851599Y-120507707D01*
X178905124Y-120672436D01*
X178905127Y-120672445D01*
X178983768Y-120826788D01*
X179037540Y-120900799D01*
X179094214Y-121012028D01*
X179113742Y-121135325D01*
X179094213Y-121258623D01*
X179037540Y-121369852D01*
X178996882Y-121417456D01*
X178982686Y-121431651D01*
X178982682Y-121431657D01*
X178890643Y-121580874D01*
X178890640Y-121580882D01*
X178835494Y-121747301D01*
X178825002Y-121850000D01*
X181574996Y-121850000D01*
X181564506Y-121747306D01*
X181564503Y-121747295D01*
X181509360Y-121580884D01*
X181509356Y-121580874D01*
X181417318Y-121431658D01*
X181403121Y-121417461D01*
X181329745Y-121316467D01*
X181291169Y-121197742D01*
X181291169Y-121072908D01*
X181329745Y-120954183D01*
X181362461Y-120900797D01*
X181416232Y-120826788D01*
X181494873Y-120672445D01*
X181548402Y-120507701D01*
X181575500Y-120336611D01*
X181575500Y-120163389D01*
X181548402Y-119992299D01*
X181539771Y-119965737D01*
X181531588Y-119940553D01*
X181494873Y-119827555D01*
X181416232Y-119673212D01*
X181314414Y-119533072D01*
X181313478Y-119532136D01*
X181312694Y-119531057D01*
X181304227Y-119521143D01*
X181305007Y-119520476D01*
X181240102Y-119431142D01*
X181201526Y-119312417D01*
X181201526Y-119187583D01*
X181240102Y-119068858D01*
X181305007Y-118979523D01*
X181304227Y-118978857D01*
X181312694Y-118968942D01*
X181313478Y-118967864D01*
X181314414Y-118966928D01*
X181416232Y-118826788D01*
X181494873Y-118672445D01*
X181548402Y-118507701D01*
X181575500Y-118336611D01*
X181575500Y-118163389D01*
X181548402Y-117992299D01*
X181494873Y-117827555D01*
X181416232Y-117673212D01*
X181399368Y-117650001D01*
X181314414Y-117533072D01*
X181191927Y-117410585D01*
X181051789Y-117308768D01*
X180897445Y-117230127D01*
X180897436Y-117230124D01*
X180732707Y-117176599D01*
X180732701Y-117176598D01*
X180561611Y-117149500D01*
X179838389Y-117149500D01*
X179699144Y-117171554D01*
X179667292Y-117176599D01*
X179502563Y-117230124D01*
X179502554Y-117230127D01*
X179348210Y-117308768D01*
X179208072Y-117410585D01*
X179085585Y-117533072D01*
X178983768Y-117673210D01*
X178905127Y-117827554D01*
X178905124Y-117827563D01*
X178851599Y-117992292D01*
X178844676Y-118036002D01*
X178824500Y-118163389D01*
X174122270Y-118163389D01*
X174217318Y-118068341D01*
X174309356Y-117919125D01*
X174309359Y-117919117D01*
X174364505Y-117752698D01*
X174374998Y-117650000D01*
X173400001Y-117650000D01*
X173400000Y-117650001D01*
X172600000Y-117650001D01*
X172599999Y-117650000D01*
X171625003Y-117650000D01*
X166874998Y-117650000D01*
X165900001Y-117650000D01*
X165900000Y-117650001D01*
X165100000Y-117650001D01*
X165099999Y-117650000D01*
X164125003Y-117650000D01*
X159374998Y-117650000D01*
X158400001Y-117650000D01*
X158400000Y-117650001D01*
X157600000Y-117650001D01*
X157599999Y-117650000D01*
X156625003Y-117650000D01*
X151874998Y-117650000D01*
X150900001Y-117650000D01*
X150900000Y-117650001D01*
X150100000Y-117650001D01*
X150099999Y-117650000D01*
X149125003Y-117650000D01*
X144374998Y-117650000D01*
X143400001Y-117650000D01*
X143400000Y-117650001D01*
X142600000Y-117650001D01*
X142599999Y-117650000D01*
X141625003Y-117650000D01*
X136874998Y-117650000D01*
X135900001Y-117650000D01*
X135900000Y-117650001D01*
X135100000Y-117650001D01*
X135099999Y-117650000D01*
X134125003Y-117650000D01*
X126129986Y-117650000D01*
X126071743Y-117501602D01*
X126071741Y-117501598D01*
X125936820Y-117267906D01*
X125936818Y-117267903D01*
X125936815Y-117267898D01*
X125883170Y-117200630D01*
X135125000Y-117200630D01*
X135125000Y-117299370D01*
X135150556Y-117394745D01*
X135199925Y-117480255D01*
X135269745Y-117550075D01*
X135355255Y-117599444D01*
X135450630Y-117625000D01*
X135549370Y-117625000D01*
X135644745Y-117599444D01*
X135730255Y-117550075D01*
X135800075Y-117480255D01*
X135849444Y-117394745D01*
X135875000Y-117299370D01*
X135875000Y-117200630D01*
X142625000Y-117200630D01*
X142625000Y-117299370D01*
X142650556Y-117394745D01*
X142699925Y-117480255D01*
X142769745Y-117550075D01*
X142855255Y-117599444D01*
X142950630Y-117625000D01*
X143049370Y-117625000D01*
X143144745Y-117599444D01*
X143230255Y-117550075D01*
X143300075Y-117480255D01*
X143349444Y-117394745D01*
X143375000Y-117299370D01*
X143375000Y-117200630D01*
X150125000Y-117200630D01*
X150125000Y-117299370D01*
X150150556Y-117394745D01*
X150199925Y-117480255D01*
X150269745Y-117550075D01*
X150355255Y-117599444D01*
X150450630Y-117625000D01*
X150549370Y-117625000D01*
X150644745Y-117599444D01*
X150730255Y-117550075D01*
X150800075Y-117480255D01*
X150849444Y-117394745D01*
X150875000Y-117299370D01*
X150875000Y-117200630D01*
X157625000Y-117200630D01*
X157625000Y-117299370D01*
X157650556Y-117394745D01*
X157699925Y-117480255D01*
X157769745Y-117550075D01*
X157855255Y-117599444D01*
X157950630Y-117625000D01*
X158049370Y-117625000D01*
X158144745Y-117599444D01*
X158230255Y-117550075D01*
X158300075Y-117480255D01*
X158349444Y-117394745D01*
X158375000Y-117299370D01*
X158375000Y-117200630D01*
X165125000Y-117200630D01*
X165125000Y-117299370D01*
X165150556Y-117394745D01*
X165199925Y-117480255D01*
X165269745Y-117550075D01*
X165355255Y-117599444D01*
X165450630Y-117625000D01*
X165549370Y-117625000D01*
X165644745Y-117599444D01*
X165730255Y-117550075D01*
X165800075Y-117480255D01*
X165849444Y-117394745D01*
X165875000Y-117299370D01*
X165875000Y-117200630D01*
X172625000Y-117200630D01*
X172625000Y-117299370D01*
X172650556Y-117394745D01*
X172699925Y-117480255D01*
X172769745Y-117550075D01*
X172855255Y-117599444D01*
X172950630Y-117625000D01*
X173049370Y-117625000D01*
X173144745Y-117599444D01*
X173230255Y-117550075D01*
X173300075Y-117480255D01*
X173349444Y-117394745D01*
X173375000Y-117299370D01*
X173375000Y-117200630D01*
X173349444Y-117105255D01*
X173300075Y-117019745D01*
X173230255Y-116949925D01*
X173144745Y-116900556D01*
X173049370Y-116875000D01*
X172950630Y-116875000D01*
X172855255Y-116900556D01*
X172769745Y-116949925D01*
X172699925Y-117019745D01*
X172650556Y-117105255D01*
X172625000Y-117200630D01*
X165875000Y-117200630D01*
X165849444Y-117105255D01*
X165800075Y-117019745D01*
X165730255Y-116949925D01*
X165644745Y-116900556D01*
X165549370Y-116875000D01*
X165450630Y-116875000D01*
X165355255Y-116900556D01*
X165269745Y-116949925D01*
X165199925Y-117019745D01*
X165150556Y-117105255D01*
X165125000Y-117200630D01*
X158375000Y-117200630D01*
X158349444Y-117105255D01*
X158300075Y-117019745D01*
X158230255Y-116949925D01*
X158144745Y-116900556D01*
X158049370Y-116875000D01*
X157950630Y-116875000D01*
X157855255Y-116900556D01*
X157769745Y-116949925D01*
X157699925Y-117019745D01*
X157650556Y-117105255D01*
X157625000Y-117200630D01*
X150875000Y-117200630D01*
X150849444Y-117105255D01*
X150800075Y-117019745D01*
X150730255Y-116949925D01*
X150644745Y-116900556D01*
X150549370Y-116875000D01*
X150450630Y-116875000D01*
X150355255Y-116900556D01*
X150269745Y-116949925D01*
X150199925Y-117019745D01*
X150150556Y-117105255D01*
X150125000Y-117200630D01*
X143375000Y-117200630D01*
X143349444Y-117105255D01*
X143300075Y-117019745D01*
X143230255Y-116949925D01*
X143144745Y-116900556D01*
X143049370Y-116875000D01*
X142950630Y-116875000D01*
X142855255Y-116900556D01*
X142769745Y-116949925D01*
X142699925Y-117019745D01*
X142650556Y-117105255D01*
X142625000Y-117200630D01*
X135875000Y-117200630D01*
X135849444Y-117105255D01*
X135800075Y-117019745D01*
X135730255Y-116949925D01*
X135644745Y-116900556D01*
X135549370Y-116875000D01*
X135450630Y-116875000D01*
X135355255Y-116900556D01*
X135269745Y-116949925D01*
X135199925Y-117019745D01*
X135150556Y-117105255D01*
X135125000Y-117200630D01*
X125883170Y-117200630D01*
X125768561Y-117056915D01*
X125570741Y-116873365D01*
X125570739Y-116873363D01*
X125347775Y-116721348D01*
X125183669Y-116642319D01*
X125104641Y-116604262D01*
X124846772Y-116524720D01*
X124846764Y-116524718D01*
X124579939Y-116484500D01*
X124579929Y-116484500D01*
X124310071Y-116484500D01*
X124310060Y-116484500D01*
X124043235Y-116524718D01*
X124043226Y-116524720D01*
X123785361Y-116604261D01*
X123785359Y-116604262D01*
X123542226Y-116721349D01*
X123504154Y-116747306D01*
X123319259Y-116873365D01*
X123121437Y-117056917D01*
X122953187Y-117267895D01*
X122953179Y-117267906D01*
X122818258Y-117501598D01*
X122818256Y-117501602D01*
X122719667Y-117752800D01*
X122719664Y-117752809D01*
X122659617Y-118015894D01*
X122659615Y-118015909D01*
X122639451Y-118284994D01*
X118000500Y-118284994D01*
X118000500Y-111857169D01*
X122645000Y-111857169D01*
X122645000Y-112804999D01*
X122645001Y-112805000D01*
X123930523Y-112805000D01*
X123868978Y-112897110D01*
X123819979Y-113015402D01*
X123795000Y-113140981D01*
X123795000Y-113269019D01*
X123819979Y-113394598D01*
X123868978Y-113512890D01*
X123930523Y-113605000D01*
X122645001Y-113605000D01*
X122645000Y-113605001D01*
X122645000Y-114552830D01*
X122651401Y-114612373D01*
X122651402Y-114612377D01*
X122701647Y-114747090D01*
X122787807Y-114862184D01*
X122787815Y-114862192D01*
X122902909Y-114948352D01*
X123037622Y-114998597D01*
X123037626Y-114998598D01*
X123097169Y-115004999D01*
X123097175Y-115005000D01*
X124044999Y-115005000D01*
X124045000Y-115004999D01*
X124045000Y-113719476D01*
X124137110Y-113781022D01*
X124255402Y-113830021D01*
X124380981Y-113855000D01*
X124509019Y-113855000D01*
X124634598Y-113830021D01*
X124752890Y-113781022D01*
X124845000Y-113719476D01*
X124845000Y-115004999D01*
X124845001Y-115005000D01*
X125792825Y-115005000D01*
X125792830Y-115004999D01*
X125852373Y-114998598D01*
X125852377Y-114998597D01*
X125987090Y-114948352D01*
X126102184Y-114862192D01*
X126102192Y-114862184D01*
X126188352Y-114747090D01*
X126238597Y-114612377D01*
X126238598Y-114612373D01*
X126244999Y-114552830D01*
X126245000Y-114552825D01*
X126245000Y-113605001D01*
X126244999Y-113605000D01*
X124959477Y-113605000D01*
X125021022Y-113512890D01*
X125070021Y-113394598D01*
X125095000Y-113269019D01*
X125095000Y-113163389D01*
X134124500Y-113163389D01*
X134124500Y-113336611D01*
X134151598Y-113507701D01*
X134151599Y-113507707D01*
X134205124Y-113672436D01*
X134205127Y-113672445D01*
X134283768Y-113826789D01*
X134385585Y-113966927D01*
X134386522Y-113967864D01*
X134387305Y-113968942D01*
X134395773Y-113978857D01*
X134394992Y-113979523D01*
X134459898Y-114068858D01*
X134498474Y-114187583D01*
X134498474Y-114312417D01*
X134459898Y-114431142D01*
X134394992Y-114520476D01*
X134395773Y-114521143D01*
X134387305Y-114531057D01*
X134386522Y-114532136D01*
X134385585Y-114533072D01*
X134283768Y-114673210D01*
X134205127Y-114827554D01*
X134205124Y-114827563D01*
X134151599Y-114992292D01*
X134149586Y-115005000D01*
X134125790Y-115155249D01*
X134124500Y-115163391D01*
X134124500Y-115336608D01*
X134151599Y-115507707D01*
X134205124Y-115672436D01*
X134205127Y-115672445D01*
X134283768Y-115826788D01*
X134337540Y-115900799D01*
X134394214Y-116012028D01*
X134413742Y-116135325D01*
X134394213Y-116258623D01*
X134337540Y-116369852D01*
X134296882Y-116417456D01*
X134282686Y-116431651D01*
X134282682Y-116431657D01*
X134190643Y-116580874D01*
X134190640Y-116580882D01*
X134135494Y-116747301D01*
X134125002Y-116850000D01*
X136874996Y-116850000D01*
X136864506Y-116747306D01*
X136864503Y-116747295D01*
X136809360Y-116580884D01*
X136809356Y-116580874D01*
X136717318Y-116431658D01*
X136703121Y-116417461D01*
X136629745Y-116316467D01*
X136591169Y-116197742D01*
X136591169Y-116072908D01*
X136629745Y-115954183D01*
X136662461Y-115900797D01*
X136716232Y-115826788D01*
X136794873Y-115672445D01*
X136848402Y-115507701D01*
X136875500Y-115336611D01*
X136875500Y-115163389D01*
X136848402Y-114992299D01*
X136794873Y-114827555D01*
X136716232Y-114673212D01*
X136628765Y-114552825D01*
X136614414Y-114533072D01*
X136613478Y-114532136D01*
X136612694Y-114531057D01*
X136604227Y-114521143D01*
X136605007Y-114520476D01*
X136540102Y-114431142D01*
X136501526Y-114312417D01*
X136501526Y-114187583D01*
X136540102Y-114068858D01*
X136605007Y-113979523D01*
X136604227Y-113978857D01*
X136612694Y-113968942D01*
X136613478Y-113967864D01*
X136614414Y-113966928D01*
X136716232Y-113826788D01*
X136794873Y-113672445D01*
X136848402Y-113507701D01*
X136875500Y-113336611D01*
X136875500Y-113163389D01*
X141624500Y-113163389D01*
X141624500Y-113336611D01*
X141651598Y-113507701D01*
X141651599Y-113507707D01*
X141705124Y-113672436D01*
X141705127Y-113672445D01*
X141783768Y-113826789D01*
X141885585Y-113966927D01*
X141886522Y-113967864D01*
X141887305Y-113968942D01*
X141895773Y-113978857D01*
X141894992Y-113979523D01*
X141959898Y-114068858D01*
X141998474Y-114187583D01*
X141998474Y-114312417D01*
X141959898Y-114431142D01*
X141894992Y-114520476D01*
X141895773Y-114521143D01*
X141887305Y-114531057D01*
X141886522Y-114532136D01*
X141885585Y-114533072D01*
X141783768Y-114673210D01*
X141705127Y-114827554D01*
X141705124Y-114827563D01*
X141651599Y-114992292D01*
X141649586Y-115005000D01*
X141625790Y-115155249D01*
X141624500Y-115163391D01*
X141624500Y-115336608D01*
X141651599Y-115507707D01*
X141705124Y-115672436D01*
X141705127Y-115672445D01*
X141783768Y-115826788D01*
X141837540Y-115900799D01*
X141894214Y-116012028D01*
X141913742Y-116135325D01*
X141894213Y-116258623D01*
X141837540Y-116369852D01*
X141796882Y-116417456D01*
X141782686Y-116431651D01*
X141782682Y-116431657D01*
X141690643Y-116580874D01*
X141690640Y-116580882D01*
X141635494Y-116747301D01*
X141625002Y-116850000D01*
X144374996Y-116850000D01*
X144364506Y-116747306D01*
X144364503Y-116747295D01*
X144309360Y-116580884D01*
X144309356Y-116580874D01*
X144217318Y-116431658D01*
X144203121Y-116417461D01*
X144129745Y-116316467D01*
X144091169Y-116197742D01*
X144091169Y-116072908D01*
X144129745Y-115954183D01*
X144162461Y-115900797D01*
X144216232Y-115826788D01*
X144294873Y-115672445D01*
X144348402Y-115507701D01*
X144375500Y-115336611D01*
X144375500Y-115163389D01*
X144348402Y-114992299D01*
X144294873Y-114827555D01*
X144216232Y-114673212D01*
X144128765Y-114552825D01*
X144114414Y-114533072D01*
X144113478Y-114532136D01*
X144112694Y-114531057D01*
X144104227Y-114521143D01*
X144105007Y-114520476D01*
X144040102Y-114431142D01*
X144001526Y-114312417D01*
X144001526Y-114187583D01*
X144040102Y-114068858D01*
X144105007Y-113979523D01*
X144104227Y-113978857D01*
X144112694Y-113968942D01*
X144113478Y-113967864D01*
X144114414Y-113966928D01*
X144216232Y-113826788D01*
X144294873Y-113672445D01*
X144348402Y-113507701D01*
X144375500Y-113336611D01*
X144375500Y-113163389D01*
X149124500Y-113163389D01*
X149124500Y-113336611D01*
X149151598Y-113507701D01*
X149151599Y-113507707D01*
X149205124Y-113672436D01*
X149205127Y-113672445D01*
X149283768Y-113826789D01*
X149385585Y-113966927D01*
X149386522Y-113967864D01*
X149387305Y-113968942D01*
X149395773Y-113978857D01*
X149394992Y-113979523D01*
X149459898Y-114068858D01*
X149498474Y-114187583D01*
X149498474Y-114312417D01*
X149459898Y-114431142D01*
X149394992Y-114520476D01*
X149395773Y-114521143D01*
X149387305Y-114531057D01*
X149386522Y-114532136D01*
X149385585Y-114533072D01*
X149283768Y-114673210D01*
X149205127Y-114827554D01*
X149205124Y-114827563D01*
X149151599Y-114992292D01*
X149149586Y-115005000D01*
X149125790Y-115155249D01*
X149124500Y-115163391D01*
X149124500Y-115336608D01*
X149151599Y-115507707D01*
X149205124Y-115672436D01*
X149205127Y-115672445D01*
X149283768Y-115826788D01*
X149337540Y-115900799D01*
X149394214Y-116012028D01*
X149413742Y-116135325D01*
X149394213Y-116258623D01*
X149337540Y-116369852D01*
X149296882Y-116417456D01*
X149282686Y-116431651D01*
X149282682Y-116431657D01*
X149190643Y-116580874D01*
X149190640Y-116580882D01*
X149135494Y-116747301D01*
X149125002Y-116850000D01*
X151874996Y-116850000D01*
X151864506Y-116747306D01*
X151864503Y-116747295D01*
X151809360Y-116580884D01*
X151809356Y-116580874D01*
X151717318Y-116431658D01*
X151703121Y-116417461D01*
X151629745Y-116316467D01*
X151591169Y-116197742D01*
X151591169Y-116072908D01*
X151629745Y-115954183D01*
X151662461Y-115900797D01*
X151716232Y-115826788D01*
X151794873Y-115672445D01*
X151848402Y-115507701D01*
X151875500Y-115336611D01*
X151875500Y-115163389D01*
X151848402Y-114992299D01*
X151794873Y-114827555D01*
X151716232Y-114673212D01*
X151628765Y-114552825D01*
X151614414Y-114533072D01*
X151613478Y-114532136D01*
X151612694Y-114531057D01*
X151604227Y-114521143D01*
X151605007Y-114520476D01*
X151540102Y-114431142D01*
X151501526Y-114312417D01*
X151501526Y-114187583D01*
X151540102Y-114068858D01*
X151605007Y-113979523D01*
X151604227Y-113978857D01*
X151612694Y-113968942D01*
X151613478Y-113967864D01*
X151614414Y-113966928D01*
X151716232Y-113826788D01*
X151794873Y-113672445D01*
X151848402Y-113507701D01*
X151875500Y-113336611D01*
X151875500Y-113163389D01*
X156624500Y-113163389D01*
X156624500Y-113336611D01*
X156651598Y-113507701D01*
X156651599Y-113507707D01*
X156705124Y-113672436D01*
X156705127Y-113672445D01*
X156783768Y-113826789D01*
X156885585Y-113966927D01*
X156886522Y-113967864D01*
X156887305Y-113968942D01*
X156895773Y-113978857D01*
X156894992Y-113979523D01*
X156959898Y-114068858D01*
X156998474Y-114187583D01*
X156998474Y-114312417D01*
X156959898Y-114431142D01*
X156894992Y-114520476D01*
X156895773Y-114521143D01*
X156887305Y-114531057D01*
X156886522Y-114532136D01*
X156885585Y-114533072D01*
X156783768Y-114673210D01*
X156705127Y-114827554D01*
X156705124Y-114827563D01*
X156651599Y-114992292D01*
X156649586Y-115005000D01*
X156625790Y-115155249D01*
X156624500Y-115163391D01*
X156624500Y-115336608D01*
X156651599Y-115507707D01*
X156705124Y-115672436D01*
X156705127Y-115672445D01*
X156783768Y-115826788D01*
X156837540Y-115900799D01*
X156894214Y-116012028D01*
X156913742Y-116135325D01*
X156894213Y-116258623D01*
X156837540Y-116369852D01*
X156796882Y-116417456D01*
X156782686Y-116431651D01*
X156782682Y-116431657D01*
X156690643Y-116580874D01*
X156690640Y-116580882D01*
X156635494Y-116747301D01*
X156625002Y-116850000D01*
X159374996Y-116850000D01*
X159364506Y-116747306D01*
X159364503Y-116747295D01*
X159309360Y-116580884D01*
X159309356Y-116580874D01*
X159217318Y-116431658D01*
X159203121Y-116417461D01*
X159129745Y-116316467D01*
X159091169Y-116197742D01*
X159091169Y-116072908D01*
X159129745Y-115954183D01*
X159162461Y-115900797D01*
X159216232Y-115826788D01*
X159294873Y-115672445D01*
X159348402Y-115507701D01*
X159375500Y-115336611D01*
X159375500Y-115163389D01*
X159348402Y-114992299D01*
X159294873Y-114827555D01*
X159216232Y-114673212D01*
X159128765Y-114552825D01*
X159114414Y-114533072D01*
X159113478Y-114532136D01*
X159112694Y-114531057D01*
X159104227Y-114521143D01*
X159105007Y-114520476D01*
X159040102Y-114431142D01*
X159001526Y-114312417D01*
X159001526Y-114187583D01*
X159040102Y-114068858D01*
X159105007Y-113979523D01*
X159104227Y-113978857D01*
X159112694Y-113968942D01*
X159113478Y-113967864D01*
X159114414Y-113966928D01*
X159216232Y-113826788D01*
X159294873Y-113672445D01*
X159348402Y-113507701D01*
X159375500Y-113336611D01*
X159375500Y-113163389D01*
X164124500Y-113163389D01*
X164124500Y-113336611D01*
X164151598Y-113507701D01*
X164151599Y-113507707D01*
X164205124Y-113672436D01*
X164205127Y-113672445D01*
X164283768Y-113826789D01*
X164385585Y-113966927D01*
X164386522Y-113967864D01*
X164387305Y-113968942D01*
X164395773Y-113978857D01*
X164394992Y-113979523D01*
X164459898Y-114068858D01*
X164498474Y-114187583D01*
X164498474Y-114312417D01*
X164459898Y-114431142D01*
X164394992Y-114520476D01*
X164395773Y-114521143D01*
X164387305Y-114531057D01*
X164386522Y-114532136D01*
X164385585Y-114533072D01*
X164283768Y-114673210D01*
X164205127Y-114827554D01*
X164205124Y-114827563D01*
X164151599Y-114992292D01*
X164149586Y-115005000D01*
X164125790Y-115155249D01*
X164124500Y-115163391D01*
X164124500Y-115336608D01*
X164151599Y-115507707D01*
X164205124Y-115672436D01*
X164205127Y-115672445D01*
X164283768Y-115826788D01*
X164337540Y-115900799D01*
X164394214Y-116012028D01*
X164413742Y-116135325D01*
X164394213Y-116258623D01*
X164337540Y-116369852D01*
X164296882Y-116417456D01*
X164282686Y-116431651D01*
X164282682Y-116431657D01*
X164190643Y-116580874D01*
X164190640Y-116580882D01*
X164135494Y-116747301D01*
X164125002Y-116850000D01*
X166874996Y-116850000D01*
X166864506Y-116747306D01*
X166864503Y-116747295D01*
X166809360Y-116580884D01*
X166809356Y-116580874D01*
X166717318Y-116431658D01*
X166703121Y-116417461D01*
X166629745Y-116316467D01*
X166591169Y-116197742D01*
X166591169Y-116072908D01*
X166629745Y-115954183D01*
X166662461Y-115900797D01*
X166716232Y-115826788D01*
X166794873Y-115672445D01*
X166848402Y-115507701D01*
X166875500Y-115336611D01*
X166875500Y-115163389D01*
X166848402Y-114992299D01*
X166794873Y-114827555D01*
X166716232Y-114673212D01*
X166628765Y-114552825D01*
X166614414Y-114533072D01*
X166613478Y-114532136D01*
X166612694Y-114531057D01*
X166604227Y-114521143D01*
X166605007Y-114520476D01*
X166540102Y-114431142D01*
X166501526Y-114312417D01*
X166501526Y-114187583D01*
X166540102Y-114068858D01*
X166605007Y-113979523D01*
X166604227Y-113978857D01*
X166612694Y-113968942D01*
X166613478Y-113967864D01*
X166614414Y-113966928D01*
X166716232Y-113826788D01*
X166794873Y-113672445D01*
X166848402Y-113507701D01*
X166875500Y-113336611D01*
X166875500Y-113163389D01*
X171624500Y-113163389D01*
X171624500Y-113336611D01*
X171651598Y-113507701D01*
X171651599Y-113507707D01*
X171705124Y-113672436D01*
X171705127Y-113672445D01*
X171783768Y-113826789D01*
X171885585Y-113966927D01*
X171886522Y-113967864D01*
X171887305Y-113968942D01*
X171895773Y-113978857D01*
X171894992Y-113979523D01*
X171959898Y-114068858D01*
X171998474Y-114187583D01*
X171998474Y-114312417D01*
X171959898Y-114431142D01*
X171894992Y-114520476D01*
X171895773Y-114521143D01*
X171887305Y-114531057D01*
X171886522Y-114532136D01*
X171885585Y-114533072D01*
X171783768Y-114673210D01*
X171705127Y-114827554D01*
X171705124Y-114827563D01*
X171651599Y-114992292D01*
X171649586Y-115005000D01*
X171625790Y-115155249D01*
X171624500Y-115163391D01*
X171624500Y-115336608D01*
X171651599Y-115507707D01*
X171705124Y-115672436D01*
X171705127Y-115672445D01*
X171783768Y-115826788D01*
X171837540Y-115900799D01*
X171894214Y-116012028D01*
X171913742Y-116135325D01*
X171894213Y-116258623D01*
X171837540Y-116369852D01*
X171796882Y-116417456D01*
X171782686Y-116431651D01*
X171782682Y-116431657D01*
X171690643Y-116580874D01*
X171690640Y-116580882D01*
X171635494Y-116747301D01*
X171625002Y-116850000D01*
X174374996Y-116850000D01*
X174364506Y-116747306D01*
X174364503Y-116747295D01*
X174309360Y-116580884D01*
X174309356Y-116580874D01*
X174217318Y-116431658D01*
X174203121Y-116417461D01*
X174129745Y-116316467D01*
X174091169Y-116197742D01*
X174091169Y-116072908D01*
X174129745Y-115954183D01*
X174162461Y-115900797D01*
X174216232Y-115826788D01*
X174294873Y-115672445D01*
X174348402Y-115507701D01*
X174375500Y-115336611D01*
X174375500Y-115163389D01*
X174348402Y-114992299D01*
X174294873Y-114827555D01*
X174216232Y-114673212D01*
X174128765Y-114552825D01*
X174114414Y-114533072D01*
X174113478Y-114532136D01*
X174112694Y-114531057D01*
X174104227Y-114521143D01*
X174105007Y-114520476D01*
X174040102Y-114431142D01*
X174029983Y-114400000D01*
X182644751Y-114400000D01*
X182663687Y-114568059D01*
X182719544Y-114727690D01*
X182809523Y-114870890D01*
X182929110Y-114990477D01*
X183072310Y-115080456D01*
X183231941Y-115136313D01*
X183400000Y-115155249D01*
X183568059Y-115136313D01*
X183727690Y-115080456D01*
X183870890Y-114990477D01*
X183990477Y-114870890D01*
X184080456Y-114727690D01*
X184136313Y-114568059D01*
X184155249Y-114400000D01*
X184136313Y-114231941D01*
X184080456Y-114072310D01*
X183990477Y-113929110D01*
X183870890Y-113809523D01*
X183727690Y-113719544D01*
X183727689Y-113719543D01*
X183727688Y-113719543D01*
X183653979Y-113693751D01*
X183568059Y-113663687D01*
X183400000Y-113644751D01*
X183231941Y-113663687D01*
X183072311Y-113719543D01*
X182929111Y-113809522D01*
X182809522Y-113929111D01*
X182719543Y-114072311D01*
X182663687Y-114231941D01*
X182655031Y-114308768D01*
X182644751Y-114400000D01*
X174029983Y-114400000D01*
X174001526Y-114312417D01*
X174001526Y-114187583D01*
X174040102Y-114068858D01*
X174105007Y-113979523D01*
X174104227Y-113978857D01*
X174112694Y-113968942D01*
X174113478Y-113967864D01*
X174114414Y-113966928D01*
X174216232Y-113826788D01*
X174294873Y-113672445D01*
X174348402Y-113507701D01*
X174375500Y-113336611D01*
X174375500Y-113163389D01*
X174348402Y-112992299D01*
X174294873Y-112827555D01*
X174216232Y-112673212D01*
X174114414Y-112533072D01*
X173991928Y-112410586D01*
X173991927Y-112410585D01*
X173851789Y-112308768D01*
X173697445Y-112230127D01*
X173697436Y-112230124D01*
X173532707Y-112176599D01*
X173532701Y-112176598D01*
X173361611Y-112149500D01*
X172638389Y-112149500D01*
X172499144Y-112171554D01*
X172467292Y-112176599D01*
X172302563Y-112230124D01*
X172302554Y-112230127D01*
X172148210Y-112308768D01*
X172008072Y-112410585D01*
X171885585Y-112533072D01*
X171783768Y-112673210D01*
X171705127Y-112827554D01*
X171705124Y-112827563D01*
X171651599Y-112992292D01*
X171651598Y-112992299D01*
X171624500Y-113163389D01*
X166875500Y-113163389D01*
X166848402Y-112992299D01*
X166794873Y-112827555D01*
X166716232Y-112673212D01*
X166614414Y-112533072D01*
X166491928Y-112410586D01*
X166491927Y-112410585D01*
X166351789Y-112308768D01*
X166197445Y-112230127D01*
X166197436Y-112230124D01*
X166032707Y-112176599D01*
X166032701Y-112176598D01*
X165861611Y-112149500D01*
X165138389Y-112149500D01*
X164999144Y-112171554D01*
X164967292Y-112176599D01*
X164802563Y-112230124D01*
X164802554Y-112230127D01*
X164648210Y-112308768D01*
X164508072Y-112410585D01*
X164385585Y-112533072D01*
X164283768Y-112673210D01*
X164205127Y-112827554D01*
X164205124Y-112827563D01*
X164151599Y-112992292D01*
X164151598Y-112992299D01*
X164124500Y-113163389D01*
X159375500Y-113163389D01*
X159348402Y-112992299D01*
X159294873Y-112827555D01*
X159216232Y-112673212D01*
X159114414Y-112533072D01*
X158991928Y-112410586D01*
X158991927Y-112410585D01*
X158851789Y-112308768D01*
X158697445Y-112230127D01*
X158697436Y-112230124D01*
X158532707Y-112176599D01*
X158532701Y-112176598D01*
X158361611Y-112149500D01*
X157638389Y-112149500D01*
X157499144Y-112171554D01*
X157467292Y-112176599D01*
X157302563Y-112230124D01*
X157302554Y-112230127D01*
X157148210Y-112308768D01*
X157008072Y-112410585D01*
X156885585Y-112533072D01*
X156783768Y-112673210D01*
X156705127Y-112827554D01*
X156705124Y-112827563D01*
X156651599Y-112992292D01*
X156651598Y-112992299D01*
X156624500Y-113163389D01*
X151875500Y-113163389D01*
X151848402Y-112992299D01*
X151794873Y-112827555D01*
X151716232Y-112673212D01*
X151614414Y-112533072D01*
X151491928Y-112410586D01*
X151491927Y-112410585D01*
X151351789Y-112308768D01*
X151197445Y-112230127D01*
X151197436Y-112230124D01*
X151032707Y-112176599D01*
X151032701Y-112176598D01*
X150861611Y-112149500D01*
X150138389Y-112149500D01*
X149999144Y-112171554D01*
X149967292Y-112176599D01*
X149802563Y-112230124D01*
X149802554Y-112230127D01*
X149648210Y-112308768D01*
X149508072Y-112410585D01*
X149385585Y-112533072D01*
X149283768Y-112673210D01*
X149205127Y-112827554D01*
X149205124Y-112827563D01*
X149151599Y-112992292D01*
X149151598Y-112992299D01*
X149124500Y-113163389D01*
X144375500Y-113163389D01*
X144348402Y-112992299D01*
X144294873Y-112827555D01*
X144216232Y-112673212D01*
X144114414Y-112533072D01*
X143991928Y-112410586D01*
X143991927Y-112410585D01*
X143851789Y-112308768D01*
X143697445Y-112230127D01*
X143697436Y-112230124D01*
X143532707Y-112176599D01*
X143532701Y-112176598D01*
X143361611Y-112149500D01*
X142638389Y-112149500D01*
X142499144Y-112171554D01*
X142467292Y-112176599D01*
X142302563Y-112230124D01*
X142302554Y-112230127D01*
X142148210Y-112308768D01*
X142008072Y-112410585D01*
X141885585Y-112533072D01*
X141783768Y-112673210D01*
X141705127Y-112827554D01*
X141705124Y-112827563D01*
X141651599Y-112992292D01*
X141651598Y-112992299D01*
X141624500Y-113163389D01*
X136875500Y-113163389D01*
X136848402Y-112992299D01*
X136794873Y-112827555D01*
X136716232Y-112673212D01*
X136614414Y-112533072D01*
X136491928Y-112410586D01*
X136491927Y-112410585D01*
X136351789Y-112308768D01*
X136197445Y-112230127D01*
X136197436Y-112230124D01*
X136032707Y-112176599D01*
X136032701Y-112176598D01*
X135861611Y-112149500D01*
X135138389Y-112149500D01*
X134999144Y-112171554D01*
X134967292Y-112176599D01*
X134802563Y-112230124D01*
X134802554Y-112230127D01*
X134648210Y-112308768D01*
X134508072Y-112410585D01*
X134385585Y-112533072D01*
X134283768Y-112673210D01*
X134205127Y-112827554D01*
X134205124Y-112827563D01*
X134151599Y-112992292D01*
X134151598Y-112992299D01*
X134124500Y-113163389D01*
X125095000Y-113163389D01*
X125095000Y-113140981D01*
X125070021Y-113015402D01*
X125021022Y-112897110D01*
X124959477Y-112805000D01*
X126244999Y-112805000D01*
X126245000Y-112804999D01*
X126245000Y-111857175D01*
X126244999Y-111857169D01*
X126238598Y-111797626D01*
X126238597Y-111797622D01*
X126188352Y-111662909D01*
X126102192Y-111547815D01*
X126102184Y-111547807D01*
X125987090Y-111461647D01*
X125852377Y-111411402D01*
X125852373Y-111411401D01*
X125792830Y-111405000D01*
X124845001Y-111405000D01*
X124845000Y-111405001D01*
X124845000Y-112690523D01*
X124752890Y-112628978D01*
X124634598Y-112579979D01*
X124509019Y-112555000D01*
X124380981Y-112555000D01*
X124255402Y-112579979D01*
X124137110Y-112628978D01*
X124045000Y-112690523D01*
X124045000Y-111405001D01*
X124044999Y-111405000D01*
X123097169Y-111405000D01*
X123037626Y-111411401D01*
X123037622Y-111411402D01*
X122902909Y-111461647D01*
X122787815Y-111547807D01*
X122787807Y-111547815D01*
X122701647Y-111662909D01*
X122651402Y-111797622D01*
X122651401Y-111797626D01*
X122645000Y-111857169D01*
X118000500Y-111857169D01*
X118000500Y-108799999D01*
X182894435Y-108799999D01*
X182894435Y-108800000D01*
X182914631Y-108979251D01*
X182914631Y-108979253D01*
X182914632Y-108979255D01*
X182974211Y-109149522D01*
X183070184Y-109302262D01*
X183197738Y-109429816D01*
X183350478Y-109525789D01*
X183520745Y-109585368D01*
X183655186Y-109600515D01*
X183699999Y-109605565D01*
X183700000Y-109605565D01*
X183700001Y-109605565D01*
X183735851Y-109601525D01*
X183879255Y-109585368D01*
X184049522Y-109525789D01*
X184202262Y-109429816D01*
X184329816Y-109302262D01*
X184425789Y-109149522D01*
X184485368Y-108979255D01*
X184505565Y-108800000D01*
X184485368Y-108620745D01*
X184425789Y-108450478D01*
X184329816Y-108297738D01*
X184202262Y-108170184D01*
X184049522Y-108074211D01*
X183879255Y-108014632D01*
X183879253Y-108014631D01*
X183879251Y-108014631D01*
X183700001Y-107994435D01*
X183699999Y-107994435D01*
X183520748Y-108014631D01*
X183520745Y-108014632D01*
X183350478Y-108074211D01*
X183197739Y-108170183D01*
X183070183Y-108297739D01*
X182974211Y-108450478D01*
X182914632Y-108620745D01*
X182914631Y-108620748D01*
X182894435Y-108799999D01*
X118000500Y-108799999D01*
X118000500Y-107899000D01*
X118020028Y-107775702D01*
X118076702Y-107664474D01*
X118164974Y-107576202D01*
X118276202Y-107519528D01*
X118399500Y-107500000D01*
X119180410Y-107500000D01*
X119303708Y-107519528D01*
X119414936Y-107576202D01*
X119503208Y-107664474D01*
X119552467Y-107754866D01*
X119558847Y-107771335D01*
X119558848Y-107771337D01*
X119558849Y-107771340D01*
X119654219Y-107962870D01*
X119654220Y-107962871D01*
X119654223Y-107962875D01*
X119783157Y-108133612D01*
X119783160Y-108133616D01*
X119941275Y-108277756D01*
X119941277Y-108277758D01*
X120123186Y-108390391D01*
X120123188Y-108390391D01*
X120123190Y-108390393D01*
X120322703Y-108467685D01*
X120322705Y-108467685D01*
X120322707Y-108467686D01*
X120427861Y-108487342D01*
X120533017Y-108506999D01*
X120533019Y-108507000D01*
X120533020Y-108507000D01*
X120746981Y-108507000D01*
X120746981Y-108506999D01*
X120957297Y-108467685D01*
X121156810Y-108390393D01*
X121338722Y-108277758D01*
X121417781Y-108205686D01*
X121496839Y-108133616D01*
X121496839Y-108133615D01*
X121496841Y-108133614D01*
X121591593Y-108008141D01*
X121681478Y-107921519D01*
X121793735Y-107866910D01*
X121917372Y-107849663D01*
X122040288Y-107871466D01*
X122150451Y-107930186D01*
X122228406Y-108008141D01*
X122233308Y-108014632D01*
X122323159Y-108133614D01*
X122323160Y-108133616D01*
X122481275Y-108277756D01*
X122481277Y-108277758D01*
X122663186Y-108390391D01*
X122663188Y-108390391D01*
X122663190Y-108390393D01*
X122862703Y-108467685D01*
X122862705Y-108467685D01*
X122862707Y-108467686D01*
X122967861Y-108487342D01*
X123073017Y-108506999D01*
X123073019Y-108507000D01*
X123073020Y-108507000D01*
X123286981Y-108507000D01*
X123286981Y-108506999D01*
X123497297Y-108467685D01*
X123696810Y-108390393D01*
X123878722Y-108277758D01*
X123957781Y-108205686D01*
X124036839Y-108133616D01*
X124036839Y-108133615D01*
X124036841Y-108133614D01*
X124131593Y-108008141D01*
X124221478Y-107921519D01*
X124333735Y-107866910D01*
X124457372Y-107849663D01*
X124580288Y-107871466D01*
X124690451Y-107930186D01*
X124768406Y-108008141D01*
X124773308Y-108014632D01*
X124863159Y-108133614D01*
X124863160Y-108133616D01*
X125021275Y-108277756D01*
X125021277Y-108277758D01*
X125203186Y-108390391D01*
X125203188Y-108390391D01*
X125203190Y-108390393D01*
X125402703Y-108467685D01*
X125402705Y-108467685D01*
X125402707Y-108467686D01*
X125507861Y-108487342D01*
X125613017Y-108506999D01*
X125613019Y-108507000D01*
X125613020Y-108507000D01*
X125826981Y-108507000D01*
X125826981Y-108506999D01*
X126037297Y-108467685D01*
X126236810Y-108390393D01*
X126418722Y-108277758D01*
X126497781Y-108205686D01*
X126576839Y-108133616D01*
X126576839Y-108133615D01*
X126576841Y-108133614D01*
X126671593Y-108008141D01*
X126761478Y-107921519D01*
X126873735Y-107866910D01*
X126997372Y-107849663D01*
X127120288Y-107871466D01*
X127230451Y-107930186D01*
X127308406Y-108008141D01*
X127313308Y-108014632D01*
X127403159Y-108133614D01*
X127403160Y-108133616D01*
X127561275Y-108277756D01*
X127561277Y-108277758D01*
X127743186Y-108390391D01*
X127743188Y-108390391D01*
X127743190Y-108390393D01*
X127942703Y-108467685D01*
X127942705Y-108467685D01*
X127942707Y-108467686D01*
X128047861Y-108487342D01*
X128153017Y-108506999D01*
X128153019Y-108507000D01*
X128153020Y-108507000D01*
X128366981Y-108507000D01*
X128366981Y-108506999D01*
X128577297Y-108467685D01*
X128776810Y-108390393D01*
X128958722Y-108277758D01*
X129037781Y-108205686D01*
X129116839Y-108133616D01*
X129116839Y-108133615D01*
X129116841Y-108133614D01*
X129211593Y-108008141D01*
X129301478Y-107921519D01*
X129413735Y-107866910D01*
X129537372Y-107849663D01*
X129660288Y-107871466D01*
X129770451Y-107930186D01*
X129848406Y-108008141D01*
X129853308Y-108014632D01*
X129943159Y-108133614D01*
X129943160Y-108133616D01*
X130101275Y-108277756D01*
X130101277Y-108277758D01*
X130283186Y-108390391D01*
X130283188Y-108390391D01*
X130283190Y-108390393D01*
X130482703Y-108467685D01*
X130482705Y-108467685D01*
X130482707Y-108467686D01*
X130587861Y-108487342D01*
X130693017Y-108506999D01*
X130693019Y-108507000D01*
X130693020Y-108507000D01*
X130906981Y-108507000D01*
X130906981Y-108506999D01*
X131117297Y-108467685D01*
X131316810Y-108390393D01*
X131498722Y-108277758D01*
X131577781Y-108205686D01*
X131656839Y-108133616D01*
X131656839Y-108133615D01*
X131656841Y-108133614D01*
X131751593Y-108008141D01*
X131841478Y-107921519D01*
X131953735Y-107866910D01*
X132077372Y-107849663D01*
X132200288Y-107871466D01*
X132310451Y-107930186D01*
X132388406Y-108008141D01*
X132393308Y-108014632D01*
X132483159Y-108133614D01*
X132483160Y-108133616D01*
X132641275Y-108277756D01*
X132641277Y-108277758D01*
X132823186Y-108390391D01*
X132823188Y-108390391D01*
X132823190Y-108390393D01*
X133022703Y-108467685D01*
X133022705Y-108467685D01*
X133022707Y-108467686D01*
X133127861Y-108487342D01*
X133233017Y-108506999D01*
X133233019Y-108507000D01*
X133233020Y-108507000D01*
X133446981Y-108507000D01*
X133446981Y-108506999D01*
X133657297Y-108467685D01*
X133856810Y-108390393D01*
X134038722Y-108277758D01*
X134117781Y-108205686D01*
X134196839Y-108133616D01*
X134196839Y-108133615D01*
X134196841Y-108133614D01*
X134291593Y-108008141D01*
X134381478Y-107921519D01*
X134493735Y-107866910D01*
X134617372Y-107849663D01*
X134740288Y-107871466D01*
X134850451Y-107930186D01*
X134928406Y-108008141D01*
X134933308Y-108014632D01*
X135023159Y-108133614D01*
X135023160Y-108133616D01*
X135181275Y-108277756D01*
X135181277Y-108277758D01*
X135363186Y-108390391D01*
X135363188Y-108390391D01*
X135363190Y-108390393D01*
X135562703Y-108467685D01*
X135562705Y-108467685D01*
X135562707Y-108467686D01*
X135667861Y-108487342D01*
X135773017Y-108506999D01*
X135773019Y-108507000D01*
X135773020Y-108507000D01*
X135986981Y-108507000D01*
X135986981Y-108506999D01*
X136197297Y-108467685D01*
X136396810Y-108390393D01*
X136578722Y-108277758D01*
X136657781Y-108205686D01*
X136736839Y-108133616D01*
X136736839Y-108133615D01*
X136736841Y-108133614D01*
X136831593Y-108008141D01*
X136921478Y-107921519D01*
X137033735Y-107866910D01*
X137157372Y-107849663D01*
X137280288Y-107871466D01*
X137390451Y-107930186D01*
X137468406Y-108008141D01*
X137473308Y-108014632D01*
X137563159Y-108133614D01*
X137563160Y-108133616D01*
X137721275Y-108277756D01*
X137721277Y-108277758D01*
X137903186Y-108390391D01*
X137903188Y-108390391D01*
X137903190Y-108390393D01*
X138102703Y-108467685D01*
X138102705Y-108467685D01*
X138102707Y-108467686D01*
X138207861Y-108487342D01*
X138313017Y-108506999D01*
X138313019Y-108507000D01*
X138313020Y-108507000D01*
X138526981Y-108507000D01*
X138526981Y-108506999D01*
X138737297Y-108467685D01*
X138936810Y-108390393D01*
X139118722Y-108277758D01*
X139197781Y-108205686D01*
X139276839Y-108133616D01*
X139276839Y-108133615D01*
X139276841Y-108133614D01*
X139371593Y-108008141D01*
X139461478Y-107921519D01*
X139573735Y-107866910D01*
X139697372Y-107849663D01*
X139820288Y-107871466D01*
X139930451Y-107930186D01*
X140008406Y-108008141D01*
X140013308Y-108014632D01*
X140103159Y-108133614D01*
X140103160Y-108133616D01*
X140261275Y-108277756D01*
X140261277Y-108277758D01*
X140443186Y-108390391D01*
X140443188Y-108390391D01*
X140443190Y-108390393D01*
X140642703Y-108467685D01*
X140642705Y-108467685D01*
X140642707Y-108467686D01*
X140747861Y-108487342D01*
X140853017Y-108506999D01*
X140853019Y-108507000D01*
X140853020Y-108507000D01*
X141066981Y-108507000D01*
X141066981Y-108506999D01*
X141277297Y-108467685D01*
X141476810Y-108390393D01*
X141658722Y-108277758D01*
X141737781Y-108205686D01*
X141816839Y-108133616D01*
X141816839Y-108133615D01*
X141816841Y-108133614D01*
X141911593Y-108008141D01*
X142001478Y-107921519D01*
X142113735Y-107866910D01*
X142237372Y-107849663D01*
X142360288Y-107871466D01*
X142470451Y-107930186D01*
X142548406Y-108008141D01*
X142553308Y-108014632D01*
X142643159Y-108133614D01*
X142643160Y-108133616D01*
X142801275Y-108277756D01*
X142801277Y-108277758D01*
X142983186Y-108390391D01*
X142983188Y-108390391D01*
X142983190Y-108390393D01*
X143182703Y-108467685D01*
X143182705Y-108467685D01*
X143182707Y-108467686D01*
X143287861Y-108487342D01*
X143393017Y-108506999D01*
X143393019Y-108507000D01*
X143393020Y-108507000D01*
X143606981Y-108507000D01*
X143606981Y-108506999D01*
X143817297Y-108467685D01*
X144016810Y-108390393D01*
X144198722Y-108277758D01*
X144277781Y-108205686D01*
X144356839Y-108133616D01*
X144356839Y-108133615D01*
X144356841Y-108133614D01*
X144451593Y-108008141D01*
X144541478Y-107921519D01*
X144653735Y-107866910D01*
X144777372Y-107849663D01*
X144900288Y-107871466D01*
X145010451Y-107930186D01*
X145088406Y-108008141D01*
X145093308Y-108014632D01*
X145183159Y-108133614D01*
X145183160Y-108133616D01*
X145341275Y-108277756D01*
X145341277Y-108277758D01*
X145523186Y-108390391D01*
X145523188Y-108390391D01*
X145523190Y-108390393D01*
X145722703Y-108467685D01*
X145722705Y-108467685D01*
X145722707Y-108467686D01*
X145827861Y-108487342D01*
X145933017Y-108506999D01*
X145933019Y-108507000D01*
X145933020Y-108507000D01*
X146146981Y-108507000D01*
X146146981Y-108506999D01*
X146357297Y-108467685D01*
X146556810Y-108390393D01*
X146738722Y-108277758D01*
X146817781Y-108205686D01*
X146896839Y-108133616D01*
X146896839Y-108133615D01*
X146896841Y-108133614D01*
X146991593Y-108008141D01*
X147081478Y-107921519D01*
X147193735Y-107866910D01*
X147317372Y-107849663D01*
X147440288Y-107871466D01*
X147550451Y-107930186D01*
X147628406Y-108008141D01*
X147633308Y-108014632D01*
X147723159Y-108133614D01*
X147723160Y-108133616D01*
X147881275Y-108277756D01*
X147881277Y-108277758D01*
X148063186Y-108390391D01*
X148063188Y-108390391D01*
X148063190Y-108390393D01*
X148262703Y-108467685D01*
X148262705Y-108467685D01*
X148262707Y-108467686D01*
X148367861Y-108487342D01*
X148473017Y-108506999D01*
X148473019Y-108507000D01*
X148473020Y-108507000D01*
X148686981Y-108507000D01*
X148686981Y-108506999D01*
X148897297Y-108467685D01*
X149096810Y-108390393D01*
X149278722Y-108277758D01*
X149357781Y-108205686D01*
X149436839Y-108133616D01*
X149436839Y-108133615D01*
X149436841Y-108133614D01*
X149531593Y-108008141D01*
X149621478Y-107921519D01*
X149733735Y-107866910D01*
X149857372Y-107849663D01*
X149980288Y-107871466D01*
X150090451Y-107930186D01*
X150168406Y-108008141D01*
X150173308Y-108014632D01*
X150263159Y-108133614D01*
X150263160Y-108133616D01*
X150421275Y-108277756D01*
X150421277Y-108277758D01*
X150603186Y-108390391D01*
X150603188Y-108390391D01*
X150603190Y-108390393D01*
X150802703Y-108467685D01*
X150802705Y-108467685D01*
X150802707Y-108467686D01*
X150907861Y-108487342D01*
X151013017Y-108506999D01*
X151013019Y-108507000D01*
X151013020Y-108507000D01*
X151226981Y-108507000D01*
X151226981Y-108506999D01*
X151437297Y-108467685D01*
X151636810Y-108390393D01*
X151818722Y-108277758D01*
X151897781Y-108205686D01*
X151976839Y-108133616D01*
X151976839Y-108133615D01*
X151976841Y-108133614D01*
X152071593Y-108008141D01*
X152161478Y-107921519D01*
X152273735Y-107866910D01*
X152397372Y-107849663D01*
X152520288Y-107871466D01*
X152630451Y-107930186D01*
X152708406Y-108008141D01*
X152713308Y-108014632D01*
X152803159Y-108133614D01*
X152803160Y-108133616D01*
X152961275Y-108277756D01*
X152961277Y-108277758D01*
X153143186Y-108390391D01*
X153143188Y-108390391D01*
X153143190Y-108390393D01*
X153342703Y-108467685D01*
X153342705Y-108467685D01*
X153342707Y-108467686D01*
X153447861Y-108487342D01*
X153553017Y-108506999D01*
X153553019Y-108507000D01*
X153553020Y-108507000D01*
X153766981Y-108507000D01*
X153766981Y-108506999D01*
X153977297Y-108467685D01*
X154176810Y-108390393D01*
X154358722Y-108277758D01*
X154437781Y-108205686D01*
X154516839Y-108133616D01*
X154516839Y-108133615D01*
X154516841Y-108133614D01*
X154611593Y-108008141D01*
X154701478Y-107921519D01*
X154813735Y-107866910D01*
X154937372Y-107849663D01*
X155060288Y-107871466D01*
X155170451Y-107930186D01*
X155248406Y-108008141D01*
X155253308Y-108014632D01*
X155343159Y-108133614D01*
X155343160Y-108133616D01*
X155501275Y-108277756D01*
X155501277Y-108277758D01*
X155683186Y-108390391D01*
X155683188Y-108390391D01*
X155683190Y-108390393D01*
X155882703Y-108467685D01*
X155882705Y-108467685D01*
X155882707Y-108467686D01*
X155987861Y-108487342D01*
X156093017Y-108506999D01*
X156093019Y-108507000D01*
X156093020Y-108507000D01*
X156306981Y-108507000D01*
X156306981Y-108506999D01*
X156517297Y-108467685D01*
X156716810Y-108390393D01*
X156898722Y-108277758D01*
X156977781Y-108205686D01*
X157056839Y-108133616D01*
X157056839Y-108133615D01*
X157056841Y-108133614D01*
X157151593Y-108008141D01*
X157241478Y-107921519D01*
X157353735Y-107866910D01*
X157477372Y-107849663D01*
X157600288Y-107871466D01*
X157710451Y-107930186D01*
X157788406Y-108008141D01*
X157793308Y-108014632D01*
X157883159Y-108133614D01*
X157883160Y-108133616D01*
X158041275Y-108277756D01*
X158041277Y-108277758D01*
X158223186Y-108390391D01*
X158223188Y-108390391D01*
X158223190Y-108390393D01*
X158422703Y-108467685D01*
X158422705Y-108467685D01*
X158422707Y-108467686D01*
X158527861Y-108487342D01*
X158633017Y-108506999D01*
X158633019Y-108507000D01*
X158633020Y-108507000D01*
X158846981Y-108507000D01*
X158846981Y-108506999D01*
X159057297Y-108467685D01*
X159256810Y-108390393D01*
X159438722Y-108277758D01*
X159517781Y-108205686D01*
X159596839Y-108133616D01*
X159596839Y-108133615D01*
X159596841Y-108133614D01*
X159691593Y-108008141D01*
X159781478Y-107921519D01*
X159893735Y-107866910D01*
X160017372Y-107849663D01*
X160140288Y-107871466D01*
X160250451Y-107930186D01*
X160328406Y-108008141D01*
X160333308Y-108014632D01*
X160423159Y-108133614D01*
X160423160Y-108133616D01*
X160581275Y-108277756D01*
X160581277Y-108277758D01*
X160763186Y-108390391D01*
X160763188Y-108390391D01*
X160763190Y-108390393D01*
X160962703Y-108467685D01*
X160962705Y-108467685D01*
X160962707Y-108467686D01*
X161067861Y-108487342D01*
X161173017Y-108506999D01*
X161173019Y-108507000D01*
X161173020Y-108507000D01*
X161386981Y-108507000D01*
X161386981Y-108506999D01*
X161597297Y-108467685D01*
X161796810Y-108390393D01*
X161978722Y-108277758D01*
X162057781Y-108205686D01*
X162136839Y-108133616D01*
X162136839Y-108133615D01*
X162136841Y-108133614D01*
X162231593Y-108008141D01*
X162321478Y-107921519D01*
X162433735Y-107866910D01*
X162557372Y-107849663D01*
X162680288Y-107871466D01*
X162790451Y-107930186D01*
X162868406Y-108008141D01*
X162873308Y-108014632D01*
X162963159Y-108133614D01*
X162963160Y-108133616D01*
X163121275Y-108277756D01*
X163121277Y-108277758D01*
X163303186Y-108390391D01*
X163303188Y-108390391D01*
X163303190Y-108390393D01*
X163502703Y-108467685D01*
X163502705Y-108467685D01*
X163502707Y-108467686D01*
X163607861Y-108487342D01*
X163713017Y-108506999D01*
X163713019Y-108507000D01*
X163713020Y-108507000D01*
X163926981Y-108507000D01*
X163926981Y-108506999D01*
X164137297Y-108467685D01*
X164336810Y-108390393D01*
X164518722Y-108277758D01*
X164597781Y-108205686D01*
X164676839Y-108133616D01*
X164676839Y-108133615D01*
X164676841Y-108133614D01*
X164771593Y-108008141D01*
X164861478Y-107921519D01*
X164973735Y-107866910D01*
X165097372Y-107849663D01*
X165220288Y-107871466D01*
X165330451Y-107930186D01*
X165408406Y-108008141D01*
X165413308Y-108014632D01*
X165503159Y-108133614D01*
X165503160Y-108133616D01*
X165661275Y-108277756D01*
X165661277Y-108277758D01*
X165843186Y-108390391D01*
X165843188Y-108390391D01*
X165843190Y-108390393D01*
X166042703Y-108467685D01*
X166042705Y-108467685D01*
X166042707Y-108467686D01*
X166147861Y-108487342D01*
X166253017Y-108506999D01*
X166253019Y-108507000D01*
X166253020Y-108507000D01*
X166466981Y-108507000D01*
X166466981Y-108506999D01*
X166677297Y-108467685D01*
X166876810Y-108390393D01*
X167058722Y-108277758D01*
X167137781Y-108205686D01*
X167216839Y-108133616D01*
X167216839Y-108133615D01*
X167216841Y-108133614D01*
X167311593Y-108008141D01*
X167401478Y-107921519D01*
X167513735Y-107866910D01*
X167637372Y-107849663D01*
X167760288Y-107871466D01*
X167870451Y-107930186D01*
X167948406Y-108008141D01*
X167953308Y-108014632D01*
X168043159Y-108133614D01*
X168043160Y-108133616D01*
X168201275Y-108277756D01*
X168201277Y-108277758D01*
X168383186Y-108390391D01*
X168383188Y-108390391D01*
X168383190Y-108390393D01*
X168582703Y-108467685D01*
X168582705Y-108467685D01*
X168582707Y-108467686D01*
X168687861Y-108487342D01*
X168793017Y-108506999D01*
X168793019Y-108507000D01*
X168793020Y-108507000D01*
X169006981Y-108507000D01*
X169006981Y-108506999D01*
X169217297Y-108467685D01*
X169416810Y-108390393D01*
X169598722Y-108277758D01*
X169677781Y-108205686D01*
X169756839Y-108133616D01*
X169756839Y-108133615D01*
X169756841Y-108133614D01*
X169851593Y-108008141D01*
X169941478Y-107921519D01*
X170053735Y-107866910D01*
X170177372Y-107849663D01*
X170300288Y-107871466D01*
X170410451Y-107930186D01*
X170488406Y-108008141D01*
X170493308Y-108014632D01*
X170583159Y-108133614D01*
X170583160Y-108133616D01*
X170741275Y-108277756D01*
X170741277Y-108277758D01*
X170923186Y-108390391D01*
X170923188Y-108390391D01*
X170923190Y-108390393D01*
X171122703Y-108467685D01*
X171122705Y-108467685D01*
X171122707Y-108467686D01*
X171227861Y-108487342D01*
X171333017Y-108506999D01*
X171333019Y-108507000D01*
X171333020Y-108507000D01*
X171546981Y-108507000D01*
X171546981Y-108506999D01*
X171757297Y-108467685D01*
X171956810Y-108390393D01*
X172138722Y-108277758D01*
X172217781Y-108205686D01*
X172296839Y-108133616D01*
X172296839Y-108133615D01*
X172296841Y-108133614D01*
X172391593Y-108008141D01*
X172481478Y-107921519D01*
X172593735Y-107866910D01*
X172717372Y-107849663D01*
X172840288Y-107871466D01*
X172950451Y-107930186D01*
X173028406Y-108008141D01*
X173033308Y-108014632D01*
X173123159Y-108133614D01*
X173123160Y-108133616D01*
X173281275Y-108277756D01*
X173281277Y-108277758D01*
X173463186Y-108390391D01*
X173463188Y-108390391D01*
X173463190Y-108390393D01*
X173662703Y-108467685D01*
X173662705Y-108467685D01*
X173662707Y-108467686D01*
X173767861Y-108487342D01*
X173873017Y-108506999D01*
X173873019Y-108507000D01*
X173873020Y-108507000D01*
X174086981Y-108507000D01*
X174086981Y-108506999D01*
X174297297Y-108467685D01*
X174496810Y-108390393D01*
X174678722Y-108277758D01*
X174757781Y-108205686D01*
X174836839Y-108133616D01*
X174836839Y-108133615D01*
X174836841Y-108133614D01*
X174931593Y-108008141D01*
X175021478Y-107921519D01*
X175133735Y-107866910D01*
X175257372Y-107849663D01*
X175380288Y-107871466D01*
X175490451Y-107930186D01*
X175568406Y-108008141D01*
X175573308Y-108014632D01*
X175663159Y-108133614D01*
X175663160Y-108133616D01*
X175821275Y-108277756D01*
X175821277Y-108277758D01*
X176003186Y-108390391D01*
X176003188Y-108390391D01*
X176003190Y-108390393D01*
X176202703Y-108467685D01*
X176202705Y-108467685D01*
X176202707Y-108467686D01*
X176307861Y-108487342D01*
X176413017Y-108506999D01*
X176413019Y-108507000D01*
X176413020Y-108507000D01*
X176626981Y-108507000D01*
X176626981Y-108506999D01*
X176837297Y-108467685D01*
X177036810Y-108390393D01*
X177218722Y-108277758D01*
X177297781Y-108205686D01*
X177376839Y-108133616D01*
X177376839Y-108133615D01*
X177376841Y-108133614D01*
X177471593Y-108008141D01*
X177561478Y-107921519D01*
X177673735Y-107866910D01*
X177797372Y-107849663D01*
X177920288Y-107871466D01*
X178030451Y-107930186D01*
X178108406Y-108008141D01*
X178113308Y-108014632D01*
X178203159Y-108133614D01*
X178203160Y-108133616D01*
X178361275Y-108277756D01*
X178361277Y-108277758D01*
X178543186Y-108390391D01*
X178543188Y-108390391D01*
X178543190Y-108390393D01*
X178742703Y-108467685D01*
X178742705Y-108467685D01*
X178742707Y-108467686D01*
X178847861Y-108487342D01*
X178953017Y-108506999D01*
X178953019Y-108507000D01*
X178953020Y-108507000D01*
X179166981Y-108507000D01*
X179166981Y-108506999D01*
X179377297Y-108467685D01*
X179576810Y-108390393D01*
X179758722Y-108277758D01*
X179837781Y-108205686D01*
X179916839Y-108133616D01*
X179916841Y-108133614D01*
X180045781Y-107962870D01*
X180141151Y-107771340D01*
X180199704Y-107565548D01*
X180219446Y-107352500D01*
X180199704Y-107139452D01*
X180199704Y-107139450D01*
X180141151Y-106933661D01*
X180141151Y-106933660D01*
X180074597Y-106800000D01*
X181644751Y-106800000D01*
X181663687Y-106968059D01*
X181719544Y-107127690D01*
X181809523Y-107270890D01*
X181929110Y-107390477D01*
X182072310Y-107480456D01*
X182231941Y-107536313D01*
X182400000Y-107555249D01*
X182568059Y-107536313D01*
X182727690Y-107480456D01*
X182870890Y-107390477D01*
X182990477Y-107270890D01*
X183080456Y-107127690D01*
X183136313Y-106968059D01*
X183155249Y-106800000D01*
X183136313Y-106631941D01*
X183080456Y-106472310D01*
X182990477Y-106329110D01*
X182870890Y-106209523D01*
X182727690Y-106119544D01*
X182727689Y-106119543D01*
X182727688Y-106119543D01*
X182653979Y-106093751D01*
X182568059Y-106063687D01*
X182400000Y-106044751D01*
X182231941Y-106063687D01*
X182072311Y-106119543D01*
X181929111Y-106209522D01*
X181809522Y-106329111D01*
X181719543Y-106472311D01*
X181690139Y-106556345D01*
X181663687Y-106631941D01*
X181644751Y-106800000D01*
X180074597Y-106800000D01*
X180045781Y-106742130D01*
X180045779Y-106742128D01*
X180041829Y-106734194D01*
X180004352Y-106615117D01*
X180000000Y-106556345D01*
X180000000Y-102871797D01*
X180002509Y-102827123D01*
X180005565Y-102800000D01*
X180005565Y-102799998D01*
X180002509Y-102772876D01*
X180000000Y-102728202D01*
X180000000Y-99599999D01*
X181994435Y-99599999D01*
X181994435Y-99600000D01*
X182014631Y-99779251D01*
X182014631Y-99779253D01*
X182014632Y-99779255D01*
X182074211Y-99949522D01*
X182170184Y-100102262D01*
X182297738Y-100229816D01*
X182450478Y-100325789D01*
X182620745Y-100385368D01*
X182755186Y-100400515D01*
X182799999Y-100405565D01*
X182800000Y-100405565D01*
X182800001Y-100405565D01*
X182835851Y-100401525D01*
X182979255Y-100385368D01*
X183149522Y-100325789D01*
X183302262Y-100229816D01*
X183429816Y-100102262D01*
X183525789Y-99949522D01*
X183585368Y-99779255D01*
X183605565Y-99600000D01*
X183585368Y-99420745D01*
X183525789Y-99250478D01*
X183429816Y-99097738D01*
X183302262Y-98970184D01*
X183149522Y-98874211D01*
X182979255Y-98814632D01*
X182979253Y-98814631D01*
X182979251Y-98814631D01*
X182800001Y-98794435D01*
X182799999Y-98794435D01*
X182620748Y-98814631D01*
X182620745Y-98814632D01*
X182450478Y-98874211D01*
X182297739Y-98970183D01*
X182170183Y-99097739D01*
X182074211Y-99250478D01*
X182014632Y-99420745D01*
X182014631Y-99420748D01*
X181994435Y-99599999D01*
X180000000Y-99599999D01*
X180000000Y-96770684D01*
X180019528Y-96647386D01*
X180061160Y-96558399D01*
X180080455Y-96527691D01*
X180080456Y-96527690D01*
X180136313Y-96368059D01*
X180149373Y-96252141D01*
X180182583Y-96131808D01*
X180251354Y-96027624D01*
X180348953Y-95949791D01*
X180414071Y-95920212D01*
X180527690Y-95880456D01*
X180670890Y-95790477D01*
X180790477Y-95670890D01*
X180880456Y-95527690D01*
X180936313Y-95368059D01*
X180955249Y-95200000D01*
X180936313Y-95031941D01*
X180880456Y-94872310D01*
X180790477Y-94729110D01*
X180670890Y-94609523D01*
X180655734Y-94600000D01*
X186844751Y-94600000D01*
X186863687Y-94768059D01*
X186919544Y-94927690D01*
X187009523Y-95070890D01*
X187129110Y-95190477D01*
X187272310Y-95280456D01*
X187431941Y-95336313D01*
X187600000Y-95355249D01*
X187768059Y-95336313D01*
X187927690Y-95280456D01*
X188070890Y-95190477D01*
X188190477Y-95070890D01*
X188280456Y-94927690D01*
X188336313Y-94768059D01*
X188355249Y-94600000D01*
X188336313Y-94431941D01*
X188280456Y-94272310D01*
X188190477Y-94129110D01*
X188070890Y-94009523D01*
X187927690Y-93919544D01*
X187927689Y-93919543D01*
X187927688Y-93919543D01*
X187853979Y-93893751D01*
X187768059Y-93863687D01*
X187600000Y-93844751D01*
X187431941Y-93863687D01*
X187272311Y-93919543D01*
X187129111Y-94009522D01*
X187009522Y-94129111D01*
X186919543Y-94272311D01*
X186888807Y-94360152D01*
X186863687Y-94431941D01*
X186844751Y-94600000D01*
X180655734Y-94600000D01*
X180527690Y-94519544D01*
X180527689Y-94519543D01*
X180527688Y-94519543D01*
X180399998Y-94474863D01*
X180368059Y-94463687D01*
X180368057Y-94463686D01*
X180368055Y-94463686D01*
X180354318Y-94462138D01*
X180233982Y-94428925D01*
X180129800Y-94360152D01*
X180051969Y-94262550D01*
X180008108Y-94145675D01*
X180000000Y-94065648D01*
X180000000Y-92908655D01*
X180019528Y-92785357D01*
X180041829Y-92730806D01*
X180141151Y-92531339D01*
X180199704Y-92325548D01*
X180219446Y-92112500D01*
X180199704Y-91899452D01*
X180199704Y-91899450D01*
X180141151Y-91693661D01*
X180141151Y-91693660D01*
X180045781Y-91502130D01*
X179916841Y-91331386D01*
X179916839Y-91331383D01*
X179758724Y-91187243D01*
X179758722Y-91187241D01*
X179576813Y-91074608D01*
X179377292Y-90997313D01*
X179166983Y-90958000D01*
X179166980Y-90958000D01*
X178953020Y-90958000D01*
X178953016Y-90958000D01*
X178742707Y-90997313D01*
X178543186Y-91074608D01*
X178361277Y-91187241D01*
X178361275Y-91187243D01*
X178203160Y-91331383D01*
X178203157Y-91331387D01*
X178108408Y-91456856D01*
X178018521Y-91543481D01*
X177906264Y-91598089D01*
X177782626Y-91615336D01*
X177659710Y-91593532D01*
X177549548Y-91534812D01*
X177471592Y-91456856D01*
X177376842Y-91331387D01*
X177376839Y-91331383D01*
X177218724Y-91187243D01*
X177218722Y-91187241D01*
X177036813Y-91074608D01*
X176837292Y-90997313D01*
X176626983Y-90958000D01*
X176626980Y-90958000D01*
X176413020Y-90958000D01*
X176413016Y-90958000D01*
X176202707Y-90997313D01*
X176003186Y-91074608D01*
X175821277Y-91187241D01*
X175821275Y-91187243D01*
X175663160Y-91331383D01*
X175663157Y-91331387D01*
X175568408Y-91456856D01*
X175478521Y-91543481D01*
X175366264Y-91598089D01*
X175242626Y-91615336D01*
X175119710Y-91593532D01*
X175009548Y-91534812D01*
X174931592Y-91456856D01*
X174836842Y-91331387D01*
X174836839Y-91331383D01*
X174678724Y-91187243D01*
X174678722Y-91187241D01*
X174496813Y-91074608D01*
X174297292Y-90997313D01*
X174086983Y-90958000D01*
X174086980Y-90958000D01*
X173873020Y-90958000D01*
X173873016Y-90958000D01*
X173662707Y-90997313D01*
X173463186Y-91074608D01*
X173281277Y-91187241D01*
X173281275Y-91187243D01*
X173123160Y-91331383D01*
X173123157Y-91331387D01*
X173028408Y-91456856D01*
X172938521Y-91543481D01*
X172826264Y-91598089D01*
X172702626Y-91615336D01*
X172579710Y-91593532D01*
X172469548Y-91534812D01*
X172391592Y-91456856D01*
X172296842Y-91331387D01*
X172296839Y-91331383D01*
X172138724Y-91187243D01*
X172138722Y-91187241D01*
X171956813Y-91074608D01*
X171757292Y-90997313D01*
X171546983Y-90958000D01*
X171546980Y-90958000D01*
X171333020Y-90958000D01*
X171333016Y-90958000D01*
X171122707Y-90997313D01*
X170923186Y-91074608D01*
X170741277Y-91187241D01*
X170741275Y-91187243D01*
X170583160Y-91331383D01*
X170583157Y-91331387D01*
X170488408Y-91456856D01*
X170398521Y-91543481D01*
X170286264Y-91598089D01*
X170162626Y-91615336D01*
X170039710Y-91593532D01*
X169929548Y-91534812D01*
X169851592Y-91456856D01*
X169756842Y-91331387D01*
X169756839Y-91331383D01*
X169598724Y-91187243D01*
X169598722Y-91187241D01*
X169416813Y-91074608D01*
X169217292Y-90997313D01*
X169006983Y-90958000D01*
X169006980Y-90958000D01*
X168989175Y-90958000D01*
X168865877Y-90938472D01*
X168754649Y-90881798D01*
X168666377Y-90793526D01*
X168609703Y-90682298D01*
X168590175Y-90559000D01*
X168592684Y-90514327D01*
X168605565Y-90400002D01*
X168605565Y-90399999D01*
X168597433Y-90327830D01*
X168585368Y-90220745D01*
X168525789Y-90050478D01*
X168429816Y-89897738D01*
X168302262Y-89770184D01*
X168149522Y-89674211D01*
X167979255Y-89614632D01*
X167979253Y-89614631D01*
X167979251Y-89614631D01*
X167849384Y-89599999D01*
X174394435Y-89599999D01*
X174394435Y-89600000D01*
X174414631Y-89779251D01*
X174414631Y-89779253D01*
X174414632Y-89779255D01*
X174474211Y-89949522D01*
X174570184Y-90102262D01*
X174697738Y-90229816D01*
X174850478Y-90325789D01*
X175020745Y-90385368D01*
X175155186Y-90400515D01*
X175199999Y-90405565D01*
X175200000Y-90405565D01*
X175200001Y-90405565D01*
X175235851Y-90401525D01*
X175379255Y-90385368D01*
X175549522Y-90325789D01*
X175702262Y-90229816D01*
X175829816Y-90102262D01*
X175925789Y-89949522D01*
X175985368Y-89779255D01*
X176005565Y-89600000D01*
X175985368Y-89420745D01*
X175925789Y-89250478D01*
X175829816Y-89097738D01*
X175702262Y-88970184D01*
X175549522Y-88874211D01*
X175379255Y-88814632D01*
X175379253Y-88814631D01*
X175379251Y-88814631D01*
X175200001Y-88794435D01*
X175199999Y-88794435D01*
X175020748Y-88814631D01*
X175020745Y-88814632D01*
X174850478Y-88874211D01*
X174697739Y-88970183D01*
X174570183Y-89097739D01*
X174474211Y-89250478D01*
X174414632Y-89420745D01*
X174414631Y-89420748D01*
X174394435Y-89599999D01*
X167849384Y-89599999D01*
X167800001Y-89594435D01*
X167799999Y-89594435D01*
X167620748Y-89614631D01*
X167620745Y-89614632D01*
X167450478Y-89674211D01*
X167297739Y-89770183D01*
X167170183Y-89897739D01*
X167074211Y-90050478D01*
X167014632Y-90220745D01*
X167014631Y-90220748D01*
X166994435Y-90399999D01*
X166994435Y-90400003D01*
X167009615Y-90534735D01*
X167004014Y-90659444D01*
X166960150Y-90776318D01*
X166882316Y-90873918D01*
X166778132Y-90942688D01*
X166657796Y-90975898D01*
X166539810Y-90971614D01*
X166497079Y-90963626D01*
X166466980Y-90958000D01*
X166253020Y-90958000D01*
X166253016Y-90958000D01*
X166042707Y-90997313D01*
X165843186Y-91074608D01*
X165661277Y-91187241D01*
X165661275Y-91187243D01*
X165503160Y-91331383D01*
X165503157Y-91331387D01*
X165408408Y-91456856D01*
X165318521Y-91543481D01*
X165206264Y-91598089D01*
X165082626Y-91615336D01*
X164959710Y-91593532D01*
X164849548Y-91534812D01*
X164771592Y-91456856D01*
X164676842Y-91331387D01*
X164676839Y-91331383D01*
X164518724Y-91187243D01*
X164518722Y-91187241D01*
X164336813Y-91074608D01*
X164137292Y-90997313D01*
X163926983Y-90958000D01*
X163926980Y-90958000D01*
X163713020Y-90958000D01*
X163713016Y-90958000D01*
X163502707Y-90997313D01*
X163303186Y-91074608D01*
X163121277Y-91187241D01*
X163121275Y-91187243D01*
X162963160Y-91331383D01*
X162963157Y-91331387D01*
X162868408Y-91456856D01*
X162778521Y-91543481D01*
X162666264Y-91598089D01*
X162542626Y-91615336D01*
X162419710Y-91593532D01*
X162309548Y-91534812D01*
X162231592Y-91456856D01*
X162136842Y-91331387D01*
X162136839Y-91331383D01*
X161978724Y-91187243D01*
X161978722Y-91187241D01*
X161796813Y-91074608D01*
X161597292Y-90997313D01*
X161386983Y-90958000D01*
X161386980Y-90958000D01*
X161173020Y-90958000D01*
X161173016Y-90958000D01*
X160962707Y-90997313D01*
X160763186Y-91074608D01*
X160581277Y-91187241D01*
X160581275Y-91187243D01*
X160423160Y-91331383D01*
X160423157Y-91331387D01*
X160328408Y-91456856D01*
X160238521Y-91543481D01*
X160126264Y-91598089D01*
X160002626Y-91615336D01*
X159879710Y-91593532D01*
X159769548Y-91534812D01*
X159691592Y-91456856D01*
X159596842Y-91331387D01*
X159596839Y-91331383D01*
X159438724Y-91187243D01*
X159438722Y-91187241D01*
X159256813Y-91074608D01*
X159057292Y-90997313D01*
X158846983Y-90958000D01*
X158846980Y-90958000D01*
X158633020Y-90958000D01*
X158633016Y-90958000D01*
X158422707Y-90997313D01*
X158223186Y-91074608D01*
X158041277Y-91187241D01*
X158041275Y-91187243D01*
X157883160Y-91331383D01*
X157883157Y-91331387D01*
X157788408Y-91456856D01*
X157698521Y-91543481D01*
X157586264Y-91598089D01*
X157462626Y-91615336D01*
X157339710Y-91593532D01*
X157229548Y-91534812D01*
X157151592Y-91456856D01*
X157056842Y-91331387D01*
X157056839Y-91331383D01*
X156898724Y-91187243D01*
X156898722Y-91187241D01*
X156716813Y-91074608D01*
X156517292Y-90997313D01*
X156306983Y-90958000D01*
X156306980Y-90958000D01*
X156093020Y-90958000D01*
X156093016Y-90958000D01*
X155882707Y-90997313D01*
X155683186Y-91074608D01*
X155501277Y-91187241D01*
X155501275Y-91187243D01*
X155343160Y-91331383D01*
X155343157Y-91331387D01*
X155248408Y-91456856D01*
X155158521Y-91543481D01*
X155046264Y-91598089D01*
X154922626Y-91615336D01*
X154799710Y-91593532D01*
X154689548Y-91534812D01*
X154611592Y-91456856D01*
X154516842Y-91331387D01*
X154516839Y-91331383D01*
X154358724Y-91187243D01*
X154358722Y-91187241D01*
X154176813Y-91074608D01*
X153977292Y-90997313D01*
X153766983Y-90958000D01*
X153766980Y-90958000D01*
X153553020Y-90958000D01*
X153553016Y-90958000D01*
X153342707Y-90997313D01*
X153143186Y-91074608D01*
X152961277Y-91187241D01*
X152961275Y-91187243D01*
X152803160Y-91331383D01*
X152803157Y-91331387D01*
X152708408Y-91456856D01*
X152618521Y-91543481D01*
X152506264Y-91598089D01*
X152382626Y-91615336D01*
X152259710Y-91593532D01*
X152149548Y-91534812D01*
X152071592Y-91456856D01*
X151976842Y-91331387D01*
X151976839Y-91331383D01*
X151818724Y-91187243D01*
X151818722Y-91187241D01*
X151636813Y-91074608D01*
X151437292Y-90997313D01*
X151226983Y-90958000D01*
X151226980Y-90958000D01*
X151013020Y-90958000D01*
X151013016Y-90958000D01*
X150802707Y-90997313D01*
X150603186Y-91074608D01*
X150421277Y-91187241D01*
X150421275Y-91187243D01*
X150263160Y-91331383D01*
X150263157Y-91331387D01*
X150168408Y-91456856D01*
X150078521Y-91543481D01*
X149966264Y-91598089D01*
X149842626Y-91615336D01*
X149719710Y-91593532D01*
X149609548Y-91534812D01*
X149531592Y-91456856D01*
X149436842Y-91331387D01*
X149436839Y-91331383D01*
X149278724Y-91187243D01*
X149278722Y-91187241D01*
X149096813Y-91074608D01*
X148897292Y-90997313D01*
X148686983Y-90958000D01*
X148686980Y-90958000D01*
X148473020Y-90958000D01*
X148473016Y-90958000D01*
X148262707Y-90997313D01*
X148063186Y-91074608D01*
X147881277Y-91187241D01*
X147881275Y-91187243D01*
X147723160Y-91331383D01*
X147723157Y-91331387D01*
X147628408Y-91456856D01*
X147538521Y-91543481D01*
X147426264Y-91598089D01*
X147302626Y-91615336D01*
X147179710Y-91593532D01*
X147069548Y-91534812D01*
X146991592Y-91456856D01*
X146896842Y-91331387D01*
X146896839Y-91331383D01*
X146738724Y-91187243D01*
X146738722Y-91187241D01*
X146556813Y-91074608D01*
X146357292Y-90997313D01*
X146146983Y-90958000D01*
X146146980Y-90958000D01*
X145933020Y-90958000D01*
X145933016Y-90958000D01*
X145722707Y-90997313D01*
X145523186Y-91074608D01*
X145341277Y-91187241D01*
X145341275Y-91187243D01*
X145183160Y-91331383D01*
X145183157Y-91331387D01*
X145088408Y-91456856D01*
X144998521Y-91543481D01*
X144886264Y-91598089D01*
X144762626Y-91615336D01*
X144639710Y-91593532D01*
X144529548Y-91534812D01*
X144451592Y-91456856D01*
X144356842Y-91331387D01*
X144356839Y-91331383D01*
X144198724Y-91187243D01*
X144198722Y-91187241D01*
X144016813Y-91074608D01*
X143817292Y-90997313D01*
X143606983Y-90958000D01*
X143606980Y-90958000D01*
X143393020Y-90958000D01*
X143393016Y-90958000D01*
X143182707Y-90997313D01*
X142983186Y-91074608D01*
X142801277Y-91187241D01*
X142801275Y-91187243D01*
X142643160Y-91331383D01*
X142643157Y-91331387D01*
X142548408Y-91456856D01*
X142458521Y-91543481D01*
X142346264Y-91598089D01*
X142222626Y-91615336D01*
X142099710Y-91593532D01*
X141989548Y-91534812D01*
X141911592Y-91456856D01*
X141816842Y-91331387D01*
X141816839Y-91331383D01*
X141658724Y-91187243D01*
X141658722Y-91187241D01*
X141476813Y-91074608D01*
X141277292Y-90997313D01*
X141066983Y-90958000D01*
X141066980Y-90958000D01*
X140853020Y-90958000D01*
X140853016Y-90958000D01*
X140642707Y-90997313D01*
X140443186Y-91074608D01*
X140261277Y-91187241D01*
X140261275Y-91187243D01*
X140103160Y-91331383D01*
X140103157Y-91331387D01*
X140008408Y-91456856D01*
X139918521Y-91543481D01*
X139806264Y-91598089D01*
X139682626Y-91615336D01*
X139559710Y-91593532D01*
X139449548Y-91534812D01*
X139371592Y-91456856D01*
X139276842Y-91331387D01*
X139276839Y-91331383D01*
X139118724Y-91187243D01*
X139118722Y-91187241D01*
X138936813Y-91074608D01*
X138737292Y-90997313D01*
X138526983Y-90958000D01*
X138526980Y-90958000D01*
X138313020Y-90958000D01*
X138313016Y-90958000D01*
X138102707Y-90997313D01*
X137903186Y-91074608D01*
X137721277Y-91187241D01*
X137721275Y-91187243D01*
X137563160Y-91331383D01*
X137563157Y-91331387D01*
X137468408Y-91456856D01*
X137378521Y-91543481D01*
X137266264Y-91598089D01*
X137142626Y-91615336D01*
X137019710Y-91593532D01*
X136909548Y-91534812D01*
X136831592Y-91456856D01*
X136736842Y-91331387D01*
X136736839Y-91331383D01*
X136578724Y-91187243D01*
X136578722Y-91187241D01*
X136396813Y-91074608D01*
X136197292Y-90997313D01*
X135986983Y-90958000D01*
X135986980Y-90958000D01*
X135773020Y-90958000D01*
X135773016Y-90958000D01*
X135562707Y-90997313D01*
X135363186Y-91074608D01*
X135181277Y-91187241D01*
X135181275Y-91187243D01*
X135023160Y-91331383D01*
X135023157Y-91331387D01*
X134928408Y-91456856D01*
X134838521Y-91543481D01*
X134726264Y-91598089D01*
X134602626Y-91615336D01*
X134479710Y-91593532D01*
X134369548Y-91534812D01*
X134291592Y-91456856D01*
X134196842Y-91331387D01*
X134196839Y-91331383D01*
X134038724Y-91187243D01*
X134038722Y-91187241D01*
X133856813Y-91074608D01*
X133657292Y-90997313D01*
X133446983Y-90958000D01*
X133446980Y-90958000D01*
X133233020Y-90958000D01*
X133233016Y-90958000D01*
X133022707Y-90997313D01*
X132823186Y-91074608D01*
X132641277Y-91187241D01*
X132641275Y-91187243D01*
X132483160Y-91331383D01*
X132483157Y-91331387D01*
X132388408Y-91456856D01*
X132298521Y-91543481D01*
X132186264Y-91598089D01*
X132062626Y-91615336D01*
X131939710Y-91593532D01*
X131829548Y-91534812D01*
X131751592Y-91456856D01*
X131656842Y-91331387D01*
X131656839Y-91331383D01*
X131498724Y-91187243D01*
X131498722Y-91187241D01*
X131316813Y-91074608D01*
X131117292Y-90997313D01*
X130906983Y-90958000D01*
X130906980Y-90958000D01*
X130693020Y-90958000D01*
X130693016Y-90958000D01*
X130482707Y-90997313D01*
X130283186Y-91074608D01*
X130101277Y-91187241D01*
X130101275Y-91187243D01*
X129943160Y-91331383D01*
X129943157Y-91331387D01*
X129848408Y-91456856D01*
X129758521Y-91543481D01*
X129646264Y-91598089D01*
X129522626Y-91615336D01*
X129399710Y-91593532D01*
X129289548Y-91534812D01*
X129211592Y-91456856D01*
X129116842Y-91331387D01*
X129116839Y-91331383D01*
X128958724Y-91187243D01*
X128958722Y-91187241D01*
X128776813Y-91074608D01*
X128577292Y-90997313D01*
X128366983Y-90958000D01*
X128366980Y-90958000D01*
X128153020Y-90958000D01*
X128153016Y-90958000D01*
X127942707Y-90997313D01*
X127743186Y-91074608D01*
X127561277Y-91187241D01*
X127561275Y-91187243D01*
X127403160Y-91331383D01*
X127403157Y-91331387D01*
X127308408Y-91456856D01*
X127218521Y-91543481D01*
X127106264Y-91598089D01*
X126982626Y-91615336D01*
X126859710Y-91593532D01*
X126749548Y-91534812D01*
X126671592Y-91456856D01*
X126576842Y-91331387D01*
X126576839Y-91331383D01*
X126418724Y-91187243D01*
X126418722Y-91187241D01*
X126236813Y-91074608D01*
X126037292Y-90997313D01*
X125826983Y-90958000D01*
X125826980Y-90958000D01*
X125613020Y-90958000D01*
X125613016Y-90958000D01*
X125402707Y-90997313D01*
X125203186Y-91074608D01*
X125021277Y-91187241D01*
X125021275Y-91187243D01*
X124863160Y-91331383D01*
X124863157Y-91331387D01*
X124768408Y-91456856D01*
X124678521Y-91543481D01*
X124566264Y-91598089D01*
X124442626Y-91615336D01*
X124319710Y-91593532D01*
X124209548Y-91534812D01*
X124131592Y-91456856D01*
X124036842Y-91331387D01*
X124036839Y-91331383D01*
X123878724Y-91187243D01*
X123878722Y-91187241D01*
X123696813Y-91074608D01*
X123497292Y-90997313D01*
X123286983Y-90958000D01*
X123286980Y-90958000D01*
X123073020Y-90958000D01*
X123073016Y-90958000D01*
X122862707Y-90997313D01*
X122663186Y-91074608D01*
X122481277Y-91187241D01*
X122481275Y-91187243D01*
X122323160Y-91331383D01*
X122323157Y-91331387D01*
X122228408Y-91456856D01*
X122138521Y-91543481D01*
X122026264Y-91598089D01*
X121902626Y-91615336D01*
X121779710Y-91593532D01*
X121669548Y-91534812D01*
X121591592Y-91456856D01*
X121496842Y-91331387D01*
X121496839Y-91331383D01*
X121338724Y-91187243D01*
X121338722Y-91187241D01*
X121156813Y-91074608D01*
X120957292Y-90997313D01*
X120746983Y-90958000D01*
X120746980Y-90958000D01*
X120533020Y-90958000D01*
X120533016Y-90958000D01*
X120322707Y-90997313D01*
X120123186Y-91074608D01*
X119941277Y-91187241D01*
X119941275Y-91187243D01*
X119783160Y-91331383D01*
X119783157Y-91331387D01*
X119654223Y-91502124D01*
X119654220Y-91502128D01*
X119558848Y-91693661D01*
X119500295Y-91899450D01*
X119478852Y-92130868D01*
X119475867Y-92130591D01*
X119461026Y-92224298D01*
X119404352Y-92335526D01*
X119316080Y-92423798D01*
X119204852Y-92480472D01*
X119081554Y-92500000D01*
X118399500Y-92500000D01*
X118276202Y-92480472D01*
X118164974Y-92423798D01*
X118076702Y-92335526D01*
X118020028Y-92224298D01*
X118000500Y-92101000D01*
X118000500Y-89400000D01*
X156444751Y-89400000D01*
X156463687Y-89568059D01*
X156519544Y-89727690D01*
X156609523Y-89870890D01*
X156729110Y-89990477D01*
X156872310Y-90080456D01*
X157031941Y-90136313D01*
X157200000Y-90155249D01*
X157368059Y-90136313D01*
X157527690Y-90080456D01*
X157670890Y-89990477D01*
X157790477Y-89870890D01*
X157880456Y-89727690D01*
X157936313Y-89568059D01*
X157955249Y-89400000D01*
X157936313Y-89231941D01*
X157880456Y-89072310D01*
X157790477Y-88929110D01*
X157670890Y-88809523D01*
X157527690Y-88719544D01*
X157527689Y-88719543D01*
X157527688Y-88719543D01*
X157450451Y-88692517D01*
X157368059Y-88663687D01*
X157200000Y-88644751D01*
X157031941Y-88663687D01*
X156872311Y-88719543D01*
X156729111Y-88809522D01*
X156609522Y-88929111D01*
X156519543Y-89072311D01*
X156479644Y-89186337D01*
X156463687Y-89231941D01*
X156444751Y-89400000D01*
X118000500Y-89400000D01*
X118000500Y-86599999D01*
X145594435Y-86599999D01*
X145594435Y-86600000D01*
X145614631Y-86779251D01*
X145614631Y-86779253D01*
X145614632Y-86779255D01*
X145674211Y-86949522D01*
X145770184Y-87102262D01*
X145897738Y-87229816D01*
X146050478Y-87325789D01*
X146220745Y-87385368D01*
X146355186Y-87400515D01*
X146399999Y-87405565D01*
X146400000Y-87405565D01*
X146400001Y-87405565D01*
X146435851Y-87401525D01*
X146579255Y-87385368D01*
X146749522Y-87325789D01*
X146902262Y-87229816D01*
X147029816Y-87102262D01*
X147125789Y-86949522D01*
X147185368Y-86779255D01*
X147205565Y-86600000D01*
X147185368Y-86420745D01*
X147125789Y-86250478D01*
X147029816Y-86097738D01*
X146902262Y-85970184D01*
X146749522Y-85874211D01*
X146579255Y-85814632D01*
X146579253Y-85814631D01*
X146579251Y-85814631D01*
X146400001Y-85794435D01*
X146399999Y-85794435D01*
X146220748Y-85814631D01*
X146220745Y-85814632D01*
X146050478Y-85874211D01*
X145897739Y-85970183D01*
X145770183Y-86097739D01*
X145674211Y-86250478D01*
X145614632Y-86420745D01*
X145614631Y-86420748D01*
X145594435Y-86599999D01*
X118000500Y-86599999D01*
X118000500Y-83999999D01*
X144394435Y-83999999D01*
X144394435Y-84000000D01*
X144414631Y-84179251D01*
X144414631Y-84179253D01*
X144414632Y-84179255D01*
X144474211Y-84349522D01*
X144570184Y-84502262D01*
X144697738Y-84629816D01*
X144850478Y-84725789D01*
X145020745Y-84785368D01*
X145155186Y-84800515D01*
X145199999Y-84805565D01*
X145200000Y-84805565D01*
X145200001Y-84805565D01*
X145235851Y-84801525D01*
X145379255Y-84785368D01*
X145549522Y-84725789D01*
X145702262Y-84629816D01*
X145829816Y-84502262D01*
X145925789Y-84349522D01*
X145985368Y-84179255D01*
X146005565Y-84000000D01*
X145985368Y-83820745D01*
X145925789Y-83650478D01*
X145829816Y-83497738D01*
X145702262Y-83370184D01*
X145549522Y-83274211D01*
X145379255Y-83214632D01*
X145379253Y-83214631D01*
X145379251Y-83214631D01*
X145200001Y-83194435D01*
X145199999Y-83194435D01*
X145020748Y-83214631D01*
X145020745Y-83214632D01*
X144850478Y-83274211D01*
X144697739Y-83370183D01*
X144570183Y-83497739D01*
X144474211Y-83650478D01*
X144414632Y-83820745D01*
X144414631Y-83820748D01*
X144394435Y-83999999D01*
X118000500Y-83999999D01*
X118000500Y-82000000D01*
X123244751Y-82000000D01*
X123263687Y-82168059D01*
X123319544Y-82327690D01*
X123409523Y-82470890D01*
X123529110Y-82590477D01*
X123672310Y-82680456D01*
X123831941Y-82736313D01*
X124000000Y-82755249D01*
X124168059Y-82736313D01*
X124327690Y-82680456D01*
X124470890Y-82590477D01*
X124590477Y-82470890D01*
X124680456Y-82327690D01*
X124736313Y-82168059D01*
X124755249Y-82000000D01*
X124736313Y-81831941D01*
X124680456Y-81672310D01*
X124590477Y-81529110D01*
X124470890Y-81409523D01*
X124327690Y-81319544D01*
X124327689Y-81319543D01*
X124327688Y-81319543D01*
X124253979Y-81293751D01*
X124168059Y-81263687D01*
X124000000Y-81244751D01*
X123831941Y-81263687D01*
X123672311Y-81319543D01*
X123529111Y-81409522D01*
X123409522Y-81529111D01*
X123319543Y-81672311D01*
X123263687Y-81831941D01*
X123248514Y-81966607D01*
X123244751Y-82000000D01*
X118000500Y-82000000D01*
X118000500Y-79500000D01*
X150144341Y-79500000D01*
X150164937Y-79735409D01*
X150226096Y-79963660D01*
X150325966Y-80177833D01*
X150425348Y-80319763D01*
X150461505Y-80371401D01*
X150577971Y-80487867D01*
X150651345Y-80588858D01*
X150689921Y-80707583D01*
X150689921Y-80832417D01*
X150651345Y-80951142D01*
X150577971Y-81052132D01*
X150510561Y-81119543D01*
X150461502Y-81168602D01*
X150325965Y-81362170D01*
X150325964Y-81362172D01*
X150226099Y-81576331D01*
X150226096Y-81576338D01*
X150164937Y-81804590D01*
X150144341Y-82040000D01*
X150164937Y-82275409D01*
X150219879Y-82480456D01*
X150226097Y-82503663D01*
X150260668Y-82577801D01*
X150325966Y-82717833D01*
X150425348Y-82859763D01*
X150461505Y-82911401D01*
X150577971Y-83027867D01*
X150651345Y-83128858D01*
X150689921Y-83247583D01*
X150689921Y-83372417D01*
X150651345Y-83491142D01*
X150577971Y-83592132D01*
X150519626Y-83650478D01*
X150461502Y-83708602D01*
X150325965Y-83902170D01*
X150325964Y-83902172D01*
X150226099Y-84116331D01*
X150226096Y-84116338D01*
X150164937Y-84344590D01*
X150144341Y-84580000D01*
X150164937Y-84815409D01*
X150215097Y-85002609D01*
X150226097Y-85043663D01*
X150275450Y-85149500D01*
X150325966Y-85257833D01*
X150400638Y-85364474D01*
X150461505Y-85451401D01*
X150577971Y-85567867D01*
X150651345Y-85668858D01*
X150689921Y-85787583D01*
X150689921Y-85912417D01*
X150651345Y-86031142D01*
X150577971Y-86132132D01*
X150515843Y-86194261D01*
X150461502Y-86248602D01*
X150325965Y-86442170D01*
X150325964Y-86442172D01*
X150226099Y-86656331D01*
X150226096Y-86656338D01*
X150164937Y-86884590D01*
X150144341Y-87120000D01*
X150164937Y-87355409D01*
X150226096Y-87583660D01*
X150325966Y-87797833D01*
X150395921Y-87897738D01*
X150461505Y-87991401D01*
X150628599Y-88158495D01*
X150705482Y-88212329D01*
X150822166Y-88294033D01*
X150822169Y-88294034D01*
X150822170Y-88294035D01*
X151036337Y-88393903D01*
X151264592Y-88455063D01*
X151500000Y-88475659D01*
X151735408Y-88455063D01*
X151963663Y-88393903D01*
X152177830Y-88294035D01*
X152274239Y-88226528D01*
X152386432Y-88171807D01*
X152510052Y-88154433D01*
X152632990Y-88176109D01*
X152743213Y-88234714D01*
X152822504Y-88314255D01*
X152832454Y-88327546D01*
X152947669Y-88413796D01*
X153082517Y-88464091D01*
X153142127Y-88470500D01*
X154937872Y-88470499D01*
X154997483Y-88464091D01*
X155132331Y-88413796D01*
X155150761Y-88399999D01*
X171794435Y-88399999D01*
X171794435Y-88400000D01*
X171814631Y-88579251D01*
X171814631Y-88579253D01*
X171814632Y-88579255D01*
X171874211Y-88749522D01*
X171970184Y-88902262D01*
X172097738Y-89029816D01*
X172250478Y-89125789D01*
X172420745Y-89185368D01*
X172555186Y-89200515D01*
X172599999Y-89205565D01*
X172600000Y-89205565D01*
X172600001Y-89205565D01*
X172635851Y-89201525D01*
X172779255Y-89185368D01*
X172949522Y-89125789D01*
X173102262Y-89029816D01*
X173229816Y-88902262D01*
X173325789Y-88749522D01*
X173385368Y-88579255D01*
X173405565Y-88400000D01*
X173385368Y-88220745D01*
X173378109Y-88200000D01*
X180144815Y-88200000D01*
X180163503Y-88377803D01*
X180195398Y-88475964D01*
X180218750Y-88547836D01*
X180236890Y-88579255D01*
X180308141Y-88702665D01*
X180308143Y-88702667D01*
X180427765Y-88835522D01*
X180427766Y-88835522D01*
X180427770Y-88835526D01*
X180572407Y-88940612D01*
X180572411Y-88940614D01*
X180572413Y-88940615D01*
X180638825Y-88970183D01*
X180735733Y-89013329D01*
X180910609Y-89050500D01*
X180910614Y-89050500D01*
X181089386Y-89050500D01*
X181089391Y-89050500D01*
X181264267Y-89013329D01*
X181427593Y-88940612D01*
X181572230Y-88835526D01*
X181647323Y-88752127D01*
X183769500Y-88752127D01*
X183769500Y-90547863D01*
X183769501Y-90547870D01*
X183775908Y-90607480D01*
X183775909Y-90607482D01*
X183826202Y-90742327D01*
X183826206Y-90742334D01*
X183887367Y-90824035D01*
X183912454Y-90857546D01*
X184027669Y-90943796D01*
X184162517Y-90994091D01*
X184222127Y-91000500D01*
X186017872Y-91000499D01*
X186077483Y-90994091D01*
X186212331Y-90943796D01*
X186327546Y-90857546D01*
X186337491Y-90844260D01*
X186427014Y-90757259D01*
X186539040Y-90702179D01*
X186662604Y-90684413D01*
X186785610Y-90705700D01*
X186885760Y-90756528D01*
X186982170Y-90824035D01*
X187196337Y-90923903D01*
X187424592Y-90985063D01*
X187660000Y-91005659D01*
X187895408Y-90985063D01*
X188123663Y-90923903D01*
X188337830Y-90824035D01*
X188531401Y-90688495D01*
X188647867Y-90572028D01*
X188748858Y-90498655D01*
X188867583Y-90460079D01*
X188992417Y-90460079D01*
X189111142Y-90498655D01*
X189212132Y-90572028D01*
X189328599Y-90688495D01*
X189405479Y-90742327D01*
X189522166Y-90824033D01*
X189522169Y-90824034D01*
X189522170Y-90824035D01*
X189736337Y-90923903D01*
X189964592Y-90985063D01*
X190200000Y-91005659D01*
X190435408Y-90985063D01*
X190663663Y-90923903D01*
X190877830Y-90824035D01*
X191071401Y-90688495D01*
X191238495Y-90521401D01*
X191374035Y-90327830D01*
X191473903Y-90113663D01*
X191535063Y-89885408D01*
X191555659Y-89650000D01*
X191535063Y-89414592D01*
X191473903Y-89186337D01*
X191374035Y-88972171D01*
X191238495Y-88778599D01*
X191071401Y-88611505D01*
X190994517Y-88557670D01*
X190877833Y-88475966D01*
X190770746Y-88426031D01*
X190663663Y-88376097D01*
X190663660Y-88376096D01*
X190435409Y-88314937D01*
X190200000Y-88294341D01*
X189964590Y-88314937D01*
X189736338Y-88376096D01*
X189736331Y-88376099D01*
X189522172Y-88475964D01*
X189522170Y-88475965D01*
X189328602Y-88611502D01*
X189328599Y-88611504D01*
X189328599Y-88611505D01*
X189212132Y-88727971D01*
X189111142Y-88801345D01*
X188992417Y-88839921D01*
X188867583Y-88839921D01*
X188748858Y-88801345D01*
X188647867Y-88727971D01*
X188531401Y-88611505D01*
X188454517Y-88557670D01*
X188337833Y-88475966D01*
X188230746Y-88426031D01*
X188123663Y-88376097D01*
X188123660Y-88376096D01*
X187895409Y-88314937D01*
X187660000Y-88294341D01*
X187424590Y-88314937D01*
X187196338Y-88376096D01*
X187196331Y-88376099D01*
X186982172Y-88475964D01*
X186982166Y-88475967D01*
X186885762Y-88543470D01*
X186773561Y-88598193D01*
X186649941Y-88615566D01*
X186527003Y-88593888D01*
X186416781Y-88535281D01*
X186337494Y-88455743D01*
X186336984Y-88455062D01*
X186327546Y-88442454D01*
X186289265Y-88413797D01*
X186212334Y-88356206D01*
X186212329Y-88356203D01*
X186077482Y-88305908D01*
X186024281Y-88300188D01*
X186017873Y-88299500D01*
X186017872Y-88299500D01*
X184222136Y-88299500D01*
X184222129Y-88299500D01*
X184222128Y-88299501D01*
X184214949Y-88300272D01*
X184162519Y-88305908D01*
X184162517Y-88305909D01*
X184027672Y-88356202D01*
X184027665Y-88356206D01*
X183912458Y-88442450D01*
X183912450Y-88442458D01*
X183826206Y-88557665D01*
X183826203Y-88557670D01*
X183775908Y-88692517D01*
X183769500Y-88752127D01*
X181647323Y-88752127D01*
X181691859Y-88702665D01*
X181781250Y-88547835D01*
X181836497Y-88377803D01*
X181855185Y-88200000D01*
X181836497Y-88022197D01*
X181781250Y-87852165D01*
X181691859Y-87697335D01*
X181617392Y-87614631D01*
X181572234Y-87564477D01*
X181572232Y-87564476D01*
X181572230Y-87564474D01*
X181427593Y-87459388D01*
X181427589Y-87459386D01*
X181427586Y-87459384D01*
X181264277Y-87386675D01*
X181264273Y-87386673D01*
X181264267Y-87386671D01*
X181089391Y-87349500D01*
X180910609Y-87349500D01*
X180735733Y-87386671D01*
X180735732Y-87386671D01*
X180735729Y-87386672D01*
X180572403Y-87459390D01*
X180427771Y-87564471D01*
X180427770Y-87564472D01*
X180308143Y-87697332D01*
X180218750Y-87852163D01*
X180203942Y-87897738D01*
X180163503Y-88022197D01*
X180144815Y-88200000D01*
X173378109Y-88200000D01*
X173325789Y-88050478D01*
X173229816Y-87897738D01*
X173102262Y-87770184D01*
X172949522Y-87674211D01*
X172779255Y-87614632D01*
X172779253Y-87614631D01*
X172779251Y-87614631D01*
X172600001Y-87594435D01*
X172599999Y-87594435D01*
X172420748Y-87614631D01*
X172420745Y-87614632D01*
X172250478Y-87674211D01*
X172097739Y-87770183D01*
X171970183Y-87897739D01*
X171874211Y-88050478D01*
X171814632Y-88220745D01*
X171814631Y-88220748D01*
X171794435Y-88399999D01*
X155150761Y-88399999D01*
X155247546Y-88327546D01*
X155333796Y-88212331D01*
X155384091Y-88077483D01*
X155390500Y-88017873D01*
X155390499Y-86222128D01*
X155384091Y-86162517D01*
X155333796Y-86027669D01*
X155313083Y-86000000D01*
X160544341Y-86000000D01*
X160564937Y-86235409D01*
X160626096Y-86463660D01*
X160725966Y-86677833D01*
X160825348Y-86819763D01*
X160861505Y-86871401D01*
X161028599Y-87038495D01*
X161118895Y-87101721D01*
X161222166Y-87174033D01*
X161222169Y-87174034D01*
X161222170Y-87174035D01*
X161436337Y-87273903D01*
X161664592Y-87335063D01*
X161900000Y-87355659D01*
X162135408Y-87335063D01*
X162363663Y-87273903D01*
X162577830Y-87174035D01*
X162771401Y-87038495D01*
X162938495Y-86871401D01*
X162948160Y-86857597D01*
X163034874Y-86767802D01*
X163145096Y-86709195D01*
X163268034Y-86687517D01*
X163391654Y-86704890D01*
X163503855Y-86759613D01*
X163593654Y-86846330D01*
X163601818Y-86857567D01*
X163611505Y-86871401D01*
X163778599Y-87038495D01*
X163868895Y-87101721D01*
X163972166Y-87174033D01*
X163972169Y-87174034D01*
X163972170Y-87174035D01*
X164186337Y-87273903D01*
X164414592Y-87335063D01*
X164650000Y-87355659D01*
X164885408Y-87335063D01*
X165113663Y-87273903D01*
X165327830Y-87174035D01*
X165521401Y-87038495D01*
X165688495Y-86871401D01*
X165698160Y-86857597D01*
X165784874Y-86767802D01*
X165895096Y-86709195D01*
X166018034Y-86687517D01*
X166141654Y-86704890D01*
X166253855Y-86759613D01*
X166343654Y-86846330D01*
X166351818Y-86857567D01*
X166361505Y-86871401D01*
X166528599Y-87038495D01*
X166618895Y-87101721D01*
X166722166Y-87174033D01*
X166722169Y-87174034D01*
X166722170Y-87174035D01*
X166936337Y-87273903D01*
X167164592Y-87335063D01*
X167400000Y-87355659D01*
X167635408Y-87335063D01*
X167863663Y-87273903D01*
X168077830Y-87174035D01*
X168271401Y-87038495D01*
X168438495Y-86871401D01*
X168448160Y-86857597D01*
X168534874Y-86767802D01*
X168645096Y-86709195D01*
X168768034Y-86687517D01*
X168891654Y-86704890D01*
X169003855Y-86759613D01*
X169093654Y-86846330D01*
X169101818Y-86857567D01*
X169111505Y-86871401D01*
X169278599Y-87038495D01*
X169368895Y-87101721D01*
X169472166Y-87174033D01*
X169472169Y-87174034D01*
X169472170Y-87174035D01*
X169686337Y-87273903D01*
X169914592Y-87335063D01*
X170150000Y-87355659D01*
X170385408Y-87335063D01*
X170613663Y-87273903D01*
X170827830Y-87174035D01*
X171021401Y-87038495D01*
X171188495Y-86871401D01*
X171324035Y-86677830D01*
X171423903Y-86463663D01*
X171485063Y-86235408D01*
X171505659Y-86000000D01*
X175744815Y-86000000D01*
X175763503Y-86177803D01*
X175786506Y-86248599D01*
X175818750Y-86347836D01*
X175823267Y-86355659D01*
X175908141Y-86502665D01*
X175908143Y-86502667D01*
X176027765Y-86635522D01*
X176027766Y-86635522D01*
X176027770Y-86635526D01*
X176172407Y-86740612D01*
X176172411Y-86740614D01*
X176172413Y-86740615D01*
X176215084Y-86759613D01*
X176335733Y-86813329D01*
X176510609Y-86850500D01*
X176510614Y-86850500D01*
X176689386Y-86850500D01*
X176689391Y-86850500D01*
X176864267Y-86813329D01*
X177027593Y-86740612D01*
X177172230Y-86635526D01*
X177291859Y-86502665D01*
X177381250Y-86347835D01*
X177436497Y-86177803D01*
X177455185Y-86000000D01*
X177436497Y-85822197D01*
X177381250Y-85652165D01*
X177291859Y-85497335D01*
X177269076Y-85472032D01*
X177172234Y-85364477D01*
X177172232Y-85364476D01*
X177172230Y-85364474D01*
X177027593Y-85259388D01*
X177027589Y-85259386D01*
X177027586Y-85259384D01*
X176864277Y-85186675D01*
X176864273Y-85186673D01*
X176864267Y-85186671D01*
X176689391Y-85149500D01*
X176510609Y-85149500D01*
X176335733Y-85186671D01*
X176335732Y-85186671D01*
X176335729Y-85186672D01*
X176172403Y-85259390D01*
X176027771Y-85364471D01*
X176027770Y-85364472D01*
X175908143Y-85497332D01*
X175818750Y-85652163D01*
X175802898Y-85700952D01*
X175763503Y-85822197D01*
X175744815Y-86000000D01*
X171505659Y-86000000D01*
X171485063Y-85764592D01*
X171423903Y-85536337D01*
X171324035Y-85322171D01*
X171324033Y-85322168D01*
X171324030Y-85322162D01*
X171256531Y-85225764D01*
X171201806Y-85113564D01*
X171184433Y-84989944D01*
X171206110Y-84867006D01*
X171264716Y-84756783D01*
X171344261Y-84677491D01*
X171357546Y-84667546D01*
X171443796Y-84552331D01*
X171494091Y-84417483D01*
X171500500Y-84357873D01*
X171500500Y-84102127D01*
X183769500Y-84102127D01*
X183769500Y-85897863D01*
X183769501Y-85897870D01*
X183775908Y-85957480D01*
X183775908Y-85957481D01*
X183775909Y-85957483D01*
X183791767Y-86000000D01*
X183826202Y-86092327D01*
X183826206Y-86092334D01*
X183887367Y-86174035D01*
X183912454Y-86207546D01*
X184027669Y-86293796D01*
X184162517Y-86344091D01*
X184222127Y-86350500D01*
X186017872Y-86350499D01*
X186077483Y-86344091D01*
X186212331Y-86293796D01*
X186327546Y-86207546D01*
X186337491Y-86194260D01*
X186427014Y-86107259D01*
X186539040Y-86052179D01*
X186662604Y-86034413D01*
X186785610Y-86055700D01*
X186885760Y-86106528D01*
X186982170Y-86174035D01*
X187196337Y-86273903D01*
X187424592Y-86335063D01*
X187660000Y-86355659D01*
X187895408Y-86335063D01*
X188123663Y-86273903D01*
X188337830Y-86174035D01*
X188531401Y-86038495D01*
X188647867Y-85922028D01*
X188748858Y-85848655D01*
X188867583Y-85810079D01*
X188992417Y-85810079D01*
X189111142Y-85848655D01*
X189212132Y-85922028D01*
X189328599Y-86038495D01*
X189390024Y-86081505D01*
X189522166Y-86174033D01*
X189522169Y-86174034D01*
X189522170Y-86174035D01*
X189736337Y-86273903D01*
X189964592Y-86335063D01*
X190200000Y-86355659D01*
X190435408Y-86335063D01*
X190663663Y-86273903D01*
X190877830Y-86174035D01*
X191071401Y-86038495D01*
X191238495Y-85871401D01*
X191374035Y-85677830D01*
X191473903Y-85463663D01*
X191535063Y-85235408D01*
X191555659Y-85000000D01*
X191535063Y-84764592D01*
X191473903Y-84536337D01*
X191374035Y-84322171D01*
X191238495Y-84128599D01*
X191071401Y-83961505D01*
X191071397Y-83961502D01*
X191071395Y-83961500D01*
X191063833Y-83955155D01*
X190981932Y-83860942D01*
X190933154Y-83746032D01*
X190922273Y-83621672D01*
X190950353Y-83500037D01*
X191014646Y-83393032D01*
X191108859Y-83311131D01*
X191223769Y-83262353D01*
X191320301Y-83250500D01*
X191489386Y-83250500D01*
X191489391Y-83250500D01*
X191664267Y-83213329D01*
X191827593Y-83140612D01*
X191972230Y-83035526D01*
X192091859Y-82902665D01*
X192181250Y-82747835D01*
X192236497Y-82577803D01*
X192255185Y-82400000D01*
X192236497Y-82222197D01*
X192181250Y-82052165D01*
X192091859Y-81897335D01*
X192008353Y-81804592D01*
X191972234Y-81764477D01*
X191972232Y-81764476D01*
X191972230Y-81764474D01*
X191827593Y-81659388D01*
X191827589Y-81659386D01*
X191827586Y-81659384D01*
X191664277Y-81586675D01*
X191664273Y-81586673D01*
X191664267Y-81586671D01*
X191489391Y-81549500D01*
X191310609Y-81549500D01*
X191135733Y-81586671D01*
X191135732Y-81586671D01*
X191135729Y-81586672D01*
X190972403Y-81659390D01*
X190827771Y-81764471D01*
X190827770Y-81764472D01*
X190708143Y-81897332D01*
X190618750Y-82052163D01*
X190598038Y-82115909D01*
X190563503Y-82222197D01*
X190544815Y-82400000D01*
X190563503Y-82577803D01*
X190580082Y-82628828D01*
X190618750Y-82747836D01*
X190708143Y-82902668D01*
X190800125Y-83004824D01*
X190868115Y-83109519D01*
X190900425Y-83230101D01*
X190893892Y-83354764D01*
X190849155Y-83471307D01*
X190770595Y-83568322D01*
X190665900Y-83636312D01*
X190545318Y-83668622D01*
X190452854Y-83665393D01*
X190452762Y-83666456D01*
X190435411Y-83664937D01*
X190435408Y-83664937D01*
X190200000Y-83644341D01*
X189964590Y-83664937D01*
X189736338Y-83726096D01*
X189736331Y-83726099D01*
X189522172Y-83825964D01*
X189522170Y-83825965D01*
X189328602Y-83961502D01*
X189328599Y-83961504D01*
X189328599Y-83961505D01*
X189212132Y-84077971D01*
X189111142Y-84151345D01*
X188992417Y-84189921D01*
X188867583Y-84189921D01*
X188748858Y-84151345D01*
X188647867Y-84077971D01*
X188531401Y-83961505D01*
X188454517Y-83907670D01*
X188337833Y-83825966D01*
X188230746Y-83776031D01*
X188123663Y-83726097D01*
X188123660Y-83726096D01*
X187895409Y-83664937D01*
X187660000Y-83644341D01*
X187424590Y-83664937D01*
X187196338Y-83726096D01*
X187196331Y-83726099D01*
X186982172Y-83825964D01*
X186982166Y-83825967D01*
X186885762Y-83893470D01*
X186773561Y-83948193D01*
X186649941Y-83965566D01*
X186527003Y-83943888D01*
X186416781Y-83885281D01*
X186337494Y-83805743D01*
X186327546Y-83792454D01*
X186265534Y-83746032D01*
X186212334Y-83706206D01*
X186212329Y-83706203D01*
X186077482Y-83655908D01*
X186024281Y-83650188D01*
X186017873Y-83649500D01*
X186017872Y-83649500D01*
X184222136Y-83649500D01*
X184222129Y-83649500D01*
X184222128Y-83649501D01*
X184214949Y-83650272D01*
X184162519Y-83655908D01*
X184162517Y-83655909D01*
X184027672Y-83706202D01*
X184027665Y-83706206D01*
X183912458Y-83792450D01*
X183912450Y-83792458D01*
X183826206Y-83907665D01*
X183826203Y-83907670D01*
X183775908Y-84042517D01*
X183769500Y-84102127D01*
X171500500Y-84102127D01*
X171500499Y-82562128D01*
X171494091Y-82502517D01*
X171443796Y-82367669D01*
X171357546Y-82252454D01*
X171317129Y-82222198D01*
X171242334Y-82166206D01*
X171242329Y-82166203D01*
X171107482Y-82115908D01*
X171054281Y-82110188D01*
X171047873Y-82109500D01*
X171047872Y-82109500D01*
X169252136Y-82109500D01*
X169252129Y-82109500D01*
X169252128Y-82109501D01*
X169244949Y-82110272D01*
X169192519Y-82115908D01*
X169192517Y-82115909D01*
X169057672Y-82166202D01*
X169057665Y-82166206D01*
X169014114Y-82198809D01*
X168903707Y-82257066D01*
X168780701Y-82278354D01*
X168657137Y-82260589D01*
X168545110Y-82205511D01*
X168535886Y-82198809D01*
X168492334Y-82166206D01*
X168492329Y-82166203D01*
X168357482Y-82115908D01*
X168304281Y-82110188D01*
X168297873Y-82109500D01*
X168297872Y-82109500D01*
X166502136Y-82109500D01*
X166502129Y-82109500D01*
X166502128Y-82109501D01*
X166494949Y-82110272D01*
X166442519Y-82115908D01*
X166442517Y-82115909D01*
X166307672Y-82166202D01*
X166307665Y-82166206D01*
X166264114Y-82198809D01*
X166153707Y-82257066D01*
X166030701Y-82278354D01*
X165907137Y-82260589D01*
X165795110Y-82205511D01*
X165785886Y-82198809D01*
X165742334Y-82166206D01*
X165742329Y-82166203D01*
X165607482Y-82115908D01*
X165554281Y-82110188D01*
X165547873Y-82109500D01*
X165547872Y-82109500D01*
X163752136Y-82109500D01*
X163752129Y-82109500D01*
X163752128Y-82109501D01*
X163744949Y-82110272D01*
X163692519Y-82115908D01*
X163692517Y-82115909D01*
X163557672Y-82166202D01*
X163557665Y-82166206D01*
X163514114Y-82198809D01*
X163403707Y-82257066D01*
X163280701Y-82278354D01*
X163157137Y-82260589D01*
X163045110Y-82205511D01*
X163035886Y-82198809D01*
X162992334Y-82166206D01*
X162992329Y-82166203D01*
X162857482Y-82115908D01*
X162804281Y-82110188D01*
X162797873Y-82109500D01*
X162797872Y-82109500D01*
X161002136Y-82109500D01*
X161002129Y-82109500D01*
X161002128Y-82109501D01*
X160994949Y-82110272D01*
X160942519Y-82115908D01*
X160942517Y-82115909D01*
X160807672Y-82166202D01*
X160807665Y-82166206D01*
X160692458Y-82252450D01*
X160692450Y-82252458D01*
X160606206Y-82367665D01*
X160606203Y-82367670D01*
X160555908Y-82502517D01*
X160549500Y-82562127D01*
X160549500Y-84357863D01*
X160549501Y-84357870D01*
X160555908Y-84417480D01*
X160555909Y-84417482D01*
X160606202Y-84552327D01*
X160606203Y-84552329D01*
X160606204Y-84552331D01*
X160692454Y-84667546D01*
X160692457Y-84667548D01*
X160705743Y-84677494D01*
X160792744Y-84767018D01*
X160847822Y-84879045D01*
X160865586Y-85002609D01*
X160844298Y-85125615D01*
X160793470Y-85225762D01*
X160725967Y-85322166D01*
X160725964Y-85322172D01*
X160626099Y-85536331D01*
X160626096Y-85536338D01*
X160564937Y-85764590D01*
X160544341Y-86000000D01*
X155313083Y-86000000D01*
X155247546Y-85912454D01*
X155234255Y-85902504D01*
X155147254Y-85812980D01*
X155092177Y-85700952D01*
X155074413Y-85577388D01*
X155095702Y-85454382D01*
X155146527Y-85354239D01*
X155214035Y-85257830D01*
X155313903Y-85043663D01*
X155375063Y-84815408D01*
X155395659Y-84580000D01*
X155375063Y-84344592D01*
X155313903Y-84116337D01*
X155214035Y-83902171D01*
X155078495Y-83708599D01*
X154962028Y-83592132D01*
X154888655Y-83491142D01*
X154850079Y-83372417D01*
X154850079Y-83247583D01*
X154888655Y-83128858D01*
X154962028Y-83027867D01*
X155078495Y-82911401D01*
X155214035Y-82717830D01*
X155313903Y-82503663D01*
X155375063Y-82275408D01*
X155395659Y-82040000D01*
X155375063Y-81804592D01*
X155313903Y-81576337D01*
X155214035Y-81362171D01*
X155135491Y-81249998D01*
X175244357Y-81249998D01*
X175244357Y-81250001D01*
X175264892Y-81497822D01*
X175264893Y-81497827D01*
X175325937Y-81738882D01*
X175366757Y-81831941D01*
X175425827Y-81966607D01*
X175425828Y-81966608D01*
X175561837Y-82174787D01*
X175730254Y-82357737D01*
X175743019Y-82367672D01*
X175926491Y-82510474D01*
X176145190Y-82628828D01*
X176145196Y-82628830D01*
X176145198Y-82628831D01*
X176145197Y-82628831D01*
X176295577Y-82680456D01*
X176380386Y-82709571D01*
X176540639Y-82736312D01*
X176625657Y-82750499D01*
X176625665Y-82750500D01*
X176874335Y-82750500D01*
X176874342Y-82750499D01*
X176915515Y-82743628D01*
X177119614Y-82709571D01*
X177289282Y-82651323D01*
X177354802Y-82628831D01*
X177354803Y-82628830D01*
X177354810Y-82628828D01*
X177573509Y-82510474D01*
X177769744Y-82357738D01*
X177938164Y-82174785D01*
X178074173Y-81966607D01*
X178174063Y-81738881D01*
X178235108Y-81497821D01*
X178255643Y-81250000D01*
X178255643Y-81249998D01*
X179744357Y-81249998D01*
X179744357Y-81250001D01*
X179764892Y-81497822D01*
X179764893Y-81497827D01*
X179825937Y-81738882D01*
X179866757Y-81831941D01*
X179925827Y-81966607D01*
X179925828Y-81966608D01*
X180061837Y-82174787D01*
X180230254Y-82357737D01*
X180243019Y-82367672D01*
X180426491Y-82510474D01*
X180645190Y-82628828D01*
X180645196Y-82628830D01*
X180645198Y-82628831D01*
X180645197Y-82628831D01*
X180795577Y-82680456D01*
X180880386Y-82709571D01*
X181040639Y-82736312D01*
X181125657Y-82750499D01*
X181125665Y-82750500D01*
X181374335Y-82750500D01*
X181374342Y-82750499D01*
X181415515Y-82743628D01*
X181619614Y-82709571D01*
X181789282Y-82651323D01*
X181854802Y-82628831D01*
X181854803Y-82628830D01*
X181854810Y-82628828D01*
X182073509Y-82510474D01*
X182269744Y-82357738D01*
X182438164Y-82174785D01*
X182574173Y-81966607D01*
X182647254Y-81800000D01*
X185044751Y-81800000D01*
X185063523Y-81966607D01*
X185063687Y-81968058D01*
X185115421Y-82115909D01*
X185119544Y-82127690D01*
X185209523Y-82270890D01*
X185329110Y-82390477D01*
X185472310Y-82480456D01*
X185631941Y-82536313D01*
X185800000Y-82555249D01*
X185968059Y-82536313D01*
X186127690Y-82480456D01*
X186270890Y-82390477D01*
X186390477Y-82270890D01*
X186480456Y-82127690D01*
X186536313Y-81968059D01*
X186555249Y-81800000D01*
X186536313Y-81631941D01*
X186480456Y-81472310D01*
X186390477Y-81329110D01*
X186270890Y-81209523D01*
X186127690Y-81119544D01*
X186127689Y-81119543D01*
X186127688Y-81119543D01*
X186053979Y-81093751D01*
X185968059Y-81063687D01*
X185800000Y-81044751D01*
X185631941Y-81063687D01*
X185472311Y-81119543D01*
X185329111Y-81209522D01*
X185209522Y-81329111D01*
X185119543Y-81472311D01*
X185063687Y-81631941D01*
X185048754Y-81764477D01*
X185044751Y-81800000D01*
X182647254Y-81800000D01*
X182674063Y-81738881D01*
X182735108Y-81497821D01*
X182755643Y-81250000D01*
X182735108Y-81002179D01*
X182674063Y-80761119D01*
X182574173Y-80533393D01*
X182438164Y-80325215D01*
X182438163Y-80325214D01*
X182438162Y-80325212D01*
X182269745Y-80142262D01*
X182155333Y-80053212D01*
X182073509Y-79989526D01*
X181854810Y-79871172D01*
X181854805Y-79871170D01*
X181854801Y-79871168D01*
X181854802Y-79871168D01*
X181619615Y-79790429D01*
X181374342Y-79749500D01*
X181374335Y-79749500D01*
X181125665Y-79749500D01*
X181125657Y-79749500D01*
X180880384Y-79790429D01*
X180645197Y-79871168D01*
X180426492Y-79989525D01*
X180230254Y-80142262D01*
X180061837Y-80325212D01*
X179925828Y-80533391D01*
X179825937Y-80761117D01*
X179764893Y-81002172D01*
X179764892Y-81002177D01*
X179744357Y-81249998D01*
X178255643Y-81249998D01*
X178235108Y-81002179D01*
X178174063Y-80761119D01*
X178074173Y-80533393D01*
X177938164Y-80325215D01*
X177938163Y-80325214D01*
X177938162Y-80325212D01*
X177769745Y-80142262D01*
X177655333Y-80053212D01*
X177573509Y-79989526D01*
X177354810Y-79871172D01*
X177354805Y-79871170D01*
X177354801Y-79871168D01*
X177354802Y-79871168D01*
X177119615Y-79790429D01*
X176874342Y-79749500D01*
X176874335Y-79749500D01*
X176625665Y-79749500D01*
X176625657Y-79749500D01*
X176380384Y-79790429D01*
X176145197Y-79871168D01*
X175926492Y-79989525D01*
X175730254Y-80142262D01*
X175561837Y-80325212D01*
X175425828Y-80533391D01*
X175325937Y-80761117D01*
X175264893Y-81002172D01*
X175264892Y-81002177D01*
X175244357Y-81249998D01*
X155135491Y-81249998D01*
X155078495Y-81168599D01*
X154962028Y-81052132D01*
X154888655Y-80951142D01*
X154850079Y-80832417D01*
X154850079Y-80707583D01*
X154888655Y-80588858D01*
X154962028Y-80487867D01*
X155078495Y-80371401D01*
X155214035Y-80177830D01*
X155313903Y-79963663D01*
X155375063Y-79735408D01*
X155395659Y-79500000D01*
X155375063Y-79264592D01*
X155313903Y-79036337D01*
X155214035Y-78822171D01*
X155078495Y-78628599D01*
X154911401Y-78461505D01*
X154859763Y-78425348D01*
X154717833Y-78325966D01*
X154610746Y-78276031D01*
X154503663Y-78226097D01*
X154503660Y-78226096D01*
X154275409Y-78164937D01*
X154040000Y-78144341D01*
X153804590Y-78164937D01*
X153576338Y-78226096D01*
X153576331Y-78226099D01*
X153362172Y-78325964D01*
X153362170Y-78325965D01*
X153168602Y-78461502D01*
X153168599Y-78461504D01*
X153168599Y-78461505D01*
X153052132Y-78577971D01*
X152951142Y-78651345D01*
X152832417Y-78689921D01*
X152707583Y-78689921D01*
X152588858Y-78651345D01*
X152487867Y-78577971D01*
X152371401Y-78461505D01*
X152319763Y-78425348D01*
X152177833Y-78325966D01*
X152070746Y-78276031D01*
X151963663Y-78226097D01*
X151963660Y-78226096D01*
X151735409Y-78164937D01*
X151500000Y-78144341D01*
X151264590Y-78164937D01*
X151036338Y-78226096D01*
X151036331Y-78226099D01*
X150822172Y-78325964D01*
X150822170Y-78325965D01*
X150628602Y-78461502D01*
X150461502Y-78628602D01*
X150325965Y-78822170D01*
X150325964Y-78822172D01*
X150226099Y-79036331D01*
X150226096Y-79036338D01*
X150164937Y-79264590D01*
X150144341Y-79500000D01*
X118000500Y-79500000D01*
X118000500Y-77508700D01*
X118000880Y-77491296D01*
X118005795Y-77378717D01*
X118005795Y-77378712D01*
X120649500Y-77378712D01*
X120649500Y-77621288D01*
X120663472Y-77727420D01*
X120681161Y-77861789D01*
X120681162Y-77861791D01*
X120743943Y-78096093D01*
X120743946Y-78096100D01*
X120836776Y-78320212D01*
X120836777Y-78320215D01*
X120836779Y-78320218D01*
X120958064Y-78530290D01*
X121105730Y-78722732D01*
X121105735Y-78722738D01*
X121277262Y-78894265D01*
X121277266Y-78894268D01*
X121277267Y-78894269D01*
X121469709Y-79041935D01*
X121469711Y-79041936D01*
X121679788Y-79163224D01*
X121903900Y-79256054D01*
X121903903Y-79256054D01*
X121903906Y-79256056D01*
X122060107Y-79297910D01*
X122138208Y-79318837D01*
X122138210Y-79318838D01*
X122178294Y-79324115D01*
X122378712Y-79350500D01*
X122378717Y-79350500D01*
X122621283Y-79350500D01*
X122621288Y-79350500D01*
X122861789Y-79318838D01*
X123064236Y-79264592D01*
X123096093Y-79256056D01*
X123096093Y-79256055D01*
X123096100Y-79256054D01*
X123320212Y-79163224D01*
X123530289Y-79041936D01*
X123722738Y-78894265D01*
X123894265Y-78722738D01*
X124041936Y-78530289D01*
X124163224Y-78320212D01*
X124256054Y-78096100D01*
X124318838Y-77861789D01*
X124350500Y-77621288D01*
X124350500Y-77378712D01*
X186899500Y-77378712D01*
X186899500Y-77621288D01*
X186913472Y-77727420D01*
X186931161Y-77861789D01*
X186931162Y-77861791D01*
X186993943Y-78096093D01*
X186993946Y-78096100D01*
X187086776Y-78320212D01*
X187086777Y-78320215D01*
X187086779Y-78320218D01*
X187208064Y-78530290D01*
X187355730Y-78722732D01*
X187355735Y-78722738D01*
X187527262Y-78894265D01*
X187527266Y-78894268D01*
X187527267Y-78894269D01*
X187719709Y-79041935D01*
X187719711Y-79041936D01*
X187929788Y-79163224D01*
X188153900Y-79256054D01*
X188153903Y-79256054D01*
X188153906Y-79256056D01*
X188310107Y-79297910D01*
X188388208Y-79318837D01*
X188388210Y-79318838D01*
X188428294Y-79324115D01*
X188628712Y-79350500D01*
X188628717Y-79350500D01*
X188871283Y-79350500D01*
X188871288Y-79350500D01*
X189111789Y-79318838D01*
X189314236Y-79264592D01*
X189346093Y-79256056D01*
X189346093Y-79256055D01*
X189346100Y-79256054D01*
X189570212Y-79163224D01*
X189780289Y-79041936D01*
X189972738Y-78894265D01*
X190144265Y-78722738D01*
X190291936Y-78530289D01*
X190413224Y-78320212D01*
X190506054Y-78096100D01*
X190568838Y-77861789D01*
X190600500Y-77621288D01*
X190600500Y-77378712D01*
X190568838Y-77138211D01*
X190506054Y-76903900D01*
X190413224Y-76679788D01*
X190291936Y-76469711D01*
X190291935Y-76469709D01*
X190144269Y-76277267D01*
X190144268Y-76277266D01*
X190144265Y-76277262D01*
X189972738Y-76105735D01*
X189972733Y-76105731D01*
X189972732Y-76105730D01*
X189780290Y-75958064D01*
X189570218Y-75836779D01*
X189570215Y-75836777D01*
X189570212Y-75836776D01*
X189346100Y-75743946D01*
X189346093Y-75743943D01*
X189111791Y-75681162D01*
X189111789Y-75681161D01*
X188966753Y-75662067D01*
X188871288Y-75649500D01*
X188628712Y-75649500D01*
X188540268Y-75661143D01*
X188388210Y-75681161D01*
X188388208Y-75681162D01*
X188153906Y-75743943D01*
X187929781Y-75836779D01*
X187719709Y-75958064D01*
X187527267Y-76105730D01*
X187355730Y-76277267D01*
X187208064Y-76469709D01*
X187086779Y-76679781D01*
X186993943Y-76903906D01*
X186931162Y-77138208D01*
X186931161Y-77138210D01*
X186913483Y-77272498D01*
X186899500Y-77378712D01*
X124350500Y-77378712D01*
X124318838Y-77138211D01*
X124256054Y-76903900D01*
X124163224Y-76679788D01*
X124041936Y-76469711D01*
X124041935Y-76469709D01*
X123894269Y-76277267D01*
X123894268Y-76277266D01*
X123894265Y-76277262D01*
X123722738Y-76105735D01*
X123722733Y-76105731D01*
X123722732Y-76105730D01*
X123530290Y-75958064D01*
X123320218Y-75836779D01*
X123320215Y-75836777D01*
X123320212Y-75836776D01*
X123096100Y-75743946D01*
X123096093Y-75743943D01*
X122861791Y-75681162D01*
X122861789Y-75681161D01*
X122716753Y-75662067D01*
X122621288Y-75649500D01*
X122378712Y-75649500D01*
X122290268Y-75661143D01*
X122138210Y-75681161D01*
X122138208Y-75681162D01*
X121903906Y-75743943D01*
X121679781Y-75836779D01*
X121469709Y-75958064D01*
X121277267Y-76105730D01*
X121105730Y-76277267D01*
X120958064Y-76469709D01*
X120836779Y-76679781D01*
X120743943Y-76903906D01*
X120681162Y-77138208D01*
X120681161Y-77138210D01*
X120663483Y-77272498D01*
X120649500Y-77378712D01*
X118005795Y-77378712D01*
X118016862Y-77125238D01*
X118019892Y-77090597D01*
X118066588Y-76735907D01*
X118072624Y-76701681D01*
X118150049Y-76352437D01*
X118159051Y-76318843D01*
X118266620Y-75977676D01*
X118278508Y-75945011D01*
X118415409Y-75614502D01*
X118430105Y-75582989D01*
X118595288Y-75265675D01*
X118612660Y-75235586D01*
X118804872Y-74933874D01*
X118824818Y-74905387D01*
X119042592Y-74621578D01*
X119064930Y-74594956D01*
X119306621Y-74331197D01*
X119331197Y-74306621D01*
X119594956Y-74064930D01*
X119621578Y-74042592D01*
X119905387Y-73824818D01*
X119933874Y-73804872D01*
X120235586Y-73612660D01*
X120265675Y-73595288D01*
X120582989Y-73430105D01*
X120614502Y-73415409D01*
X120945011Y-73278508D01*
X120977676Y-73266620D01*
X121318843Y-73159051D01*
X121352437Y-73150049D01*
X121701681Y-73072624D01*
X121735907Y-73066588D01*
X122090597Y-73019892D01*
X122125238Y-73016862D01*
X122491297Y-73000880D01*
X122508701Y-73000500D01*
X122565892Y-73000500D01*
X175411411Y-73000500D01*
X175534709Y-73020028D01*
G37*
%TD.AperFunction*%
%TD*%
M02*
