%TF.GenerationSoftware,KiCad,Pcbnew,8.0.7*%
%TF.CreationDate,2024-12-25T21:29:49+07:00*%
%TF.ProjectId,Morphex-PCB,4d6f7270-6865-4782-9d50-43422e6b6963,rev?*%
%TF.SameCoordinates,Original*%
%TF.FileFunction,Soldermask,Top*%
%TF.FilePolarity,Negative*%
%FSLAX46Y46*%
G04 Gerber Fmt 4.6, Leading zero omitted, Abs format (unit mm)*
G04 Created by KiCad (PCBNEW 8.0.7) date 2024-12-25 21:29:49*
%MOMM*%
%LPD*%
G01*
G04 APERTURE LIST*
G04 Aperture macros list*
%AMRoundRect*
0 Rectangle with rounded corners*
0 $1 Rounding radius*
0 $2 $3 $4 $5 $6 $7 $8 $9 X,Y pos of 4 corners*
0 Add a 4 corners polygon primitive as box body*
4,1,4,$2,$3,$4,$5,$6,$7,$8,$9,$2,$3,0*
0 Add four circle primitives for the rounded corners*
1,1,$1+$1,$2,$3*
1,1,$1+$1,$4,$5*
1,1,$1+$1,$6,$7*
1,1,$1+$1,$8,$9*
0 Add four rect primitives between the rounded corners*
20,1,$1+$1,$2,$3,$4,$5,0*
20,1,$1+$1,$4,$5,$6,$7,0*
20,1,$1+$1,$6,$7,$8,$9,0*
20,1,$1+$1,$8,$9,$2,$3,0*%
G04 Aperture macros list end*
%ADD10RoundRect,0.250000X0.625000X-0.350000X0.625000X0.350000X-0.625000X0.350000X-0.625000X-0.350000X0*%
%ADD11O,1.750000X1.200000*%
%ADD12RoundRect,0.250000X0.337500X0.475000X-0.337500X0.475000X-0.337500X-0.475000X0.337500X-0.475000X0*%
%ADD13R,1.700000X1.700000*%
%ADD14O,1.700000X1.700000*%
%ADD15C,1.700000*%
%ADD16R,0.850000X0.300000*%
%ADD17RoundRect,0.250000X-0.475000X0.337500X-0.475000X-0.337500X0.475000X-0.337500X0.475000X0.337500X0*%
%ADD18C,3.200000*%
%ADD19RoundRect,0.250000X-0.337500X-0.475000X0.337500X-0.475000X0.337500X0.475000X-0.337500X0.475000X0*%
%ADD20RoundRect,0.250000X0.475000X-0.337500X0.475000X0.337500X-0.475000X0.337500X-0.475000X-0.337500X0*%
%ADD21R,2.600000X2.600000*%
%ADD22C,2.600000*%
%ADD23R,0.939800X2.489200*%
%ADD24R,5.562600X6.299200*%
%ADD25RoundRect,0.237500X-0.237500X0.250000X-0.237500X-0.250000X0.237500X-0.250000X0.237500X0.250000X0*%
%ADD26RoundRect,0.237500X-0.250000X-0.237500X0.250000X-0.237500X0.250000X0.237500X-0.250000X0.237500X0*%
%ADD27C,2.000000*%
%ADD28R,0.675000X0.254000*%
%ADD29R,0.254000X0.675000*%
%ADD30RoundRect,0.237500X-0.237500X0.300000X-0.237500X-0.300000X0.237500X-0.300000X0.237500X0.300000X0*%
%ADD31R,1.475000X0.450000*%
%ADD32RoundRect,0.237500X0.250000X0.237500X-0.250000X0.237500X-0.250000X-0.237500X0.250000X-0.237500X0*%
%ADD33C,1.512000*%
%ADD34C,1.462000*%
%ADD35C,1.412000*%
G04 APERTURE END LIST*
D10*
%TO.C,servo11*%
X173000000Y-127250000D03*
D11*
X173000000Y-125250000D03*
X173000000Y-123250000D03*
%TD*%
D12*
%TO.C,C6*%
X179537500Y-104750000D03*
X177462500Y-104750000D03*
%TD*%
D10*
%TO.C,servo2*%
X173000000Y-117250000D03*
D11*
X173000000Y-115250000D03*
X173000000Y-113250000D03*
%TD*%
D13*
%TO.C,3.3V*%
X185120000Y-85000000D03*
D14*
X187660000Y-85000000D03*
X190200000Y-85000000D03*
%TD*%
D13*
%TO.C,U2*%
X154040000Y-87120000D03*
D15*
X151500000Y-87120000D03*
X154040000Y-84580000D03*
X151500000Y-84580000D03*
X154040000Y-82040000D03*
X151500000Y-82040000D03*
X154040000Y-79500000D03*
X151500000Y-79500000D03*
%TD*%
D16*
%TO.C,IC2*%
X156825000Y-99000000D03*
X156825000Y-98500000D03*
X156825000Y-98000000D03*
X156825000Y-97500000D03*
X153675000Y-97500000D03*
X153675000Y-98000000D03*
X153675000Y-98500000D03*
X153675000Y-99000000D03*
%TD*%
D13*
%TO.C,J2*%
X161900000Y-83460000D03*
D14*
X161900000Y-86000000D03*
%TD*%
D10*
%TO.C,servo6*%
X150500000Y-117250000D03*
D11*
X150500000Y-115250000D03*
X150500000Y-113250000D03*
%TD*%
D10*
%TO.C,servo13*%
X135500000Y-117250000D03*
D11*
X135500000Y-115250000D03*
X135500000Y-113250000D03*
%TD*%
D17*
%TO.C,C3*%
X148200000Y-85362500D03*
X148200000Y-87437500D03*
%TD*%
D18*
%TO.C,H4*%
X122500000Y-126000000D03*
%TD*%
D10*
%TO.C,servo10*%
X143000000Y-127250000D03*
D11*
X143000000Y-125250000D03*
X143000000Y-123250000D03*
%TD*%
D19*
%TO.C,C2*%
X120675000Y-86750000D03*
X122750000Y-86750000D03*
%TD*%
D20*
%TO.C,C7*%
X171750000Y-103287500D03*
X171750000Y-101212500D03*
%TD*%
D13*
%TO.C,J5*%
X170150000Y-83460000D03*
D14*
X170150000Y-86000000D03*
%TD*%
D21*
%TO.C,Main Terminal*%
X124445000Y-113205000D03*
D22*
X124445000Y-118285000D03*
%TD*%
D23*
%TO.C,33R*%
X190786000Y-108861900D03*
X186214000Y-108861900D03*
D24*
X188500000Y-117015300D03*
%TD*%
D25*
%TO.C,R4*%
X184200000Y-79487500D03*
X184200000Y-81312500D03*
%TD*%
D18*
%TO.C,H2*%
X188750000Y-77500000D03*
%TD*%
D26*
%TO.C,R1*%
X142087500Y-105250000D03*
X143912500Y-105250000D03*
%TD*%
D18*
%TO.C,H3*%
X188750000Y-126000000D03*
%TD*%
D13*
%TO.C,J4*%
X167400000Y-83460000D03*
D14*
X167400000Y-86000000D03*
%TD*%
D10*
%TO.C,servo5*%
X150500000Y-127250000D03*
D11*
X150500000Y-125250000D03*
X150500000Y-123250000D03*
%TD*%
D10*
%TO.C,servo8*%
X165500000Y-127250000D03*
D11*
X165500000Y-125250000D03*
X165500000Y-123250000D03*
%TD*%
D10*
%TO.C,servo3*%
X180200000Y-122250000D03*
D11*
X180200000Y-120250000D03*
X180200000Y-118250000D03*
%TD*%
D17*
%TO.C,C4*%
X140000000Y-103212500D03*
X140000000Y-105287500D03*
%TD*%
D13*
%TO.C,J3*%
X164650000Y-83460000D03*
D14*
X164650000Y-86000000D03*
%TD*%
D19*
%TO.C,C5*%
X146962500Y-94800000D03*
X149037500Y-94800000D03*
%TD*%
D25*
%TO.C,R3*%
X182000000Y-96587500D03*
X182000000Y-98412500D03*
%TD*%
D10*
%TO.C,servo7*%
X165500000Y-117250000D03*
D11*
X165500000Y-115250000D03*
X165500000Y-113250000D03*
%TD*%
D27*
%TO.C,SW1*%
X176750000Y-81250000D03*
X176750000Y-74750000D03*
X181250000Y-81250000D03*
X181250000Y-74750000D03*
%TD*%
D10*
%TO.C,servo12*%
X158000000Y-127250000D03*
D11*
X158000000Y-125250000D03*
X158000000Y-123250000D03*
%TD*%
D28*
%TO.C,U3*%
X176250000Y-101750000D03*
D29*
X177162500Y-101887500D03*
X177662500Y-101887500D03*
X178162500Y-101887500D03*
X178662500Y-101887500D03*
D28*
X179575000Y-101750000D03*
X179575000Y-101250000D03*
X179575000Y-100750000D03*
X179575000Y-100250000D03*
X179575000Y-99750000D03*
X179575000Y-99250000D03*
X179575000Y-98750000D03*
X179575000Y-98250000D03*
X179575000Y-97750000D03*
X179575000Y-97250000D03*
D29*
X178662500Y-97112500D03*
X178162500Y-97112500D03*
X177662500Y-97112500D03*
X177162500Y-97112500D03*
D28*
X176250000Y-97250000D03*
X176250000Y-97750000D03*
X176250000Y-98250000D03*
X176250000Y-98750000D03*
X176250000Y-99250000D03*
X176250000Y-99750000D03*
X176250000Y-100250000D03*
X176250000Y-100750000D03*
X176250000Y-101250000D03*
%TD*%
D10*
%TO.C,servo9*%
X135500000Y-127250000D03*
D11*
X135500000Y-125250000D03*
X135500000Y-123250000D03*
%TD*%
D20*
%TO.C,C9*%
X182000000Y-104637500D03*
X182000000Y-102562500D03*
%TD*%
D23*
%TO.C,50R*%
X190786000Y-94096600D03*
X186214000Y-94096600D03*
D24*
X188500000Y-102250000D03*
%TD*%
D30*
%TO.C,C8*%
X174000000Y-101775000D03*
X174000000Y-103500000D03*
%TD*%
D31*
%TO.C,IC1*%
X142874000Y-97325000D03*
X142874000Y-97975000D03*
X142874000Y-98625000D03*
X142874000Y-99275000D03*
X142874000Y-99925000D03*
X142874000Y-100575000D03*
X142874000Y-101225000D03*
X142874000Y-101875000D03*
X142874000Y-102525000D03*
X142874000Y-103175000D03*
X148750000Y-103175000D03*
X148750000Y-102525000D03*
X148750000Y-101875000D03*
X148750000Y-101225000D03*
X148750000Y-100575000D03*
X148750000Y-99925000D03*
X148750000Y-99275000D03*
X148750000Y-98625000D03*
X148750000Y-97975000D03*
X148750000Y-97325000D03*
%TD*%
D32*
%TO.C,R2*%
X179112500Y-95200000D03*
X177287500Y-95200000D03*
%TD*%
D19*
%TO.C,C1*%
X120675000Y-83740000D03*
X122750000Y-83740000D03*
%TD*%
D10*
%TO.C,servo4*%
X143000000Y-117250000D03*
D11*
X143000000Y-115250000D03*
X143000000Y-113250000D03*
%TD*%
D18*
%TO.C,H1*%
X122500000Y-77500000D03*
%TD*%
D13*
%TO.C,5V*%
X185120000Y-89650000D03*
D14*
X187660000Y-89650000D03*
X190200000Y-89650000D03*
%TD*%
D10*
%TO.C,servo1*%
X158000000Y-117250000D03*
D11*
X158000000Y-115250000D03*
X158000000Y-113250000D03*
%TD*%
D33*
%TO.C,U1*%
X123180000Y-107352500D03*
X125720000Y-107352500D03*
X128260000Y-107352500D03*
X130800000Y-107352500D03*
X156200000Y-107352500D03*
X125720000Y-92112500D03*
X166360000Y-102272500D03*
X133340000Y-107352500D03*
X135880000Y-107352500D03*
D34*
X126990000Y-104302500D03*
D33*
X138420000Y-107352500D03*
X140960000Y-107352500D03*
X143500000Y-107352500D03*
X146040000Y-107352500D03*
X148580000Y-107352500D03*
X151120000Y-107352500D03*
X153660000Y-107352500D03*
X153660000Y-92112500D03*
X151120000Y-92112500D03*
X148580000Y-92112500D03*
X146040000Y-92112500D03*
X143500000Y-92112500D03*
X140960000Y-92112500D03*
X138420000Y-92112500D03*
X135880000Y-92112500D03*
X133340000Y-92112500D03*
X130800000Y-92112500D03*
X128260000Y-92112500D03*
X158740000Y-107352500D03*
X161280000Y-107352500D03*
X163820000Y-107352500D03*
X166360000Y-107352500D03*
X168900000Y-107352500D03*
X171440000Y-107352500D03*
X173980000Y-107352500D03*
X176520000Y-107352500D03*
X179060000Y-107352500D03*
X179060000Y-92112500D03*
X176520000Y-92112500D03*
X173980000Y-92112500D03*
X171440000Y-92112500D03*
X168900000Y-92112500D03*
X166360000Y-92112500D03*
X163820000Y-92112500D03*
X161280000Y-92112500D03*
X158740000Y-92112500D03*
D34*
X132070000Y-104302500D03*
X129530000Y-104302500D03*
D33*
X120640000Y-107352500D03*
X156200000Y-92112500D03*
X123180000Y-92112500D03*
X166360000Y-99732500D03*
D35*
X135610000Y-96562500D03*
X133610000Y-96562500D03*
D33*
X166360000Y-94652500D03*
X166360000Y-97192500D03*
D35*
X133610000Y-94562500D03*
X135610000Y-94562500D03*
X135610000Y-98562500D03*
X133610000Y-98562500D03*
D34*
X134610000Y-104302500D03*
X137150000Y-104302500D03*
D33*
X166360000Y-104812500D03*
X120640000Y-92112500D03*
X123180000Y-94652500D03*
%TD*%
M02*
