%TF.GenerationSoftware,KiCad,Pcbnew,8.0.6*%
%TF.CreationDate,2024-12-25T20:40:02+07:00*%
%TF.ProjectId,Morphex-PCB,4d6f7270-6865-4782-9d50-43422e6b6963,rev?*%
%TF.SameCoordinates,Original*%
%TF.FileFunction,Soldermask,Bot*%
%TF.FilePolarity,Negative*%
%FSLAX46Y46*%
G04 Gerber Fmt 4.6, Leading zero omitted, Abs format (unit mm)*
G04 Created by KiCad (PCBNEW 8.0.6) date 2024-12-25 20:40:02*
%MOMM*%
%LPD*%
G01*
G04 APERTURE LIST*
G04 Aperture macros list*
%AMRoundRect*
0 Rectangle with rounded corners*
0 $1 Rounding radius*
0 $2 $3 $4 $5 $6 $7 $8 $9 X,Y pos of 4 corners*
0 Add a 4 corners polygon primitive as box body*
4,1,4,$2,$3,$4,$5,$6,$7,$8,$9,$2,$3,0*
0 Add four circle primitives for the rounded corners*
1,1,$1+$1,$2,$3*
1,1,$1+$1,$4,$5*
1,1,$1+$1,$6,$7*
1,1,$1+$1,$8,$9*
0 Add four rect primitives between the rounded corners*
20,1,$1+$1,$2,$3,$4,$5,0*
20,1,$1+$1,$4,$5,$6,$7,0*
20,1,$1+$1,$6,$7,$8,$9,0*
20,1,$1+$1,$8,$9,$2,$3,0*%
G04 Aperture macros list end*
%ADD10C,1.512000*%
%ADD11C,1.462000*%
%ADD12C,1.412000*%
%ADD13RoundRect,0.250000X0.625000X-0.350000X0.625000X0.350000X-0.625000X0.350000X-0.625000X-0.350000X0*%
%ADD14O,1.750000X1.200000*%
%ADD15R,1.700000X1.700000*%
%ADD16C,1.700000*%
%ADD17O,1.700000X1.700000*%
%ADD18C,3.200000*%
%ADD19C,2.000000*%
%ADD20R,2.600000X2.600000*%
%ADD21C,2.600000*%
G04 APERTURE END LIST*
D10*
%TO.C,U1*%
X123180000Y-94652500D03*
X120640000Y-92112500D03*
X166360000Y-104812500D03*
D11*
X137150000Y-104302500D03*
X134610000Y-104302500D03*
D12*
X133610000Y-98562500D03*
X135610000Y-98562500D03*
X135610000Y-94562500D03*
X133610000Y-94562500D03*
D10*
X166360000Y-97192500D03*
X166360000Y-94652500D03*
D12*
X133610000Y-96562500D03*
X135610000Y-96562500D03*
D10*
X166360000Y-99732500D03*
X123180000Y-92112500D03*
X156200000Y-92112500D03*
X120640000Y-107352500D03*
D11*
X129530000Y-104302500D03*
X132070000Y-104302500D03*
D10*
X158740000Y-92112500D03*
X161280000Y-92112500D03*
X163820000Y-92112500D03*
X166360000Y-92112500D03*
X168900000Y-92112500D03*
X171440000Y-92112500D03*
X173980000Y-92112500D03*
X176520000Y-92112500D03*
X179060000Y-92112500D03*
X179060000Y-107352500D03*
X176520000Y-107352500D03*
X173980000Y-107352500D03*
X171440000Y-107352500D03*
X168900000Y-107352500D03*
X166360000Y-107352500D03*
X163820000Y-107352500D03*
X161280000Y-107352500D03*
X158740000Y-107352500D03*
X128260000Y-92112500D03*
X130800000Y-92112500D03*
X133340000Y-92112500D03*
X135880000Y-92112500D03*
X138420000Y-92112500D03*
X140960000Y-92112500D03*
X143500000Y-92112500D03*
X146040000Y-92112500D03*
X148580000Y-92112500D03*
X151120000Y-92112500D03*
X153660000Y-92112500D03*
X153660000Y-107352500D03*
X151120000Y-107352500D03*
X148580000Y-107352500D03*
X146040000Y-107352500D03*
X143500000Y-107352500D03*
X140960000Y-107352500D03*
X138420000Y-107352500D03*
D11*
X126990000Y-104302500D03*
D10*
X135880000Y-107352500D03*
X133340000Y-107352500D03*
X166360000Y-102272500D03*
X125720000Y-92112500D03*
X156200000Y-107352500D03*
X130800000Y-107352500D03*
X128260000Y-107352500D03*
X125720000Y-107352500D03*
X123180000Y-107352500D03*
%TD*%
D13*
%TO.C,servo11*%
X173000000Y-127250000D03*
D14*
X173000000Y-125250000D03*
X173000000Y-123250000D03*
%TD*%
D13*
%TO.C,servo2*%
X173000000Y-117250000D03*
D14*
X173000000Y-115250000D03*
X173000000Y-113250000D03*
%TD*%
D15*
%TO.C,U2*%
X154040000Y-87120000D03*
D16*
X151500000Y-87120000D03*
X154040000Y-84580000D03*
X151500000Y-84580000D03*
X154040000Y-82040000D03*
X151500000Y-82040000D03*
X154040000Y-79500000D03*
X151500000Y-79500000D03*
%TD*%
D15*
%TO.C,J2*%
X161900000Y-83460000D03*
D17*
X161900000Y-86000000D03*
%TD*%
D13*
%TO.C,servo6*%
X150500000Y-117250000D03*
D14*
X150500000Y-115250000D03*
X150500000Y-113250000D03*
%TD*%
D13*
%TO.C,servo13*%
X135500000Y-117250000D03*
D14*
X135500000Y-115250000D03*
X135500000Y-113250000D03*
%TD*%
D18*
%TO.C,H4*%
X122500000Y-126000000D03*
%TD*%
D13*
%TO.C,servo10*%
X143000000Y-127250000D03*
D14*
X143000000Y-125250000D03*
X143000000Y-123250000D03*
%TD*%
D15*
%TO.C,J5*%
X170150000Y-83460000D03*
D17*
X170150000Y-86000000D03*
%TD*%
D18*
%TO.C,H2*%
X188750000Y-77500000D03*
%TD*%
%TO.C,H3*%
X188750000Y-126000000D03*
%TD*%
D15*
%TO.C,J4*%
X167400000Y-83460000D03*
D17*
X167400000Y-86000000D03*
%TD*%
D13*
%TO.C,servo5*%
X150500000Y-127250000D03*
D14*
X150500000Y-125250000D03*
X150500000Y-123250000D03*
%TD*%
D13*
%TO.C,servo8*%
X165500000Y-127250000D03*
D14*
X165500000Y-125250000D03*
X165500000Y-123250000D03*
%TD*%
D13*
%TO.C,servo3*%
X180200000Y-122250000D03*
D14*
X180200000Y-120250000D03*
X180200000Y-118250000D03*
%TD*%
D15*
%TO.C,J3*%
X164650000Y-83460000D03*
D17*
X164650000Y-86000000D03*
%TD*%
D13*
%TO.C,servo7*%
X165500000Y-117250000D03*
D14*
X165500000Y-115250000D03*
X165500000Y-113250000D03*
%TD*%
D19*
%TO.C,SW1*%
X176750000Y-81250000D03*
X176750000Y-74750000D03*
X181250000Y-81250000D03*
X181250000Y-74750000D03*
%TD*%
D13*
%TO.C,servo12*%
X158000000Y-127250000D03*
D14*
X158000000Y-125250000D03*
X158000000Y-123250000D03*
%TD*%
D13*
%TO.C,servo9*%
X135500000Y-127250000D03*
D14*
X135500000Y-125250000D03*
X135500000Y-123250000D03*
%TD*%
D13*
%TO.C,servo4*%
X143000000Y-117250000D03*
D14*
X143000000Y-115250000D03*
X143000000Y-113250000D03*
%TD*%
D18*
%TO.C,H1*%
X122500000Y-77500000D03*
%TD*%
D13*
%TO.C,servo1*%
X158000000Y-117250000D03*
D14*
X158000000Y-115250000D03*
X158000000Y-113250000D03*
%TD*%
D15*
%TO.C,5V*%
X185120000Y-89650000D03*
D17*
X187660000Y-89650000D03*
X190200000Y-89650000D03*
%TD*%
D20*
%TO.C,Main Terminal*%
X124445000Y-113205000D03*
D21*
X124445000Y-118285000D03*
%TD*%
D15*
%TO.C,3.3V*%
X185120000Y-85000000D03*
D17*
X187660000Y-85000000D03*
X190200000Y-85000000D03*
%TD*%
M02*
