%TF.GenerationSoftware,KiCad,Pcbnew,8.0.7*%
%TF.CreationDate,2024-12-26T23:36:22+07:00*%
%TF.ProjectId,Teensy4.0PCB,5465656e-7379-4342-9e30-5043422e6b69,rev?*%
%TF.SameCoordinates,Original*%
%TF.FileFunction,Copper,L4,Bot*%
%TF.FilePolarity,Positive*%
%FSLAX46Y46*%
G04 Gerber Fmt 4.6, Leading zero omitted, Abs format (unit mm)*
G04 Created by KiCad (PCBNEW 8.0.7) date 2024-12-26 23:36:22*
%MOMM*%
%LPD*%
G01*
G04 APERTURE LIST*
G04 Aperture macros list*
%AMRoundRect*
0 Rectangle with rounded corners*
0 $1 Rounding radius*
0 $2 $3 $4 $5 $6 $7 $8 $9 X,Y pos of 4 corners*
0 Add a 4 corners polygon primitive as box body*
4,1,4,$2,$3,$4,$5,$6,$7,$8,$9,$2,$3,0*
0 Add four circle primitives for the rounded corners*
1,1,$1+$1,$2,$3*
1,1,$1+$1,$4,$5*
1,1,$1+$1,$6,$7*
1,1,$1+$1,$8,$9*
0 Add four rect primitives between the rounded corners*
20,1,$1+$1,$2,$3,$4,$5,0*
20,1,$1+$1,$4,$5,$6,$7,0*
20,1,$1+$1,$6,$7,$8,$9,0*
20,1,$1+$1,$8,$9,$2,$3,0*%
G04 Aperture macros list end*
%TA.AperFunction,ComponentPad*%
%ADD10R,1.700000X1.700000*%
%TD*%
%TA.AperFunction,ComponentPad*%
%ADD11O,1.700000X1.700000*%
%TD*%
%TA.AperFunction,ComponentPad*%
%ADD12C,2.000000*%
%TD*%
%TA.AperFunction,ComponentPad*%
%ADD13RoundRect,0.250000X-0.350000X-0.625000X0.350000X-0.625000X0.350000X0.625000X-0.350000X0.625000X0*%
%TD*%
%TA.AperFunction,ComponentPad*%
%ADD14O,1.200000X1.750000*%
%TD*%
%TA.AperFunction,ComponentPad*%
%ADD15R,2.600000X2.600000*%
%TD*%
%TA.AperFunction,ComponentPad*%
%ADD16C,2.600000*%
%TD*%
%TA.AperFunction,ComponentPad*%
%ADD17C,1.700000*%
%TD*%
%TA.AperFunction,ComponentPad*%
%ADD18C,1.404000*%
%TD*%
%TA.AperFunction,ComponentPad*%
%ADD19C,1.304000*%
%TD*%
%TA.AperFunction,ComponentPad*%
%ADD20C,0.804000*%
%TD*%
%TA.AperFunction,ViaPad*%
%ADD21C,0.700000*%
%TD*%
%TA.AperFunction,ViaPad*%
%ADD22C,1.000000*%
%TD*%
%TA.AperFunction,Conductor*%
%ADD23C,0.200000*%
%TD*%
%TA.AperFunction,Conductor*%
%ADD24C,0.300000*%
%TD*%
%TA.AperFunction,Conductor*%
%ADD25C,1.000000*%
%TD*%
%TA.AperFunction,Conductor*%
%ADD26C,0.500000*%
%TD*%
G04 APERTURE END LIST*
D10*
%TO.P,3.3V,1,Pin_1*%
%TO.N,+3.3V*%
X153650000Y-120540000D03*
D11*
%TO.P,3.3V,2,Pin_2*%
X153650000Y-118000000D03*
%TO.P,3.3V,3,Pin_3*%
X153650000Y-115460000D03*
%TD*%
D12*
%TO.P,Button1,1,1*%
%TO.N,/button_pin*%
X148750000Y-104750000D03*
X155250000Y-104750000D03*
%TO.P,Button1,2,2*%
%TO.N,Net-(Button1-Pad2)*%
X148750000Y-109250000D03*
X155250000Y-109250000D03*
%TD*%
D10*
%TO.P,5V,1,Pin_1*%
%TO.N,+5V*%
X149000000Y-120540000D03*
D11*
%TO.P,5V,2,Pin_2*%
X149000000Y-118000000D03*
%TO.P,5V,3,Pin_3*%
X149000000Y-115460000D03*
%TD*%
D10*
%TO.P,GND,1,Pin_1*%
%TO.N,GND*%
X144350000Y-120540000D03*
D11*
%TO.P,GND,2,Pin_2*%
X144350000Y-118000000D03*
%TO.P,GND,3,Pin_3*%
X144350000Y-115460000D03*
%TD*%
D13*
%TO.P,servo11,1,Pin_1*%
%TO.N,GND*%
X165000000Y-71000000D03*
D14*
%TO.P,servo11,2,Pin_2*%
%TO.N,VCC*%
X167000000Y-71000000D03*
%TO.P,servo11,3,Pin_3*%
%TO.N,Net-(IC2-A2)*%
X169000000Y-71000000D03*
%TD*%
D15*
%TO.P,Main-Terminal1,1,Pin_1*%
%TO.N,VCC*%
X115695000Y-107455000D03*
D16*
%TO.P,Main-Terminal1,2,Pin_2*%
%TO.N,GND*%
X115695000Y-112535000D03*
%TD*%
D14*
%TO.P,servo10,3,Pin_3*%
%TO.N,Net-(IC2-A2)*%
X180000000Y-105500000D03*
%TO.P,servo10,2,Pin_2*%
%TO.N,VCC*%
X178000000Y-105500000D03*
D13*
%TO.P,servo10,1,Pin_1*%
%TO.N,GND*%
X176000000Y-105500000D03*
%TD*%
%TO.P,servo1,1,Pin_1*%
%TO.N,GND*%
X165000000Y-85450000D03*
D14*
%TO.P,servo1,2,Pin_2*%
%TO.N,VCC*%
X167000000Y-85450000D03*
%TO.P,servo1,3,Pin_3*%
%TO.N,Net-(IC2-A2)*%
X169000000Y-85450000D03*
%TD*%
D10*
%TO.P,S4,1,Pin_1*%
%TO.N,/serial_rx4*%
X132490000Y-117990000D03*
D11*
%TO.P,S4,2,Pin_2*%
%TO.N,/serial_tx4*%
X132490000Y-120530000D03*
%TD*%
D13*
%TO.P,servo9,1,Pin_1*%
%TO.N,GND*%
X165000000Y-112450000D03*
D14*
%TO.P,servo9,2,Pin_2*%
%TO.N,VCC*%
X167000000Y-112450000D03*
%TO.P,servo9,3,Pin_3*%
%TO.N,Net-(IC2-A2)*%
X169000000Y-112450000D03*
%TD*%
%TO.P,servo3,3,Pin_3*%
%TO.N,Net-(IC2-A2)*%
X180000000Y-85050000D03*
%TO.P,servo3,2,Pin_2*%
%TO.N,VCC*%
X178000000Y-85050000D03*
D13*
%TO.P,servo3,1,Pin_1*%
%TO.N,GND*%
X176000000Y-85050000D03*
%TD*%
D14*
%TO.P,servo7,3,Pin_3*%
%TO.N,Net-(IC2-A2)*%
X180000000Y-91500000D03*
%TO.P,servo7,2,Pin_2*%
%TO.N,VCC*%
X178000000Y-91500000D03*
D13*
%TO.P,servo7,1,Pin_1*%
%TO.N,GND*%
X176000000Y-91500000D03*
%TD*%
D14*
%TO.P,servo5,3,Pin_3*%
%TO.N,Net-(IC2-A2)*%
X180000000Y-98500000D03*
%TO.P,servo5,2,Pin_2*%
%TO.N,VCC*%
X178000000Y-98500000D03*
D13*
%TO.P,servo5,1,Pin_1*%
%TO.N,GND*%
X176000000Y-98500000D03*
%TD*%
%TO.P,servo8,1,Pin_1*%
%TO.N,GND*%
X165000000Y-99000000D03*
D14*
%TO.P,servo8,2,Pin_2*%
%TO.N,VCC*%
X167000000Y-99000000D03*
%TO.P,servo8,3,Pin_3*%
%TO.N,Net-(IC2-A2)*%
X169000000Y-99000000D03*
%TD*%
D13*
%TO.P,servo4,1,Pin_1*%
%TO.N,GND*%
X165000000Y-92000000D03*
D14*
%TO.P,servo4,2,Pin_2*%
%TO.N,VCC*%
X167000000Y-92000000D03*
%TO.P,servo4,3,Pin_3*%
%TO.N,Net-(IC2-A2)*%
X169000000Y-92000000D03*
%TD*%
D10*
%TO.P,S5,1,Pin_1*%
%TO.N,/serial_rx5*%
X137140000Y-117990000D03*
D11*
%TO.P,S5,2,Pin_2*%
%TO.N,/serial_tx5*%
X137140000Y-120530000D03*
%TD*%
D14*
%TO.P,servo2,3,Pin_3*%
%TO.N,Net-(IC2-A2)*%
X180000000Y-78500000D03*
%TO.P,servo2,2,Pin_2*%
%TO.N,VCC*%
X178000000Y-78500000D03*
D13*
%TO.P,servo2,1,Pin_1*%
%TO.N,GND*%
X176000000Y-78500000D03*
%TD*%
D10*
%TO.P,J2,1,Pin_1*%
%TO.N,Net-(J2-Pin_1)*%
X127460000Y-107000000D03*
D11*
%TO.P,J2,2,Pin_2*%
%TO.N,Net-(J2-Pin_2)*%
X130000000Y-107000000D03*
%TO.P,J2,3,Pin_3*%
%TO.N,Net-(J2-Pin_3)*%
X132540000Y-107000000D03*
%TO.P,J2,4,Pin_4*%
%TO.N,Net-(J2-Pin_4)*%
X135080000Y-107000000D03*
%TD*%
D10*
%TO.P,S3,1,Pin_1*%
%TO.N,/serial_rx3*%
X127840000Y-117990000D03*
D11*
%TO.P,S3,2,Pin_2*%
%TO.N,/serial_tx3*%
X127840000Y-120530000D03*
%TD*%
D13*
%TO.P,servo6,1,Pin_1*%
%TO.N,GND*%
X165000000Y-106000000D03*
D14*
%TO.P,servo6,2,Pin_2*%
%TO.N,VCC*%
X167000000Y-106000000D03*
%TO.P,servo6,3,Pin_3*%
%TO.N,Net-(IC2-A2)*%
X169000000Y-106000000D03*
%TD*%
D13*
%TO.P,servo13,1,Pin_1*%
%TO.N,GND*%
X165000000Y-78450000D03*
D14*
%TO.P,servo13,2,Pin_2*%
%TO.N,VCC*%
X167000000Y-78450000D03*
%TO.P,servo13,3,Pin_3*%
%TO.N,Net-(IC2-A2)*%
X169000000Y-78450000D03*
%TD*%
D10*
%TO.P,J1,1,Pin_1*%
%TO.N,Net-(J1-Pin_1)*%
X127460000Y-111650000D03*
D11*
%TO.P,J1,2,Pin_2*%
%TO.N,Net-(J1-Pin_2)*%
X130000000Y-111650000D03*
%TO.P,J1,3,Pin_3*%
%TO.N,Net-(J1-Pin_3)*%
X132540000Y-111650000D03*
%TO.P,J1,4,Pin_4*%
%TO.N,Net-(J1-Pin_4)*%
X135080000Y-111650000D03*
%TD*%
D14*
%TO.P,servo12,3,Pin_3*%
%TO.N,Net-(IC2-A2)*%
X180000000Y-112250000D03*
%TO.P,servo12,2,Pin_2*%
%TO.N,VCC*%
X178000000Y-112250000D03*
D13*
%TO.P,servo12,1,Pin_1*%
%TO.N,GND*%
X176000000Y-112250000D03*
%TD*%
D10*
%TO.P,U2,1,GND*%
%TO.N,GND*%
X145789500Y-81625000D03*
D17*
%TO.P,U2,2,VCC*%
%TO.N,+3.3V*%
X143249500Y-81625000D03*
%TO.P,U2,3,CE*%
%TO.N,/NRF_CE*%
X145789500Y-79085000D03*
%TO.P,U2,4,~{CSN}*%
%TO.N,/NRF_CS*%
X143249500Y-79085000D03*
%TO.P,U2,5,SCK*%
%TO.N,/NRF_SCK*%
X145789500Y-76545000D03*
%TO.P,U2,6,MOSI*%
%TO.N,/NRF_MOSI*%
X143249500Y-76545000D03*
%TO.P,U2,7,MISO*%
%TO.N,/NRF_MISO*%
X145789500Y-74005000D03*
%TO.P,U2,8,IRQ*%
%TO.N,unconnected-(U2-IRQ-Pad8)*%
X143249500Y-74005000D03*
%TD*%
D18*
%TO.P,U1,1,GND*%
%TO.N,GND*%
X111725000Y-102620000D03*
%TO.P,U1,2,0_RX1_CRX2_CS1*%
%TO.N,/servo_rx1*%
X114265000Y-102620000D03*
%TO.P,U1,3,1_TX1_CTX2_MISO1*%
%TO.N,/servo_tx1*%
X116805000Y-102620000D03*
%TO.P,U1,4,2_OUT2*%
%TO.N,/servo_dir*%
X119345000Y-102620000D03*
%TO.P,U1,5,3_LRCLK2*%
%TO.N,/button_pin*%
X121885000Y-102620000D03*
%TO.P,U1,6,4_BCLK2*%
%TO.N,unconnected-(U1-4_BCLK2-Pad6)*%
X124425000Y-102620000D03*
%TO.P,U1,7,5_IN2*%
%TO.N,/BNO_RESET*%
X126965000Y-102620000D03*
%TO.P,U1,8,6_OUT1D*%
%TO.N,/BNO_INT*%
X129505000Y-102620000D03*
%TO.P,U1,9,7_RX2_OUT1A*%
%TO.N,unconnected-(U1-7_RX2_OUT1A-Pad9)*%
X132045000Y-102620000D03*
%TO.P,U1,10,8_TX2_IN1*%
%TO.N,unconnected-(U1-8_TX2_IN1-Pad10)*%
X134585000Y-102620000D03*
%TO.P,U1,11,9_OUT1C*%
%TO.N,/NRF_CE*%
X137125000Y-102620000D03*
%TO.P,U1,12,10_CS_MQSR*%
%TO.N,/NRF_CS*%
X139665000Y-102620000D03*
%TO.P,U1,13,11_MOSI_CTX1*%
%TO.N,/NRF_MOSI*%
X142205000Y-102620000D03*
%TO.P,U1,14,12_MISO_MQSL*%
%TO.N,/NRF_MISO*%
X144745000Y-102620000D03*
%TO.P,U1,15,VBAT*%
%TO.N,unconnected-(U1-VBAT-Pad15)*%
X144745000Y-100080000D03*
%TO.P,U1,16,3V3*%
%TO.N,unconnected-(U1-3V3-Pad16)*%
X144745000Y-97540000D03*
%TO.P,U1,17,GND*%
%TO.N,GND*%
X144745000Y-95000000D03*
%TO.P,U1,18,PROGRAM*%
%TO.N,unconnected-(U1-PROGRAM-Pad18)*%
X144745000Y-92460000D03*
%TO.P,U1,19,ON_OFF*%
%TO.N,unconnected-(U1-ON_OFF-Pad19)*%
X144745000Y-89920000D03*
%TO.P,U1,20,13_SCK_CRX1_LED*%
%TO.N,/NRF_SCK*%
X144745000Y-87380000D03*
%TO.P,U1,21,14_A0_TX3_SPDIF_OUT*%
%TO.N,/serial_rx3*%
X142205000Y-87380000D03*
%TO.P,U1,22,15_A1_RX3_SPDIF_IN*%
%TO.N,/serial_tx3*%
X139665000Y-87380000D03*
%TO.P,U1,23,16_A2_RX4_SCL1*%
%TO.N,/serial_rx4*%
X137125000Y-87380000D03*
%TO.P,U1,24,17_A3_TX4_SDA1*%
%TO.N,/serial_tx4*%
X134585000Y-87380000D03*
%TO.P,U1,25,18_A4_SDA0*%
%TO.N,/SDA*%
X132045000Y-87380000D03*
%TO.P,U1,26,19_A5_SCL0*%
%TO.N,/SCL*%
X129505000Y-87380000D03*
%TO.P,U1,27,20_A6_TX5_LRCLK1*%
%TO.N,/serial_rx5*%
X126965000Y-87380000D03*
%TO.P,U1,28,21_A7_RX5_BCLK1*%
%TO.N,/serial_tx5*%
X124425000Y-87380000D03*
%TO.P,U1,29,22_A8_CTX1*%
%TO.N,unconnected-(U1-22_A8_CTX1-Pad29)*%
X121885000Y-87380000D03*
%TO.P,U1,30,23_A9_CRX1_MCLK1*%
%TO.N,unconnected-(U1-23_A9_CRX1_MCLK1-Pad30)*%
X119345000Y-87380000D03*
%TO.P,U1,31,3V3*%
%TO.N,unconnected-(U1-3V3-Pad31)*%
X116805000Y-87380000D03*
%TO.P,U1,32,GND*%
%TO.N,GND*%
X114265000Y-87380000D03*
%TO.P,U1,33,VIN*%
%TO.N,+5V*%
X111725000Y-87380000D03*
%TO.P,U1,34,VUSB*%
%TO.N,unconnected-(U1-VUSB-Pad34)*%
X114265000Y-89920000D03*
D19*
%TO.P,U1,35,24_A10_TX6_SCL2*%
%TO.N,Net-(J1-Pin_1)*%
X139665000Y-89920000D03*
%TO.P,U1,36,25_A11_RX6_SDA2*%
%TO.N,Net-(J1-Pin_2)*%
X137125000Y-89920000D03*
%TO.P,U1,37,26_A12_MOSI1*%
%TO.N,Net-(J1-Pin_3)*%
X139665000Y-92460000D03*
%TO.P,U1,38,27_A13_SCK1*%
%TO.N,Net-(J1-Pin_4)*%
X137125000Y-92460000D03*
%TO.P,U1,39,28_RX7*%
%TO.N,Net-(J2-Pin_1)*%
X139665000Y-95000000D03*
%TO.P,U1,40,29_TX7*%
%TO.N,Net-(J2-Pin_2)*%
X137125000Y-95000000D03*
%TO.P,U1,41,30_CRX3*%
%TO.N,Net-(J2-Pin_3)*%
X139665000Y-97540000D03*
%TO.P,U1,42,31_CTX3*%
%TO.N,Net-(J2-Pin_4)*%
X137125000Y-97540000D03*
%TO.P,U1,43,32_OUT1B*%
%TO.N,unconnected-(U1-32_OUT1B-Pad43)*%
X139665000Y-100080000D03*
%TO.P,U1,44,33_MCLK2*%
%TO.N,unconnected-(U1-33_MCLK2-Pad44)*%
X137125000Y-100080000D03*
D20*
%TO.P,U1,45,34_DAT1_MISO2*%
%TO.N,unconnected-(U1-34_DAT1_MISO2-Pad45)*%
X118863400Y-91500000D03*
%TO.P,U1,46,35_DAT0_MOSI2*%
%TO.N,unconnected-(U1-35_DAT0_MOSI2-Pad46)*%
X118863400Y-92500000D03*
%TO.P,U1,47,GND*%
%TO.N,unconnected-(U1-GND-Pad47)*%
X118863400Y-93500000D03*
%TO.P,U1,48,36_CLK_CS2*%
%TO.N,unconnected-(U1-36_CLK_CS2-Pad48)*%
X118863400Y-94500000D03*
%TO.P,U1,49,3V3*%
%TO.N,unconnected-(U1-3V3-Pad49)*%
X118863400Y-95500000D03*
%TO.P,U1,50,37_CMD_SCK2*%
%TO.N,unconnected-(U1-37_CMD_SCK2-Pad50)*%
X118863400Y-96500000D03*
%TO.P,U1,51,38_DAT3_RX5*%
%TO.N,unconnected-(U1-38_DAT3_RX5-Pad51)*%
X118863400Y-97500000D03*
%TO.P,U1,52,39_DAT2_TX5*%
%TO.N,unconnected-(U1-39_DAT2_TX5-Pad52)*%
X118863400Y-98500000D03*
D19*
%TO.P,U1,53,D-*%
%TO.N,unconnected-(U1-D--Pad53)*%
X112995000Y-93730000D03*
%TO.P,U1,54,D+*%
%TO.N,unconnected-(U1-D+-Pad54)*%
X112995000Y-96270000D03*
%TD*%
D21*
%TO.N,+3.3V*%
X147400000Y-88000000D03*
D22*
X152530000Y-79830000D03*
D21*
%TO.N,+5V*%
X131620000Y-81360000D03*
D22*
X123200000Y-83600000D03*
X127600000Y-81000000D03*
X153330000Y-89380000D03*
D21*
X125600000Y-69400000D03*
D22*
%TO.N,VCC*%
X161070000Y-86960000D03*
X161030000Y-84320000D03*
D21*
%TO.N,/servo_tx1*%
X120000000Y-78400000D03*
%TO.N,Net-(IC1-B2)*%
X137600000Y-78200000D03*
X127600000Y-78400000D03*
%TO.N,/servo_dir*%
X118800000Y-79800000D03*
%TO.N,Net-(IC1-B3)*%
X138600000Y-78000000D03*
X126823020Y-76802194D03*
%TO.N,/servo_rx1*%
X119000000Y-78400000D03*
%TO.N,Net-(IC2-A2)*%
X133780000Y-82010000D03*
%TO.N,Net-(J1-Pin_4)*%
X124445000Y-100735000D03*
%TO.N,Net-(J2-Pin_4)*%
X134010000Y-96430000D03*
X125554975Y-95380000D03*
%TO.N,/BNO_RESET*%
X139287500Y-82512500D03*
%TO.N,/SDA*%
X145280000Y-68860000D03*
%TO.N,/SCL*%
X141020000Y-72070000D03*
%TO.N,/serial_tx5*%
X114760000Y-100180000D03*
%TO.N,/serial_rx5*%
X117290000Y-90550000D03*
X121440000Y-90100000D03*
%TO.N,/BNO_INT*%
X126600000Y-97200000D03*
X139800000Y-70600000D03*
%TO.N,GND*%
X125800000Y-78400000D03*
X139000000Y-75000000D03*
D22*
X157620000Y-82440000D03*
D21*
X129600000Y-73200000D03*
X140200000Y-69000000D03*
D22*
X159030000Y-101390000D03*
X148150000Y-95680000D03*
X116750000Y-84750000D03*
D21*
X131800000Y-79400000D03*
X159200000Y-105800000D03*
D22*
X159000000Y-73890000D03*
%TD*%
D23*
%TO.N,Net-(IC2-A2)*%
X169000000Y-112450000D02*
X169000000Y-71000000D01*
D24*
X180000000Y-78500000D02*
X180000000Y-112250000D01*
X169000000Y-71000000D02*
X172500000Y-71000000D01*
X172500000Y-71000000D02*
X180000000Y-78500000D01*
X165740000Y-67740000D02*
X169000000Y-71000000D01*
%TO.N,+3.3V*%
X147400000Y-87380000D02*
X147400000Y-88000000D01*
D25*
X161230000Y-107880000D02*
X153650000Y-115460000D01*
D24*
X143249500Y-83229500D02*
X147400000Y-87380000D01*
D25*
X152530000Y-82390000D02*
X157597057Y-87457057D01*
D24*
X147400000Y-88000000D02*
X147260000Y-88000000D01*
X143249500Y-81625000D02*
X143249500Y-83229500D01*
D25*
X157597057Y-87457057D02*
X157597057Y-88747057D01*
X153650000Y-115460000D02*
X153650000Y-120540000D01*
X152530000Y-79830000D02*
X152530000Y-82390000D01*
X157597057Y-88747057D02*
X161230000Y-92380000D01*
X161230000Y-92380000D02*
X161230000Y-107880000D01*
%TO.N,+5V*%
X149000000Y-115460000D02*
X149000000Y-120540000D01*
X153330000Y-89380000D02*
X153360000Y-89410000D01*
D26*
X127600000Y-81000000D02*
X125800000Y-81000000D01*
D24*
X126900000Y-78110050D02*
X126900000Y-80300000D01*
X125600000Y-69400000D02*
X125600000Y-76810050D01*
D25*
X151750000Y-112710000D02*
X149000000Y-115460000D01*
D26*
X125800000Y-81000000D02*
X123200000Y-83600000D01*
D24*
X126900000Y-80300000D02*
X127600000Y-81000000D01*
D25*
X153360000Y-101050000D02*
X151750000Y-102660000D01*
D24*
X129380000Y-83600000D02*
X123200000Y-83600000D01*
D25*
X153360000Y-89410000D02*
X153360000Y-101050000D01*
D24*
X125600000Y-76810050D02*
X126900000Y-78110050D01*
D25*
X151750000Y-102660000D02*
X151750000Y-112710000D01*
D24*
X131620000Y-81360000D02*
X129380000Y-83600000D01*
%TO.N,/servo_tx1*%
X120000000Y-83202082D02*
X117352082Y-85850000D01*
X116550000Y-85850000D02*
X115600000Y-86800000D01*
X117352082Y-85850000D02*
X116550000Y-85850000D01*
X115600000Y-101415000D02*
X116805000Y-102620000D01*
X120000000Y-78400000D02*
X120000000Y-83202082D01*
X115600000Y-86800000D02*
X115600000Y-101415000D01*
%TO.N,Net-(IC1-B2)*%
X133600000Y-78400000D02*
X133800000Y-78200000D01*
X133800000Y-78200000D02*
X137600000Y-78200000D01*
X127600000Y-78400000D02*
X133600000Y-78400000D01*
%TO.N,/servo_dir*%
X123000000Y-86800000D02*
X123000000Y-98965000D01*
X118300000Y-79300000D02*
X118300000Y-78110050D01*
X118300000Y-78110050D02*
X119210050Y-77200000D01*
X121200000Y-77902943D02*
X121200000Y-85000000D01*
X120497057Y-77200000D02*
X121200000Y-77902943D01*
X123000000Y-98965000D02*
X119345000Y-102620000D01*
X119210050Y-77200000D02*
X120497057Y-77200000D01*
X121200000Y-85000000D02*
X123000000Y-86800000D01*
X118800000Y-79800000D02*
X118300000Y-79300000D01*
%TO.N,Net-(IC1-B3)*%
X127530826Y-77510000D02*
X137300050Y-77510000D01*
X137310050Y-77500000D02*
X138100000Y-77500000D01*
X138100000Y-77500000D02*
X138600000Y-78000000D01*
X126823020Y-76802194D02*
X127530826Y-77510000D01*
X137300050Y-77510000D02*
X137310050Y-77500000D01*
%TO.N,/servo_rx1*%
X116350000Y-99790000D02*
X117800000Y-101240000D01*
X118620000Y-85700000D02*
X118620000Y-86040000D01*
X118620000Y-86040000D02*
X118070000Y-86590000D01*
X117800000Y-101240000D02*
X117800000Y-101600000D01*
X115645000Y-104000000D02*
X114265000Y-102620000D01*
X118070000Y-88050000D02*
X116350000Y-89770000D01*
X120289950Y-77700000D02*
X120700000Y-78110050D01*
X118070000Y-86590000D02*
X118070000Y-88050000D01*
X117800000Y-101600000D02*
X118200000Y-102000000D01*
X119700000Y-77700000D02*
X120289950Y-77700000D01*
X119000000Y-78400000D02*
X119700000Y-77700000D01*
X120700000Y-83620000D02*
X118620000Y-85700000D01*
X118200000Y-102000000D02*
X118200000Y-103200000D01*
X116350000Y-89770000D02*
X116350000Y-99790000D01*
X118200000Y-103200000D02*
X117400000Y-104000000D01*
X120700000Y-78110050D02*
X120700000Y-83620000D01*
X117400000Y-104000000D02*
X115645000Y-104000000D01*
%TO.N,Net-(IC2-A2)*%
X122010000Y-83612082D02*
X122010000Y-71530000D01*
X122010000Y-71530000D02*
X125800000Y-67740000D01*
X129230000Y-84850000D02*
X123247918Y-84850000D01*
X123247918Y-84850000D02*
X122010000Y-83612082D01*
X125800000Y-67740000D02*
X165740000Y-67740000D01*
X132070000Y-82010000D02*
X129230000Y-84850000D01*
X133780000Y-82010000D02*
X132070000Y-82010000D01*
%TO.N,Net-(J1-Pin_4)*%
X137590000Y-104040000D02*
X138380000Y-103250000D01*
X124445000Y-100735000D02*
X125700000Y-101990000D01*
X126400000Y-104040000D02*
X137590000Y-104040000D01*
X125700000Y-103340000D02*
X126400000Y-104040000D01*
X138380000Y-103250000D02*
X138380000Y-93715000D01*
X138380000Y-93715000D02*
X137125000Y-92460000D01*
X125700000Y-101990000D02*
X125700000Y-103340000D01*
%TO.N,Net-(J2-Pin_4)*%
X120580000Y-102092106D02*
X120580000Y-103510000D01*
X120580000Y-103510000D02*
X125270000Y-108200000D01*
X125554975Y-95380000D02*
X125554975Y-95835025D01*
X125270000Y-108200000D02*
X133880000Y-108200000D01*
X137125000Y-97540000D02*
X135120000Y-97540000D01*
X135120000Y-97540000D02*
X134010000Y-96430000D01*
X125554975Y-95835025D02*
X123500000Y-97890000D01*
X123500000Y-99172106D02*
X120580000Y-102092106D01*
X123500000Y-97890000D02*
X123500000Y-99172106D01*
X133880000Y-108200000D02*
X135080000Y-107000000D01*
%TO.N,/BNO_RESET*%
X126965000Y-98435000D02*
X126965000Y-102620000D01*
X139287500Y-82512500D02*
X136080000Y-85720000D01*
X134330623Y-85720000D02*
X133360000Y-86690623D01*
X133360000Y-92040000D02*
X126965000Y-98435000D01*
X136080000Y-85720000D02*
X134330623Y-85720000D01*
X133360000Y-86690623D02*
X133360000Y-92040000D01*
%TO.N,/SDA*%
X139500000Y-80292894D02*
X139500000Y-81210000D01*
X134240000Y-84900000D02*
X132045000Y-87095000D01*
X132045000Y-87095000D02*
X132045000Y-87380000D01*
X139500000Y-81210000D02*
X135810000Y-84900000D01*
X145280000Y-70277443D02*
X141620000Y-73937443D01*
X141620000Y-78172894D02*
X139500000Y-80292894D01*
X135810000Y-84900000D02*
X134240000Y-84900000D01*
X145280000Y-68860000D02*
X145280000Y-70277443D01*
X141620000Y-73937443D02*
X141620000Y-78172894D01*
%TO.N,/SCL*%
X141020000Y-78065787D02*
X135350000Y-83735787D01*
X133149213Y-83735787D02*
X129505000Y-87380000D01*
X141020000Y-72070000D02*
X141020000Y-78065787D01*
X135350000Y-83735787D02*
X133149213Y-83735787D01*
%TO.N,/serial_tx5*%
X113000000Y-101940000D02*
X113000000Y-103380000D01*
X118210000Y-106110000D02*
X117000000Y-104900000D01*
X114760000Y-100180000D02*
X113000000Y-101940000D01*
X113000000Y-103380000D02*
X114520000Y-104900000D01*
X125000000Y-122970000D02*
X118210000Y-116180000D01*
X118210000Y-116180000D02*
X118210000Y-106110000D01*
X114520000Y-104900000D02*
X117000000Y-104900000D01*
X137140000Y-120530000D02*
X134700000Y-122970000D01*
X134700000Y-122970000D02*
X125000000Y-122970000D01*
%TO.N,/serial_rx5*%
X117740000Y-90100000D02*
X121440000Y-90100000D01*
X117290000Y-90550000D02*
X117740000Y-90100000D01*
%TO.N,/NRF_CS*%
X140717000Y-81617500D02*
X140717000Y-101568000D01*
X143249500Y-79085000D02*
X140717000Y-81617500D01*
X140717000Y-101568000D02*
X139665000Y-102620000D01*
%TO.N,/NRF_SCK*%
X141705000Y-101295000D02*
X141705000Y-92987893D01*
X145789500Y-76545000D02*
X144500000Y-75255500D01*
X140900000Y-103100000D02*
X140900000Y-102100000D01*
X140900000Y-102100000D02*
X141705000Y-101295000D01*
X144500000Y-73100000D02*
X144900000Y-72700000D01*
X145300000Y-103900000D02*
X141700000Y-103900000D01*
X143320000Y-91372893D02*
X143320000Y-88805000D01*
X141700000Y-103900000D02*
X140900000Y-103100000D01*
X141705000Y-92987893D02*
X143320000Y-91372893D01*
X144900000Y-72700000D02*
X146500000Y-72700000D01*
X143320000Y-88805000D02*
X144745000Y-87380000D01*
X144500000Y-75255500D02*
X144500000Y-73100000D01*
X149700000Y-99500000D02*
X145300000Y-103900000D01*
X149700000Y-75900000D02*
X149700000Y-99500000D01*
X146500000Y-72700000D02*
X149700000Y-75900000D01*
%TO.N,/BNO_INT*%
X128453000Y-86944247D02*
X128453000Y-95347000D01*
X128453000Y-95347000D02*
X126600000Y-97200000D01*
X139800000Y-70600000D02*
X139800000Y-78137247D01*
X134701460Y-83235787D02*
X132161460Y-83235787D01*
X132161460Y-83235787D02*
X128453000Y-86944247D01*
X139800000Y-78137247D02*
X134701460Y-83235787D01*
%TO.N,/NRF_MOSI*%
X143249500Y-76545000D02*
X143956606Y-76545000D01*
X142205000Y-93195000D02*
X142205000Y-102620000D01*
X145211606Y-77800000D02*
X146400000Y-77800000D01*
X145600000Y-91200000D02*
X144200000Y-91200000D01*
X148400000Y-79800000D02*
X148400000Y-88400000D01*
X144200000Y-91200000D02*
X142205000Y-93195000D01*
X146400000Y-77800000D02*
X148400000Y-79800000D01*
X148400000Y-88400000D02*
X145600000Y-91200000D01*
X143956606Y-76545000D02*
X145211606Y-77800000D01*
%TO.N,/NRF_CE*%
X136600000Y-91200000D02*
X132840000Y-94960000D01*
X145789500Y-79085000D02*
X144504500Y-77800000D01*
X142700000Y-77800000D02*
X140000000Y-80500000D01*
X132840000Y-98335000D02*
X137125000Y-102620000D01*
X138400000Y-86800000D02*
X138400000Y-90258000D01*
X132840000Y-94960000D02*
X132840000Y-98335000D01*
X140000000Y-80500000D02*
X140000000Y-85200000D01*
X140000000Y-85200000D02*
X138400000Y-86800000D01*
X144504500Y-77800000D02*
X142700000Y-77800000D01*
X138400000Y-90258000D02*
X137458000Y-91200000D01*
X137458000Y-91200000D02*
X136600000Y-91200000D01*
%TO.N,/NRF_MISO*%
X149200000Y-98165000D02*
X144745000Y-102620000D01*
X149200000Y-77415500D02*
X149200000Y-98165000D01*
X145789500Y-74005000D02*
X149200000Y-77415500D01*
%TO.N,/button_pin*%
X148750000Y-104750000D02*
X124015000Y-104750000D01*
X124015000Y-104750000D02*
X121885000Y-102620000D01*
%TD*%
%TA.AperFunction,Conductor*%
%TO.N,GND*%
G36*
X180002702Y-66700617D02*
G01*
X180386771Y-66717386D01*
X180397506Y-66718326D01*
X180775971Y-66768152D01*
X180786597Y-66770025D01*
X181159284Y-66852648D01*
X181169710Y-66855442D01*
X181533765Y-66970227D01*
X181543911Y-66973920D01*
X181896578Y-67120000D01*
X181906369Y-67124566D01*
X182244942Y-67300816D01*
X182254310Y-67306224D01*
X182576244Y-67511318D01*
X182585105Y-67517523D01*
X182887930Y-67749889D01*
X182896217Y-67756843D01*
X183177635Y-68014715D01*
X183185284Y-68022364D01*
X183443156Y-68303782D01*
X183450110Y-68312069D01*
X183682476Y-68614894D01*
X183688681Y-68623755D01*
X183893775Y-68945689D01*
X183899183Y-68955057D01*
X184075430Y-69293623D01*
X184080002Y-69303427D01*
X184226075Y-69656078D01*
X184229775Y-69666244D01*
X184344554Y-70030278D01*
X184347354Y-70040727D01*
X184429971Y-70413389D01*
X184431849Y-70424042D01*
X184481671Y-70802473D01*
X184482614Y-70813249D01*
X184499382Y-71197297D01*
X184499500Y-71202706D01*
X184499500Y-119197293D01*
X184499382Y-119202702D01*
X184482614Y-119586750D01*
X184481671Y-119597526D01*
X184431849Y-119975957D01*
X184429971Y-119986610D01*
X184347354Y-120359272D01*
X184344554Y-120369721D01*
X184229775Y-120733755D01*
X184226075Y-120743921D01*
X184080002Y-121096572D01*
X184075430Y-121106376D01*
X183899183Y-121444942D01*
X183893775Y-121454310D01*
X183688681Y-121776244D01*
X183682476Y-121785105D01*
X183450110Y-122087930D01*
X183443156Y-122096217D01*
X183185284Y-122377635D01*
X183177635Y-122385284D01*
X182896217Y-122643156D01*
X182887930Y-122650110D01*
X182585105Y-122882476D01*
X182576244Y-122888681D01*
X182254310Y-123093775D01*
X182244942Y-123099183D01*
X181906376Y-123275430D01*
X181896572Y-123280002D01*
X181543921Y-123426075D01*
X181533755Y-123429775D01*
X181169721Y-123544554D01*
X181159272Y-123547354D01*
X180786610Y-123629971D01*
X180775957Y-123631849D01*
X180397526Y-123681671D01*
X180386750Y-123682614D01*
X180002703Y-123699382D01*
X179997294Y-123699500D01*
X135187868Y-123699500D01*
X135120829Y-123679815D01*
X135075074Y-123627011D01*
X135065130Y-123557853D01*
X135094155Y-123494297D01*
X135110542Y-123479841D01*
X135109965Y-123479137D01*
X135114663Y-123475280D01*
X135114669Y-123475277D01*
X136712238Y-121877706D01*
X136773559Y-121844223D01*
X136832006Y-121845613D01*
X136904592Y-121865063D01*
X137092918Y-121881539D01*
X137139999Y-121885659D01*
X137140000Y-121885659D01*
X137140001Y-121885659D01*
X137179234Y-121882226D01*
X137375408Y-121865063D01*
X137603663Y-121803903D01*
X137817830Y-121704035D01*
X138011401Y-121568495D01*
X138178495Y-121401401D01*
X138314035Y-121207830D01*
X138413903Y-120993663D01*
X138475063Y-120765408D01*
X138495659Y-120530000D01*
X138475063Y-120294592D01*
X138413903Y-120066337D01*
X138314035Y-119852171D01*
X138178495Y-119658599D01*
X138056567Y-119536671D01*
X138023084Y-119475351D01*
X138028068Y-119405659D01*
X138069939Y-119349725D01*
X138100915Y-119332810D01*
X138232331Y-119283796D01*
X138347546Y-119197546D01*
X138433796Y-119082331D01*
X138484091Y-118947483D01*
X138490500Y-118887873D01*
X138490499Y-117092128D01*
X138484091Y-117032517D01*
X138433796Y-116897669D01*
X138433795Y-116897668D01*
X138433793Y-116897664D01*
X138347547Y-116782455D01*
X138347544Y-116782452D01*
X138232335Y-116696206D01*
X138232328Y-116696202D01*
X138097482Y-116645908D01*
X138097483Y-116645908D01*
X138037883Y-116639501D01*
X138037881Y-116639500D01*
X138037873Y-116639500D01*
X138037864Y-116639500D01*
X136242129Y-116639500D01*
X136242123Y-116639501D01*
X136182516Y-116645908D01*
X136047671Y-116696202D01*
X136047664Y-116696206D01*
X135932455Y-116782452D01*
X135932452Y-116782455D01*
X135846206Y-116897664D01*
X135846202Y-116897671D01*
X135795908Y-117032517D01*
X135792352Y-117065599D01*
X135789501Y-117092123D01*
X135789500Y-117092135D01*
X135789500Y-118887870D01*
X135789501Y-118887876D01*
X135795908Y-118947483D01*
X135846202Y-119082328D01*
X135846206Y-119082335D01*
X135932452Y-119197544D01*
X135932455Y-119197547D01*
X136047664Y-119283793D01*
X136047671Y-119283797D01*
X136179081Y-119332810D01*
X136235015Y-119374681D01*
X136259432Y-119440145D01*
X136244580Y-119508418D01*
X136223430Y-119536673D01*
X136101503Y-119658600D01*
X135965965Y-119852169D01*
X135965964Y-119852171D01*
X135866098Y-120066335D01*
X135866094Y-120066344D01*
X135804938Y-120294586D01*
X135804936Y-120294596D01*
X135784341Y-120529999D01*
X135784341Y-120530000D01*
X135804936Y-120765403D01*
X135804939Y-120765416D01*
X135824384Y-120837989D01*
X135822721Y-120907839D01*
X135792290Y-120957762D01*
X134466873Y-122283181D01*
X134405550Y-122316666D01*
X134379192Y-122319500D01*
X125320808Y-122319500D01*
X125253769Y-122299815D01*
X125233127Y-122283181D01*
X123479945Y-120529999D01*
X126484341Y-120529999D01*
X126484341Y-120530000D01*
X126504936Y-120765403D01*
X126504938Y-120765413D01*
X126566094Y-120993655D01*
X126566096Y-120993659D01*
X126566097Y-120993663D01*
X126618656Y-121106376D01*
X126665965Y-121207830D01*
X126665967Y-121207834D01*
X126774281Y-121362521D01*
X126801505Y-121401401D01*
X126968599Y-121568495D01*
X127039108Y-121617866D01*
X127162165Y-121704032D01*
X127162167Y-121704033D01*
X127162170Y-121704035D01*
X127376337Y-121803903D01*
X127604592Y-121865063D01*
X127792918Y-121881539D01*
X127839999Y-121885659D01*
X127840000Y-121885659D01*
X127840001Y-121885659D01*
X127879234Y-121882226D01*
X128075408Y-121865063D01*
X128303663Y-121803903D01*
X128517830Y-121704035D01*
X128711401Y-121568495D01*
X128878495Y-121401401D01*
X129014035Y-121207830D01*
X129113903Y-120993663D01*
X129175063Y-120765408D01*
X129195659Y-120530000D01*
X129195659Y-120529999D01*
X131134341Y-120529999D01*
X131134341Y-120530000D01*
X131154936Y-120765403D01*
X131154938Y-120765413D01*
X131216094Y-120993655D01*
X131216096Y-120993659D01*
X131216097Y-120993663D01*
X131268656Y-121106376D01*
X131315965Y-121207830D01*
X131315967Y-121207834D01*
X131424281Y-121362521D01*
X131451505Y-121401401D01*
X131618599Y-121568495D01*
X131689108Y-121617866D01*
X131812165Y-121704032D01*
X131812167Y-121704033D01*
X131812170Y-121704035D01*
X132026337Y-121803903D01*
X132254592Y-121865063D01*
X132442918Y-121881539D01*
X132489999Y-121885659D01*
X132490000Y-121885659D01*
X132490001Y-121885659D01*
X132529234Y-121882226D01*
X132725408Y-121865063D01*
X132953663Y-121803903D01*
X133167830Y-121704035D01*
X133361401Y-121568495D01*
X133528495Y-121401401D01*
X133664035Y-121207830D01*
X133763903Y-120993663D01*
X133825063Y-120765408D01*
X133845659Y-120530000D01*
X133825063Y-120294592D01*
X133763903Y-120066337D01*
X133664035Y-119852171D01*
X133528495Y-119658599D01*
X133406567Y-119536671D01*
X133373084Y-119475351D01*
X133378068Y-119405659D01*
X133419939Y-119349725D01*
X133450915Y-119332810D01*
X133582331Y-119283796D01*
X133697546Y-119197546D01*
X133783796Y-119082331D01*
X133834091Y-118947483D01*
X133840500Y-118887873D01*
X133840499Y-117092128D01*
X133834091Y-117032517D01*
X133783796Y-116897669D01*
X133783795Y-116897668D01*
X133783793Y-116897664D01*
X133697547Y-116782455D01*
X133697544Y-116782452D01*
X133582335Y-116696206D01*
X133582328Y-116696202D01*
X133447482Y-116645908D01*
X133447483Y-116645908D01*
X133387883Y-116639501D01*
X133387881Y-116639500D01*
X133387873Y-116639500D01*
X133387864Y-116639500D01*
X131592129Y-116639500D01*
X131592123Y-116639501D01*
X131532516Y-116645908D01*
X131397671Y-116696202D01*
X131397664Y-116696206D01*
X131282455Y-116782452D01*
X131282452Y-116782455D01*
X131196206Y-116897664D01*
X131196202Y-116897671D01*
X131145908Y-117032517D01*
X131142352Y-117065599D01*
X131139501Y-117092123D01*
X131139500Y-117092135D01*
X131139500Y-118887870D01*
X131139501Y-118887876D01*
X131145908Y-118947483D01*
X131196202Y-119082328D01*
X131196206Y-119082335D01*
X131282452Y-119197544D01*
X131282455Y-119197547D01*
X131397664Y-119283793D01*
X131397671Y-119283797D01*
X131529081Y-119332810D01*
X131585015Y-119374681D01*
X131609432Y-119440145D01*
X131594580Y-119508418D01*
X131573430Y-119536673D01*
X131451503Y-119658600D01*
X131315965Y-119852169D01*
X131315964Y-119852171D01*
X131216098Y-120066335D01*
X131216094Y-120066344D01*
X131154938Y-120294586D01*
X131154936Y-120294596D01*
X131134341Y-120529999D01*
X129195659Y-120529999D01*
X129175063Y-120294592D01*
X129113903Y-120066337D01*
X129014035Y-119852171D01*
X128878495Y-119658599D01*
X128756567Y-119536671D01*
X128723084Y-119475351D01*
X128728068Y-119405659D01*
X128769939Y-119349725D01*
X128800915Y-119332810D01*
X128932331Y-119283796D01*
X129047546Y-119197546D01*
X129133796Y-119082331D01*
X129184091Y-118947483D01*
X129190500Y-118887873D01*
X129190499Y-117092128D01*
X129184091Y-117032517D01*
X129133796Y-116897669D01*
X129133795Y-116897668D01*
X129133793Y-116897664D01*
X129047547Y-116782455D01*
X129047544Y-116782452D01*
X128932335Y-116696206D01*
X128932328Y-116696202D01*
X128797482Y-116645908D01*
X128797483Y-116645908D01*
X128737883Y-116639501D01*
X128737881Y-116639500D01*
X128737873Y-116639500D01*
X128737864Y-116639500D01*
X126942129Y-116639500D01*
X126942123Y-116639501D01*
X126882516Y-116645908D01*
X126747671Y-116696202D01*
X126747664Y-116696206D01*
X126632455Y-116782452D01*
X126632452Y-116782455D01*
X126546206Y-116897664D01*
X126546202Y-116897671D01*
X126495908Y-117032517D01*
X126492352Y-117065599D01*
X126489501Y-117092123D01*
X126489500Y-117092135D01*
X126489500Y-118887870D01*
X126489501Y-118887876D01*
X126495908Y-118947483D01*
X126546202Y-119082328D01*
X126546206Y-119082335D01*
X126632452Y-119197544D01*
X126632455Y-119197547D01*
X126747664Y-119283793D01*
X126747671Y-119283797D01*
X126879081Y-119332810D01*
X126935015Y-119374681D01*
X126959432Y-119440145D01*
X126944580Y-119508418D01*
X126923430Y-119536673D01*
X126801503Y-119658600D01*
X126665965Y-119852169D01*
X126665964Y-119852171D01*
X126566098Y-120066335D01*
X126566094Y-120066344D01*
X126504938Y-120294586D01*
X126504936Y-120294596D01*
X126484341Y-120529999D01*
X123479945Y-120529999D01*
X118896819Y-115946873D01*
X118863334Y-115885550D01*
X118860500Y-115859192D01*
X118860500Y-115459999D01*
X147644341Y-115459999D01*
X147644341Y-115460000D01*
X147664936Y-115695403D01*
X147664938Y-115695413D01*
X147726094Y-115923655D01*
X147726096Y-115923659D01*
X147726097Y-115923663D01*
X147825965Y-116137830D01*
X147825967Y-116137834D01*
X147961501Y-116331395D01*
X147961506Y-116331402D01*
X147963181Y-116333077D01*
X147963682Y-116333995D01*
X147964982Y-116335544D01*
X147964670Y-116335805D01*
X147996666Y-116394400D01*
X147999500Y-116420758D01*
X147999500Y-117039241D01*
X147979815Y-117106280D01*
X147963181Y-117126922D01*
X147961505Y-117128597D01*
X147825965Y-117322169D01*
X147825964Y-117322171D01*
X147726098Y-117536335D01*
X147726094Y-117536344D01*
X147664938Y-117764586D01*
X147664936Y-117764596D01*
X147644341Y-117999999D01*
X147644341Y-118000000D01*
X147664936Y-118235403D01*
X147664938Y-118235413D01*
X147726094Y-118463655D01*
X147726096Y-118463659D01*
X147726097Y-118463663D01*
X147791491Y-118603900D01*
X147825965Y-118677830D01*
X147825967Y-118677834D01*
X147961501Y-118871395D01*
X147961506Y-118871402D01*
X147963181Y-118873077D01*
X147963682Y-118873995D01*
X147964982Y-118875544D01*
X147964670Y-118875805D01*
X147996666Y-118934400D01*
X147999500Y-118960758D01*
X147999500Y-119125858D01*
X147979815Y-119192897D01*
X147927011Y-119238652D01*
X147918847Y-119242034D01*
X147907669Y-119246204D01*
X147907664Y-119246206D01*
X147792455Y-119332452D01*
X147792452Y-119332455D01*
X147706206Y-119447664D01*
X147706202Y-119447671D01*
X147655908Y-119582517D01*
X147654295Y-119597526D01*
X147649501Y-119642123D01*
X147649500Y-119642135D01*
X147649500Y-121437870D01*
X147649501Y-121437876D01*
X147655908Y-121497483D01*
X147706202Y-121632328D01*
X147706206Y-121632335D01*
X147792452Y-121747544D01*
X147792455Y-121747547D01*
X147907664Y-121833793D01*
X147907671Y-121833797D01*
X148042517Y-121884091D01*
X148042516Y-121884091D01*
X148049444Y-121884835D01*
X148102127Y-121890500D01*
X149897872Y-121890499D01*
X149957483Y-121884091D01*
X150092331Y-121833796D01*
X150207546Y-121747546D01*
X150293796Y-121632331D01*
X150344091Y-121497483D01*
X150350500Y-121437873D01*
X150350499Y-119642128D01*
X150344091Y-119582517D01*
X150336358Y-119561785D01*
X150293797Y-119447671D01*
X150293793Y-119447664D01*
X150207547Y-119332455D01*
X150207544Y-119332452D01*
X150092335Y-119246206D01*
X150092332Y-119246205D01*
X150092331Y-119246204D01*
X150081161Y-119242038D01*
X150025231Y-119200166D01*
X150000816Y-119134701D01*
X150000500Y-119125858D01*
X150000500Y-118960758D01*
X150020185Y-118893719D01*
X150036819Y-118873077D01*
X150038495Y-118871401D01*
X150174035Y-118677830D01*
X150273903Y-118463663D01*
X150335063Y-118235408D01*
X150355659Y-118000000D01*
X150335063Y-117764592D01*
X150273903Y-117536337D01*
X150174035Y-117322171D01*
X150038495Y-117128599D01*
X150038494Y-117128597D01*
X150036819Y-117126922D01*
X150036315Y-117126000D01*
X150035014Y-117124449D01*
X150035325Y-117124187D01*
X150003334Y-117065599D01*
X150000500Y-117039241D01*
X150000500Y-116420758D01*
X150020185Y-116353719D01*
X150036819Y-116333077D01*
X150038495Y-116331401D01*
X150174035Y-116137830D01*
X150273903Y-115923663D01*
X150335063Y-115695408D01*
X150346043Y-115569901D01*
X150371495Y-115504834D01*
X150381882Y-115493037D01*
X152527139Y-113347782D01*
X152597868Y-113241928D01*
X152636632Y-113183914D01*
X152691893Y-113050500D01*
X152712051Y-113001836D01*
X152740752Y-112857546D01*
X152750500Y-112808541D01*
X152750500Y-109249994D01*
X153744357Y-109249994D01*
X153744357Y-109250005D01*
X153764890Y-109497812D01*
X153764892Y-109497824D01*
X153825936Y-109738881D01*
X153925826Y-109966606D01*
X154061833Y-110174782D01*
X154061836Y-110174785D01*
X154230256Y-110357738D01*
X154426491Y-110510474D01*
X154426493Y-110510475D01*
X154613172Y-110611501D01*
X154645190Y-110628828D01*
X154880386Y-110709571D01*
X155125665Y-110750500D01*
X155374335Y-110750500D01*
X155619614Y-110709571D01*
X155854810Y-110628828D01*
X156073509Y-110510474D01*
X156269744Y-110357738D01*
X156438164Y-110174785D01*
X156574173Y-109966607D01*
X156674063Y-109738881D01*
X156735108Y-109497821D01*
X156735109Y-109497812D01*
X156755643Y-109250005D01*
X156755643Y-109249994D01*
X156735109Y-109002187D01*
X156735107Y-109002175D01*
X156674063Y-108761118D01*
X156574173Y-108533393D01*
X156438166Y-108325217D01*
X156390926Y-108273901D01*
X156269744Y-108142262D01*
X156073509Y-107989526D01*
X156073507Y-107989525D01*
X156073506Y-107989524D01*
X155854811Y-107871172D01*
X155854802Y-107871169D01*
X155619616Y-107790429D01*
X155374335Y-107749500D01*
X155125665Y-107749500D01*
X154880383Y-107790429D01*
X154645197Y-107871169D01*
X154645188Y-107871172D01*
X154426493Y-107989524D01*
X154230257Y-108142261D01*
X154061833Y-108325217D01*
X153925826Y-108533393D01*
X153825936Y-108761118D01*
X153764892Y-109002175D01*
X153764890Y-109002187D01*
X153744357Y-109249994D01*
X152750500Y-109249994D01*
X152750500Y-104749994D01*
X153744357Y-104749994D01*
X153744357Y-104750005D01*
X153764890Y-104997812D01*
X153764892Y-104997824D01*
X153825936Y-105238881D01*
X153925826Y-105466606D01*
X154061833Y-105674782D01*
X154061836Y-105674785D01*
X154230256Y-105857738D01*
X154426491Y-106010474D01*
X154535840Y-106069651D01*
X154595830Y-106102116D01*
X154645190Y-106128828D01*
X154880386Y-106209571D01*
X155125665Y-106250500D01*
X155374335Y-106250500D01*
X155619614Y-106209571D01*
X155854810Y-106128828D01*
X156073509Y-106010474D01*
X156269744Y-105857738D01*
X156438164Y-105674785D01*
X156574173Y-105466607D01*
X156674063Y-105238881D01*
X156735108Y-104997821D01*
X156744408Y-104885585D01*
X156755643Y-104750005D01*
X156755643Y-104749994D01*
X156735109Y-104502187D01*
X156735107Y-104502175D01*
X156674063Y-104261118D01*
X156574173Y-104033393D01*
X156438166Y-103825217D01*
X156416557Y-103801744D01*
X156269744Y-103642262D01*
X156073509Y-103489526D01*
X156073507Y-103489525D01*
X156073506Y-103489524D01*
X155854811Y-103371172D01*
X155854802Y-103371169D01*
X155619616Y-103290429D01*
X155374335Y-103249500D01*
X155125665Y-103249500D01*
X154880383Y-103290429D01*
X154645197Y-103371169D01*
X154645188Y-103371172D01*
X154426493Y-103489524D01*
X154230257Y-103642261D01*
X154061833Y-103825217D01*
X153925826Y-104033393D01*
X153825936Y-104261118D01*
X153764892Y-104502175D01*
X153764890Y-104502187D01*
X153744357Y-104749994D01*
X152750500Y-104749994D01*
X152750500Y-103125781D01*
X152770185Y-103058742D01*
X152786814Y-103038105D01*
X153997778Y-101827141D01*
X153997782Y-101827139D01*
X154137139Y-101687782D01*
X154246632Y-101523914D01*
X154273748Y-101458450D01*
X154310167Y-101370527D01*
X154310167Y-101370526D01*
X154322051Y-101341836D01*
X154356325Y-101169530D01*
X154360500Y-101148541D01*
X154360500Y-89311459D01*
X154348344Y-89250345D01*
X154322051Y-89118164D01*
X154271148Y-88995273D01*
X154271147Y-88995270D01*
X154246635Y-88936092D01*
X154246628Y-88936079D01*
X154137140Y-88772219D01*
X154107140Y-88742219D01*
X154076509Y-88711588D01*
X154068346Y-88702581D01*
X154040882Y-88669115D01*
X154007419Y-88641653D01*
X153998403Y-88633481D01*
X153993470Y-88628548D01*
X153993449Y-88628529D01*
X153967781Y-88602861D01*
X153967780Y-88602860D01*
X153967779Y-88602859D01*
X153931781Y-88578806D01*
X153922007Y-88571557D01*
X153888541Y-88544092D01*
X153888539Y-88544091D01*
X153888538Y-88544090D01*
X153850347Y-88523676D01*
X153839913Y-88517422D01*
X153803914Y-88493369D01*
X153763915Y-88476800D01*
X153752919Y-88471599D01*
X153714730Y-88451187D01*
X153714725Y-88451185D01*
X153673288Y-88438615D01*
X153661850Y-88434523D01*
X153621836Y-88417949D01*
X153621829Y-88417947D01*
X153579378Y-88409503D01*
X153567577Y-88406547D01*
X153526137Y-88393977D01*
X153526130Y-88393975D01*
X153483034Y-88389730D01*
X153471005Y-88387945D01*
X153428543Y-88379500D01*
X153428540Y-88379500D01*
X153385244Y-88379500D01*
X153373090Y-88378903D01*
X153330000Y-88374659D01*
X153286910Y-88378903D01*
X153274756Y-88379500D01*
X153231454Y-88379500D01*
X153188992Y-88387945D01*
X153176964Y-88389730D01*
X153133869Y-88393975D01*
X153133862Y-88393977D01*
X153092423Y-88406547D01*
X153080622Y-88409503D01*
X153038165Y-88417948D01*
X153038158Y-88417950D01*
X152998158Y-88434518D01*
X152986707Y-88438616D01*
X152954314Y-88448443D01*
X152945277Y-88451185D01*
X152945270Y-88451187D01*
X152945266Y-88451188D01*
X152907076Y-88471600D01*
X152896084Y-88476799D01*
X152856087Y-88493367D01*
X152820089Y-88517420D01*
X152809658Y-88523672D01*
X152771464Y-88544088D01*
X152737991Y-88571558D01*
X152728222Y-88578802D01*
X152692228Y-88602853D01*
X152692222Y-88602858D01*
X152661601Y-88633478D01*
X152652589Y-88641645D01*
X152619116Y-88669116D01*
X152591645Y-88702589D01*
X152583478Y-88711601D01*
X152552858Y-88742222D01*
X152552853Y-88742228D01*
X152528802Y-88778222D01*
X152521558Y-88787991D01*
X152494088Y-88821464D01*
X152473672Y-88859658D01*
X152467420Y-88870089D01*
X152443367Y-88906087D01*
X152426799Y-88946084D01*
X152421600Y-88957076D01*
X152401188Y-88995266D01*
X152401187Y-88995270D01*
X152388616Y-89036707D01*
X152384518Y-89048158D01*
X152367950Y-89088158D01*
X152367948Y-89088165D01*
X152359503Y-89130622D01*
X152356547Y-89142423D01*
X152343977Y-89183862D01*
X152343975Y-89183869D01*
X152339730Y-89226964D01*
X152337945Y-89238992D01*
X152329500Y-89281454D01*
X152329500Y-89324754D01*
X152328903Y-89336907D01*
X152326689Y-89359388D01*
X152324659Y-89380000D01*
X152325135Y-89384837D01*
X152328903Y-89423090D01*
X152329500Y-89435244D01*
X152329500Y-89478543D01*
X152337945Y-89521005D01*
X152339730Y-89533034D01*
X152343975Y-89576130D01*
X152343975Y-89576131D01*
X152354161Y-89609707D01*
X152359500Y-89645702D01*
X152359500Y-100584217D01*
X152339815Y-100651256D01*
X152323181Y-100671898D01*
X151727937Y-101267142D01*
X151112221Y-101882858D01*
X151112218Y-101882861D01*
X151042538Y-101952540D01*
X150972859Y-102022219D01*
X150863371Y-102186079D01*
X150863364Y-102186092D01*
X150787950Y-102368160D01*
X150787947Y-102368170D01*
X150749500Y-102561456D01*
X150749500Y-112244216D01*
X150729815Y-112311255D01*
X150713181Y-112331897D01*
X148966969Y-114078108D01*
X148905646Y-114111593D01*
X148890097Y-114113955D01*
X148764596Y-114124936D01*
X148764586Y-114124938D01*
X148536344Y-114186094D01*
X148536335Y-114186098D01*
X148322171Y-114285964D01*
X148322169Y-114285965D01*
X148128597Y-114421505D01*
X147961505Y-114588597D01*
X147825965Y-114782169D01*
X147825964Y-114782171D01*
X147726098Y-114996335D01*
X147726094Y-114996344D01*
X147664938Y-115224586D01*
X147664936Y-115224596D01*
X147644341Y-115459999D01*
X118860500Y-115459999D01*
X118860500Y-110752135D01*
X126109500Y-110752135D01*
X126109500Y-112547870D01*
X126109501Y-112547876D01*
X126115908Y-112607483D01*
X126166202Y-112742328D01*
X126166206Y-112742335D01*
X126252452Y-112857544D01*
X126252455Y-112857547D01*
X126367664Y-112943793D01*
X126367671Y-112943797D01*
X126502517Y-112994091D01*
X126502516Y-112994091D01*
X126509444Y-112994835D01*
X126562127Y-113000500D01*
X128357872Y-113000499D01*
X128417483Y-112994091D01*
X128552331Y-112943796D01*
X128667546Y-112857546D01*
X128753796Y-112742331D01*
X128802810Y-112610916D01*
X128844681Y-112554984D01*
X128910145Y-112530566D01*
X128978418Y-112545417D01*
X129006673Y-112566569D01*
X129128599Y-112688495D01*
X129225384Y-112756265D01*
X129322165Y-112824032D01*
X129322167Y-112824033D01*
X129322170Y-112824035D01*
X129536337Y-112923903D01*
X129764592Y-112985063D01*
X129941034Y-113000500D01*
X129999999Y-113005659D01*
X130000000Y-113005659D01*
X130000001Y-113005659D01*
X130058966Y-113000500D01*
X130235408Y-112985063D01*
X130463663Y-112923903D01*
X130677830Y-112824035D01*
X130871401Y-112688495D01*
X131038495Y-112521401D01*
X131168425Y-112335842D01*
X131223002Y-112292217D01*
X131292500Y-112285023D01*
X131354855Y-112316546D01*
X131371575Y-112335842D01*
X131501500Y-112521395D01*
X131501505Y-112521401D01*
X131668599Y-112688495D01*
X131765384Y-112756265D01*
X131862165Y-112824032D01*
X131862167Y-112824033D01*
X131862170Y-112824035D01*
X132076337Y-112923903D01*
X132304592Y-112985063D01*
X132481034Y-113000500D01*
X132539999Y-113005659D01*
X132540000Y-113005659D01*
X132540001Y-113005659D01*
X132598966Y-113000500D01*
X132775408Y-112985063D01*
X133003663Y-112923903D01*
X133217830Y-112824035D01*
X133411401Y-112688495D01*
X133578495Y-112521401D01*
X133708425Y-112335842D01*
X133763002Y-112292217D01*
X133832500Y-112285023D01*
X133894855Y-112316546D01*
X133911575Y-112335842D01*
X134041500Y-112521395D01*
X134041505Y-112521401D01*
X134208599Y-112688495D01*
X134305384Y-112756265D01*
X134402165Y-112824032D01*
X134402167Y-112824033D01*
X134402170Y-112824035D01*
X134616337Y-112923903D01*
X134844592Y-112985063D01*
X135021034Y-113000500D01*
X135079999Y-113005659D01*
X135080000Y-113005659D01*
X135080001Y-113005659D01*
X135138966Y-113000500D01*
X135315408Y-112985063D01*
X135543663Y-112923903D01*
X135757830Y-112824035D01*
X135951401Y-112688495D01*
X136118495Y-112521401D01*
X136254035Y-112327830D01*
X136353903Y-112113663D01*
X136415063Y-111885408D01*
X136435659Y-111650000D01*
X136415063Y-111414592D01*
X136353903Y-111186337D01*
X136254035Y-110972171D01*
X136248425Y-110964158D01*
X136118494Y-110778597D01*
X135951402Y-110611506D01*
X135951395Y-110611501D01*
X135757834Y-110475967D01*
X135757830Y-110475965D01*
X135757828Y-110475964D01*
X135543663Y-110376097D01*
X135543659Y-110376096D01*
X135543655Y-110376094D01*
X135315413Y-110314938D01*
X135315403Y-110314936D01*
X135080001Y-110294341D01*
X135079999Y-110294341D01*
X134844596Y-110314936D01*
X134844586Y-110314938D01*
X134616344Y-110376094D01*
X134616335Y-110376098D01*
X134402171Y-110475964D01*
X134402169Y-110475965D01*
X134208597Y-110611505D01*
X134041505Y-110778597D01*
X133911575Y-110964158D01*
X133856998Y-111007783D01*
X133787500Y-111014977D01*
X133725145Y-110983454D01*
X133708425Y-110964158D01*
X133578494Y-110778597D01*
X133411402Y-110611506D01*
X133411395Y-110611501D01*
X133217834Y-110475967D01*
X133217830Y-110475965D01*
X133217828Y-110475964D01*
X133003663Y-110376097D01*
X133003659Y-110376096D01*
X133003655Y-110376094D01*
X132775413Y-110314938D01*
X132775403Y-110314936D01*
X132540001Y-110294341D01*
X132539999Y-110294341D01*
X132304596Y-110314936D01*
X132304586Y-110314938D01*
X132076344Y-110376094D01*
X132076335Y-110376098D01*
X131862171Y-110475964D01*
X131862169Y-110475965D01*
X131668597Y-110611505D01*
X131501505Y-110778597D01*
X131371575Y-110964158D01*
X131316998Y-111007783D01*
X131247500Y-111014977D01*
X131185145Y-110983454D01*
X131168425Y-110964158D01*
X131038494Y-110778597D01*
X130871402Y-110611506D01*
X130871395Y-110611501D01*
X130677834Y-110475967D01*
X130677830Y-110475965D01*
X130677828Y-110475964D01*
X130463663Y-110376097D01*
X130463659Y-110376096D01*
X130463655Y-110376094D01*
X130235413Y-110314938D01*
X130235403Y-110314936D01*
X130000001Y-110294341D01*
X129999999Y-110294341D01*
X129764596Y-110314936D01*
X129764586Y-110314938D01*
X129536344Y-110376094D01*
X129536335Y-110376098D01*
X129322171Y-110475964D01*
X129322169Y-110475965D01*
X129128600Y-110611503D01*
X129006673Y-110733430D01*
X128945350Y-110766914D01*
X128875658Y-110761930D01*
X128819725Y-110720058D01*
X128802810Y-110689081D01*
X128753797Y-110557671D01*
X128753793Y-110557664D01*
X128667547Y-110442455D01*
X128667544Y-110442452D01*
X128552335Y-110356206D01*
X128552328Y-110356202D01*
X128417482Y-110305908D01*
X128417483Y-110305908D01*
X128357883Y-110299501D01*
X128357881Y-110299500D01*
X128357873Y-110299500D01*
X128357864Y-110299500D01*
X126562129Y-110299500D01*
X126562123Y-110299501D01*
X126502516Y-110305908D01*
X126367671Y-110356202D01*
X126367664Y-110356206D01*
X126252455Y-110442452D01*
X126252452Y-110442455D01*
X126166206Y-110557664D01*
X126166202Y-110557671D01*
X126115908Y-110692517D01*
X126109501Y-110752116D01*
X126109500Y-110752135D01*
X118860500Y-110752135D01*
X118860500Y-109249994D01*
X147244357Y-109249994D01*
X147244357Y-109250005D01*
X147264890Y-109497812D01*
X147264892Y-109497824D01*
X147325936Y-109738881D01*
X147425826Y-109966606D01*
X147561833Y-110174782D01*
X147561836Y-110174785D01*
X147730256Y-110357738D01*
X147926491Y-110510474D01*
X147926493Y-110510475D01*
X148113172Y-110611501D01*
X148145190Y-110628828D01*
X148380386Y-110709571D01*
X148625665Y-110750500D01*
X148874335Y-110750500D01*
X149119614Y-110709571D01*
X149354810Y-110628828D01*
X149573509Y-110510474D01*
X149769744Y-110357738D01*
X149938164Y-110174785D01*
X150074173Y-109966607D01*
X150174063Y-109738881D01*
X150235108Y-109497821D01*
X150235109Y-109497812D01*
X150255643Y-109250005D01*
X150255643Y-109249994D01*
X150235109Y-109002187D01*
X150235107Y-109002175D01*
X150174063Y-108761118D01*
X150074173Y-108533393D01*
X149938166Y-108325217D01*
X149890926Y-108273901D01*
X149769744Y-108142262D01*
X149573509Y-107989526D01*
X149573507Y-107989525D01*
X149573506Y-107989524D01*
X149354811Y-107871172D01*
X149354802Y-107871169D01*
X149119616Y-107790429D01*
X148874335Y-107749500D01*
X148625665Y-107749500D01*
X148380383Y-107790429D01*
X148145197Y-107871169D01*
X148145188Y-107871172D01*
X147926493Y-107989524D01*
X147730257Y-108142261D01*
X147561833Y-108325217D01*
X147425826Y-108533393D01*
X147325936Y-108761118D01*
X147264892Y-109002175D01*
X147264890Y-109002187D01*
X147244357Y-109249994D01*
X118860500Y-109249994D01*
X118860500Y-106045928D01*
X118835502Y-105920261D01*
X118835501Y-105920260D01*
X118835501Y-105920256D01*
X118786465Y-105801873D01*
X118780171Y-105792454D01*
X118715276Y-105695330D01*
X118715274Y-105695328D01*
X118715272Y-105695325D01*
X118715271Y-105695324D01*
X117747998Y-104728052D01*
X117714513Y-104666729D01*
X117719497Y-104597038D01*
X117761369Y-104541104D01*
X117766764Y-104537285D01*
X117814669Y-104505277D01*
X118621264Y-103698680D01*
X118682587Y-103665196D01*
X118752278Y-103670180D01*
X118774223Y-103680936D01*
X118806693Y-103701041D01*
X118806701Y-103701045D01*
X118806703Y-103701046D01*
X119014510Y-103781551D01*
X119233572Y-103822500D01*
X119233575Y-103822500D01*
X119456425Y-103822500D01*
X119456428Y-103822500D01*
X119675490Y-103781551D01*
X119832134Y-103720866D01*
X119901753Y-103715004D01*
X119963494Y-103747713D01*
X119991485Y-103789039D01*
X120003532Y-103818122D01*
X120003534Y-103818125D01*
X120003535Y-103818127D01*
X120060285Y-103903060D01*
X120074726Y-103924673D01*
X124855325Y-108705272D01*
X124855332Y-108705278D01*
X124961863Y-108776459D01*
X124961867Y-108776461D01*
X124961874Y-108776466D01*
X125025625Y-108802872D01*
X125080256Y-108825501D01*
X125080260Y-108825501D01*
X125080261Y-108825502D01*
X125205928Y-108850500D01*
X125205931Y-108850500D01*
X133944071Y-108850500D01*
X134028615Y-108833682D01*
X134069744Y-108825501D01*
X134188127Y-108776465D01*
X134224140Y-108752402D01*
X134294669Y-108705277D01*
X134652239Y-108347705D01*
X134713558Y-108314223D01*
X134772006Y-108315613D01*
X134844592Y-108335063D01*
X135032918Y-108351539D01*
X135079999Y-108355659D01*
X135080000Y-108355659D01*
X135080001Y-108355659D01*
X135119234Y-108352226D01*
X135315408Y-108335063D01*
X135543663Y-108273903D01*
X135757830Y-108174035D01*
X135951401Y-108038495D01*
X136118495Y-107871401D01*
X136254035Y-107677830D01*
X136353903Y-107463663D01*
X136415063Y-107235408D01*
X136435659Y-107000000D01*
X136415063Y-106764592D01*
X136353903Y-106536337D01*
X136254035Y-106322171D01*
X136249326Y-106315445D01*
X136118494Y-106128597D01*
X135951402Y-105961506D01*
X135951395Y-105961501D01*
X135757834Y-105825967D01*
X135757830Y-105825965D01*
X135757828Y-105825964D01*
X135543663Y-105726097D01*
X135543659Y-105726096D01*
X135543655Y-105726094D01*
X135315413Y-105664938D01*
X135315403Y-105664936D01*
X135122142Y-105648028D01*
X135080344Y-105631677D01*
X135061985Y-105643477D01*
X135037858Y-105648028D01*
X134844596Y-105664936D01*
X134844586Y-105664938D01*
X134616344Y-105726094D01*
X134616335Y-105726098D01*
X134402171Y-105825964D01*
X134402169Y-105825965D01*
X134208597Y-105961505D01*
X134041505Y-106128597D01*
X133911575Y-106314158D01*
X133856998Y-106357783D01*
X133787500Y-106364977D01*
X133725145Y-106333454D01*
X133708425Y-106314158D01*
X133578494Y-106128597D01*
X133411402Y-105961506D01*
X133411395Y-105961501D01*
X133217834Y-105825967D01*
X133217830Y-105825965D01*
X133217828Y-105825964D01*
X133003663Y-105726097D01*
X133003659Y-105726096D01*
X133003655Y-105726094D01*
X132775413Y-105664938D01*
X132775403Y-105664936D01*
X132582142Y-105648028D01*
X132540344Y-105631677D01*
X132521985Y-105643477D01*
X132497858Y-105648028D01*
X132304596Y-105664936D01*
X132304586Y-105664938D01*
X132076344Y-105726094D01*
X132076335Y-105726098D01*
X131862171Y-105825964D01*
X131862169Y-105825965D01*
X131668597Y-105961505D01*
X131501505Y-106128597D01*
X131371575Y-106314158D01*
X131316998Y-106357783D01*
X131247500Y-106364977D01*
X131185145Y-106333454D01*
X131168425Y-106314158D01*
X131038494Y-106128597D01*
X130871402Y-105961506D01*
X130871395Y-105961501D01*
X130677834Y-105825967D01*
X130677830Y-105825965D01*
X130677828Y-105825964D01*
X130463663Y-105726097D01*
X130463659Y-105726096D01*
X130463655Y-105726094D01*
X130235413Y-105664938D01*
X130235403Y-105664936D01*
X130042142Y-105648028D01*
X130000344Y-105631677D01*
X129981985Y-105643477D01*
X129957858Y-105648028D01*
X129764596Y-105664936D01*
X129764586Y-105664938D01*
X129536344Y-105726094D01*
X129536335Y-105726098D01*
X129322171Y-105825964D01*
X129322169Y-105825965D01*
X129128600Y-105961503D01*
X129006673Y-106083430D01*
X128945350Y-106116914D01*
X128875658Y-106111930D01*
X128819725Y-106070058D01*
X128802810Y-106039081D01*
X128753797Y-105907671D01*
X128753793Y-105907664D01*
X128667547Y-105792455D01*
X128667544Y-105792452D01*
X128552335Y-105706206D01*
X128552328Y-105706202D01*
X128417482Y-105655908D01*
X128417483Y-105655908D01*
X128357883Y-105649501D01*
X128357881Y-105649500D01*
X128357873Y-105649500D01*
X128357864Y-105649500D01*
X126562129Y-105649500D01*
X126562123Y-105649501D01*
X126502516Y-105655908D01*
X126367671Y-105706202D01*
X126367664Y-105706206D01*
X126252455Y-105792452D01*
X126252452Y-105792455D01*
X126166206Y-105907664D01*
X126166202Y-105907671D01*
X126115908Y-106042517D01*
X126111510Y-106083430D01*
X126109500Y-106102127D01*
X126109500Y-106794873D01*
X126109501Y-107425500D01*
X126089816Y-107492539D01*
X126037013Y-107538294D01*
X125985501Y-107549500D01*
X125590808Y-107549500D01*
X125523769Y-107529815D01*
X125503127Y-107513181D01*
X122007765Y-104017819D01*
X121974280Y-103956496D01*
X121979264Y-103886804D01*
X122021136Y-103830871D01*
X122072638Y-103808253D01*
X122076337Y-103807562D01*
X122145849Y-103814581D01*
X122186820Y-103841766D01*
X123600325Y-105255272D01*
X123600332Y-105255278D01*
X123697129Y-105319955D01*
X123706871Y-105326464D01*
X123706872Y-105326464D01*
X123706873Y-105326465D01*
X123825256Y-105375501D01*
X123825260Y-105375501D01*
X123825261Y-105375502D01*
X123950928Y-105400500D01*
X123950931Y-105400500D01*
X129947050Y-105400500D01*
X130002285Y-105416719D01*
X130028518Y-105402931D01*
X130052950Y-105400500D01*
X132487050Y-105400500D01*
X132542285Y-105416719D01*
X132568518Y-105402931D01*
X132592950Y-105400500D01*
X135027050Y-105400500D01*
X135082285Y-105416719D01*
X135108518Y-105402931D01*
X135132950Y-105400500D01*
X147316163Y-105400500D01*
X147383202Y-105420185D01*
X147422561Y-105462615D01*
X147423022Y-105462314D01*
X147424785Y-105465012D01*
X147425214Y-105465475D01*
X147425826Y-105466606D01*
X147561833Y-105674782D01*
X147561836Y-105674785D01*
X147730256Y-105857738D01*
X147926491Y-106010474D01*
X148035840Y-106069651D01*
X148095830Y-106102116D01*
X148145190Y-106128828D01*
X148380386Y-106209571D01*
X148625665Y-106250500D01*
X148874335Y-106250500D01*
X149119614Y-106209571D01*
X149354810Y-106128828D01*
X149573509Y-106010474D01*
X149769744Y-105857738D01*
X149938164Y-105674785D01*
X150074173Y-105466607D01*
X150174063Y-105238881D01*
X150235108Y-104997821D01*
X150244408Y-104885585D01*
X150255643Y-104750005D01*
X150255643Y-104749994D01*
X150235109Y-104502187D01*
X150235107Y-104502175D01*
X150174063Y-104261118D01*
X150074173Y-104033393D01*
X149938166Y-103825217D01*
X149916557Y-103801744D01*
X149769744Y-103642262D01*
X149573509Y-103489526D01*
X149573507Y-103489525D01*
X149573506Y-103489524D01*
X149354811Y-103371172D01*
X149354802Y-103371169D01*
X149119616Y-103290429D01*
X148874335Y-103249500D01*
X148625665Y-103249500D01*
X148380383Y-103290429D01*
X148145197Y-103371169D01*
X148145188Y-103371172D01*
X147926493Y-103489524D01*
X147730257Y-103642261D01*
X147561833Y-103825217D01*
X147425826Y-104033393D01*
X147425214Y-104034525D01*
X147424842Y-104034898D01*
X147423022Y-104037686D01*
X147422448Y-104037311D01*
X147375991Y-104084112D01*
X147316163Y-104099500D01*
X146319808Y-104099500D01*
X146252769Y-104079815D01*
X146207014Y-104027011D01*
X146197070Y-103957853D01*
X146226095Y-103894297D01*
X146232127Y-103887819D01*
X148135694Y-101984252D01*
X150205277Y-99914669D01*
X150266788Y-99822609D01*
X150266790Y-99822607D01*
X150276462Y-99808131D01*
X150276465Y-99808127D01*
X150325501Y-99689744D01*
X150340485Y-99614417D01*
X150350500Y-99564071D01*
X150350500Y-79829999D01*
X151524659Y-79829999D01*
X151528903Y-79873090D01*
X151529500Y-79885244D01*
X151529500Y-82488541D01*
X151541912Y-82550941D01*
X151542040Y-82551581D01*
X151542040Y-82551583D01*
X151567947Y-82681828D01*
X151567949Y-82681836D01*
X151588111Y-82730511D01*
X151588111Y-82730512D01*
X151643364Y-82863907D01*
X151643371Y-82863920D01*
X151752859Y-83027780D01*
X151752860Y-83027781D01*
X151752861Y-83027782D01*
X151892218Y-83167139D01*
X151892219Y-83167139D01*
X151899286Y-83174206D01*
X151899285Y-83174206D01*
X151899289Y-83174209D01*
X156560238Y-87835158D01*
X156593723Y-87896481D01*
X156596557Y-87922839D01*
X156596557Y-88845598D01*
X156597533Y-88850507D01*
X156604177Y-88883904D01*
X156604177Y-88883906D01*
X156626329Y-88995273D01*
X156635004Y-89038886D01*
X156635006Y-89038894D01*
X156710421Y-89220964D01*
X156710428Y-89220977D01*
X156819916Y-89384837D01*
X156819917Y-89384838D01*
X156819918Y-89384839D01*
X156959275Y-89524196D01*
X156959276Y-89524196D01*
X156966343Y-89531263D01*
X156966342Y-89531263D01*
X156966346Y-89531266D01*
X160193181Y-92758101D01*
X160226666Y-92819424D01*
X160229500Y-92845782D01*
X160229500Y-107414217D01*
X160209815Y-107481256D01*
X160193181Y-107501898D01*
X153616970Y-114078108D01*
X153555647Y-114111593D01*
X153540098Y-114113955D01*
X153414596Y-114124936D01*
X153414586Y-114124938D01*
X153186344Y-114186094D01*
X153186335Y-114186098D01*
X152972171Y-114285964D01*
X152972169Y-114285965D01*
X152778597Y-114421505D01*
X152611505Y-114588597D01*
X152475965Y-114782169D01*
X152475964Y-114782171D01*
X152376098Y-114996335D01*
X152376094Y-114996344D01*
X152314938Y-115224586D01*
X152314936Y-115224596D01*
X152294341Y-115459999D01*
X152294341Y-115460000D01*
X152314936Y-115695403D01*
X152314938Y-115695413D01*
X152376094Y-115923655D01*
X152376096Y-115923659D01*
X152376097Y-115923663D01*
X152475965Y-116137830D01*
X152475967Y-116137834D01*
X152611501Y-116331395D01*
X152611506Y-116331402D01*
X152613181Y-116333077D01*
X152613682Y-116333995D01*
X152614982Y-116335544D01*
X152614670Y-116335805D01*
X152646666Y-116394400D01*
X152649500Y-116420758D01*
X152649500Y-117039241D01*
X152629815Y-117106280D01*
X152613181Y-117126922D01*
X152611505Y-117128597D01*
X152475965Y-117322169D01*
X152475964Y-117322171D01*
X152376098Y-117536335D01*
X152376094Y-117536344D01*
X152314938Y-117764586D01*
X152314936Y-117764596D01*
X152294341Y-117999999D01*
X152294341Y-118000000D01*
X152314936Y-118235403D01*
X152314938Y-118235413D01*
X152376094Y-118463655D01*
X152376096Y-118463659D01*
X152376097Y-118463663D01*
X152441491Y-118603900D01*
X152475965Y-118677830D01*
X152475967Y-118677834D01*
X152611501Y-118871395D01*
X152611506Y-118871402D01*
X152613181Y-118873077D01*
X152613682Y-118873995D01*
X152614982Y-118875544D01*
X152614670Y-118875805D01*
X152646666Y-118934400D01*
X152649500Y-118960758D01*
X152649500Y-119125858D01*
X152629815Y-119192897D01*
X152577011Y-119238652D01*
X152568847Y-119242034D01*
X152557669Y-119246204D01*
X152557664Y-119246206D01*
X152442455Y-119332452D01*
X152442452Y-119332455D01*
X152356206Y-119447664D01*
X152356202Y-119447671D01*
X152305908Y-119582517D01*
X152304295Y-119597526D01*
X152299501Y-119642123D01*
X152299500Y-119642135D01*
X152299500Y-121437870D01*
X152299501Y-121437876D01*
X152305908Y-121497483D01*
X152356202Y-121632328D01*
X152356206Y-121632335D01*
X152442452Y-121747544D01*
X152442455Y-121747547D01*
X152557664Y-121833793D01*
X152557671Y-121833797D01*
X152692517Y-121884091D01*
X152692516Y-121884091D01*
X152699444Y-121884835D01*
X152752127Y-121890500D01*
X154547872Y-121890499D01*
X154607483Y-121884091D01*
X154742331Y-121833796D01*
X154857546Y-121747546D01*
X154943796Y-121632331D01*
X154994091Y-121497483D01*
X155000500Y-121437873D01*
X155000499Y-119642128D01*
X154994091Y-119582517D01*
X154986358Y-119561785D01*
X154943797Y-119447671D01*
X154943793Y-119447664D01*
X154857547Y-119332455D01*
X154857544Y-119332452D01*
X154742335Y-119246206D01*
X154742332Y-119246205D01*
X154742331Y-119246204D01*
X154731161Y-119242038D01*
X154675231Y-119200166D01*
X154650816Y-119134701D01*
X154650500Y-119125858D01*
X154650500Y-119078711D01*
X178149500Y-119078711D01*
X178149500Y-119321288D01*
X178181161Y-119561785D01*
X178243947Y-119796104D01*
X178336773Y-120020205D01*
X178336776Y-120020212D01*
X178458064Y-120230289D01*
X178458066Y-120230292D01*
X178458067Y-120230293D01*
X178605733Y-120422736D01*
X178605739Y-120422743D01*
X178777256Y-120594260D01*
X178777262Y-120594265D01*
X178969711Y-120741936D01*
X179179788Y-120863224D01*
X179403900Y-120956054D01*
X179638211Y-121018838D01*
X179818586Y-121042584D01*
X179878711Y-121050500D01*
X179878712Y-121050500D01*
X180121289Y-121050500D01*
X180169388Y-121044167D01*
X180361789Y-121018838D01*
X180596100Y-120956054D01*
X180820212Y-120863224D01*
X181030289Y-120741936D01*
X181222738Y-120594265D01*
X181394265Y-120422738D01*
X181541936Y-120230289D01*
X181663224Y-120020212D01*
X181756054Y-119796100D01*
X181818838Y-119561789D01*
X181850500Y-119321288D01*
X181850500Y-119078712D01*
X181818838Y-118838211D01*
X181756054Y-118603900D01*
X181663224Y-118379788D01*
X181541936Y-118169711D01*
X181481018Y-118090321D01*
X181394266Y-117977263D01*
X181394260Y-117977256D01*
X181222743Y-117805739D01*
X181222736Y-117805733D01*
X181030293Y-117658067D01*
X181030292Y-117658066D01*
X181030289Y-117658064D01*
X180820212Y-117536776D01*
X180819152Y-117536337D01*
X180596104Y-117443947D01*
X180361785Y-117381161D01*
X180121289Y-117349500D01*
X180121288Y-117349500D01*
X179878712Y-117349500D01*
X179878711Y-117349500D01*
X179638214Y-117381161D01*
X179403895Y-117443947D01*
X179179794Y-117536773D01*
X179179785Y-117536777D01*
X178969706Y-117658067D01*
X178777263Y-117805733D01*
X178777256Y-117805739D01*
X178605739Y-117977256D01*
X178605733Y-117977263D01*
X178458067Y-118169706D01*
X178336777Y-118379785D01*
X178336773Y-118379794D01*
X178243947Y-118603895D01*
X178181161Y-118838214D01*
X178149500Y-119078711D01*
X154650500Y-119078711D01*
X154650500Y-118960758D01*
X154670185Y-118893719D01*
X154686819Y-118873077D01*
X154688495Y-118871401D01*
X154824035Y-118677830D01*
X154923903Y-118463663D01*
X154985063Y-118235408D01*
X155005659Y-118000000D01*
X154985063Y-117764592D01*
X154923903Y-117536337D01*
X154824035Y-117322171D01*
X154688495Y-117128599D01*
X154688494Y-117128597D01*
X154686819Y-117126922D01*
X154686315Y-117126000D01*
X154685014Y-117124449D01*
X154685325Y-117124187D01*
X154653334Y-117065599D01*
X154650500Y-117039241D01*
X154650500Y-116420758D01*
X154670185Y-116353719D01*
X154686819Y-116333077D01*
X154688495Y-116331401D01*
X154824035Y-116137830D01*
X154923903Y-115923663D01*
X154985063Y-115695408D01*
X154996043Y-115569900D01*
X155021495Y-115504833D01*
X155031882Y-115493036D01*
X161867778Y-108657141D01*
X161867782Y-108657139D01*
X162007139Y-108517782D01*
X162116632Y-108353914D01*
X162177259Y-108207546D01*
X162192051Y-108171836D01*
X162230500Y-107978540D01*
X162230500Y-107781460D01*
X162230500Y-92281459D01*
X162230500Y-92281456D01*
X162205063Y-92153581D01*
X162205063Y-92153580D01*
X162192051Y-92088164D01*
X162154867Y-91998394D01*
X162153089Y-91994101D01*
X162116635Y-91906092D01*
X162116628Y-91906079D01*
X162007140Y-91742219D01*
X161945161Y-91680240D01*
X161867782Y-91602861D01*
X161867781Y-91602860D01*
X158633876Y-88368955D01*
X158600391Y-88307632D01*
X158597557Y-88281274D01*
X158597557Y-87358513D01*
X158597556Y-87358511D01*
X158559110Y-87165231D01*
X158559108Y-87165224D01*
X158559108Y-87165222D01*
X158556559Y-87159069D01*
X158555342Y-87156132D01*
X158528667Y-87091731D01*
X158503483Y-87030931D01*
X158483689Y-86983143D01*
X158468225Y-86960000D01*
X160064659Y-86960000D01*
X160083975Y-87156129D01*
X160141188Y-87344733D01*
X160234086Y-87518532D01*
X160234090Y-87518539D01*
X160359116Y-87670883D01*
X160511460Y-87795909D01*
X160511467Y-87795913D01*
X160685266Y-87888811D01*
X160685269Y-87888811D01*
X160685273Y-87888814D01*
X160873868Y-87946024D01*
X161070000Y-87965341D01*
X161266132Y-87946024D01*
X161454727Y-87888814D01*
X161628538Y-87795910D01*
X161780883Y-87670883D01*
X161905910Y-87518538D01*
X161998814Y-87344727D01*
X162056024Y-87156132D01*
X162075341Y-86960000D01*
X162056024Y-86763868D01*
X161998814Y-86575273D01*
X161998811Y-86575269D01*
X161998811Y-86575266D01*
X161905913Y-86401467D01*
X161905909Y-86401460D01*
X161780883Y-86249116D01*
X161628539Y-86124090D01*
X161628532Y-86124086D01*
X161454733Y-86031188D01*
X161454727Y-86031186D01*
X161294881Y-85982697D01*
X161266129Y-85973975D01*
X161070000Y-85954659D01*
X160873870Y-85973975D01*
X160685266Y-86031188D01*
X160511467Y-86124086D01*
X160511460Y-86124090D01*
X160359116Y-86249116D01*
X160234090Y-86401460D01*
X160234086Y-86401467D01*
X160141188Y-86575266D01*
X160083975Y-86763870D01*
X160064659Y-86960000D01*
X158468225Y-86960000D01*
X158401476Y-86860103D01*
X158374197Y-86819276D01*
X155874921Y-84320000D01*
X160024659Y-84320000D01*
X160043975Y-84516129D01*
X160101188Y-84704733D01*
X160194086Y-84878532D01*
X160194090Y-84878539D01*
X160319116Y-85030883D01*
X160471460Y-85155909D01*
X160471467Y-85155913D01*
X160645266Y-85248811D01*
X160645269Y-85248811D01*
X160645273Y-85248814D01*
X160833868Y-85306024D01*
X161030000Y-85325341D01*
X161226132Y-85306024D01*
X161414727Y-85248814D01*
X161588538Y-85155910D01*
X161740883Y-85030883D01*
X161865910Y-84878538D01*
X161945009Y-84730554D01*
X161958811Y-84704733D01*
X161958811Y-84704732D01*
X161958814Y-84704727D01*
X162016024Y-84516132D01*
X162035341Y-84320000D01*
X162016024Y-84123868D01*
X161958814Y-83935273D01*
X161958811Y-83935269D01*
X161958811Y-83935266D01*
X161865913Y-83761467D01*
X161865909Y-83761460D01*
X161740883Y-83609116D01*
X161588539Y-83484090D01*
X161588532Y-83484086D01*
X161414733Y-83391188D01*
X161414727Y-83391186D01*
X161226132Y-83333976D01*
X161226129Y-83333975D01*
X161030000Y-83314659D01*
X160833870Y-83333975D01*
X160645266Y-83391188D01*
X160471467Y-83484086D01*
X160471460Y-83484090D01*
X160319116Y-83609116D01*
X160194090Y-83761460D01*
X160194086Y-83761467D01*
X160101188Y-83935266D01*
X160043975Y-84123870D01*
X160024659Y-84320000D01*
X155874921Y-84320000D01*
X153566819Y-82011898D01*
X153533334Y-81950575D01*
X153530500Y-81924217D01*
X153530500Y-79885244D01*
X153531097Y-79873090D01*
X153531168Y-79872367D01*
X153535341Y-79830000D01*
X153531097Y-79786907D01*
X153530500Y-79774754D01*
X153530500Y-79731458D01*
X153526666Y-79712184D01*
X153522052Y-79688990D01*
X153520268Y-79676961D01*
X153516024Y-79633869D01*
X153516024Y-79633868D01*
X153503448Y-79592414D01*
X153500499Y-79580640D01*
X153492051Y-79538165D01*
X153475480Y-79498159D01*
X153471383Y-79486710D01*
X153458814Y-79445273D01*
X153438404Y-79407091D01*
X153433203Y-79396095D01*
X153416632Y-79356086D01*
X153392572Y-79320078D01*
X153386316Y-79309640D01*
X153365911Y-79271464D01*
X153365910Y-79271462D01*
X153338438Y-79237988D01*
X153331194Y-79228219D01*
X153307140Y-79192219D01*
X153307136Y-79192214D01*
X153276520Y-79161599D01*
X153268346Y-79152581D01*
X153258523Y-79140612D01*
X153240883Y-79119117D01*
X153207415Y-79091650D01*
X153198401Y-79083479D01*
X153167787Y-79052865D01*
X153167783Y-79052862D01*
X153167780Y-79052860D01*
X153137605Y-79032697D01*
X153131772Y-79028799D01*
X153122002Y-79021552D01*
X153088543Y-78994094D01*
X153088535Y-78994088D01*
X153071436Y-78984948D01*
X153050350Y-78973678D01*
X153039918Y-78967425D01*
X153003918Y-78943370D01*
X153003914Y-78943368D01*
X152963915Y-78926800D01*
X152952913Y-78921597D01*
X152914729Y-78901187D01*
X152914728Y-78901186D01*
X152914727Y-78901186D01*
X152873277Y-78888612D01*
X152861834Y-78884517D01*
X152821834Y-78867948D01*
X152821827Y-78867946D01*
X152779378Y-78859503D01*
X152767575Y-78856547D01*
X152726134Y-78843976D01*
X152726130Y-78843975D01*
X152683035Y-78839730D01*
X152671006Y-78837945D01*
X152628544Y-78829500D01*
X152628541Y-78829500D01*
X152585244Y-78829500D01*
X152573090Y-78828903D01*
X152530000Y-78824659D01*
X152486910Y-78828903D01*
X152474756Y-78829500D01*
X152431453Y-78829500D01*
X152388991Y-78837945D01*
X152376963Y-78839730D01*
X152333867Y-78843976D01*
X152292427Y-78856546D01*
X152280626Y-78859502D01*
X152238166Y-78867948D01*
X152238161Y-78867949D01*
X152198159Y-78884518D01*
X152186707Y-78888616D01*
X152145272Y-78901186D01*
X152107091Y-78921594D01*
X152096093Y-78926795D01*
X152056091Y-78943364D01*
X152020080Y-78967426D01*
X152009645Y-78973680D01*
X151971465Y-78994087D01*
X151971460Y-78994091D01*
X151937990Y-79021557D01*
X151928225Y-79028799D01*
X151892225Y-79052855D01*
X151892219Y-79052860D01*
X151861595Y-79083483D01*
X151852584Y-79091650D01*
X151819117Y-79119117D01*
X151791650Y-79152584D01*
X151783483Y-79161595D01*
X151752860Y-79192219D01*
X151752855Y-79192225D01*
X151728799Y-79228225D01*
X151721557Y-79237990D01*
X151694091Y-79271460D01*
X151694087Y-79271465D01*
X151673680Y-79309645D01*
X151667426Y-79320080D01*
X151643364Y-79356091D01*
X151626795Y-79396093D01*
X151621594Y-79407091D01*
X151601186Y-79445272D01*
X151588616Y-79486707D01*
X151584518Y-79498159D01*
X151567949Y-79538161D01*
X151567948Y-79538166D01*
X151559502Y-79580626D01*
X151556546Y-79592427D01*
X151543976Y-79633867D01*
X151539730Y-79676963D01*
X151537945Y-79688991D01*
X151529500Y-79731453D01*
X151529500Y-79774754D01*
X151528903Y-79786907D01*
X151524659Y-79829999D01*
X150350500Y-79829999D01*
X150350500Y-75835928D01*
X150325502Y-75710261D01*
X150325501Y-75710260D01*
X150325501Y-75710256D01*
X150276465Y-75591873D01*
X150276464Y-75591871D01*
X150257592Y-75563626D01*
X150257592Y-75563625D01*
X150205279Y-75485334D01*
X150205273Y-75485326D01*
X146914673Y-72194726D01*
X146914669Y-72194723D01*
X146808127Y-72123535D01*
X146786097Y-72114410D01*
X146689744Y-72074499D01*
X146689738Y-72074497D01*
X146564071Y-72049500D01*
X146564069Y-72049500D01*
X144835931Y-72049500D01*
X144835928Y-72049500D01*
X144727488Y-72071070D01*
X144657897Y-72064843D01*
X144602719Y-72021980D01*
X144579475Y-71956090D01*
X144595543Y-71888093D01*
X144615616Y-71861772D01*
X144779942Y-71697447D01*
X145785277Y-70692112D01*
X145856466Y-70585569D01*
X145894095Y-70494723D01*
X145905501Y-70467187D01*
X145922887Y-70379785D01*
X145930500Y-70341514D01*
X145930500Y-69456197D01*
X145950185Y-69389158D01*
X145962352Y-69373223D01*
X145971859Y-69362665D01*
X146061250Y-69207835D01*
X146116497Y-69037803D01*
X146135185Y-68860000D01*
X146116497Y-68682197D01*
X146074458Y-68552817D01*
X146072464Y-68482977D01*
X146108544Y-68423144D01*
X146171245Y-68392316D01*
X146192390Y-68390500D01*
X165419192Y-68390500D01*
X165486231Y-68410185D01*
X165506873Y-68426819D01*
X166594416Y-69514361D01*
X166627901Y-69575684D01*
X166622917Y-69645376D01*
X166581045Y-69701309D01*
X166563030Y-69712527D01*
X166423211Y-69783768D01*
X166373099Y-69820177D01*
X166283072Y-69885586D01*
X166283070Y-69885588D01*
X166283069Y-69885588D01*
X166160588Y-70008069D01*
X166160588Y-70008070D01*
X166160586Y-70008072D01*
X166140699Y-70035444D01*
X166058768Y-70148211D01*
X165980128Y-70302552D01*
X165926597Y-70467302D01*
X165899500Y-70638389D01*
X165899500Y-71361611D01*
X165926598Y-71532701D01*
X165980127Y-71697445D01*
X166058768Y-71851788D01*
X166160586Y-71991928D01*
X166283072Y-72114414D01*
X166423212Y-72216232D01*
X166577555Y-72294873D01*
X166742299Y-72348402D01*
X166913389Y-72375500D01*
X166913390Y-72375500D01*
X167086610Y-72375500D01*
X167086611Y-72375500D01*
X167257701Y-72348402D01*
X167422445Y-72294873D01*
X167576788Y-72216232D01*
X167716928Y-72114414D01*
X167839414Y-71991928D01*
X167899682Y-71908975D01*
X167955012Y-71866311D01*
X168024626Y-71860332D01*
X168086421Y-71892938D01*
X168100315Y-71908973D01*
X168160586Y-71991928D01*
X168283072Y-72114414D01*
X168348388Y-72161868D01*
X168391051Y-72217195D01*
X168399500Y-72262184D01*
X168399500Y-77187814D01*
X168379815Y-77254853D01*
X168348387Y-77288131D01*
X168283072Y-77335585D01*
X168160588Y-77458069D01*
X168160581Y-77458078D01*
X168100317Y-77541023D01*
X168044987Y-77583689D01*
X167975374Y-77589667D01*
X167913579Y-77557061D01*
X167899683Y-77541023D01*
X167839418Y-77458078D01*
X167839414Y-77458072D01*
X167716928Y-77335586D01*
X167576788Y-77233768D01*
X167422445Y-77155127D01*
X167257701Y-77101598D01*
X167257699Y-77101597D01*
X167257698Y-77101597D01*
X167094086Y-77075684D01*
X167086611Y-77074500D01*
X166913389Y-77074500D01*
X166905914Y-77075684D01*
X166742302Y-77101597D01*
X166577552Y-77155128D01*
X166423211Y-77233768D01*
X166387949Y-77259388D01*
X166283072Y-77335586D01*
X166283070Y-77335588D01*
X166283069Y-77335588D01*
X166160588Y-77458069D01*
X166160588Y-77458070D01*
X166160586Y-77458072D01*
X166160582Y-77458078D01*
X166058768Y-77598211D01*
X165980128Y-77752552D01*
X165926597Y-77917302D01*
X165899500Y-78088389D01*
X165899500Y-78811610D01*
X165925169Y-78973683D01*
X165926598Y-78982701D01*
X165980127Y-79147445D01*
X166058768Y-79301788D01*
X166160586Y-79441928D01*
X166283072Y-79564414D01*
X166423212Y-79666232D01*
X166577555Y-79744873D01*
X166742299Y-79798402D01*
X166913389Y-79825500D01*
X166913390Y-79825500D01*
X167086610Y-79825500D01*
X167086611Y-79825500D01*
X167257701Y-79798402D01*
X167422445Y-79744873D01*
X167576788Y-79666232D01*
X167716928Y-79564414D01*
X167839414Y-79441928D01*
X167899682Y-79358975D01*
X167955012Y-79316311D01*
X168024626Y-79310332D01*
X168086421Y-79342938D01*
X168100315Y-79358973D01*
X168160586Y-79441928D01*
X168283072Y-79564414D01*
X168348388Y-79611868D01*
X168391051Y-79667195D01*
X168399500Y-79712184D01*
X168399500Y-84187814D01*
X168379815Y-84254853D01*
X168348387Y-84288131D01*
X168283072Y-84335585D01*
X168160588Y-84458069D01*
X168160581Y-84458078D01*
X168100317Y-84541023D01*
X168044987Y-84583689D01*
X167975374Y-84589667D01*
X167913579Y-84557061D01*
X167899683Y-84541023D01*
X167839418Y-84458078D01*
X167839414Y-84458072D01*
X167716928Y-84335586D01*
X167576788Y-84233768D01*
X167422445Y-84155127D01*
X167257701Y-84101598D01*
X167257699Y-84101597D01*
X167257698Y-84101597D01*
X167126271Y-84080781D01*
X167086611Y-84074500D01*
X166913389Y-84074500D01*
X166873728Y-84080781D01*
X166742302Y-84101597D01*
X166577552Y-84155128D01*
X166423211Y-84233768D01*
X166348388Y-84288131D01*
X166283072Y-84335586D01*
X166283070Y-84335588D01*
X166283069Y-84335588D01*
X166160588Y-84458069D01*
X166160588Y-84458070D01*
X166160586Y-84458072D01*
X166160582Y-84458078D01*
X166058768Y-84598211D01*
X165980128Y-84752552D01*
X165926597Y-84917302D01*
X165899500Y-85088389D01*
X165899500Y-85811610D01*
X165923940Y-85965924D01*
X165926598Y-85982701D01*
X165980127Y-86147445D01*
X166058768Y-86301788D01*
X166160586Y-86441928D01*
X166283072Y-86564414D01*
X166423212Y-86666232D01*
X166577555Y-86744873D01*
X166742299Y-86798402D01*
X166913389Y-86825500D01*
X166913390Y-86825500D01*
X167086610Y-86825500D01*
X167086611Y-86825500D01*
X167257701Y-86798402D01*
X167422445Y-86744873D01*
X167576788Y-86666232D01*
X167716928Y-86564414D01*
X167839414Y-86441928D01*
X167899682Y-86358975D01*
X167955012Y-86316311D01*
X168024626Y-86310332D01*
X168086421Y-86342938D01*
X168100315Y-86358973D01*
X168160586Y-86441928D01*
X168283072Y-86564414D01*
X168348388Y-86611868D01*
X168391051Y-86667195D01*
X168399500Y-86712184D01*
X168399500Y-90737814D01*
X168379815Y-90804853D01*
X168348387Y-90838131D01*
X168283072Y-90885585D01*
X168160588Y-91008069D01*
X168160581Y-91008078D01*
X168100317Y-91091023D01*
X168044987Y-91133689D01*
X167975374Y-91139667D01*
X167913579Y-91107061D01*
X167899683Y-91091023D01*
X167839418Y-91008078D01*
X167839414Y-91008072D01*
X167716928Y-90885586D01*
X167576788Y-90783768D01*
X167422445Y-90705127D01*
X167257701Y-90651598D01*
X167257699Y-90651597D01*
X167257698Y-90651597D01*
X167126271Y-90630781D01*
X167086611Y-90624500D01*
X166913389Y-90624500D01*
X166873728Y-90630781D01*
X166742302Y-90651597D01*
X166577552Y-90705128D01*
X166423211Y-90783768D01*
X166348388Y-90838131D01*
X166283072Y-90885586D01*
X166283070Y-90885588D01*
X166283069Y-90885588D01*
X166160588Y-91008069D01*
X166160588Y-91008070D01*
X166160586Y-91008072D01*
X166128609Y-91052085D01*
X166058768Y-91148211D01*
X165980128Y-91302552D01*
X165926597Y-91467302D01*
X165907867Y-91585562D01*
X165899500Y-91638389D01*
X165899500Y-92361611D01*
X165904462Y-92392938D01*
X165921418Y-92500000D01*
X165926598Y-92532701D01*
X165967576Y-92658818D01*
X165980128Y-92697447D01*
X166029538Y-92794420D01*
X166058768Y-92851788D01*
X166160586Y-92991928D01*
X166283072Y-93114414D01*
X166423212Y-93216232D01*
X166577555Y-93294873D01*
X166742299Y-93348402D01*
X166913389Y-93375500D01*
X166913390Y-93375500D01*
X167086610Y-93375500D01*
X167086611Y-93375500D01*
X167257701Y-93348402D01*
X167422445Y-93294873D01*
X167576788Y-93216232D01*
X167716928Y-93114414D01*
X167839414Y-92991928D01*
X167899682Y-92908975D01*
X167955012Y-92866311D01*
X168024626Y-92860332D01*
X168086421Y-92892938D01*
X168100315Y-92908973D01*
X168160586Y-92991928D01*
X168283072Y-93114414D01*
X168348388Y-93161868D01*
X168391051Y-93217195D01*
X168399500Y-93262184D01*
X168399500Y-97737814D01*
X168379815Y-97804853D01*
X168348387Y-97838131D01*
X168283072Y-97885585D01*
X168160588Y-98008069D01*
X168160581Y-98008078D01*
X168100317Y-98091023D01*
X168044987Y-98133689D01*
X167975374Y-98139667D01*
X167913579Y-98107061D01*
X167899683Y-98091023D01*
X167839418Y-98008078D01*
X167839414Y-98008072D01*
X167716928Y-97885586D01*
X167576788Y-97783768D01*
X167422445Y-97705127D01*
X167257701Y-97651598D01*
X167257699Y-97651597D01*
X167257698Y-97651597D01*
X167126271Y-97630781D01*
X167086611Y-97624500D01*
X166913389Y-97624500D01*
X166873728Y-97630781D01*
X166742302Y-97651597D01*
X166742299Y-97651598D01*
X166628183Y-97688677D01*
X166577552Y-97705128D01*
X166423211Y-97783768D01*
X166351973Y-97835526D01*
X166283072Y-97885586D01*
X166283070Y-97885588D01*
X166283069Y-97885588D01*
X166160588Y-98008069D01*
X166160588Y-98008070D01*
X166160586Y-98008072D01*
X166133559Y-98045272D01*
X166058768Y-98148211D01*
X165980128Y-98302552D01*
X165926597Y-98467302D01*
X165904445Y-98607168D01*
X165899500Y-98638389D01*
X165899500Y-99361611D01*
X165900302Y-99366672D01*
X165920713Y-99495549D01*
X165926598Y-99532701D01*
X165967576Y-99658818D01*
X165980128Y-99697447D01*
X166000000Y-99736448D01*
X166058768Y-99851788D01*
X166160586Y-99991928D01*
X166283072Y-100114414D01*
X166423212Y-100216232D01*
X166577555Y-100294873D01*
X166742299Y-100348402D01*
X166913389Y-100375500D01*
X166913390Y-100375500D01*
X167086610Y-100375500D01*
X167086611Y-100375500D01*
X167257701Y-100348402D01*
X167422445Y-100294873D01*
X167576788Y-100216232D01*
X167716928Y-100114414D01*
X167839414Y-99991928D01*
X167899682Y-99908975D01*
X167955012Y-99866311D01*
X168024626Y-99860332D01*
X168086421Y-99892938D01*
X168100315Y-99908973D01*
X168160586Y-99991928D01*
X168283072Y-100114414D01*
X168348388Y-100161868D01*
X168391051Y-100217195D01*
X168399500Y-100262184D01*
X168399500Y-104737814D01*
X168379815Y-104804853D01*
X168348387Y-104838131D01*
X168283072Y-104885585D01*
X168160588Y-105008069D01*
X168160581Y-105008078D01*
X168100317Y-105091023D01*
X168044987Y-105133689D01*
X167975374Y-105139667D01*
X167913579Y-105107061D01*
X167899683Y-105091023D01*
X167839418Y-105008078D01*
X167839414Y-105008072D01*
X167716928Y-104885586D01*
X167576788Y-104783768D01*
X167422445Y-104705127D01*
X167257701Y-104651598D01*
X167257699Y-104651597D01*
X167257698Y-104651597D01*
X167126271Y-104630781D01*
X167086611Y-104624500D01*
X166913389Y-104624500D01*
X166873728Y-104630781D01*
X166742302Y-104651597D01*
X166577552Y-104705128D01*
X166423211Y-104783768D01*
X166348388Y-104838131D01*
X166283072Y-104885586D01*
X166283070Y-104885588D01*
X166283069Y-104885588D01*
X166160588Y-105008069D01*
X166160588Y-105008070D01*
X166160586Y-105008072D01*
X166160582Y-105008078D01*
X166058768Y-105148211D01*
X165980128Y-105302552D01*
X165926597Y-105467302D01*
X165916360Y-105531940D01*
X165899500Y-105638389D01*
X165899500Y-106361611D01*
X165902325Y-106379446D01*
X165920140Y-106491930D01*
X165926598Y-106532701D01*
X165967576Y-106658818D01*
X165980128Y-106697447D01*
X166000000Y-106736448D01*
X166058768Y-106851788D01*
X166160586Y-106991928D01*
X166283072Y-107114414D01*
X166423212Y-107216232D01*
X166577555Y-107294873D01*
X166742299Y-107348402D01*
X166913389Y-107375500D01*
X166913390Y-107375500D01*
X167086610Y-107375500D01*
X167086611Y-107375500D01*
X167257701Y-107348402D01*
X167422445Y-107294873D01*
X167576788Y-107216232D01*
X167716928Y-107114414D01*
X167839414Y-106991928D01*
X167899682Y-106908975D01*
X167955012Y-106866311D01*
X168024626Y-106860332D01*
X168086421Y-106892938D01*
X168100315Y-106908973D01*
X168160586Y-106991928D01*
X168283072Y-107114414D01*
X168348388Y-107161868D01*
X168391051Y-107217195D01*
X168399500Y-107262184D01*
X168399500Y-111187814D01*
X168379815Y-111254853D01*
X168348387Y-111288131D01*
X168283072Y-111335585D01*
X168160588Y-111458069D01*
X168160581Y-111458078D01*
X168100317Y-111541023D01*
X168044987Y-111583689D01*
X167975374Y-111589667D01*
X167913579Y-111557061D01*
X167899683Y-111541023D01*
X167839418Y-111458078D01*
X167839414Y-111458072D01*
X167716928Y-111335586D01*
X167576788Y-111233768D01*
X167422445Y-111155127D01*
X167257701Y-111101598D01*
X167257699Y-111101597D01*
X167257698Y-111101597D01*
X167126271Y-111080781D01*
X167086611Y-111074500D01*
X166913389Y-111074500D01*
X166873728Y-111080781D01*
X166742302Y-111101597D01*
X166577552Y-111155128D01*
X166423211Y-111233768D01*
X166389752Y-111258078D01*
X166283072Y-111335586D01*
X166283070Y-111335588D01*
X166283069Y-111335588D01*
X166160588Y-111458069D01*
X166160588Y-111458070D01*
X166160586Y-111458072D01*
X166160582Y-111458078D01*
X166058768Y-111598211D01*
X165980128Y-111752552D01*
X165926597Y-111917302D01*
X165899500Y-112088389D01*
X165899500Y-112811610D01*
X165920435Y-112943793D01*
X165926598Y-112982701D01*
X165980127Y-113147445D01*
X166058768Y-113301788D01*
X166160586Y-113441928D01*
X166283072Y-113564414D01*
X166423212Y-113666232D01*
X166577555Y-113744873D01*
X166742299Y-113798402D01*
X166913389Y-113825500D01*
X166913390Y-113825500D01*
X167086610Y-113825500D01*
X167086611Y-113825500D01*
X167257701Y-113798402D01*
X167422445Y-113744873D01*
X167576788Y-113666232D01*
X167716928Y-113564414D01*
X167839414Y-113441928D01*
X167899682Y-113358975D01*
X167955012Y-113316311D01*
X168024626Y-113310332D01*
X168086421Y-113342938D01*
X168100315Y-113358973D01*
X168160586Y-113441928D01*
X168283072Y-113564414D01*
X168423212Y-113666232D01*
X168577555Y-113744873D01*
X168742299Y-113798402D01*
X168913389Y-113825500D01*
X168913390Y-113825500D01*
X169086610Y-113825500D01*
X169086611Y-113825500D01*
X169257701Y-113798402D01*
X169422445Y-113744873D01*
X169576788Y-113666232D01*
X169716928Y-113564414D01*
X169839414Y-113441928D01*
X169941232Y-113301788D01*
X170019873Y-113147445D01*
X170073402Y-112982701D01*
X170100500Y-112811611D01*
X170100500Y-112088389D01*
X170073402Y-111917299D01*
X170019873Y-111752555D01*
X169941232Y-111598212D01*
X169839414Y-111458072D01*
X169716928Y-111335586D01*
X169651613Y-111288131D01*
X169608948Y-111232801D01*
X169600500Y-111187814D01*
X169600500Y-107262184D01*
X169620185Y-107195145D01*
X169651609Y-107161870D01*
X169716928Y-107114414D01*
X169839414Y-106991928D01*
X169941232Y-106851788D01*
X170019873Y-106697445D01*
X170073402Y-106532701D01*
X170100500Y-106361611D01*
X170100500Y-105638389D01*
X170073402Y-105467299D01*
X170019873Y-105302555D01*
X169941232Y-105148212D01*
X169839414Y-105008072D01*
X169716928Y-104885586D01*
X169651613Y-104838131D01*
X169608948Y-104782801D01*
X169600500Y-104737814D01*
X169600500Y-100262184D01*
X169620185Y-100195145D01*
X169651609Y-100161870D01*
X169716928Y-100114414D01*
X169839414Y-99991928D01*
X169941232Y-99851788D01*
X170019873Y-99697445D01*
X170073402Y-99532701D01*
X170100500Y-99361611D01*
X170100500Y-98638389D01*
X170073402Y-98467299D01*
X170019873Y-98302555D01*
X169941232Y-98148212D01*
X169839414Y-98008072D01*
X169716928Y-97885586D01*
X169694230Y-97869095D01*
X169651613Y-97838131D01*
X169608948Y-97782801D01*
X169600500Y-97737814D01*
X169600500Y-93262184D01*
X169620185Y-93195145D01*
X169651609Y-93161870D01*
X169716928Y-93114414D01*
X169839414Y-92991928D01*
X169941232Y-92851788D01*
X170019873Y-92697445D01*
X170073402Y-92532701D01*
X170100500Y-92361611D01*
X170100500Y-91638389D01*
X170073402Y-91467299D01*
X170019873Y-91302555D01*
X169941232Y-91148212D01*
X169839414Y-91008072D01*
X169716928Y-90885586D01*
X169714369Y-90883727D01*
X169651613Y-90838131D01*
X169608948Y-90782801D01*
X169600500Y-90737814D01*
X169600500Y-86712184D01*
X169620185Y-86645145D01*
X169651609Y-86611870D01*
X169716928Y-86564414D01*
X169839414Y-86441928D01*
X169941232Y-86301788D01*
X170019873Y-86147445D01*
X170073402Y-85982701D01*
X170100500Y-85811611D01*
X170100500Y-85088389D01*
X170073402Y-84917299D01*
X170019873Y-84752555D01*
X169941232Y-84598212D01*
X169839414Y-84458072D01*
X169716928Y-84335586D01*
X169651613Y-84288131D01*
X169608948Y-84232801D01*
X169600500Y-84187814D01*
X169600500Y-79712184D01*
X169620185Y-79645145D01*
X169651609Y-79611870D01*
X169716928Y-79564414D01*
X169839414Y-79441928D01*
X169941232Y-79301788D01*
X170019873Y-79147445D01*
X170073402Y-78982701D01*
X170100500Y-78811611D01*
X170100500Y-78088389D01*
X170073402Y-77917299D01*
X170019873Y-77752555D01*
X169941232Y-77598212D01*
X169839414Y-77458072D01*
X169716928Y-77335586D01*
X169661383Y-77295230D01*
X169651613Y-77288131D01*
X169608948Y-77232801D01*
X169600500Y-77187814D01*
X169600500Y-72262184D01*
X169620185Y-72195145D01*
X169651609Y-72161870D01*
X169716928Y-72114414D01*
X169839414Y-71991928D01*
X169941232Y-71851788D01*
X170009295Y-71718206D01*
X170057269Y-71667409D01*
X170119780Y-71650500D01*
X172179192Y-71650500D01*
X172246231Y-71670185D01*
X172266873Y-71686819D01*
X177594415Y-77014361D01*
X177627900Y-77075684D01*
X177622916Y-77145376D01*
X177581044Y-77201309D01*
X177563029Y-77212527D01*
X177423211Y-77283768D01*
X177351892Y-77335585D01*
X177283072Y-77385586D01*
X177283070Y-77385588D01*
X177283069Y-77385588D01*
X177160588Y-77508069D01*
X177160588Y-77508070D01*
X177160586Y-77508072D01*
X177136646Y-77541023D01*
X177058768Y-77648211D01*
X176980128Y-77802552D01*
X176926597Y-77967302D01*
X176914136Y-78045978D01*
X176899500Y-78138389D01*
X176899500Y-78861611D01*
X176900504Y-78867948D01*
X176926099Y-79029554D01*
X176926598Y-79032701D01*
X176980127Y-79197445D01*
X177058768Y-79351788D01*
X177160586Y-79491928D01*
X177283072Y-79614414D01*
X177423212Y-79716232D01*
X177577555Y-79794873D01*
X177742299Y-79848402D01*
X177913389Y-79875500D01*
X177913390Y-79875500D01*
X178086610Y-79875500D01*
X178086611Y-79875500D01*
X178257701Y-79848402D01*
X178422445Y-79794873D01*
X178576788Y-79716232D01*
X178716928Y-79614414D01*
X178839414Y-79491928D01*
X178899682Y-79408975D01*
X178955012Y-79366311D01*
X179024626Y-79360332D01*
X179086421Y-79392938D01*
X179100315Y-79408973D01*
X179160586Y-79491928D01*
X179160588Y-79491930D01*
X179283070Y-79614412D01*
X179283076Y-79614417D01*
X179298382Y-79625537D01*
X179341050Y-79680866D01*
X179349500Y-79725857D01*
X179349500Y-83824142D01*
X179329815Y-83891181D01*
X179298387Y-83924459D01*
X179283072Y-83935585D01*
X179160588Y-84058069D01*
X179160581Y-84058078D01*
X179100317Y-84141023D01*
X179044987Y-84183689D01*
X178975374Y-84189667D01*
X178913579Y-84157061D01*
X178899683Y-84141023D01*
X178839418Y-84058078D01*
X178839414Y-84058072D01*
X178716928Y-83935586D01*
X178576788Y-83833768D01*
X178422445Y-83755127D01*
X178257701Y-83701598D01*
X178257699Y-83701597D01*
X178257698Y-83701597D01*
X178126271Y-83680781D01*
X178086611Y-83674500D01*
X177913389Y-83674500D01*
X177873728Y-83680781D01*
X177742302Y-83701597D01*
X177577552Y-83755128D01*
X177423211Y-83833768D01*
X177374543Y-83869128D01*
X177283072Y-83935586D01*
X177283070Y-83935588D01*
X177283069Y-83935588D01*
X177160588Y-84058069D01*
X177160588Y-84058070D01*
X177160586Y-84058072D01*
X177116859Y-84118256D01*
X177058768Y-84198211D01*
X176980128Y-84352552D01*
X176926597Y-84517302D01*
X176912731Y-84604851D01*
X176899500Y-84688389D01*
X176899500Y-85411611D01*
X176901853Y-85426465D01*
X176925059Y-85572989D01*
X176926598Y-85582701D01*
X176980127Y-85747445D01*
X177058768Y-85901788D01*
X177160586Y-86041928D01*
X177283072Y-86164414D01*
X177423212Y-86266232D01*
X177577555Y-86344873D01*
X177742299Y-86398402D01*
X177913389Y-86425500D01*
X177913390Y-86425500D01*
X178086610Y-86425500D01*
X178086611Y-86425500D01*
X178257701Y-86398402D01*
X178422445Y-86344873D01*
X178576788Y-86266232D01*
X178716928Y-86164414D01*
X178839414Y-86041928D01*
X178899682Y-85958975D01*
X178955012Y-85916311D01*
X179024626Y-85910332D01*
X179086421Y-85942938D01*
X179100315Y-85958973D01*
X179160586Y-86041928D01*
X179160588Y-86041930D01*
X179283070Y-86164412D01*
X179283076Y-86164417D01*
X179298382Y-86175537D01*
X179341050Y-86230866D01*
X179349500Y-86275857D01*
X179349500Y-90274142D01*
X179329815Y-90341181D01*
X179298387Y-90374459D01*
X179283072Y-90385585D01*
X179160588Y-90508069D01*
X179160581Y-90508078D01*
X179100317Y-90591023D01*
X179044987Y-90633689D01*
X178975374Y-90639667D01*
X178913579Y-90607061D01*
X178899683Y-90591023D01*
X178839418Y-90508078D01*
X178839414Y-90508072D01*
X178716928Y-90385586D01*
X178576788Y-90283768D01*
X178422445Y-90205127D01*
X178257701Y-90151598D01*
X178257699Y-90151597D01*
X178257698Y-90151597D01*
X178126271Y-90130781D01*
X178086611Y-90124500D01*
X177913389Y-90124500D01*
X177873728Y-90130781D01*
X177742302Y-90151597D01*
X177577552Y-90205128D01*
X177423211Y-90283768D01*
X177374543Y-90319128D01*
X177283072Y-90385586D01*
X177283070Y-90385588D01*
X177283069Y-90385588D01*
X177160588Y-90508069D01*
X177160588Y-90508070D01*
X177160586Y-90508072D01*
X177125948Y-90555747D01*
X177058768Y-90648211D01*
X176980128Y-90802552D01*
X176926597Y-90967302D01*
X176900244Y-91133689D01*
X176899500Y-91138389D01*
X176899500Y-91861611D01*
X176902674Y-91881648D01*
X176925179Y-92023746D01*
X176926598Y-92032701D01*
X176980127Y-92197445D01*
X177058768Y-92351788D01*
X177160586Y-92491928D01*
X177283072Y-92614414D01*
X177423212Y-92716232D01*
X177577555Y-92794873D01*
X177742299Y-92848402D01*
X177913389Y-92875500D01*
X177913390Y-92875500D01*
X178086610Y-92875500D01*
X178086611Y-92875500D01*
X178257701Y-92848402D01*
X178422445Y-92794873D01*
X178576788Y-92716232D01*
X178716928Y-92614414D01*
X178839414Y-92491928D01*
X178899682Y-92408975D01*
X178955012Y-92366311D01*
X179024626Y-92360332D01*
X179086421Y-92392938D01*
X179100315Y-92408973D01*
X179160586Y-92491928D01*
X179160588Y-92491930D01*
X179283070Y-92614412D01*
X179283076Y-92614417D01*
X179298382Y-92625537D01*
X179341050Y-92680866D01*
X179349500Y-92725857D01*
X179349500Y-97274142D01*
X179329815Y-97341181D01*
X179298387Y-97374459D01*
X179283072Y-97385585D01*
X179160588Y-97508069D01*
X179160581Y-97508078D01*
X179100317Y-97591023D01*
X179044987Y-97633689D01*
X178975374Y-97639667D01*
X178913579Y-97607061D01*
X178899683Y-97591023D01*
X178839418Y-97508078D01*
X178839414Y-97508072D01*
X178716928Y-97385586D01*
X178576788Y-97283768D01*
X178422445Y-97205127D01*
X178257701Y-97151598D01*
X178257699Y-97151597D01*
X178257698Y-97151597D01*
X178126271Y-97130781D01*
X178086611Y-97124500D01*
X177913389Y-97124500D01*
X177873728Y-97130781D01*
X177742302Y-97151597D01*
X177742299Y-97151598D01*
X177599807Y-97197897D01*
X177577552Y-97205128D01*
X177423211Y-97283768D01*
X177374543Y-97319128D01*
X177283072Y-97385586D01*
X177283070Y-97385588D01*
X177283069Y-97385588D01*
X177160588Y-97508069D01*
X177160588Y-97508070D01*
X177160586Y-97508072D01*
X177116859Y-97568256D01*
X177058768Y-97648211D01*
X176980128Y-97802552D01*
X176926597Y-97967302D01*
X176900244Y-98133689D01*
X176899500Y-98138389D01*
X176899500Y-98861611D01*
X176902017Y-98877500D01*
X176925291Y-99024454D01*
X176926598Y-99032701D01*
X176980127Y-99197445D01*
X177058768Y-99351788D01*
X177160586Y-99491928D01*
X177283072Y-99614414D01*
X177423212Y-99716232D01*
X177577555Y-99794873D01*
X177742299Y-99848402D01*
X177913389Y-99875500D01*
X177913390Y-99875500D01*
X178086610Y-99875500D01*
X178086611Y-99875500D01*
X178257701Y-99848402D01*
X178422445Y-99794873D01*
X178576788Y-99716232D01*
X178716928Y-99614414D01*
X178839414Y-99491928D01*
X178899682Y-99408975D01*
X178955012Y-99366311D01*
X179024626Y-99360332D01*
X179086421Y-99392938D01*
X179100315Y-99408973D01*
X179160586Y-99491928D01*
X179160588Y-99491930D01*
X179283070Y-99614412D01*
X179283076Y-99614417D01*
X179298382Y-99625537D01*
X179341050Y-99680866D01*
X179349500Y-99725857D01*
X179349500Y-104274142D01*
X179329815Y-104341181D01*
X179298387Y-104374459D01*
X179283072Y-104385585D01*
X179160588Y-104508069D01*
X179160581Y-104508078D01*
X179100317Y-104591023D01*
X179044987Y-104633689D01*
X178975374Y-104639667D01*
X178913579Y-104607061D01*
X178899683Y-104591023D01*
X178839418Y-104508078D01*
X178839414Y-104508072D01*
X178716928Y-104385586D01*
X178576788Y-104283768D01*
X178422445Y-104205127D01*
X178257701Y-104151598D01*
X178257699Y-104151597D01*
X178257698Y-104151597D01*
X178126271Y-104130781D01*
X178086611Y-104124500D01*
X177913389Y-104124500D01*
X177873728Y-104130781D01*
X177742302Y-104151597D01*
X177577552Y-104205128D01*
X177423211Y-104283768D01*
X177374543Y-104319128D01*
X177283072Y-104385586D01*
X177283070Y-104385588D01*
X177283069Y-104385588D01*
X177160588Y-104508069D01*
X177160588Y-104508070D01*
X177160586Y-104508072D01*
X177160582Y-104508078D01*
X177058768Y-104648211D01*
X176980128Y-104802552D01*
X176926597Y-104967302D01*
X176899500Y-105138389D01*
X176899500Y-105861610D01*
X176923077Y-106010475D01*
X176926598Y-106032701D01*
X176980127Y-106197445D01*
X177058768Y-106351788D01*
X177160586Y-106491928D01*
X177283072Y-106614414D01*
X177423212Y-106716232D01*
X177577555Y-106794873D01*
X177742299Y-106848402D01*
X177913389Y-106875500D01*
X177913390Y-106875500D01*
X178086610Y-106875500D01*
X178086611Y-106875500D01*
X178257701Y-106848402D01*
X178422445Y-106794873D01*
X178576788Y-106716232D01*
X178716928Y-106614414D01*
X178839414Y-106491928D01*
X178899682Y-106408975D01*
X178955012Y-106366311D01*
X179024626Y-106360332D01*
X179086421Y-106392938D01*
X179100315Y-106408973D01*
X179160586Y-106491928D01*
X179160588Y-106491930D01*
X179283070Y-106614412D01*
X179283076Y-106614417D01*
X179298382Y-106625537D01*
X179341050Y-106680866D01*
X179349500Y-106725857D01*
X179349500Y-111024142D01*
X179329815Y-111091181D01*
X179298387Y-111124459D01*
X179283072Y-111135585D01*
X179160588Y-111258069D01*
X179160581Y-111258078D01*
X179100317Y-111341023D01*
X179044987Y-111383689D01*
X178975374Y-111389667D01*
X178913579Y-111357061D01*
X178899683Y-111341023D01*
X178839418Y-111258078D01*
X178839414Y-111258072D01*
X178716928Y-111135586D01*
X178576788Y-111033768D01*
X178455892Y-110972169D01*
X178422447Y-110955128D01*
X178422446Y-110955127D01*
X178422445Y-110955127D01*
X178257701Y-110901598D01*
X178257699Y-110901597D01*
X178257698Y-110901597D01*
X178126271Y-110880781D01*
X178086611Y-110874500D01*
X177913389Y-110874500D01*
X177873728Y-110880781D01*
X177742302Y-110901597D01*
X177577552Y-110955128D01*
X177423211Y-111033768D01*
X177374543Y-111069128D01*
X177283072Y-111135586D01*
X177283070Y-111135588D01*
X177283069Y-111135588D01*
X177160588Y-111258069D01*
X177160588Y-111258070D01*
X177160586Y-111258072D01*
X177160582Y-111258078D01*
X177058768Y-111398211D01*
X176980128Y-111552552D01*
X176926597Y-111717302D01*
X176899500Y-111888389D01*
X176899500Y-112611610D01*
X176920204Y-112742335D01*
X176926598Y-112782701D01*
X176980127Y-112947445D01*
X177058768Y-113101788D01*
X177160586Y-113241928D01*
X177283072Y-113364414D01*
X177423212Y-113466232D01*
X177577555Y-113544873D01*
X177742299Y-113598402D01*
X177913389Y-113625500D01*
X177913390Y-113625500D01*
X178086610Y-113625500D01*
X178086611Y-113625500D01*
X178257701Y-113598402D01*
X178422445Y-113544873D01*
X178576788Y-113466232D01*
X178716928Y-113364414D01*
X178839414Y-113241928D01*
X178899682Y-113158975D01*
X178955012Y-113116311D01*
X179024626Y-113110332D01*
X179086421Y-113142938D01*
X179100315Y-113158973D01*
X179160586Y-113241928D01*
X179283072Y-113364414D01*
X179423212Y-113466232D01*
X179577555Y-113544873D01*
X179742299Y-113598402D01*
X179913389Y-113625500D01*
X179913390Y-113625500D01*
X180086610Y-113625500D01*
X180086611Y-113625500D01*
X180257701Y-113598402D01*
X180422445Y-113544873D01*
X180576788Y-113466232D01*
X180716928Y-113364414D01*
X180839414Y-113241928D01*
X180941232Y-113101788D01*
X181019873Y-112947445D01*
X181073402Y-112782701D01*
X181100500Y-112611611D01*
X181100500Y-111888389D01*
X181073402Y-111717299D01*
X181019873Y-111552555D01*
X180941232Y-111398212D01*
X180839414Y-111258072D01*
X180716928Y-111135586D01*
X180701612Y-111124458D01*
X180658948Y-111069128D01*
X180650500Y-111024142D01*
X180650500Y-106725857D01*
X180670185Y-106658818D01*
X180701618Y-106625537D01*
X180716928Y-106614414D01*
X180839414Y-106491928D01*
X180941232Y-106351788D01*
X181019873Y-106197445D01*
X181073402Y-106032701D01*
X181100500Y-105861611D01*
X181100500Y-105138389D01*
X181073402Y-104967299D01*
X181019873Y-104802555D01*
X180941232Y-104648212D01*
X180839414Y-104508072D01*
X180716928Y-104385586D01*
X180701612Y-104374458D01*
X180658948Y-104319128D01*
X180650500Y-104274142D01*
X180650500Y-99725857D01*
X180670185Y-99658818D01*
X180701618Y-99625537D01*
X180716928Y-99614414D01*
X180839414Y-99491928D01*
X180941232Y-99351788D01*
X181019873Y-99197445D01*
X181073402Y-99032701D01*
X181100500Y-98861611D01*
X181100500Y-98138389D01*
X181073402Y-97967299D01*
X181019873Y-97802555D01*
X180941232Y-97648212D01*
X180839414Y-97508072D01*
X180716928Y-97385586D01*
X180701612Y-97374458D01*
X180658948Y-97319128D01*
X180650500Y-97274142D01*
X180650500Y-92725857D01*
X180670185Y-92658818D01*
X180701618Y-92625537D01*
X180716928Y-92614414D01*
X180839414Y-92491928D01*
X180941232Y-92351788D01*
X181019873Y-92197445D01*
X181073402Y-92032701D01*
X181100500Y-91861611D01*
X181100500Y-91138389D01*
X181073402Y-90967299D01*
X181019873Y-90802555D01*
X180941232Y-90648212D01*
X180839414Y-90508072D01*
X180716928Y-90385586D01*
X180701612Y-90374458D01*
X180658948Y-90319128D01*
X180650500Y-90274142D01*
X180650500Y-86275857D01*
X180670185Y-86208818D01*
X180701618Y-86175537D01*
X180702817Y-86174666D01*
X180716928Y-86164414D01*
X180839414Y-86041928D01*
X180941232Y-85901788D01*
X181019873Y-85747445D01*
X181073402Y-85582701D01*
X181100500Y-85411611D01*
X181100500Y-84688389D01*
X181073402Y-84517299D01*
X181019873Y-84352555D01*
X180941232Y-84198212D01*
X180839414Y-84058072D01*
X180716928Y-83935586D01*
X180716497Y-83935273D01*
X180701613Y-83924459D01*
X180658948Y-83869128D01*
X180650500Y-83824142D01*
X180650500Y-79725857D01*
X180670185Y-79658818D01*
X180701618Y-79625537D01*
X180716928Y-79614414D01*
X180839414Y-79491928D01*
X180941232Y-79351788D01*
X181019873Y-79197445D01*
X181073402Y-79032701D01*
X181100500Y-78861611D01*
X181100500Y-78138389D01*
X181073402Y-77967299D01*
X181019873Y-77802555D01*
X180941232Y-77648212D01*
X180839414Y-77508072D01*
X180716928Y-77385586D01*
X180576788Y-77283768D01*
X180457189Y-77222830D01*
X180422447Y-77205128D01*
X180422446Y-77205127D01*
X180422445Y-77205127D01*
X180257701Y-77151598D01*
X180257699Y-77151597D01*
X180257698Y-77151597D01*
X180126271Y-77130781D01*
X180086611Y-77124500D01*
X179913389Y-77124500D01*
X179889996Y-77128204D01*
X179742299Y-77151597D01*
X179685684Y-77169992D01*
X179615843Y-77171986D01*
X179559687Y-77139741D01*
X173498658Y-71078711D01*
X178149500Y-71078711D01*
X178149500Y-71321288D01*
X178181161Y-71561785D01*
X178243947Y-71796104D01*
X178310216Y-71956090D01*
X178336776Y-72020212D01*
X178458064Y-72230289D01*
X178458066Y-72230292D01*
X178458067Y-72230293D01*
X178605733Y-72422736D01*
X178605739Y-72422743D01*
X178777256Y-72594260D01*
X178777263Y-72594266D01*
X178808973Y-72618598D01*
X178969711Y-72741936D01*
X179179788Y-72863224D01*
X179403900Y-72956054D01*
X179638211Y-73018838D01*
X179818586Y-73042584D01*
X179878711Y-73050500D01*
X179878712Y-73050500D01*
X180121289Y-73050500D01*
X180169388Y-73044167D01*
X180361789Y-73018838D01*
X180596100Y-72956054D01*
X180820212Y-72863224D01*
X181030289Y-72741936D01*
X181222738Y-72594265D01*
X181394265Y-72422738D01*
X181541936Y-72230289D01*
X181663224Y-72020212D01*
X181756054Y-71796100D01*
X181818838Y-71561789D01*
X181850500Y-71321288D01*
X181850500Y-71078712D01*
X181818838Y-70838211D01*
X181756054Y-70603900D01*
X181663224Y-70379788D01*
X181541936Y-70169711D01*
X181394265Y-69977262D01*
X181394260Y-69977256D01*
X181222743Y-69805739D01*
X181222736Y-69805733D01*
X181030293Y-69658067D01*
X181030292Y-69658066D01*
X181030289Y-69658064D01*
X180820212Y-69536776D01*
X180820205Y-69536773D01*
X180596104Y-69443947D01*
X180361785Y-69381161D01*
X180121289Y-69349500D01*
X180121288Y-69349500D01*
X179878712Y-69349500D01*
X179878711Y-69349500D01*
X179638214Y-69381161D01*
X179403895Y-69443947D01*
X179179794Y-69536773D01*
X179179785Y-69536777D01*
X179019764Y-69629166D01*
X178980911Y-69651598D01*
X178969706Y-69658067D01*
X178777263Y-69805733D01*
X178777256Y-69805739D01*
X178605739Y-69977256D01*
X178605733Y-69977263D01*
X178458067Y-70169706D01*
X178336777Y-70379785D01*
X178336773Y-70379794D01*
X178243947Y-70603895D01*
X178181161Y-70838214D01*
X178149500Y-71078711D01*
X173498658Y-71078711D01*
X172914674Y-70494727D01*
X172914671Y-70494725D01*
X172914669Y-70494723D01*
X172808127Y-70423535D01*
X172783632Y-70413389D01*
X172689744Y-70374499D01*
X172689738Y-70374497D01*
X172564071Y-70349500D01*
X172564069Y-70349500D01*
X170119780Y-70349500D01*
X170052741Y-70329815D01*
X170009295Y-70281794D01*
X169941233Y-70148213D01*
X169904268Y-70097336D01*
X169839414Y-70008072D01*
X169716928Y-69885586D01*
X169576788Y-69783768D01*
X169422445Y-69705127D01*
X169257701Y-69651598D01*
X169257699Y-69651597D01*
X169257698Y-69651597D01*
X169116071Y-69629166D01*
X169086611Y-69624500D01*
X168913389Y-69624500D01*
X168889996Y-69628204D01*
X168742299Y-69651597D01*
X168685684Y-69669992D01*
X168615843Y-69671986D01*
X168559687Y-69639741D01*
X166154674Y-67234727D01*
X166154673Y-67234726D01*
X166154669Y-67234723D01*
X166048127Y-67163535D01*
X165929744Y-67114499D01*
X165929738Y-67114497D01*
X165804071Y-67089500D01*
X165804069Y-67089500D01*
X125735931Y-67089500D01*
X125735929Y-67089500D01*
X125610261Y-67114497D01*
X125610255Y-67114499D01*
X125491870Y-67163535D01*
X125385331Y-67234722D01*
X125385324Y-67234728D01*
X121504725Y-71115328D01*
X121504724Y-71115329D01*
X121455004Y-71189743D01*
X121455002Y-71189745D01*
X121433539Y-71221865D01*
X121433533Y-71221875D01*
X121384499Y-71340255D01*
X121384497Y-71340261D01*
X121359500Y-71465928D01*
X121359500Y-76843134D01*
X121339815Y-76910173D01*
X121287011Y-76955928D01*
X121217853Y-76965872D01*
X121154297Y-76936847D01*
X121147819Y-76930815D01*
X120911730Y-76694726D01*
X120911726Y-76694723D01*
X120805184Y-76623535D01*
X120686801Y-76574499D01*
X120686795Y-76574497D01*
X120561128Y-76549500D01*
X120561126Y-76549500D01*
X119145981Y-76549500D01*
X119145979Y-76549500D01*
X119020311Y-76574497D01*
X119020305Y-76574499D01*
X118901924Y-76623534D01*
X118795376Y-76694726D01*
X117794727Y-77695375D01*
X117794721Y-77695382D01*
X117747891Y-77765469D01*
X117747892Y-77765470D01*
X117723534Y-77801924D01*
X117674499Y-77920305D01*
X117674497Y-77920311D01*
X117649500Y-78045978D01*
X117649500Y-79364071D01*
X117655870Y-79396090D01*
X117664988Y-79441928D01*
X117672137Y-79477872D01*
X117674499Y-79489745D01*
X117712145Y-79580630D01*
X117723535Y-79608127D01*
X117794723Y-79714669D01*
X117921372Y-79841318D01*
X117954856Y-79902639D01*
X117957010Y-79916031D01*
X117963503Y-79977803D01*
X117963504Y-79977805D01*
X117963504Y-79977807D01*
X118018747Y-80147829D01*
X118018750Y-80147835D01*
X118108141Y-80302665D01*
X118137180Y-80334916D01*
X118227764Y-80435521D01*
X118227767Y-80435523D01*
X118227770Y-80435526D01*
X118372407Y-80540612D01*
X118535733Y-80613329D01*
X118710609Y-80650500D01*
X118710610Y-80650500D01*
X118889389Y-80650500D01*
X118889391Y-80650500D01*
X119064267Y-80613329D01*
X119175068Y-80563997D01*
X119244314Y-80554714D01*
X119307591Y-80584342D01*
X119344804Y-80643477D01*
X119349500Y-80677278D01*
X119349500Y-82881274D01*
X119329815Y-82948313D01*
X119313181Y-82968955D01*
X117118955Y-85163181D01*
X117057632Y-85196666D01*
X117031274Y-85199500D01*
X116485929Y-85199500D01*
X116360261Y-85224497D01*
X116360255Y-85224499D01*
X116241874Y-85273534D01*
X116135326Y-85344726D01*
X115094724Y-86385328D01*
X115052141Y-86449058D01*
X115052142Y-86449059D01*
X115023534Y-86491874D01*
X114974499Y-86610255D01*
X114974497Y-86610261D01*
X114949500Y-86735928D01*
X114949500Y-88714575D01*
X114929815Y-88781614D01*
X114877011Y-88827369D01*
X114807853Y-88837313D01*
X114780706Y-88830202D01*
X114595493Y-88758450D01*
X114595492Y-88758449D01*
X114595490Y-88758449D01*
X114376428Y-88717500D01*
X114153572Y-88717500D01*
X113934510Y-88758449D01*
X113934507Y-88758449D01*
X113934507Y-88758450D01*
X113726703Y-88838953D01*
X113726701Y-88838954D01*
X113537225Y-88956274D01*
X113372539Y-89106404D01*
X113372536Y-89106407D01*
X113238234Y-89284252D01*
X113138899Y-89483742D01*
X113124874Y-89533034D01*
X113103053Y-89609731D01*
X113077910Y-89698099D01*
X113057348Y-89920000D01*
X113077910Y-90141900D01*
X113077910Y-90141902D01*
X113077911Y-90141905D01*
X113138898Y-90356254D01*
X113138899Y-90356257D01*
X113225070Y-90529311D01*
X113238234Y-90555747D01*
X113371670Y-90732446D01*
X113372536Y-90733592D01*
X113372539Y-90733595D01*
X113426516Y-90782801D01*
X113537227Y-90883727D01*
X113726703Y-91001046D01*
X113934510Y-91081551D01*
X114153572Y-91122500D01*
X114153575Y-91122500D01*
X114376425Y-91122500D01*
X114376428Y-91122500D01*
X114595490Y-91081551D01*
X114780706Y-91009798D01*
X114850329Y-91003935D01*
X114912069Y-91036645D01*
X114946324Y-91097541D01*
X114949500Y-91125424D01*
X114949500Y-99205500D01*
X114929815Y-99272539D01*
X114877011Y-99318294D01*
X114825500Y-99329500D01*
X114670609Y-99329500D01*
X114639954Y-99336015D01*
X114495733Y-99366670D01*
X114495728Y-99366672D01*
X114332408Y-99439387D01*
X114187768Y-99544475D01*
X114068140Y-99677336D01*
X113978750Y-99832164D01*
X113978747Y-99832170D01*
X113923504Y-100002192D01*
X113923503Y-100002194D01*
X113917011Y-100063963D01*
X113890425Y-100128577D01*
X113881371Y-100138681D01*
X112494727Y-101525325D01*
X112494721Y-101525332D01*
X112448356Y-101594723D01*
X112448357Y-101594724D01*
X112423534Y-101631874D01*
X112374499Y-101750255D01*
X112374497Y-101750261D01*
X112349500Y-101875928D01*
X112349500Y-101875931D01*
X112349500Y-103444069D01*
X112349500Y-103444071D01*
X112349499Y-103444071D01*
X112370758Y-103550938D01*
X112370759Y-103550941D01*
X112374499Y-103569744D01*
X112423535Y-103688127D01*
X112494723Y-103794669D01*
X112494726Y-103794673D01*
X114105326Y-105405273D01*
X114105329Y-105405275D01*
X114105331Y-105405277D01*
X114211874Y-105476466D01*
X114211877Y-105476467D01*
X114214662Y-105478328D01*
X114259468Y-105531940D01*
X114268175Y-105601265D01*
X114238021Y-105664293D01*
X114189107Y-105697612D01*
X114152674Y-105711201D01*
X114152664Y-105711206D01*
X114037455Y-105797452D01*
X114037452Y-105797455D01*
X113951206Y-105912664D01*
X113951202Y-105912671D01*
X113900908Y-106047517D01*
X113894501Y-106107116D01*
X113894500Y-106107135D01*
X113894501Y-108802870D01*
X113900908Y-108862483D01*
X113951202Y-108997328D01*
X113951206Y-108997335D01*
X114037452Y-109112544D01*
X114037455Y-109112547D01*
X114152664Y-109198793D01*
X114152671Y-109198797D01*
X114287517Y-109249091D01*
X114287516Y-109249091D01*
X114294444Y-109249835D01*
X114347127Y-109255500D01*
X117042872Y-109255499D01*
X117102483Y-109249091D01*
X117237331Y-109198796D01*
X117240922Y-109196108D01*
X117359645Y-109107232D01*
X117361549Y-109109775D01*
X117409142Y-109083788D01*
X117478834Y-109088772D01*
X117534767Y-109130644D01*
X117559184Y-109196108D01*
X117559500Y-109204954D01*
X117559500Y-116244071D01*
X117579901Y-116346629D01*
X117579901Y-116346630D01*
X117584497Y-116369737D01*
X117584500Y-116369746D01*
X117633534Y-116488125D01*
X117704726Y-116594673D01*
X124585325Y-123475272D01*
X124590035Y-123479137D01*
X124588358Y-123481180D01*
X124625821Y-123525995D01*
X124634538Y-123595319D01*
X124604391Y-123658350D01*
X124544953Y-123695077D01*
X124512132Y-123699500D01*
X114002706Y-123699500D01*
X113997297Y-123699382D01*
X113613249Y-123682614D01*
X113602473Y-123681671D01*
X113224042Y-123631849D01*
X113213389Y-123629971D01*
X112840727Y-123547354D01*
X112830278Y-123544554D01*
X112466244Y-123429775D01*
X112456078Y-123426075D01*
X112103427Y-123280002D01*
X112093623Y-123275430D01*
X111755057Y-123099183D01*
X111745689Y-123093775D01*
X111423755Y-122888681D01*
X111414894Y-122882476D01*
X111112069Y-122650110D01*
X111103782Y-122643156D01*
X110822364Y-122385284D01*
X110814715Y-122377635D01*
X110556843Y-122096217D01*
X110549889Y-122087930D01*
X110317523Y-121785105D01*
X110311318Y-121776244D01*
X110106224Y-121454310D01*
X110100816Y-121444942D01*
X110097135Y-121437870D01*
X109924566Y-121106369D01*
X109919997Y-121096572D01*
X109773920Y-120743911D01*
X109770224Y-120733755D01*
X109655442Y-120369710D01*
X109652648Y-120359284D01*
X109570025Y-119986597D01*
X109568152Y-119975971D01*
X109518326Y-119597506D01*
X109517386Y-119586771D01*
X109500618Y-119202702D01*
X109500500Y-119197293D01*
X109500500Y-119078711D01*
X112149500Y-119078711D01*
X112149500Y-119321288D01*
X112181161Y-119561785D01*
X112243947Y-119796104D01*
X112336773Y-120020205D01*
X112336776Y-120020212D01*
X112458064Y-120230289D01*
X112458066Y-120230292D01*
X112458067Y-120230293D01*
X112605733Y-120422736D01*
X112605739Y-120422743D01*
X112777256Y-120594260D01*
X112777262Y-120594265D01*
X112969711Y-120741936D01*
X113179788Y-120863224D01*
X113403900Y-120956054D01*
X113638211Y-121018838D01*
X113818586Y-121042584D01*
X113878711Y-121050500D01*
X113878712Y-121050500D01*
X114121289Y-121050500D01*
X114169388Y-121044167D01*
X114361789Y-121018838D01*
X114596100Y-120956054D01*
X114820212Y-120863224D01*
X115030289Y-120741936D01*
X115222738Y-120594265D01*
X115394265Y-120422738D01*
X115541936Y-120230289D01*
X115663224Y-120020212D01*
X115756054Y-119796100D01*
X115818838Y-119561789D01*
X115850500Y-119321288D01*
X115850500Y-119078712D01*
X115818838Y-118838211D01*
X115756054Y-118603900D01*
X115663224Y-118379788D01*
X115541936Y-118169711D01*
X115481018Y-118090321D01*
X115394266Y-117977263D01*
X115394260Y-117977256D01*
X115222743Y-117805739D01*
X115222736Y-117805733D01*
X115030293Y-117658067D01*
X115030292Y-117658066D01*
X115030289Y-117658064D01*
X114820212Y-117536776D01*
X114819152Y-117536337D01*
X114596104Y-117443947D01*
X114361785Y-117381161D01*
X114121289Y-117349500D01*
X114121288Y-117349500D01*
X113878712Y-117349500D01*
X113878711Y-117349500D01*
X113638214Y-117381161D01*
X113403895Y-117443947D01*
X113179794Y-117536773D01*
X113179785Y-117536777D01*
X112969706Y-117658067D01*
X112777263Y-117805733D01*
X112777256Y-117805739D01*
X112605739Y-117977256D01*
X112605733Y-117977263D01*
X112458067Y-118169706D01*
X112336777Y-118379785D01*
X112336773Y-118379794D01*
X112243947Y-118603895D01*
X112181161Y-118838214D01*
X112149500Y-119078711D01*
X109500500Y-119078711D01*
X109500500Y-93730000D01*
X111837563Y-93730000D01*
X111857270Y-93942673D01*
X111857270Y-93942675D01*
X111857271Y-93942678D01*
X111915722Y-94148114D01*
X111915723Y-94148117D01*
X112010927Y-94339312D01*
X112132273Y-94500000D01*
X112139644Y-94509760D01*
X112297488Y-94653655D01*
X112297490Y-94653656D01*
X112297491Y-94653657D01*
X112479082Y-94766093D01*
X112479088Y-94766096D01*
X112501513Y-94774783D01*
X112678252Y-94843253D01*
X112864729Y-94878111D01*
X112927009Y-94909779D01*
X112962282Y-94970092D01*
X112959348Y-95039900D01*
X112919139Y-95097040D01*
X112864729Y-95121888D01*
X112678252Y-95156747D01*
X112657277Y-95164873D01*
X112479088Y-95233903D01*
X112479082Y-95233906D01*
X112297491Y-95346342D01*
X112139643Y-95490240D01*
X112010927Y-95660687D01*
X111915723Y-95851882D01*
X111857270Y-96057326D01*
X111837563Y-96270000D01*
X111857270Y-96482673D01*
X111857270Y-96482675D01*
X111857271Y-96482678D01*
X111895302Y-96616345D01*
X111915723Y-96688117D01*
X112010927Y-96879312D01*
X112118825Y-97022192D01*
X112139644Y-97049760D01*
X112297488Y-97193655D01*
X112297490Y-97193656D01*
X112297491Y-97193657D01*
X112479082Y-97306093D01*
X112479088Y-97306096D01*
X112492878Y-97311438D01*
X112678252Y-97383253D01*
X112888205Y-97422500D01*
X112888207Y-97422500D01*
X113101793Y-97422500D01*
X113101795Y-97422500D01*
X113311748Y-97383253D01*
X113510914Y-97306095D01*
X113692512Y-97193655D01*
X113850356Y-97049760D01*
X113979073Y-96879312D01*
X114074278Y-96688114D01*
X114132729Y-96482678D01*
X114152437Y-96270000D01*
X114132729Y-96057322D01*
X114074278Y-95851886D01*
X113979073Y-95660688D01*
X113850356Y-95490240D01*
X113692512Y-95346345D01*
X113692509Y-95346343D01*
X113692508Y-95346342D01*
X113510917Y-95233906D01*
X113510911Y-95233903D01*
X113405652Y-95193126D01*
X113311748Y-95156747D01*
X113125269Y-95121888D01*
X113062990Y-95090221D01*
X113027717Y-95029908D01*
X113030651Y-94960100D01*
X113070860Y-94902960D01*
X113125268Y-94878111D01*
X113311748Y-94843253D01*
X113510914Y-94766095D01*
X113692512Y-94653655D01*
X113850356Y-94509760D01*
X113979073Y-94339312D01*
X114074278Y-94148114D01*
X114132729Y-93942678D01*
X114152437Y-93730000D01*
X114132729Y-93517322D01*
X114074278Y-93311886D01*
X113979073Y-93120688D01*
X113850356Y-92950240D01*
X113692512Y-92806345D01*
X113692509Y-92806343D01*
X113692508Y-92806342D01*
X113510917Y-92693906D01*
X113510911Y-92693903D01*
X113420345Y-92658818D01*
X113311748Y-92616747D01*
X113101795Y-92577500D01*
X112888205Y-92577500D01*
X112678252Y-92616747D01*
X112655563Y-92625537D01*
X112479088Y-92693903D01*
X112479082Y-92693906D01*
X112297491Y-92806342D01*
X112139643Y-92950240D01*
X112010927Y-93120687D01*
X111915723Y-93311882D01*
X111915722Y-93311886D01*
X111860288Y-93506720D01*
X111857270Y-93517326D01*
X111837563Y-93730000D01*
X109500500Y-93730000D01*
X109500500Y-87380000D01*
X110517348Y-87380000D01*
X110537910Y-87601900D01*
X110537910Y-87601902D01*
X110537911Y-87601905D01*
X110593110Y-87795910D01*
X110598899Y-87816257D01*
X110638846Y-87896481D01*
X110698234Y-88015747D01*
X110832534Y-88193590D01*
X110997227Y-88343727D01*
X111117096Y-88417947D01*
X111170778Y-88451186D01*
X111186703Y-88461046D01*
X111394510Y-88541551D01*
X111613572Y-88582500D01*
X111613575Y-88582500D01*
X111836425Y-88582500D01*
X111836428Y-88582500D01*
X112055490Y-88541551D01*
X112263297Y-88461046D01*
X112452773Y-88343727D01*
X112617466Y-88193590D01*
X112751766Y-88015747D01*
X112851102Y-87816254D01*
X112912089Y-87601905D01*
X112932652Y-87380000D01*
X112912089Y-87158095D01*
X112851102Y-86943746D01*
X112751766Y-86744253D01*
X112617466Y-86566410D01*
X112617463Y-86566407D01*
X112617460Y-86566404D01*
X112452774Y-86416274D01*
X112452773Y-86416273D01*
X112360236Y-86358976D01*
X112263298Y-86298954D01*
X112263296Y-86298953D01*
X112073115Y-86225277D01*
X112055490Y-86218449D01*
X111836428Y-86177500D01*
X111613572Y-86177500D01*
X111394510Y-86218449D01*
X111394507Y-86218449D01*
X111394507Y-86218450D01*
X111186703Y-86298953D01*
X111186701Y-86298954D01*
X110997225Y-86416274D01*
X110832539Y-86566404D01*
X110832536Y-86566407D01*
X110698234Y-86744252D01*
X110598899Y-86943742D01*
X110598898Y-86943746D01*
X110538471Y-87156129D01*
X110537910Y-87158099D01*
X110517348Y-87380000D01*
X109500500Y-87380000D01*
X109500500Y-71202706D01*
X109500618Y-71197297D01*
X109500948Y-71189743D01*
X109505795Y-71078711D01*
X112149500Y-71078711D01*
X112149500Y-71321288D01*
X112181161Y-71561785D01*
X112243947Y-71796104D01*
X112310216Y-71956090D01*
X112336776Y-72020212D01*
X112458064Y-72230289D01*
X112458066Y-72230292D01*
X112458067Y-72230293D01*
X112605733Y-72422736D01*
X112605739Y-72422743D01*
X112777256Y-72594260D01*
X112777263Y-72594266D01*
X112808973Y-72618598D01*
X112969711Y-72741936D01*
X113179788Y-72863224D01*
X113403900Y-72956054D01*
X113638211Y-73018838D01*
X113818586Y-73042584D01*
X113878711Y-73050500D01*
X113878712Y-73050500D01*
X114121289Y-73050500D01*
X114169388Y-73044167D01*
X114361789Y-73018838D01*
X114596100Y-72956054D01*
X114820212Y-72863224D01*
X115030289Y-72741936D01*
X115222738Y-72594265D01*
X115394265Y-72422738D01*
X115541936Y-72230289D01*
X115663224Y-72020212D01*
X115756054Y-71796100D01*
X115818838Y-71561789D01*
X115850500Y-71321288D01*
X115850500Y-71078712D01*
X115818838Y-70838211D01*
X115756054Y-70603900D01*
X115663224Y-70379788D01*
X115541936Y-70169711D01*
X115394265Y-69977262D01*
X115394260Y-69977256D01*
X115222743Y-69805739D01*
X115222736Y-69805733D01*
X115030293Y-69658067D01*
X115030292Y-69658066D01*
X115030289Y-69658064D01*
X114820212Y-69536776D01*
X114820205Y-69536773D01*
X114596104Y-69443947D01*
X114361785Y-69381161D01*
X114121289Y-69349500D01*
X114121288Y-69349500D01*
X113878712Y-69349500D01*
X113878711Y-69349500D01*
X113638214Y-69381161D01*
X113403895Y-69443947D01*
X113179794Y-69536773D01*
X113179785Y-69536777D01*
X113019764Y-69629166D01*
X112980911Y-69651598D01*
X112969706Y-69658067D01*
X112777263Y-69805733D01*
X112777256Y-69805739D01*
X112605739Y-69977256D01*
X112605733Y-69977263D01*
X112458067Y-70169706D01*
X112336777Y-70379785D01*
X112336773Y-70379794D01*
X112243947Y-70603895D01*
X112181161Y-70838214D01*
X112149500Y-71078711D01*
X109505795Y-71078711D01*
X109517386Y-70813226D01*
X109518326Y-70802495D01*
X109568152Y-70424025D01*
X109570025Y-70413405D01*
X109652649Y-70040709D01*
X109655440Y-70030295D01*
X109770230Y-69666227D01*
X109773917Y-69656095D01*
X109920003Y-69303412D01*
X109924561Y-69293638D01*
X110100822Y-68955045D01*
X110106217Y-68945700D01*
X110311325Y-68623744D01*
X110317515Y-68614905D01*
X110549896Y-68312060D01*
X110556834Y-68303791D01*
X110814726Y-68022352D01*
X110822352Y-68014726D01*
X111103791Y-67756834D01*
X111112060Y-67749896D01*
X111414905Y-67517515D01*
X111423744Y-67511325D01*
X111745700Y-67306217D01*
X111755045Y-67300822D01*
X112093638Y-67124561D01*
X112103412Y-67120003D01*
X112456095Y-66973917D01*
X112466227Y-66970230D01*
X112830295Y-66855440D01*
X112840709Y-66852649D01*
X113213405Y-66770025D01*
X113224025Y-66768152D01*
X113602495Y-66718326D01*
X113613226Y-66717386D01*
X113997297Y-66700617D01*
X114002706Y-66700500D01*
X114065892Y-66700500D01*
X179934108Y-66700500D01*
X179997294Y-66700500D01*
X180002702Y-66700617D01*
G37*
%TD.AperFunction*%
%TA.AperFunction,Conductor*%
G36*
X148468834Y-89353626D02*
G01*
X148524767Y-89395498D01*
X148549184Y-89460962D01*
X148549500Y-89469808D01*
X148549500Y-97844191D01*
X148529815Y-97911230D01*
X148513181Y-97931872D01*
X146153373Y-100291679D01*
X146092050Y-100325164D01*
X146022358Y-100320180D01*
X145966425Y-100278308D01*
X145942008Y-100212844D01*
X145942220Y-100192567D01*
X145952652Y-100080000D01*
X145932089Y-99858095D01*
X145871102Y-99643746D01*
X145771766Y-99444253D01*
X145637466Y-99266410D01*
X145637463Y-99266407D01*
X145637460Y-99266404D01*
X145472774Y-99116274D01*
X145472773Y-99116273D01*
X145338923Y-99033396D01*
X145283298Y-98998954D01*
X145283296Y-98998953D01*
X145122624Y-98936709D01*
X145094017Y-98925626D01*
X145038617Y-98883054D01*
X145015026Y-98817287D01*
X145030737Y-98749207D01*
X145080761Y-98700428D01*
X145094015Y-98694374D01*
X145283297Y-98621046D01*
X145472773Y-98503727D01*
X145637466Y-98353590D01*
X145771766Y-98175747D01*
X145871102Y-97976254D01*
X145932089Y-97761905D01*
X145952652Y-97540000D01*
X145932089Y-97318095D01*
X145871102Y-97103746D01*
X145771766Y-96904253D01*
X145637466Y-96726410D01*
X145637463Y-96726407D01*
X145637460Y-96726404D01*
X145472774Y-96576274D01*
X145472773Y-96576273D01*
X145355892Y-96503903D01*
X145283298Y-96458954D01*
X145283296Y-96458953D01*
X145122624Y-96396709D01*
X145075490Y-96378449D01*
X144856428Y-96337500D01*
X144633572Y-96337500D01*
X144414510Y-96378449D01*
X144414507Y-96378449D01*
X144414507Y-96378450D01*
X144206703Y-96458953D01*
X144206701Y-96458954D01*
X144017225Y-96576274D01*
X143852539Y-96726404D01*
X143852536Y-96726407D01*
X143718234Y-96904252D01*
X143618899Y-97103742D01*
X143618898Y-97103746D01*
X143559687Y-97311855D01*
X143557910Y-97318099D01*
X143537348Y-97540000D01*
X143557910Y-97761900D01*
X143557910Y-97761902D01*
X143557911Y-97761905D01*
X143608757Y-97940612D01*
X143618899Y-97976257D01*
X143699632Y-98138389D01*
X143718234Y-98175747D01*
X143852534Y-98353590D01*
X144017227Y-98503727D01*
X144134102Y-98576093D01*
X144206701Y-98621045D01*
X144206703Y-98621046D01*
X144395981Y-98694373D01*
X144451383Y-98736946D01*
X144474973Y-98802713D01*
X144459262Y-98870794D01*
X144409238Y-98919572D01*
X144395981Y-98925627D01*
X144206703Y-98998953D01*
X144206701Y-98998954D01*
X144017225Y-99116274D01*
X143852539Y-99266404D01*
X143852536Y-99266407D01*
X143718234Y-99444252D01*
X143618899Y-99643742D01*
X143603619Y-99697445D01*
X143559706Y-99851788D01*
X143557910Y-99858099D01*
X143537348Y-100080000D01*
X143557910Y-100301900D01*
X143557910Y-100301902D01*
X143557911Y-100301905D01*
X143582171Y-100387170D01*
X143618899Y-100516257D01*
X143678315Y-100635580D01*
X143718234Y-100715747D01*
X143800988Y-100825332D01*
X143852536Y-100893592D01*
X143852539Y-100893595D01*
X143894537Y-100931881D01*
X144017227Y-101043727D01*
X144134105Y-101116095D01*
X144206701Y-101161045D01*
X144206703Y-101161046D01*
X144395981Y-101234373D01*
X144451383Y-101276946D01*
X144474973Y-101342713D01*
X144459262Y-101410794D01*
X144409238Y-101459572D01*
X144395981Y-101465627D01*
X144206703Y-101538953D01*
X144206701Y-101538954D01*
X144017225Y-101656274D01*
X143852539Y-101806404D01*
X143852536Y-101806407D01*
X143718234Y-101984252D01*
X143618899Y-102183742D01*
X143594267Y-102270317D01*
X143556987Y-102329410D01*
X143493678Y-102358968D01*
X143424438Y-102349606D01*
X143371252Y-102304297D01*
X143355733Y-102270317D01*
X143331769Y-102186092D01*
X143331102Y-102183746D01*
X143231766Y-101984253D01*
X143097466Y-101806410D01*
X143097463Y-101806407D01*
X143097460Y-101806404D01*
X142932773Y-101656273D01*
X142932768Y-101656269D01*
X142914220Y-101644784D01*
X142867585Y-101592755D01*
X142855500Y-101539359D01*
X142855500Y-93515807D01*
X142875185Y-93448768D01*
X142891815Y-93428130D01*
X143432146Y-92887798D01*
X143493467Y-92854315D01*
X143563158Y-92859299D01*
X143619092Y-92901170D01*
X143630825Y-92920209D01*
X143701429Y-93061999D01*
X143718234Y-93095747D01*
X143826986Y-93239759D01*
X143852536Y-93273592D01*
X143852539Y-93273595D01*
X143934599Y-93348402D01*
X144017227Y-93423727D01*
X144206703Y-93541046D01*
X144414510Y-93621551D01*
X144633572Y-93662500D01*
X144633575Y-93662500D01*
X144856425Y-93662500D01*
X144856428Y-93662500D01*
X145075490Y-93621551D01*
X145283297Y-93541046D01*
X145472773Y-93423727D01*
X145637466Y-93273590D01*
X145771766Y-93095747D01*
X145871102Y-92896254D01*
X145932089Y-92681905D01*
X145952652Y-92460000D01*
X145932089Y-92238095D01*
X145871102Y-92023746D01*
X145834595Y-91950431D01*
X145822334Y-91881648D01*
X145849207Y-91817153D01*
X145898146Y-91780599D01*
X145908127Y-91776465D01*
X145939691Y-91755375D01*
X145939692Y-91755375D01*
X145995797Y-91717886D01*
X146014669Y-91705277D01*
X148337819Y-89382127D01*
X148399142Y-89348642D01*
X148468834Y-89353626D01*
G37*
%TD.AperFunction*%
%TA.AperFunction,Conductor*%
G36*
X147221379Y-79545042D02*
G01*
X147241196Y-79561142D01*
X147713181Y-80033126D01*
X147746666Y-80094449D01*
X147749500Y-80120807D01*
X147749500Y-86510192D01*
X147729815Y-86577231D01*
X147677011Y-86622986D01*
X147607853Y-86632930D01*
X147544297Y-86603905D01*
X147537819Y-86597873D01*
X143936319Y-82996373D01*
X143902834Y-82935050D01*
X143900000Y-82908692D01*
X143900000Y-82882722D01*
X143919685Y-82815683D01*
X143952877Y-82781147D01*
X144094707Y-82681836D01*
X144120901Y-82663495D01*
X144287995Y-82496401D01*
X144423535Y-82302830D01*
X144523403Y-82088663D01*
X144584563Y-81860408D01*
X144605159Y-81625000D01*
X144584563Y-81389592D01*
X144523403Y-81161337D01*
X144423535Y-80947171D01*
X144360633Y-80857336D01*
X144287994Y-80753597D01*
X144120902Y-80586506D01*
X144120896Y-80586501D01*
X143935342Y-80456575D01*
X143891717Y-80401998D01*
X143884523Y-80332500D01*
X143916046Y-80270145D01*
X143935342Y-80253425D01*
X144062931Y-80164086D01*
X144120901Y-80123495D01*
X144287995Y-79956401D01*
X144417925Y-79770842D01*
X144472502Y-79727217D01*
X144542000Y-79720023D01*
X144604355Y-79751546D01*
X144621075Y-79770842D01*
X144751000Y-79956395D01*
X144751005Y-79956401D01*
X144918099Y-80123495D01*
X144976069Y-80164086D01*
X145111665Y-80259032D01*
X145111667Y-80259033D01*
X145111670Y-80259035D01*
X145325837Y-80358903D01*
X145554092Y-80420063D01*
X145730774Y-80435521D01*
X145789499Y-80440659D01*
X145789500Y-80440659D01*
X145789501Y-80440659D01*
X145848226Y-80435521D01*
X146024908Y-80420063D01*
X146253163Y-80358903D01*
X146467330Y-80259035D01*
X146660901Y-80123495D01*
X146827995Y-79956401D01*
X146963535Y-79762830D01*
X147041135Y-79596416D01*
X147087305Y-79543979D01*
X147154498Y-79524827D01*
X147221379Y-79545042D01*
G37*
%TD.AperFunction*%
%TA.AperFunction,Conductor*%
G36*
X137075128Y-78870185D02*
G01*
X137080976Y-78874182D01*
X137172407Y-78940612D01*
X137335733Y-79013329D01*
X137510609Y-79050500D01*
X137510610Y-79050500D01*
X137667438Y-79050500D01*
X137734477Y-79070185D01*
X137780232Y-79122989D01*
X137790176Y-79192147D01*
X137761151Y-79255703D01*
X137755119Y-79262181D01*
X134839084Y-82178216D01*
X134777761Y-82211701D01*
X134708069Y-82206717D01*
X134652136Y-82164845D01*
X134627719Y-82099381D01*
X134628081Y-82077581D01*
X134635185Y-82010000D01*
X134616497Y-81832197D01*
X134561250Y-81662165D01*
X134471859Y-81507335D01*
X134425003Y-81455296D01*
X134352235Y-81374478D01*
X134352232Y-81374476D01*
X134352231Y-81374475D01*
X134352230Y-81374474D01*
X134207593Y-81269388D01*
X134044267Y-81196671D01*
X134044265Y-81196670D01*
X133878033Y-81161337D01*
X133869391Y-81159500D01*
X133690609Y-81159500D01*
X133681967Y-81161337D01*
X133515733Y-81196670D01*
X133515728Y-81196672D01*
X133352408Y-81269388D01*
X133352403Y-81269390D01*
X133260974Y-81335818D01*
X133195168Y-81359298D01*
X133188089Y-81359500D01*
X132586782Y-81359500D01*
X132519743Y-81339815D01*
X132473988Y-81287011D01*
X132463462Y-81248465D01*
X132456497Y-81182197D01*
X132401250Y-81012165D01*
X132311859Y-80857335D01*
X132263717Y-80803868D01*
X132192235Y-80724478D01*
X132192232Y-80724476D01*
X132192231Y-80724475D01*
X132192230Y-80724474D01*
X132047593Y-80619388D01*
X131884267Y-80546671D01*
X131884265Y-80546670D01*
X131756594Y-80519533D01*
X131709391Y-80509500D01*
X131530609Y-80509500D01*
X131499954Y-80516015D01*
X131355733Y-80546670D01*
X131355728Y-80546672D01*
X131192408Y-80619387D01*
X131047768Y-80724475D01*
X130928140Y-80857336D01*
X130838750Y-81012164D01*
X130838747Y-81012170D01*
X130783504Y-81182192D01*
X130783503Y-81182194D01*
X130777011Y-81243963D01*
X130750425Y-81308577D01*
X130741371Y-81318681D01*
X129146873Y-82913181D01*
X129085550Y-82946666D01*
X129059192Y-82949500D01*
X125211230Y-82949500D01*
X125144191Y-82929815D01*
X125098436Y-82877011D01*
X125088492Y-82807853D01*
X125117517Y-82744297D01*
X125123549Y-82737819D01*
X126074548Y-81786819D01*
X126135871Y-81753334D01*
X126162229Y-81750500D01*
X126893022Y-81750500D01*
X126960061Y-81770185D01*
X126971687Y-81778647D01*
X127041460Y-81835909D01*
X127041467Y-81835913D01*
X127215266Y-81928811D01*
X127215269Y-81928811D01*
X127215273Y-81928814D01*
X127403868Y-81986024D01*
X127600000Y-82005341D01*
X127796132Y-81986024D01*
X127984727Y-81928814D01*
X127993328Y-81924217D01*
X128112696Y-81860413D01*
X128158538Y-81835910D01*
X128310883Y-81710883D01*
X128435910Y-81558538D01*
X128482362Y-81471632D01*
X128528811Y-81384733D01*
X128528811Y-81384732D01*
X128528814Y-81384727D01*
X128586024Y-81196132D01*
X128605341Y-81000000D01*
X128586024Y-80803868D01*
X128528814Y-80615273D01*
X128528811Y-80615269D01*
X128528811Y-80615266D01*
X128435913Y-80441467D01*
X128435909Y-80441460D01*
X128310883Y-80289116D01*
X128158539Y-80164090D01*
X128158532Y-80164086D01*
X127984733Y-80071188D01*
X127984727Y-80071186D01*
X127796132Y-80013976D01*
X127796129Y-80013975D01*
X127662346Y-80000799D01*
X127597559Y-79974638D01*
X127557200Y-79917603D01*
X127550500Y-79877396D01*
X127550500Y-79374500D01*
X127570185Y-79307461D01*
X127622989Y-79261706D01*
X127674500Y-79250500D01*
X127689389Y-79250500D01*
X127689391Y-79250500D01*
X127864267Y-79213329D01*
X128027593Y-79140612D01*
X128119025Y-79074182D01*
X128184831Y-79050702D01*
X128191911Y-79050500D01*
X133664071Y-79050500D01*
X133753568Y-79032697D01*
X133789744Y-79025501D01*
X133908127Y-78976465D01*
X134014669Y-78905277D01*
X134018760Y-78901186D01*
X134033128Y-78886819D01*
X134094451Y-78853334D01*
X134120809Y-78850500D01*
X137008089Y-78850500D01*
X137075128Y-78870185D01*
G37*
%TD.AperFunction*%
%TA.AperFunction,Conductor*%
G36*
X124796463Y-69765995D02*
G01*
X124852396Y-69807867D01*
X124860516Y-69820177D01*
X124908140Y-69902663D01*
X124908139Y-69902663D01*
X124917648Y-69913223D01*
X124947879Y-69976213D01*
X124949500Y-69996197D01*
X124949500Y-76874119D01*
X124974497Y-76999788D01*
X124974499Y-76999794D01*
X125023535Y-77118177D01*
X125093461Y-77222830D01*
X125094726Y-77224723D01*
X125094727Y-77224724D01*
X126213181Y-78343177D01*
X126246666Y-78404500D01*
X126249500Y-78430858D01*
X126249500Y-80125500D01*
X126229815Y-80192539D01*
X126177011Y-80238294D01*
X126125500Y-80249500D01*
X125726080Y-80249500D01*
X125581092Y-80278340D01*
X125581082Y-80278343D01*
X125444511Y-80334912D01*
X125444498Y-80334919D01*
X125321584Y-80417048D01*
X125321580Y-80417051D01*
X123169225Y-82569405D01*
X123107902Y-82602890D01*
X123093700Y-82605127D01*
X123003869Y-82613975D01*
X122820495Y-82669602D01*
X122750629Y-82670225D01*
X122691516Y-82632977D01*
X122661925Y-82569683D01*
X122660500Y-82550941D01*
X122660500Y-71850807D01*
X122680185Y-71783768D01*
X122696814Y-71763131D01*
X124665450Y-69794494D01*
X124726771Y-69761011D01*
X124796463Y-69765995D01*
G37*
%TD.AperFunction*%
%TA.AperFunction,Conductor*%
G36*
X144434649Y-68410185D02*
G01*
X144480404Y-68462989D01*
X144490348Y-68532147D01*
X144485541Y-68552818D01*
X144443504Y-68682192D01*
X144443503Y-68682194D01*
X144424815Y-68860000D01*
X144443503Y-69037805D01*
X144443504Y-69037807D01*
X144498747Y-69207829D01*
X144498750Y-69207835D01*
X144588141Y-69362665D01*
X144597648Y-69373223D01*
X144627879Y-69436213D01*
X144629500Y-69456197D01*
X144629500Y-69956635D01*
X144609815Y-70023674D01*
X144593181Y-70044316D01*
X141882181Y-72755316D01*
X141820858Y-72788801D01*
X141751166Y-72783817D01*
X141695233Y-72741945D01*
X141670816Y-72676481D01*
X141670500Y-72667635D01*
X141670500Y-72666197D01*
X141690185Y-72599158D01*
X141702352Y-72583223D01*
X141711859Y-72572665D01*
X141801250Y-72417835D01*
X141856497Y-72247803D01*
X141875185Y-72070000D01*
X141856497Y-71892197D01*
X141801250Y-71722165D01*
X141711859Y-71567335D01*
X141665003Y-71515296D01*
X141592235Y-71434478D01*
X141592232Y-71434476D01*
X141592231Y-71434475D01*
X141592230Y-71434474D01*
X141447593Y-71329388D01*
X141284267Y-71256671D01*
X141284265Y-71256670D01*
X141156594Y-71229533D01*
X141109391Y-71219500D01*
X140930609Y-71219500D01*
X140899954Y-71226015D01*
X140755733Y-71256670D01*
X140624935Y-71314906D01*
X140555685Y-71324190D01*
X140492409Y-71294562D01*
X140455196Y-71235427D01*
X140450500Y-71201626D01*
X140450500Y-71196197D01*
X140470185Y-71129158D01*
X140482352Y-71113223D01*
X140491859Y-71102665D01*
X140581250Y-70947835D01*
X140636497Y-70777803D01*
X140655185Y-70600000D01*
X140636497Y-70422197D01*
X140581250Y-70252165D01*
X140491859Y-70097335D01*
X140436132Y-70035444D01*
X140372235Y-69964478D01*
X140372232Y-69964476D01*
X140372231Y-69964475D01*
X140372230Y-69964474D01*
X140227593Y-69859388D01*
X140064267Y-69786671D01*
X140064265Y-69786670D01*
X139936594Y-69759533D01*
X139889391Y-69749500D01*
X139710609Y-69749500D01*
X139679954Y-69756015D01*
X139535733Y-69786670D01*
X139535728Y-69786672D01*
X139372408Y-69859387D01*
X139227768Y-69964475D01*
X139108140Y-70097336D01*
X139018750Y-70252164D01*
X139018747Y-70252170D01*
X138963504Y-70422192D01*
X138963503Y-70422194D01*
X138944815Y-70600000D01*
X138963503Y-70777805D01*
X138963504Y-70777807D01*
X139018747Y-70947829D01*
X139018750Y-70947835D01*
X139108141Y-71102665D01*
X139117648Y-71113223D01*
X139147879Y-71176213D01*
X139149500Y-71196197D01*
X139149500Y-77122721D01*
X139129815Y-77189760D01*
X139077011Y-77235515D01*
X139007853Y-77245459D01*
X138975065Y-77236001D01*
X138905720Y-77205127D01*
X138864267Y-77186671D01*
X138864265Y-77186670D01*
X138727473Y-77157594D01*
X138699989Y-77151752D01*
X138638508Y-77118561D01*
X138638298Y-77118352D01*
X138514669Y-76994723D01*
X138456607Y-76955928D01*
X138408125Y-76923533D01*
X138289745Y-76874499D01*
X138289747Y-76874499D01*
X138288298Y-76874211D01*
X138287834Y-76874119D01*
X138287828Y-76874117D01*
X138164071Y-76849500D01*
X138164069Y-76849500D01*
X137245981Y-76849500D01*
X137245980Y-76849500D01*
X137207689Y-76857117D01*
X137183496Y-76859500D01*
X127851634Y-76859500D01*
X127784595Y-76839815D01*
X127763953Y-76823181D01*
X127701648Y-76760876D01*
X127668163Y-76699553D01*
X127666008Y-76686155D01*
X127659517Y-76624392D01*
X127659238Y-76623534D01*
X127615821Y-76489908D01*
X127604272Y-76454364D01*
X127604269Y-76454358D01*
X127514879Y-76299529D01*
X127468023Y-76247490D01*
X127395255Y-76166672D01*
X127395252Y-76166670D01*
X127395251Y-76166669D01*
X127395250Y-76166668D01*
X127250613Y-76061582D01*
X127087287Y-75988865D01*
X127087285Y-75988864D01*
X126959614Y-75961727D01*
X126912411Y-75951694D01*
X126733629Y-75951694D01*
X126702974Y-75958209D01*
X126558753Y-75988864D01*
X126558748Y-75988866D01*
X126424936Y-76048444D01*
X126355686Y-76057729D01*
X126292409Y-76028101D01*
X126255196Y-75968966D01*
X126250500Y-75935165D01*
X126250500Y-69996197D01*
X126270185Y-69929158D01*
X126282352Y-69913223D01*
X126291859Y-69902665D01*
X126381250Y-69747835D01*
X126436497Y-69577803D01*
X126455185Y-69400000D01*
X126436497Y-69222197D01*
X126381250Y-69052165D01*
X126291859Y-68897335D01*
X126245003Y-68845296D01*
X126172235Y-68764478D01*
X126172232Y-68764476D01*
X126172231Y-68764475D01*
X126172230Y-68764474D01*
X126027593Y-68659388D01*
X126027589Y-68659385D01*
X126023600Y-68657082D01*
X125975388Y-68606511D01*
X125962170Y-68537903D01*
X125988143Y-68473040D01*
X125997922Y-68462022D01*
X126033128Y-68426818D01*
X126094452Y-68393333D01*
X126120808Y-68390500D01*
X144367610Y-68390500D01*
X144434649Y-68410185D01*
G37*
%TD.AperFunction*%
%TD*%
M02*
