%TF.GenerationSoftware,KiCad,Pcbnew,8.0.7*%
%TF.CreationDate,2024-12-26T23:36:23+07:00*%
%TF.ProjectId,Teensy4.0PCB,5465656e-7379-4342-9e30-5043422e6b69,rev?*%
%TF.SameCoordinates,Original*%
%TF.FileFunction,Legend,Top*%
%TF.FilePolarity,Positive*%
%FSLAX46Y46*%
G04 Gerber Fmt 4.6, Leading zero omitted, Abs format (unit mm)*
G04 Created by KiCad (PCBNEW 8.0.7) date 2024-12-26 23:36:23*
%MOMM*%
%LPD*%
G01*
G04 APERTURE LIST*
%ADD10C,0.100000*%
%ADD11C,0.250000*%
%ADD12C,0.150000*%
%ADD13C,0.200000*%
%ADD14C,0.120000*%
%ADD15C,0.152400*%
G04 APERTURE END LIST*
D10*
X171141979Y-118096895D02*
X171408646Y-118896895D01*
X171408646Y-118896895D02*
X171675312Y-118096895D01*
X172094360Y-118096895D02*
X172170550Y-118096895D01*
X172170550Y-118096895D02*
X172246741Y-118134990D01*
X172246741Y-118134990D02*
X172284836Y-118173085D01*
X172284836Y-118173085D02*
X172322931Y-118249276D01*
X172322931Y-118249276D02*
X172361026Y-118401657D01*
X172361026Y-118401657D02*
X172361026Y-118592133D01*
X172361026Y-118592133D02*
X172322931Y-118744514D01*
X172322931Y-118744514D02*
X172284836Y-118820704D01*
X172284836Y-118820704D02*
X172246741Y-118858800D01*
X172246741Y-118858800D02*
X172170550Y-118896895D01*
X172170550Y-118896895D02*
X172094360Y-118896895D01*
X172094360Y-118896895D02*
X172018169Y-118858800D01*
X172018169Y-118858800D02*
X171980074Y-118820704D01*
X171980074Y-118820704D02*
X171941979Y-118744514D01*
X171941979Y-118744514D02*
X171903883Y-118592133D01*
X171903883Y-118592133D02*
X171903883Y-118401657D01*
X171903883Y-118401657D02*
X171941979Y-118249276D01*
X171941979Y-118249276D02*
X171980074Y-118173085D01*
X171980074Y-118173085D02*
X172018169Y-118134990D01*
X172018169Y-118134990D02*
X172094360Y-118096895D01*
X172703884Y-118820704D02*
X172741979Y-118858800D01*
X172741979Y-118858800D02*
X172703884Y-118896895D01*
X172703884Y-118896895D02*
X172665788Y-118858800D01*
X172665788Y-118858800D02*
X172703884Y-118820704D01*
X172703884Y-118820704D02*
X172703884Y-118896895D01*
X173503883Y-118896895D02*
X173046740Y-118896895D01*
X173275312Y-118896895D02*
X173275312Y-118096895D01*
X173275312Y-118096895D02*
X173199121Y-118211180D01*
X173199121Y-118211180D02*
X173122931Y-118287371D01*
X173122931Y-118287371D02*
X173046740Y-118325466D01*
D11*
X161402568Y-122614619D02*
X161402568Y-121614619D01*
X161402568Y-121995571D02*
X161497806Y-121947952D01*
X161497806Y-121947952D02*
X161688282Y-121947952D01*
X161688282Y-121947952D02*
X161783520Y-121995571D01*
X161783520Y-121995571D02*
X161831139Y-122043190D01*
X161831139Y-122043190D02*
X161878758Y-122138428D01*
X161878758Y-122138428D02*
X161878758Y-122424142D01*
X161878758Y-122424142D02*
X161831139Y-122519380D01*
X161831139Y-122519380D02*
X161783520Y-122567000D01*
X161783520Y-122567000D02*
X161688282Y-122614619D01*
X161688282Y-122614619D02*
X161497806Y-122614619D01*
X161497806Y-122614619D02*
X161402568Y-122567000D01*
X162212092Y-121947952D02*
X162450187Y-122614619D01*
X162688282Y-121947952D02*
X162450187Y-122614619D01*
X162450187Y-122614619D02*
X162354949Y-122852714D01*
X162354949Y-122852714D02*
X162307330Y-122900333D01*
X162307330Y-122900333D02*
X162212092Y-122947952D01*
X164116854Y-121614619D02*
X164116854Y-122328904D01*
X164116854Y-122328904D02*
X164069235Y-122471761D01*
X164069235Y-122471761D02*
X163973997Y-122567000D01*
X163973997Y-122567000D02*
X163831140Y-122614619D01*
X163831140Y-122614619D02*
X163735902Y-122614619D01*
X164593045Y-122614619D02*
X164593045Y-121947952D01*
X164593045Y-121614619D02*
X164545426Y-121662238D01*
X164545426Y-121662238D02*
X164593045Y-121709857D01*
X164593045Y-121709857D02*
X164640664Y-121662238D01*
X164640664Y-121662238D02*
X164593045Y-121614619D01*
X164593045Y-121614619D02*
X164593045Y-121709857D01*
X165069235Y-122614619D02*
X165069235Y-121947952D01*
X165069235Y-122138428D02*
X165116854Y-122043190D01*
X165116854Y-122043190D02*
X165164473Y-121995571D01*
X165164473Y-121995571D02*
X165259711Y-121947952D01*
X165259711Y-121947952D02*
X165354949Y-121947952D01*
X166116854Y-122614619D02*
X166116854Y-122090809D01*
X166116854Y-122090809D02*
X166069235Y-121995571D01*
X166069235Y-121995571D02*
X165973997Y-121947952D01*
X165973997Y-121947952D02*
X165783521Y-121947952D01*
X165783521Y-121947952D02*
X165688283Y-121995571D01*
X166116854Y-122567000D02*
X166021616Y-122614619D01*
X166021616Y-122614619D02*
X165783521Y-122614619D01*
X165783521Y-122614619D02*
X165688283Y-122567000D01*
X165688283Y-122567000D02*
X165640664Y-122471761D01*
X165640664Y-122471761D02*
X165640664Y-122376523D01*
X165640664Y-122376523D02*
X165688283Y-122281285D01*
X165688283Y-122281285D02*
X165783521Y-122233666D01*
X165783521Y-122233666D02*
X166021616Y-122233666D01*
X166021616Y-122233666D02*
X166116854Y-122186047D01*
X166593045Y-122614619D02*
X166593045Y-121614619D01*
X166688283Y-122233666D02*
X166973997Y-122614619D01*
X166973997Y-121947952D02*
X166593045Y-122328904D01*
X167545426Y-122614619D02*
X167450188Y-122567000D01*
X167450188Y-122567000D02*
X167402569Y-122519380D01*
X167402569Y-122519380D02*
X167354950Y-122424142D01*
X167354950Y-122424142D02*
X167354950Y-122138428D01*
X167354950Y-122138428D02*
X167402569Y-122043190D01*
X167402569Y-122043190D02*
X167450188Y-121995571D01*
X167450188Y-121995571D02*
X167545426Y-121947952D01*
X167545426Y-121947952D02*
X167688283Y-121947952D01*
X167688283Y-121947952D02*
X167783521Y-121995571D01*
X167783521Y-121995571D02*
X167831140Y-122043190D01*
X167831140Y-122043190D02*
X167878759Y-122138428D01*
X167878759Y-122138428D02*
X167878759Y-122424142D01*
X167878759Y-122424142D02*
X167831140Y-122519380D01*
X167831140Y-122519380D02*
X167783521Y-122567000D01*
X167783521Y-122567000D02*
X167688283Y-122614619D01*
X167688283Y-122614619D02*
X167545426Y-122614619D01*
X168307331Y-122614619D02*
X168307331Y-121947952D01*
X168307331Y-122138428D02*
X168354950Y-122043190D01*
X168354950Y-122043190D02*
X168402569Y-121995571D01*
X168402569Y-121995571D02*
X168497807Y-121947952D01*
X168497807Y-121947952D02*
X168593045Y-121947952D01*
X168926379Y-121947952D02*
X168926379Y-122614619D01*
X168926379Y-122043190D02*
X168973998Y-121995571D01*
X168973998Y-121995571D02*
X169069236Y-121947952D01*
X169069236Y-121947952D02*
X169212093Y-121947952D01*
X169212093Y-121947952D02*
X169307331Y-121995571D01*
X169307331Y-121995571D02*
X169354950Y-122090809D01*
X169354950Y-122090809D02*
X169354950Y-122614619D01*
X170545427Y-122567000D02*
X170688284Y-122614619D01*
X170688284Y-122614619D02*
X170926379Y-122614619D01*
X170926379Y-122614619D02*
X171021617Y-122567000D01*
X171021617Y-122567000D02*
X171069236Y-122519380D01*
X171069236Y-122519380D02*
X171116855Y-122424142D01*
X171116855Y-122424142D02*
X171116855Y-122328904D01*
X171116855Y-122328904D02*
X171069236Y-122233666D01*
X171069236Y-122233666D02*
X171021617Y-122186047D01*
X171021617Y-122186047D02*
X170926379Y-122138428D01*
X170926379Y-122138428D02*
X170735903Y-122090809D01*
X170735903Y-122090809D02*
X170640665Y-122043190D01*
X170640665Y-122043190D02*
X170593046Y-121995571D01*
X170593046Y-121995571D02*
X170545427Y-121900333D01*
X170545427Y-121900333D02*
X170545427Y-121805095D01*
X170545427Y-121805095D02*
X170593046Y-121709857D01*
X170593046Y-121709857D02*
X170640665Y-121662238D01*
X170640665Y-121662238D02*
X170735903Y-121614619D01*
X170735903Y-121614619D02*
X170973998Y-121614619D01*
X170973998Y-121614619D02*
X171116855Y-121662238D01*
X171973998Y-121947952D02*
X171973998Y-122614619D01*
X171545427Y-121947952D02*
X171545427Y-122471761D01*
X171545427Y-122471761D02*
X171593046Y-122567000D01*
X171593046Y-122567000D02*
X171688284Y-122614619D01*
X171688284Y-122614619D02*
X171831141Y-122614619D01*
X171831141Y-122614619D02*
X171926379Y-122567000D01*
X171926379Y-122567000D02*
X171973998Y-122519380D01*
X172450189Y-122614619D02*
X172450189Y-121614619D01*
X172545427Y-122233666D02*
X172831141Y-122614619D01*
X172831141Y-121947952D02*
X172450189Y-122328904D01*
X173259713Y-122614619D02*
X173259713Y-121947952D01*
X173259713Y-122043190D02*
X173307332Y-121995571D01*
X173307332Y-121995571D02*
X173402570Y-121947952D01*
X173402570Y-121947952D02*
X173545427Y-121947952D01*
X173545427Y-121947952D02*
X173640665Y-121995571D01*
X173640665Y-121995571D02*
X173688284Y-122090809D01*
X173688284Y-122090809D02*
X173688284Y-122614619D01*
X173688284Y-122090809D02*
X173735903Y-121995571D01*
X173735903Y-121995571D02*
X173831141Y-121947952D01*
X173831141Y-121947952D02*
X173973998Y-121947952D01*
X173973998Y-121947952D02*
X174069237Y-121995571D01*
X174069237Y-121995571D02*
X174116856Y-122090809D01*
X174116856Y-122090809D02*
X174116856Y-122614619D01*
X174973998Y-122567000D02*
X174878760Y-122614619D01*
X174878760Y-122614619D02*
X174688284Y-122614619D01*
X174688284Y-122614619D02*
X174593046Y-122567000D01*
X174593046Y-122567000D02*
X174545427Y-122471761D01*
X174545427Y-122471761D02*
X174545427Y-122090809D01*
X174545427Y-122090809D02*
X174593046Y-121995571D01*
X174593046Y-121995571D02*
X174688284Y-121947952D01*
X174688284Y-121947952D02*
X174878760Y-121947952D01*
X174878760Y-121947952D02*
X174973998Y-121995571D01*
X174973998Y-121995571D02*
X175021617Y-122090809D01*
X175021617Y-122090809D02*
X175021617Y-122186047D01*
X175021617Y-122186047D02*
X174545427Y-122281285D01*
X175831141Y-122567000D02*
X175735903Y-122614619D01*
X175735903Y-122614619D02*
X175545427Y-122614619D01*
X175545427Y-122614619D02*
X175450189Y-122567000D01*
X175450189Y-122567000D02*
X175402570Y-122471761D01*
X175402570Y-122471761D02*
X175402570Y-122090809D01*
X175402570Y-122090809D02*
X175450189Y-121995571D01*
X175450189Y-121995571D02*
X175545427Y-121947952D01*
X175545427Y-121947952D02*
X175735903Y-121947952D01*
X175735903Y-121947952D02*
X175831141Y-121995571D01*
X175831141Y-121995571D02*
X175878760Y-122090809D01*
X175878760Y-122090809D02*
X175878760Y-122186047D01*
X175878760Y-122186047D02*
X175402570Y-122281285D01*
X161259711Y-118004675D02*
X161831139Y-118004675D01*
X161545425Y-119004675D02*
X161545425Y-118004675D01*
X162545425Y-118957056D02*
X162450187Y-119004675D01*
X162450187Y-119004675D02*
X162259711Y-119004675D01*
X162259711Y-119004675D02*
X162164473Y-118957056D01*
X162164473Y-118957056D02*
X162116854Y-118861817D01*
X162116854Y-118861817D02*
X162116854Y-118480865D01*
X162116854Y-118480865D02*
X162164473Y-118385627D01*
X162164473Y-118385627D02*
X162259711Y-118338008D01*
X162259711Y-118338008D02*
X162450187Y-118338008D01*
X162450187Y-118338008D02*
X162545425Y-118385627D01*
X162545425Y-118385627D02*
X162593044Y-118480865D01*
X162593044Y-118480865D02*
X162593044Y-118576103D01*
X162593044Y-118576103D02*
X162116854Y-118671341D01*
X163402568Y-118957056D02*
X163307330Y-119004675D01*
X163307330Y-119004675D02*
X163116854Y-119004675D01*
X163116854Y-119004675D02*
X163021616Y-118957056D01*
X163021616Y-118957056D02*
X162973997Y-118861817D01*
X162973997Y-118861817D02*
X162973997Y-118480865D01*
X162973997Y-118480865D02*
X163021616Y-118385627D01*
X163021616Y-118385627D02*
X163116854Y-118338008D01*
X163116854Y-118338008D02*
X163307330Y-118338008D01*
X163307330Y-118338008D02*
X163402568Y-118385627D01*
X163402568Y-118385627D02*
X163450187Y-118480865D01*
X163450187Y-118480865D02*
X163450187Y-118576103D01*
X163450187Y-118576103D02*
X162973997Y-118671341D01*
X163878759Y-118338008D02*
X163878759Y-119004675D01*
X163878759Y-118433246D02*
X163926378Y-118385627D01*
X163926378Y-118385627D02*
X164021616Y-118338008D01*
X164021616Y-118338008D02*
X164164473Y-118338008D01*
X164164473Y-118338008D02*
X164259711Y-118385627D01*
X164259711Y-118385627D02*
X164307330Y-118480865D01*
X164307330Y-118480865D02*
X164307330Y-119004675D01*
X164735902Y-118957056D02*
X164831140Y-119004675D01*
X164831140Y-119004675D02*
X165021616Y-119004675D01*
X165021616Y-119004675D02*
X165116854Y-118957056D01*
X165116854Y-118957056D02*
X165164473Y-118861817D01*
X165164473Y-118861817D02*
X165164473Y-118814198D01*
X165164473Y-118814198D02*
X165116854Y-118718960D01*
X165116854Y-118718960D02*
X165021616Y-118671341D01*
X165021616Y-118671341D02*
X164878759Y-118671341D01*
X164878759Y-118671341D02*
X164783521Y-118623722D01*
X164783521Y-118623722D02*
X164735902Y-118528484D01*
X164735902Y-118528484D02*
X164735902Y-118480865D01*
X164735902Y-118480865D02*
X164783521Y-118385627D01*
X164783521Y-118385627D02*
X164878759Y-118338008D01*
X164878759Y-118338008D02*
X165021616Y-118338008D01*
X165021616Y-118338008D02*
X165116854Y-118385627D01*
X165497807Y-118338008D02*
X165735902Y-119004675D01*
X165973997Y-118338008D02*
X165735902Y-119004675D01*
X165735902Y-119004675D02*
X165640664Y-119242770D01*
X165640664Y-119242770D02*
X165593045Y-119290389D01*
X165593045Y-119290389D02*
X165497807Y-119338008D01*
X167545426Y-118338008D02*
X167545426Y-119004675D01*
X167307331Y-117957056D02*
X167069236Y-118671341D01*
X167069236Y-118671341D02*
X167688283Y-118671341D01*
X168069236Y-118909436D02*
X168116855Y-118957056D01*
X168116855Y-118957056D02*
X168069236Y-119004675D01*
X168069236Y-119004675D02*
X168021617Y-118957056D01*
X168021617Y-118957056D02*
X168069236Y-118909436D01*
X168069236Y-118909436D02*
X168069236Y-119004675D01*
X168735902Y-118004675D02*
X168831140Y-118004675D01*
X168831140Y-118004675D02*
X168926378Y-118052294D01*
X168926378Y-118052294D02*
X168973997Y-118099913D01*
X168973997Y-118099913D02*
X169021616Y-118195151D01*
X169021616Y-118195151D02*
X169069235Y-118385627D01*
X169069235Y-118385627D02*
X169069235Y-118623722D01*
X169069235Y-118623722D02*
X169021616Y-118814198D01*
X169021616Y-118814198D02*
X168973997Y-118909436D01*
X168973997Y-118909436D02*
X168926378Y-118957056D01*
X168926378Y-118957056D02*
X168831140Y-119004675D01*
X168831140Y-119004675D02*
X168735902Y-119004675D01*
X168735902Y-119004675D02*
X168640664Y-118957056D01*
X168640664Y-118957056D02*
X168593045Y-118909436D01*
X168593045Y-118909436D02*
X168545426Y-118814198D01*
X168545426Y-118814198D02*
X168497807Y-118623722D01*
X168497807Y-118623722D02*
X168497807Y-118385627D01*
X168497807Y-118385627D02*
X168545426Y-118195151D01*
X168545426Y-118195151D02*
X168593045Y-118099913D01*
X168593045Y-118099913D02*
X168640664Y-118052294D01*
X168640664Y-118052294D02*
X168735902Y-118004675D01*
X161402568Y-120614619D02*
X161402568Y-119614619D01*
X161402568Y-120090809D02*
X161973996Y-120090809D01*
X161973996Y-120614619D02*
X161973996Y-119614619D01*
X162831139Y-120567000D02*
X162735901Y-120614619D01*
X162735901Y-120614619D02*
X162545425Y-120614619D01*
X162545425Y-120614619D02*
X162450187Y-120567000D01*
X162450187Y-120567000D02*
X162402568Y-120471761D01*
X162402568Y-120471761D02*
X162402568Y-120090809D01*
X162402568Y-120090809D02*
X162450187Y-119995571D01*
X162450187Y-119995571D02*
X162545425Y-119947952D01*
X162545425Y-119947952D02*
X162735901Y-119947952D01*
X162735901Y-119947952D02*
X162831139Y-119995571D01*
X162831139Y-119995571D02*
X162878758Y-120090809D01*
X162878758Y-120090809D02*
X162878758Y-120186047D01*
X162878758Y-120186047D02*
X162402568Y-120281285D01*
X163212092Y-120614619D02*
X163735901Y-119947952D01*
X163212092Y-119947952D02*
X163735901Y-120614619D01*
X164545425Y-120614619D02*
X164545425Y-120090809D01*
X164545425Y-120090809D02*
X164497806Y-119995571D01*
X164497806Y-119995571D02*
X164402568Y-119947952D01*
X164402568Y-119947952D02*
X164212092Y-119947952D01*
X164212092Y-119947952D02*
X164116854Y-119995571D01*
X164545425Y-120567000D02*
X164450187Y-120614619D01*
X164450187Y-120614619D02*
X164212092Y-120614619D01*
X164212092Y-120614619D02*
X164116854Y-120567000D01*
X164116854Y-120567000D02*
X164069235Y-120471761D01*
X164069235Y-120471761D02*
X164069235Y-120376523D01*
X164069235Y-120376523D02*
X164116854Y-120281285D01*
X164116854Y-120281285D02*
X164212092Y-120233666D01*
X164212092Y-120233666D02*
X164450187Y-120233666D01*
X164450187Y-120233666D02*
X164545425Y-120186047D01*
X165021616Y-119947952D02*
X165021616Y-120947952D01*
X165021616Y-119995571D02*
X165116854Y-119947952D01*
X165116854Y-119947952D02*
X165307330Y-119947952D01*
X165307330Y-119947952D02*
X165402568Y-119995571D01*
X165402568Y-119995571D02*
X165450187Y-120043190D01*
X165450187Y-120043190D02*
X165497806Y-120138428D01*
X165497806Y-120138428D02*
X165497806Y-120424142D01*
X165497806Y-120424142D02*
X165450187Y-120519380D01*
X165450187Y-120519380D02*
X165402568Y-120567000D01*
X165402568Y-120567000D02*
X165307330Y-120614619D01*
X165307330Y-120614619D02*
X165116854Y-120614619D01*
X165116854Y-120614619D02*
X165021616Y-120567000D01*
X166069235Y-120614619D02*
X165973997Y-120567000D01*
X165973997Y-120567000D02*
X165926378Y-120519380D01*
X165926378Y-120519380D02*
X165878759Y-120424142D01*
X165878759Y-120424142D02*
X165878759Y-120138428D01*
X165878759Y-120138428D02*
X165926378Y-120043190D01*
X165926378Y-120043190D02*
X165973997Y-119995571D01*
X165973997Y-119995571D02*
X166069235Y-119947952D01*
X166069235Y-119947952D02*
X166212092Y-119947952D01*
X166212092Y-119947952D02*
X166307330Y-119995571D01*
X166307330Y-119995571D02*
X166354949Y-120043190D01*
X166354949Y-120043190D02*
X166402568Y-120138428D01*
X166402568Y-120138428D02*
X166402568Y-120424142D01*
X166402568Y-120424142D02*
X166354949Y-120519380D01*
X166354949Y-120519380D02*
X166307330Y-120567000D01*
X166307330Y-120567000D02*
X166212092Y-120614619D01*
X166212092Y-120614619D02*
X166069235Y-120614619D01*
X167259711Y-120614619D02*
X167259711Y-119614619D01*
X167259711Y-120567000D02*
X167164473Y-120614619D01*
X167164473Y-120614619D02*
X166973997Y-120614619D01*
X166973997Y-120614619D02*
X166878759Y-120567000D01*
X166878759Y-120567000D02*
X166831140Y-120519380D01*
X166831140Y-120519380D02*
X166783521Y-120424142D01*
X166783521Y-120424142D02*
X166783521Y-120138428D01*
X166783521Y-120138428D02*
X166831140Y-120043190D01*
X166831140Y-120043190D02*
X166878759Y-119995571D01*
X166878759Y-119995571D02*
X166973997Y-119947952D01*
X166973997Y-119947952D02*
X167164473Y-119947952D01*
X167164473Y-119947952D02*
X167259711Y-119995571D01*
X169069235Y-120519380D02*
X169021616Y-120567000D01*
X169021616Y-120567000D02*
X168878759Y-120614619D01*
X168878759Y-120614619D02*
X168783521Y-120614619D01*
X168783521Y-120614619D02*
X168640664Y-120567000D01*
X168640664Y-120567000D02*
X168545426Y-120471761D01*
X168545426Y-120471761D02*
X168497807Y-120376523D01*
X168497807Y-120376523D02*
X168450188Y-120186047D01*
X168450188Y-120186047D02*
X168450188Y-120043190D01*
X168450188Y-120043190D02*
X168497807Y-119852714D01*
X168497807Y-119852714D02*
X168545426Y-119757476D01*
X168545426Y-119757476D02*
X168640664Y-119662238D01*
X168640664Y-119662238D02*
X168783521Y-119614619D01*
X168783521Y-119614619D02*
X168878759Y-119614619D01*
X168878759Y-119614619D02*
X169021616Y-119662238D01*
X169021616Y-119662238D02*
X169069235Y-119709857D01*
X169640664Y-120614619D02*
X169545426Y-120567000D01*
X169545426Y-120567000D02*
X169497807Y-120519380D01*
X169497807Y-120519380D02*
X169450188Y-120424142D01*
X169450188Y-120424142D02*
X169450188Y-120138428D01*
X169450188Y-120138428D02*
X169497807Y-120043190D01*
X169497807Y-120043190D02*
X169545426Y-119995571D01*
X169545426Y-119995571D02*
X169640664Y-119947952D01*
X169640664Y-119947952D02*
X169783521Y-119947952D01*
X169783521Y-119947952D02*
X169878759Y-119995571D01*
X169878759Y-119995571D02*
X169926378Y-120043190D01*
X169926378Y-120043190D02*
X169973997Y-120138428D01*
X169973997Y-120138428D02*
X169973997Y-120424142D01*
X169973997Y-120424142D02*
X169926378Y-120519380D01*
X169926378Y-120519380D02*
X169878759Y-120567000D01*
X169878759Y-120567000D02*
X169783521Y-120614619D01*
X169783521Y-120614619D02*
X169640664Y-120614619D01*
X170402569Y-119947952D02*
X170402569Y-120614619D01*
X170402569Y-120043190D02*
X170450188Y-119995571D01*
X170450188Y-119995571D02*
X170545426Y-119947952D01*
X170545426Y-119947952D02*
X170688283Y-119947952D01*
X170688283Y-119947952D02*
X170783521Y-119995571D01*
X170783521Y-119995571D02*
X170831140Y-120090809D01*
X170831140Y-120090809D02*
X170831140Y-120614619D01*
X171164474Y-119947952D02*
X171545426Y-119947952D01*
X171307331Y-119614619D02*
X171307331Y-120471761D01*
X171307331Y-120471761D02*
X171354950Y-120567000D01*
X171354950Y-120567000D02*
X171450188Y-120614619D01*
X171450188Y-120614619D02*
X171545426Y-120614619D01*
X171878760Y-120614619D02*
X171878760Y-119947952D01*
X171878760Y-120138428D02*
X171926379Y-120043190D01*
X171926379Y-120043190D02*
X171973998Y-119995571D01*
X171973998Y-119995571D02*
X172069236Y-119947952D01*
X172069236Y-119947952D02*
X172164474Y-119947952D01*
X172640665Y-120614619D02*
X172545427Y-120567000D01*
X172545427Y-120567000D02*
X172497808Y-120519380D01*
X172497808Y-120519380D02*
X172450189Y-120424142D01*
X172450189Y-120424142D02*
X172450189Y-120138428D01*
X172450189Y-120138428D02*
X172497808Y-120043190D01*
X172497808Y-120043190D02*
X172545427Y-119995571D01*
X172545427Y-119995571D02*
X172640665Y-119947952D01*
X172640665Y-119947952D02*
X172783522Y-119947952D01*
X172783522Y-119947952D02*
X172878760Y-119995571D01*
X172878760Y-119995571D02*
X172926379Y-120043190D01*
X172926379Y-120043190D02*
X172973998Y-120138428D01*
X172973998Y-120138428D02*
X172973998Y-120424142D01*
X172973998Y-120424142D02*
X172926379Y-120519380D01*
X172926379Y-120519380D02*
X172878760Y-120567000D01*
X172878760Y-120567000D02*
X172783522Y-120614619D01*
X172783522Y-120614619D02*
X172640665Y-120614619D01*
X173545427Y-120614619D02*
X173450189Y-120567000D01*
X173450189Y-120567000D02*
X173402570Y-120471761D01*
X173402570Y-120471761D02*
X173402570Y-119614619D01*
X174069237Y-120614619D02*
X173973999Y-120567000D01*
X173973999Y-120567000D02*
X173926380Y-120471761D01*
X173926380Y-120471761D02*
X173926380Y-119614619D01*
X174831142Y-120567000D02*
X174735904Y-120614619D01*
X174735904Y-120614619D02*
X174545428Y-120614619D01*
X174545428Y-120614619D02*
X174450190Y-120567000D01*
X174450190Y-120567000D02*
X174402571Y-120471761D01*
X174402571Y-120471761D02*
X174402571Y-120090809D01*
X174402571Y-120090809D02*
X174450190Y-119995571D01*
X174450190Y-119995571D02*
X174545428Y-119947952D01*
X174545428Y-119947952D02*
X174735904Y-119947952D01*
X174735904Y-119947952D02*
X174831142Y-119995571D01*
X174831142Y-119995571D02*
X174878761Y-120090809D01*
X174878761Y-120090809D02*
X174878761Y-120186047D01*
X174878761Y-120186047D02*
X174402571Y-120281285D01*
X175307333Y-120614619D02*
X175307333Y-119947952D01*
X175307333Y-120138428D02*
X175354952Y-120043190D01*
X175354952Y-120043190D02*
X175402571Y-119995571D01*
X175402571Y-119995571D02*
X175497809Y-119947952D01*
X175497809Y-119947952D02*
X175593047Y-119947952D01*
D10*
X126968169Y-108923085D02*
X127006265Y-108884990D01*
X127006265Y-108884990D02*
X127082455Y-108846895D01*
X127082455Y-108846895D02*
X127272931Y-108846895D01*
X127272931Y-108846895D02*
X127349122Y-108884990D01*
X127349122Y-108884990D02*
X127387217Y-108923085D01*
X127387217Y-108923085D02*
X127425312Y-108999276D01*
X127425312Y-108999276D02*
X127425312Y-109075466D01*
X127425312Y-109075466D02*
X127387217Y-109189752D01*
X127387217Y-109189752D02*
X126930074Y-109646895D01*
X126930074Y-109646895D02*
X127425312Y-109646895D01*
X127882455Y-109189752D02*
X127806265Y-109151657D01*
X127806265Y-109151657D02*
X127768170Y-109113561D01*
X127768170Y-109113561D02*
X127730074Y-109037371D01*
X127730074Y-109037371D02*
X127730074Y-108999276D01*
X127730074Y-108999276D02*
X127768170Y-108923085D01*
X127768170Y-108923085D02*
X127806265Y-108884990D01*
X127806265Y-108884990D02*
X127882455Y-108846895D01*
X127882455Y-108846895D02*
X128034836Y-108846895D01*
X128034836Y-108846895D02*
X128111027Y-108884990D01*
X128111027Y-108884990D02*
X128149122Y-108923085D01*
X128149122Y-108923085D02*
X128187217Y-108999276D01*
X128187217Y-108999276D02*
X128187217Y-109037371D01*
X128187217Y-109037371D02*
X128149122Y-109113561D01*
X128149122Y-109113561D02*
X128111027Y-109151657D01*
X128111027Y-109151657D02*
X128034836Y-109189752D01*
X128034836Y-109189752D02*
X127882455Y-109189752D01*
X127882455Y-109189752D02*
X127806265Y-109227847D01*
X127806265Y-109227847D02*
X127768170Y-109265942D01*
X127768170Y-109265942D02*
X127730074Y-109342133D01*
X127730074Y-109342133D02*
X127730074Y-109494514D01*
X127730074Y-109494514D02*
X127768170Y-109570704D01*
X127768170Y-109570704D02*
X127806265Y-109608800D01*
X127806265Y-109608800D02*
X127882455Y-109646895D01*
X127882455Y-109646895D02*
X128034836Y-109646895D01*
X128034836Y-109646895D02*
X128111027Y-109608800D01*
X128111027Y-109608800D02*
X128149122Y-109570704D01*
X128149122Y-109570704D02*
X128187217Y-109494514D01*
X128187217Y-109494514D02*
X128187217Y-109342133D01*
X128187217Y-109342133D02*
X128149122Y-109265942D01*
X128149122Y-109265942D02*
X128111027Y-109227847D01*
X128111027Y-109227847D02*
X128034836Y-109189752D01*
X129468169Y-108923085D02*
X129506265Y-108884990D01*
X129506265Y-108884990D02*
X129582455Y-108846895D01*
X129582455Y-108846895D02*
X129772931Y-108846895D01*
X129772931Y-108846895D02*
X129849122Y-108884990D01*
X129849122Y-108884990D02*
X129887217Y-108923085D01*
X129887217Y-108923085D02*
X129925312Y-108999276D01*
X129925312Y-108999276D02*
X129925312Y-109075466D01*
X129925312Y-109075466D02*
X129887217Y-109189752D01*
X129887217Y-109189752D02*
X129430074Y-109646895D01*
X129430074Y-109646895D02*
X129925312Y-109646895D01*
X130306265Y-109646895D02*
X130458646Y-109646895D01*
X130458646Y-109646895D02*
X130534836Y-109608800D01*
X130534836Y-109608800D02*
X130572932Y-109570704D01*
X130572932Y-109570704D02*
X130649122Y-109456419D01*
X130649122Y-109456419D02*
X130687217Y-109304038D01*
X130687217Y-109304038D02*
X130687217Y-108999276D01*
X130687217Y-108999276D02*
X130649122Y-108923085D01*
X130649122Y-108923085D02*
X130611027Y-108884990D01*
X130611027Y-108884990D02*
X130534836Y-108846895D01*
X130534836Y-108846895D02*
X130382455Y-108846895D01*
X130382455Y-108846895D02*
X130306265Y-108884990D01*
X130306265Y-108884990D02*
X130268170Y-108923085D01*
X130268170Y-108923085D02*
X130230074Y-108999276D01*
X130230074Y-108999276D02*
X130230074Y-109189752D01*
X130230074Y-109189752D02*
X130268170Y-109265942D01*
X130268170Y-109265942D02*
X130306265Y-109304038D01*
X130306265Y-109304038D02*
X130382455Y-109342133D01*
X130382455Y-109342133D02*
X130534836Y-109342133D01*
X130534836Y-109342133D02*
X130611027Y-109304038D01*
X130611027Y-109304038D02*
X130649122Y-109265942D01*
X130649122Y-109265942D02*
X130687217Y-109189752D01*
X131930074Y-108846895D02*
X132425312Y-108846895D01*
X132425312Y-108846895D02*
X132158646Y-109151657D01*
X132158646Y-109151657D02*
X132272931Y-109151657D01*
X132272931Y-109151657D02*
X132349122Y-109189752D01*
X132349122Y-109189752D02*
X132387217Y-109227847D01*
X132387217Y-109227847D02*
X132425312Y-109304038D01*
X132425312Y-109304038D02*
X132425312Y-109494514D01*
X132425312Y-109494514D02*
X132387217Y-109570704D01*
X132387217Y-109570704D02*
X132349122Y-109608800D01*
X132349122Y-109608800D02*
X132272931Y-109646895D01*
X132272931Y-109646895D02*
X132044360Y-109646895D01*
X132044360Y-109646895D02*
X131968169Y-109608800D01*
X131968169Y-109608800D02*
X131930074Y-109570704D01*
X132920551Y-108846895D02*
X132996741Y-108846895D01*
X132996741Y-108846895D02*
X133072932Y-108884990D01*
X133072932Y-108884990D02*
X133111027Y-108923085D01*
X133111027Y-108923085D02*
X133149122Y-108999276D01*
X133149122Y-108999276D02*
X133187217Y-109151657D01*
X133187217Y-109151657D02*
X133187217Y-109342133D01*
X133187217Y-109342133D02*
X133149122Y-109494514D01*
X133149122Y-109494514D02*
X133111027Y-109570704D01*
X133111027Y-109570704D02*
X133072932Y-109608800D01*
X133072932Y-109608800D02*
X132996741Y-109646895D01*
X132996741Y-109646895D02*
X132920551Y-109646895D01*
X132920551Y-109646895D02*
X132844360Y-109608800D01*
X132844360Y-109608800D02*
X132806265Y-109570704D01*
X132806265Y-109570704D02*
X132768170Y-109494514D01*
X132768170Y-109494514D02*
X132730074Y-109342133D01*
X132730074Y-109342133D02*
X132730074Y-109151657D01*
X132730074Y-109151657D02*
X132768170Y-108999276D01*
X132768170Y-108999276D02*
X132806265Y-108923085D01*
X132806265Y-108923085D02*
X132844360Y-108884990D01*
X132844360Y-108884990D02*
X132920551Y-108846895D01*
X134430074Y-108846895D02*
X134925312Y-108846895D01*
X134925312Y-108846895D02*
X134658646Y-109151657D01*
X134658646Y-109151657D02*
X134772931Y-109151657D01*
X134772931Y-109151657D02*
X134849122Y-109189752D01*
X134849122Y-109189752D02*
X134887217Y-109227847D01*
X134887217Y-109227847D02*
X134925312Y-109304038D01*
X134925312Y-109304038D02*
X134925312Y-109494514D01*
X134925312Y-109494514D02*
X134887217Y-109570704D01*
X134887217Y-109570704D02*
X134849122Y-109608800D01*
X134849122Y-109608800D02*
X134772931Y-109646895D01*
X134772931Y-109646895D02*
X134544360Y-109646895D01*
X134544360Y-109646895D02*
X134468169Y-109608800D01*
X134468169Y-109608800D02*
X134430074Y-109570704D01*
X135687217Y-109646895D02*
X135230074Y-109646895D01*
X135458646Y-109646895D02*
X135458646Y-108846895D01*
X135458646Y-108846895D02*
X135382455Y-108961180D01*
X135382455Y-108961180D02*
X135306265Y-109037371D01*
X135306265Y-109037371D02*
X135230074Y-109075466D01*
X134468169Y-113423085D02*
X134506265Y-113384990D01*
X134506265Y-113384990D02*
X134582455Y-113346895D01*
X134582455Y-113346895D02*
X134772931Y-113346895D01*
X134772931Y-113346895D02*
X134849122Y-113384990D01*
X134849122Y-113384990D02*
X134887217Y-113423085D01*
X134887217Y-113423085D02*
X134925312Y-113499276D01*
X134925312Y-113499276D02*
X134925312Y-113575466D01*
X134925312Y-113575466D02*
X134887217Y-113689752D01*
X134887217Y-113689752D02*
X134430074Y-114146895D01*
X134430074Y-114146895D02*
X134925312Y-114146895D01*
X135191979Y-113346895D02*
X135725313Y-113346895D01*
X135725313Y-113346895D02*
X135382455Y-114146895D01*
X131968169Y-113423085D02*
X132006265Y-113384990D01*
X132006265Y-113384990D02*
X132082455Y-113346895D01*
X132082455Y-113346895D02*
X132272931Y-113346895D01*
X132272931Y-113346895D02*
X132349122Y-113384990D01*
X132349122Y-113384990D02*
X132387217Y-113423085D01*
X132387217Y-113423085D02*
X132425312Y-113499276D01*
X132425312Y-113499276D02*
X132425312Y-113575466D01*
X132425312Y-113575466D02*
X132387217Y-113689752D01*
X132387217Y-113689752D02*
X131930074Y-114146895D01*
X131930074Y-114146895D02*
X132425312Y-114146895D01*
X133111027Y-113346895D02*
X132958646Y-113346895D01*
X132958646Y-113346895D02*
X132882455Y-113384990D01*
X132882455Y-113384990D02*
X132844360Y-113423085D01*
X132844360Y-113423085D02*
X132768170Y-113537371D01*
X132768170Y-113537371D02*
X132730074Y-113689752D01*
X132730074Y-113689752D02*
X132730074Y-113994514D01*
X132730074Y-113994514D02*
X132768170Y-114070704D01*
X132768170Y-114070704D02*
X132806265Y-114108800D01*
X132806265Y-114108800D02*
X132882455Y-114146895D01*
X132882455Y-114146895D02*
X133034836Y-114146895D01*
X133034836Y-114146895D02*
X133111027Y-114108800D01*
X133111027Y-114108800D02*
X133149122Y-114070704D01*
X133149122Y-114070704D02*
X133187217Y-113994514D01*
X133187217Y-113994514D02*
X133187217Y-113804038D01*
X133187217Y-113804038D02*
X133149122Y-113727847D01*
X133149122Y-113727847D02*
X133111027Y-113689752D01*
X133111027Y-113689752D02*
X133034836Y-113651657D01*
X133034836Y-113651657D02*
X132882455Y-113651657D01*
X132882455Y-113651657D02*
X132806265Y-113689752D01*
X132806265Y-113689752D02*
X132768170Y-113727847D01*
X132768170Y-113727847D02*
X132730074Y-113804038D01*
X129468169Y-113423085D02*
X129506265Y-113384990D01*
X129506265Y-113384990D02*
X129582455Y-113346895D01*
X129582455Y-113346895D02*
X129772931Y-113346895D01*
X129772931Y-113346895D02*
X129849122Y-113384990D01*
X129849122Y-113384990D02*
X129887217Y-113423085D01*
X129887217Y-113423085D02*
X129925312Y-113499276D01*
X129925312Y-113499276D02*
X129925312Y-113575466D01*
X129925312Y-113575466D02*
X129887217Y-113689752D01*
X129887217Y-113689752D02*
X129430074Y-114146895D01*
X129430074Y-114146895D02*
X129925312Y-114146895D01*
X130649122Y-113346895D02*
X130268170Y-113346895D01*
X130268170Y-113346895D02*
X130230074Y-113727847D01*
X130230074Y-113727847D02*
X130268170Y-113689752D01*
X130268170Y-113689752D02*
X130344360Y-113651657D01*
X130344360Y-113651657D02*
X130534836Y-113651657D01*
X130534836Y-113651657D02*
X130611027Y-113689752D01*
X130611027Y-113689752D02*
X130649122Y-113727847D01*
X130649122Y-113727847D02*
X130687217Y-113804038D01*
X130687217Y-113804038D02*
X130687217Y-113994514D01*
X130687217Y-113994514D02*
X130649122Y-114070704D01*
X130649122Y-114070704D02*
X130611027Y-114108800D01*
X130611027Y-114108800D02*
X130534836Y-114146895D01*
X130534836Y-114146895D02*
X130344360Y-114146895D01*
X130344360Y-114146895D02*
X130268170Y-114108800D01*
X130268170Y-114108800D02*
X130230074Y-114070704D01*
X126968169Y-113423085D02*
X127006265Y-113384990D01*
X127006265Y-113384990D02*
X127082455Y-113346895D01*
X127082455Y-113346895D02*
X127272931Y-113346895D01*
X127272931Y-113346895D02*
X127349122Y-113384990D01*
X127349122Y-113384990D02*
X127387217Y-113423085D01*
X127387217Y-113423085D02*
X127425312Y-113499276D01*
X127425312Y-113499276D02*
X127425312Y-113575466D01*
X127425312Y-113575466D02*
X127387217Y-113689752D01*
X127387217Y-113689752D02*
X126930074Y-114146895D01*
X126930074Y-114146895D02*
X127425312Y-114146895D01*
X128111027Y-113613561D02*
X128111027Y-114146895D01*
X127920551Y-113308800D02*
X127730074Y-113880228D01*
X127730074Y-113880228D02*
X128225313Y-113880228D01*
X109991466Y-112696115D02*
X109991466Y-111934211D01*
X109553884Y-107491466D02*
X110315789Y-107491466D01*
X109934836Y-107872419D02*
X109934836Y-107110514D01*
D12*
X113870833Y-78679580D02*
X113823214Y-78727200D01*
X113823214Y-78727200D02*
X113680357Y-78774819D01*
X113680357Y-78774819D02*
X113585119Y-78774819D01*
X113585119Y-78774819D02*
X113442262Y-78727200D01*
X113442262Y-78727200D02*
X113347024Y-78631961D01*
X113347024Y-78631961D02*
X113299405Y-78536723D01*
X113299405Y-78536723D02*
X113251786Y-78346247D01*
X113251786Y-78346247D02*
X113251786Y-78203390D01*
X113251786Y-78203390D02*
X113299405Y-78012914D01*
X113299405Y-78012914D02*
X113347024Y-77917676D01*
X113347024Y-77917676D02*
X113442262Y-77822438D01*
X113442262Y-77822438D02*
X113585119Y-77774819D01*
X113585119Y-77774819D02*
X113680357Y-77774819D01*
X113680357Y-77774819D02*
X113823214Y-77822438D01*
X113823214Y-77822438D02*
X113870833Y-77870057D01*
X114347024Y-78774819D02*
X114537500Y-78774819D01*
X114537500Y-78774819D02*
X114632738Y-78727200D01*
X114632738Y-78727200D02*
X114680357Y-78679580D01*
X114680357Y-78679580D02*
X114775595Y-78536723D01*
X114775595Y-78536723D02*
X114823214Y-78346247D01*
X114823214Y-78346247D02*
X114823214Y-77965295D01*
X114823214Y-77965295D02*
X114775595Y-77870057D01*
X114775595Y-77870057D02*
X114727976Y-77822438D01*
X114727976Y-77822438D02*
X114632738Y-77774819D01*
X114632738Y-77774819D02*
X114442262Y-77774819D01*
X114442262Y-77774819D02*
X114347024Y-77822438D01*
X114347024Y-77822438D02*
X114299405Y-77870057D01*
X114299405Y-77870057D02*
X114251786Y-77965295D01*
X114251786Y-77965295D02*
X114251786Y-78203390D01*
X114251786Y-78203390D02*
X114299405Y-78298628D01*
X114299405Y-78298628D02*
X114347024Y-78346247D01*
X114347024Y-78346247D02*
X114442262Y-78393866D01*
X114442262Y-78393866D02*
X114632738Y-78393866D01*
X114632738Y-78393866D02*
X114727976Y-78346247D01*
X114727976Y-78346247D02*
X114775595Y-78298628D01*
X114775595Y-78298628D02*
X114823214Y-78203390D01*
X121424819Y-80766666D02*
X120948628Y-81099999D01*
X121424819Y-81338094D02*
X120424819Y-81338094D01*
X120424819Y-81338094D02*
X120424819Y-80957142D01*
X120424819Y-80957142D02*
X120472438Y-80861904D01*
X120472438Y-80861904D02*
X120520057Y-80814285D01*
X120520057Y-80814285D02*
X120615295Y-80766666D01*
X120615295Y-80766666D02*
X120758152Y-80766666D01*
X120758152Y-80766666D02*
X120853390Y-80814285D01*
X120853390Y-80814285D02*
X120901009Y-80861904D01*
X120901009Y-80861904D02*
X120948628Y-80957142D01*
X120948628Y-80957142D02*
X120948628Y-81338094D01*
X120424819Y-80433332D02*
X120424819Y-79814285D01*
X120424819Y-79814285D02*
X120805771Y-80147618D01*
X120805771Y-80147618D02*
X120805771Y-80004761D01*
X120805771Y-80004761D02*
X120853390Y-79909523D01*
X120853390Y-79909523D02*
X120901009Y-79861904D01*
X120901009Y-79861904D02*
X120996247Y-79814285D01*
X120996247Y-79814285D02*
X121234342Y-79814285D01*
X121234342Y-79814285D02*
X121329580Y-79861904D01*
X121329580Y-79861904D02*
X121377200Y-79909523D01*
X121377200Y-79909523D02*
X121424819Y-80004761D01*
X121424819Y-80004761D02*
X121424819Y-80290475D01*
X121424819Y-80290475D02*
X121377200Y-80385713D01*
X121377200Y-80385713D02*
X121329580Y-80433332D01*
X152173810Y-122454819D02*
X152792857Y-122454819D01*
X152792857Y-122454819D02*
X152459524Y-122835771D01*
X152459524Y-122835771D02*
X152602381Y-122835771D01*
X152602381Y-122835771D02*
X152697619Y-122883390D01*
X152697619Y-122883390D02*
X152745238Y-122931009D01*
X152745238Y-122931009D02*
X152792857Y-123026247D01*
X152792857Y-123026247D02*
X152792857Y-123264342D01*
X152792857Y-123264342D02*
X152745238Y-123359580D01*
X152745238Y-123359580D02*
X152697619Y-123407200D01*
X152697619Y-123407200D02*
X152602381Y-123454819D01*
X152602381Y-123454819D02*
X152316667Y-123454819D01*
X152316667Y-123454819D02*
X152221429Y-123407200D01*
X152221429Y-123407200D02*
X152173810Y-123359580D01*
X153221429Y-123359580D02*
X153269048Y-123407200D01*
X153269048Y-123407200D02*
X153221429Y-123454819D01*
X153221429Y-123454819D02*
X153173810Y-123407200D01*
X153173810Y-123407200D02*
X153221429Y-123359580D01*
X153221429Y-123359580D02*
X153221429Y-123454819D01*
X153602381Y-122454819D02*
X154221428Y-122454819D01*
X154221428Y-122454819D02*
X153888095Y-122835771D01*
X153888095Y-122835771D02*
X154030952Y-122835771D01*
X154030952Y-122835771D02*
X154126190Y-122883390D01*
X154126190Y-122883390D02*
X154173809Y-122931009D01*
X154173809Y-122931009D02*
X154221428Y-123026247D01*
X154221428Y-123026247D02*
X154221428Y-123264342D01*
X154221428Y-123264342D02*
X154173809Y-123359580D01*
X154173809Y-123359580D02*
X154126190Y-123407200D01*
X154126190Y-123407200D02*
X154030952Y-123454819D01*
X154030952Y-123454819D02*
X153745238Y-123454819D01*
X153745238Y-123454819D02*
X153650000Y-123407200D01*
X153650000Y-123407200D02*
X153602381Y-123359580D01*
X154507143Y-122454819D02*
X154840476Y-123454819D01*
X154840476Y-123454819D02*
X155173809Y-122454819D01*
X157357142Y-84859580D02*
X157309523Y-84907200D01*
X157309523Y-84907200D02*
X157166666Y-84954819D01*
X157166666Y-84954819D02*
X157071428Y-84954819D01*
X157071428Y-84954819D02*
X156928571Y-84907200D01*
X156928571Y-84907200D02*
X156833333Y-84811961D01*
X156833333Y-84811961D02*
X156785714Y-84716723D01*
X156785714Y-84716723D02*
X156738095Y-84526247D01*
X156738095Y-84526247D02*
X156738095Y-84383390D01*
X156738095Y-84383390D02*
X156785714Y-84192914D01*
X156785714Y-84192914D02*
X156833333Y-84097676D01*
X156833333Y-84097676D02*
X156928571Y-84002438D01*
X156928571Y-84002438D02*
X157071428Y-83954819D01*
X157071428Y-83954819D02*
X157166666Y-83954819D01*
X157166666Y-83954819D02*
X157309523Y-84002438D01*
X157309523Y-84002438D02*
X157357142Y-84050057D01*
X158309523Y-84954819D02*
X157738095Y-84954819D01*
X158023809Y-84954819D02*
X158023809Y-83954819D01*
X158023809Y-83954819D02*
X157928571Y-84097676D01*
X157928571Y-84097676D02*
X157833333Y-84192914D01*
X157833333Y-84192914D02*
X157738095Y-84240533D01*
X158690476Y-84050057D02*
X158738095Y-84002438D01*
X158738095Y-84002438D02*
X158833333Y-83954819D01*
X158833333Y-83954819D02*
X159071428Y-83954819D01*
X159071428Y-83954819D02*
X159166666Y-84002438D01*
X159166666Y-84002438D02*
X159214285Y-84050057D01*
X159214285Y-84050057D02*
X159261904Y-84145295D01*
X159261904Y-84145295D02*
X159261904Y-84240533D01*
X159261904Y-84240533D02*
X159214285Y-84383390D01*
X159214285Y-84383390D02*
X158642857Y-84954819D01*
X158642857Y-84954819D02*
X159261904Y-84954819D01*
X149666666Y-102681009D02*
X149809523Y-102728628D01*
X149809523Y-102728628D02*
X149857142Y-102776247D01*
X149857142Y-102776247D02*
X149904761Y-102871485D01*
X149904761Y-102871485D02*
X149904761Y-103014342D01*
X149904761Y-103014342D02*
X149857142Y-103109580D01*
X149857142Y-103109580D02*
X149809523Y-103157200D01*
X149809523Y-103157200D02*
X149714285Y-103204819D01*
X149714285Y-103204819D02*
X149333333Y-103204819D01*
X149333333Y-103204819D02*
X149333333Y-102204819D01*
X149333333Y-102204819D02*
X149666666Y-102204819D01*
X149666666Y-102204819D02*
X149761904Y-102252438D01*
X149761904Y-102252438D02*
X149809523Y-102300057D01*
X149809523Y-102300057D02*
X149857142Y-102395295D01*
X149857142Y-102395295D02*
X149857142Y-102490533D01*
X149857142Y-102490533D02*
X149809523Y-102585771D01*
X149809523Y-102585771D02*
X149761904Y-102633390D01*
X149761904Y-102633390D02*
X149666666Y-102681009D01*
X149666666Y-102681009D02*
X149333333Y-102681009D01*
X150761904Y-102538152D02*
X150761904Y-103204819D01*
X150333333Y-102538152D02*
X150333333Y-103061961D01*
X150333333Y-103061961D02*
X150380952Y-103157200D01*
X150380952Y-103157200D02*
X150476190Y-103204819D01*
X150476190Y-103204819D02*
X150619047Y-103204819D01*
X150619047Y-103204819D02*
X150714285Y-103157200D01*
X150714285Y-103157200D02*
X150761904Y-103109580D01*
X151095238Y-102538152D02*
X151476190Y-102538152D01*
X151238095Y-102204819D02*
X151238095Y-103061961D01*
X151238095Y-103061961D02*
X151285714Y-103157200D01*
X151285714Y-103157200D02*
X151380952Y-103204819D01*
X151380952Y-103204819D02*
X151476190Y-103204819D01*
X151666667Y-102538152D02*
X152047619Y-102538152D01*
X151809524Y-102204819D02*
X151809524Y-103061961D01*
X151809524Y-103061961D02*
X151857143Y-103157200D01*
X151857143Y-103157200D02*
X151952381Y-103204819D01*
X151952381Y-103204819D02*
X152047619Y-103204819D01*
X152523810Y-103204819D02*
X152428572Y-103157200D01*
X152428572Y-103157200D02*
X152380953Y-103109580D01*
X152380953Y-103109580D02*
X152333334Y-103014342D01*
X152333334Y-103014342D02*
X152333334Y-102728628D01*
X152333334Y-102728628D02*
X152380953Y-102633390D01*
X152380953Y-102633390D02*
X152428572Y-102585771D01*
X152428572Y-102585771D02*
X152523810Y-102538152D01*
X152523810Y-102538152D02*
X152666667Y-102538152D01*
X152666667Y-102538152D02*
X152761905Y-102585771D01*
X152761905Y-102585771D02*
X152809524Y-102633390D01*
X152809524Y-102633390D02*
X152857143Y-102728628D01*
X152857143Y-102728628D02*
X152857143Y-103014342D01*
X152857143Y-103014342D02*
X152809524Y-103109580D01*
X152809524Y-103109580D02*
X152761905Y-103157200D01*
X152761905Y-103157200D02*
X152666667Y-103204819D01*
X152666667Y-103204819D02*
X152523810Y-103204819D01*
X153285715Y-102538152D02*
X153285715Y-103204819D01*
X153285715Y-102633390D02*
X153333334Y-102585771D01*
X153333334Y-102585771D02*
X153428572Y-102538152D01*
X153428572Y-102538152D02*
X153571429Y-102538152D01*
X153571429Y-102538152D02*
X153666667Y-102585771D01*
X153666667Y-102585771D02*
X153714286Y-102681009D01*
X153714286Y-102681009D02*
X153714286Y-103204819D01*
X154714286Y-103204819D02*
X154142858Y-103204819D01*
X154428572Y-103204819D02*
X154428572Y-102204819D01*
X154428572Y-102204819D02*
X154333334Y-102347676D01*
X154333334Y-102347676D02*
X154238096Y-102442914D01*
X154238096Y-102442914D02*
X154142858Y-102490533D01*
X148809523Y-122324819D02*
X148333333Y-122324819D01*
X148333333Y-122324819D02*
X148285714Y-122801009D01*
X148285714Y-122801009D02*
X148333333Y-122753390D01*
X148333333Y-122753390D02*
X148428571Y-122705771D01*
X148428571Y-122705771D02*
X148666666Y-122705771D01*
X148666666Y-122705771D02*
X148761904Y-122753390D01*
X148761904Y-122753390D02*
X148809523Y-122801009D01*
X148809523Y-122801009D02*
X148857142Y-122896247D01*
X148857142Y-122896247D02*
X148857142Y-123134342D01*
X148857142Y-123134342D02*
X148809523Y-123229580D01*
X148809523Y-123229580D02*
X148761904Y-123277200D01*
X148761904Y-123277200D02*
X148666666Y-123324819D01*
X148666666Y-123324819D02*
X148428571Y-123324819D01*
X148428571Y-123324819D02*
X148333333Y-123277200D01*
X148333333Y-123277200D02*
X148285714Y-123229580D01*
X149142857Y-122324819D02*
X149476190Y-123324819D01*
X149476190Y-123324819D02*
X149809523Y-122324819D01*
X131833333Y-77959580D02*
X131785714Y-78007200D01*
X131785714Y-78007200D02*
X131642857Y-78054819D01*
X131642857Y-78054819D02*
X131547619Y-78054819D01*
X131547619Y-78054819D02*
X131404762Y-78007200D01*
X131404762Y-78007200D02*
X131309524Y-77911961D01*
X131309524Y-77911961D02*
X131261905Y-77816723D01*
X131261905Y-77816723D02*
X131214286Y-77626247D01*
X131214286Y-77626247D02*
X131214286Y-77483390D01*
X131214286Y-77483390D02*
X131261905Y-77292914D01*
X131261905Y-77292914D02*
X131309524Y-77197676D01*
X131309524Y-77197676D02*
X131404762Y-77102438D01*
X131404762Y-77102438D02*
X131547619Y-77054819D01*
X131547619Y-77054819D02*
X131642857Y-77054819D01*
X131642857Y-77054819D02*
X131785714Y-77102438D01*
X131785714Y-77102438D02*
X131833333Y-77150057D01*
X132738095Y-77054819D02*
X132261905Y-77054819D01*
X132261905Y-77054819D02*
X132214286Y-77531009D01*
X132214286Y-77531009D02*
X132261905Y-77483390D01*
X132261905Y-77483390D02*
X132357143Y-77435771D01*
X132357143Y-77435771D02*
X132595238Y-77435771D01*
X132595238Y-77435771D02*
X132690476Y-77483390D01*
X132690476Y-77483390D02*
X132738095Y-77531009D01*
X132738095Y-77531009D02*
X132785714Y-77626247D01*
X132785714Y-77626247D02*
X132785714Y-77864342D01*
X132785714Y-77864342D02*
X132738095Y-77959580D01*
X132738095Y-77959580D02*
X132690476Y-78007200D01*
X132690476Y-78007200D02*
X132595238Y-78054819D01*
X132595238Y-78054819D02*
X132357143Y-78054819D01*
X132357143Y-78054819D02*
X132261905Y-78007200D01*
X132261905Y-78007200D02*
X132214286Y-77959580D01*
X179238095Y-122954819D02*
X179238095Y-121954819D01*
X179238095Y-122431009D02*
X179809523Y-122431009D01*
X179809523Y-122954819D02*
X179809523Y-121954819D01*
X180190476Y-121954819D02*
X180809523Y-121954819D01*
X180809523Y-121954819D02*
X180476190Y-122335771D01*
X180476190Y-122335771D02*
X180619047Y-122335771D01*
X180619047Y-122335771D02*
X180714285Y-122383390D01*
X180714285Y-122383390D02*
X180761904Y-122431009D01*
X180761904Y-122431009D02*
X180809523Y-122526247D01*
X180809523Y-122526247D02*
X180809523Y-122764342D01*
X180809523Y-122764342D02*
X180761904Y-122859580D01*
X180761904Y-122859580D02*
X180714285Y-122907200D01*
X180714285Y-122907200D02*
X180619047Y-122954819D01*
X180619047Y-122954819D02*
X180333333Y-122954819D01*
X180333333Y-122954819D02*
X180238095Y-122907200D01*
X180238095Y-122907200D02*
X180190476Y-122859580D01*
X160704819Y-108966666D02*
X160228628Y-109299999D01*
X160704819Y-109538094D02*
X159704819Y-109538094D01*
X159704819Y-109538094D02*
X159704819Y-109157142D01*
X159704819Y-109157142D02*
X159752438Y-109061904D01*
X159752438Y-109061904D02*
X159800057Y-109014285D01*
X159800057Y-109014285D02*
X159895295Y-108966666D01*
X159895295Y-108966666D02*
X160038152Y-108966666D01*
X160038152Y-108966666D02*
X160133390Y-109014285D01*
X160133390Y-109014285D02*
X160181009Y-109061904D01*
X160181009Y-109061904D02*
X160228628Y-109157142D01*
X160228628Y-109157142D02*
X160228628Y-109538094D01*
X160038152Y-108109523D02*
X160704819Y-108109523D01*
X159657200Y-108347618D02*
X160371485Y-108585713D01*
X160371485Y-108585713D02*
X160371485Y-107966666D01*
X179238095Y-74954819D02*
X179238095Y-73954819D01*
X179238095Y-74431009D02*
X179809523Y-74431009D01*
X179809523Y-74954819D02*
X179809523Y-73954819D01*
X180714285Y-74288152D02*
X180714285Y-74954819D01*
X180476190Y-73907200D02*
X180238095Y-74621485D01*
X180238095Y-74621485D02*
X180857142Y-74621485D01*
X143588095Y-122372438D02*
X143492857Y-122324819D01*
X143492857Y-122324819D02*
X143350000Y-122324819D01*
X143350000Y-122324819D02*
X143207143Y-122372438D01*
X143207143Y-122372438D02*
X143111905Y-122467676D01*
X143111905Y-122467676D02*
X143064286Y-122562914D01*
X143064286Y-122562914D02*
X143016667Y-122753390D01*
X143016667Y-122753390D02*
X143016667Y-122896247D01*
X143016667Y-122896247D02*
X143064286Y-123086723D01*
X143064286Y-123086723D02*
X143111905Y-123181961D01*
X143111905Y-123181961D02*
X143207143Y-123277200D01*
X143207143Y-123277200D02*
X143350000Y-123324819D01*
X143350000Y-123324819D02*
X143445238Y-123324819D01*
X143445238Y-123324819D02*
X143588095Y-123277200D01*
X143588095Y-123277200D02*
X143635714Y-123229580D01*
X143635714Y-123229580D02*
X143635714Y-122896247D01*
X143635714Y-122896247D02*
X143445238Y-122896247D01*
X144064286Y-123324819D02*
X144064286Y-122324819D01*
X144064286Y-122324819D02*
X144635714Y-123324819D01*
X144635714Y-123324819D02*
X144635714Y-122324819D01*
X145111905Y-123324819D02*
X145111905Y-122324819D01*
X145111905Y-122324819D02*
X145350000Y-122324819D01*
X145350000Y-122324819D02*
X145492857Y-122372438D01*
X145492857Y-122372438D02*
X145588095Y-122467676D01*
X145588095Y-122467676D02*
X145635714Y-122562914D01*
X145635714Y-122562914D02*
X145683333Y-122753390D01*
X145683333Y-122753390D02*
X145683333Y-122896247D01*
X145683333Y-122896247D02*
X145635714Y-123086723D01*
X145635714Y-123086723D02*
X145588095Y-123181961D01*
X145588095Y-123181961D02*
X145492857Y-123277200D01*
X145492857Y-123277200D02*
X145350000Y-123324819D01*
X145350000Y-123324819D02*
X145111905Y-123324819D01*
X124329580Y-80766666D02*
X124377200Y-80814285D01*
X124377200Y-80814285D02*
X124424819Y-80957142D01*
X124424819Y-80957142D02*
X124424819Y-81052380D01*
X124424819Y-81052380D02*
X124377200Y-81195237D01*
X124377200Y-81195237D02*
X124281961Y-81290475D01*
X124281961Y-81290475D02*
X124186723Y-81338094D01*
X124186723Y-81338094D02*
X123996247Y-81385713D01*
X123996247Y-81385713D02*
X123853390Y-81385713D01*
X123853390Y-81385713D02*
X123662914Y-81338094D01*
X123662914Y-81338094D02*
X123567676Y-81290475D01*
X123567676Y-81290475D02*
X123472438Y-81195237D01*
X123472438Y-81195237D02*
X123424819Y-81052380D01*
X123424819Y-81052380D02*
X123424819Y-80957142D01*
X123424819Y-80957142D02*
X123472438Y-80814285D01*
X123472438Y-80814285D02*
X123520057Y-80766666D01*
X123424819Y-79909523D02*
X123424819Y-80099999D01*
X123424819Y-80099999D02*
X123472438Y-80195237D01*
X123472438Y-80195237D02*
X123520057Y-80242856D01*
X123520057Y-80242856D02*
X123662914Y-80338094D01*
X123662914Y-80338094D02*
X123853390Y-80385713D01*
X123853390Y-80385713D02*
X124234342Y-80385713D01*
X124234342Y-80385713D02*
X124329580Y-80338094D01*
X124329580Y-80338094D02*
X124377200Y-80290475D01*
X124377200Y-80290475D02*
X124424819Y-80195237D01*
X124424819Y-80195237D02*
X124424819Y-80004761D01*
X124424819Y-80004761D02*
X124377200Y-79909523D01*
X124377200Y-79909523D02*
X124329580Y-79861904D01*
X124329580Y-79861904D02*
X124234342Y-79814285D01*
X124234342Y-79814285D02*
X123996247Y-79814285D01*
X123996247Y-79814285D02*
X123901009Y-79861904D01*
X123901009Y-79861904D02*
X123853390Y-79909523D01*
X123853390Y-79909523D02*
X123805771Y-80004761D01*
X123805771Y-80004761D02*
X123805771Y-80195237D01*
X123805771Y-80195237D02*
X123853390Y-80290475D01*
X123853390Y-80290475D02*
X123901009Y-80338094D01*
X123901009Y-80338094D02*
X123996247Y-80385713D01*
X161359580Y-94142857D02*
X161407200Y-94190476D01*
X161407200Y-94190476D02*
X161454819Y-94333333D01*
X161454819Y-94333333D02*
X161454819Y-94428571D01*
X161454819Y-94428571D02*
X161407200Y-94571428D01*
X161407200Y-94571428D02*
X161311961Y-94666666D01*
X161311961Y-94666666D02*
X161216723Y-94714285D01*
X161216723Y-94714285D02*
X161026247Y-94761904D01*
X161026247Y-94761904D02*
X160883390Y-94761904D01*
X160883390Y-94761904D02*
X160692914Y-94714285D01*
X160692914Y-94714285D02*
X160597676Y-94666666D01*
X160597676Y-94666666D02*
X160502438Y-94571428D01*
X160502438Y-94571428D02*
X160454819Y-94428571D01*
X160454819Y-94428571D02*
X160454819Y-94333333D01*
X160454819Y-94333333D02*
X160502438Y-94190476D01*
X160502438Y-94190476D02*
X160550057Y-94142857D01*
X161454819Y-93190476D02*
X161454819Y-93761904D01*
X161454819Y-93476190D02*
X160454819Y-93476190D01*
X160454819Y-93476190D02*
X160597676Y-93571428D01*
X160597676Y-93571428D02*
X160692914Y-93666666D01*
X160692914Y-93666666D02*
X160740533Y-93761904D01*
X161454819Y-92238095D02*
X161454819Y-92809523D01*
X161454819Y-92523809D02*
X160454819Y-92523809D01*
X160454819Y-92523809D02*
X160597676Y-92619047D01*
X160597676Y-92619047D02*
X160692914Y-92714285D01*
X160692914Y-92714285D02*
X160740533Y-92809523D01*
X139238095Y-72854819D02*
X139238095Y-73664342D01*
X139238095Y-73664342D02*
X139285714Y-73759580D01*
X139285714Y-73759580D02*
X139333333Y-73807200D01*
X139333333Y-73807200D02*
X139428571Y-73854819D01*
X139428571Y-73854819D02*
X139619047Y-73854819D01*
X139619047Y-73854819D02*
X139714285Y-73807200D01*
X139714285Y-73807200D02*
X139761904Y-73759580D01*
X139761904Y-73759580D02*
X139809523Y-73664342D01*
X139809523Y-73664342D02*
X139809523Y-72854819D01*
X140190476Y-72854819D02*
X140809523Y-72854819D01*
X140809523Y-72854819D02*
X140476190Y-73235771D01*
X140476190Y-73235771D02*
X140619047Y-73235771D01*
X140619047Y-73235771D02*
X140714285Y-73283390D01*
X140714285Y-73283390D02*
X140761904Y-73331009D01*
X140761904Y-73331009D02*
X140809523Y-73426247D01*
X140809523Y-73426247D02*
X140809523Y-73664342D01*
X140809523Y-73664342D02*
X140761904Y-73759580D01*
X140761904Y-73759580D02*
X140714285Y-73807200D01*
X140714285Y-73807200D02*
X140619047Y-73854819D01*
X140619047Y-73854819D02*
X140333333Y-73854819D01*
X140333333Y-73854819D02*
X140238095Y-73807200D01*
X140238095Y-73807200D02*
X140190476Y-73759580D01*
X145884819Y-70566666D02*
X145408628Y-70899999D01*
X145884819Y-71138094D02*
X144884819Y-71138094D01*
X144884819Y-71138094D02*
X144884819Y-70757142D01*
X144884819Y-70757142D02*
X144932438Y-70661904D01*
X144932438Y-70661904D02*
X144980057Y-70614285D01*
X144980057Y-70614285D02*
X145075295Y-70566666D01*
X145075295Y-70566666D02*
X145218152Y-70566666D01*
X145218152Y-70566666D02*
X145313390Y-70614285D01*
X145313390Y-70614285D02*
X145361009Y-70661904D01*
X145361009Y-70661904D02*
X145408628Y-70757142D01*
X145408628Y-70757142D02*
X145408628Y-71138094D01*
X144884819Y-69661904D02*
X144884819Y-70138094D01*
X144884819Y-70138094D02*
X145361009Y-70185713D01*
X145361009Y-70185713D02*
X145313390Y-70138094D01*
X145313390Y-70138094D02*
X145265771Y-70042856D01*
X145265771Y-70042856D02*
X145265771Y-69804761D01*
X145265771Y-69804761D02*
X145313390Y-69709523D01*
X145313390Y-69709523D02*
X145361009Y-69661904D01*
X145361009Y-69661904D02*
X145456247Y-69614285D01*
X145456247Y-69614285D02*
X145694342Y-69614285D01*
X145694342Y-69614285D02*
X145789580Y-69661904D01*
X145789580Y-69661904D02*
X145837200Y-69709523D01*
X145837200Y-69709523D02*
X145884819Y-69804761D01*
X145884819Y-69804761D02*
X145884819Y-70042856D01*
X145884819Y-70042856D02*
X145837200Y-70138094D01*
X145837200Y-70138094D02*
X145789580Y-70185713D01*
X141424819Y-70566666D02*
X140948628Y-70899999D01*
X141424819Y-71138094D02*
X140424819Y-71138094D01*
X140424819Y-71138094D02*
X140424819Y-70757142D01*
X140424819Y-70757142D02*
X140472438Y-70661904D01*
X140472438Y-70661904D02*
X140520057Y-70614285D01*
X140520057Y-70614285D02*
X140615295Y-70566666D01*
X140615295Y-70566666D02*
X140758152Y-70566666D01*
X140758152Y-70566666D02*
X140853390Y-70614285D01*
X140853390Y-70614285D02*
X140901009Y-70661904D01*
X140901009Y-70661904D02*
X140948628Y-70757142D01*
X140948628Y-70757142D02*
X140948628Y-71138094D01*
X140424819Y-69709523D02*
X140424819Y-69899999D01*
X140424819Y-69899999D02*
X140472438Y-69995237D01*
X140472438Y-69995237D02*
X140520057Y-70042856D01*
X140520057Y-70042856D02*
X140662914Y-70138094D01*
X140662914Y-70138094D02*
X140853390Y-70185713D01*
X140853390Y-70185713D02*
X141234342Y-70185713D01*
X141234342Y-70185713D02*
X141329580Y-70138094D01*
X141329580Y-70138094D02*
X141377200Y-70090475D01*
X141377200Y-70090475D02*
X141424819Y-69995237D01*
X141424819Y-69995237D02*
X141424819Y-69804761D01*
X141424819Y-69804761D02*
X141377200Y-69709523D01*
X141377200Y-69709523D02*
X141329580Y-69661904D01*
X141329580Y-69661904D02*
X141234342Y-69614285D01*
X141234342Y-69614285D02*
X140996247Y-69614285D01*
X140996247Y-69614285D02*
X140901009Y-69661904D01*
X140901009Y-69661904D02*
X140853390Y-69709523D01*
X140853390Y-69709523D02*
X140805771Y-69804761D01*
X140805771Y-69804761D02*
X140805771Y-69995237D01*
X140805771Y-69995237D02*
X140853390Y-70090475D01*
X140853390Y-70090475D02*
X140901009Y-70138094D01*
X140901009Y-70138094D02*
X140996247Y-70185713D01*
X113238095Y-74954819D02*
X113238095Y-73954819D01*
X113238095Y-74431009D02*
X113809523Y-74431009D01*
X113809523Y-74954819D02*
X113809523Y-73954819D01*
X114809523Y-74954819D02*
X114238095Y-74954819D01*
X114523809Y-74954819D02*
X114523809Y-73954819D01*
X114523809Y-73954819D02*
X114428571Y-74097676D01*
X114428571Y-74097676D02*
X114333333Y-74192914D01*
X114333333Y-74192914D02*
X114238095Y-74240533D01*
X128729580Y-80566666D02*
X128777200Y-80614285D01*
X128777200Y-80614285D02*
X128824819Y-80757142D01*
X128824819Y-80757142D02*
X128824819Y-80852380D01*
X128824819Y-80852380D02*
X128777200Y-80995237D01*
X128777200Y-80995237D02*
X128681961Y-81090475D01*
X128681961Y-81090475D02*
X128586723Y-81138094D01*
X128586723Y-81138094D02*
X128396247Y-81185713D01*
X128396247Y-81185713D02*
X128253390Y-81185713D01*
X128253390Y-81185713D02*
X128062914Y-81138094D01*
X128062914Y-81138094D02*
X127967676Y-81090475D01*
X127967676Y-81090475D02*
X127872438Y-80995237D01*
X127872438Y-80995237D02*
X127824819Y-80852380D01*
X127824819Y-80852380D02*
X127824819Y-80757142D01*
X127824819Y-80757142D02*
X127872438Y-80614285D01*
X127872438Y-80614285D02*
X127920057Y-80566666D01*
X127824819Y-80233332D02*
X127824819Y-79566666D01*
X127824819Y-79566666D02*
X128824819Y-79995237D01*
X157357142Y-87109580D02*
X157309523Y-87157200D01*
X157309523Y-87157200D02*
X157166666Y-87204819D01*
X157166666Y-87204819D02*
X157071428Y-87204819D01*
X157071428Y-87204819D02*
X156928571Y-87157200D01*
X156928571Y-87157200D02*
X156833333Y-87061961D01*
X156833333Y-87061961D02*
X156785714Y-86966723D01*
X156785714Y-86966723D02*
X156738095Y-86776247D01*
X156738095Y-86776247D02*
X156738095Y-86633390D01*
X156738095Y-86633390D02*
X156785714Y-86442914D01*
X156785714Y-86442914D02*
X156833333Y-86347676D01*
X156833333Y-86347676D02*
X156928571Y-86252438D01*
X156928571Y-86252438D02*
X157071428Y-86204819D01*
X157071428Y-86204819D02*
X157166666Y-86204819D01*
X157166666Y-86204819D02*
X157309523Y-86252438D01*
X157309523Y-86252438D02*
X157357142Y-86300057D01*
X158309523Y-87204819D02*
X157738095Y-87204819D01*
X158023809Y-87204819D02*
X158023809Y-86204819D01*
X158023809Y-86204819D02*
X157928571Y-86347676D01*
X157928571Y-86347676D02*
X157833333Y-86442914D01*
X157833333Y-86442914D02*
X157738095Y-86490533D01*
X158928571Y-86204819D02*
X159023809Y-86204819D01*
X159023809Y-86204819D02*
X159119047Y-86252438D01*
X159119047Y-86252438D02*
X159166666Y-86300057D01*
X159166666Y-86300057D02*
X159214285Y-86395295D01*
X159214285Y-86395295D02*
X159261904Y-86585771D01*
X159261904Y-86585771D02*
X159261904Y-86823866D01*
X159261904Y-86823866D02*
X159214285Y-87014342D01*
X159214285Y-87014342D02*
X159166666Y-87109580D01*
X159166666Y-87109580D02*
X159119047Y-87157200D01*
X159119047Y-87157200D02*
X159023809Y-87204819D01*
X159023809Y-87204819D02*
X158928571Y-87204819D01*
X158928571Y-87204819D02*
X158833333Y-87157200D01*
X158833333Y-87157200D02*
X158785714Y-87109580D01*
X158785714Y-87109580D02*
X158738095Y-87014342D01*
X158738095Y-87014342D02*
X158690476Y-86823866D01*
X158690476Y-86823866D02*
X158690476Y-86585771D01*
X158690476Y-86585771D02*
X158738095Y-86395295D01*
X158738095Y-86395295D02*
X158785714Y-86300057D01*
X158785714Y-86300057D02*
X158833333Y-86252438D01*
X158833333Y-86252438D02*
X158928571Y-86204819D01*
X122409819Y-115756904D02*
X121409819Y-115756904D01*
X121409819Y-115756904D02*
X122124104Y-115423571D01*
X122124104Y-115423571D02*
X121409819Y-115090238D01*
X121409819Y-115090238D02*
X122409819Y-115090238D01*
X122409819Y-114185476D02*
X121886009Y-114185476D01*
X121886009Y-114185476D02*
X121790771Y-114233095D01*
X121790771Y-114233095D02*
X121743152Y-114328333D01*
X121743152Y-114328333D02*
X121743152Y-114518809D01*
X121743152Y-114518809D02*
X121790771Y-114614047D01*
X122362200Y-114185476D02*
X122409819Y-114280714D01*
X122409819Y-114280714D02*
X122409819Y-114518809D01*
X122409819Y-114518809D02*
X122362200Y-114614047D01*
X122362200Y-114614047D02*
X122266961Y-114661666D01*
X122266961Y-114661666D02*
X122171723Y-114661666D01*
X122171723Y-114661666D02*
X122076485Y-114614047D01*
X122076485Y-114614047D02*
X122028866Y-114518809D01*
X122028866Y-114518809D02*
X122028866Y-114280714D01*
X122028866Y-114280714D02*
X121981247Y-114185476D01*
X122409819Y-113709285D02*
X121743152Y-113709285D01*
X121409819Y-113709285D02*
X121457438Y-113756904D01*
X121457438Y-113756904D02*
X121505057Y-113709285D01*
X121505057Y-113709285D02*
X121457438Y-113661666D01*
X121457438Y-113661666D02*
X121409819Y-113709285D01*
X121409819Y-113709285D02*
X121505057Y-113709285D01*
X121743152Y-113233095D02*
X122409819Y-113233095D01*
X121838390Y-113233095D02*
X121790771Y-113185476D01*
X121790771Y-113185476D02*
X121743152Y-113090238D01*
X121743152Y-113090238D02*
X121743152Y-112947381D01*
X121743152Y-112947381D02*
X121790771Y-112852143D01*
X121790771Y-112852143D02*
X121886009Y-112804524D01*
X121886009Y-112804524D02*
X122409819Y-112804524D01*
X122028866Y-112328333D02*
X122028866Y-111566429D01*
X121409819Y-111233095D02*
X121409819Y-110661667D01*
X122409819Y-110947381D02*
X121409819Y-110947381D01*
X122362200Y-109947381D02*
X122409819Y-110042619D01*
X122409819Y-110042619D02*
X122409819Y-110233095D01*
X122409819Y-110233095D02*
X122362200Y-110328333D01*
X122362200Y-110328333D02*
X122266961Y-110375952D01*
X122266961Y-110375952D02*
X121886009Y-110375952D01*
X121886009Y-110375952D02*
X121790771Y-110328333D01*
X121790771Y-110328333D02*
X121743152Y-110233095D01*
X121743152Y-110233095D02*
X121743152Y-110042619D01*
X121743152Y-110042619D02*
X121790771Y-109947381D01*
X121790771Y-109947381D02*
X121886009Y-109899762D01*
X121886009Y-109899762D02*
X121981247Y-109899762D01*
X121981247Y-109899762D02*
X122076485Y-110375952D01*
X122409819Y-109471190D02*
X121743152Y-109471190D01*
X121933628Y-109471190D02*
X121838390Y-109423571D01*
X121838390Y-109423571D02*
X121790771Y-109375952D01*
X121790771Y-109375952D02*
X121743152Y-109280714D01*
X121743152Y-109280714D02*
X121743152Y-109185476D01*
X122409819Y-108852142D02*
X121743152Y-108852142D01*
X121838390Y-108852142D02*
X121790771Y-108804523D01*
X121790771Y-108804523D02*
X121743152Y-108709285D01*
X121743152Y-108709285D02*
X121743152Y-108566428D01*
X121743152Y-108566428D02*
X121790771Y-108471190D01*
X121790771Y-108471190D02*
X121886009Y-108423571D01*
X121886009Y-108423571D02*
X122409819Y-108423571D01*
X121886009Y-108423571D02*
X121790771Y-108375952D01*
X121790771Y-108375952D02*
X121743152Y-108280714D01*
X121743152Y-108280714D02*
X121743152Y-108137857D01*
X121743152Y-108137857D02*
X121790771Y-108042618D01*
X121790771Y-108042618D02*
X121886009Y-107994999D01*
X121886009Y-107994999D02*
X122409819Y-107994999D01*
X122409819Y-107518809D02*
X121743152Y-107518809D01*
X121409819Y-107518809D02*
X121457438Y-107566428D01*
X121457438Y-107566428D02*
X121505057Y-107518809D01*
X121505057Y-107518809D02*
X121457438Y-107471190D01*
X121457438Y-107471190D02*
X121409819Y-107518809D01*
X121409819Y-107518809D02*
X121505057Y-107518809D01*
X121743152Y-107042619D02*
X122409819Y-107042619D01*
X121838390Y-107042619D02*
X121790771Y-106995000D01*
X121790771Y-106995000D02*
X121743152Y-106899762D01*
X121743152Y-106899762D02*
X121743152Y-106756905D01*
X121743152Y-106756905D02*
X121790771Y-106661667D01*
X121790771Y-106661667D02*
X121886009Y-106614048D01*
X121886009Y-106614048D02*
X122409819Y-106614048D01*
X122409819Y-105709286D02*
X121886009Y-105709286D01*
X121886009Y-105709286D02*
X121790771Y-105756905D01*
X121790771Y-105756905D02*
X121743152Y-105852143D01*
X121743152Y-105852143D02*
X121743152Y-106042619D01*
X121743152Y-106042619D02*
X121790771Y-106137857D01*
X122362200Y-105709286D02*
X122409819Y-105804524D01*
X122409819Y-105804524D02*
X122409819Y-106042619D01*
X122409819Y-106042619D02*
X122362200Y-106137857D01*
X122362200Y-106137857D02*
X122266961Y-106185476D01*
X122266961Y-106185476D02*
X122171723Y-106185476D01*
X122171723Y-106185476D02*
X122076485Y-106137857D01*
X122076485Y-106137857D02*
X122028866Y-106042619D01*
X122028866Y-106042619D02*
X122028866Y-105804524D01*
X122028866Y-105804524D02*
X121981247Y-105709286D01*
X122409819Y-105090238D02*
X122362200Y-105185476D01*
X122362200Y-105185476D02*
X122266961Y-105233095D01*
X122266961Y-105233095D02*
X121409819Y-105233095D01*
X122409819Y-104185476D02*
X122409819Y-104756904D01*
X122409819Y-104471190D02*
X121409819Y-104471190D01*
X121409819Y-104471190D02*
X121552676Y-104566428D01*
X121552676Y-104566428D02*
X121647914Y-104661666D01*
X121647914Y-104661666D02*
X121695533Y-104756904D01*
X137633333Y-77254819D02*
X137300000Y-76778628D01*
X137061905Y-77254819D02*
X137061905Y-76254819D01*
X137061905Y-76254819D02*
X137442857Y-76254819D01*
X137442857Y-76254819D02*
X137538095Y-76302438D01*
X137538095Y-76302438D02*
X137585714Y-76350057D01*
X137585714Y-76350057D02*
X137633333Y-76445295D01*
X137633333Y-76445295D02*
X137633333Y-76588152D01*
X137633333Y-76588152D02*
X137585714Y-76683390D01*
X137585714Y-76683390D02*
X137538095Y-76731009D01*
X137538095Y-76731009D02*
X137442857Y-76778628D01*
X137442857Y-76778628D02*
X137061905Y-76778628D01*
X138014286Y-76350057D02*
X138061905Y-76302438D01*
X138061905Y-76302438D02*
X138157143Y-76254819D01*
X138157143Y-76254819D02*
X138395238Y-76254819D01*
X138395238Y-76254819D02*
X138490476Y-76302438D01*
X138490476Y-76302438D02*
X138538095Y-76350057D01*
X138538095Y-76350057D02*
X138585714Y-76445295D01*
X138585714Y-76445295D02*
X138585714Y-76540533D01*
X138585714Y-76540533D02*
X138538095Y-76683390D01*
X138538095Y-76683390D02*
X137966667Y-77254819D01*
X137966667Y-77254819D02*
X138585714Y-77254819D01*
X130833333Y-74929580D02*
X130785714Y-74977200D01*
X130785714Y-74977200D02*
X130642857Y-75024819D01*
X130642857Y-75024819D02*
X130547619Y-75024819D01*
X130547619Y-75024819D02*
X130404762Y-74977200D01*
X130404762Y-74977200D02*
X130309524Y-74881961D01*
X130309524Y-74881961D02*
X130261905Y-74786723D01*
X130261905Y-74786723D02*
X130214286Y-74596247D01*
X130214286Y-74596247D02*
X130214286Y-74453390D01*
X130214286Y-74453390D02*
X130261905Y-74262914D01*
X130261905Y-74262914D02*
X130309524Y-74167676D01*
X130309524Y-74167676D02*
X130404762Y-74072438D01*
X130404762Y-74072438D02*
X130547619Y-74024819D01*
X130547619Y-74024819D02*
X130642857Y-74024819D01*
X130642857Y-74024819D02*
X130785714Y-74072438D01*
X130785714Y-74072438D02*
X130833333Y-74120057D01*
X131214286Y-74120057D02*
X131261905Y-74072438D01*
X131261905Y-74072438D02*
X131357143Y-74024819D01*
X131357143Y-74024819D02*
X131595238Y-74024819D01*
X131595238Y-74024819D02*
X131690476Y-74072438D01*
X131690476Y-74072438D02*
X131738095Y-74120057D01*
X131738095Y-74120057D02*
X131785714Y-74215295D01*
X131785714Y-74215295D02*
X131785714Y-74310533D01*
X131785714Y-74310533D02*
X131738095Y-74453390D01*
X131738095Y-74453390D02*
X131166667Y-75024819D01*
X131166667Y-75024819D02*
X131785714Y-75024819D01*
X131728095Y-116067200D02*
X131870952Y-116114819D01*
X131870952Y-116114819D02*
X132109047Y-116114819D01*
X132109047Y-116114819D02*
X132204285Y-116067200D01*
X132204285Y-116067200D02*
X132251904Y-116019580D01*
X132251904Y-116019580D02*
X132299523Y-115924342D01*
X132299523Y-115924342D02*
X132299523Y-115829104D01*
X132299523Y-115829104D02*
X132251904Y-115733866D01*
X132251904Y-115733866D02*
X132204285Y-115686247D01*
X132204285Y-115686247D02*
X132109047Y-115638628D01*
X132109047Y-115638628D02*
X131918571Y-115591009D01*
X131918571Y-115591009D02*
X131823333Y-115543390D01*
X131823333Y-115543390D02*
X131775714Y-115495771D01*
X131775714Y-115495771D02*
X131728095Y-115400533D01*
X131728095Y-115400533D02*
X131728095Y-115305295D01*
X131728095Y-115305295D02*
X131775714Y-115210057D01*
X131775714Y-115210057D02*
X131823333Y-115162438D01*
X131823333Y-115162438D02*
X131918571Y-115114819D01*
X131918571Y-115114819D02*
X132156666Y-115114819D01*
X132156666Y-115114819D02*
X132299523Y-115162438D01*
X133156666Y-115448152D02*
X133156666Y-116114819D01*
X132918571Y-115067200D02*
X132680476Y-115781485D01*
X132680476Y-115781485D02*
X133299523Y-115781485D01*
D13*
X137419048Y-79959695D02*
X137419048Y-79159695D01*
X138257143Y-79883504D02*
X138219047Y-79921600D01*
X138219047Y-79921600D02*
X138104762Y-79959695D01*
X138104762Y-79959695D02*
X138028571Y-79959695D01*
X138028571Y-79959695D02*
X137914285Y-79921600D01*
X137914285Y-79921600D02*
X137838095Y-79845409D01*
X137838095Y-79845409D02*
X137800000Y-79769219D01*
X137800000Y-79769219D02*
X137761904Y-79616838D01*
X137761904Y-79616838D02*
X137761904Y-79502552D01*
X137761904Y-79502552D02*
X137800000Y-79350171D01*
X137800000Y-79350171D02*
X137838095Y-79273980D01*
X137838095Y-79273980D02*
X137914285Y-79197790D01*
X137914285Y-79197790D02*
X138028571Y-79159695D01*
X138028571Y-79159695D02*
X138104762Y-79159695D01*
X138104762Y-79159695D02*
X138219047Y-79197790D01*
X138219047Y-79197790D02*
X138257143Y-79235885D01*
X138561904Y-79235885D02*
X138600000Y-79197790D01*
X138600000Y-79197790D02*
X138676190Y-79159695D01*
X138676190Y-79159695D02*
X138866666Y-79159695D01*
X138866666Y-79159695D02*
X138942857Y-79197790D01*
X138942857Y-79197790D02*
X138980952Y-79235885D01*
X138980952Y-79235885D02*
X139019047Y-79312076D01*
X139019047Y-79312076D02*
X139019047Y-79388266D01*
X139019047Y-79388266D02*
X138980952Y-79502552D01*
X138980952Y-79502552D02*
X138523809Y-79959695D01*
X138523809Y-79959695D02*
X139019047Y-79959695D01*
D12*
X113238095Y-122954819D02*
X113238095Y-121954819D01*
X113238095Y-122431009D02*
X113809523Y-122431009D01*
X113809523Y-122954819D02*
X113809523Y-121954819D01*
X114238095Y-122050057D02*
X114285714Y-122002438D01*
X114285714Y-122002438D02*
X114380952Y-121954819D01*
X114380952Y-121954819D02*
X114619047Y-121954819D01*
X114619047Y-121954819D02*
X114714285Y-122002438D01*
X114714285Y-122002438D02*
X114761904Y-122050057D01*
X114761904Y-122050057D02*
X114809523Y-122145295D01*
X114809523Y-122145295D02*
X114809523Y-122240533D01*
X114809523Y-122240533D02*
X114761904Y-122383390D01*
X114761904Y-122383390D02*
X114190476Y-122954819D01*
X114190476Y-122954819D02*
X114809523Y-122954819D01*
X154624285Y-94685980D02*
X155100475Y-94685980D01*
X155100475Y-94685980D02*
X155148094Y-94209790D01*
X155148094Y-94209790D02*
X155100475Y-94257409D01*
X155100475Y-94257409D02*
X155005237Y-94305028D01*
X155005237Y-94305028D02*
X154767142Y-94305028D01*
X154767142Y-94305028D02*
X154671904Y-94257409D01*
X154671904Y-94257409D02*
X154624285Y-94209790D01*
X154624285Y-94209790D02*
X154576666Y-94114552D01*
X154576666Y-94114552D02*
X154576666Y-93876457D01*
X154576666Y-93876457D02*
X154624285Y-93781219D01*
X154624285Y-93781219D02*
X154671904Y-93733600D01*
X154671904Y-93733600D02*
X154767142Y-93685980D01*
X154767142Y-93685980D02*
X155005237Y-93685980D01*
X155005237Y-93685980D02*
X155100475Y-93733600D01*
X155100475Y-93733600D02*
X155148094Y-93781219D01*
X153957618Y-94685980D02*
X153862380Y-94685980D01*
X153862380Y-94685980D02*
X153767142Y-94638361D01*
X153767142Y-94638361D02*
X153719523Y-94590742D01*
X153719523Y-94590742D02*
X153671904Y-94495504D01*
X153671904Y-94495504D02*
X153624285Y-94305028D01*
X153624285Y-94305028D02*
X153624285Y-94066933D01*
X153624285Y-94066933D02*
X153671904Y-93876457D01*
X153671904Y-93876457D02*
X153719523Y-93781219D01*
X153719523Y-93781219D02*
X153767142Y-93733600D01*
X153767142Y-93733600D02*
X153862380Y-93685980D01*
X153862380Y-93685980D02*
X153957618Y-93685980D01*
X153957618Y-93685980D02*
X154052856Y-93733600D01*
X154052856Y-93733600D02*
X154100475Y-93781219D01*
X154100475Y-93781219D02*
X154148094Y-93876457D01*
X154148094Y-93876457D02*
X154195713Y-94066933D01*
X154195713Y-94066933D02*
X154195713Y-94305028D01*
X154195713Y-94305028D02*
X154148094Y-94495504D01*
X154148094Y-94495504D02*
X154100475Y-94590742D01*
X154100475Y-94590742D02*
X154052856Y-94638361D01*
X154052856Y-94638361D02*
X153957618Y-94685980D01*
X152624285Y-93685980D02*
X152957618Y-94162171D01*
X153195713Y-93685980D02*
X153195713Y-94685980D01*
X153195713Y-94685980D02*
X152814761Y-94685980D01*
X152814761Y-94685980D02*
X152719523Y-94638361D01*
X152719523Y-94638361D02*
X152671904Y-94590742D01*
X152671904Y-94590742D02*
X152624285Y-94495504D01*
X152624285Y-94495504D02*
X152624285Y-94352647D01*
X152624285Y-94352647D02*
X152671904Y-94257409D01*
X152671904Y-94257409D02*
X152719523Y-94209790D01*
X152719523Y-94209790D02*
X152814761Y-94162171D01*
X152814761Y-94162171D02*
X153195713Y-94162171D01*
X151671904Y-93685980D02*
X152243332Y-93685980D01*
X151957618Y-93685980D02*
X151957618Y-94685980D01*
X151957618Y-94685980D02*
X152052856Y-94543123D01*
X152052856Y-94543123D02*
X152148094Y-94447885D01*
X152148094Y-94447885D02*
X152243332Y-94400266D01*
X156966000Y-89595619D02*
X156966000Y-89833714D01*
X156727905Y-89738476D02*
X156966000Y-89833714D01*
X156966000Y-89833714D02*
X157204095Y-89738476D01*
X156823143Y-90024190D02*
X156966000Y-89833714D01*
X156966000Y-89833714D02*
X157108857Y-90024190D01*
X156965999Y-90685980D02*
X156965999Y-90447885D01*
X157204094Y-90543123D02*
X156965999Y-90447885D01*
X156965999Y-90447885D02*
X156727904Y-90543123D01*
X157108856Y-90257409D02*
X156965999Y-90447885D01*
X156965999Y-90447885D02*
X156823142Y-90257409D01*
X147279580Y-90966666D02*
X147327200Y-91014285D01*
X147327200Y-91014285D02*
X147374819Y-91157142D01*
X147374819Y-91157142D02*
X147374819Y-91252380D01*
X147374819Y-91252380D02*
X147327200Y-91395237D01*
X147327200Y-91395237D02*
X147231961Y-91490475D01*
X147231961Y-91490475D02*
X147136723Y-91538094D01*
X147136723Y-91538094D02*
X146946247Y-91585713D01*
X146946247Y-91585713D02*
X146803390Y-91585713D01*
X146803390Y-91585713D02*
X146612914Y-91538094D01*
X146612914Y-91538094D02*
X146517676Y-91490475D01*
X146517676Y-91490475D02*
X146422438Y-91395237D01*
X146422438Y-91395237D02*
X146374819Y-91252380D01*
X146374819Y-91252380D02*
X146374819Y-91157142D01*
X146374819Y-91157142D02*
X146422438Y-91014285D01*
X146422438Y-91014285D02*
X146470057Y-90966666D01*
X147374819Y-90014285D02*
X147374819Y-90585713D01*
X147374819Y-90299999D02*
X146374819Y-90299999D01*
X146374819Y-90299999D02*
X146517676Y-90395237D01*
X146517676Y-90395237D02*
X146612914Y-90490475D01*
X146612914Y-90490475D02*
X146660533Y-90585713D01*
X160789580Y-79780357D02*
X160837200Y-79827976D01*
X160837200Y-79827976D02*
X160884819Y-79970833D01*
X160884819Y-79970833D02*
X160884819Y-80066071D01*
X160884819Y-80066071D02*
X160837200Y-80208928D01*
X160837200Y-80208928D02*
X160741961Y-80304166D01*
X160741961Y-80304166D02*
X160646723Y-80351785D01*
X160646723Y-80351785D02*
X160456247Y-80399404D01*
X160456247Y-80399404D02*
X160313390Y-80399404D01*
X160313390Y-80399404D02*
X160122914Y-80351785D01*
X160122914Y-80351785D02*
X160027676Y-80304166D01*
X160027676Y-80304166D02*
X159932438Y-80208928D01*
X159932438Y-80208928D02*
X159884819Y-80066071D01*
X159884819Y-80066071D02*
X159884819Y-79970833D01*
X159884819Y-79970833D02*
X159932438Y-79827976D01*
X159932438Y-79827976D02*
X159980057Y-79780357D01*
X160884819Y-78827976D02*
X160884819Y-79399404D01*
X160884819Y-79113690D02*
X159884819Y-79113690D01*
X159884819Y-79113690D02*
X160027676Y-79208928D01*
X160027676Y-79208928D02*
X160122914Y-79304166D01*
X160122914Y-79304166D02*
X160170533Y-79399404D01*
X159884819Y-78494642D02*
X159884819Y-77875595D01*
X159884819Y-77875595D02*
X160265771Y-78208928D01*
X160265771Y-78208928D02*
X160265771Y-78066071D01*
X160265771Y-78066071D02*
X160313390Y-77970833D01*
X160313390Y-77970833D02*
X160361009Y-77923214D01*
X160361009Y-77923214D02*
X160456247Y-77875595D01*
X160456247Y-77875595D02*
X160694342Y-77875595D01*
X160694342Y-77875595D02*
X160789580Y-77923214D01*
X160789580Y-77923214D02*
X160837200Y-77970833D01*
X160837200Y-77970833D02*
X160884819Y-78066071D01*
X160884819Y-78066071D02*
X160884819Y-78351785D01*
X160884819Y-78351785D02*
X160837200Y-78447023D01*
X160837200Y-78447023D02*
X160789580Y-78494642D01*
X150928286Y-75454819D02*
X151547333Y-75454819D01*
X151547333Y-75454819D02*
X151214000Y-75835771D01*
X151214000Y-75835771D02*
X151356857Y-75835771D01*
X151356857Y-75835771D02*
X151452095Y-75883390D01*
X151452095Y-75883390D02*
X151499714Y-75931009D01*
X151499714Y-75931009D02*
X151547333Y-76026247D01*
X151547333Y-76026247D02*
X151547333Y-76264342D01*
X151547333Y-76264342D02*
X151499714Y-76359580D01*
X151499714Y-76359580D02*
X151452095Y-76407200D01*
X151452095Y-76407200D02*
X151356857Y-76454819D01*
X151356857Y-76454819D02*
X151071143Y-76454819D01*
X151071143Y-76454819D02*
X150975905Y-76407200D01*
X150975905Y-76407200D02*
X150928286Y-76359580D01*
X151880667Y-75454819D02*
X152499714Y-75454819D01*
X152499714Y-75454819D02*
X152166381Y-75835771D01*
X152166381Y-75835771D02*
X152309238Y-75835771D01*
X152309238Y-75835771D02*
X152404476Y-75883390D01*
X152404476Y-75883390D02*
X152452095Y-75931009D01*
X152452095Y-75931009D02*
X152499714Y-76026247D01*
X152499714Y-76026247D02*
X152499714Y-76264342D01*
X152499714Y-76264342D02*
X152452095Y-76359580D01*
X152452095Y-76359580D02*
X152404476Y-76407200D01*
X152404476Y-76407200D02*
X152309238Y-76454819D01*
X152309238Y-76454819D02*
X152023524Y-76454819D01*
X152023524Y-76454819D02*
X151928286Y-76407200D01*
X151928286Y-76407200D02*
X151880667Y-76359580D01*
X153499714Y-76454819D02*
X153166381Y-75978628D01*
X152928286Y-76454819D02*
X152928286Y-75454819D01*
X152928286Y-75454819D02*
X153309238Y-75454819D01*
X153309238Y-75454819D02*
X153404476Y-75502438D01*
X153404476Y-75502438D02*
X153452095Y-75550057D01*
X153452095Y-75550057D02*
X153499714Y-75645295D01*
X153499714Y-75645295D02*
X153499714Y-75788152D01*
X153499714Y-75788152D02*
X153452095Y-75883390D01*
X153452095Y-75883390D02*
X153404476Y-75931009D01*
X153404476Y-75931009D02*
X153309238Y-75978628D01*
X153309238Y-75978628D02*
X152928286Y-75978628D01*
X154452095Y-76454819D02*
X153880667Y-76454819D01*
X154166381Y-76454819D02*
X154166381Y-75454819D01*
X154166381Y-75454819D02*
X154071143Y-75597676D01*
X154071143Y-75597676D02*
X153975905Y-75692914D01*
X153975905Y-75692914D02*
X153880667Y-75740533D01*
X149140000Y-80214819D02*
X149140000Y-80452914D01*
X148901905Y-80357676D02*
X149140000Y-80452914D01*
X149140000Y-80452914D02*
X149378095Y-80357676D01*
X148997143Y-80643390D02*
X149140000Y-80452914D01*
X149140000Y-80452914D02*
X149282857Y-80643390D01*
X149158000Y-79454819D02*
X149158000Y-79692914D01*
X148919905Y-79597676D02*
X149158000Y-79692914D01*
X149158000Y-79692914D02*
X149396095Y-79597676D01*
X149015143Y-79883390D02*
X149158000Y-79692914D01*
X149158000Y-79692914D02*
X149300857Y-79883390D01*
X136378095Y-116067200D02*
X136520952Y-116114819D01*
X136520952Y-116114819D02*
X136759047Y-116114819D01*
X136759047Y-116114819D02*
X136854285Y-116067200D01*
X136854285Y-116067200D02*
X136901904Y-116019580D01*
X136901904Y-116019580D02*
X136949523Y-115924342D01*
X136949523Y-115924342D02*
X136949523Y-115829104D01*
X136949523Y-115829104D02*
X136901904Y-115733866D01*
X136901904Y-115733866D02*
X136854285Y-115686247D01*
X136854285Y-115686247D02*
X136759047Y-115638628D01*
X136759047Y-115638628D02*
X136568571Y-115591009D01*
X136568571Y-115591009D02*
X136473333Y-115543390D01*
X136473333Y-115543390D02*
X136425714Y-115495771D01*
X136425714Y-115495771D02*
X136378095Y-115400533D01*
X136378095Y-115400533D02*
X136378095Y-115305295D01*
X136378095Y-115305295D02*
X136425714Y-115210057D01*
X136425714Y-115210057D02*
X136473333Y-115162438D01*
X136473333Y-115162438D02*
X136568571Y-115114819D01*
X136568571Y-115114819D02*
X136806666Y-115114819D01*
X136806666Y-115114819D02*
X136949523Y-115162438D01*
X137854285Y-115114819D02*
X137378095Y-115114819D01*
X137378095Y-115114819D02*
X137330476Y-115591009D01*
X137330476Y-115591009D02*
X137378095Y-115543390D01*
X137378095Y-115543390D02*
X137473333Y-115495771D01*
X137473333Y-115495771D02*
X137711428Y-115495771D01*
X137711428Y-115495771D02*
X137806666Y-115543390D01*
X137806666Y-115543390D02*
X137854285Y-115591009D01*
X137854285Y-115591009D02*
X137901904Y-115686247D01*
X137901904Y-115686247D02*
X137901904Y-115924342D01*
X137901904Y-115924342D02*
X137854285Y-116019580D01*
X137854285Y-116019580D02*
X137806666Y-116067200D01*
X137806666Y-116067200D02*
X137711428Y-116114819D01*
X137711428Y-116114819D02*
X137473333Y-116114819D01*
X137473333Y-116114819D02*
X137378095Y-116067200D01*
X137378095Y-116067200D02*
X137330476Y-116019580D01*
X132723333Y-69839580D02*
X132675714Y-69887200D01*
X132675714Y-69887200D02*
X132532857Y-69934819D01*
X132532857Y-69934819D02*
X132437619Y-69934819D01*
X132437619Y-69934819D02*
X132294762Y-69887200D01*
X132294762Y-69887200D02*
X132199524Y-69791961D01*
X132199524Y-69791961D02*
X132151905Y-69696723D01*
X132151905Y-69696723D02*
X132104286Y-69506247D01*
X132104286Y-69506247D02*
X132104286Y-69363390D01*
X132104286Y-69363390D02*
X132151905Y-69172914D01*
X132151905Y-69172914D02*
X132199524Y-69077676D01*
X132199524Y-69077676D02*
X132294762Y-68982438D01*
X132294762Y-68982438D02*
X132437619Y-68934819D01*
X132437619Y-68934819D02*
X132532857Y-68934819D01*
X132532857Y-68934819D02*
X132675714Y-68982438D01*
X132675714Y-68982438D02*
X132723333Y-69030057D01*
X133580476Y-69268152D02*
X133580476Y-69934819D01*
X133342381Y-68887200D02*
X133104286Y-69601485D01*
X133104286Y-69601485D02*
X133723333Y-69601485D01*
X137233333Y-83054819D02*
X136900000Y-82578628D01*
X136661905Y-83054819D02*
X136661905Y-82054819D01*
X136661905Y-82054819D02*
X137042857Y-82054819D01*
X137042857Y-82054819D02*
X137138095Y-82102438D01*
X137138095Y-82102438D02*
X137185714Y-82150057D01*
X137185714Y-82150057D02*
X137233333Y-82245295D01*
X137233333Y-82245295D02*
X137233333Y-82388152D01*
X137233333Y-82388152D02*
X137185714Y-82483390D01*
X137185714Y-82483390D02*
X137138095Y-82531009D01*
X137138095Y-82531009D02*
X137042857Y-82578628D01*
X137042857Y-82578628D02*
X136661905Y-82578628D01*
X138185714Y-83054819D02*
X137614286Y-83054819D01*
X137900000Y-83054819D02*
X137900000Y-82054819D01*
X137900000Y-82054819D02*
X137804762Y-82197676D01*
X137804762Y-82197676D02*
X137709524Y-82292914D01*
X137709524Y-82292914D02*
X137614286Y-82340533D01*
X124796666Y-106454819D02*
X124796666Y-107169104D01*
X124796666Y-107169104D02*
X124749047Y-107311961D01*
X124749047Y-107311961D02*
X124653809Y-107407200D01*
X124653809Y-107407200D02*
X124510952Y-107454819D01*
X124510952Y-107454819D02*
X124415714Y-107454819D01*
X125225238Y-106550057D02*
X125272857Y-106502438D01*
X125272857Y-106502438D02*
X125368095Y-106454819D01*
X125368095Y-106454819D02*
X125606190Y-106454819D01*
X125606190Y-106454819D02*
X125701428Y-106502438D01*
X125701428Y-106502438D02*
X125749047Y-106550057D01*
X125749047Y-106550057D02*
X125796666Y-106645295D01*
X125796666Y-106645295D02*
X125796666Y-106740533D01*
X125796666Y-106740533D02*
X125749047Y-106883390D01*
X125749047Y-106883390D02*
X125177619Y-107454819D01*
X125177619Y-107454819D02*
X125796666Y-107454819D01*
X129859580Y-70814166D02*
X129907200Y-70861785D01*
X129907200Y-70861785D02*
X129954819Y-71004642D01*
X129954819Y-71004642D02*
X129954819Y-71099880D01*
X129954819Y-71099880D02*
X129907200Y-71242737D01*
X129907200Y-71242737D02*
X129811961Y-71337975D01*
X129811961Y-71337975D02*
X129716723Y-71385594D01*
X129716723Y-71385594D02*
X129526247Y-71433213D01*
X129526247Y-71433213D02*
X129383390Y-71433213D01*
X129383390Y-71433213D02*
X129192914Y-71385594D01*
X129192914Y-71385594D02*
X129097676Y-71337975D01*
X129097676Y-71337975D02*
X129002438Y-71242737D01*
X129002438Y-71242737D02*
X128954819Y-71099880D01*
X128954819Y-71099880D02*
X128954819Y-71004642D01*
X128954819Y-71004642D02*
X129002438Y-70861785D01*
X129002438Y-70861785D02*
X129050057Y-70814166D01*
X128954819Y-70480832D02*
X128954819Y-69861785D01*
X128954819Y-69861785D02*
X129335771Y-70195118D01*
X129335771Y-70195118D02*
X129335771Y-70052261D01*
X129335771Y-70052261D02*
X129383390Y-69957023D01*
X129383390Y-69957023D02*
X129431009Y-69909404D01*
X129431009Y-69909404D02*
X129526247Y-69861785D01*
X129526247Y-69861785D02*
X129764342Y-69861785D01*
X129764342Y-69861785D02*
X129859580Y-69909404D01*
X129859580Y-69909404D02*
X129907200Y-69957023D01*
X129907200Y-69957023D02*
X129954819Y-70052261D01*
X129954819Y-70052261D02*
X129954819Y-70337975D01*
X129954819Y-70337975D02*
X129907200Y-70433213D01*
X129907200Y-70433213D02*
X129859580Y-70480832D01*
X127078095Y-116067200D02*
X127220952Y-116114819D01*
X127220952Y-116114819D02*
X127459047Y-116114819D01*
X127459047Y-116114819D02*
X127554285Y-116067200D01*
X127554285Y-116067200D02*
X127601904Y-116019580D01*
X127601904Y-116019580D02*
X127649523Y-115924342D01*
X127649523Y-115924342D02*
X127649523Y-115829104D01*
X127649523Y-115829104D02*
X127601904Y-115733866D01*
X127601904Y-115733866D02*
X127554285Y-115686247D01*
X127554285Y-115686247D02*
X127459047Y-115638628D01*
X127459047Y-115638628D02*
X127268571Y-115591009D01*
X127268571Y-115591009D02*
X127173333Y-115543390D01*
X127173333Y-115543390D02*
X127125714Y-115495771D01*
X127125714Y-115495771D02*
X127078095Y-115400533D01*
X127078095Y-115400533D02*
X127078095Y-115305295D01*
X127078095Y-115305295D02*
X127125714Y-115210057D01*
X127125714Y-115210057D02*
X127173333Y-115162438D01*
X127173333Y-115162438D02*
X127268571Y-115114819D01*
X127268571Y-115114819D02*
X127506666Y-115114819D01*
X127506666Y-115114819D02*
X127649523Y-115162438D01*
X127982857Y-115114819D02*
X128601904Y-115114819D01*
X128601904Y-115114819D02*
X128268571Y-115495771D01*
X128268571Y-115495771D02*
X128411428Y-115495771D01*
X128411428Y-115495771D02*
X128506666Y-115543390D01*
X128506666Y-115543390D02*
X128554285Y-115591009D01*
X128554285Y-115591009D02*
X128601904Y-115686247D01*
X128601904Y-115686247D02*
X128601904Y-115924342D01*
X128601904Y-115924342D02*
X128554285Y-116019580D01*
X128554285Y-116019580D02*
X128506666Y-116067200D01*
X128506666Y-116067200D02*
X128411428Y-116114819D01*
X128411428Y-116114819D02*
X128125714Y-116114819D01*
X128125714Y-116114819D02*
X128030476Y-116067200D01*
X128030476Y-116067200D02*
X127982857Y-116019580D01*
X113833333Y-82929580D02*
X113785714Y-82977200D01*
X113785714Y-82977200D02*
X113642857Y-83024819D01*
X113642857Y-83024819D02*
X113547619Y-83024819D01*
X113547619Y-83024819D02*
X113404762Y-82977200D01*
X113404762Y-82977200D02*
X113309524Y-82881961D01*
X113309524Y-82881961D02*
X113261905Y-82786723D01*
X113261905Y-82786723D02*
X113214286Y-82596247D01*
X113214286Y-82596247D02*
X113214286Y-82453390D01*
X113214286Y-82453390D02*
X113261905Y-82262914D01*
X113261905Y-82262914D02*
X113309524Y-82167676D01*
X113309524Y-82167676D02*
X113404762Y-82072438D01*
X113404762Y-82072438D02*
X113547619Y-82024819D01*
X113547619Y-82024819D02*
X113642857Y-82024819D01*
X113642857Y-82024819D02*
X113785714Y-82072438D01*
X113785714Y-82072438D02*
X113833333Y-82120057D01*
X114404762Y-82453390D02*
X114309524Y-82405771D01*
X114309524Y-82405771D02*
X114261905Y-82358152D01*
X114261905Y-82358152D02*
X114214286Y-82262914D01*
X114214286Y-82262914D02*
X114214286Y-82215295D01*
X114214286Y-82215295D02*
X114261905Y-82120057D01*
X114261905Y-82120057D02*
X114309524Y-82072438D01*
X114309524Y-82072438D02*
X114404762Y-82024819D01*
X114404762Y-82024819D02*
X114595238Y-82024819D01*
X114595238Y-82024819D02*
X114690476Y-82072438D01*
X114690476Y-82072438D02*
X114738095Y-82120057D01*
X114738095Y-82120057D02*
X114785714Y-82215295D01*
X114785714Y-82215295D02*
X114785714Y-82262914D01*
X114785714Y-82262914D02*
X114738095Y-82358152D01*
X114738095Y-82358152D02*
X114690476Y-82405771D01*
X114690476Y-82405771D02*
X114595238Y-82453390D01*
X114595238Y-82453390D02*
X114404762Y-82453390D01*
X114404762Y-82453390D02*
X114309524Y-82501009D01*
X114309524Y-82501009D02*
X114261905Y-82548628D01*
X114261905Y-82548628D02*
X114214286Y-82643866D01*
X114214286Y-82643866D02*
X114214286Y-82834342D01*
X114214286Y-82834342D02*
X114261905Y-82929580D01*
X114261905Y-82929580D02*
X114309524Y-82977200D01*
X114309524Y-82977200D02*
X114404762Y-83024819D01*
X114404762Y-83024819D02*
X114595238Y-83024819D01*
X114595238Y-83024819D02*
X114690476Y-82977200D01*
X114690476Y-82977200D02*
X114738095Y-82929580D01*
X114738095Y-82929580D02*
X114785714Y-82834342D01*
X114785714Y-82834342D02*
X114785714Y-82643866D01*
X114785714Y-82643866D02*
X114738095Y-82548628D01*
X114738095Y-82548628D02*
X114690476Y-82501009D01*
X114690476Y-82501009D02*
X114595238Y-82453390D01*
X124796666Y-111104819D02*
X124796666Y-111819104D01*
X124796666Y-111819104D02*
X124749047Y-111961961D01*
X124749047Y-111961961D02*
X124653809Y-112057200D01*
X124653809Y-112057200D02*
X124510952Y-112104819D01*
X124510952Y-112104819D02*
X124415714Y-112104819D01*
X125796666Y-112104819D02*
X125225238Y-112104819D01*
X125510952Y-112104819D02*
X125510952Y-111104819D01*
X125510952Y-111104819D02*
X125415714Y-111247676D01*
X125415714Y-111247676D02*
X125320476Y-111342914D01*
X125320476Y-111342914D02*
X125225238Y-111390533D01*
X145027595Y-84079819D02*
X145027595Y-84889342D01*
X145027595Y-84889342D02*
X145075214Y-84984580D01*
X145075214Y-84984580D02*
X145122833Y-85032200D01*
X145122833Y-85032200D02*
X145218071Y-85079819D01*
X145218071Y-85079819D02*
X145408547Y-85079819D01*
X145408547Y-85079819D02*
X145503785Y-85032200D01*
X145503785Y-85032200D02*
X145551404Y-84984580D01*
X145551404Y-84984580D02*
X145599023Y-84889342D01*
X145599023Y-84889342D02*
X145599023Y-84079819D01*
X146027595Y-84175057D02*
X146075214Y-84127438D01*
X146075214Y-84127438D02*
X146170452Y-84079819D01*
X146170452Y-84079819D02*
X146408547Y-84079819D01*
X146408547Y-84079819D02*
X146503785Y-84127438D01*
X146503785Y-84127438D02*
X146551404Y-84175057D01*
X146551404Y-84175057D02*
X146599023Y-84270295D01*
X146599023Y-84270295D02*
X146599023Y-84365533D01*
X146599023Y-84365533D02*
X146551404Y-84508390D01*
X146551404Y-84508390D02*
X145979976Y-85079819D01*
X145979976Y-85079819D02*
X146599023Y-85079819D01*
X127473095Y-84294819D02*
X127473095Y-85104342D01*
X127473095Y-85104342D02*
X127520714Y-85199580D01*
X127520714Y-85199580D02*
X127568333Y-85247200D01*
X127568333Y-85247200D02*
X127663571Y-85294819D01*
X127663571Y-85294819D02*
X127854047Y-85294819D01*
X127854047Y-85294819D02*
X127949285Y-85247200D01*
X127949285Y-85247200D02*
X127996904Y-85199580D01*
X127996904Y-85199580D02*
X128044523Y-85104342D01*
X128044523Y-85104342D02*
X128044523Y-84294819D01*
X129044523Y-85294819D02*
X128473095Y-85294819D01*
X128758809Y-85294819D02*
X128758809Y-84294819D01*
X128758809Y-84294819D02*
X128663571Y-84437676D01*
X128663571Y-84437676D02*
X128568333Y-84532914D01*
X128568333Y-84532914D02*
X128473095Y-84580533D01*
D13*
X120659048Y-69589695D02*
X120659048Y-68789695D01*
X121497143Y-69513504D02*
X121459047Y-69551600D01*
X121459047Y-69551600D02*
X121344762Y-69589695D01*
X121344762Y-69589695D02*
X121268571Y-69589695D01*
X121268571Y-69589695D02*
X121154285Y-69551600D01*
X121154285Y-69551600D02*
X121078095Y-69475409D01*
X121078095Y-69475409D02*
X121040000Y-69399219D01*
X121040000Y-69399219D02*
X121001904Y-69246838D01*
X121001904Y-69246838D02*
X121001904Y-69132552D01*
X121001904Y-69132552D02*
X121040000Y-68980171D01*
X121040000Y-68980171D02*
X121078095Y-68903980D01*
X121078095Y-68903980D02*
X121154285Y-68827790D01*
X121154285Y-68827790D02*
X121268571Y-68789695D01*
X121268571Y-68789695D02*
X121344762Y-68789695D01*
X121344762Y-68789695D02*
X121459047Y-68827790D01*
X121459047Y-68827790D02*
X121497143Y-68865885D01*
X122259047Y-69589695D02*
X121801904Y-69589695D01*
X122030476Y-69589695D02*
X122030476Y-68789695D01*
X122030476Y-68789695D02*
X121954285Y-68903980D01*
X121954285Y-68903980D02*
X121878095Y-68980171D01*
X121878095Y-68980171D02*
X121801904Y-69018266D01*
D14*
%TO.C,C9*%
X113776248Y-79265000D02*
X114298752Y-79265000D01*
X113776248Y-80735000D02*
X114298752Y-80735000D01*
%TO.C,R3*%
X121877500Y-80854724D02*
X121877500Y-80345276D01*
X122922500Y-80854724D02*
X122922500Y-80345276D01*
%TO.C,3.3V*%
X152320000Y-119270000D02*
X152320000Y-114130000D01*
X154980000Y-114130000D02*
X152320000Y-114130000D01*
X154980000Y-119270000D02*
X152320000Y-119270000D01*
X154980000Y-119270000D02*
X154980000Y-114130000D01*
X154980000Y-120540000D02*
X154980000Y-121870000D01*
X154980000Y-121870000D02*
X153650000Y-121870000D01*
%TO.C,C12*%
X154148748Y-83695000D02*
X154671252Y-83695000D01*
X154148748Y-85165000D02*
X154671252Y-85165000D01*
%TO.C,Button1*%
X148500000Y-106250000D02*
X148500000Y-107750000D01*
X149750000Y-110250000D02*
X154250000Y-110250000D01*
X154250000Y-103750000D02*
X149750000Y-103750000D01*
X155500000Y-107750000D02*
X155500000Y-106250000D01*
%TO.C,5V*%
X147670000Y-119270000D02*
X147670000Y-114130000D01*
X150330000Y-114130000D02*
X147670000Y-114130000D01*
X150330000Y-119270000D02*
X147670000Y-119270000D01*
X150330000Y-119270000D02*
X150330000Y-114130000D01*
X150330000Y-120540000D02*
X150330000Y-121870000D01*
X150330000Y-121870000D02*
X149000000Y-121870000D01*
%TO.C,C5*%
X134853733Y-76890000D02*
X135146267Y-76890000D01*
X134853733Y-77910000D02*
X135146267Y-77910000D01*
%TO.C,R4*%
X157877500Y-109054724D02*
X157877500Y-108545276D01*
X158922500Y-109054724D02*
X158922500Y-108545276D01*
%TO.C,GND*%
X143020000Y-119270000D02*
X143020000Y-114130000D01*
X145680000Y-114130000D02*
X143020000Y-114130000D01*
X145680000Y-119270000D02*
X143020000Y-119270000D01*
X145680000Y-119270000D02*
X145680000Y-114130000D01*
X145680000Y-120540000D02*
X145680000Y-121870000D01*
X145680000Y-121870000D02*
X144350000Y-121870000D01*
%TO.C,C6*%
X124890000Y-80746267D02*
X124890000Y-80453733D01*
X125910000Y-80746267D02*
X125910000Y-80453733D01*
%TO.C,C11*%
X158500000Y-93816267D02*
X158500000Y-93523733D01*
X159520000Y-93816267D02*
X159520000Y-93523733D01*
%TO.C,U3*%
X134440000Y-68877500D02*
X134440000Y-69137500D01*
X134440000Y-68877500D02*
X134700000Y-68877500D01*
X138460000Y-68877500D02*
X138200000Y-68877500D01*
X138460000Y-68877500D02*
X138460000Y-69137500D01*
X138460000Y-74297500D02*
X138200000Y-74297500D01*
X138460000Y-74297500D02*
X138460000Y-74037500D01*
D10*
X134440000Y-74657500D02*
X134080000Y-74297500D01*
X134440000Y-74297500D01*
X134440000Y-74657500D01*
G36*
X134440000Y-74657500D02*
G01*
X134080000Y-74297500D01*
X134440000Y-74297500D01*
X134440000Y-74657500D01*
G37*
D14*
%TO.C,R5*%
X143477500Y-70145276D02*
X143477500Y-70654724D01*
X144522500Y-70145276D02*
X144522500Y-70654724D01*
%TO.C,R6*%
X141877500Y-70654724D02*
X141877500Y-70145276D01*
X142922500Y-70654724D02*
X142922500Y-70145276D01*
%TO.C,C7*%
X129290000Y-80546267D02*
X129290000Y-80253733D01*
X130310000Y-80546267D02*
X130310000Y-80253733D01*
%TO.C,servo11*%
X162640000Y-68890000D02*
X162640000Y-70140000D01*
X162940000Y-69190000D02*
X162940000Y-73910000D01*
X162940000Y-70500000D02*
X163550000Y-70500000D01*
X162940000Y-71800000D02*
X163550000Y-71800000D01*
X162940000Y-73910000D02*
X171060000Y-73910000D01*
X163550000Y-69800000D02*
X163550000Y-73300000D01*
X163550000Y-73300000D02*
X170450000Y-73300000D01*
X163890000Y-68890000D02*
X162640000Y-68890000D01*
X164400000Y-68990000D02*
X164400000Y-69190000D01*
X164700000Y-68990000D02*
X164400000Y-68990000D01*
X164700000Y-69090000D02*
X164400000Y-69090000D01*
X164700000Y-69190000D02*
X164700000Y-68990000D01*
X165500000Y-69190000D02*
X165500000Y-69800000D01*
X165500000Y-69800000D02*
X163550000Y-69800000D01*
X165900000Y-72800000D02*
X166100000Y-72800000D01*
X165900000Y-73300000D02*
X165900000Y-72800000D01*
X166000000Y-73300000D02*
X166000000Y-72800000D01*
X166100000Y-72800000D02*
X166100000Y-73300000D01*
X167900000Y-72800000D02*
X168100000Y-72800000D01*
X167900000Y-73300000D02*
X167900000Y-72800000D01*
X168000000Y-73300000D02*
X168000000Y-72800000D01*
X168100000Y-72800000D02*
X168100000Y-73300000D01*
X168500000Y-69800000D02*
X168500000Y-69190000D01*
X170450000Y-69800000D02*
X168500000Y-69800000D01*
X170450000Y-73300000D02*
X170450000Y-69800000D01*
X171060000Y-69190000D02*
X162940000Y-69190000D01*
X171060000Y-70500000D02*
X170450000Y-70500000D01*
X171060000Y-71800000D02*
X170450000Y-71800000D01*
X171060000Y-73910000D02*
X171060000Y-69190000D01*
%TO.C,C10*%
X153748748Y-86135000D02*
X154271252Y-86135000D01*
X153748748Y-87605000D02*
X154271252Y-87605000D01*
%TO.C,Main-Terminal1*%
X110795000Y-104615000D02*
X110795000Y-105115000D01*
X111035000Y-104855000D02*
X111035000Y-115135000D01*
X111535000Y-104615000D02*
X110795000Y-104615000D01*
X111595000Y-104855000D02*
X111595000Y-115135000D01*
X113095000Y-104855000D02*
X113095000Y-115135000D01*
X114456000Y-111501000D02*
X114421000Y-111466000D01*
X114672000Y-111308000D02*
X114626000Y-111261000D01*
X116764000Y-113810000D02*
X116718000Y-113763000D01*
X116970000Y-113605000D02*
X116934000Y-113570000D01*
X117996000Y-104855000D02*
X117996000Y-115135000D01*
X120956000Y-104855000D02*
X111035000Y-104855000D01*
X120956000Y-104855000D02*
X120956000Y-115135000D01*
X120956000Y-115135000D02*
X111035000Y-115135000D01*
X114014747Y-107483805D02*
G75*
G02*
X114160000Y-106771000I1680254J28806D01*
G01*
X114160244Y-108138318D02*
G75*
G02*
X114015000Y-107455000I1534756J683318D01*
G01*
X115011958Y-105919573D02*
G75*
G02*
X116379000Y-105920000I683041J-1535420D01*
G01*
X116378042Y-108990427D02*
G75*
G02*
X115011000Y-108990000I-683042J1535427D01*
G01*
X117230427Y-106771958D02*
G75*
G02*
X117230000Y-108139000I-1535420J-683041D01*
G01*
X117375000Y-112535000D02*
G75*
G02*
X114015000Y-112535000I-1680000J0D01*
G01*
X114015000Y-112535000D02*
G75*
G02*
X117375000Y-112535000I1680000J0D01*
G01*
%TO.C,servo10*%
X182060000Y-108410000D02*
X182060000Y-103690000D01*
X182060000Y-106300000D02*
X181450000Y-106300000D01*
X182060000Y-105000000D02*
X181450000Y-105000000D01*
X182060000Y-103690000D02*
X173940000Y-103690000D01*
X181450000Y-107800000D02*
X181450000Y-104300000D01*
X181450000Y-104300000D02*
X179500000Y-104300000D01*
X179500000Y-104300000D02*
X179500000Y-103690000D01*
X179100000Y-107300000D02*
X179100000Y-107800000D01*
X179000000Y-107800000D02*
X179000000Y-107300000D01*
X178900000Y-107800000D02*
X178900000Y-107300000D01*
X178900000Y-107300000D02*
X179100000Y-107300000D01*
X177100000Y-107300000D02*
X177100000Y-107800000D01*
X177000000Y-107800000D02*
X177000000Y-107300000D01*
X176900000Y-107800000D02*
X176900000Y-107300000D01*
X176900000Y-107300000D02*
X177100000Y-107300000D01*
X176500000Y-104300000D02*
X174550000Y-104300000D01*
X176500000Y-103690000D02*
X176500000Y-104300000D01*
X175700000Y-103690000D02*
X175700000Y-103490000D01*
X175700000Y-103590000D02*
X175400000Y-103590000D01*
X175700000Y-103490000D02*
X175400000Y-103490000D01*
X175400000Y-103490000D02*
X175400000Y-103690000D01*
X174890000Y-103390000D02*
X173640000Y-103390000D01*
X174550000Y-107800000D02*
X181450000Y-107800000D01*
X174550000Y-104300000D02*
X174550000Y-107800000D01*
X173940000Y-108410000D02*
X182060000Y-108410000D01*
X173940000Y-106300000D02*
X174550000Y-106300000D01*
X173940000Y-105000000D02*
X174550000Y-105000000D01*
X173940000Y-103690000D02*
X173940000Y-108410000D01*
X173640000Y-103390000D02*
X173640000Y-104640000D01*
%TO.C,R2*%
X134745276Y-75277500D02*
X135254724Y-75277500D01*
X134745276Y-76322500D02*
X135254724Y-76322500D01*
%TO.C,C2*%
X130853733Y-75490000D02*
X131146267Y-75490000D01*
X130853733Y-76510000D02*
X131146267Y-76510000D01*
%TO.C,servo1*%
X162640000Y-83340000D02*
X162640000Y-84590000D01*
X162940000Y-83640000D02*
X162940000Y-88360000D01*
X162940000Y-84950000D02*
X163550000Y-84950000D01*
X162940000Y-86250000D02*
X163550000Y-86250000D01*
X162940000Y-88360000D02*
X171060000Y-88360000D01*
X163550000Y-84250000D02*
X163550000Y-87750000D01*
X163550000Y-87750000D02*
X170450000Y-87750000D01*
X163890000Y-83340000D02*
X162640000Y-83340000D01*
X164400000Y-83440000D02*
X164400000Y-83640000D01*
X164700000Y-83440000D02*
X164400000Y-83440000D01*
X164700000Y-83540000D02*
X164400000Y-83540000D01*
X164700000Y-83640000D02*
X164700000Y-83440000D01*
X165500000Y-83640000D02*
X165500000Y-84250000D01*
X165500000Y-84250000D02*
X163550000Y-84250000D01*
X165900000Y-87250000D02*
X166100000Y-87250000D01*
X165900000Y-87750000D02*
X165900000Y-87250000D01*
X166000000Y-87750000D02*
X166000000Y-87250000D01*
X166100000Y-87250000D02*
X166100000Y-87750000D01*
X167900000Y-87250000D02*
X168100000Y-87250000D01*
X167900000Y-87750000D02*
X167900000Y-87250000D01*
X168000000Y-87750000D02*
X168000000Y-87250000D01*
X168100000Y-87250000D02*
X168100000Y-87750000D01*
X168500000Y-84250000D02*
X168500000Y-83640000D01*
X170450000Y-84250000D02*
X168500000Y-84250000D01*
X170450000Y-87750000D02*
X170450000Y-84250000D01*
X171060000Y-83640000D02*
X162940000Y-83640000D01*
X171060000Y-84950000D02*
X170450000Y-84950000D01*
X171060000Y-86250000D02*
X170450000Y-86250000D01*
X171060000Y-88360000D02*
X171060000Y-83640000D01*
%TO.C,S4*%
X131160000Y-116660000D02*
X132490000Y-116660000D01*
X131160000Y-117990000D02*
X131160000Y-116660000D01*
X131160000Y-119260000D02*
X131160000Y-121860000D01*
X131160000Y-119260000D02*
X133820000Y-119260000D01*
X131160000Y-121860000D02*
X133820000Y-121860000D01*
X133820000Y-119260000D02*
X133820000Y-121860000D01*
%TO.C,servo9*%
X162640000Y-110340000D02*
X162640000Y-111590000D01*
X162940000Y-110640000D02*
X162940000Y-115360000D01*
X162940000Y-111950000D02*
X163550000Y-111950000D01*
X162940000Y-113250000D02*
X163550000Y-113250000D01*
X162940000Y-115360000D02*
X171060000Y-115360000D01*
X163550000Y-111250000D02*
X163550000Y-114750000D01*
X163550000Y-114750000D02*
X170450000Y-114750000D01*
X163890000Y-110340000D02*
X162640000Y-110340000D01*
X164400000Y-110440000D02*
X164400000Y-110640000D01*
X164700000Y-110440000D02*
X164400000Y-110440000D01*
X164700000Y-110540000D02*
X164400000Y-110540000D01*
X164700000Y-110640000D02*
X164700000Y-110440000D01*
X165500000Y-110640000D02*
X165500000Y-111250000D01*
X165500000Y-111250000D02*
X163550000Y-111250000D01*
X165900000Y-114250000D02*
X166100000Y-114250000D01*
X165900000Y-114750000D02*
X165900000Y-114250000D01*
X166000000Y-114750000D02*
X166000000Y-114250000D01*
X166100000Y-114250000D02*
X166100000Y-114750000D01*
X167900000Y-114250000D02*
X168100000Y-114250000D01*
X167900000Y-114750000D02*
X167900000Y-114250000D01*
X168000000Y-114750000D02*
X168000000Y-114250000D01*
X168100000Y-114250000D02*
X168100000Y-114750000D01*
X168500000Y-111250000D02*
X168500000Y-110640000D01*
X170450000Y-111250000D02*
X168500000Y-111250000D01*
X170450000Y-114750000D02*
X170450000Y-111250000D01*
X171060000Y-110640000D02*
X162940000Y-110640000D01*
X171060000Y-111950000D02*
X170450000Y-111950000D01*
X171060000Y-113250000D02*
X170450000Y-113250000D01*
X171060000Y-115360000D02*
X171060000Y-110640000D01*
%TO.C,servo3*%
X182060000Y-87960000D02*
X182060000Y-83240000D01*
X182060000Y-85850000D02*
X181450000Y-85850000D01*
X182060000Y-84550000D02*
X181450000Y-84550000D01*
X182060000Y-83240000D02*
X173940000Y-83240000D01*
X181450000Y-87350000D02*
X181450000Y-83850000D01*
X181450000Y-83850000D02*
X179500000Y-83850000D01*
X179500000Y-83850000D02*
X179500000Y-83240000D01*
X179100000Y-86850000D02*
X179100000Y-87350000D01*
X179000000Y-87350000D02*
X179000000Y-86850000D01*
X178900000Y-87350000D02*
X178900000Y-86850000D01*
X178900000Y-86850000D02*
X179100000Y-86850000D01*
X177100000Y-86850000D02*
X177100000Y-87350000D01*
X177000000Y-87350000D02*
X177000000Y-86850000D01*
X176900000Y-87350000D02*
X176900000Y-86850000D01*
X176900000Y-86850000D02*
X177100000Y-86850000D01*
X176500000Y-83850000D02*
X174550000Y-83850000D01*
X176500000Y-83240000D02*
X176500000Y-83850000D01*
X175700000Y-83240000D02*
X175700000Y-83040000D01*
X175700000Y-83140000D02*
X175400000Y-83140000D01*
X175700000Y-83040000D02*
X175400000Y-83040000D01*
X175400000Y-83040000D02*
X175400000Y-83240000D01*
X174890000Y-82940000D02*
X173640000Y-82940000D01*
X174550000Y-87350000D02*
X181450000Y-87350000D01*
X174550000Y-83850000D02*
X174550000Y-87350000D01*
X173940000Y-87960000D02*
X182060000Y-87960000D01*
X173940000Y-85850000D02*
X174550000Y-85850000D01*
X173940000Y-84550000D02*
X174550000Y-84550000D01*
X173940000Y-83240000D02*
X173940000Y-87960000D01*
X173640000Y-82940000D02*
X173640000Y-84190000D01*
%TO.C,servo7*%
X182060000Y-94410000D02*
X182060000Y-89690000D01*
X182060000Y-92300000D02*
X181450000Y-92300000D01*
X182060000Y-91000000D02*
X181450000Y-91000000D01*
X182060000Y-89690000D02*
X173940000Y-89690000D01*
X181450000Y-93800000D02*
X181450000Y-90300000D01*
X181450000Y-90300000D02*
X179500000Y-90300000D01*
X179500000Y-90300000D02*
X179500000Y-89690000D01*
X179100000Y-93300000D02*
X179100000Y-93800000D01*
X179000000Y-93800000D02*
X179000000Y-93300000D01*
X178900000Y-93800000D02*
X178900000Y-93300000D01*
X178900000Y-93300000D02*
X179100000Y-93300000D01*
X177100000Y-93300000D02*
X177100000Y-93800000D01*
X177000000Y-93800000D02*
X177000000Y-93300000D01*
X176900000Y-93800000D02*
X176900000Y-93300000D01*
X176900000Y-93300000D02*
X177100000Y-93300000D01*
X176500000Y-90300000D02*
X174550000Y-90300000D01*
X176500000Y-89690000D02*
X176500000Y-90300000D01*
X175700000Y-89690000D02*
X175700000Y-89490000D01*
X175700000Y-89590000D02*
X175400000Y-89590000D01*
X175700000Y-89490000D02*
X175400000Y-89490000D01*
X175400000Y-89490000D02*
X175400000Y-89690000D01*
X174890000Y-89390000D02*
X173640000Y-89390000D01*
X174550000Y-93800000D02*
X181450000Y-93800000D01*
X174550000Y-90300000D02*
X174550000Y-93800000D01*
X173940000Y-94410000D02*
X182060000Y-94410000D01*
X173940000Y-92300000D02*
X174550000Y-92300000D01*
X173940000Y-91000000D02*
X174550000Y-91000000D01*
X173940000Y-89690000D02*
X173940000Y-94410000D01*
X173640000Y-89390000D02*
X173640000Y-90640000D01*
D13*
%TO.C,IC2*%
X134200000Y-79000000D02*
X135800000Y-79000000D01*
X134200000Y-81000000D02*
X134200000Y-79000000D01*
X135800000Y-79000000D02*
X135800000Y-81000000D01*
X135800000Y-81000000D02*
X134200000Y-81000000D01*
X137000000Y-81250000D02*
X136150000Y-81250000D01*
D14*
%TO.C,servo5*%
X182060000Y-101410000D02*
X182060000Y-96690000D01*
X182060000Y-99300000D02*
X181450000Y-99300000D01*
X182060000Y-98000000D02*
X181450000Y-98000000D01*
X182060000Y-96690000D02*
X173940000Y-96690000D01*
X181450000Y-100800000D02*
X181450000Y-97300000D01*
X181450000Y-97300000D02*
X179500000Y-97300000D01*
X179500000Y-97300000D02*
X179500000Y-96690000D01*
X179100000Y-100300000D02*
X179100000Y-100800000D01*
X179000000Y-100800000D02*
X179000000Y-100300000D01*
X178900000Y-100800000D02*
X178900000Y-100300000D01*
X178900000Y-100300000D02*
X179100000Y-100300000D01*
X177100000Y-100300000D02*
X177100000Y-100800000D01*
X177000000Y-100800000D02*
X177000000Y-100300000D01*
X176900000Y-100800000D02*
X176900000Y-100300000D01*
X176900000Y-100300000D02*
X177100000Y-100300000D01*
X176500000Y-97300000D02*
X174550000Y-97300000D01*
X176500000Y-96690000D02*
X176500000Y-97300000D01*
X175700000Y-96690000D02*
X175700000Y-96490000D01*
X175700000Y-96590000D02*
X175400000Y-96590000D01*
X175700000Y-96490000D02*
X175400000Y-96490000D01*
X175400000Y-96490000D02*
X175400000Y-96690000D01*
X174890000Y-96390000D02*
X173640000Y-96390000D01*
X174550000Y-100800000D02*
X181450000Y-100800000D01*
X174550000Y-97300000D02*
X174550000Y-100800000D01*
X173940000Y-101410000D02*
X182060000Y-101410000D01*
X173940000Y-99300000D02*
X174550000Y-99300000D01*
X173940000Y-98000000D02*
X174550000Y-98000000D01*
X173940000Y-96690000D02*
X173940000Y-101410000D01*
X173640000Y-96390000D02*
X173640000Y-97640000D01*
%TO.C,servo8*%
X162640000Y-96890000D02*
X162640000Y-98140000D01*
X162940000Y-97190000D02*
X162940000Y-101910000D01*
X162940000Y-98500000D02*
X163550000Y-98500000D01*
X162940000Y-99800000D02*
X163550000Y-99800000D01*
X162940000Y-101910000D02*
X171060000Y-101910000D01*
X163550000Y-97800000D02*
X163550000Y-101300000D01*
X163550000Y-101300000D02*
X170450000Y-101300000D01*
X163890000Y-96890000D02*
X162640000Y-96890000D01*
X164400000Y-96990000D02*
X164400000Y-97190000D01*
X164700000Y-96990000D02*
X164400000Y-96990000D01*
X164700000Y-97090000D02*
X164400000Y-97090000D01*
X164700000Y-97190000D02*
X164700000Y-96990000D01*
X165500000Y-97190000D02*
X165500000Y-97800000D01*
X165500000Y-97800000D02*
X163550000Y-97800000D01*
X165900000Y-100800000D02*
X166100000Y-100800000D01*
X165900000Y-101300000D02*
X165900000Y-100800000D01*
X166000000Y-101300000D02*
X166000000Y-100800000D01*
X166100000Y-100800000D02*
X166100000Y-101300000D01*
X167900000Y-100800000D02*
X168100000Y-100800000D01*
X167900000Y-101300000D02*
X167900000Y-100800000D01*
X168000000Y-101300000D02*
X168000000Y-100800000D01*
X168100000Y-100800000D02*
X168100000Y-101300000D01*
X168500000Y-97800000D02*
X168500000Y-97190000D01*
X170450000Y-97800000D02*
X168500000Y-97800000D01*
X170450000Y-101300000D02*
X170450000Y-97800000D01*
X171060000Y-97190000D02*
X162940000Y-97190000D01*
X171060000Y-98500000D02*
X170450000Y-98500000D01*
X171060000Y-99800000D02*
X170450000Y-99800000D01*
X171060000Y-101910000D02*
X171060000Y-97190000D01*
D15*
%TO.C,50R1*%
X149917500Y-93290400D02*
X149917500Y-99767400D01*
X149917500Y-99767400D02*
X150295960Y-99767400D01*
X150679500Y-92807800D02*
X150679500Y-91741000D01*
X151568500Y-92807800D02*
X151568500Y-91741000D01*
X152838500Y-92274400D02*
X152838500Y-93290400D01*
X152838500Y-93290400D02*
X149917500Y-93290400D01*
X153981500Y-92274400D02*
X152838500Y-92274400D01*
X153981500Y-93290400D02*
X153981500Y-92274400D01*
X155251500Y-92807800D02*
X155251500Y-91741000D01*
X156140500Y-92807800D02*
X156140500Y-91741000D01*
X156524040Y-99767400D02*
X156902500Y-99767400D01*
X156902500Y-93290400D02*
X153981500Y-93290400D01*
X156902500Y-99767400D02*
X156902500Y-93290400D01*
D14*
%TO.C,C1*%
X147865000Y-91061252D02*
X147865000Y-90538748D01*
X149335000Y-91061252D02*
X149335000Y-90538748D01*
%TO.C,servo4*%
X162640000Y-89890000D02*
X162640000Y-91140000D01*
X162940000Y-90190000D02*
X162940000Y-94910000D01*
X162940000Y-91500000D02*
X163550000Y-91500000D01*
X162940000Y-92800000D02*
X163550000Y-92800000D01*
X162940000Y-94910000D02*
X171060000Y-94910000D01*
X163550000Y-90800000D02*
X163550000Y-94300000D01*
X163550000Y-94300000D02*
X170450000Y-94300000D01*
X163890000Y-89890000D02*
X162640000Y-89890000D01*
X164400000Y-89990000D02*
X164400000Y-90190000D01*
X164700000Y-89990000D02*
X164400000Y-89990000D01*
X164700000Y-90090000D02*
X164400000Y-90090000D01*
X164700000Y-90190000D02*
X164700000Y-89990000D01*
X165500000Y-90190000D02*
X165500000Y-90800000D01*
X165500000Y-90800000D02*
X163550000Y-90800000D01*
X165900000Y-93800000D02*
X166100000Y-93800000D01*
X165900000Y-94300000D02*
X165900000Y-93800000D01*
X166000000Y-94300000D02*
X166000000Y-93800000D01*
X166100000Y-93800000D02*
X166100000Y-94300000D01*
X167900000Y-93800000D02*
X168100000Y-93800000D01*
X167900000Y-94300000D02*
X167900000Y-93800000D01*
X168000000Y-94300000D02*
X168000000Y-93800000D01*
X168100000Y-93800000D02*
X168100000Y-94300000D01*
X168500000Y-90800000D02*
X168500000Y-90190000D01*
X170450000Y-90800000D02*
X168500000Y-90800000D01*
X170450000Y-94300000D02*
X170450000Y-90800000D01*
X171060000Y-90190000D02*
X162940000Y-90190000D01*
X171060000Y-91500000D02*
X170450000Y-91500000D01*
X171060000Y-92800000D02*
X170450000Y-92800000D01*
X171060000Y-94910000D02*
X171060000Y-90190000D01*
%TO.C,C13*%
X158490000Y-78991233D02*
X158490000Y-79283767D01*
X159510000Y-78991233D02*
X159510000Y-79283767D01*
D15*
%TO.C,33R1*%
X149221500Y-70373400D02*
X149221500Y-76850400D01*
X149221500Y-76850400D02*
X152142500Y-76850400D01*
X149599960Y-70373400D02*
X149221500Y-70373400D01*
X149983500Y-77333000D02*
X149983500Y-78399800D01*
X150872500Y-77333000D02*
X150872500Y-78399800D01*
X152142500Y-76850400D02*
X152142500Y-77866400D01*
X152142500Y-77866400D02*
X153285500Y-77866400D01*
X153285500Y-76850400D02*
X156206500Y-76850400D01*
X153285500Y-77866400D02*
X153285500Y-76850400D01*
X154555500Y-77333000D02*
X154555500Y-78399800D01*
X155444500Y-77333000D02*
X155444500Y-78399800D01*
X156206500Y-70373400D02*
X155828040Y-70373400D01*
X156206500Y-76850400D02*
X156206500Y-70373400D01*
D14*
%TO.C,S5*%
X135810000Y-116660000D02*
X137140000Y-116660000D01*
X135810000Y-117990000D02*
X135810000Y-116660000D01*
X135810000Y-119260000D02*
X135810000Y-121860000D01*
X135810000Y-119260000D02*
X138470000Y-119260000D01*
X135810000Y-121860000D02*
X138470000Y-121860000D01*
X138470000Y-119260000D02*
X138470000Y-121860000D01*
%TO.C,C4*%
X132290000Y-72146267D02*
X132290000Y-71853733D01*
X133310000Y-72146267D02*
X133310000Y-71853733D01*
%TO.C,R1*%
X139345276Y-80677500D02*
X139854724Y-80677500D01*
X139345276Y-81722500D02*
X139854724Y-81722500D01*
%TO.C,servo2*%
X182060000Y-81410000D02*
X182060000Y-76690000D01*
X182060000Y-79300000D02*
X181450000Y-79300000D01*
X182060000Y-78000000D02*
X181450000Y-78000000D01*
X182060000Y-76690000D02*
X173940000Y-76690000D01*
X181450000Y-80800000D02*
X181450000Y-77300000D01*
X181450000Y-77300000D02*
X179500000Y-77300000D01*
X179500000Y-77300000D02*
X179500000Y-76690000D01*
X179100000Y-80300000D02*
X179100000Y-80800000D01*
X179000000Y-80800000D02*
X179000000Y-80300000D01*
X178900000Y-80800000D02*
X178900000Y-80300000D01*
X178900000Y-80300000D02*
X179100000Y-80300000D01*
X177100000Y-80300000D02*
X177100000Y-80800000D01*
X177000000Y-80800000D02*
X177000000Y-80300000D01*
X176900000Y-80800000D02*
X176900000Y-80300000D01*
X176900000Y-80300000D02*
X177100000Y-80300000D01*
X176500000Y-77300000D02*
X174550000Y-77300000D01*
X176500000Y-76690000D02*
X176500000Y-77300000D01*
X175700000Y-76690000D02*
X175700000Y-76490000D01*
X175700000Y-76590000D02*
X175400000Y-76590000D01*
X175700000Y-76490000D02*
X175400000Y-76490000D01*
X175400000Y-76490000D02*
X175400000Y-76690000D01*
X174890000Y-76390000D02*
X173640000Y-76390000D01*
X174550000Y-80800000D02*
X181450000Y-80800000D01*
X174550000Y-77300000D02*
X174550000Y-80800000D01*
X173940000Y-81410000D02*
X182060000Y-81410000D01*
X173940000Y-79300000D02*
X174550000Y-79300000D01*
X173940000Y-78000000D02*
X174550000Y-78000000D01*
X173940000Y-76690000D02*
X173940000Y-81410000D01*
X173640000Y-76390000D02*
X173640000Y-77640000D01*
%TO.C,J2*%
X126130000Y-108330000D02*
X126130000Y-107000000D01*
X127460000Y-108330000D02*
X126130000Y-108330000D01*
X128730000Y-105670000D02*
X136410000Y-105670000D01*
X128730000Y-108330000D02*
X128730000Y-105670000D01*
X128730000Y-108330000D02*
X136410000Y-108330000D01*
X136410000Y-108330000D02*
X136410000Y-105670000D01*
%TO.C,C3*%
X130420000Y-70793767D02*
X130420000Y-70501233D01*
X131440000Y-70793767D02*
X131440000Y-70501233D01*
%TO.C,S3*%
X126510000Y-116660000D02*
X127840000Y-116660000D01*
X126510000Y-117990000D02*
X126510000Y-116660000D01*
X126510000Y-119260000D02*
X126510000Y-121860000D01*
X126510000Y-119260000D02*
X129170000Y-119260000D01*
X126510000Y-121860000D02*
X129170000Y-121860000D01*
X129170000Y-119260000D02*
X129170000Y-121860000D01*
%TO.C,servo6*%
X162640000Y-103890000D02*
X162640000Y-105140000D01*
X162940000Y-104190000D02*
X162940000Y-108910000D01*
X162940000Y-105500000D02*
X163550000Y-105500000D01*
X162940000Y-106800000D02*
X163550000Y-106800000D01*
X162940000Y-108910000D02*
X171060000Y-108910000D01*
X163550000Y-104800000D02*
X163550000Y-108300000D01*
X163550000Y-108300000D02*
X170450000Y-108300000D01*
X163890000Y-103890000D02*
X162640000Y-103890000D01*
X164400000Y-103990000D02*
X164400000Y-104190000D01*
X164700000Y-103990000D02*
X164400000Y-103990000D01*
X164700000Y-104090000D02*
X164400000Y-104090000D01*
X164700000Y-104190000D02*
X164700000Y-103990000D01*
X165500000Y-104190000D02*
X165500000Y-104800000D01*
X165500000Y-104800000D02*
X163550000Y-104800000D01*
X165900000Y-107800000D02*
X166100000Y-107800000D01*
X165900000Y-108300000D02*
X165900000Y-107800000D01*
X166000000Y-108300000D02*
X166000000Y-107800000D01*
X166100000Y-107800000D02*
X166100000Y-108300000D01*
X167900000Y-107800000D02*
X168100000Y-107800000D01*
X167900000Y-108300000D02*
X167900000Y-107800000D01*
X168000000Y-108300000D02*
X168000000Y-107800000D01*
X168100000Y-107800000D02*
X168100000Y-108300000D01*
X168500000Y-104800000D02*
X168500000Y-104190000D01*
X170450000Y-104800000D02*
X168500000Y-104800000D01*
X170450000Y-108300000D02*
X170450000Y-104800000D01*
X171060000Y-104190000D02*
X162940000Y-104190000D01*
X171060000Y-105500000D02*
X170450000Y-105500000D01*
X171060000Y-106800000D02*
X170450000Y-106800000D01*
X171060000Y-108910000D02*
X171060000Y-104190000D01*
%TO.C,servo13*%
X162640000Y-76340000D02*
X162640000Y-77590000D01*
X162940000Y-76640000D02*
X162940000Y-81360000D01*
X162940000Y-77950000D02*
X163550000Y-77950000D01*
X162940000Y-79250000D02*
X163550000Y-79250000D01*
X162940000Y-81360000D02*
X171060000Y-81360000D01*
X163550000Y-77250000D02*
X163550000Y-80750000D01*
X163550000Y-80750000D02*
X170450000Y-80750000D01*
X163890000Y-76340000D02*
X162640000Y-76340000D01*
X164400000Y-76440000D02*
X164400000Y-76640000D01*
X164700000Y-76440000D02*
X164400000Y-76440000D01*
X164700000Y-76540000D02*
X164400000Y-76540000D01*
X164700000Y-76640000D02*
X164700000Y-76440000D01*
X165500000Y-76640000D02*
X165500000Y-77250000D01*
X165500000Y-77250000D02*
X163550000Y-77250000D01*
X165900000Y-80250000D02*
X166100000Y-80250000D01*
X165900000Y-80750000D02*
X165900000Y-80250000D01*
X166000000Y-80750000D02*
X166000000Y-80250000D01*
X166100000Y-80250000D02*
X166100000Y-80750000D01*
X167900000Y-80250000D02*
X168100000Y-80250000D01*
X167900000Y-80750000D02*
X167900000Y-80250000D01*
X168000000Y-80750000D02*
X168000000Y-80250000D01*
X168100000Y-80250000D02*
X168100000Y-80750000D01*
X168500000Y-77250000D02*
X168500000Y-76640000D01*
X170450000Y-77250000D02*
X168500000Y-77250000D01*
X170450000Y-80750000D02*
X170450000Y-77250000D01*
X171060000Y-76640000D02*
X162940000Y-76640000D01*
X171060000Y-77950000D02*
X170450000Y-77950000D01*
X171060000Y-79250000D02*
X170450000Y-79250000D01*
X171060000Y-81360000D02*
X171060000Y-76640000D01*
%TO.C,C8*%
X113853733Y-83490000D02*
X114146267Y-83490000D01*
X113853733Y-84510000D02*
X114146267Y-84510000D01*
%TO.C,J1*%
X126130000Y-112980000D02*
X126130000Y-111650000D01*
X127460000Y-112980000D02*
X126130000Y-112980000D01*
X128730000Y-110320000D02*
X136410000Y-110320000D01*
X128730000Y-112980000D02*
X128730000Y-110320000D01*
X128730000Y-112980000D02*
X136410000Y-112980000D01*
X136410000Y-112980000D02*
X136410000Y-110320000D01*
%TO.C,servo12*%
X182060000Y-115160000D02*
X182060000Y-110440000D01*
X182060000Y-113050000D02*
X181450000Y-113050000D01*
X182060000Y-111750000D02*
X181450000Y-111750000D01*
X182060000Y-110440000D02*
X173940000Y-110440000D01*
X181450000Y-114550000D02*
X181450000Y-111050000D01*
X181450000Y-111050000D02*
X179500000Y-111050000D01*
X179500000Y-111050000D02*
X179500000Y-110440000D01*
X179100000Y-114050000D02*
X179100000Y-114550000D01*
X179000000Y-114550000D02*
X179000000Y-114050000D01*
X178900000Y-114550000D02*
X178900000Y-114050000D01*
X178900000Y-114050000D02*
X179100000Y-114050000D01*
X177100000Y-114050000D02*
X177100000Y-114550000D01*
X177000000Y-114550000D02*
X177000000Y-114050000D01*
X176900000Y-114550000D02*
X176900000Y-114050000D01*
X176900000Y-114050000D02*
X177100000Y-114050000D01*
X176500000Y-111050000D02*
X174550000Y-111050000D01*
X176500000Y-110440000D02*
X176500000Y-111050000D01*
X175700000Y-110440000D02*
X175700000Y-110240000D01*
X175700000Y-110340000D02*
X175400000Y-110340000D01*
X175700000Y-110240000D02*
X175400000Y-110240000D01*
X175400000Y-110240000D02*
X175400000Y-110440000D01*
X174890000Y-110140000D02*
X173640000Y-110140000D01*
X174550000Y-114550000D02*
X181450000Y-114550000D01*
X174550000Y-111050000D02*
X174550000Y-114550000D01*
X173940000Y-115160000D02*
X182060000Y-115160000D01*
X173940000Y-113050000D02*
X174550000Y-113050000D01*
X173940000Y-111750000D02*
X174550000Y-111750000D01*
X173940000Y-110440000D02*
X173940000Y-115160000D01*
X173640000Y-110140000D02*
X173640000Y-111390000D01*
%TO.C,U2*%
X118189500Y-68275000D02*
X147389500Y-68275000D01*
X118189500Y-83725000D02*
X118189500Y-68275000D01*
X141725500Y-72481000D02*
X147059500Y-72481000D01*
X141725500Y-83149000D02*
X141725500Y-72481000D01*
X147059500Y-72481000D02*
X147059500Y-72481000D01*
X147059500Y-72481000D02*
X147059500Y-83149000D01*
X147059500Y-83149000D02*
X141725500Y-83149000D01*
X147059500Y-83149000D02*
X147059500Y-83149000D01*
X147389500Y-68275000D02*
X147389500Y-83725000D01*
X147389500Y-83725000D02*
X118189500Y-83725000D01*
X147389500Y-83725000D02*
X147389500Y-83725000D01*
X147925500Y-81865000D02*
X147589500Y-81625000D01*
X147925500Y-81385000D01*
X147925500Y-81865000D01*
G36*
X147925500Y-81865000D02*
G01*
X147589500Y-81625000D01*
X147925500Y-81385000D01*
X147925500Y-81865000D01*
G37*
D12*
%TO.C,U1*%
X109185000Y-91190000D02*
X109185000Y-98810000D01*
X109185000Y-98810000D02*
X110455000Y-98810000D01*
X110455000Y-86110000D02*
X110455000Y-103890000D01*
X110455000Y-91190000D02*
X109185000Y-91190000D01*
X110455000Y-103890000D02*
X146015000Y-103890000D01*
X146015000Y-86110000D02*
X110455000Y-86110000D01*
X146015000Y-103890000D02*
X146015000Y-86110000D01*
D13*
%TO.C,IC1*%
X118925000Y-70100000D02*
X120400000Y-70100000D01*
X120750000Y-70350000D02*
X124450000Y-70350000D01*
X120750000Y-76850000D02*
X120750000Y-70350000D01*
X124450000Y-70350000D02*
X124450000Y-76850000D01*
X124450000Y-76850000D02*
X120750000Y-76850000D01*
%TD*%
M02*
