%TF.GenerationSoftware,KiCad,Pcbnew,8.0.7*%
%TF.CreationDate,2024-12-26T23:36:22+07:00*%
%TF.ProjectId,Teensy4.0PCB,5465656e-7379-4342-9e30-5043422e6b69,rev?*%
%TF.SameCoordinates,Original*%
%TF.FileFunction,Copper,L2,Inr*%
%TF.FilePolarity,Positive*%
%FSLAX46Y46*%
G04 Gerber Fmt 4.6, Leading zero omitted, Abs format (unit mm)*
G04 Created by KiCad (PCBNEW 8.0.7) date 2024-12-26 23:36:22*
%MOMM*%
%LPD*%
G01*
G04 APERTURE LIST*
G04 Aperture macros list*
%AMRoundRect*
0 Rectangle with rounded corners*
0 $1 Rounding radius*
0 $2 $3 $4 $5 $6 $7 $8 $9 X,Y pos of 4 corners*
0 Add a 4 corners polygon primitive as box body*
4,1,4,$2,$3,$4,$5,$6,$7,$8,$9,$2,$3,0*
0 Add four circle primitives for the rounded corners*
1,1,$1+$1,$2,$3*
1,1,$1+$1,$4,$5*
1,1,$1+$1,$6,$7*
1,1,$1+$1,$8,$9*
0 Add four rect primitives between the rounded corners*
20,1,$1+$1,$2,$3,$4,$5,0*
20,1,$1+$1,$4,$5,$6,$7,0*
20,1,$1+$1,$6,$7,$8,$9,0*
20,1,$1+$1,$8,$9,$2,$3,0*%
G04 Aperture macros list end*
%TA.AperFunction,ComponentPad*%
%ADD10R,1.700000X1.700000*%
%TD*%
%TA.AperFunction,ComponentPad*%
%ADD11O,1.700000X1.700000*%
%TD*%
%TA.AperFunction,ComponentPad*%
%ADD12C,2.000000*%
%TD*%
%TA.AperFunction,ComponentPad*%
%ADD13RoundRect,0.250000X-0.350000X-0.625000X0.350000X-0.625000X0.350000X0.625000X-0.350000X0.625000X0*%
%TD*%
%TA.AperFunction,ComponentPad*%
%ADD14O,1.200000X1.750000*%
%TD*%
%TA.AperFunction,ComponentPad*%
%ADD15R,2.600000X2.600000*%
%TD*%
%TA.AperFunction,ComponentPad*%
%ADD16C,2.600000*%
%TD*%
%TA.AperFunction,ComponentPad*%
%ADD17C,1.700000*%
%TD*%
%TA.AperFunction,ComponentPad*%
%ADD18C,1.404000*%
%TD*%
%TA.AperFunction,ComponentPad*%
%ADD19C,1.304000*%
%TD*%
%TA.AperFunction,ComponentPad*%
%ADD20C,0.804000*%
%TD*%
%TA.AperFunction,ViaPad*%
%ADD21C,0.700000*%
%TD*%
%TA.AperFunction,ViaPad*%
%ADD22C,1.000000*%
%TD*%
G04 APERTURE END LIST*
D10*
%TO.N,+3.3V*%
%TO.C,3.3V*%
X153650000Y-120540000D03*
D11*
X153650000Y-118000000D03*
X153650000Y-115460000D03*
%TD*%
D12*
%TO.N,/button_pin*%
%TO.C,Button1*%
X148750000Y-104750000D03*
X155250000Y-104750000D03*
%TO.N,Net-(Button1-Pad2)*%
X148750000Y-109250000D03*
X155250000Y-109250000D03*
%TD*%
D10*
%TO.N,+5V*%
%TO.C,5V*%
X149000000Y-120540000D03*
D11*
X149000000Y-118000000D03*
X149000000Y-115460000D03*
%TD*%
D10*
%TO.N,GND*%
%TO.C,GND*%
X144350000Y-120540000D03*
D11*
X144350000Y-118000000D03*
X144350000Y-115460000D03*
%TD*%
D13*
%TO.N,GND*%
%TO.C,servo11*%
X165000000Y-71000000D03*
D14*
%TO.N,VCC*%
X167000000Y-71000000D03*
%TO.N,Net-(IC2-A2)*%
X169000000Y-71000000D03*
%TD*%
D15*
%TO.N,VCC*%
%TO.C,Main-Terminal1*%
X115695000Y-107455000D03*
D16*
%TO.N,GND*%
X115695000Y-112535000D03*
%TD*%
D14*
%TO.N,Net-(IC2-A2)*%
%TO.C,servo10*%
X180000000Y-105500000D03*
%TO.N,VCC*%
X178000000Y-105500000D03*
D13*
%TO.N,GND*%
X176000000Y-105500000D03*
%TD*%
%TO.N,GND*%
%TO.C,servo1*%
X165000000Y-85450000D03*
D14*
%TO.N,VCC*%
X167000000Y-85450000D03*
%TO.N,Net-(IC2-A2)*%
X169000000Y-85450000D03*
%TD*%
D10*
%TO.N,/serial_rx4*%
%TO.C,S4*%
X132490000Y-117990000D03*
D11*
%TO.N,/serial_tx4*%
X132490000Y-120530000D03*
%TD*%
D13*
%TO.N,GND*%
%TO.C,servo9*%
X165000000Y-112450000D03*
D14*
%TO.N,VCC*%
X167000000Y-112450000D03*
%TO.N,Net-(IC2-A2)*%
X169000000Y-112450000D03*
%TD*%
%TO.N,Net-(IC2-A2)*%
%TO.C,servo3*%
X180000000Y-85050000D03*
%TO.N,VCC*%
X178000000Y-85050000D03*
D13*
%TO.N,GND*%
X176000000Y-85050000D03*
%TD*%
D14*
%TO.N,Net-(IC2-A2)*%
%TO.C,servo7*%
X180000000Y-91500000D03*
%TO.N,VCC*%
X178000000Y-91500000D03*
D13*
%TO.N,GND*%
X176000000Y-91500000D03*
%TD*%
D14*
%TO.N,Net-(IC2-A2)*%
%TO.C,servo5*%
X180000000Y-98500000D03*
%TO.N,VCC*%
X178000000Y-98500000D03*
D13*
%TO.N,GND*%
X176000000Y-98500000D03*
%TD*%
%TO.N,GND*%
%TO.C,servo8*%
X165000000Y-99000000D03*
D14*
%TO.N,VCC*%
X167000000Y-99000000D03*
%TO.N,Net-(IC2-A2)*%
X169000000Y-99000000D03*
%TD*%
D13*
%TO.N,GND*%
%TO.C,servo4*%
X165000000Y-92000000D03*
D14*
%TO.N,VCC*%
X167000000Y-92000000D03*
%TO.N,Net-(IC2-A2)*%
X169000000Y-92000000D03*
%TD*%
D10*
%TO.N,/serial_rx5*%
%TO.C,S5*%
X137140000Y-117990000D03*
D11*
%TO.N,/serial_tx5*%
X137140000Y-120530000D03*
%TD*%
D14*
%TO.N,Net-(IC2-A2)*%
%TO.C,servo2*%
X180000000Y-78500000D03*
%TO.N,VCC*%
X178000000Y-78500000D03*
D13*
%TO.N,GND*%
X176000000Y-78500000D03*
%TD*%
D10*
%TO.N,Net-(J2-Pin_1)*%
%TO.C,J2*%
X127460000Y-107000000D03*
D11*
%TO.N,Net-(J2-Pin_2)*%
X130000000Y-107000000D03*
%TO.N,Net-(J2-Pin_3)*%
X132540000Y-107000000D03*
%TO.N,Net-(J2-Pin_4)*%
X135080000Y-107000000D03*
%TD*%
D10*
%TO.N,/serial_rx3*%
%TO.C,S3*%
X127840000Y-117990000D03*
D11*
%TO.N,/serial_tx3*%
X127840000Y-120530000D03*
%TD*%
D13*
%TO.N,GND*%
%TO.C,servo6*%
X165000000Y-106000000D03*
D14*
%TO.N,VCC*%
X167000000Y-106000000D03*
%TO.N,Net-(IC2-A2)*%
X169000000Y-106000000D03*
%TD*%
D13*
%TO.N,GND*%
%TO.C,servo13*%
X165000000Y-78450000D03*
D14*
%TO.N,VCC*%
X167000000Y-78450000D03*
%TO.N,Net-(IC2-A2)*%
X169000000Y-78450000D03*
%TD*%
D10*
%TO.N,Net-(J1-Pin_1)*%
%TO.C,J1*%
X127460000Y-111650000D03*
D11*
%TO.N,Net-(J1-Pin_2)*%
X130000000Y-111650000D03*
%TO.N,Net-(J1-Pin_3)*%
X132540000Y-111650000D03*
%TO.N,Net-(J1-Pin_4)*%
X135080000Y-111650000D03*
%TD*%
D14*
%TO.N,Net-(IC2-A2)*%
%TO.C,servo12*%
X180000000Y-112250000D03*
%TO.N,VCC*%
X178000000Y-112250000D03*
D13*
%TO.N,GND*%
X176000000Y-112250000D03*
%TD*%
D10*
%TO.N,GND*%
%TO.C,U2*%
X145789500Y-81625000D03*
D17*
%TO.N,+3.3V*%
X143249500Y-81625000D03*
%TO.N,/NRF_CE*%
X145789500Y-79085000D03*
%TO.N,/NRF_CS*%
X143249500Y-79085000D03*
%TO.N,/NRF_SCK*%
X145789500Y-76545000D03*
%TO.N,/NRF_MOSI*%
X143249500Y-76545000D03*
%TO.N,/NRF_MISO*%
X145789500Y-74005000D03*
%TO.N,unconnected-(U2-IRQ-Pad8)*%
X143249500Y-74005000D03*
%TD*%
D18*
%TO.N,GND*%
%TO.C,U1*%
X111725000Y-102620000D03*
%TO.N,/servo_rx1*%
X114265000Y-102620000D03*
%TO.N,/servo_tx1*%
X116805000Y-102620000D03*
%TO.N,/servo_dir*%
X119345000Y-102620000D03*
%TO.N,/button_pin*%
X121885000Y-102620000D03*
%TO.N,unconnected-(U1-4_BCLK2-Pad6)*%
X124425000Y-102620000D03*
%TO.N,/BNO_RESET*%
X126965000Y-102620000D03*
%TO.N,/BNO_INT*%
X129505000Y-102620000D03*
%TO.N,unconnected-(U1-7_RX2_OUT1A-Pad9)*%
X132045000Y-102620000D03*
%TO.N,unconnected-(U1-8_TX2_IN1-Pad10)*%
X134585000Y-102620000D03*
%TO.N,/NRF_CE*%
X137125000Y-102620000D03*
%TO.N,/NRF_CS*%
X139665000Y-102620000D03*
%TO.N,/NRF_MOSI*%
X142205000Y-102620000D03*
%TO.N,/NRF_MISO*%
X144745000Y-102620000D03*
%TO.N,unconnected-(U1-VBAT-Pad15)*%
X144745000Y-100080000D03*
%TO.N,unconnected-(U1-3V3-Pad16)*%
X144745000Y-97540000D03*
%TO.N,GND*%
X144745000Y-95000000D03*
%TO.N,unconnected-(U1-PROGRAM-Pad18)*%
X144745000Y-92460000D03*
%TO.N,unconnected-(U1-ON_OFF-Pad19)*%
X144745000Y-89920000D03*
%TO.N,/NRF_SCK*%
X144745000Y-87380000D03*
%TO.N,/serial_rx3*%
X142205000Y-87380000D03*
%TO.N,/serial_tx3*%
X139665000Y-87380000D03*
%TO.N,/serial_rx4*%
X137125000Y-87380000D03*
%TO.N,/serial_tx4*%
X134585000Y-87380000D03*
%TO.N,/SDA*%
X132045000Y-87380000D03*
%TO.N,/SCL*%
X129505000Y-87380000D03*
%TO.N,/serial_rx5*%
X126965000Y-87380000D03*
%TO.N,/serial_tx5*%
X124425000Y-87380000D03*
%TO.N,unconnected-(U1-22_A8_CTX1-Pad29)*%
X121885000Y-87380000D03*
%TO.N,unconnected-(U1-23_A9_CRX1_MCLK1-Pad30)*%
X119345000Y-87380000D03*
%TO.N,unconnected-(U1-3V3-Pad31)*%
X116805000Y-87380000D03*
%TO.N,GND*%
X114265000Y-87380000D03*
%TO.N,+5V*%
X111725000Y-87380000D03*
%TO.N,unconnected-(U1-VUSB-Pad34)*%
X114265000Y-89920000D03*
D19*
%TO.N,Net-(J1-Pin_1)*%
X139665000Y-89920000D03*
%TO.N,Net-(J1-Pin_2)*%
X137125000Y-89920000D03*
%TO.N,Net-(J1-Pin_3)*%
X139665000Y-92460000D03*
%TO.N,Net-(J1-Pin_4)*%
X137125000Y-92460000D03*
%TO.N,Net-(J2-Pin_1)*%
X139665000Y-95000000D03*
%TO.N,Net-(J2-Pin_2)*%
X137125000Y-95000000D03*
%TO.N,Net-(J2-Pin_3)*%
X139665000Y-97540000D03*
%TO.N,Net-(J2-Pin_4)*%
X137125000Y-97540000D03*
%TO.N,unconnected-(U1-32_OUT1B-Pad43)*%
X139665000Y-100080000D03*
%TO.N,unconnected-(U1-33_MCLK2-Pad44)*%
X137125000Y-100080000D03*
D20*
%TO.N,unconnected-(U1-34_DAT1_MISO2-Pad45)*%
X118863400Y-91500000D03*
%TO.N,unconnected-(U1-35_DAT0_MOSI2-Pad46)*%
X118863400Y-92500000D03*
%TO.N,unconnected-(U1-GND-Pad47)*%
X118863400Y-93500000D03*
%TO.N,unconnected-(U1-36_CLK_CS2-Pad48)*%
X118863400Y-94500000D03*
%TO.N,unconnected-(U1-3V3-Pad49)*%
X118863400Y-95500000D03*
%TO.N,unconnected-(U1-37_CMD_SCK2-Pad50)*%
X118863400Y-96500000D03*
%TO.N,unconnected-(U1-38_DAT3_RX5-Pad51)*%
X118863400Y-97500000D03*
%TO.N,unconnected-(U1-39_DAT2_TX5-Pad52)*%
X118863400Y-98500000D03*
D19*
%TO.N,unconnected-(U1-D--Pad53)*%
X112995000Y-93730000D03*
%TO.N,unconnected-(U1-D+-Pad54)*%
X112995000Y-96270000D03*
%TD*%
D21*
%TO.N,+3.3V*%
X147400000Y-88000000D03*
D22*
X152530000Y-79830000D03*
D21*
%TO.N,+5V*%
X131620000Y-81360000D03*
D22*
X123200000Y-83600000D03*
X127600000Y-81000000D03*
X153330000Y-89380000D03*
D21*
X125600000Y-69400000D03*
D22*
%TO.N,VCC*%
X161070000Y-86960000D03*
X161030000Y-84320000D03*
D21*
%TO.N,/servo_tx1*%
X120000000Y-78400000D03*
%TO.N,Net-(IC1-B2)*%
X137600000Y-78200000D03*
X127600000Y-78400000D03*
%TO.N,/servo_dir*%
X118800000Y-79800000D03*
%TO.N,Net-(IC1-B3)*%
X138600000Y-78000000D03*
X126823020Y-76802194D03*
%TO.N,/servo_rx1*%
X119000000Y-78400000D03*
%TO.N,Net-(IC2-A2)*%
X133780000Y-82010000D03*
%TO.N,Net-(J1-Pin_4)*%
X124445000Y-100735000D03*
%TO.N,Net-(J2-Pin_4)*%
X134010000Y-96430000D03*
X125554975Y-95380000D03*
%TO.N,/BNO_RESET*%
X139287500Y-82512500D03*
%TO.N,/SDA*%
X145280000Y-68860000D03*
%TO.N,/SCL*%
X141020000Y-72070000D03*
%TO.N,/serial_tx5*%
X114760000Y-100180000D03*
%TO.N,/serial_rx5*%
X117290000Y-90550000D03*
X121440000Y-90100000D03*
%TO.N,/BNO_INT*%
X126600000Y-97200000D03*
X139800000Y-70600000D03*
%TO.N,GND*%
X125800000Y-78400000D03*
X139000000Y-75000000D03*
D22*
X157620000Y-82440000D03*
D21*
X129600000Y-73200000D03*
X140200000Y-69000000D03*
D22*
X159030000Y-101390000D03*
X148150000Y-95680000D03*
X116750000Y-84750000D03*
D21*
X131800000Y-79400000D03*
X159200000Y-105800000D03*
D22*
X159000000Y-73890000D03*
%TD*%
%TA.AperFunction,Conductor*%
%TO.N,VCC*%
G36*
X180002702Y-66700617D02*
G01*
X180386771Y-66717386D01*
X180397506Y-66718326D01*
X180775971Y-66768152D01*
X180786597Y-66770025D01*
X181159284Y-66852648D01*
X181169710Y-66855442D01*
X181533765Y-66970227D01*
X181543911Y-66973920D01*
X181896578Y-67120000D01*
X181906369Y-67124566D01*
X182244942Y-67300816D01*
X182254310Y-67306224D01*
X182576244Y-67511318D01*
X182585105Y-67517523D01*
X182887930Y-67749889D01*
X182896217Y-67756843D01*
X183177635Y-68014715D01*
X183185284Y-68022364D01*
X183443156Y-68303782D01*
X183450110Y-68312069D01*
X183682476Y-68614894D01*
X183688681Y-68623755D01*
X183893775Y-68945689D01*
X183899183Y-68955057D01*
X184075430Y-69293623D01*
X184080002Y-69303427D01*
X184226075Y-69656078D01*
X184229775Y-69666244D01*
X184344554Y-70030278D01*
X184347354Y-70040727D01*
X184429971Y-70413389D01*
X184431849Y-70424042D01*
X184481671Y-70802473D01*
X184482614Y-70813249D01*
X184499382Y-71197297D01*
X184499500Y-71202706D01*
X184499500Y-119197293D01*
X184499382Y-119202702D01*
X184482614Y-119586750D01*
X184481671Y-119597526D01*
X184431849Y-119975957D01*
X184429971Y-119986610D01*
X184347354Y-120359272D01*
X184344554Y-120369721D01*
X184229775Y-120733755D01*
X184226075Y-120743921D01*
X184080002Y-121096572D01*
X184075430Y-121106376D01*
X183899183Y-121444942D01*
X183893775Y-121454310D01*
X183688681Y-121776244D01*
X183682476Y-121785105D01*
X183450110Y-122087930D01*
X183443156Y-122096217D01*
X183185284Y-122377635D01*
X183177635Y-122385284D01*
X182896217Y-122643156D01*
X182887930Y-122650110D01*
X182585105Y-122882476D01*
X182576244Y-122888681D01*
X182254310Y-123093775D01*
X182244942Y-123099183D01*
X181906376Y-123275430D01*
X181896572Y-123280002D01*
X181543921Y-123426075D01*
X181533755Y-123429775D01*
X181169721Y-123544554D01*
X181159272Y-123547354D01*
X180786610Y-123629971D01*
X180775957Y-123631849D01*
X180397526Y-123681671D01*
X180386750Y-123682614D01*
X180002703Y-123699382D01*
X179997294Y-123699500D01*
X114002706Y-123699500D01*
X113997297Y-123699382D01*
X113613249Y-123682614D01*
X113602473Y-123681671D01*
X113224042Y-123631849D01*
X113213389Y-123629971D01*
X112840727Y-123547354D01*
X112830278Y-123544554D01*
X112466244Y-123429775D01*
X112456078Y-123426075D01*
X112103427Y-123280002D01*
X112093623Y-123275430D01*
X111755057Y-123099183D01*
X111745689Y-123093775D01*
X111423755Y-122888681D01*
X111414894Y-122882476D01*
X111112069Y-122650110D01*
X111103782Y-122643156D01*
X110822364Y-122385284D01*
X110814715Y-122377635D01*
X110556843Y-122096217D01*
X110549889Y-122087930D01*
X110317523Y-121785105D01*
X110311318Y-121776244D01*
X110106224Y-121454310D01*
X110100816Y-121444942D01*
X110097135Y-121437870D01*
X109924566Y-121106369D01*
X109919997Y-121096572D01*
X109773920Y-120743911D01*
X109770224Y-120733755D01*
X109655442Y-120369710D01*
X109652648Y-120359284D01*
X109570025Y-119986597D01*
X109568152Y-119975971D01*
X109518326Y-119597506D01*
X109517386Y-119586771D01*
X109500618Y-119202702D01*
X109500500Y-119197293D01*
X109500500Y-119078711D01*
X112149500Y-119078711D01*
X112149500Y-119321288D01*
X112181161Y-119561785D01*
X112243947Y-119796104D01*
X112336773Y-120020205D01*
X112336776Y-120020212D01*
X112458064Y-120230289D01*
X112458066Y-120230292D01*
X112458067Y-120230293D01*
X112605733Y-120422736D01*
X112605739Y-120422743D01*
X112777256Y-120594260D01*
X112777262Y-120594265D01*
X112969711Y-120741936D01*
X113179788Y-120863224D01*
X113403900Y-120956054D01*
X113638211Y-121018838D01*
X113818586Y-121042584D01*
X113878711Y-121050500D01*
X113878712Y-121050500D01*
X114121289Y-121050500D01*
X114169388Y-121044167D01*
X114361789Y-121018838D01*
X114596100Y-120956054D01*
X114820212Y-120863224D01*
X115030289Y-120741936D01*
X115222738Y-120594265D01*
X115287004Y-120529999D01*
X126484341Y-120529999D01*
X126484341Y-120530000D01*
X126504936Y-120765403D01*
X126504938Y-120765413D01*
X126566094Y-120993655D01*
X126566096Y-120993659D01*
X126566097Y-120993663D01*
X126618656Y-121106376D01*
X126665965Y-121207830D01*
X126665967Y-121207834D01*
X126774281Y-121362521D01*
X126801505Y-121401401D01*
X126968599Y-121568495D01*
X127039108Y-121617866D01*
X127162165Y-121704032D01*
X127162167Y-121704033D01*
X127162170Y-121704035D01*
X127376337Y-121803903D01*
X127604592Y-121865063D01*
X127792918Y-121881539D01*
X127839999Y-121885659D01*
X127840000Y-121885659D01*
X127840001Y-121885659D01*
X127879234Y-121882226D01*
X128075408Y-121865063D01*
X128303663Y-121803903D01*
X128517830Y-121704035D01*
X128711401Y-121568495D01*
X128878495Y-121401401D01*
X129014035Y-121207830D01*
X129113903Y-120993663D01*
X129175063Y-120765408D01*
X129195659Y-120530000D01*
X129195659Y-120529999D01*
X131134341Y-120529999D01*
X131134341Y-120530000D01*
X131154936Y-120765403D01*
X131154938Y-120765413D01*
X131216094Y-120993655D01*
X131216096Y-120993659D01*
X131216097Y-120993663D01*
X131268656Y-121106376D01*
X131315965Y-121207830D01*
X131315967Y-121207834D01*
X131424281Y-121362521D01*
X131451505Y-121401401D01*
X131618599Y-121568495D01*
X131689108Y-121617866D01*
X131812165Y-121704032D01*
X131812167Y-121704033D01*
X131812170Y-121704035D01*
X132026337Y-121803903D01*
X132254592Y-121865063D01*
X132442918Y-121881539D01*
X132489999Y-121885659D01*
X132490000Y-121885659D01*
X132490001Y-121885659D01*
X132529234Y-121882226D01*
X132725408Y-121865063D01*
X132953663Y-121803903D01*
X133167830Y-121704035D01*
X133361401Y-121568495D01*
X133528495Y-121401401D01*
X133664035Y-121207830D01*
X133763903Y-120993663D01*
X133825063Y-120765408D01*
X133845659Y-120530000D01*
X133845659Y-120529999D01*
X135784341Y-120529999D01*
X135784341Y-120530000D01*
X135804936Y-120765403D01*
X135804938Y-120765413D01*
X135866094Y-120993655D01*
X135866096Y-120993659D01*
X135866097Y-120993663D01*
X135918656Y-121106376D01*
X135965965Y-121207830D01*
X135965967Y-121207834D01*
X136074281Y-121362521D01*
X136101505Y-121401401D01*
X136268599Y-121568495D01*
X136339108Y-121617866D01*
X136462165Y-121704032D01*
X136462167Y-121704033D01*
X136462170Y-121704035D01*
X136676337Y-121803903D01*
X136904592Y-121865063D01*
X137092918Y-121881539D01*
X137139999Y-121885659D01*
X137140000Y-121885659D01*
X137140001Y-121885659D01*
X137179234Y-121882226D01*
X137375408Y-121865063D01*
X137603663Y-121803903D01*
X137817830Y-121704035D01*
X138011401Y-121568495D01*
X138178495Y-121401401D01*
X138314035Y-121207830D01*
X138413903Y-120993663D01*
X138475063Y-120765408D01*
X138495659Y-120530000D01*
X138475063Y-120294592D01*
X138413903Y-120066337D01*
X138314035Y-119852171D01*
X138178495Y-119658599D01*
X138056567Y-119536671D01*
X138023084Y-119475351D01*
X138028068Y-119405659D01*
X138069939Y-119349725D01*
X138100915Y-119332810D01*
X138232331Y-119283796D01*
X138347546Y-119197546D01*
X138433796Y-119082331D01*
X138484091Y-118947483D01*
X138490500Y-118887873D01*
X138490499Y-117092128D01*
X138484091Y-117032517D01*
X138457605Y-116961505D01*
X138433797Y-116897671D01*
X138433793Y-116897664D01*
X138347547Y-116782455D01*
X138347544Y-116782452D01*
X138232335Y-116696206D01*
X138232328Y-116696202D01*
X138097482Y-116645908D01*
X138097483Y-116645908D01*
X138037883Y-116639501D01*
X138037881Y-116639500D01*
X138037873Y-116639500D01*
X138037864Y-116639500D01*
X136242129Y-116639500D01*
X136242123Y-116639501D01*
X136182516Y-116645908D01*
X136047671Y-116696202D01*
X136047664Y-116696206D01*
X135932455Y-116782452D01*
X135932452Y-116782455D01*
X135846206Y-116897664D01*
X135846202Y-116897671D01*
X135795908Y-117032517D01*
X135789501Y-117092116D01*
X135789501Y-117092123D01*
X135789500Y-117092135D01*
X135789500Y-118887870D01*
X135789501Y-118887876D01*
X135795908Y-118947483D01*
X135846202Y-119082328D01*
X135846206Y-119082335D01*
X135932452Y-119197544D01*
X135932455Y-119197547D01*
X136047664Y-119283793D01*
X136047671Y-119283797D01*
X136179081Y-119332810D01*
X136235015Y-119374681D01*
X136259432Y-119440145D01*
X136244580Y-119508418D01*
X136223430Y-119536673D01*
X136101503Y-119658600D01*
X135965965Y-119852169D01*
X135965964Y-119852171D01*
X135866098Y-120066335D01*
X135866094Y-120066344D01*
X135804938Y-120294586D01*
X135804936Y-120294596D01*
X135784341Y-120529999D01*
X133845659Y-120529999D01*
X133825063Y-120294592D01*
X133763903Y-120066337D01*
X133664035Y-119852171D01*
X133528495Y-119658599D01*
X133406567Y-119536671D01*
X133373084Y-119475351D01*
X133378068Y-119405659D01*
X133419939Y-119349725D01*
X133450915Y-119332810D01*
X133582331Y-119283796D01*
X133697546Y-119197546D01*
X133783796Y-119082331D01*
X133834091Y-118947483D01*
X133840500Y-118887873D01*
X133840499Y-117092128D01*
X133834091Y-117032517D01*
X133807605Y-116961505D01*
X133783797Y-116897671D01*
X133783793Y-116897664D01*
X133697547Y-116782455D01*
X133697544Y-116782452D01*
X133582335Y-116696206D01*
X133582328Y-116696202D01*
X133447482Y-116645908D01*
X133447483Y-116645908D01*
X133387883Y-116639501D01*
X133387881Y-116639500D01*
X133387873Y-116639500D01*
X133387864Y-116639500D01*
X131592129Y-116639500D01*
X131592123Y-116639501D01*
X131532516Y-116645908D01*
X131397671Y-116696202D01*
X131397664Y-116696206D01*
X131282455Y-116782452D01*
X131282452Y-116782455D01*
X131196206Y-116897664D01*
X131196202Y-116897671D01*
X131145908Y-117032517D01*
X131139501Y-117092116D01*
X131139501Y-117092123D01*
X131139500Y-117092135D01*
X131139500Y-118887870D01*
X131139501Y-118887876D01*
X131145908Y-118947483D01*
X131196202Y-119082328D01*
X131196206Y-119082335D01*
X131282452Y-119197544D01*
X131282455Y-119197547D01*
X131397664Y-119283793D01*
X131397671Y-119283797D01*
X131529081Y-119332810D01*
X131585015Y-119374681D01*
X131609432Y-119440145D01*
X131594580Y-119508418D01*
X131573430Y-119536673D01*
X131451503Y-119658600D01*
X131315965Y-119852169D01*
X131315964Y-119852171D01*
X131216098Y-120066335D01*
X131216094Y-120066344D01*
X131154938Y-120294586D01*
X131154936Y-120294596D01*
X131134341Y-120529999D01*
X129195659Y-120529999D01*
X129175063Y-120294592D01*
X129113903Y-120066337D01*
X129014035Y-119852171D01*
X128878495Y-119658599D01*
X128756567Y-119536671D01*
X128723084Y-119475351D01*
X128728068Y-119405659D01*
X128769939Y-119349725D01*
X128800915Y-119332810D01*
X128932331Y-119283796D01*
X129047546Y-119197546D01*
X129133796Y-119082331D01*
X129184091Y-118947483D01*
X129190500Y-118887873D01*
X129190499Y-117092128D01*
X129184091Y-117032517D01*
X129157605Y-116961505D01*
X129133797Y-116897671D01*
X129133793Y-116897664D01*
X129047547Y-116782455D01*
X129047544Y-116782452D01*
X128932335Y-116696206D01*
X128932328Y-116696202D01*
X128797482Y-116645908D01*
X128797483Y-116645908D01*
X128737883Y-116639501D01*
X128737881Y-116639500D01*
X128737873Y-116639500D01*
X128737864Y-116639500D01*
X126942129Y-116639500D01*
X126942123Y-116639501D01*
X126882516Y-116645908D01*
X126747671Y-116696202D01*
X126747664Y-116696206D01*
X126632455Y-116782452D01*
X126632452Y-116782455D01*
X126546206Y-116897664D01*
X126546202Y-116897671D01*
X126495908Y-117032517D01*
X126489501Y-117092116D01*
X126489501Y-117092123D01*
X126489500Y-117092135D01*
X126489500Y-118887870D01*
X126489501Y-118887876D01*
X126495908Y-118947483D01*
X126546202Y-119082328D01*
X126546206Y-119082335D01*
X126632452Y-119197544D01*
X126632455Y-119197547D01*
X126747664Y-119283793D01*
X126747671Y-119283797D01*
X126879081Y-119332810D01*
X126935015Y-119374681D01*
X126959432Y-119440145D01*
X126944580Y-119508418D01*
X126923430Y-119536673D01*
X126801503Y-119658600D01*
X126665965Y-119852169D01*
X126665964Y-119852171D01*
X126566098Y-120066335D01*
X126566094Y-120066344D01*
X126504938Y-120294586D01*
X126504936Y-120294596D01*
X126484341Y-120529999D01*
X115287004Y-120529999D01*
X115394265Y-120422738D01*
X115541936Y-120230289D01*
X115663224Y-120020212D01*
X115756054Y-119796100D01*
X115818838Y-119561789D01*
X115850500Y-119321288D01*
X115850500Y-119078712D01*
X115818838Y-118838211D01*
X115756054Y-118603900D01*
X115663224Y-118379788D01*
X115541936Y-118169711D01*
X115481018Y-118090321D01*
X115394266Y-117977263D01*
X115394260Y-117977256D01*
X115222743Y-117805739D01*
X115222736Y-117805733D01*
X115030293Y-117658067D01*
X115030292Y-117658066D01*
X115030289Y-117658064D01*
X114820212Y-117536776D01*
X114819152Y-117536337D01*
X114596104Y-117443947D01*
X114361785Y-117381161D01*
X114121289Y-117349500D01*
X114121288Y-117349500D01*
X113878712Y-117349500D01*
X113878711Y-117349500D01*
X113638214Y-117381161D01*
X113403895Y-117443947D01*
X113179794Y-117536773D01*
X113179785Y-117536777D01*
X112969706Y-117658067D01*
X112777263Y-117805733D01*
X112777256Y-117805739D01*
X112605739Y-117977256D01*
X112605733Y-117977263D01*
X112458067Y-118169706D01*
X112336777Y-118379785D01*
X112336773Y-118379794D01*
X112243947Y-118603895D01*
X112181161Y-118838214D01*
X112149500Y-119078711D01*
X109500500Y-119078711D01*
X109500500Y-115459999D01*
X142994341Y-115459999D01*
X142994341Y-115460000D01*
X143014936Y-115695403D01*
X143014938Y-115695413D01*
X143076094Y-115923655D01*
X143076096Y-115923659D01*
X143076097Y-115923663D01*
X143175965Y-116137830D01*
X143175967Y-116137834D01*
X143311501Y-116331395D01*
X143311506Y-116331402D01*
X143478597Y-116498493D01*
X143478603Y-116498498D01*
X143664158Y-116628425D01*
X143707783Y-116683002D01*
X143714977Y-116752500D01*
X143683454Y-116814855D01*
X143664158Y-116831575D01*
X143478597Y-116961505D01*
X143311505Y-117128597D01*
X143175965Y-117322169D01*
X143175964Y-117322171D01*
X143076098Y-117536335D01*
X143076094Y-117536344D01*
X143014938Y-117764586D01*
X143014936Y-117764596D01*
X142994341Y-117999999D01*
X142994341Y-118000000D01*
X143014936Y-118235403D01*
X143014938Y-118235413D01*
X143076094Y-118463655D01*
X143076096Y-118463659D01*
X143076097Y-118463663D01*
X143141491Y-118603900D01*
X143175965Y-118677830D01*
X143175967Y-118677834D01*
X143284281Y-118832521D01*
X143311501Y-118871396D01*
X143311506Y-118871402D01*
X143433430Y-118993326D01*
X143466915Y-119054649D01*
X143461931Y-119124341D01*
X143420059Y-119180274D01*
X143389083Y-119197189D01*
X143257669Y-119246203D01*
X143257664Y-119246206D01*
X143142455Y-119332452D01*
X143142452Y-119332455D01*
X143056206Y-119447664D01*
X143056202Y-119447671D01*
X143005908Y-119582517D01*
X143004295Y-119597526D01*
X142999501Y-119642123D01*
X142999500Y-119642135D01*
X142999500Y-121437870D01*
X142999501Y-121437876D01*
X143005908Y-121497483D01*
X143056202Y-121632328D01*
X143056206Y-121632335D01*
X143142452Y-121747544D01*
X143142455Y-121747547D01*
X143257664Y-121833793D01*
X143257671Y-121833797D01*
X143392517Y-121884091D01*
X143392516Y-121884091D01*
X143399444Y-121884835D01*
X143452127Y-121890500D01*
X145247872Y-121890499D01*
X145307483Y-121884091D01*
X145442331Y-121833796D01*
X145557546Y-121747546D01*
X145643796Y-121632331D01*
X145694091Y-121497483D01*
X145700500Y-121437873D01*
X145700499Y-119642128D01*
X145694091Y-119582517D01*
X145686358Y-119561785D01*
X145643797Y-119447671D01*
X145643793Y-119447664D01*
X145557547Y-119332455D01*
X145557544Y-119332452D01*
X145442335Y-119246206D01*
X145442328Y-119246202D01*
X145310917Y-119197189D01*
X145254983Y-119155318D01*
X145230566Y-119089853D01*
X145245418Y-119021580D01*
X145266563Y-118993332D01*
X145388495Y-118871401D01*
X145524035Y-118677830D01*
X145623903Y-118463663D01*
X145685063Y-118235408D01*
X145705659Y-118000000D01*
X145685063Y-117764592D01*
X145623903Y-117536337D01*
X145524035Y-117322171D01*
X145388495Y-117128599D01*
X145388494Y-117128597D01*
X145221402Y-116961506D01*
X145221396Y-116961501D01*
X145035842Y-116831575D01*
X144992217Y-116776998D01*
X144985023Y-116707500D01*
X145016546Y-116645145D01*
X145035842Y-116628425D01*
X145058026Y-116612891D01*
X145221401Y-116498495D01*
X145388495Y-116331401D01*
X145524035Y-116137830D01*
X145623903Y-115923663D01*
X145685063Y-115695408D01*
X145705659Y-115460000D01*
X145705659Y-115459999D01*
X147644341Y-115459999D01*
X147644341Y-115460000D01*
X147664936Y-115695403D01*
X147664938Y-115695413D01*
X147726094Y-115923655D01*
X147726096Y-115923659D01*
X147726097Y-115923663D01*
X147825965Y-116137830D01*
X147825967Y-116137834D01*
X147961501Y-116331395D01*
X147961506Y-116331402D01*
X148128597Y-116498493D01*
X148128603Y-116498498D01*
X148314158Y-116628425D01*
X148357783Y-116683002D01*
X148364977Y-116752500D01*
X148333454Y-116814855D01*
X148314158Y-116831575D01*
X148128597Y-116961505D01*
X147961505Y-117128597D01*
X147825965Y-117322169D01*
X147825964Y-117322171D01*
X147726098Y-117536335D01*
X147726094Y-117536344D01*
X147664938Y-117764586D01*
X147664936Y-117764596D01*
X147644341Y-117999999D01*
X147644341Y-118000000D01*
X147664936Y-118235403D01*
X147664938Y-118235413D01*
X147726094Y-118463655D01*
X147726096Y-118463659D01*
X147726097Y-118463663D01*
X147791491Y-118603900D01*
X147825965Y-118677830D01*
X147825967Y-118677834D01*
X147934281Y-118832521D01*
X147961501Y-118871396D01*
X147961506Y-118871402D01*
X148083430Y-118993326D01*
X148116915Y-119054649D01*
X148111931Y-119124341D01*
X148070059Y-119180274D01*
X148039083Y-119197189D01*
X147907669Y-119246203D01*
X147907664Y-119246206D01*
X147792455Y-119332452D01*
X147792452Y-119332455D01*
X147706206Y-119447664D01*
X147706202Y-119447671D01*
X147655908Y-119582517D01*
X147654295Y-119597526D01*
X147649501Y-119642123D01*
X147649500Y-119642135D01*
X147649500Y-121437870D01*
X147649501Y-121437876D01*
X147655908Y-121497483D01*
X147706202Y-121632328D01*
X147706206Y-121632335D01*
X147792452Y-121747544D01*
X147792455Y-121747547D01*
X147907664Y-121833793D01*
X147907671Y-121833797D01*
X148042517Y-121884091D01*
X148042516Y-121884091D01*
X148049444Y-121884835D01*
X148102127Y-121890500D01*
X149897872Y-121890499D01*
X149957483Y-121884091D01*
X150092331Y-121833796D01*
X150207546Y-121747546D01*
X150293796Y-121632331D01*
X150344091Y-121497483D01*
X150350500Y-121437873D01*
X150350499Y-119642128D01*
X150344091Y-119582517D01*
X150336358Y-119561785D01*
X150293797Y-119447671D01*
X150293793Y-119447664D01*
X150207547Y-119332455D01*
X150207544Y-119332452D01*
X150092335Y-119246206D01*
X150092328Y-119246202D01*
X149960917Y-119197189D01*
X149904983Y-119155318D01*
X149880566Y-119089853D01*
X149895418Y-119021580D01*
X149916563Y-118993332D01*
X150038495Y-118871401D01*
X150174035Y-118677830D01*
X150273903Y-118463663D01*
X150335063Y-118235408D01*
X150355659Y-118000000D01*
X150335063Y-117764592D01*
X150273903Y-117536337D01*
X150174035Y-117322171D01*
X150038495Y-117128599D01*
X150038494Y-117128597D01*
X149871402Y-116961506D01*
X149871396Y-116961501D01*
X149685842Y-116831575D01*
X149642217Y-116776998D01*
X149635023Y-116707500D01*
X149666546Y-116645145D01*
X149685842Y-116628425D01*
X149708026Y-116612891D01*
X149871401Y-116498495D01*
X150038495Y-116331401D01*
X150174035Y-116137830D01*
X150273903Y-115923663D01*
X150335063Y-115695408D01*
X150355659Y-115460000D01*
X150355659Y-115459999D01*
X152294341Y-115459999D01*
X152294341Y-115460000D01*
X152314936Y-115695403D01*
X152314938Y-115695413D01*
X152376094Y-115923655D01*
X152376096Y-115923659D01*
X152376097Y-115923663D01*
X152475965Y-116137830D01*
X152475967Y-116137834D01*
X152611501Y-116331395D01*
X152611506Y-116331402D01*
X152778597Y-116498493D01*
X152778603Y-116498498D01*
X152964158Y-116628425D01*
X153007783Y-116683002D01*
X153014977Y-116752500D01*
X152983454Y-116814855D01*
X152964158Y-116831575D01*
X152778597Y-116961505D01*
X152611505Y-117128597D01*
X152475965Y-117322169D01*
X152475964Y-117322171D01*
X152376098Y-117536335D01*
X152376094Y-117536344D01*
X152314938Y-117764586D01*
X152314936Y-117764596D01*
X152294341Y-117999999D01*
X152294341Y-118000000D01*
X152314936Y-118235403D01*
X152314938Y-118235413D01*
X152376094Y-118463655D01*
X152376096Y-118463659D01*
X152376097Y-118463663D01*
X152441491Y-118603900D01*
X152475965Y-118677830D01*
X152475967Y-118677834D01*
X152584281Y-118832521D01*
X152611501Y-118871396D01*
X152611506Y-118871402D01*
X152733430Y-118993326D01*
X152766915Y-119054649D01*
X152761931Y-119124341D01*
X152720059Y-119180274D01*
X152689083Y-119197189D01*
X152557669Y-119246203D01*
X152557664Y-119246206D01*
X152442455Y-119332452D01*
X152442452Y-119332455D01*
X152356206Y-119447664D01*
X152356202Y-119447671D01*
X152305908Y-119582517D01*
X152304295Y-119597526D01*
X152299501Y-119642123D01*
X152299500Y-119642135D01*
X152299500Y-121437870D01*
X152299501Y-121437876D01*
X152305908Y-121497483D01*
X152356202Y-121632328D01*
X152356206Y-121632335D01*
X152442452Y-121747544D01*
X152442455Y-121747547D01*
X152557664Y-121833793D01*
X152557671Y-121833797D01*
X152692517Y-121884091D01*
X152692516Y-121884091D01*
X152699444Y-121884835D01*
X152752127Y-121890500D01*
X154547872Y-121890499D01*
X154607483Y-121884091D01*
X154742331Y-121833796D01*
X154857546Y-121747546D01*
X154943796Y-121632331D01*
X154994091Y-121497483D01*
X155000500Y-121437873D01*
X155000499Y-119642128D01*
X154994091Y-119582517D01*
X154986358Y-119561785D01*
X154943797Y-119447671D01*
X154943793Y-119447664D01*
X154857547Y-119332455D01*
X154857544Y-119332452D01*
X154742335Y-119246206D01*
X154742328Y-119246202D01*
X154610917Y-119197189D01*
X154554983Y-119155318D01*
X154530566Y-119089853D01*
X154532990Y-119078711D01*
X178149500Y-119078711D01*
X178149500Y-119321288D01*
X178181161Y-119561785D01*
X178243947Y-119796104D01*
X178336773Y-120020205D01*
X178336776Y-120020212D01*
X178458064Y-120230289D01*
X178458066Y-120230292D01*
X178458067Y-120230293D01*
X178605733Y-120422736D01*
X178605739Y-120422743D01*
X178777256Y-120594260D01*
X178777262Y-120594265D01*
X178969711Y-120741936D01*
X179179788Y-120863224D01*
X179403900Y-120956054D01*
X179638211Y-121018838D01*
X179818586Y-121042584D01*
X179878711Y-121050500D01*
X179878712Y-121050500D01*
X180121289Y-121050500D01*
X180169388Y-121044167D01*
X180361789Y-121018838D01*
X180596100Y-120956054D01*
X180820212Y-120863224D01*
X181030289Y-120741936D01*
X181222738Y-120594265D01*
X181394265Y-120422738D01*
X181541936Y-120230289D01*
X181663224Y-120020212D01*
X181756054Y-119796100D01*
X181818838Y-119561789D01*
X181850500Y-119321288D01*
X181850500Y-119078712D01*
X181818838Y-118838211D01*
X181756054Y-118603900D01*
X181663224Y-118379788D01*
X181541936Y-118169711D01*
X181481018Y-118090321D01*
X181394266Y-117977263D01*
X181394260Y-117977256D01*
X181222743Y-117805739D01*
X181222736Y-117805733D01*
X181030293Y-117658067D01*
X181030292Y-117658066D01*
X181030289Y-117658064D01*
X180820212Y-117536776D01*
X180819152Y-117536337D01*
X180596104Y-117443947D01*
X180361785Y-117381161D01*
X180121289Y-117349500D01*
X180121288Y-117349500D01*
X179878712Y-117349500D01*
X179878711Y-117349500D01*
X179638214Y-117381161D01*
X179403895Y-117443947D01*
X179179794Y-117536773D01*
X179179785Y-117536777D01*
X178969706Y-117658067D01*
X178777263Y-117805733D01*
X178777256Y-117805739D01*
X178605739Y-117977256D01*
X178605733Y-117977263D01*
X178458067Y-118169706D01*
X178336777Y-118379785D01*
X178336773Y-118379794D01*
X178243947Y-118603895D01*
X178181161Y-118838214D01*
X178149500Y-119078711D01*
X154532990Y-119078711D01*
X154545418Y-119021580D01*
X154566563Y-118993332D01*
X154688495Y-118871401D01*
X154824035Y-118677830D01*
X154923903Y-118463663D01*
X154985063Y-118235408D01*
X155005659Y-118000000D01*
X154985063Y-117764592D01*
X154923903Y-117536337D01*
X154824035Y-117322171D01*
X154688495Y-117128599D01*
X154688494Y-117128597D01*
X154521402Y-116961506D01*
X154521396Y-116961501D01*
X154335842Y-116831575D01*
X154292217Y-116776998D01*
X154285023Y-116707500D01*
X154316546Y-116645145D01*
X154335842Y-116628425D01*
X154358026Y-116612891D01*
X154521401Y-116498495D01*
X154688495Y-116331401D01*
X154824035Y-116137830D01*
X154923903Y-115923663D01*
X154985063Y-115695408D01*
X155005659Y-115460000D01*
X154985063Y-115224592D01*
X154923903Y-114996337D01*
X154824035Y-114782171D01*
X154688495Y-114588599D01*
X154688494Y-114588597D01*
X154521402Y-114421506D01*
X154521395Y-114421501D01*
X154327834Y-114285967D01*
X154327830Y-114285965D01*
X154327828Y-114285964D01*
X154113663Y-114186097D01*
X154113659Y-114186096D01*
X154113655Y-114186094D01*
X153885413Y-114124938D01*
X153885403Y-114124936D01*
X153650001Y-114104341D01*
X153649999Y-114104341D01*
X153414596Y-114124936D01*
X153414586Y-114124938D01*
X153186344Y-114186094D01*
X153186335Y-114186098D01*
X152972171Y-114285964D01*
X152972169Y-114285965D01*
X152778597Y-114421505D01*
X152611505Y-114588597D01*
X152475965Y-114782169D01*
X152475964Y-114782171D01*
X152376098Y-114996335D01*
X152376094Y-114996344D01*
X152314938Y-115224586D01*
X152314936Y-115224596D01*
X152294341Y-115459999D01*
X150355659Y-115459999D01*
X150335063Y-115224592D01*
X150273903Y-114996337D01*
X150174035Y-114782171D01*
X150038495Y-114588599D01*
X150038494Y-114588597D01*
X149871402Y-114421506D01*
X149871395Y-114421501D01*
X149677834Y-114285967D01*
X149677830Y-114285965D01*
X149677828Y-114285964D01*
X149463663Y-114186097D01*
X149463659Y-114186096D01*
X149463655Y-114186094D01*
X149235413Y-114124938D01*
X149235403Y-114124936D01*
X149000001Y-114104341D01*
X148999999Y-114104341D01*
X148764596Y-114124936D01*
X148764586Y-114124938D01*
X148536344Y-114186094D01*
X148536335Y-114186098D01*
X148322171Y-114285964D01*
X148322169Y-114285965D01*
X148128597Y-114421505D01*
X147961505Y-114588597D01*
X147825965Y-114782169D01*
X147825964Y-114782171D01*
X147726098Y-114996335D01*
X147726094Y-114996344D01*
X147664938Y-115224586D01*
X147664936Y-115224596D01*
X147644341Y-115459999D01*
X145705659Y-115459999D01*
X145685063Y-115224592D01*
X145623903Y-114996337D01*
X145524035Y-114782171D01*
X145388495Y-114588599D01*
X145388494Y-114588597D01*
X145221402Y-114421506D01*
X145221395Y-114421501D01*
X145027834Y-114285967D01*
X145027830Y-114285965D01*
X145027828Y-114285964D01*
X144813663Y-114186097D01*
X144813659Y-114186096D01*
X144813655Y-114186094D01*
X144585413Y-114124938D01*
X144585403Y-114124936D01*
X144350001Y-114104341D01*
X144349999Y-114104341D01*
X144114596Y-114124936D01*
X144114586Y-114124938D01*
X143886344Y-114186094D01*
X143886335Y-114186098D01*
X143672171Y-114285964D01*
X143672169Y-114285965D01*
X143478597Y-114421505D01*
X143311505Y-114588597D01*
X143175965Y-114782169D01*
X143175964Y-114782171D01*
X143076098Y-114996335D01*
X143076094Y-114996344D01*
X143014938Y-115224586D01*
X143014936Y-115224596D01*
X142994341Y-115459999D01*
X109500500Y-115459999D01*
X109500500Y-112534995D01*
X113889451Y-112534995D01*
X113889451Y-112535004D01*
X113909616Y-112804101D01*
X113969664Y-113067188D01*
X113969666Y-113067195D01*
X114032697Y-113227795D01*
X114068257Y-113318398D01*
X114203185Y-113552102D01*
X114339080Y-113722509D01*
X114371442Y-113763089D01*
X114438705Y-113825499D01*
X114569259Y-113946635D01*
X114792226Y-114098651D01*
X115035359Y-114215738D01*
X115293228Y-114295280D01*
X115293229Y-114295280D01*
X115293232Y-114295281D01*
X115560063Y-114335499D01*
X115560068Y-114335499D01*
X115560071Y-114335500D01*
X115560072Y-114335500D01*
X115829928Y-114335500D01*
X115829929Y-114335500D01*
X115829936Y-114335499D01*
X116096767Y-114295281D01*
X116096768Y-114295280D01*
X116096772Y-114295280D01*
X116354641Y-114215738D01*
X116597775Y-114098651D01*
X116820741Y-113946635D01*
X117018561Y-113763085D01*
X117186815Y-113552102D01*
X117321743Y-113318398D01*
X117420334Y-113067195D01*
X117480383Y-112804103D01*
X117495117Y-112607483D01*
X117500549Y-112535004D01*
X117500549Y-112534995D01*
X117480383Y-112265898D01*
X117480383Y-112265897D01*
X117420334Y-112002805D01*
X117321743Y-111751602D01*
X117186815Y-111517898D01*
X117018561Y-111306915D01*
X117018560Y-111306914D01*
X117018557Y-111306910D01*
X116820741Y-111123365D01*
X116764470Y-111085000D01*
X116597775Y-110971349D01*
X116597769Y-110971346D01*
X116597768Y-110971345D01*
X116597767Y-110971344D01*
X116354643Y-110854263D01*
X116354645Y-110854263D01*
X116096773Y-110774720D01*
X116096767Y-110774718D01*
X115946937Y-110752135D01*
X126109500Y-110752135D01*
X126109500Y-112547870D01*
X126109501Y-112547876D01*
X126115908Y-112607483D01*
X126166202Y-112742328D01*
X126166206Y-112742335D01*
X126252452Y-112857544D01*
X126252455Y-112857547D01*
X126367664Y-112943793D01*
X126367671Y-112943797D01*
X126502517Y-112994091D01*
X126502516Y-112994091D01*
X126509444Y-112994835D01*
X126562127Y-113000500D01*
X128357872Y-113000499D01*
X128417483Y-112994091D01*
X128552331Y-112943796D01*
X128667546Y-112857546D01*
X128753796Y-112742331D01*
X128802810Y-112610916D01*
X128844681Y-112554984D01*
X128910145Y-112530566D01*
X128978418Y-112545417D01*
X129006673Y-112566569D01*
X129128599Y-112688495D01*
X129225384Y-112756265D01*
X129322165Y-112824032D01*
X129322167Y-112824033D01*
X129322170Y-112824035D01*
X129536337Y-112923903D01*
X129536343Y-112923904D01*
X129536344Y-112923905D01*
X129540498Y-112925018D01*
X129764592Y-112985063D01*
X129941034Y-113000500D01*
X129999999Y-113005659D01*
X130000000Y-113005659D01*
X130000001Y-113005659D01*
X130058966Y-113000500D01*
X130235408Y-112985063D01*
X130463663Y-112923903D01*
X130677830Y-112824035D01*
X130871401Y-112688495D01*
X131038495Y-112521401D01*
X131168425Y-112335842D01*
X131223002Y-112292217D01*
X131292500Y-112285023D01*
X131354855Y-112316546D01*
X131371575Y-112335842D01*
X131501500Y-112521395D01*
X131501505Y-112521401D01*
X131668599Y-112688495D01*
X131765384Y-112756265D01*
X131862165Y-112824032D01*
X131862167Y-112824033D01*
X131862170Y-112824035D01*
X132076337Y-112923903D01*
X132076343Y-112923904D01*
X132076344Y-112923905D01*
X132080498Y-112925018D01*
X132304592Y-112985063D01*
X132481034Y-113000500D01*
X132539999Y-113005659D01*
X132540000Y-113005659D01*
X132540001Y-113005659D01*
X132598966Y-113000500D01*
X132775408Y-112985063D01*
X133003663Y-112923903D01*
X133217830Y-112824035D01*
X133411401Y-112688495D01*
X133578495Y-112521401D01*
X133708425Y-112335842D01*
X133763002Y-112292217D01*
X133832500Y-112285023D01*
X133894855Y-112316546D01*
X133911575Y-112335842D01*
X134041500Y-112521395D01*
X134041505Y-112521401D01*
X134208599Y-112688495D01*
X134305384Y-112756265D01*
X134402165Y-112824032D01*
X134402167Y-112824033D01*
X134402170Y-112824035D01*
X134616337Y-112923903D01*
X134616343Y-112923904D01*
X134616344Y-112923905D01*
X134620498Y-112925018D01*
X134844592Y-112985063D01*
X135021034Y-113000500D01*
X135079999Y-113005659D01*
X135080000Y-113005659D01*
X135080001Y-113005659D01*
X135138966Y-113000500D01*
X135315408Y-112985063D01*
X135543663Y-112923903D01*
X135757830Y-112824035D01*
X135951401Y-112688495D01*
X136118495Y-112521401D01*
X136254035Y-112327830D01*
X136353903Y-112113663D01*
X136415063Y-111885408D01*
X136424724Y-111774983D01*
X163899500Y-111774983D01*
X163899500Y-113125001D01*
X163899501Y-113125018D01*
X163910000Y-113227796D01*
X163910001Y-113227799D01*
X163940023Y-113318398D01*
X163965186Y-113394334D01*
X164057288Y-113543656D01*
X164181344Y-113667712D01*
X164330666Y-113759814D01*
X164497203Y-113814999D01*
X164599991Y-113825500D01*
X165400008Y-113825499D01*
X165400016Y-113825498D01*
X165400019Y-113825498D01*
X165456302Y-113819748D01*
X165502797Y-113814999D01*
X165669334Y-113759814D01*
X165818656Y-113667712D01*
X165942712Y-113543656D01*
X166034814Y-113394334D01*
X166089999Y-113227797D01*
X166100500Y-113125009D01*
X166100499Y-112088389D01*
X167899500Y-112088389D01*
X167899500Y-112811610D01*
X167920435Y-112943793D01*
X167926598Y-112982701D01*
X167980127Y-113147445D01*
X168058768Y-113301788D01*
X168160586Y-113441928D01*
X168283072Y-113564414D01*
X168423212Y-113666232D01*
X168577555Y-113744873D01*
X168742299Y-113798402D01*
X168913389Y-113825500D01*
X168913390Y-113825500D01*
X169086610Y-113825500D01*
X169086611Y-113825500D01*
X169257701Y-113798402D01*
X169422445Y-113744873D01*
X169576788Y-113666232D01*
X169716928Y-113564414D01*
X169839414Y-113441928D01*
X169941232Y-113301788D01*
X170019873Y-113147445D01*
X170073402Y-112982701D01*
X170100500Y-112811611D01*
X170100500Y-112088389D01*
X170073402Y-111917299D01*
X170019873Y-111752555D01*
X169941232Y-111598212D01*
X169924355Y-111574983D01*
X174899500Y-111574983D01*
X174899500Y-112925001D01*
X174899501Y-112925018D01*
X174910000Y-113027796D01*
X174910001Y-113027799D01*
X174942214Y-113125009D01*
X174965186Y-113194334D01*
X175057288Y-113343656D01*
X175181344Y-113467712D01*
X175330666Y-113559814D01*
X175497203Y-113614999D01*
X175599991Y-113625500D01*
X176400008Y-113625499D01*
X176400016Y-113625498D01*
X176400019Y-113625498D01*
X176456302Y-113619748D01*
X176502797Y-113614999D01*
X176669334Y-113559814D01*
X176818656Y-113467712D01*
X176942712Y-113343656D01*
X177034814Y-113194334D01*
X177089999Y-113027797D01*
X177100500Y-112925009D01*
X177100499Y-111888389D01*
X178899500Y-111888389D01*
X178899500Y-112611610D01*
X178920204Y-112742335D01*
X178926598Y-112782701D01*
X178980127Y-112947445D01*
X179058768Y-113101788D01*
X179160586Y-113241928D01*
X179283072Y-113364414D01*
X179423212Y-113466232D01*
X179577555Y-113544873D01*
X179742299Y-113598402D01*
X179913389Y-113625500D01*
X179913390Y-113625500D01*
X180086610Y-113625500D01*
X180086611Y-113625500D01*
X180257701Y-113598402D01*
X180422445Y-113544873D01*
X180576788Y-113466232D01*
X180716928Y-113364414D01*
X180839414Y-113241928D01*
X180941232Y-113101788D01*
X181019873Y-112947445D01*
X181073402Y-112782701D01*
X181100500Y-112611611D01*
X181100500Y-111888389D01*
X181073402Y-111717299D01*
X181019873Y-111552555D01*
X180941232Y-111398212D01*
X180839414Y-111258072D01*
X180716928Y-111135586D01*
X180576788Y-111033768D01*
X180454273Y-110971344D01*
X180422447Y-110955128D01*
X180422446Y-110955127D01*
X180422445Y-110955127D01*
X180257701Y-110901598D01*
X180257699Y-110901597D01*
X180257698Y-110901597D01*
X180126271Y-110880781D01*
X180086611Y-110874500D01*
X179913389Y-110874500D01*
X179873728Y-110880781D01*
X179742302Y-110901597D01*
X179577552Y-110955128D01*
X179423211Y-111033768D01*
X179367149Y-111074500D01*
X179283072Y-111135586D01*
X179283070Y-111135588D01*
X179283069Y-111135588D01*
X179160588Y-111258069D01*
X179160588Y-111258070D01*
X179160586Y-111258072D01*
X179126009Y-111305663D01*
X179058768Y-111398211D01*
X178980128Y-111552552D01*
X178926597Y-111717302D01*
X178899500Y-111888389D01*
X177100499Y-111888389D01*
X177100499Y-111574992D01*
X177093417Y-111505668D01*
X177089999Y-111472203D01*
X177089998Y-111472200D01*
X177070910Y-111414596D01*
X177034814Y-111305666D01*
X176942712Y-111156344D01*
X176818656Y-111032288D01*
X176719851Y-110971345D01*
X176669336Y-110940187D01*
X176669331Y-110940185D01*
X176667862Y-110939698D01*
X176502797Y-110885001D01*
X176502795Y-110885000D01*
X176400010Y-110874500D01*
X175599998Y-110874500D01*
X175599980Y-110874501D01*
X175497203Y-110885000D01*
X175497200Y-110885001D01*
X175330668Y-110940185D01*
X175330663Y-110940187D01*
X175181342Y-111032289D01*
X175057289Y-111156342D01*
X174965187Y-111305663D01*
X174965185Y-111305668D01*
X174948393Y-111356344D01*
X174910001Y-111472203D01*
X174910001Y-111472204D01*
X174910000Y-111472204D01*
X174899500Y-111574983D01*
X169924355Y-111574983D01*
X169839414Y-111458072D01*
X169716928Y-111335586D01*
X169576788Y-111233768D01*
X169422445Y-111155127D01*
X169257701Y-111101598D01*
X169257699Y-111101597D01*
X169257698Y-111101597D01*
X169126271Y-111080781D01*
X169086611Y-111074500D01*
X168913389Y-111074500D01*
X168873728Y-111080781D01*
X168742302Y-111101597D01*
X168577552Y-111155128D01*
X168423211Y-111233768D01*
X168343256Y-111291859D01*
X168283072Y-111335586D01*
X168283070Y-111335588D01*
X168283069Y-111335588D01*
X168160588Y-111458069D01*
X168160588Y-111458070D01*
X168160586Y-111458072D01*
X168126009Y-111505663D01*
X168058768Y-111598211D01*
X167980128Y-111752552D01*
X167926597Y-111917302D01*
X167899500Y-112088389D01*
X166100499Y-112088389D01*
X166100499Y-111774992D01*
X166089999Y-111672203D01*
X166034814Y-111505666D01*
X165942712Y-111356344D01*
X165818656Y-111232288D01*
X165725888Y-111175069D01*
X165669336Y-111140187D01*
X165669331Y-111140185D01*
X165655452Y-111135586D01*
X165502797Y-111085001D01*
X165502795Y-111085000D01*
X165400010Y-111074500D01*
X164599998Y-111074500D01*
X164599980Y-111074501D01*
X164497203Y-111085000D01*
X164497200Y-111085001D01*
X164330668Y-111140185D01*
X164330663Y-111140187D01*
X164181342Y-111232289D01*
X164057289Y-111356342D01*
X163965187Y-111505663D01*
X163965185Y-111505668D01*
X163949649Y-111552552D01*
X163910001Y-111672203D01*
X163910001Y-111672204D01*
X163910000Y-111672204D01*
X163899500Y-111774983D01*
X136424724Y-111774983D01*
X136435659Y-111650000D01*
X136415063Y-111414592D01*
X136353903Y-111186337D01*
X136254035Y-110972171D01*
X136253460Y-110971349D01*
X136118494Y-110778597D01*
X135951402Y-110611506D01*
X135951395Y-110611501D01*
X135757834Y-110475967D01*
X135757830Y-110475965D01*
X135757828Y-110475964D01*
X135543663Y-110376097D01*
X135543659Y-110376096D01*
X135543655Y-110376094D01*
X135315413Y-110314938D01*
X135315403Y-110314936D01*
X135080001Y-110294341D01*
X135079999Y-110294341D01*
X134844596Y-110314936D01*
X134844586Y-110314938D01*
X134616344Y-110376094D01*
X134616335Y-110376098D01*
X134402171Y-110475964D01*
X134402169Y-110475965D01*
X134208597Y-110611505D01*
X134041505Y-110778597D01*
X133911575Y-110964158D01*
X133856998Y-111007783D01*
X133787500Y-111014977D01*
X133725145Y-110983454D01*
X133708425Y-110964158D01*
X133578494Y-110778597D01*
X133411402Y-110611506D01*
X133411395Y-110611501D01*
X133217834Y-110475967D01*
X133217830Y-110475965D01*
X133217828Y-110475964D01*
X133003663Y-110376097D01*
X133003659Y-110376096D01*
X133003655Y-110376094D01*
X132775413Y-110314938D01*
X132775403Y-110314936D01*
X132540001Y-110294341D01*
X132539999Y-110294341D01*
X132304596Y-110314936D01*
X132304586Y-110314938D01*
X132076344Y-110376094D01*
X132076335Y-110376098D01*
X131862171Y-110475964D01*
X131862169Y-110475965D01*
X131668597Y-110611505D01*
X131501505Y-110778597D01*
X131371575Y-110964158D01*
X131316998Y-111007783D01*
X131247500Y-111014977D01*
X131185145Y-110983454D01*
X131168425Y-110964158D01*
X131038494Y-110778597D01*
X130871402Y-110611506D01*
X130871395Y-110611501D01*
X130677834Y-110475967D01*
X130677830Y-110475965D01*
X130677828Y-110475964D01*
X130463663Y-110376097D01*
X130463659Y-110376096D01*
X130463655Y-110376094D01*
X130235413Y-110314938D01*
X130235403Y-110314936D01*
X130000001Y-110294341D01*
X129999999Y-110294341D01*
X129764596Y-110314936D01*
X129764586Y-110314938D01*
X129536344Y-110376094D01*
X129536335Y-110376098D01*
X129322171Y-110475964D01*
X129322169Y-110475965D01*
X129128600Y-110611503D01*
X129006673Y-110733430D01*
X128945350Y-110766914D01*
X128875658Y-110761930D01*
X128819725Y-110720058D01*
X128802810Y-110689081D01*
X128753797Y-110557671D01*
X128753793Y-110557664D01*
X128667547Y-110442455D01*
X128667544Y-110442452D01*
X128552335Y-110356206D01*
X128552328Y-110356202D01*
X128417482Y-110305908D01*
X128417483Y-110305908D01*
X128357883Y-110299501D01*
X128357881Y-110299500D01*
X128357873Y-110299500D01*
X128357864Y-110299500D01*
X126562129Y-110299500D01*
X126562123Y-110299501D01*
X126502516Y-110305908D01*
X126367671Y-110356202D01*
X126367664Y-110356206D01*
X126252455Y-110442452D01*
X126252452Y-110442455D01*
X126166206Y-110557664D01*
X126166202Y-110557671D01*
X126115908Y-110692517D01*
X126109501Y-110752116D01*
X126109500Y-110752135D01*
X115946937Y-110752135D01*
X115829936Y-110734500D01*
X115829929Y-110734500D01*
X115560071Y-110734500D01*
X115560063Y-110734500D01*
X115293232Y-110774718D01*
X115293226Y-110774720D01*
X115035358Y-110854262D01*
X114792230Y-110971346D01*
X114569258Y-111123365D01*
X114371442Y-111306910D01*
X114203185Y-111517898D01*
X114068258Y-111751599D01*
X114068256Y-111751603D01*
X113969666Y-112002804D01*
X113969664Y-112002811D01*
X113909616Y-112265898D01*
X113889451Y-112534995D01*
X109500500Y-112534995D01*
X109500500Y-109249994D01*
X147244357Y-109249994D01*
X147244357Y-109250005D01*
X147264890Y-109497812D01*
X147264892Y-109497824D01*
X147325936Y-109738881D01*
X147425826Y-109966606D01*
X147561833Y-110174782D01*
X147561836Y-110174785D01*
X147730256Y-110357738D01*
X147926491Y-110510474D01*
X147926493Y-110510475D01*
X148113172Y-110611501D01*
X148145190Y-110628828D01*
X148380386Y-110709571D01*
X148625665Y-110750500D01*
X148874335Y-110750500D01*
X149119614Y-110709571D01*
X149354810Y-110628828D01*
X149573509Y-110510474D01*
X149769744Y-110357738D01*
X149938164Y-110174785D01*
X150074173Y-109966607D01*
X150174063Y-109738881D01*
X150235108Y-109497821D01*
X150255643Y-109250000D01*
X150255643Y-109249994D01*
X153744357Y-109249994D01*
X153744357Y-109250005D01*
X153764890Y-109497812D01*
X153764892Y-109497824D01*
X153825936Y-109738881D01*
X153925826Y-109966606D01*
X154061833Y-110174782D01*
X154061836Y-110174785D01*
X154230256Y-110357738D01*
X154426491Y-110510474D01*
X154426493Y-110510475D01*
X154613172Y-110611501D01*
X154645190Y-110628828D01*
X154880386Y-110709571D01*
X155125665Y-110750500D01*
X155374335Y-110750500D01*
X155619614Y-110709571D01*
X155854810Y-110628828D01*
X156073509Y-110510474D01*
X156269744Y-110357738D01*
X156438164Y-110174785D01*
X156574173Y-109966607D01*
X156674063Y-109738881D01*
X156735108Y-109497821D01*
X156755643Y-109250000D01*
X156735108Y-109002179D01*
X156674063Y-108761119D01*
X156574173Y-108533393D01*
X156438166Y-108325217D01*
X156390926Y-108273901D01*
X156269744Y-108142262D01*
X156073509Y-107989526D01*
X156073507Y-107989525D01*
X156073506Y-107989524D01*
X155854811Y-107871172D01*
X155854802Y-107871169D01*
X155619616Y-107790429D01*
X155374335Y-107749500D01*
X155125665Y-107749500D01*
X154880383Y-107790429D01*
X154645197Y-107871169D01*
X154645188Y-107871172D01*
X154426493Y-107989524D01*
X154230257Y-108142261D01*
X154061833Y-108325217D01*
X153925826Y-108533393D01*
X153825936Y-108761118D01*
X153764892Y-109002175D01*
X153764890Y-109002187D01*
X153744357Y-109249994D01*
X150255643Y-109249994D01*
X150235108Y-109002179D01*
X150174063Y-108761119D01*
X150074173Y-108533393D01*
X149938166Y-108325217D01*
X149890926Y-108273901D01*
X149769744Y-108142262D01*
X149573509Y-107989526D01*
X149573507Y-107989525D01*
X149573506Y-107989524D01*
X149354811Y-107871172D01*
X149354802Y-107871169D01*
X149119616Y-107790429D01*
X148874335Y-107749500D01*
X148625665Y-107749500D01*
X148380383Y-107790429D01*
X148145197Y-107871169D01*
X148145188Y-107871172D01*
X147926493Y-107989524D01*
X147730257Y-108142261D01*
X147561833Y-108325217D01*
X147425826Y-108533393D01*
X147325936Y-108761118D01*
X147264892Y-109002175D01*
X147264890Y-109002187D01*
X147244357Y-109249994D01*
X109500500Y-109249994D01*
X109500500Y-106102135D01*
X126109500Y-106102135D01*
X126109500Y-107897870D01*
X126109501Y-107897876D01*
X126115908Y-107957483D01*
X126166202Y-108092328D01*
X126166206Y-108092335D01*
X126252452Y-108207544D01*
X126252455Y-108207547D01*
X126367664Y-108293793D01*
X126367671Y-108293797D01*
X126502517Y-108344091D01*
X126502516Y-108344091D01*
X126509444Y-108344835D01*
X126562127Y-108350500D01*
X128357872Y-108350499D01*
X128417483Y-108344091D01*
X128552331Y-108293796D01*
X128667546Y-108207546D01*
X128753796Y-108092331D01*
X128802810Y-107960916D01*
X128844681Y-107904984D01*
X128910145Y-107880566D01*
X128978418Y-107895417D01*
X129006673Y-107916569D01*
X129128599Y-108038495D01*
X129225384Y-108106265D01*
X129322165Y-108174032D01*
X129322167Y-108174033D01*
X129322170Y-108174035D01*
X129536337Y-108273903D01*
X129764592Y-108335063D01*
X129941034Y-108350500D01*
X129999999Y-108355659D01*
X130000000Y-108355659D01*
X130000001Y-108355659D01*
X130058966Y-108350500D01*
X130235408Y-108335063D01*
X130463663Y-108273903D01*
X130677830Y-108174035D01*
X130871401Y-108038495D01*
X131038495Y-107871401D01*
X131168425Y-107685842D01*
X131223002Y-107642217D01*
X131292500Y-107635023D01*
X131354855Y-107666546D01*
X131371575Y-107685842D01*
X131501500Y-107871395D01*
X131501505Y-107871401D01*
X131668599Y-108038495D01*
X131765384Y-108106265D01*
X131862165Y-108174032D01*
X131862167Y-108174033D01*
X131862170Y-108174035D01*
X132076337Y-108273903D01*
X132304592Y-108335063D01*
X132481034Y-108350500D01*
X132539999Y-108355659D01*
X132540000Y-108355659D01*
X132540001Y-108355659D01*
X132598966Y-108350500D01*
X132775408Y-108335063D01*
X133003663Y-108273903D01*
X133217830Y-108174035D01*
X133411401Y-108038495D01*
X133578495Y-107871401D01*
X133708425Y-107685842D01*
X133763002Y-107642217D01*
X133832500Y-107635023D01*
X133894855Y-107666546D01*
X133911575Y-107685842D01*
X134041500Y-107871395D01*
X134041505Y-107871401D01*
X134208599Y-108038495D01*
X134305384Y-108106265D01*
X134402165Y-108174032D01*
X134402167Y-108174033D01*
X134402170Y-108174035D01*
X134616337Y-108273903D01*
X134844592Y-108335063D01*
X135021034Y-108350500D01*
X135079999Y-108355659D01*
X135080000Y-108355659D01*
X135080001Y-108355659D01*
X135138966Y-108350500D01*
X135315408Y-108335063D01*
X135543663Y-108273903D01*
X135757830Y-108174035D01*
X135951401Y-108038495D01*
X136118495Y-107871401D01*
X136254035Y-107677830D01*
X136353903Y-107463663D01*
X136415063Y-107235408D01*
X136435659Y-107000000D01*
X136415063Y-106764592D01*
X136368626Y-106591285D01*
X136353905Y-106536344D01*
X136353904Y-106536343D01*
X136353903Y-106536337D01*
X136254035Y-106322171D01*
X136248425Y-106314158D01*
X136118494Y-106128597D01*
X135951402Y-105961506D01*
X135951395Y-105961501D01*
X135757834Y-105825967D01*
X135757830Y-105825965D01*
X135702148Y-105800000D01*
X135543663Y-105726097D01*
X135543659Y-105726096D01*
X135543655Y-105726094D01*
X135315413Y-105664938D01*
X135315403Y-105664936D01*
X135080001Y-105644341D01*
X135079999Y-105644341D01*
X134844596Y-105664936D01*
X134844586Y-105664938D01*
X134616344Y-105726094D01*
X134616335Y-105726098D01*
X134402171Y-105825964D01*
X134402169Y-105825965D01*
X134208597Y-105961505D01*
X134041505Y-106128597D01*
X133911575Y-106314158D01*
X133856998Y-106357783D01*
X133787500Y-106364977D01*
X133725145Y-106333454D01*
X133708425Y-106314158D01*
X133578494Y-106128597D01*
X133411402Y-105961506D01*
X133411395Y-105961501D01*
X133217834Y-105825967D01*
X133217830Y-105825965D01*
X133162148Y-105800000D01*
X133003663Y-105726097D01*
X133003659Y-105726096D01*
X133003655Y-105726094D01*
X132775413Y-105664938D01*
X132775403Y-105664936D01*
X132540001Y-105644341D01*
X132539999Y-105644341D01*
X132304596Y-105664936D01*
X132304586Y-105664938D01*
X132076344Y-105726094D01*
X132076335Y-105726098D01*
X131862171Y-105825964D01*
X131862169Y-105825965D01*
X131668597Y-105961505D01*
X131501505Y-106128597D01*
X131371575Y-106314158D01*
X131316998Y-106357783D01*
X131247500Y-106364977D01*
X131185145Y-106333454D01*
X131168425Y-106314158D01*
X131038494Y-106128597D01*
X130871402Y-105961506D01*
X130871395Y-105961501D01*
X130677834Y-105825967D01*
X130677830Y-105825965D01*
X130622148Y-105800000D01*
X130463663Y-105726097D01*
X130463659Y-105726096D01*
X130463655Y-105726094D01*
X130235413Y-105664938D01*
X130235403Y-105664936D01*
X130000001Y-105644341D01*
X129999999Y-105644341D01*
X129764596Y-105664936D01*
X129764586Y-105664938D01*
X129536344Y-105726094D01*
X129536335Y-105726098D01*
X129322171Y-105825964D01*
X129322169Y-105825965D01*
X129128600Y-105961503D01*
X129006673Y-106083430D01*
X128945350Y-106116914D01*
X128875658Y-106111930D01*
X128819725Y-106070058D01*
X128802810Y-106039081D01*
X128753797Y-105907671D01*
X128753793Y-105907664D01*
X128667547Y-105792455D01*
X128667544Y-105792452D01*
X128552335Y-105706206D01*
X128552328Y-105706202D01*
X128417482Y-105655908D01*
X128417483Y-105655908D01*
X128357883Y-105649501D01*
X128357881Y-105649500D01*
X128357873Y-105649500D01*
X128357864Y-105649500D01*
X126562129Y-105649500D01*
X126562123Y-105649501D01*
X126502516Y-105655908D01*
X126367671Y-105706202D01*
X126367664Y-105706206D01*
X126252455Y-105792452D01*
X126252452Y-105792455D01*
X126166206Y-105907664D01*
X126166202Y-105907671D01*
X126115908Y-106042517D01*
X126109501Y-106102116D01*
X126109500Y-106102135D01*
X109500500Y-106102135D01*
X109500500Y-104749994D01*
X147244357Y-104749994D01*
X147244357Y-104750005D01*
X147264890Y-104997812D01*
X147264892Y-104997824D01*
X147325936Y-105238881D01*
X147425826Y-105466606D01*
X147561833Y-105674782D01*
X147561836Y-105674785D01*
X147730256Y-105857738D01*
X147926491Y-106010474D01*
X147926493Y-106010475D01*
X148095830Y-106102116D01*
X148145190Y-106128828D01*
X148380386Y-106209571D01*
X148625665Y-106250500D01*
X148874335Y-106250500D01*
X149119614Y-106209571D01*
X149354810Y-106128828D01*
X149573509Y-106010474D01*
X149769744Y-105857738D01*
X149938164Y-105674785D01*
X150074173Y-105466607D01*
X150174063Y-105238881D01*
X150235108Y-104997821D01*
X150244408Y-104885586D01*
X150255643Y-104750005D01*
X150255643Y-104749994D01*
X153744357Y-104749994D01*
X153744357Y-104750005D01*
X153764890Y-104997812D01*
X153764892Y-104997824D01*
X153825936Y-105238881D01*
X153925826Y-105466606D01*
X154061833Y-105674782D01*
X154061836Y-105674785D01*
X154230256Y-105857738D01*
X154426491Y-106010474D01*
X154426493Y-106010475D01*
X154595830Y-106102116D01*
X154645190Y-106128828D01*
X154880386Y-106209571D01*
X155125665Y-106250500D01*
X155374335Y-106250500D01*
X155619614Y-106209571D01*
X155854810Y-106128828D01*
X156073509Y-106010474D01*
X156269744Y-105857738D01*
X156322896Y-105800000D01*
X158344815Y-105800000D01*
X158363503Y-105977805D01*
X158363504Y-105977807D01*
X158418747Y-106147829D01*
X158418750Y-106147835D01*
X158508141Y-106302665D01*
X158535864Y-106333454D01*
X158627764Y-106435521D01*
X158627767Y-106435523D01*
X158627770Y-106435526D01*
X158772407Y-106540612D01*
X158935733Y-106613329D01*
X159110609Y-106650500D01*
X159110610Y-106650500D01*
X159289389Y-106650500D01*
X159289391Y-106650500D01*
X159464267Y-106613329D01*
X159627593Y-106540612D01*
X159772230Y-106435526D01*
X159891859Y-106302665D01*
X159981250Y-106147835D01*
X160036497Y-105977803D01*
X160055185Y-105800000D01*
X160036497Y-105622197D01*
X160008873Y-105537181D01*
X159981252Y-105452170D01*
X159981249Y-105452164D01*
X159907830Y-105324998D01*
X159907821Y-105324983D01*
X163899500Y-105324983D01*
X163899500Y-106675001D01*
X163899501Y-106675018D01*
X163910000Y-106777796D01*
X163910001Y-106777799D01*
X163965185Y-106944331D01*
X163965186Y-106944334D01*
X164057288Y-107093656D01*
X164181344Y-107217712D01*
X164330666Y-107309814D01*
X164497203Y-107364999D01*
X164599991Y-107375500D01*
X165400008Y-107375499D01*
X165400016Y-107375498D01*
X165400019Y-107375498D01*
X165456302Y-107369748D01*
X165502797Y-107364999D01*
X165669334Y-107309814D01*
X165818656Y-107217712D01*
X165942712Y-107093656D01*
X166034814Y-106944334D01*
X166089999Y-106777797D01*
X166100500Y-106675009D01*
X166100499Y-105638389D01*
X167899500Y-105638389D01*
X167899500Y-106361610D01*
X167920140Y-106491930D01*
X167926598Y-106532701D01*
X167980127Y-106697445D01*
X168058768Y-106851788D01*
X168160586Y-106991928D01*
X168283072Y-107114414D01*
X168423212Y-107216232D01*
X168577555Y-107294873D01*
X168742299Y-107348402D01*
X168913389Y-107375500D01*
X168913390Y-107375500D01*
X169086610Y-107375500D01*
X169086611Y-107375500D01*
X169257701Y-107348402D01*
X169422445Y-107294873D01*
X169576788Y-107216232D01*
X169716928Y-107114414D01*
X169839414Y-106991928D01*
X169941232Y-106851788D01*
X170019873Y-106697445D01*
X170073402Y-106532701D01*
X170100500Y-106361611D01*
X170100500Y-105638389D01*
X170073402Y-105467299D01*
X170019873Y-105302555D01*
X169941232Y-105148212D01*
X169839414Y-105008072D01*
X169716928Y-104885586D01*
X169633515Y-104824983D01*
X174899500Y-104824983D01*
X174899500Y-106175001D01*
X174899501Y-106175018D01*
X174910000Y-106277796D01*
X174910001Y-106277799D01*
X174962266Y-106435521D01*
X174965186Y-106444334D01*
X175057288Y-106593656D01*
X175181344Y-106717712D01*
X175330666Y-106809814D01*
X175497203Y-106864999D01*
X175599991Y-106875500D01*
X176400008Y-106875499D01*
X176400016Y-106875498D01*
X176400019Y-106875498D01*
X176456302Y-106869748D01*
X176502797Y-106864999D01*
X176669334Y-106809814D01*
X176818656Y-106717712D01*
X176942712Y-106593656D01*
X177034814Y-106444334D01*
X177089999Y-106277797D01*
X177100500Y-106175009D01*
X177100499Y-105138389D01*
X178899500Y-105138389D01*
X178899500Y-105861610D01*
X178923077Y-106010475D01*
X178926598Y-106032701D01*
X178980127Y-106197445D01*
X179058768Y-106351788D01*
X179160586Y-106491928D01*
X179283072Y-106614414D01*
X179423212Y-106716232D01*
X179577555Y-106794873D01*
X179742299Y-106848402D01*
X179913389Y-106875500D01*
X179913390Y-106875500D01*
X180086610Y-106875500D01*
X180086611Y-106875500D01*
X180257701Y-106848402D01*
X180422445Y-106794873D01*
X180576788Y-106716232D01*
X180716928Y-106614414D01*
X180839414Y-106491928D01*
X180941232Y-106351788D01*
X181019873Y-106197445D01*
X181073402Y-106032701D01*
X181100500Y-105861611D01*
X181100500Y-105138389D01*
X181073402Y-104967299D01*
X181019873Y-104802555D01*
X180941232Y-104648212D01*
X180839414Y-104508072D01*
X180716928Y-104385586D01*
X180576788Y-104283768D01*
X180422445Y-104205127D01*
X180257701Y-104151598D01*
X180257699Y-104151597D01*
X180257698Y-104151597D01*
X180126271Y-104130781D01*
X180086611Y-104124500D01*
X179913389Y-104124500D01*
X179873728Y-104130781D01*
X179742302Y-104151597D01*
X179577552Y-104205128D01*
X179423211Y-104283768D01*
X179343256Y-104341859D01*
X179283072Y-104385586D01*
X179283070Y-104385588D01*
X179283069Y-104385588D01*
X179160588Y-104508069D01*
X179160588Y-104508070D01*
X179160586Y-104508072D01*
X179126009Y-104555663D01*
X179058768Y-104648211D01*
X178980128Y-104802552D01*
X178926597Y-104967302D01*
X178899500Y-105138389D01*
X177100499Y-105138389D01*
X177100499Y-104824992D01*
X177092838Y-104750000D01*
X177089999Y-104722203D01*
X177089998Y-104722200D01*
X177084341Y-104705128D01*
X177034814Y-104555666D01*
X176942712Y-104406344D01*
X176818656Y-104282288D01*
X176693559Y-104205128D01*
X176669336Y-104190187D01*
X176669331Y-104190185D01*
X176667862Y-104189698D01*
X176502797Y-104135001D01*
X176502795Y-104135000D01*
X176400010Y-104124500D01*
X175599998Y-104124500D01*
X175599980Y-104124501D01*
X175497203Y-104135000D01*
X175497200Y-104135001D01*
X175330668Y-104190185D01*
X175330663Y-104190187D01*
X175181342Y-104282289D01*
X175057289Y-104406342D01*
X174965187Y-104555663D01*
X174965186Y-104555666D01*
X174910001Y-104722203D01*
X174910001Y-104722204D01*
X174910000Y-104722204D01*
X174899500Y-104824983D01*
X169633515Y-104824983D01*
X169576788Y-104783768D01*
X169422445Y-104705127D01*
X169257701Y-104651598D01*
X169257699Y-104651597D01*
X169257698Y-104651597D01*
X169126271Y-104630781D01*
X169086611Y-104624500D01*
X168913389Y-104624500D01*
X168873728Y-104630781D01*
X168742302Y-104651597D01*
X168577552Y-104705128D01*
X168423211Y-104783768D01*
X168366472Y-104824992D01*
X168283072Y-104885586D01*
X168283070Y-104885588D01*
X168283069Y-104885588D01*
X168160588Y-105008069D01*
X168160588Y-105008070D01*
X168160586Y-105008072D01*
X168126009Y-105055663D01*
X168058768Y-105148211D01*
X167980128Y-105302552D01*
X167926597Y-105467302D01*
X167899500Y-105638389D01*
X166100499Y-105638389D01*
X166100499Y-105324992D01*
X166089999Y-105222203D01*
X166034814Y-105055666D01*
X165942712Y-104906344D01*
X165818656Y-104782288D01*
X165693559Y-104705128D01*
X165669336Y-104690187D01*
X165669331Y-104690185D01*
X165667862Y-104689698D01*
X165502797Y-104635001D01*
X165502795Y-104635000D01*
X165400010Y-104624500D01*
X164599998Y-104624500D01*
X164599980Y-104624501D01*
X164497203Y-104635000D01*
X164497200Y-104635001D01*
X164330668Y-104690185D01*
X164330663Y-104690187D01*
X164181342Y-104782289D01*
X164057289Y-104906342D01*
X163965187Y-105055663D01*
X163965185Y-105055668D01*
X163963952Y-105059389D01*
X163910001Y-105222203D01*
X163910001Y-105222204D01*
X163910000Y-105222204D01*
X163899500Y-105324983D01*
X159907821Y-105324983D01*
X159891859Y-105297335D01*
X159824207Y-105222200D01*
X159772235Y-105164478D01*
X159772232Y-105164476D01*
X159772231Y-105164475D01*
X159772230Y-105164474D01*
X159627593Y-105059388D01*
X159464267Y-104986671D01*
X159464265Y-104986670D01*
X159336594Y-104959533D01*
X159289391Y-104949500D01*
X159110609Y-104949500D01*
X159079954Y-104956015D01*
X158935733Y-104986670D01*
X158935728Y-104986672D01*
X158772408Y-105059387D01*
X158627768Y-105164475D01*
X158508140Y-105297336D01*
X158418750Y-105452164D01*
X158418747Y-105452170D01*
X158363504Y-105622192D01*
X158363503Y-105622194D01*
X158344815Y-105800000D01*
X156322896Y-105800000D01*
X156438164Y-105674785D01*
X156574173Y-105466607D01*
X156674063Y-105238881D01*
X156735108Y-104997821D01*
X156744408Y-104885586D01*
X156755643Y-104750005D01*
X156755643Y-104749994D01*
X156735109Y-104502187D01*
X156735107Y-104502175D01*
X156674063Y-104261118D01*
X156574173Y-104033393D01*
X156438166Y-103825217D01*
X156323858Y-103701046D01*
X156269744Y-103642262D01*
X156073509Y-103489526D01*
X156073507Y-103489525D01*
X156073506Y-103489524D01*
X155854811Y-103371172D01*
X155854802Y-103371169D01*
X155619616Y-103290429D01*
X155374335Y-103249500D01*
X155125665Y-103249500D01*
X154880383Y-103290429D01*
X154645197Y-103371169D01*
X154645188Y-103371172D01*
X154426493Y-103489524D01*
X154230257Y-103642261D01*
X154061833Y-103825217D01*
X153925826Y-104033393D01*
X153825936Y-104261118D01*
X153764892Y-104502175D01*
X153764890Y-104502187D01*
X153744357Y-104749994D01*
X150255643Y-104749994D01*
X150235109Y-104502187D01*
X150235107Y-104502175D01*
X150174063Y-104261118D01*
X150074173Y-104033393D01*
X149938166Y-103825217D01*
X149823858Y-103701046D01*
X149769744Y-103642262D01*
X149573509Y-103489526D01*
X149573507Y-103489525D01*
X149573506Y-103489524D01*
X149354811Y-103371172D01*
X149354802Y-103371169D01*
X149119616Y-103290429D01*
X148874335Y-103249500D01*
X148625665Y-103249500D01*
X148380383Y-103290429D01*
X148145197Y-103371169D01*
X148145188Y-103371172D01*
X147926493Y-103489524D01*
X147730257Y-103642261D01*
X147561833Y-103825217D01*
X147425826Y-104033393D01*
X147325936Y-104261118D01*
X147264892Y-104502175D01*
X147264890Y-104502187D01*
X147244357Y-104749994D01*
X109500500Y-104749994D01*
X109500500Y-100180000D01*
X113904815Y-100180000D01*
X113923503Y-100357805D01*
X113923504Y-100357807D01*
X113978747Y-100527829D01*
X113978750Y-100527835D01*
X114068141Y-100682665D01*
X114097928Y-100715747D01*
X114187764Y-100815521D01*
X114187767Y-100815523D01*
X114187770Y-100815526D01*
X114332407Y-100920612D01*
X114495733Y-100993329D01*
X114670609Y-101030500D01*
X114670610Y-101030500D01*
X114849389Y-101030500D01*
X114849391Y-101030500D01*
X115024267Y-100993329D01*
X115187593Y-100920612D01*
X115332230Y-100815526D01*
X115451859Y-100682665D01*
X115541250Y-100527835D01*
X115596497Y-100357803D01*
X115615185Y-100180000D01*
X115596497Y-100002197D01*
X115558255Y-99884500D01*
X115541252Y-99832170D01*
X115541249Y-99832164D01*
X115451859Y-99677335D01*
X115405003Y-99625296D01*
X115332235Y-99544478D01*
X115332232Y-99544476D01*
X115332231Y-99544475D01*
X115332230Y-99544474D01*
X115187593Y-99439388D01*
X115024267Y-99366671D01*
X115024265Y-99366670D01*
X114896594Y-99339533D01*
X114849391Y-99329500D01*
X114670609Y-99329500D01*
X114639954Y-99336015D01*
X114495733Y-99366670D01*
X114495728Y-99366672D01*
X114332408Y-99439387D01*
X114187768Y-99544475D01*
X114068140Y-99677336D01*
X113978750Y-99832164D01*
X113978747Y-99832170D01*
X113923504Y-100002192D01*
X113923503Y-100002194D01*
X113904815Y-100180000D01*
X109500500Y-100180000D01*
X109500500Y-93730000D01*
X111837563Y-93730000D01*
X111857270Y-93942673D01*
X111857270Y-93942675D01*
X111857271Y-93942678D01*
X111915722Y-94148114D01*
X111915723Y-94148117D01*
X112010927Y-94339312D01*
X112132273Y-94500000D01*
X112139644Y-94509760D01*
X112297488Y-94653655D01*
X112297490Y-94653656D01*
X112297491Y-94653657D01*
X112479082Y-94766093D01*
X112479088Y-94766096D01*
X112501513Y-94774783D01*
X112678252Y-94843253D01*
X112864729Y-94878111D01*
X112927009Y-94909779D01*
X112962282Y-94970092D01*
X112959348Y-95039900D01*
X112919139Y-95097040D01*
X112864729Y-95121888D01*
X112678252Y-95156747D01*
X112630406Y-95175282D01*
X112479088Y-95233903D01*
X112479082Y-95233906D01*
X112297491Y-95346342D01*
X112139643Y-95490240D01*
X112010927Y-95660687D01*
X111915723Y-95851882D01*
X111857270Y-96057326D01*
X111837563Y-96270000D01*
X111857270Y-96482673D01*
X111857270Y-96482675D01*
X111857271Y-96482678D01*
X111895302Y-96616345D01*
X111915723Y-96688117D01*
X112010927Y-96879312D01*
X112118825Y-97022192D01*
X112139644Y-97049760D01*
X112297488Y-97193655D01*
X112297490Y-97193656D01*
X112297491Y-97193657D01*
X112479082Y-97306093D01*
X112479088Y-97306096D01*
X112501513Y-97314783D01*
X112678252Y-97383253D01*
X112888205Y-97422500D01*
X112888207Y-97422500D01*
X113101793Y-97422500D01*
X113101795Y-97422500D01*
X113311748Y-97383253D01*
X113510914Y-97306095D01*
X113692512Y-97193655D01*
X113850356Y-97049760D01*
X113979073Y-96879312D01*
X114074278Y-96688114D01*
X114132729Y-96482678D01*
X114152437Y-96270000D01*
X114132729Y-96057322D01*
X114074278Y-95851886D01*
X113979073Y-95660688D01*
X113850356Y-95490240D01*
X113692512Y-95346345D01*
X113692509Y-95346343D01*
X113692508Y-95346342D01*
X113510917Y-95233906D01*
X113510911Y-95233903D01*
X113427482Y-95201582D01*
X113311748Y-95156747D01*
X113125269Y-95121888D01*
X113062990Y-95090221D01*
X113027717Y-95029908D01*
X113030651Y-94960100D01*
X113070860Y-94902960D01*
X113125268Y-94878111D01*
X113311748Y-94843253D01*
X113510914Y-94766095D01*
X113692512Y-94653655D01*
X113850356Y-94509760D01*
X113979073Y-94339312D01*
X114074278Y-94148114D01*
X114132729Y-93942678D01*
X114152437Y-93730000D01*
X114132729Y-93517322D01*
X114074278Y-93311886D01*
X113979073Y-93120688D01*
X113850356Y-92950240D01*
X113692512Y-92806345D01*
X113692509Y-92806343D01*
X113692508Y-92806342D01*
X113510917Y-92693906D01*
X113510911Y-92693903D01*
X113427482Y-92661582D01*
X113311748Y-92616747D01*
X113101795Y-92577500D01*
X112888205Y-92577500D01*
X112678252Y-92616747D01*
X112630406Y-92635282D01*
X112479088Y-92693903D01*
X112479082Y-92693906D01*
X112297491Y-92806342D01*
X112139643Y-92950240D01*
X112010927Y-93120687D01*
X111915723Y-93311882D01*
X111915722Y-93311886D01*
X111862200Y-93500000D01*
X111857270Y-93517326D01*
X111837563Y-93730000D01*
X109500500Y-93730000D01*
X109500500Y-87380000D01*
X110517348Y-87380000D01*
X110537910Y-87601900D01*
X110537910Y-87601902D01*
X110537911Y-87601905D01*
X110574267Y-87729683D01*
X110598899Y-87816257D01*
X110601857Y-87822197D01*
X110698234Y-88015747D01*
X110832534Y-88193590D01*
X110997227Y-88343727D01*
X111078382Y-88393976D01*
X111170778Y-88451186D01*
X111186703Y-88461046D01*
X111394510Y-88541551D01*
X111613572Y-88582500D01*
X111613575Y-88582500D01*
X111836425Y-88582500D01*
X111836428Y-88582500D01*
X112055490Y-88541551D01*
X112263297Y-88461046D01*
X112452773Y-88343727D01*
X112617466Y-88193590D01*
X112751766Y-88015747D01*
X112851102Y-87816254D01*
X112875733Y-87729681D01*
X112913012Y-87670589D01*
X112976322Y-87641031D01*
X113045561Y-87650393D01*
X113098748Y-87695702D01*
X113114267Y-87729683D01*
X113138898Y-87816256D01*
X113230393Y-88000000D01*
X113238234Y-88015747D01*
X113372534Y-88193590D01*
X113537227Y-88343727D01*
X113618382Y-88393976D01*
X113726701Y-88461045D01*
X113726703Y-88461046D01*
X113915981Y-88534373D01*
X113971383Y-88576946D01*
X113994973Y-88642713D01*
X113979262Y-88710794D01*
X113929238Y-88759572D01*
X113915981Y-88765627D01*
X113726703Y-88838953D01*
X113726701Y-88838954D01*
X113537225Y-88956274D01*
X113372539Y-89106404D01*
X113372536Y-89106407D01*
X113238234Y-89284252D01*
X113138899Y-89483742D01*
X113077910Y-89698099D01*
X113057348Y-89920000D01*
X113077910Y-90141900D01*
X113077910Y-90141902D01*
X113077911Y-90141905D01*
X113125400Y-90308814D01*
X113138899Y-90356257D01*
X113225071Y-90529312D01*
X113238234Y-90555747D01*
X113369492Y-90729562D01*
X113372536Y-90733592D01*
X113372539Y-90733595D01*
X113472804Y-90824998D01*
X113537227Y-90883727D01*
X113726703Y-91001046D01*
X113934510Y-91081551D01*
X114153572Y-91122500D01*
X114153575Y-91122500D01*
X114376425Y-91122500D01*
X114376428Y-91122500D01*
X114595490Y-91081551D01*
X114803297Y-91001046D01*
X114992773Y-90883727D01*
X115157466Y-90733590D01*
X115291766Y-90555747D01*
X115294628Y-90550000D01*
X116434815Y-90550000D01*
X116453503Y-90727805D01*
X116453504Y-90727807D01*
X116508747Y-90897829D01*
X116508750Y-90897835D01*
X116598141Y-91052665D01*
X116624150Y-91081551D01*
X116717764Y-91185521D01*
X116717767Y-91185523D01*
X116717770Y-91185526D01*
X116862407Y-91290612D01*
X117025733Y-91363329D01*
X117200609Y-91400500D01*
X117200610Y-91400500D01*
X117379389Y-91400500D01*
X117379391Y-91400500D01*
X117554267Y-91363329D01*
X117717593Y-91290612D01*
X117774143Y-91249524D01*
X117839947Y-91226045D01*
X117908001Y-91241869D01*
X117956697Y-91291974D01*
X117970573Y-91360452D01*
X117970353Y-91362759D01*
X117955929Y-91500000D01*
X117975759Y-91688674D01*
X117975760Y-91688677D01*
X118034381Y-91869095D01*
X118034383Y-91869099D01*
X118034384Y-91869102D01*
X118074162Y-91937999D01*
X118074163Y-91938001D01*
X118090635Y-92005901D01*
X118074163Y-92061999D01*
X118034383Y-92130900D01*
X118034381Y-92130904D01*
X117975760Y-92311322D01*
X117975759Y-92311326D01*
X117955929Y-92500000D01*
X117975759Y-92688674D01*
X117975760Y-92688677D01*
X118034381Y-92869095D01*
X118034383Y-92869099D01*
X118034384Y-92869102D01*
X118050062Y-92896257D01*
X118074163Y-92938001D01*
X118090635Y-93005901D01*
X118074163Y-93061998D01*
X118054679Y-93095747D01*
X118034383Y-93130900D01*
X118034381Y-93130904D01*
X117981105Y-93294873D01*
X117975759Y-93311326D01*
X117955929Y-93500000D01*
X117975759Y-93688674D01*
X117975760Y-93688677D01*
X118034381Y-93869095D01*
X118034383Y-93869099D01*
X118034384Y-93869102D01*
X118063166Y-93918954D01*
X118074163Y-93938001D01*
X118090635Y-94005901D01*
X118074163Y-94061999D01*
X118034383Y-94130900D01*
X118034381Y-94130904D01*
X117975760Y-94311322D01*
X117975759Y-94311326D01*
X117955929Y-94500000D01*
X117975759Y-94688674D01*
X117975760Y-94688677D01*
X118034381Y-94869095D01*
X118034383Y-94869099D01*
X118034384Y-94869102D01*
X118049136Y-94894653D01*
X118074163Y-94938001D01*
X118090635Y-95005901D01*
X118074163Y-95061998D01*
X118039586Y-95121889D01*
X118034383Y-95130900D01*
X118034381Y-95130904D01*
X118000914Y-95233906D01*
X117975759Y-95311326D01*
X117955929Y-95500000D01*
X117975759Y-95688674D01*
X117975760Y-95688677D01*
X118034381Y-95869095D01*
X118034383Y-95869099D01*
X118034384Y-95869102D01*
X118074162Y-95937999D01*
X118074163Y-95938001D01*
X118090635Y-96005901D01*
X118074163Y-96061998D01*
X118072585Y-96064733D01*
X118034383Y-96130900D01*
X118034381Y-96130904D01*
X117986819Y-96277287D01*
X117975759Y-96311326D01*
X117955929Y-96500000D01*
X117975759Y-96688674D01*
X117975760Y-96688677D01*
X118034381Y-96869095D01*
X118034383Y-96869099D01*
X118034384Y-96869102D01*
X118069940Y-96930687D01*
X118074163Y-96938001D01*
X118090635Y-97005901D01*
X118074163Y-97061998D01*
X118039590Y-97121882D01*
X118034383Y-97130900D01*
X118034381Y-97130904D01*
X117977458Y-97306096D01*
X117975759Y-97311326D01*
X117955929Y-97500000D01*
X117975759Y-97688674D01*
X117975760Y-97688677D01*
X118034381Y-97869095D01*
X118034383Y-97869099D01*
X118034384Y-97869102D01*
X118055885Y-97906342D01*
X118074163Y-97938001D01*
X118090635Y-98005901D01*
X118074163Y-98061999D01*
X118034383Y-98130900D01*
X118034381Y-98130904D01*
X117978610Y-98302552D01*
X117975759Y-98311326D01*
X117955929Y-98500000D01*
X117975759Y-98688674D01*
X117975760Y-98688677D01*
X118034381Y-98869095D01*
X118034384Y-98869102D01*
X118129241Y-99033398D01*
X118256183Y-99174382D01*
X118358503Y-99248722D01*
X118409665Y-99285894D01*
X118476194Y-99315513D01*
X118582976Y-99363056D01*
X118768543Y-99402500D01*
X118958257Y-99402500D01*
X119143824Y-99363056D01*
X119317136Y-99285893D01*
X119470617Y-99174382D01*
X119597559Y-99033398D01*
X119692416Y-98869102D01*
X119751041Y-98688674D01*
X119770871Y-98500000D01*
X119751041Y-98311326D01*
X119711957Y-98191040D01*
X119692417Y-98130900D01*
X119692416Y-98130898D01*
X119652636Y-98061998D01*
X119636164Y-97994101D01*
X119652636Y-97938001D01*
X119692416Y-97869102D01*
X119751041Y-97688674D01*
X119770871Y-97500000D01*
X119751041Y-97311326D01*
X119714869Y-97200000D01*
X125744815Y-97200000D01*
X125763503Y-97377805D01*
X125763504Y-97377807D01*
X125818747Y-97547829D01*
X125818750Y-97547835D01*
X125908141Y-97702665D01*
X125949812Y-97748946D01*
X126027764Y-97835521D01*
X126027767Y-97835523D01*
X126027770Y-97835526D01*
X126172407Y-97940612D01*
X126335733Y-98013329D01*
X126510609Y-98050500D01*
X126510610Y-98050500D01*
X126689389Y-98050500D01*
X126689391Y-98050500D01*
X126864267Y-98013329D01*
X127027593Y-97940612D01*
X127172230Y-97835526D01*
X127181710Y-97824998D01*
X127220165Y-97782289D01*
X127291859Y-97702665D01*
X127381250Y-97547835D01*
X127436497Y-97377803D01*
X127455185Y-97200000D01*
X127436497Y-97022197D01*
X127406763Y-96930687D01*
X127381252Y-96852170D01*
X127381249Y-96852164D01*
X127291859Y-96697335D01*
X127245003Y-96645296D01*
X127172235Y-96564478D01*
X127172232Y-96564476D01*
X127172231Y-96564475D01*
X127172230Y-96564474D01*
X127027593Y-96459388D01*
X126961586Y-96430000D01*
X133154815Y-96430000D01*
X133173503Y-96607805D01*
X133173504Y-96607807D01*
X133228747Y-96777829D01*
X133228750Y-96777835D01*
X133318141Y-96932665D01*
X133322944Y-96937999D01*
X133437764Y-97065521D01*
X133437767Y-97065523D01*
X133437770Y-97065526D01*
X133582407Y-97170612D01*
X133745733Y-97243329D01*
X133920609Y-97280500D01*
X133920610Y-97280500D01*
X134099389Y-97280500D01*
X134099391Y-97280500D01*
X134274267Y-97243329D01*
X134437593Y-97170612D01*
X134582230Y-97065526D01*
X134701859Y-96932665D01*
X134791250Y-96777835D01*
X134846497Y-96607803D01*
X134865185Y-96430000D01*
X134846497Y-96252197D01*
X134807085Y-96130900D01*
X134791252Y-96082170D01*
X134791249Y-96082164D01*
X134790603Y-96081045D01*
X134701859Y-95927335D01*
X134649419Y-95869095D01*
X134582235Y-95794478D01*
X134582232Y-95794476D01*
X134582231Y-95794475D01*
X134582230Y-95794474D01*
X134437593Y-95689388D01*
X134274267Y-95616671D01*
X134274265Y-95616670D01*
X134146594Y-95589533D01*
X134099391Y-95579500D01*
X133920609Y-95579500D01*
X133889954Y-95586015D01*
X133745733Y-95616670D01*
X133745728Y-95616672D01*
X133582408Y-95689387D01*
X133437768Y-95794475D01*
X133318140Y-95927336D01*
X133228750Y-96082164D01*
X133228747Y-96082170D01*
X133173504Y-96252192D01*
X133173503Y-96252194D01*
X133154815Y-96430000D01*
X126961586Y-96430000D01*
X126864267Y-96386671D01*
X126864265Y-96386670D01*
X126736594Y-96359533D01*
X126689391Y-96349500D01*
X126510609Y-96349500D01*
X126479954Y-96356015D01*
X126335733Y-96386670D01*
X126335728Y-96386672D01*
X126172408Y-96459387D01*
X126027768Y-96564475D01*
X125908140Y-96697336D01*
X125818750Y-96852164D01*
X125818747Y-96852170D01*
X125763504Y-97022192D01*
X125763503Y-97022194D01*
X125744815Y-97200000D01*
X119714869Y-97200000D01*
X119692416Y-97130898D01*
X119652636Y-97061998D01*
X119636164Y-96994101D01*
X119652636Y-96938001D01*
X119692416Y-96869102D01*
X119751041Y-96688674D01*
X119770871Y-96500000D01*
X119751041Y-96311326D01*
X119692416Y-96130898D01*
X119652636Y-96061998D01*
X119636164Y-95994101D01*
X119652636Y-95938001D01*
X119692416Y-95869102D01*
X119751041Y-95688674D01*
X119770871Y-95500000D01*
X119758259Y-95380000D01*
X124699790Y-95380000D01*
X124718478Y-95557805D01*
X124718479Y-95557807D01*
X124773722Y-95727829D01*
X124773725Y-95727835D01*
X124863116Y-95882665D01*
X124903337Y-95927335D01*
X124982739Y-96015521D01*
X124982742Y-96015523D01*
X124982745Y-96015526D01*
X125127382Y-96120612D01*
X125290708Y-96193329D01*
X125465584Y-96230500D01*
X125465585Y-96230500D01*
X125644364Y-96230500D01*
X125644366Y-96230500D01*
X125819242Y-96193329D01*
X125982568Y-96120612D01*
X126127205Y-96015526D01*
X126135872Y-96005901D01*
X126173847Y-95963725D01*
X126246834Y-95882665D01*
X126336225Y-95727835D01*
X126391472Y-95557803D01*
X126410160Y-95380000D01*
X126391472Y-95202197D01*
X126355089Y-95090221D01*
X126336227Y-95032170D01*
X126336224Y-95032164D01*
X126246834Y-94877335D01*
X126199978Y-94825296D01*
X126127210Y-94744478D01*
X126127207Y-94744476D01*
X126127206Y-94744475D01*
X126127205Y-94744474D01*
X125982568Y-94639388D01*
X125819242Y-94566671D01*
X125819240Y-94566670D01*
X125691569Y-94539533D01*
X125644366Y-94529500D01*
X125465584Y-94529500D01*
X125434929Y-94536015D01*
X125290708Y-94566670D01*
X125290703Y-94566672D01*
X125127383Y-94639387D01*
X124982743Y-94744475D01*
X124863115Y-94877336D01*
X124773725Y-95032164D01*
X124773722Y-95032170D01*
X124718479Y-95202192D01*
X124718478Y-95202194D01*
X124699790Y-95380000D01*
X119758259Y-95380000D01*
X119751041Y-95311326D01*
X119692416Y-95130898D01*
X119652636Y-95061998D01*
X119636164Y-94994101D01*
X119652636Y-94938001D01*
X119692416Y-94869102D01*
X119751041Y-94688674D01*
X119770871Y-94500000D01*
X119751041Y-94311326D01*
X119692416Y-94130898D01*
X119652636Y-94061998D01*
X119636164Y-93994101D01*
X119652636Y-93938001D01*
X119692416Y-93869102D01*
X119751041Y-93688674D01*
X119770871Y-93500000D01*
X119751041Y-93311326D01*
X119692416Y-93130898D01*
X119652636Y-93061998D01*
X119636164Y-92994101D01*
X119652636Y-92938001D01*
X119692416Y-92869102D01*
X119751041Y-92688674D01*
X119770871Y-92500000D01*
X119751041Y-92311326D01*
X119692416Y-92130898D01*
X119652636Y-92061998D01*
X119636164Y-91994101D01*
X119652636Y-91938001D01*
X119692416Y-91869102D01*
X119751041Y-91688674D01*
X119770871Y-91500000D01*
X119751041Y-91311326D01*
X119692416Y-91130898D01*
X119597559Y-90966602D01*
X119470617Y-90825618D01*
X119346617Y-90735526D01*
X119317134Y-90714105D01*
X119184075Y-90654865D01*
X119143824Y-90636944D01*
X119143822Y-90636943D01*
X119143821Y-90636943D01*
X118958257Y-90597500D01*
X118768543Y-90597500D01*
X118582976Y-90636943D01*
X118582971Y-90636945D01*
X118409666Y-90714106D01*
X118329961Y-90772015D01*
X118264154Y-90795494D01*
X118196100Y-90779668D01*
X118147406Y-90729562D01*
X118133531Y-90661084D01*
X118133739Y-90658896D01*
X118145185Y-90550000D01*
X118126497Y-90372197D01*
X118072213Y-90205128D01*
X118071252Y-90202170D01*
X118071249Y-90202164D01*
X118012265Y-90100000D01*
X120584815Y-90100000D01*
X120603503Y-90277805D01*
X120603504Y-90277807D01*
X120658747Y-90447829D01*
X120658750Y-90447835D01*
X120748141Y-90602665D01*
X120777256Y-90635000D01*
X120867764Y-90735521D01*
X120867767Y-90735523D01*
X120867770Y-90735526D01*
X121012407Y-90840612D01*
X121175733Y-90913329D01*
X121350609Y-90950500D01*
X121350610Y-90950500D01*
X121529389Y-90950500D01*
X121529391Y-90950500D01*
X121704267Y-90913329D01*
X121867593Y-90840612D01*
X122012230Y-90735526D01*
X122013972Y-90733592D01*
X122044435Y-90699759D01*
X122131859Y-90602665D01*
X122221250Y-90447835D01*
X122276497Y-90277803D01*
X122295185Y-90100000D01*
X122276497Y-89922197D01*
X122221250Y-89752165D01*
X122131859Y-89597335D01*
X122085003Y-89545296D01*
X122012235Y-89464478D01*
X122012232Y-89464476D01*
X122012231Y-89464475D01*
X122012230Y-89464474D01*
X121867593Y-89359388D01*
X121704267Y-89286671D01*
X121704265Y-89286670D01*
X121576594Y-89259533D01*
X121529391Y-89249500D01*
X121350609Y-89249500D01*
X121319954Y-89256015D01*
X121175733Y-89286670D01*
X121175728Y-89286672D01*
X121012408Y-89359387D01*
X120867768Y-89464475D01*
X120748140Y-89597336D01*
X120658750Y-89752164D01*
X120658747Y-89752170D01*
X120603504Y-89922192D01*
X120603503Y-89922194D01*
X120584815Y-90100000D01*
X118012265Y-90100000D01*
X117981859Y-90047335D01*
X117914725Y-89972775D01*
X117862235Y-89914478D01*
X117862232Y-89914476D01*
X117862231Y-89914475D01*
X117862230Y-89914474D01*
X117717593Y-89809388D01*
X117554267Y-89736671D01*
X117554265Y-89736670D01*
X117416209Y-89707326D01*
X117379391Y-89699500D01*
X117200609Y-89699500D01*
X117169954Y-89706015D01*
X117025733Y-89736670D01*
X117025728Y-89736672D01*
X116862408Y-89809387D01*
X116717768Y-89914475D01*
X116598140Y-90047336D01*
X116508750Y-90202164D01*
X116508747Y-90202170D01*
X116453504Y-90372192D01*
X116453503Y-90372194D01*
X116434815Y-90550000D01*
X115294628Y-90550000D01*
X115391102Y-90356254D01*
X115452089Y-90141905D01*
X115472652Y-89920000D01*
X115452089Y-89698095D01*
X115391102Y-89483746D01*
X115291766Y-89284253D01*
X115157466Y-89106410D01*
X115157463Y-89106407D01*
X115157460Y-89106404D01*
X114992774Y-88956274D01*
X114992773Y-88956273D01*
X114875892Y-88883903D01*
X114803298Y-88838954D01*
X114803296Y-88838953D01*
X114618853Y-88767500D01*
X114614017Y-88765626D01*
X114558617Y-88723054D01*
X114535026Y-88657287D01*
X114550737Y-88589207D01*
X114600761Y-88540428D01*
X114614015Y-88534374D01*
X114803297Y-88461046D01*
X114992773Y-88343727D01*
X115157466Y-88193590D01*
X115291766Y-88015747D01*
X115391102Y-87816254D01*
X115415733Y-87729681D01*
X115453012Y-87670589D01*
X115516322Y-87641031D01*
X115585561Y-87650393D01*
X115638748Y-87695702D01*
X115654267Y-87729683D01*
X115678898Y-87816256D01*
X115770393Y-88000000D01*
X115778234Y-88015747D01*
X115912534Y-88193590D01*
X116077227Y-88343727D01*
X116158382Y-88393976D01*
X116250778Y-88451186D01*
X116266703Y-88461046D01*
X116474510Y-88541551D01*
X116693572Y-88582500D01*
X116693575Y-88582500D01*
X116916425Y-88582500D01*
X116916428Y-88582500D01*
X117135490Y-88541551D01*
X117343297Y-88461046D01*
X117532773Y-88343727D01*
X117697466Y-88193590D01*
X117831766Y-88015747D01*
X117931102Y-87816254D01*
X117955733Y-87729681D01*
X117993012Y-87670589D01*
X118056322Y-87641031D01*
X118125561Y-87650393D01*
X118178748Y-87695702D01*
X118194267Y-87729683D01*
X118218898Y-87816256D01*
X118310393Y-88000000D01*
X118318234Y-88015747D01*
X118452534Y-88193590D01*
X118617227Y-88343727D01*
X118698382Y-88393976D01*
X118790778Y-88451186D01*
X118806703Y-88461046D01*
X119014510Y-88541551D01*
X119233572Y-88582500D01*
X119233575Y-88582500D01*
X119456425Y-88582500D01*
X119456428Y-88582500D01*
X119675490Y-88541551D01*
X119883297Y-88461046D01*
X120072773Y-88343727D01*
X120237466Y-88193590D01*
X120371766Y-88015747D01*
X120471102Y-87816254D01*
X120495733Y-87729681D01*
X120533012Y-87670589D01*
X120596322Y-87641031D01*
X120665561Y-87650393D01*
X120718748Y-87695702D01*
X120734267Y-87729683D01*
X120758898Y-87816256D01*
X120850393Y-88000000D01*
X120858234Y-88015747D01*
X120992534Y-88193590D01*
X121157227Y-88343727D01*
X121238382Y-88393976D01*
X121330778Y-88451186D01*
X121346703Y-88461046D01*
X121554510Y-88541551D01*
X121773572Y-88582500D01*
X121773575Y-88582500D01*
X121996425Y-88582500D01*
X121996428Y-88582500D01*
X122215490Y-88541551D01*
X122423297Y-88461046D01*
X122612773Y-88343727D01*
X122777466Y-88193590D01*
X122911766Y-88015747D01*
X123011102Y-87816254D01*
X123035733Y-87729681D01*
X123073012Y-87670589D01*
X123136322Y-87641031D01*
X123205561Y-87650393D01*
X123258748Y-87695702D01*
X123274267Y-87729683D01*
X123298898Y-87816256D01*
X123390393Y-88000000D01*
X123398234Y-88015747D01*
X123532534Y-88193590D01*
X123697227Y-88343727D01*
X123778382Y-88393976D01*
X123870778Y-88451186D01*
X123886703Y-88461046D01*
X124094510Y-88541551D01*
X124313572Y-88582500D01*
X124313575Y-88582500D01*
X124536425Y-88582500D01*
X124536428Y-88582500D01*
X124755490Y-88541551D01*
X124963297Y-88461046D01*
X125152773Y-88343727D01*
X125317466Y-88193590D01*
X125451766Y-88015747D01*
X125551102Y-87816254D01*
X125575733Y-87729681D01*
X125613012Y-87670589D01*
X125676322Y-87641031D01*
X125745561Y-87650393D01*
X125798748Y-87695702D01*
X125814267Y-87729683D01*
X125838898Y-87816256D01*
X125930393Y-88000000D01*
X125938234Y-88015747D01*
X126072534Y-88193590D01*
X126237227Y-88343727D01*
X126318382Y-88393976D01*
X126410778Y-88451186D01*
X126426703Y-88461046D01*
X126634510Y-88541551D01*
X126853572Y-88582500D01*
X126853575Y-88582500D01*
X127076425Y-88582500D01*
X127076428Y-88582500D01*
X127295490Y-88541551D01*
X127503297Y-88461046D01*
X127692773Y-88343727D01*
X127857466Y-88193590D01*
X127991766Y-88015747D01*
X128091102Y-87816254D01*
X128115733Y-87729681D01*
X128153012Y-87670589D01*
X128216322Y-87641031D01*
X128285561Y-87650393D01*
X128338748Y-87695702D01*
X128354267Y-87729683D01*
X128378898Y-87816256D01*
X128470393Y-88000000D01*
X128478234Y-88015747D01*
X128612534Y-88193590D01*
X128777227Y-88343727D01*
X128858382Y-88393976D01*
X128950778Y-88451186D01*
X128966703Y-88461046D01*
X129174510Y-88541551D01*
X129393572Y-88582500D01*
X129393575Y-88582500D01*
X129616425Y-88582500D01*
X129616428Y-88582500D01*
X129835490Y-88541551D01*
X130043297Y-88461046D01*
X130232773Y-88343727D01*
X130397466Y-88193590D01*
X130531766Y-88015747D01*
X130631102Y-87816254D01*
X130655733Y-87729681D01*
X130693012Y-87670589D01*
X130756322Y-87641031D01*
X130825561Y-87650393D01*
X130878748Y-87695702D01*
X130894267Y-87729683D01*
X130918898Y-87816256D01*
X131010393Y-88000000D01*
X131018234Y-88015747D01*
X131152534Y-88193590D01*
X131317227Y-88343727D01*
X131398382Y-88393976D01*
X131490778Y-88451186D01*
X131506703Y-88461046D01*
X131714510Y-88541551D01*
X131933572Y-88582500D01*
X131933575Y-88582500D01*
X132156425Y-88582500D01*
X132156428Y-88582500D01*
X132375490Y-88541551D01*
X132583297Y-88461046D01*
X132772773Y-88343727D01*
X132937466Y-88193590D01*
X133071766Y-88015747D01*
X133171102Y-87816254D01*
X133195733Y-87729681D01*
X133233012Y-87670589D01*
X133296322Y-87641031D01*
X133365561Y-87650393D01*
X133418748Y-87695702D01*
X133434267Y-87729683D01*
X133458898Y-87816256D01*
X133550393Y-88000000D01*
X133558234Y-88015747D01*
X133692534Y-88193590D01*
X133857227Y-88343727D01*
X133938382Y-88393976D01*
X134030778Y-88451186D01*
X134046703Y-88461046D01*
X134254510Y-88541551D01*
X134473572Y-88582500D01*
X134473575Y-88582500D01*
X134696425Y-88582500D01*
X134696428Y-88582500D01*
X134915490Y-88541551D01*
X135123297Y-88461046D01*
X135312773Y-88343727D01*
X135477466Y-88193590D01*
X135611766Y-88015747D01*
X135711102Y-87816254D01*
X135735733Y-87729681D01*
X135773012Y-87670589D01*
X135836322Y-87641031D01*
X135905561Y-87650393D01*
X135958748Y-87695702D01*
X135974267Y-87729683D01*
X135998898Y-87816256D01*
X136090393Y-88000000D01*
X136098234Y-88015747D01*
X136232534Y-88193590D01*
X136397227Y-88343727D01*
X136478382Y-88393976D01*
X136586701Y-88461045D01*
X136586703Y-88461046D01*
X136794504Y-88541549D01*
X136794510Y-88541551D01*
X136858672Y-88553544D01*
X136920952Y-88585212D01*
X136956226Y-88645524D01*
X136953293Y-88715332D01*
X136913084Y-88772472D01*
X136858673Y-88797321D01*
X136808263Y-88806744D01*
X136808254Y-88806746D01*
X136808252Y-88806747D01*
X136770274Y-88821460D01*
X136609088Y-88883903D01*
X136609082Y-88883906D01*
X136427491Y-88996342D01*
X136269643Y-89140240D01*
X136140927Y-89310687D01*
X136045723Y-89501882D01*
X135987270Y-89707326D01*
X135967563Y-89920000D01*
X135987270Y-90132673D01*
X135987270Y-90132675D01*
X135987271Y-90132678D01*
X136037385Y-90308811D01*
X136045723Y-90338117D01*
X136140927Y-90529312D01*
X136233273Y-90651598D01*
X136269644Y-90699760D01*
X136427488Y-90843655D01*
X136427490Y-90843656D01*
X136427491Y-90843657D01*
X136609082Y-90956093D01*
X136609088Y-90956096D01*
X136631513Y-90964783D01*
X136808252Y-91033253D01*
X136994729Y-91068111D01*
X137057009Y-91099779D01*
X137092282Y-91160092D01*
X137089348Y-91229900D01*
X137049139Y-91287040D01*
X136994729Y-91311888D01*
X136808252Y-91346747D01*
X136765449Y-91363329D01*
X136609088Y-91423903D01*
X136609082Y-91423906D01*
X136427491Y-91536342D01*
X136269643Y-91680240D01*
X136140927Y-91850687D01*
X136045723Y-92041882D01*
X135987270Y-92247326D01*
X135967563Y-92460000D01*
X135987270Y-92672673D01*
X135987270Y-92672675D01*
X135987271Y-92672678D01*
X136043156Y-92869095D01*
X136045723Y-92878117D01*
X136140927Y-93069312D01*
X136252992Y-93217710D01*
X136269644Y-93239760D01*
X136427488Y-93383655D01*
X136427490Y-93383656D01*
X136427491Y-93383657D01*
X136609082Y-93496093D01*
X136609088Y-93496096D01*
X136619166Y-93500000D01*
X136808252Y-93573253D01*
X136994729Y-93608111D01*
X137057009Y-93639779D01*
X137092282Y-93700092D01*
X137089348Y-93769900D01*
X137049139Y-93827040D01*
X136994729Y-93851888D01*
X136808252Y-93886747D01*
X136760406Y-93905282D01*
X136609088Y-93963903D01*
X136609082Y-93963906D01*
X136427491Y-94076342D01*
X136269643Y-94220240D01*
X136140927Y-94390687D01*
X136045723Y-94581882D01*
X136045722Y-94581886D01*
X135997553Y-94751186D01*
X135987270Y-94787326D01*
X135967563Y-95000000D01*
X135987270Y-95212673D01*
X135987270Y-95212675D01*
X135987271Y-95212678D01*
X136025302Y-95346345D01*
X136045723Y-95418117D01*
X136140927Y-95609312D01*
X136179724Y-95660688D01*
X136269644Y-95779760D01*
X136427488Y-95923655D01*
X136427490Y-95923656D01*
X136427491Y-95923657D01*
X136609082Y-96036093D01*
X136609088Y-96036096D01*
X136631513Y-96044783D01*
X136808252Y-96113253D01*
X136994729Y-96148111D01*
X137057009Y-96179779D01*
X137092282Y-96240092D01*
X137089348Y-96309900D01*
X137049139Y-96367040D01*
X136994729Y-96391888D01*
X136808252Y-96426747D01*
X136760406Y-96445282D01*
X136609088Y-96503903D01*
X136609082Y-96503906D01*
X136427491Y-96616342D01*
X136269643Y-96760240D01*
X136140927Y-96930687D01*
X136045723Y-97121882D01*
X135987270Y-97327326D01*
X135967563Y-97540000D01*
X135987270Y-97752673D01*
X135987270Y-97752675D01*
X135987271Y-97752678D01*
X136040742Y-97940610D01*
X136045723Y-97958117D01*
X136094295Y-98055663D01*
X136140927Y-98149312D01*
X136269644Y-98319760D01*
X136427488Y-98463655D01*
X136427490Y-98463656D01*
X136427491Y-98463657D01*
X136609082Y-98576093D01*
X136609088Y-98576096D01*
X136631513Y-98584783D01*
X136808252Y-98653253D01*
X136994729Y-98688111D01*
X137057009Y-98719779D01*
X137092282Y-98780092D01*
X137089348Y-98849900D01*
X137049139Y-98907040D01*
X136994729Y-98931888D01*
X136808252Y-98966747D01*
X136760406Y-98985282D01*
X136609088Y-99043903D01*
X136609082Y-99043906D01*
X136427491Y-99156342D01*
X136269643Y-99300240D01*
X136140927Y-99470687D01*
X136045723Y-99661882D01*
X135987270Y-99867326D01*
X135967563Y-100080000D01*
X135987270Y-100292673D01*
X135987270Y-100292675D01*
X135987271Y-100292678D01*
X136018938Y-100403976D01*
X136045723Y-100498117D01*
X136140927Y-100689312D01*
X136236237Y-100815523D01*
X136269644Y-100859760D01*
X136427488Y-101003655D01*
X136427490Y-101003656D01*
X136427491Y-101003657D01*
X136609082Y-101116093D01*
X136609088Y-101116096D01*
X136636900Y-101126870D01*
X136808252Y-101193253D01*
X136858673Y-101202678D01*
X136920952Y-101234344D01*
X136956226Y-101294657D01*
X136953293Y-101364465D01*
X136913084Y-101421605D01*
X136858673Y-101446454D01*
X136794511Y-101458448D01*
X136586703Y-101538953D01*
X136586701Y-101538954D01*
X136397225Y-101656274D01*
X136232539Y-101806404D01*
X136232536Y-101806407D01*
X136098234Y-101984252D01*
X135998899Y-102183742D01*
X135998898Y-102183746D01*
X135986902Y-102225910D01*
X135974267Y-102270317D01*
X135936987Y-102329410D01*
X135873678Y-102358968D01*
X135804438Y-102349606D01*
X135751252Y-102304297D01*
X135735733Y-102270317D01*
X135723099Y-102225913D01*
X135711102Y-102183746D01*
X135611766Y-101984253D01*
X135477466Y-101806410D01*
X135477463Y-101806407D01*
X135477460Y-101806404D01*
X135312774Y-101656274D01*
X135312773Y-101656273D01*
X135199487Y-101586129D01*
X135123298Y-101538954D01*
X135123296Y-101538953D01*
X134959793Y-101475612D01*
X134915490Y-101458449D01*
X134696428Y-101417500D01*
X134473572Y-101417500D01*
X134254510Y-101458449D01*
X134254507Y-101458449D01*
X134254507Y-101458450D01*
X134046703Y-101538953D01*
X134046701Y-101538954D01*
X133857225Y-101656274D01*
X133692539Y-101806404D01*
X133692536Y-101806407D01*
X133558234Y-101984252D01*
X133458899Y-102183742D01*
X133458898Y-102183746D01*
X133446902Y-102225910D01*
X133434267Y-102270317D01*
X133396987Y-102329410D01*
X133333678Y-102358968D01*
X133264438Y-102349606D01*
X133211252Y-102304297D01*
X133195733Y-102270317D01*
X133183099Y-102225913D01*
X133171102Y-102183746D01*
X133071766Y-101984253D01*
X132937466Y-101806410D01*
X132937463Y-101806407D01*
X132937460Y-101806404D01*
X132772774Y-101656274D01*
X132772773Y-101656273D01*
X132659487Y-101586129D01*
X132583298Y-101538954D01*
X132583296Y-101538953D01*
X132419793Y-101475612D01*
X132375490Y-101458449D01*
X132156428Y-101417500D01*
X131933572Y-101417500D01*
X131714510Y-101458449D01*
X131714507Y-101458449D01*
X131714507Y-101458450D01*
X131506703Y-101538953D01*
X131506701Y-101538954D01*
X131317225Y-101656274D01*
X131152539Y-101806404D01*
X131152536Y-101806407D01*
X131018234Y-101984252D01*
X130918899Y-102183742D01*
X130918898Y-102183746D01*
X130906902Y-102225910D01*
X130894267Y-102270317D01*
X130856987Y-102329410D01*
X130793678Y-102358968D01*
X130724438Y-102349606D01*
X130671252Y-102304297D01*
X130655733Y-102270317D01*
X130643099Y-102225913D01*
X130631102Y-102183746D01*
X130531766Y-101984253D01*
X130397466Y-101806410D01*
X130397463Y-101806407D01*
X130397460Y-101806404D01*
X130232774Y-101656274D01*
X130232773Y-101656273D01*
X130119487Y-101586129D01*
X130043298Y-101538954D01*
X130043296Y-101538953D01*
X129879793Y-101475612D01*
X129835490Y-101458449D01*
X129616428Y-101417500D01*
X129393572Y-101417500D01*
X129174510Y-101458449D01*
X129174507Y-101458449D01*
X129174507Y-101458450D01*
X128966703Y-101538953D01*
X128966701Y-101538954D01*
X128777225Y-101656274D01*
X128612539Y-101806404D01*
X128612536Y-101806407D01*
X128478234Y-101984252D01*
X128378899Y-102183742D01*
X128378898Y-102183746D01*
X128366902Y-102225910D01*
X128354267Y-102270317D01*
X128316987Y-102329410D01*
X128253678Y-102358968D01*
X128184438Y-102349606D01*
X128131252Y-102304297D01*
X128115733Y-102270317D01*
X128103099Y-102225913D01*
X128091102Y-102183746D01*
X127991766Y-101984253D01*
X127857466Y-101806410D01*
X127857463Y-101806407D01*
X127857460Y-101806404D01*
X127692774Y-101656274D01*
X127692773Y-101656273D01*
X127579487Y-101586129D01*
X127503298Y-101538954D01*
X127503296Y-101538953D01*
X127339793Y-101475612D01*
X127295490Y-101458449D01*
X127076428Y-101417500D01*
X126853572Y-101417500D01*
X126634510Y-101458449D01*
X126634507Y-101458449D01*
X126634507Y-101458450D01*
X126426703Y-101538953D01*
X126426701Y-101538954D01*
X126237225Y-101656274D01*
X126072539Y-101806404D01*
X126072536Y-101806407D01*
X125938234Y-101984252D01*
X125838899Y-102183742D01*
X125838898Y-102183746D01*
X125826902Y-102225910D01*
X125814267Y-102270317D01*
X125776987Y-102329410D01*
X125713678Y-102358968D01*
X125644438Y-102349606D01*
X125591252Y-102304297D01*
X125575733Y-102270317D01*
X125563099Y-102225913D01*
X125551102Y-102183746D01*
X125451766Y-101984253D01*
X125317466Y-101806410D01*
X125317463Y-101806407D01*
X125317460Y-101806404D01*
X125152774Y-101656274D01*
X125152773Y-101656273D01*
X125024251Y-101576695D01*
X124977617Y-101524668D01*
X124966513Y-101455686D01*
X124994466Y-101391652D01*
X125012424Y-101374889D01*
X125012406Y-101374869D01*
X125013567Y-101373823D01*
X125016644Y-101370951D01*
X125017230Y-101370526D01*
X125022688Y-101364465D01*
X125043148Y-101341741D01*
X125136859Y-101237665D01*
X125226250Y-101082835D01*
X125281497Y-100912803D01*
X125300185Y-100735000D01*
X125281497Y-100557197D01*
X125250301Y-100461186D01*
X125226252Y-100387170D01*
X125226249Y-100387164D01*
X125219515Y-100375500D01*
X125136859Y-100232335D01*
X125089736Y-100180000D01*
X125017235Y-100099478D01*
X125017232Y-100099476D01*
X125017231Y-100099475D01*
X125017230Y-100099474D01*
X124872593Y-99994388D01*
X124709267Y-99921671D01*
X124709265Y-99921670D01*
X124581594Y-99894533D01*
X124534391Y-99884500D01*
X124355609Y-99884500D01*
X124324954Y-99891015D01*
X124180733Y-99921670D01*
X124180728Y-99921672D01*
X124017408Y-99994387D01*
X123872768Y-100099475D01*
X123753140Y-100232336D01*
X123663750Y-100387164D01*
X123663747Y-100387170D01*
X123608504Y-100557192D01*
X123608503Y-100557194D01*
X123589815Y-100735000D01*
X123608503Y-100912805D01*
X123608504Y-100912807D01*
X123663747Y-101082829D01*
X123663750Y-101082835D01*
X123753141Y-101237665D01*
X123788510Y-101276946D01*
X123875830Y-101373925D01*
X123906060Y-101436916D01*
X123897435Y-101506252D01*
X123852693Y-101559917D01*
X123848958Y-101562324D01*
X123697225Y-101656274D01*
X123532539Y-101806404D01*
X123532536Y-101806407D01*
X123398234Y-101984252D01*
X123298899Y-102183742D01*
X123298898Y-102183746D01*
X123286902Y-102225910D01*
X123274267Y-102270317D01*
X123236987Y-102329410D01*
X123173678Y-102358968D01*
X123104438Y-102349606D01*
X123051252Y-102304297D01*
X123035733Y-102270317D01*
X123023099Y-102225913D01*
X123011102Y-102183746D01*
X122911766Y-101984253D01*
X122777466Y-101806410D01*
X122777463Y-101806407D01*
X122777460Y-101806404D01*
X122612774Y-101656274D01*
X122612773Y-101656273D01*
X122499487Y-101586129D01*
X122423298Y-101538954D01*
X122423296Y-101538953D01*
X122259793Y-101475612D01*
X122215490Y-101458449D01*
X121996428Y-101417500D01*
X121773572Y-101417500D01*
X121554510Y-101458449D01*
X121554507Y-101458449D01*
X121554507Y-101458450D01*
X121346703Y-101538953D01*
X121346701Y-101538954D01*
X121157225Y-101656274D01*
X120992539Y-101806404D01*
X120992536Y-101806407D01*
X120858234Y-101984252D01*
X120758899Y-102183742D01*
X120758898Y-102183746D01*
X120746902Y-102225910D01*
X120734267Y-102270317D01*
X120696987Y-102329410D01*
X120633678Y-102358968D01*
X120564438Y-102349606D01*
X120511252Y-102304297D01*
X120495733Y-102270317D01*
X120483099Y-102225913D01*
X120471102Y-102183746D01*
X120371766Y-101984253D01*
X120237466Y-101806410D01*
X120237463Y-101806407D01*
X120237460Y-101806404D01*
X120072774Y-101656274D01*
X120072773Y-101656273D01*
X119959487Y-101586129D01*
X119883298Y-101538954D01*
X119883296Y-101538953D01*
X119719793Y-101475612D01*
X119675490Y-101458449D01*
X119456428Y-101417500D01*
X119233572Y-101417500D01*
X119014510Y-101458449D01*
X119014507Y-101458449D01*
X119014507Y-101458450D01*
X118806703Y-101538953D01*
X118806701Y-101538954D01*
X118617225Y-101656274D01*
X118452539Y-101806404D01*
X118452536Y-101806407D01*
X118318234Y-101984252D01*
X118218899Y-102183742D01*
X118218898Y-102183746D01*
X118206902Y-102225910D01*
X118194267Y-102270317D01*
X118156987Y-102329410D01*
X118093678Y-102358968D01*
X118024438Y-102349606D01*
X117971252Y-102304297D01*
X117955733Y-102270317D01*
X117943099Y-102225913D01*
X117931102Y-102183746D01*
X117831766Y-101984253D01*
X117697466Y-101806410D01*
X117697463Y-101806407D01*
X117697460Y-101806404D01*
X117532774Y-101656274D01*
X117532773Y-101656273D01*
X117419487Y-101586129D01*
X117343298Y-101538954D01*
X117343296Y-101538953D01*
X117179793Y-101475612D01*
X117135490Y-101458449D01*
X116916428Y-101417500D01*
X116693572Y-101417500D01*
X116474510Y-101458449D01*
X116474507Y-101458449D01*
X116474507Y-101458450D01*
X116266703Y-101538953D01*
X116266701Y-101538954D01*
X116077225Y-101656274D01*
X115912539Y-101806404D01*
X115912536Y-101806407D01*
X115778234Y-101984252D01*
X115678899Y-102183742D01*
X115678898Y-102183746D01*
X115666902Y-102225910D01*
X115654267Y-102270317D01*
X115616987Y-102329410D01*
X115553678Y-102358968D01*
X115484438Y-102349606D01*
X115431252Y-102304297D01*
X115415733Y-102270317D01*
X115403099Y-102225913D01*
X115391102Y-102183746D01*
X115291766Y-101984253D01*
X115157466Y-101806410D01*
X115157463Y-101806407D01*
X115157460Y-101806404D01*
X114992774Y-101656274D01*
X114992773Y-101656273D01*
X114879487Y-101586129D01*
X114803298Y-101538954D01*
X114803296Y-101538953D01*
X114639793Y-101475612D01*
X114595490Y-101458449D01*
X114376428Y-101417500D01*
X114153572Y-101417500D01*
X113934510Y-101458449D01*
X113934507Y-101458449D01*
X113934507Y-101458450D01*
X113726703Y-101538953D01*
X113726701Y-101538954D01*
X113537225Y-101656274D01*
X113372539Y-101806404D01*
X113372536Y-101806407D01*
X113238234Y-101984252D01*
X113138899Y-102183742D01*
X113138898Y-102183746D01*
X113126902Y-102225910D01*
X113114267Y-102270317D01*
X113076987Y-102329410D01*
X113013678Y-102358968D01*
X112944438Y-102349606D01*
X112891252Y-102304297D01*
X112875733Y-102270317D01*
X112863099Y-102225913D01*
X112851102Y-102183746D01*
X112751766Y-101984253D01*
X112617466Y-101806410D01*
X112617463Y-101806407D01*
X112617460Y-101806404D01*
X112452774Y-101656274D01*
X112452773Y-101656273D01*
X112339487Y-101586129D01*
X112263298Y-101538954D01*
X112263296Y-101538953D01*
X112099793Y-101475612D01*
X112055490Y-101458449D01*
X111836428Y-101417500D01*
X111613572Y-101417500D01*
X111394510Y-101458449D01*
X111394507Y-101458449D01*
X111394507Y-101458450D01*
X111186703Y-101538953D01*
X111186701Y-101538954D01*
X110997225Y-101656274D01*
X110832539Y-101806404D01*
X110832536Y-101806407D01*
X110698234Y-101984252D01*
X110598899Y-102183742D01*
X110574267Y-102270317D01*
X110549044Y-102358968D01*
X110537910Y-102398099D01*
X110517348Y-102620000D01*
X110537910Y-102841900D01*
X110537910Y-102841902D01*
X110537911Y-102841905D01*
X110598898Y-103056254D01*
X110698234Y-103255747D01*
X110832534Y-103433590D01*
X110997227Y-103583727D01*
X111186703Y-103701046D01*
X111394510Y-103781551D01*
X111613572Y-103822500D01*
X111613575Y-103822500D01*
X111836425Y-103822500D01*
X111836428Y-103822500D01*
X112055490Y-103781551D01*
X112263297Y-103701046D01*
X112452773Y-103583727D01*
X112617466Y-103433590D01*
X112751766Y-103255747D01*
X112851102Y-103056254D01*
X112875733Y-102969681D01*
X112913012Y-102910589D01*
X112976322Y-102881031D01*
X113045561Y-102890393D01*
X113098748Y-102935702D01*
X113114267Y-102969683D01*
X113138898Y-103056256D01*
X113235123Y-103249500D01*
X113238234Y-103255747D01*
X113372534Y-103433590D01*
X113537227Y-103583727D01*
X113726703Y-103701046D01*
X113934510Y-103781551D01*
X114153572Y-103822500D01*
X114153575Y-103822500D01*
X114376425Y-103822500D01*
X114376428Y-103822500D01*
X114595490Y-103781551D01*
X114803297Y-103701046D01*
X114992773Y-103583727D01*
X115157466Y-103433590D01*
X115291766Y-103255747D01*
X115391102Y-103056254D01*
X115415733Y-102969681D01*
X115453012Y-102910589D01*
X115516322Y-102881031D01*
X115585561Y-102890393D01*
X115638748Y-102935702D01*
X115654267Y-102969683D01*
X115678898Y-103056256D01*
X115775123Y-103249500D01*
X115778234Y-103255747D01*
X115912534Y-103433590D01*
X116077227Y-103583727D01*
X116266703Y-103701046D01*
X116474510Y-103781551D01*
X116693572Y-103822500D01*
X116693575Y-103822500D01*
X116916425Y-103822500D01*
X116916428Y-103822500D01*
X117135490Y-103781551D01*
X117343297Y-103701046D01*
X117532773Y-103583727D01*
X117697466Y-103433590D01*
X117831766Y-103255747D01*
X117931102Y-103056254D01*
X117955733Y-102969681D01*
X117993012Y-102910589D01*
X118056322Y-102881031D01*
X118125561Y-102890393D01*
X118178748Y-102935702D01*
X118194267Y-102969683D01*
X118218898Y-103056256D01*
X118315123Y-103249500D01*
X118318234Y-103255747D01*
X118452534Y-103433590D01*
X118617227Y-103583727D01*
X118806703Y-103701046D01*
X119014510Y-103781551D01*
X119233572Y-103822500D01*
X119233575Y-103822500D01*
X119456425Y-103822500D01*
X119456428Y-103822500D01*
X119675490Y-103781551D01*
X119883297Y-103701046D01*
X120072773Y-103583727D01*
X120237466Y-103433590D01*
X120371766Y-103255747D01*
X120471102Y-103056254D01*
X120495733Y-102969681D01*
X120533012Y-102910589D01*
X120596322Y-102881031D01*
X120665561Y-102890393D01*
X120718748Y-102935702D01*
X120734267Y-102969683D01*
X120758898Y-103056256D01*
X120855123Y-103249500D01*
X120858234Y-103255747D01*
X120992534Y-103433590D01*
X121157227Y-103583727D01*
X121346703Y-103701046D01*
X121554510Y-103781551D01*
X121773572Y-103822500D01*
X121773575Y-103822500D01*
X121996425Y-103822500D01*
X121996428Y-103822500D01*
X122215490Y-103781551D01*
X122423297Y-103701046D01*
X122612773Y-103583727D01*
X122777466Y-103433590D01*
X122911766Y-103255747D01*
X123011102Y-103056254D01*
X123035733Y-102969681D01*
X123073012Y-102910589D01*
X123136322Y-102881031D01*
X123205561Y-102890393D01*
X123258748Y-102935702D01*
X123274267Y-102969683D01*
X123298898Y-103056256D01*
X123395123Y-103249500D01*
X123398234Y-103255747D01*
X123532534Y-103433590D01*
X123697227Y-103583727D01*
X123886703Y-103701046D01*
X124094510Y-103781551D01*
X124313572Y-103822500D01*
X124313575Y-103822500D01*
X124536425Y-103822500D01*
X124536428Y-103822500D01*
X124755490Y-103781551D01*
X124963297Y-103701046D01*
X125152773Y-103583727D01*
X125317466Y-103433590D01*
X125451766Y-103255747D01*
X125551102Y-103056254D01*
X125575733Y-102969681D01*
X125613012Y-102910589D01*
X125676322Y-102881031D01*
X125745561Y-102890393D01*
X125798748Y-102935702D01*
X125814267Y-102969683D01*
X125838898Y-103056256D01*
X125935123Y-103249500D01*
X125938234Y-103255747D01*
X126072534Y-103433590D01*
X126237227Y-103583727D01*
X126426703Y-103701046D01*
X126634510Y-103781551D01*
X126853572Y-103822500D01*
X126853575Y-103822500D01*
X127076425Y-103822500D01*
X127076428Y-103822500D01*
X127295490Y-103781551D01*
X127503297Y-103701046D01*
X127692773Y-103583727D01*
X127857466Y-103433590D01*
X127991766Y-103255747D01*
X128091102Y-103056254D01*
X128115733Y-102969681D01*
X128153012Y-102910589D01*
X128216322Y-102881031D01*
X128285561Y-102890393D01*
X128338748Y-102935702D01*
X128354267Y-102969683D01*
X128378898Y-103056256D01*
X128475123Y-103249500D01*
X128478234Y-103255747D01*
X128612534Y-103433590D01*
X128777227Y-103583727D01*
X128966703Y-103701046D01*
X129174510Y-103781551D01*
X129393572Y-103822500D01*
X129393575Y-103822500D01*
X129616425Y-103822500D01*
X129616428Y-103822500D01*
X129835490Y-103781551D01*
X130043297Y-103701046D01*
X130232773Y-103583727D01*
X130397466Y-103433590D01*
X130531766Y-103255747D01*
X130631102Y-103056254D01*
X130655733Y-102969681D01*
X130693012Y-102910589D01*
X130756322Y-102881031D01*
X130825561Y-102890393D01*
X130878748Y-102935702D01*
X130894267Y-102969683D01*
X130918898Y-103056256D01*
X131015123Y-103249500D01*
X131018234Y-103255747D01*
X131152534Y-103433590D01*
X131317227Y-103583727D01*
X131506703Y-103701046D01*
X131714510Y-103781551D01*
X131933572Y-103822500D01*
X131933575Y-103822500D01*
X132156425Y-103822500D01*
X132156428Y-103822500D01*
X132375490Y-103781551D01*
X132583297Y-103701046D01*
X132772773Y-103583727D01*
X132937466Y-103433590D01*
X133071766Y-103255747D01*
X133171102Y-103056254D01*
X133195733Y-102969681D01*
X133233012Y-102910589D01*
X133296322Y-102881031D01*
X133365561Y-102890393D01*
X133418748Y-102935702D01*
X133434267Y-102969683D01*
X133458898Y-103056256D01*
X133555123Y-103249500D01*
X133558234Y-103255747D01*
X133692534Y-103433590D01*
X133857227Y-103583727D01*
X134046703Y-103701046D01*
X134254510Y-103781551D01*
X134473572Y-103822500D01*
X134473575Y-103822500D01*
X134696425Y-103822500D01*
X134696428Y-103822500D01*
X134915490Y-103781551D01*
X135123297Y-103701046D01*
X135312773Y-103583727D01*
X135477466Y-103433590D01*
X135611766Y-103255747D01*
X135711102Y-103056254D01*
X135735733Y-102969681D01*
X135773012Y-102910589D01*
X135836322Y-102881031D01*
X135905561Y-102890393D01*
X135958748Y-102935702D01*
X135974267Y-102969683D01*
X135998898Y-103056256D01*
X136095123Y-103249500D01*
X136098234Y-103255747D01*
X136232534Y-103433590D01*
X136397227Y-103583727D01*
X136586703Y-103701046D01*
X136794510Y-103781551D01*
X137013572Y-103822500D01*
X137013575Y-103822500D01*
X137236425Y-103822500D01*
X137236428Y-103822500D01*
X137455490Y-103781551D01*
X137663297Y-103701046D01*
X137852773Y-103583727D01*
X138017466Y-103433590D01*
X138151766Y-103255747D01*
X138251102Y-103056254D01*
X138275733Y-102969681D01*
X138313012Y-102910589D01*
X138376322Y-102881031D01*
X138445561Y-102890393D01*
X138498748Y-102935702D01*
X138514267Y-102969683D01*
X138538898Y-103056256D01*
X138635123Y-103249500D01*
X138638234Y-103255747D01*
X138772534Y-103433590D01*
X138937227Y-103583727D01*
X139126703Y-103701046D01*
X139334510Y-103781551D01*
X139553572Y-103822500D01*
X139553575Y-103822500D01*
X139776425Y-103822500D01*
X139776428Y-103822500D01*
X139995490Y-103781551D01*
X140203297Y-103701046D01*
X140392773Y-103583727D01*
X140557466Y-103433590D01*
X140691766Y-103255747D01*
X140791102Y-103056254D01*
X140815733Y-102969681D01*
X140853012Y-102910589D01*
X140916322Y-102881031D01*
X140985561Y-102890393D01*
X141038748Y-102935702D01*
X141054267Y-102969683D01*
X141078898Y-103056256D01*
X141175123Y-103249500D01*
X141178234Y-103255747D01*
X141312534Y-103433590D01*
X141477227Y-103583727D01*
X141666703Y-103701046D01*
X141874510Y-103781551D01*
X142093572Y-103822500D01*
X142093575Y-103822500D01*
X142316425Y-103822500D01*
X142316428Y-103822500D01*
X142535490Y-103781551D01*
X142743297Y-103701046D01*
X142932773Y-103583727D01*
X143097466Y-103433590D01*
X143231766Y-103255747D01*
X143331102Y-103056254D01*
X143355733Y-102969681D01*
X143393012Y-102910589D01*
X143456322Y-102881031D01*
X143525561Y-102890393D01*
X143578748Y-102935702D01*
X143594267Y-102969683D01*
X143618898Y-103056256D01*
X143715123Y-103249500D01*
X143718234Y-103255747D01*
X143852534Y-103433590D01*
X144017227Y-103583727D01*
X144206703Y-103701046D01*
X144414510Y-103781551D01*
X144633572Y-103822500D01*
X144633575Y-103822500D01*
X144856425Y-103822500D01*
X144856428Y-103822500D01*
X145075490Y-103781551D01*
X145283297Y-103701046D01*
X145472773Y-103583727D01*
X145637466Y-103433590D01*
X145771766Y-103255747D01*
X145871102Y-103056254D01*
X145932089Y-102841905D01*
X145952652Y-102620000D01*
X145932089Y-102398095D01*
X145871102Y-102183746D01*
X145771766Y-101984253D01*
X145637466Y-101806410D01*
X145637463Y-101806407D01*
X145637460Y-101806404D01*
X145472774Y-101656274D01*
X145472773Y-101656273D01*
X145359487Y-101586129D01*
X145283298Y-101538954D01*
X145283296Y-101538953D01*
X145137330Y-101482406D01*
X145094017Y-101465626D01*
X145038617Y-101423054D01*
X145026760Y-101390000D01*
X158024659Y-101390000D01*
X158043975Y-101586129D01*
X158101188Y-101774733D01*
X158194086Y-101948532D01*
X158194090Y-101948539D01*
X158319116Y-102100883D01*
X158471460Y-102225909D01*
X158471467Y-102225913D01*
X158645266Y-102318811D01*
X158645269Y-102318811D01*
X158645273Y-102318814D01*
X158833868Y-102376024D01*
X159030000Y-102395341D01*
X159226132Y-102376024D01*
X159414727Y-102318814D01*
X159441887Y-102304297D01*
X159588532Y-102225913D01*
X159588538Y-102225910D01*
X159740883Y-102100883D01*
X159865910Y-101948538D01*
X159958814Y-101774727D01*
X160016024Y-101586132D01*
X160035341Y-101390000D01*
X160016024Y-101193868D01*
X159958814Y-101005273D01*
X159958811Y-101005269D01*
X159958811Y-101005266D01*
X159865913Y-100831467D01*
X159865909Y-100831460D01*
X159740883Y-100679116D01*
X159588539Y-100554090D01*
X159588532Y-100554086D01*
X159414733Y-100461188D01*
X159414727Y-100461186D01*
X159226132Y-100403976D01*
X159226129Y-100403975D01*
X159030000Y-100384659D01*
X158833870Y-100403975D01*
X158645266Y-100461188D01*
X158471467Y-100554086D01*
X158471460Y-100554090D01*
X158319116Y-100679116D01*
X158194090Y-100831460D01*
X158194086Y-100831467D01*
X158101188Y-101005266D01*
X158043975Y-101193870D01*
X158024659Y-101390000D01*
X145026760Y-101390000D01*
X145015026Y-101357287D01*
X145030737Y-101289207D01*
X145080761Y-101240428D01*
X145094015Y-101234374D01*
X145283297Y-101161046D01*
X145472773Y-101043727D01*
X145637466Y-100893590D01*
X145771766Y-100715747D01*
X145871102Y-100516254D01*
X145932089Y-100301905D01*
X145952652Y-100080000D01*
X145932089Y-99858095D01*
X145871102Y-99643746D01*
X145771766Y-99444253D01*
X145637466Y-99266410D01*
X145637463Y-99266407D01*
X145637460Y-99266404D01*
X145472774Y-99116274D01*
X145472773Y-99116273D01*
X145338923Y-99033396D01*
X145283298Y-98998954D01*
X145283296Y-98998953D01*
X145140978Y-98943819D01*
X145094017Y-98925626D01*
X145038617Y-98883054D01*
X145015026Y-98817287D01*
X145030737Y-98749207D01*
X145080761Y-98700428D01*
X145094015Y-98694374D01*
X145283297Y-98621046D01*
X145472773Y-98503727D01*
X145637466Y-98353590D01*
X145659069Y-98324983D01*
X163899500Y-98324983D01*
X163899500Y-99675001D01*
X163899501Y-99675018D01*
X163910000Y-99777796D01*
X163910001Y-99777799D01*
X163965185Y-99944331D01*
X163965186Y-99944334D01*
X164057288Y-100093656D01*
X164181344Y-100217712D01*
X164330666Y-100309814D01*
X164497203Y-100364999D01*
X164599991Y-100375500D01*
X165400008Y-100375499D01*
X165400016Y-100375498D01*
X165400019Y-100375498D01*
X165456302Y-100369748D01*
X165502797Y-100364999D01*
X165669334Y-100309814D01*
X165818656Y-100217712D01*
X165942712Y-100093656D01*
X166034814Y-99944334D01*
X166089999Y-99777797D01*
X166100500Y-99675009D01*
X166100499Y-98638389D01*
X167899500Y-98638389D01*
X167899500Y-99361611D01*
X167900302Y-99366672D01*
X167920140Y-99491930D01*
X167926598Y-99532701D01*
X167980127Y-99697445D01*
X168058768Y-99851788D01*
X168160586Y-99991928D01*
X168283072Y-100114414D01*
X168423212Y-100216232D01*
X168577555Y-100294873D01*
X168742299Y-100348402D01*
X168913389Y-100375500D01*
X168913390Y-100375500D01*
X169086610Y-100375500D01*
X169086611Y-100375500D01*
X169257701Y-100348402D01*
X169422445Y-100294873D01*
X169576788Y-100216232D01*
X169716928Y-100114414D01*
X169839414Y-99991928D01*
X169941232Y-99851788D01*
X170019873Y-99697445D01*
X170073402Y-99532701D01*
X170100500Y-99361611D01*
X170100500Y-98638389D01*
X170073402Y-98467299D01*
X170019873Y-98302555D01*
X169941232Y-98148212D01*
X169839414Y-98008072D01*
X169716928Y-97885586D01*
X169633515Y-97824983D01*
X174899500Y-97824983D01*
X174899500Y-99175001D01*
X174899501Y-99175018D01*
X174910000Y-99277796D01*
X174910001Y-99277799D01*
X174965185Y-99444331D01*
X174965187Y-99444336D01*
X174981441Y-99470688D01*
X175057288Y-99593656D01*
X175181344Y-99717712D01*
X175330666Y-99809814D01*
X175497203Y-99864999D01*
X175599991Y-99875500D01*
X176400008Y-99875499D01*
X176400016Y-99875498D01*
X176400019Y-99875498D01*
X176456302Y-99869748D01*
X176502797Y-99864999D01*
X176669334Y-99809814D01*
X176818656Y-99717712D01*
X176942712Y-99593656D01*
X177034814Y-99444334D01*
X177089999Y-99277797D01*
X177100500Y-99175009D01*
X177100499Y-98138389D01*
X178899500Y-98138389D01*
X178899500Y-98861611D01*
X178926598Y-99032701D01*
X178980127Y-99197445D01*
X179058768Y-99351788D01*
X179160586Y-99491928D01*
X179283072Y-99614414D01*
X179423212Y-99716232D01*
X179577555Y-99794873D01*
X179742299Y-99848402D01*
X179913389Y-99875500D01*
X179913390Y-99875500D01*
X180086610Y-99875500D01*
X180086611Y-99875500D01*
X180257701Y-99848402D01*
X180422445Y-99794873D01*
X180576788Y-99716232D01*
X180716928Y-99614414D01*
X180839414Y-99491928D01*
X180941232Y-99351788D01*
X181019873Y-99197445D01*
X181073402Y-99032701D01*
X181100500Y-98861611D01*
X181100500Y-98138389D01*
X181073402Y-97967299D01*
X181019873Y-97802555D01*
X180941232Y-97648212D01*
X180839414Y-97508072D01*
X180716928Y-97385586D01*
X180576788Y-97283768D01*
X180422445Y-97205127D01*
X180257701Y-97151598D01*
X180257699Y-97151597D01*
X180257698Y-97151597D01*
X180126271Y-97130781D01*
X180086611Y-97124500D01*
X179913389Y-97124500D01*
X179873728Y-97130781D01*
X179742302Y-97151597D01*
X179577552Y-97205128D01*
X179423211Y-97283768D01*
X179363265Y-97327322D01*
X179283072Y-97385586D01*
X179283070Y-97385588D01*
X179283069Y-97385588D01*
X179160588Y-97508069D01*
X179160588Y-97508070D01*
X179160586Y-97508072D01*
X179126009Y-97555663D01*
X179058768Y-97648211D01*
X178980128Y-97802552D01*
X178926597Y-97967302D01*
X178899500Y-98138389D01*
X177100499Y-98138389D01*
X177100499Y-97824992D01*
X177089999Y-97722203D01*
X177034814Y-97555666D01*
X176942712Y-97406344D01*
X176818656Y-97282288D01*
X176693559Y-97205128D01*
X176669336Y-97190187D01*
X176669331Y-97190185D01*
X176667862Y-97189698D01*
X176502797Y-97135001D01*
X176502795Y-97135000D01*
X176400010Y-97124500D01*
X175599998Y-97124500D01*
X175599980Y-97124501D01*
X175497203Y-97135000D01*
X175497200Y-97135001D01*
X175330668Y-97190185D01*
X175330663Y-97190187D01*
X175181342Y-97282289D01*
X175057289Y-97406342D01*
X174965187Y-97555663D01*
X174965186Y-97555666D01*
X174910001Y-97722203D01*
X174910001Y-97722204D01*
X174910000Y-97722204D01*
X174899500Y-97824983D01*
X169633515Y-97824983D01*
X169576788Y-97783768D01*
X169422445Y-97705127D01*
X169257701Y-97651598D01*
X169257699Y-97651597D01*
X169257698Y-97651597D01*
X169126271Y-97630781D01*
X169086611Y-97624500D01*
X168913389Y-97624500D01*
X168873728Y-97630781D01*
X168742302Y-97651597D01*
X168742299Y-97651598D01*
X168628183Y-97688677D01*
X168577552Y-97705128D01*
X168423211Y-97783768D01*
X168351973Y-97835526D01*
X168283072Y-97885586D01*
X168283070Y-97885588D01*
X168283069Y-97885588D01*
X168160588Y-98008069D01*
X168160588Y-98008070D01*
X168160586Y-98008072D01*
X168156767Y-98013329D01*
X168058768Y-98148211D01*
X167980128Y-98302552D01*
X167926597Y-98467302D01*
X167920828Y-98503727D01*
X167899500Y-98638389D01*
X166100499Y-98638389D01*
X166100499Y-98324992D01*
X166099964Y-98319759D01*
X166089999Y-98222203D01*
X166089998Y-98222200D01*
X166065845Y-98149312D01*
X166034814Y-98055666D01*
X165942712Y-97906344D01*
X165818656Y-97782288D01*
X165693559Y-97705128D01*
X165669336Y-97690187D01*
X165669331Y-97690185D01*
X165664771Y-97688674D01*
X165502797Y-97635001D01*
X165502795Y-97635000D01*
X165400010Y-97624500D01*
X164599998Y-97624500D01*
X164599980Y-97624501D01*
X164497203Y-97635000D01*
X164497200Y-97635001D01*
X164330668Y-97690185D01*
X164330663Y-97690187D01*
X164181342Y-97782289D01*
X164057289Y-97906342D01*
X163965187Y-98055663D01*
X163965185Y-98055668D01*
X163940257Y-98130898D01*
X163910001Y-98222203D01*
X163910001Y-98222204D01*
X163910000Y-98222204D01*
X163899500Y-98324983D01*
X145659069Y-98324983D01*
X145771766Y-98175747D01*
X145871102Y-97976254D01*
X145932089Y-97761905D01*
X145952652Y-97540000D01*
X145932089Y-97318095D01*
X145871102Y-97103746D01*
X145771766Y-96904253D01*
X145637466Y-96726410D01*
X145637463Y-96726407D01*
X145637460Y-96726404D01*
X145472774Y-96576274D01*
X145472773Y-96576273D01*
X145355892Y-96503903D01*
X145283298Y-96458954D01*
X145283296Y-96458953D01*
X145140978Y-96403819D01*
X145094017Y-96385626D01*
X145038617Y-96343054D01*
X145015026Y-96277287D01*
X145030737Y-96209207D01*
X145080761Y-96160428D01*
X145094015Y-96154374D01*
X145283297Y-96081046D01*
X145472773Y-95963727D01*
X145637466Y-95813590D01*
X145738348Y-95680000D01*
X147144659Y-95680000D01*
X147163975Y-95876129D01*
X147163976Y-95876132D01*
X147220358Y-96061999D01*
X147221188Y-96064733D01*
X147314086Y-96238532D01*
X147314090Y-96238539D01*
X147439116Y-96390883D01*
X147591460Y-96515909D01*
X147591467Y-96515913D01*
X147765266Y-96608811D01*
X147765269Y-96608811D01*
X147765273Y-96608814D01*
X147953868Y-96666024D01*
X148150000Y-96685341D01*
X148346132Y-96666024D01*
X148534727Y-96608814D01*
X148536619Y-96607803D01*
X148708532Y-96515913D01*
X148708538Y-96515910D01*
X148860883Y-96390883D01*
X148985910Y-96238538D01*
X149078814Y-96064727D01*
X149136024Y-95876132D01*
X149155341Y-95680000D01*
X149136024Y-95483868D01*
X149078814Y-95295273D01*
X149078811Y-95295269D01*
X149078811Y-95295266D01*
X148985913Y-95121467D01*
X148985909Y-95121460D01*
X148860883Y-94969116D01*
X148708539Y-94844090D01*
X148708532Y-94844086D01*
X148534733Y-94751188D01*
X148534727Y-94751186D01*
X148346132Y-94693976D01*
X148346129Y-94693975D01*
X148150000Y-94674659D01*
X147953870Y-94693975D01*
X147765266Y-94751188D01*
X147591467Y-94844086D01*
X147591460Y-94844090D01*
X147439116Y-94969116D01*
X147314090Y-95121460D01*
X147314086Y-95121467D01*
X147221188Y-95295266D01*
X147163975Y-95483870D01*
X147144659Y-95680000D01*
X145738348Y-95680000D01*
X145771766Y-95635747D01*
X145871102Y-95436254D01*
X145932089Y-95221905D01*
X145952652Y-95000000D01*
X145932089Y-94778095D01*
X145871102Y-94563746D01*
X145771766Y-94364253D01*
X145637466Y-94186410D01*
X145637463Y-94186407D01*
X145637460Y-94186404D01*
X145472774Y-94036274D01*
X145472773Y-94036273D01*
X145355892Y-93963903D01*
X145283298Y-93918954D01*
X145283296Y-93918953D01*
X145140978Y-93863819D01*
X145094017Y-93845626D01*
X145038617Y-93803054D01*
X145015026Y-93737287D01*
X145030737Y-93669207D01*
X145080761Y-93620428D01*
X145094015Y-93614374D01*
X145283297Y-93541046D01*
X145472773Y-93423727D01*
X145637466Y-93273590D01*
X145771766Y-93095747D01*
X145871102Y-92896254D01*
X145932089Y-92681905D01*
X145952652Y-92460000D01*
X145932089Y-92238095D01*
X145871102Y-92023746D01*
X145771766Y-91824253D01*
X145637466Y-91646410D01*
X145637463Y-91646407D01*
X145637460Y-91646404D01*
X145472774Y-91496274D01*
X145472773Y-91496273D01*
X145355892Y-91423903D01*
X145283298Y-91378954D01*
X145283296Y-91378953D01*
X145143983Y-91324983D01*
X163899500Y-91324983D01*
X163899500Y-92675001D01*
X163899501Y-92675018D01*
X163910000Y-92777796D01*
X163910001Y-92777799D01*
X163943243Y-92878114D01*
X163965186Y-92944334D01*
X164057288Y-93093656D01*
X164181344Y-93217712D01*
X164330666Y-93309814D01*
X164497203Y-93364999D01*
X164599991Y-93375500D01*
X165400008Y-93375499D01*
X165400016Y-93375498D01*
X165400019Y-93375498D01*
X165456302Y-93369748D01*
X165502797Y-93364999D01*
X165669334Y-93309814D01*
X165818656Y-93217712D01*
X165942712Y-93093656D01*
X166034814Y-92944334D01*
X166089999Y-92777797D01*
X166100500Y-92675009D01*
X166100499Y-91638389D01*
X167899500Y-91638389D01*
X167899500Y-92361610D01*
X167921946Y-92503333D01*
X167926598Y-92532701D01*
X167980127Y-92697445D01*
X168058768Y-92851788D01*
X168160586Y-92991928D01*
X168283072Y-93114414D01*
X168423212Y-93216232D01*
X168577555Y-93294873D01*
X168742299Y-93348402D01*
X168913389Y-93375500D01*
X168913390Y-93375500D01*
X169086610Y-93375500D01*
X169086611Y-93375500D01*
X169257701Y-93348402D01*
X169422445Y-93294873D01*
X169576788Y-93216232D01*
X169716928Y-93114414D01*
X169839414Y-92991928D01*
X169941232Y-92851788D01*
X170019873Y-92697445D01*
X170073402Y-92532701D01*
X170100500Y-92361611D01*
X170100500Y-91638389D01*
X170073402Y-91467299D01*
X170019873Y-91302555D01*
X169941232Y-91148212D01*
X169839414Y-91008072D01*
X169716928Y-90885586D01*
X169633515Y-90824983D01*
X174899500Y-90824983D01*
X174899500Y-92175001D01*
X174899501Y-92175018D01*
X174910000Y-92277796D01*
X174910001Y-92277799D01*
X174965185Y-92444331D01*
X174965187Y-92444336D01*
X174982305Y-92472088D01*
X175057288Y-92593656D01*
X175181344Y-92717712D01*
X175330666Y-92809814D01*
X175497203Y-92864999D01*
X175599991Y-92875500D01*
X176400008Y-92875499D01*
X176400016Y-92875498D01*
X176400019Y-92875498D01*
X176462660Y-92869099D01*
X176502797Y-92864999D01*
X176669334Y-92809814D01*
X176818656Y-92717712D01*
X176942712Y-92593656D01*
X177034814Y-92444334D01*
X177089999Y-92277797D01*
X177100500Y-92175009D01*
X177100499Y-91138389D01*
X178899500Y-91138389D01*
X178899500Y-91861611D01*
X178907677Y-91913239D01*
X178925179Y-92023746D01*
X178926598Y-92032701D01*
X178980127Y-92197445D01*
X179058768Y-92351788D01*
X179160586Y-92491928D01*
X179283072Y-92614414D01*
X179423212Y-92716232D01*
X179577555Y-92794873D01*
X179742299Y-92848402D01*
X179913389Y-92875500D01*
X179913390Y-92875500D01*
X180086610Y-92875500D01*
X180086611Y-92875500D01*
X180257701Y-92848402D01*
X180422445Y-92794873D01*
X180576788Y-92716232D01*
X180716928Y-92614414D01*
X180839414Y-92491928D01*
X180941232Y-92351788D01*
X181019873Y-92197445D01*
X181073402Y-92032701D01*
X181100500Y-91861611D01*
X181100500Y-91138389D01*
X181073402Y-90967299D01*
X181019873Y-90802555D01*
X180941232Y-90648212D01*
X180839414Y-90508072D01*
X180716928Y-90385586D01*
X180576788Y-90283768D01*
X180422445Y-90205127D01*
X180257701Y-90151598D01*
X180257699Y-90151597D01*
X180257698Y-90151597D01*
X180126271Y-90130781D01*
X180086611Y-90124500D01*
X179913389Y-90124500D01*
X179873728Y-90130781D01*
X179742302Y-90151597D01*
X179577552Y-90205128D01*
X179423211Y-90283768D01*
X179388743Y-90308811D01*
X179283072Y-90385586D01*
X179283070Y-90385588D01*
X179283069Y-90385588D01*
X179160588Y-90508069D01*
X179160588Y-90508070D01*
X179160586Y-90508072D01*
X179126009Y-90555663D01*
X179058768Y-90648211D01*
X178980128Y-90802552D01*
X178926597Y-90967302D01*
X178899500Y-91138389D01*
X177100499Y-91138389D01*
X177100499Y-90824992D01*
X177089999Y-90722203D01*
X177034814Y-90555666D01*
X176942712Y-90406344D01*
X176818656Y-90282288D01*
X176711044Y-90215913D01*
X176669336Y-90190187D01*
X176669331Y-90190185D01*
X176667862Y-90189698D01*
X176502797Y-90135001D01*
X176502795Y-90135000D01*
X176400010Y-90124500D01*
X175599998Y-90124500D01*
X175599980Y-90124501D01*
X175497203Y-90135000D01*
X175497200Y-90135001D01*
X175330668Y-90190185D01*
X175330663Y-90190187D01*
X175181342Y-90282289D01*
X175057289Y-90406342D01*
X174965187Y-90555663D01*
X174965185Y-90555668D01*
X174949613Y-90602663D01*
X174910001Y-90722203D01*
X174910001Y-90722204D01*
X174910000Y-90722204D01*
X174899500Y-90824983D01*
X169633515Y-90824983D01*
X169576788Y-90783768D01*
X169440067Y-90714106D01*
X169422447Y-90705128D01*
X169422446Y-90705127D01*
X169422445Y-90705127D01*
X169257701Y-90651598D01*
X169257699Y-90651597D01*
X169257698Y-90651597D01*
X169126271Y-90630781D01*
X169086611Y-90624500D01*
X168913389Y-90624500D01*
X168873728Y-90630781D01*
X168742302Y-90651597D01*
X168577552Y-90705128D01*
X168423211Y-90783768D01*
X168365609Y-90825619D01*
X168283072Y-90885586D01*
X168283070Y-90885588D01*
X168283069Y-90885588D01*
X168160588Y-91008069D01*
X168160588Y-91008070D01*
X168160586Y-91008072D01*
X168142292Y-91033252D01*
X168058768Y-91148211D01*
X167980128Y-91302552D01*
X167926597Y-91467302D01*
X167899500Y-91638389D01*
X166100499Y-91638389D01*
X166100499Y-91324992D01*
X166089999Y-91222203D01*
X166034814Y-91055666D01*
X165942712Y-90906344D01*
X165818656Y-90782288D01*
X165693559Y-90705128D01*
X165669336Y-90690187D01*
X165669331Y-90690185D01*
X165667862Y-90689698D01*
X165502797Y-90635001D01*
X165502795Y-90635000D01*
X165400010Y-90624500D01*
X164599998Y-90624500D01*
X164599980Y-90624501D01*
X164497203Y-90635000D01*
X164497200Y-90635001D01*
X164330668Y-90690185D01*
X164330663Y-90690187D01*
X164181342Y-90782289D01*
X164057289Y-90906342D01*
X163965187Y-91055663D01*
X163965185Y-91055668D01*
X163952828Y-91092960D01*
X163910001Y-91222203D01*
X163910001Y-91222204D01*
X163910000Y-91222204D01*
X163899500Y-91324983D01*
X145143983Y-91324983D01*
X145140978Y-91323819D01*
X145094017Y-91305626D01*
X145038617Y-91263054D01*
X145015026Y-91197287D01*
X145030737Y-91129207D01*
X145080761Y-91080428D01*
X145094015Y-91074374D01*
X145283297Y-91001046D01*
X145472773Y-90883727D01*
X145637466Y-90733590D01*
X145771766Y-90555747D01*
X145871102Y-90356254D01*
X145932089Y-90141905D01*
X145952652Y-89920000D01*
X145932089Y-89698095D01*
X145871102Y-89483746D01*
X145819442Y-89380000D01*
X152324659Y-89380000D01*
X152343975Y-89576129D01*
X152343976Y-89576132D01*
X152383773Y-89707326D01*
X152401188Y-89764733D01*
X152494086Y-89938532D01*
X152494090Y-89938539D01*
X152619116Y-90090883D01*
X152771460Y-90215909D01*
X152771467Y-90215913D01*
X152945266Y-90308811D01*
X152945269Y-90308811D01*
X152945273Y-90308814D01*
X153133868Y-90366024D01*
X153330000Y-90385341D01*
X153526132Y-90366024D01*
X153714727Y-90308814D01*
X153772745Y-90277803D01*
X153888532Y-90215913D01*
X153888538Y-90215910D01*
X154040883Y-90090883D01*
X154165910Y-89938538D01*
X154258814Y-89764727D01*
X154316024Y-89576132D01*
X154335341Y-89380000D01*
X154316024Y-89183868D01*
X154258814Y-88995273D01*
X154258811Y-88995269D01*
X154258811Y-88995266D01*
X154165913Y-88821467D01*
X154165909Y-88821460D01*
X154040883Y-88669116D01*
X153888539Y-88544090D01*
X153888532Y-88544086D01*
X153714733Y-88451188D01*
X153714727Y-88451186D01*
X153526132Y-88393976D01*
X153526129Y-88393975D01*
X153330000Y-88374659D01*
X153133870Y-88393975D01*
X152945266Y-88451188D01*
X152771467Y-88544086D01*
X152771460Y-88544090D01*
X152619116Y-88669116D01*
X152494090Y-88821460D01*
X152494086Y-88821467D01*
X152401188Y-88995266D01*
X152343975Y-89183870D01*
X152324659Y-89380000D01*
X145819442Y-89380000D01*
X145771766Y-89284253D01*
X145637466Y-89106410D01*
X145637463Y-89106407D01*
X145637460Y-89106404D01*
X145472774Y-88956274D01*
X145472773Y-88956273D01*
X145355892Y-88883903D01*
X145283298Y-88838954D01*
X145283296Y-88838953D01*
X145098853Y-88767500D01*
X145094017Y-88765626D01*
X145038617Y-88723054D01*
X145015026Y-88657287D01*
X145030737Y-88589207D01*
X145080761Y-88540428D01*
X145094015Y-88534374D01*
X145283297Y-88461046D01*
X145472773Y-88343727D01*
X145637466Y-88193590D01*
X145771766Y-88015747D01*
X145779607Y-88000000D01*
X146544815Y-88000000D01*
X146563503Y-88177805D01*
X146563504Y-88177807D01*
X146618747Y-88347829D01*
X146618750Y-88347835D01*
X146708141Y-88502665D01*
X146743153Y-88541550D01*
X146827764Y-88635521D01*
X146827767Y-88635523D01*
X146827770Y-88635526D01*
X146972407Y-88740612D01*
X147135733Y-88813329D01*
X147310609Y-88850500D01*
X147310610Y-88850500D01*
X147489389Y-88850500D01*
X147489391Y-88850500D01*
X147664267Y-88813329D01*
X147827593Y-88740612D01*
X147972230Y-88635526D01*
X148091859Y-88502665D01*
X148181250Y-88347835D01*
X148236497Y-88177803D01*
X148255185Y-88000000D01*
X148236497Y-87822197D01*
X148195396Y-87695702D01*
X148181252Y-87652170D01*
X148181249Y-87652164D01*
X148180227Y-87650393D01*
X148091859Y-87497335D01*
X148045003Y-87445296D01*
X147972235Y-87364478D01*
X147972232Y-87364476D01*
X147972231Y-87364475D01*
X147972230Y-87364474D01*
X147827593Y-87259388D01*
X147664267Y-87186671D01*
X147664265Y-87186670D01*
X147529827Y-87158095D01*
X147489391Y-87149500D01*
X147310609Y-87149500D01*
X147279954Y-87156015D01*
X147135733Y-87186670D01*
X147135728Y-87186672D01*
X146972408Y-87259387D01*
X146827768Y-87364475D01*
X146708140Y-87497336D01*
X146618750Y-87652164D01*
X146618747Y-87652170D01*
X146563504Y-87822192D01*
X146563503Y-87822194D01*
X146544815Y-88000000D01*
X145779607Y-88000000D01*
X145871102Y-87816254D01*
X145932089Y-87601905D01*
X145952652Y-87380000D01*
X145932089Y-87158095D01*
X145871102Y-86943746D01*
X145771766Y-86744253D01*
X145637466Y-86566410D01*
X145637463Y-86566407D01*
X145637460Y-86566404D01*
X145472774Y-86416274D01*
X145472773Y-86416273D01*
X145381586Y-86359812D01*
X145283298Y-86298954D01*
X145283296Y-86298953D01*
X145099617Y-86227796D01*
X145075490Y-86218449D01*
X144856428Y-86177500D01*
X144633572Y-86177500D01*
X144414510Y-86218449D01*
X144414507Y-86218449D01*
X144414507Y-86218450D01*
X144206703Y-86298953D01*
X144206701Y-86298954D01*
X144017225Y-86416274D01*
X143852539Y-86566404D01*
X143852536Y-86566407D01*
X143718234Y-86744252D01*
X143618899Y-86943742D01*
X143594267Y-87030317D01*
X143556987Y-87089410D01*
X143493678Y-87118968D01*
X143424438Y-87109606D01*
X143371252Y-87064297D01*
X143355733Y-87030317D01*
X143331102Y-86943746D01*
X143231766Y-86744253D01*
X143097466Y-86566410D01*
X143097463Y-86566407D01*
X143097460Y-86566404D01*
X142932774Y-86416274D01*
X142932773Y-86416273D01*
X142841586Y-86359812D01*
X142743298Y-86298954D01*
X142743296Y-86298953D01*
X142559617Y-86227796D01*
X142535490Y-86218449D01*
X142316428Y-86177500D01*
X142093572Y-86177500D01*
X141874510Y-86218449D01*
X141874507Y-86218449D01*
X141874507Y-86218450D01*
X141666703Y-86298953D01*
X141666701Y-86298954D01*
X141477225Y-86416274D01*
X141312539Y-86566404D01*
X141312536Y-86566407D01*
X141178234Y-86744252D01*
X141078899Y-86943742D01*
X141054267Y-87030317D01*
X141016987Y-87089410D01*
X140953678Y-87118968D01*
X140884438Y-87109606D01*
X140831252Y-87064297D01*
X140815733Y-87030317D01*
X140791102Y-86943746D01*
X140691766Y-86744253D01*
X140557466Y-86566410D01*
X140557463Y-86566407D01*
X140557460Y-86566404D01*
X140392774Y-86416274D01*
X140392773Y-86416273D01*
X140301586Y-86359812D01*
X140203298Y-86298954D01*
X140203296Y-86298953D01*
X140019617Y-86227796D01*
X139995490Y-86218449D01*
X139776428Y-86177500D01*
X139553572Y-86177500D01*
X139334510Y-86218449D01*
X139334507Y-86218449D01*
X139334507Y-86218450D01*
X139126703Y-86298953D01*
X139126701Y-86298954D01*
X138937225Y-86416274D01*
X138772539Y-86566404D01*
X138772536Y-86566407D01*
X138638234Y-86744252D01*
X138538899Y-86943742D01*
X138514267Y-87030317D01*
X138476987Y-87089410D01*
X138413678Y-87118968D01*
X138344438Y-87109606D01*
X138291252Y-87064297D01*
X138275733Y-87030317D01*
X138251102Y-86943746D01*
X138151766Y-86744253D01*
X138017466Y-86566410D01*
X138017463Y-86566407D01*
X138017460Y-86566404D01*
X137852774Y-86416274D01*
X137852773Y-86416273D01*
X137761586Y-86359812D01*
X137663298Y-86298954D01*
X137663296Y-86298953D01*
X137479617Y-86227796D01*
X137455490Y-86218449D01*
X137236428Y-86177500D01*
X137013572Y-86177500D01*
X136794510Y-86218449D01*
X136794507Y-86218449D01*
X136794507Y-86218450D01*
X136586703Y-86298953D01*
X136586701Y-86298954D01*
X136397225Y-86416274D01*
X136232539Y-86566404D01*
X136232536Y-86566407D01*
X136098234Y-86744252D01*
X135998899Y-86943742D01*
X135974267Y-87030317D01*
X135936987Y-87089410D01*
X135873678Y-87118968D01*
X135804438Y-87109606D01*
X135751252Y-87064297D01*
X135735733Y-87030317D01*
X135711102Y-86943746D01*
X135611766Y-86744253D01*
X135477466Y-86566410D01*
X135477463Y-86566407D01*
X135477460Y-86566404D01*
X135312774Y-86416274D01*
X135312773Y-86416273D01*
X135221586Y-86359812D01*
X135123298Y-86298954D01*
X135123296Y-86298953D01*
X134939617Y-86227796D01*
X134915490Y-86218449D01*
X134696428Y-86177500D01*
X134473572Y-86177500D01*
X134254510Y-86218449D01*
X134254507Y-86218449D01*
X134254507Y-86218450D01*
X134046703Y-86298953D01*
X134046701Y-86298954D01*
X133857225Y-86416274D01*
X133692539Y-86566404D01*
X133692536Y-86566407D01*
X133558234Y-86744252D01*
X133458899Y-86943742D01*
X133434267Y-87030317D01*
X133396987Y-87089410D01*
X133333678Y-87118968D01*
X133264438Y-87109606D01*
X133211252Y-87064297D01*
X133195733Y-87030317D01*
X133171102Y-86943746D01*
X133071766Y-86744253D01*
X132937466Y-86566410D01*
X132937463Y-86566407D01*
X132937460Y-86566404D01*
X132772774Y-86416274D01*
X132772773Y-86416273D01*
X132681586Y-86359812D01*
X132583298Y-86298954D01*
X132583296Y-86298953D01*
X132399617Y-86227796D01*
X132375490Y-86218449D01*
X132156428Y-86177500D01*
X131933572Y-86177500D01*
X131714510Y-86218449D01*
X131714507Y-86218449D01*
X131714507Y-86218450D01*
X131506703Y-86298953D01*
X131506701Y-86298954D01*
X131317225Y-86416274D01*
X131152539Y-86566404D01*
X131152536Y-86566407D01*
X131018234Y-86744252D01*
X130918899Y-86943742D01*
X130894267Y-87030317D01*
X130856987Y-87089410D01*
X130793678Y-87118968D01*
X130724438Y-87109606D01*
X130671252Y-87064297D01*
X130655733Y-87030317D01*
X130631102Y-86943746D01*
X130531766Y-86744253D01*
X130397466Y-86566410D01*
X130397463Y-86566407D01*
X130397460Y-86566404D01*
X130232774Y-86416274D01*
X130232773Y-86416273D01*
X130141586Y-86359812D01*
X130043298Y-86298954D01*
X130043296Y-86298953D01*
X129859617Y-86227796D01*
X129835490Y-86218449D01*
X129616428Y-86177500D01*
X129393572Y-86177500D01*
X129174510Y-86218449D01*
X129174507Y-86218449D01*
X129174507Y-86218450D01*
X128966703Y-86298953D01*
X128966701Y-86298954D01*
X128777225Y-86416274D01*
X128612539Y-86566404D01*
X128612536Y-86566407D01*
X128478234Y-86744252D01*
X128378899Y-86943742D01*
X128354267Y-87030317D01*
X128316987Y-87089410D01*
X128253678Y-87118968D01*
X128184438Y-87109606D01*
X128131252Y-87064297D01*
X128115733Y-87030317D01*
X128091102Y-86943746D01*
X127991766Y-86744253D01*
X127857466Y-86566410D01*
X127857463Y-86566407D01*
X127857460Y-86566404D01*
X127692774Y-86416274D01*
X127692773Y-86416273D01*
X127601586Y-86359812D01*
X127503298Y-86298954D01*
X127503296Y-86298953D01*
X127319617Y-86227796D01*
X127295490Y-86218449D01*
X127076428Y-86177500D01*
X126853572Y-86177500D01*
X126634510Y-86218449D01*
X126634507Y-86218449D01*
X126634507Y-86218450D01*
X126426703Y-86298953D01*
X126426701Y-86298954D01*
X126237225Y-86416274D01*
X126072539Y-86566404D01*
X126072536Y-86566407D01*
X125938234Y-86744252D01*
X125838899Y-86943742D01*
X125814267Y-87030317D01*
X125776987Y-87089410D01*
X125713678Y-87118968D01*
X125644438Y-87109606D01*
X125591252Y-87064297D01*
X125575733Y-87030317D01*
X125551102Y-86943746D01*
X125451766Y-86744253D01*
X125317466Y-86566410D01*
X125317463Y-86566407D01*
X125317460Y-86566404D01*
X125152774Y-86416274D01*
X125152773Y-86416273D01*
X125061586Y-86359812D01*
X124963298Y-86298954D01*
X124963296Y-86298953D01*
X124779617Y-86227796D01*
X124755490Y-86218449D01*
X124536428Y-86177500D01*
X124313572Y-86177500D01*
X124094510Y-86218449D01*
X124094507Y-86218449D01*
X124094507Y-86218450D01*
X123886703Y-86298953D01*
X123886701Y-86298954D01*
X123697225Y-86416274D01*
X123532539Y-86566404D01*
X123532536Y-86566407D01*
X123398234Y-86744252D01*
X123298899Y-86943742D01*
X123274267Y-87030317D01*
X123236987Y-87089410D01*
X123173678Y-87118968D01*
X123104438Y-87109606D01*
X123051252Y-87064297D01*
X123035733Y-87030317D01*
X123011102Y-86943746D01*
X122911766Y-86744253D01*
X122777466Y-86566410D01*
X122777463Y-86566407D01*
X122777460Y-86566404D01*
X122612774Y-86416274D01*
X122612773Y-86416273D01*
X122521586Y-86359812D01*
X122423298Y-86298954D01*
X122423296Y-86298953D01*
X122239617Y-86227796D01*
X122215490Y-86218449D01*
X121996428Y-86177500D01*
X121773572Y-86177500D01*
X121554510Y-86218449D01*
X121554507Y-86218449D01*
X121554507Y-86218450D01*
X121346703Y-86298953D01*
X121346701Y-86298954D01*
X121157225Y-86416274D01*
X120992539Y-86566404D01*
X120992536Y-86566407D01*
X120858234Y-86744252D01*
X120758899Y-86943742D01*
X120734267Y-87030317D01*
X120696987Y-87089410D01*
X120633678Y-87118968D01*
X120564438Y-87109606D01*
X120511252Y-87064297D01*
X120495733Y-87030317D01*
X120471102Y-86943746D01*
X120371766Y-86744253D01*
X120237466Y-86566410D01*
X120237463Y-86566407D01*
X120237460Y-86566404D01*
X120072774Y-86416274D01*
X120072773Y-86416273D01*
X119981586Y-86359812D01*
X119883298Y-86298954D01*
X119883296Y-86298953D01*
X119699617Y-86227796D01*
X119675490Y-86218449D01*
X119456428Y-86177500D01*
X119233572Y-86177500D01*
X119014510Y-86218449D01*
X119014507Y-86218449D01*
X119014507Y-86218450D01*
X118806703Y-86298953D01*
X118806701Y-86298954D01*
X118617225Y-86416274D01*
X118452539Y-86566404D01*
X118452536Y-86566407D01*
X118318234Y-86744252D01*
X118218899Y-86943742D01*
X118194267Y-87030317D01*
X118156987Y-87089410D01*
X118093678Y-87118968D01*
X118024438Y-87109606D01*
X117971252Y-87064297D01*
X117955733Y-87030317D01*
X117931102Y-86943746D01*
X117831766Y-86744253D01*
X117697466Y-86566410D01*
X117697463Y-86566407D01*
X117697460Y-86566404D01*
X117532774Y-86416274D01*
X117532773Y-86416273D01*
X117441586Y-86359812D01*
X117343298Y-86298954D01*
X117343296Y-86298953D01*
X117159617Y-86227796D01*
X117135490Y-86218449D01*
X116916428Y-86177500D01*
X116693572Y-86177500D01*
X116474510Y-86218449D01*
X116474507Y-86218449D01*
X116474507Y-86218450D01*
X116266703Y-86298953D01*
X116266701Y-86298954D01*
X116077225Y-86416274D01*
X115912539Y-86566404D01*
X115912536Y-86566407D01*
X115778234Y-86744252D01*
X115678899Y-86943742D01*
X115654267Y-87030317D01*
X115616987Y-87089410D01*
X115553678Y-87118968D01*
X115484438Y-87109606D01*
X115431252Y-87064297D01*
X115415733Y-87030317D01*
X115391102Y-86943746D01*
X115291766Y-86744253D01*
X115157466Y-86566410D01*
X115157463Y-86566407D01*
X115157460Y-86566404D01*
X114992774Y-86416274D01*
X114992773Y-86416273D01*
X114901586Y-86359812D01*
X114803298Y-86298954D01*
X114803296Y-86298953D01*
X114619617Y-86227796D01*
X114595490Y-86218449D01*
X114376428Y-86177500D01*
X114153572Y-86177500D01*
X113934510Y-86218449D01*
X113934507Y-86218449D01*
X113934507Y-86218450D01*
X113726703Y-86298953D01*
X113726701Y-86298954D01*
X113537225Y-86416274D01*
X113372539Y-86566404D01*
X113372536Y-86566407D01*
X113238234Y-86744252D01*
X113138899Y-86943742D01*
X113114267Y-87030317D01*
X113076987Y-87089410D01*
X113013678Y-87118968D01*
X112944438Y-87109606D01*
X112891252Y-87064297D01*
X112875733Y-87030317D01*
X112851102Y-86943746D01*
X112751766Y-86744253D01*
X112617466Y-86566410D01*
X112617463Y-86566407D01*
X112617460Y-86566404D01*
X112452774Y-86416274D01*
X112452773Y-86416273D01*
X112361586Y-86359812D01*
X112263298Y-86298954D01*
X112263296Y-86298953D01*
X112079617Y-86227796D01*
X112055490Y-86218449D01*
X111836428Y-86177500D01*
X111613572Y-86177500D01*
X111394510Y-86218449D01*
X111394507Y-86218449D01*
X111394507Y-86218450D01*
X111186703Y-86298953D01*
X111186701Y-86298954D01*
X110997225Y-86416274D01*
X110832539Y-86566404D01*
X110832536Y-86566407D01*
X110698234Y-86744252D01*
X110598899Y-86943742D01*
X110598898Y-86943746D01*
X110540357Y-87149500D01*
X110537910Y-87158099D01*
X110517348Y-87380000D01*
X109500500Y-87380000D01*
X109500500Y-84750000D01*
X115744659Y-84750000D01*
X115763975Y-84946129D01*
X115763976Y-84946132D01*
X115807129Y-85088389D01*
X115821188Y-85134733D01*
X115914086Y-85308532D01*
X115914090Y-85308539D01*
X116039116Y-85460883D01*
X116191460Y-85585909D01*
X116191467Y-85585913D01*
X116365266Y-85678811D01*
X116365269Y-85678811D01*
X116365273Y-85678814D01*
X116553868Y-85736024D01*
X116750000Y-85755341D01*
X116946132Y-85736024D01*
X117134727Y-85678814D01*
X117308538Y-85585910D01*
X117460883Y-85460883D01*
X117585910Y-85308538D01*
X117678814Y-85134727D01*
X117736024Y-84946132D01*
X117752880Y-84774983D01*
X163899500Y-84774983D01*
X163899500Y-86125001D01*
X163899501Y-86125018D01*
X163910000Y-86227796D01*
X163910001Y-86227799D01*
X163965185Y-86394331D01*
X163965187Y-86394336D01*
X163984408Y-86425498D01*
X164057288Y-86543656D01*
X164181344Y-86667712D01*
X164330666Y-86759814D01*
X164497203Y-86814999D01*
X164599991Y-86825500D01*
X165400008Y-86825499D01*
X165400016Y-86825498D01*
X165400019Y-86825498D01*
X165456302Y-86819748D01*
X165502797Y-86814999D01*
X165669334Y-86759814D01*
X165818656Y-86667712D01*
X165942712Y-86543656D01*
X166034814Y-86394334D01*
X166089999Y-86227797D01*
X166100500Y-86125009D01*
X166100499Y-85088389D01*
X167899500Y-85088389D01*
X167899500Y-85811611D01*
X167926598Y-85982701D01*
X167980127Y-86147445D01*
X168058768Y-86301788D01*
X168160586Y-86441928D01*
X168283072Y-86564414D01*
X168423212Y-86666232D01*
X168577555Y-86744873D01*
X168742299Y-86798402D01*
X168913389Y-86825500D01*
X168913390Y-86825500D01*
X169086610Y-86825500D01*
X169086611Y-86825500D01*
X169257701Y-86798402D01*
X169422445Y-86744873D01*
X169576788Y-86666232D01*
X169716928Y-86564414D01*
X169839414Y-86441928D01*
X169941232Y-86301788D01*
X170019873Y-86147445D01*
X170073402Y-85982701D01*
X170100500Y-85811611D01*
X170100500Y-85088389D01*
X170073402Y-84917299D01*
X170019873Y-84752555D01*
X169941232Y-84598212D01*
X169839414Y-84458072D01*
X169756325Y-84374983D01*
X174899500Y-84374983D01*
X174899500Y-85725001D01*
X174899501Y-85725018D01*
X174910000Y-85827796D01*
X174910001Y-85827799D01*
X174934519Y-85901788D01*
X174965186Y-85994334D01*
X175057288Y-86143656D01*
X175181344Y-86267712D01*
X175330666Y-86359814D01*
X175497203Y-86414999D01*
X175599991Y-86425500D01*
X176400008Y-86425499D01*
X176400016Y-86425498D01*
X176400019Y-86425498D01*
X176490325Y-86416273D01*
X176502797Y-86414999D01*
X176669334Y-86359814D01*
X176818656Y-86267712D01*
X176942712Y-86143656D01*
X177034814Y-85994334D01*
X177089999Y-85827797D01*
X177100500Y-85725009D01*
X177100499Y-84688389D01*
X178899500Y-84688389D01*
X178899500Y-85411611D01*
X178926598Y-85582701D01*
X178980127Y-85747445D01*
X179058768Y-85901788D01*
X179160586Y-86041928D01*
X179283072Y-86164414D01*
X179423212Y-86266232D01*
X179577555Y-86344873D01*
X179742299Y-86398402D01*
X179913389Y-86425500D01*
X179913390Y-86425500D01*
X180086610Y-86425500D01*
X180086611Y-86425500D01*
X180257701Y-86398402D01*
X180422445Y-86344873D01*
X180576788Y-86266232D01*
X180716928Y-86164414D01*
X180839414Y-86041928D01*
X180941232Y-85901788D01*
X181019873Y-85747445D01*
X181073402Y-85582701D01*
X181100500Y-85411611D01*
X181100500Y-84688389D01*
X181073402Y-84517299D01*
X181019873Y-84352555D01*
X180941232Y-84198212D01*
X180839414Y-84058072D01*
X180716928Y-83935586D01*
X180576788Y-83833768D01*
X180422445Y-83755127D01*
X180257701Y-83701598D01*
X180257699Y-83701597D01*
X180257698Y-83701597D01*
X180126271Y-83680781D01*
X180086611Y-83674500D01*
X179913389Y-83674500D01*
X179873728Y-83680781D01*
X179742302Y-83701597D01*
X179577552Y-83755128D01*
X179423211Y-83833768D01*
X179343256Y-83891859D01*
X179283072Y-83935586D01*
X179283070Y-83935588D01*
X179283069Y-83935588D01*
X179160588Y-84058069D01*
X179160588Y-84058070D01*
X179160586Y-84058072D01*
X179126009Y-84105663D01*
X179058768Y-84198211D01*
X178980128Y-84352552D01*
X178926597Y-84517302D01*
X178902064Y-84672200D01*
X178899500Y-84688389D01*
X177100499Y-84688389D01*
X177100499Y-84374992D01*
X177099505Y-84365266D01*
X177089999Y-84272203D01*
X177089998Y-84272200D01*
X177076772Y-84232288D01*
X177034814Y-84105666D01*
X176942712Y-83956344D01*
X176818656Y-83832288D01*
X176693559Y-83755128D01*
X176669336Y-83740187D01*
X176669331Y-83740185D01*
X176667862Y-83739698D01*
X176502797Y-83685001D01*
X176502795Y-83685000D01*
X176400010Y-83674500D01*
X175599998Y-83674500D01*
X175599980Y-83674501D01*
X175497203Y-83685000D01*
X175497200Y-83685001D01*
X175330668Y-83740185D01*
X175330663Y-83740187D01*
X175181342Y-83832289D01*
X175057289Y-83956342D01*
X174965187Y-84105663D01*
X174965185Y-84105668D01*
X174937349Y-84189670D01*
X174910001Y-84272203D01*
X174910001Y-84272204D01*
X174910000Y-84272204D01*
X174899500Y-84374983D01*
X169756325Y-84374983D01*
X169716928Y-84335586D01*
X169576788Y-84233768D01*
X169493753Y-84191460D01*
X169422447Y-84155128D01*
X169422446Y-84155127D01*
X169422445Y-84155127D01*
X169257701Y-84101598D01*
X169257699Y-84101597D01*
X169257698Y-84101597D01*
X169126271Y-84080781D01*
X169086611Y-84074500D01*
X168913389Y-84074500D01*
X168873728Y-84080781D01*
X168742302Y-84101597D01*
X168577552Y-84155128D01*
X168423211Y-84233768D01*
X168343256Y-84291859D01*
X168283072Y-84335586D01*
X168283070Y-84335588D01*
X168283069Y-84335588D01*
X168160588Y-84458069D01*
X168160588Y-84458070D01*
X168160586Y-84458072D01*
X168126009Y-84505663D01*
X168058768Y-84598211D01*
X167980128Y-84752552D01*
X167926597Y-84917302D01*
X167922031Y-84946132D01*
X167899500Y-85088389D01*
X166100499Y-85088389D01*
X166100499Y-84774992D01*
X166089999Y-84672203D01*
X166034814Y-84505666D01*
X165942712Y-84356344D01*
X165818656Y-84232288D01*
X165693559Y-84155128D01*
X165669336Y-84140187D01*
X165669331Y-84140185D01*
X165667862Y-84139698D01*
X165502797Y-84085001D01*
X165502795Y-84085000D01*
X165400010Y-84074500D01*
X164599998Y-84074500D01*
X164599980Y-84074501D01*
X164497203Y-84085000D01*
X164497200Y-84085001D01*
X164330668Y-84140185D01*
X164330663Y-84140187D01*
X164181342Y-84232289D01*
X164057289Y-84356342D01*
X163965187Y-84505663D01*
X163965186Y-84505666D01*
X163910001Y-84672203D01*
X163910001Y-84672204D01*
X163910000Y-84672204D01*
X163899500Y-84774983D01*
X117752880Y-84774983D01*
X117755341Y-84750000D01*
X117736024Y-84553868D01*
X117678814Y-84365273D01*
X117678811Y-84365269D01*
X117678811Y-84365266D01*
X117585913Y-84191467D01*
X117585909Y-84191460D01*
X117460883Y-84039116D01*
X117308539Y-83914090D01*
X117308532Y-83914086D01*
X117134733Y-83821188D01*
X117134727Y-83821186D01*
X116946132Y-83763976D01*
X116946129Y-83763975D01*
X116750000Y-83744659D01*
X116553870Y-83763975D01*
X116365266Y-83821188D01*
X116191467Y-83914086D01*
X116191460Y-83914090D01*
X116039116Y-84039116D01*
X115914090Y-84191460D01*
X115914086Y-84191467D01*
X115821188Y-84365266D01*
X115763975Y-84553870D01*
X115744659Y-84750000D01*
X109500500Y-84750000D01*
X109500500Y-83600000D01*
X122194659Y-83600000D01*
X122213975Y-83796129D01*
X122213976Y-83796132D01*
X122262575Y-83956342D01*
X122271188Y-83984733D01*
X122364086Y-84158532D01*
X122364090Y-84158539D01*
X122489116Y-84310883D01*
X122641460Y-84435909D01*
X122641467Y-84435913D01*
X122815266Y-84528811D01*
X122815269Y-84528811D01*
X122815273Y-84528814D01*
X123003868Y-84586024D01*
X123200000Y-84605341D01*
X123396132Y-84586024D01*
X123584727Y-84528814D01*
X123606265Y-84517302D01*
X123717076Y-84458072D01*
X123758538Y-84435910D01*
X123910883Y-84310883D01*
X124035910Y-84158538D01*
X124099742Y-84039117D01*
X124128811Y-83984733D01*
X124128811Y-83984732D01*
X124128814Y-83984727D01*
X124186024Y-83796132D01*
X124205341Y-83600000D01*
X124186024Y-83403868D01*
X124128814Y-83215273D01*
X124128811Y-83215269D01*
X124128811Y-83215266D01*
X124035913Y-83041467D01*
X124035909Y-83041460D01*
X123910883Y-82889116D01*
X123758539Y-82764090D01*
X123758532Y-82764086D01*
X123584733Y-82671188D01*
X123584727Y-82671186D01*
X123396132Y-82613976D01*
X123396129Y-82613975D01*
X123200000Y-82594659D01*
X123003870Y-82613975D01*
X122815266Y-82671188D01*
X122641467Y-82764086D01*
X122641460Y-82764090D01*
X122489116Y-82889116D01*
X122364090Y-83041460D01*
X122364086Y-83041467D01*
X122271188Y-83215266D01*
X122213975Y-83403870D01*
X122194659Y-83600000D01*
X109500500Y-83600000D01*
X109500500Y-81000000D01*
X126594659Y-81000000D01*
X126613975Y-81196129D01*
X126614140Y-81196672D01*
X126668076Y-81374476D01*
X126671188Y-81384733D01*
X126764086Y-81558532D01*
X126764090Y-81558539D01*
X126889116Y-81710883D01*
X127041460Y-81835909D01*
X127041467Y-81835913D01*
X127215266Y-81928811D01*
X127215269Y-81928811D01*
X127215273Y-81928814D01*
X127403868Y-81986024D01*
X127600000Y-82005341D01*
X127796132Y-81986024D01*
X127984727Y-81928814D01*
X128158538Y-81835910D01*
X128310883Y-81710883D01*
X128435910Y-81558538D01*
X128502125Y-81434659D01*
X128528811Y-81384733D01*
X128528811Y-81384732D01*
X128528814Y-81384727D01*
X128536315Y-81360000D01*
X130764815Y-81360000D01*
X130783503Y-81537805D01*
X130783504Y-81537807D01*
X130838747Y-81707829D01*
X130838750Y-81707835D01*
X130928141Y-81862665D01*
X130969812Y-81908946D01*
X131047764Y-81995521D01*
X131047767Y-81995523D01*
X131047770Y-81995526D01*
X131192407Y-82100612D01*
X131355733Y-82173329D01*
X131530609Y-82210500D01*
X131530610Y-82210500D01*
X131709389Y-82210500D01*
X131709391Y-82210500D01*
X131884267Y-82173329D01*
X132047593Y-82100612D01*
X132172308Y-82010000D01*
X132924815Y-82010000D01*
X132943503Y-82187805D01*
X132943504Y-82187807D01*
X132998747Y-82357829D01*
X132998750Y-82357835D01*
X133088141Y-82512665D01*
X133126205Y-82554939D01*
X133207764Y-82645521D01*
X133207767Y-82645523D01*
X133207770Y-82645526D01*
X133352407Y-82750612D01*
X133515733Y-82823329D01*
X133690609Y-82860500D01*
X133690610Y-82860500D01*
X133869389Y-82860500D01*
X133869391Y-82860500D01*
X134044267Y-82823329D01*
X134207593Y-82750612D01*
X134352230Y-82645526D01*
X134360689Y-82636132D01*
X134408995Y-82582482D01*
X134471859Y-82512665D01*
X134471954Y-82512500D01*
X138432315Y-82512500D01*
X138451003Y-82690305D01*
X138451004Y-82690307D01*
X138506247Y-82860329D01*
X138506250Y-82860335D01*
X138595641Y-83015165D01*
X138619319Y-83041462D01*
X138715264Y-83148021D01*
X138715267Y-83148023D01*
X138715270Y-83148026D01*
X138859907Y-83253112D01*
X139023233Y-83325829D01*
X139198109Y-83363000D01*
X139198110Y-83363000D01*
X139376889Y-83363000D01*
X139376891Y-83363000D01*
X139551767Y-83325829D01*
X139715093Y-83253112D01*
X139859730Y-83148026D01*
X139979359Y-83015165D01*
X140068750Y-82860335D01*
X140123997Y-82690303D01*
X140142685Y-82512500D01*
X140123997Y-82334697D01*
X140083643Y-82210500D01*
X140068752Y-82164670D01*
X140068749Y-82164664D01*
X140031769Y-82100612D01*
X139979359Y-82009835D01*
X139932503Y-81957796D01*
X139859735Y-81876978D01*
X139859732Y-81876976D01*
X139859731Y-81876975D01*
X139859730Y-81876974D01*
X139715093Y-81771888D01*
X139551767Y-81699171D01*
X139551765Y-81699170D01*
X139424094Y-81672033D01*
X139376891Y-81662000D01*
X139198109Y-81662000D01*
X139167454Y-81668515D01*
X139023233Y-81699170D01*
X139023228Y-81699172D01*
X138859908Y-81771887D01*
X138715268Y-81876975D01*
X138595640Y-82009836D01*
X138506250Y-82164664D01*
X138506247Y-82164670D01*
X138451004Y-82334692D01*
X138451003Y-82334694D01*
X138432315Y-82512500D01*
X134471954Y-82512500D01*
X134561250Y-82357835D01*
X134616497Y-82187803D01*
X134635185Y-82010000D01*
X134616497Y-81832197D01*
X134576087Y-81707829D01*
X134561252Y-81662170D01*
X134561249Y-81662164D01*
X134471859Y-81507335D01*
X134406421Y-81434659D01*
X134352235Y-81374478D01*
X134352232Y-81374476D01*
X134352231Y-81374475D01*
X134352230Y-81374474D01*
X134207593Y-81269388D01*
X134044267Y-81196671D01*
X134044265Y-81196670D01*
X133878033Y-81161337D01*
X133869391Y-81159500D01*
X133690609Y-81159500D01*
X133681967Y-81161337D01*
X133515733Y-81196670D01*
X133515728Y-81196672D01*
X133352408Y-81269387D01*
X133207768Y-81374475D01*
X133088140Y-81507336D01*
X132998750Y-81662164D01*
X132998747Y-81662170D01*
X132943504Y-81832192D01*
X132943503Y-81832194D01*
X132924815Y-82010000D01*
X132172308Y-82010000D01*
X132192230Y-81995526D01*
X132311859Y-81862665D01*
X132401250Y-81707835D01*
X132456497Y-81537803D01*
X132475185Y-81360000D01*
X132456497Y-81182197D01*
X132401250Y-81012165D01*
X132311859Y-80857335D01*
X132263717Y-80803868D01*
X132192235Y-80724478D01*
X132192232Y-80724476D01*
X132192231Y-80724475D01*
X132192230Y-80724474D01*
X132047593Y-80619388D01*
X131884267Y-80546671D01*
X131884265Y-80546670D01*
X131756594Y-80519533D01*
X131709391Y-80509500D01*
X131530609Y-80509500D01*
X131499954Y-80516015D01*
X131355733Y-80546670D01*
X131355728Y-80546672D01*
X131192408Y-80619387D01*
X131047768Y-80724475D01*
X130928140Y-80857336D01*
X130838750Y-81012164D01*
X130838747Y-81012170D01*
X130783504Y-81182192D01*
X130783503Y-81182194D01*
X130764815Y-81360000D01*
X128536315Y-81360000D01*
X128586024Y-81196132D01*
X128605341Y-81000000D01*
X128586024Y-80803868D01*
X128528814Y-80615273D01*
X128528811Y-80615269D01*
X128528811Y-80615266D01*
X128435913Y-80441467D01*
X128435909Y-80441460D01*
X128310883Y-80289116D01*
X128158539Y-80164090D01*
X128158532Y-80164086D01*
X127984733Y-80071188D01*
X127984727Y-80071186D01*
X127796132Y-80013976D01*
X127796129Y-80013975D01*
X127600000Y-79994659D01*
X127403870Y-80013975D01*
X127215266Y-80071188D01*
X127041467Y-80164086D01*
X127041460Y-80164090D01*
X126889116Y-80289116D01*
X126764090Y-80441460D01*
X126764086Y-80441467D01*
X126671188Y-80615266D01*
X126613975Y-80803870D01*
X126594659Y-81000000D01*
X109500500Y-81000000D01*
X109500500Y-79800000D01*
X117944815Y-79800000D01*
X117963503Y-79977805D01*
X117963504Y-79977807D01*
X118018747Y-80147829D01*
X118018750Y-80147835D01*
X118108141Y-80302665D01*
X118133836Y-80331202D01*
X118227764Y-80435521D01*
X118227767Y-80435523D01*
X118227770Y-80435526D01*
X118372407Y-80540612D01*
X118535733Y-80613329D01*
X118710609Y-80650500D01*
X118710610Y-80650500D01*
X118889389Y-80650500D01*
X118889391Y-80650500D01*
X119064267Y-80613329D01*
X119227593Y-80540612D01*
X119372230Y-80435526D01*
X119491859Y-80302665D01*
X119581250Y-80147835D01*
X119636497Y-79977803D01*
X119655185Y-79800000D01*
X119636497Y-79622197D01*
X119608873Y-79537181D01*
X119581252Y-79452170D01*
X119581247Y-79452159D01*
X119551133Y-79400000D01*
X130944815Y-79400000D01*
X130963503Y-79577805D01*
X130963504Y-79577807D01*
X131018747Y-79747829D01*
X131018750Y-79747835D01*
X131108141Y-79902665D01*
X131149812Y-79948946D01*
X131227764Y-80035521D01*
X131227767Y-80035523D01*
X131227770Y-80035526D01*
X131372407Y-80140612D01*
X131535733Y-80213329D01*
X131710609Y-80250500D01*
X131710610Y-80250500D01*
X131889389Y-80250500D01*
X131889391Y-80250500D01*
X132064267Y-80213329D01*
X132227593Y-80140612D01*
X132372230Y-80035526D01*
X132380689Y-80026132D01*
X132409027Y-79994659D01*
X132491859Y-79902665D01*
X132581250Y-79747835D01*
X132636497Y-79577803D01*
X132655185Y-79400000D01*
X132636497Y-79222197D01*
X132608873Y-79137181D01*
X132581252Y-79052170D01*
X132581249Y-79052164D01*
X132491859Y-78897335D01*
X132426421Y-78824659D01*
X132372235Y-78764478D01*
X132372232Y-78764476D01*
X132372231Y-78764475D01*
X132372230Y-78764474D01*
X132227593Y-78659388D01*
X132064267Y-78586671D01*
X132064265Y-78586670D01*
X131936594Y-78559533D01*
X131889391Y-78549500D01*
X131710609Y-78549500D01*
X131679954Y-78556015D01*
X131535733Y-78586670D01*
X131535728Y-78586672D01*
X131372408Y-78659387D01*
X131227768Y-78764475D01*
X131108140Y-78897336D01*
X131018750Y-79052164D01*
X131018747Y-79052170D01*
X130963504Y-79222192D01*
X130963503Y-79222194D01*
X130944815Y-79400000D01*
X119551133Y-79400000D01*
X119533015Y-79368618D01*
X119516542Y-79300718D01*
X119539395Y-79234691D01*
X119594316Y-79191501D01*
X119663870Y-79184860D01*
X119690831Y-79193337D01*
X119735733Y-79213329D01*
X119910609Y-79250500D01*
X119910610Y-79250500D01*
X120089389Y-79250500D01*
X120089391Y-79250500D01*
X120264267Y-79213329D01*
X120427593Y-79140612D01*
X120572230Y-79035526D01*
X120572737Y-79034964D01*
X120609543Y-78994086D01*
X120691859Y-78902665D01*
X120781250Y-78747835D01*
X120782069Y-78745316D01*
X120795927Y-78702663D01*
X120836497Y-78577803D01*
X120855185Y-78400000D01*
X124944815Y-78400000D01*
X124963503Y-78577805D01*
X124963504Y-78577807D01*
X125018747Y-78747829D01*
X125018750Y-78747835D01*
X125108141Y-78902665D01*
X125126713Y-78923291D01*
X125227764Y-79035521D01*
X125227767Y-79035523D01*
X125227770Y-79035526D01*
X125372407Y-79140612D01*
X125535733Y-79213329D01*
X125710609Y-79250500D01*
X125710610Y-79250500D01*
X125889389Y-79250500D01*
X125889391Y-79250500D01*
X126064267Y-79213329D01*
X126227593Y-79140612D01*
X126372230Y-79035526D01*
X126372737Y-79034964D01*
X126409543Y-78994086D01*
X126491859Y-78902665D01*
X126581250Y-78747835D01*
X126582068Y-78745314D01*
X126582937Y-78744044D01*
X126583896Y-78741892D01*
X126584289Y-78742067D01*
X126621505Y-78687640D01*
X126685863Y-78660441D01*
X126754710Y-78672355D01*
X126806186Y-78719598D01*
X126817930Y-78745312D01*
X126818750Y-78747835D01*
X126908141Y-78902665D01*
X126926713Y-78923291D01*
X127027764Y-79035521D01*
X127027767Y-79035523D01*
X127027770Y-79035526D01*
X127172407Y-79140612D01*
X127335733Y-79213329D01*
X127510609Y-79250500D01*
X127510610Y-79250500D01*
X127689389Y-79250500D01*
X127689391Y-79250500D01*
X127864267Y-79213329D01*
X128027593Y-79140612D01*
X128172230Y-79035526D01*
X128172737Y-79034964D01*
X128209543Y-78994086D01*
X128291859Y-78902665D01*
X128381250Y-78747835D01*
X128382069Y-78745316D01*
X128395927Y-78702663D01*
X128436497Y-78577803D01*
X128455185Y-78400000D01*
X128436497Y-78222197D01*
X128429285Y-78200000D01*
X136744815Y-78200000D01*
X136763503Y-78377805D01*
X136763504Y-78377807D01*
X136818747Y-78547829D01*
X136818750Y-78547835D01*
X136908141Y-78702665D01*
X136923388Y-78719598D01*
X137027764Y-78835521D01*
X137027767Y-78835523D01*
X137027770Y-78835526D01*
X137172407Y-78940612D01*
X137335733Y-79013329D01*
X137510609Y-79050500D01*
X137510610Y-79050500D01*
X137689389Y-79050500D01*
X137689391Y-79050500D01*
X137864267Y-79013329D01*
X138027593Y-78940612D01*
X138172230Y-78835526D01*
X138172993Y-78834677D01*
X138173558Y-78834329D01*
X138177060Y-78831177D01*
X138177636Y-78831816D01*
X138232471Y-78798023D01*
X138302328Y-78799343D01*
X138315584Y-78804358D01*
X138335733Y-78813329D01*
X138510609Y-78850500D01*
X138510610Y-78850500D01*
X138689389Y-78850500D01*
X138689391Y-78850500D01*
X138864267Y-78813329D01*
X139027593Y-78740612D01*
X139172230Y-78635526D01*
X139291859Y-78502665D01*
X139381250Y-78347835D01*
X139436497Y-78177803D01*
X139455185Y-78000000D01*
X139436497Y-77822197D01*
X139404006Y-77722200D01*
X139381252Y-77652170D01*
X139381249Y-77652164D01*
X139291859Y-77497335D01*
X139233286Y-77432283D01*
X139172235Y-77364478D01*
X139172232Y-77364476D01*
X139172231Y-77364475D01*
X139172230Y-77364474D01*
X139027593Y-77259388D01*
X138864267Y-77186671D01*
X138864265Y-77186670D01*
X138736594Y-77159533D01*
X138689391Y-77149500D01*
X138510609Y-77149500D01*
X138500739Y-77151598D01*
X138335733Y-77186670D01*
X138335728Y-77186672D01*
X138172408Y-77259387D01*
X138027768Y-77364475D01*
X138026993Y-77365337D01*
X138026418Y-77365690D01*
X138022941Y-77368822D01*
X138022368Y-77368185D01*
X137967504Y-77401982D01*
X137897648Y-77400649D01*
X137884413Y-77395640D01*
X137864270Y-77386672D01*
X137864265Y-77386670D01*
X137736594Y-77359533D01*
X137689391Y-77349500D01*
X137510609Y-77349500D01*
X137479954Y-77356015D01*
X137335733Y-77386670D01*
X137335728Y-77386672D01*
X137172408Y-77459387D01*
X137027768Y-77564475D01*
X136908140Y-77697336D01*
X136818750Y-77852164D01*
X136818747Y-77852170D01*
X136763504Y-78022192D01*
X136763503Y-78022194D01*
X136744815Y-78200000D01*
X128429285Y-78200000D01*
X128383124Y-78057932D01*
X128381252Y-78052170D01*
X128381249Y-78052164D01*
X128291859Y-77897335D01*
X128237983Y-77837500D01*
X128172235Y-77764478D01*
X128172232Y-77764476D01*
X128172231Y-77764475D01*
X128172230Y-77764474D01*
X128027593Y-77659388D01*
X127864267Y-77586671D01*
X127864265Y-77586670D01*
X127718409Y-77555668D01*
X127689391Y-77549500D01*
X127573112Y-77549500D01*
X127506073Y-77529815D01*
X127460318Y-77477011D01*
X127450374Y-77407853D01*
X127479399Y-77344297D01*
X127480962Y-77342528D01*
X127492070Y-77330190D01*
X127514879Y-77304859D01*
X127604270Y-77150029D01*
X127659517Y-76979997D01*
X127678205Y-76802194D01*
X127659517Y-76624391D01*
X127604270Y-76454359D01*
X127514879Y-76299529D01*
X127468023Y-76247490D01*
X127395255Y-76166672D01*
X127395252Y-76166670D01*
X127395251Y-76166669D01*
X127395250Y-76166668D01*
X127250613Y-76061582D01*
X127087287Y-75988865D01*
X127087285Y-75988864D01*
X126959614Y-75961727D01*
X126912411Y-75951694D01*
X126733629Y-75951694D01*
X126702974Y-75958209D01*
X126558753Y-75988864D01*
X126558748Y-75988866D01*
X126395428Y-76061581D01*
X126250788Y-76166669D01*
X126131160Y-76299530D01*
X126041770Y-76454358D01*
X126041767Y-76454364D01*
X125986524Y-76624386D01*
X125986523Y-76624388D01*
X125967835Y-76802194D01*
X125986523Y-76979999D01*
X125986524Y-76980001D01*
X126041767Y-77150023D01*
X126041770Y-77150029D01*
X126131161Y-77304859D01*
X126185616Y-77365337D01*
X126209101Y-77391420D01*
X126239331Y-77454411D01*
X126230706Y-77523747D01*
X126185964Y-77577412D01*
X126119312Y-77598370D01*
X126070510Y-77588482D01*
X126070447Y-77588679D01*
X126068738Y-77588123D01*
X126066523Y-77587675D01*
X126064269Y-77586671D01*
X126064265Y-77586670D01*
X125918409Y-77555668D01*
X125889391Y-77549500D01*
X125710609Y-77549500D01*
X125681614Y-77555663D01*
X125535733Y-77586670D01*
X125535728Y-77586672D01*
X125372408Y-77659387D01*
X125227768Y-77764475D01*
X125108140Y-77897336D01*
X125018750Y-78052164D01*
X125018747Y-78052170D01*
X124963504Y-78222192D01*
X124963503Y-78222194D01*
X124944815Y-78400000D01*
X120855185Y-78400000D01*
X120836497Y-78222197D01*
X120783124Y-78057932D01*
X120781252Y-78052170D01*
X120781249Y-78052164D01*
X120691859Y-77897335D01*
X120637983Y-77837500D01*
X120572235Y-77764478D01*
X120572232Y-77764476D01*
X120572231Y-77764475D01*
X120572230Y-77764474D01*
X120427593Y-77659388D01*
X120264267Y-77586671D01*
X120264265Y-77586670D01*
X120118409Y-77555668D01*
X120089391Y-77549500D01*
X119910609Y-77549500D01*
X119881614Y-77555663D01*
X119735733Y-77586670D01*
X119735728Y-77586672D01*
X119572408Y-77659388D01*
X119566775Y-77662640D01*
X119566097Y-77661465D01*
X119507064Y-77682521D01*
X119439012Y-77666687D01*
X119428207Y-77659742D01*
X119427597Y-77659390D01*
X119427593Y-77659388D01*
X119264267Y-77586671D01*
X119264265Y-77586670D01*
X119118409Y-77555668D01*
X119089391Y-77549500D01*
X118910609Y-77549500D01*
X118881614Y-77555663D01*
X118735733Y-77586670D01*
X118735728Y-77586672D01*
X118572408Y-77659387D01*
X118427768Y-77764475D01*
X118308140Y-77897336D01*
X118218750Y-78052164D01*
X118218747Y-78052170D01*
X118163504Y-78222192D01*
X118163503Y-78222194D01*
X118144815Y-78400000D01*
X118163503Y-78577805D01*
X118163504Y-78577807D01*
X118218747Y-78747829D01*
X118218750Y-78747835D01*
X118308140Y-78902664D01*
X118326713Y-78923291D01*
X118356943Y-78986283D01*
X118348319Y-79055618D01*
X118307451Y-79106581D01*
X118227769Y-79164474D01*
X118108140Y-79297336D01*
X118018750Y-79452164D01*
X118018747Y-79452170D01*
X117963504Y-79622192D01*
X117963503Y-79622194D01*
X117944815Y-79800000D01*
X109500500Y-79800000D01*
X109500500Y-75000000D01*
X138144815Y-75000000D01*
X138163503Y-75177805D01*
X138163504Y-75177807D01*
X138218747Y-75347829D01*
X138218750Y-75347835D01*
X138308141Y-75502665D01*
X138349812Y-75548946D01*
X138427764Y-75635521D01*
X138427767Y-75635523D01*
X138427770Y-75635526D01*
X138572407Y-75740612D01*
X138735733Y-75813329D01*
X138910609Y-75850500D01*
X138910610Y-75850500D01*
X139089389Y-75850500D01*
X139089391Y-75850500D01*
X139264267Y-75813329D01*
X139427593Y-75740612D01*
X139572230Y-75635526D01*
X139691859Y-75502665D01*
X139781250Y-75347835D01*
X139836497Y-75177803D01*
X139855185Y-75000000D01*
X139836497Y-74822197D01*
X139791214Y-74682830D01*
X139781252Y-74652170D01*
X139781249Y-74652164D01*
X139778393Y-74647217D01*
X139691859Y-74497335D01*
X139645003Y-74445296D01*
X139572235Y-74364478D01*
X139572232Y-74364476D01*
X139572231Y-74364475D01*
X139572230Y-74364474D01*
X139427593Y-74259388D01*
X139264267Y-74186671D01*
X139264265Y-74186670D01*
X139136594Y-74159533D01*
X139089391Y-74149500D01*
X138910609Y-74149500D01*
X138879954Y-74156015D01*
X138735733Y-74186670D01*
X138735728Y-74186672D01*
X138572408Y-74259387D01*
X138427768Y-74364475D01*
X138308140Y-74497336D01*
X138218750Y-74652164D01*
X138218747Y-74652170D01*
X138163504Y-74822192D01*
X138163503Y-74822194D01*
X138144815Y-75000000D01*
X109500500Y-75000000D01*
X109500500Y-73200000D01*
X128744815Y-73200000D01*
X128763503Y-73377805D01*
X128763504Y-73377807D01*
X128818747Y-73547829D01*
X128818750Y-73547835D01*
X128908141Y-73702665D01*
X128949812Y-73748946D01*
X129027764Y-73835521D01*
X129027767Y-73835523D01*
X129027770Y-73835526D01*
X129172407Y-73940612D01*
X129335733Y-74013329D01*
X129510609Y-74050500D01*
X129510610Y-74050500D01*
X129689389Y-74050500D01*
X129689391Y-74050500D01*
X129864267Y-74013329D01*
X129882977Y-74004999D01*
X141893841Y-74004999D01*
X141893841Y-74005000D01*
X141914436Y-74240403D01*
X141914438Y-74240413D01*
X141975594Y-74468655D01*
X141975596Y-74468659D01*
X141975597Y-74468663D01*
X142055504Y-74640023D01*
X142075465Y-74682830D01*
X142075467Y-74682834D01*
X142170680Y-74818811D01*
X142211001Y-74876396D01*
X142211006Y-74876402D01*
X142378097Y-75043493D01*
X142378103Y-75043498D01*
X142563658Y-75173425D01*
X142607283Y-75228002D01*
X142614477Y-75297500D01*
X142582954Y-75359855D01*
X142563658Y-75376575D01*
X142378097Y-75506505D01*
X142211005Y-75673597D01*
X142075465Y-75867169D01*
X142075464Y-75867171D01*
X141975598Y-76081335D01*
X141975594Y-76081344D01*
X141914438Y-76309586D01*
X141914436Y-76309596D01*
X141893841Y-76544999D01*
X141893841Y-76545000D01*
X141914436Y-76780403D01*
X141914438Y-76780413D01*
X141975594Y-77008655D01*
X141975596Y-77008659D01*
X141975597Y-77008663D01*
X142043895Y-77155128D01*
X142075465Y-77222830D01*
X142075467Y-77222834D01*
X142174645Y-77364474D01*
X142211001Y-77416396D01*
X142211006Y-77416402D01*
X142378097Y-77583493D01*
X142378103Y-77583498D01*
X142563658Y-77713425D01*
X142607283Y-77768002D01*
X142614477Y-77837500D01*
X142582954Y-77899855D01*
X142563658Y-77916575D01*
X142378097Y-78046505D01*
X142211005Y-78213597D01*
X142075465Y-78407169D01*
X142075464Y-78407171D01*
X141975598Y-78621335D01*
X141975594Y-78621344D01*
X141914438Y-78849586D01*
X141914436Y-78849596D01*
X141893841Y-79084999D01*
X141893841Y-79085000D01*
X141914436Y-79320403D01*
X141914438Y-79320413D01*
X141975594Y-79548655D01*
X141975596Y-79548659D01*
X141975597Y-79548663D01*
X142068470Y-79747829D01*
X142075465Y-79762830D01*
X142075467Y-79762834D01*
X142154356Y-79875498D01*
X142211001Y-79956396D01*
X142211006Y-79956402D01*
X142378097Y-80123493D01*
X142378103Y-80123498D01*
X142563658Y-80253425D01*
X142607283Y-80308002D01*
X142614477Y-80377500D01*
X142582954Y-80439855D01*
X142563658Y-80456575D01*
X142378097Y-80586505D01*
X142211005Y-80753597D01*
X142075465Y-80947169D01*
X142075464Y-80947171D01*
X141975598Y-81161335D01*
X141975594Y-81161344D01*
X141914438Y-81389586D01*
X141914436Y-81389596D01*
X141893841Y-81624999D01*
X141893841Y-81625000D01*
X141914436Y-81860403D01*
X141914438Y-81860413D01*
X141975594Y-82088655D01*
X141975596Y-82088659D01*
X141975597Y-82088663D01*
X142059999Y-82269663D01*
X142075465Y-82302830D01*
X142075467Y-82302834D01*
X142183781Y-82457521D01*
X142211005Y-82496401D01*
X142378099Y-82663495D01*
X142474884Y-82731265D01*
X142571665Y-82799032D01*
X142571667Y-82799033D01*
X142571670Y-82799035D01*
X142785837Y-82898903D01*
X143014092Y-82960063D01*
X143190534Y-82975500D01*
X143249499Y-82980659D01*
X143249500Y-82980659D01*
X143249501Y-82980659D01*
X143308466Y-82975500D01*
X143484908Y-82960063D01*
X143713163Y-82898903D01*
X143927330Y-82799035D01*
X144120901Y-82663495D01*
X144242829Y-82541566D01*
X144304148Y-82508084D01*
X144373840Y-82513068D01*
X144429774Y-82554939D01*
X144446689Y-82585917D01*
X144495702Y-82717328D01*
X144495706Y-82717335D01*
X144581952Y-82832544D01*
X144581955Y-82832547D01*
X144697164Y-82918793D01*
X144697171Y-82918797D01*
X144832017Y-82969091D01*
X144832016Y-82969091D01*
X144838944Y-82969835D01*
X144891627Y-82975500D01*
X146687372Y-82975499D01*
X146746983Y-82969091D01*
X146881831Y-82918796D01*
X146997046Y-82832546D01*
X147083296Y-82717331D01*
X147133591Y-82582483D01*
X147140000Y-82522873D01*
X147140000Y-82440000D01*
X156614659Y-82440000D01*
X156633975Y-82636129D01*
X156642277Y-82663498D01*
X156683392Y-82799035D01*
X156691188Y-82824733D01*
X156784086Y-82998532D01*
X156784090Y-82998539D01*
X156909116Y-83150883D01*
X157061460Y-83275909D01*
X157061467Y-83275913D01*
X157235266Y-83368811D01*
X157235269Y-83368811D01*
X157235273Y-83368814D01*
X157423868Y-83426024D01*
X157620000Y-83445341D01*
X157816132Y-83426024D01*
X158004727Y-83368814D01*
X158015605Y-83363000D01*
X158178532Y-83275913D01*
X158178538Y-83275910D01*
X158330883Y-83150883D01*
X158455910Y-82998538D01*
X158548814Y-82824727D01*
X158606024Y-82636132D01*
X158625341Y-82440000D01*
X158606024Y-82243868D01*
X158548814Y-82055273D01*
X158548811Y-82055269D01*
X158548811Y-82055266D01*
X158455913Y-81881467D01*
X158455909Y-81881460D01*
X158330883Y-81729116D01*
X158178539Y-81604090D01*
X158178532Y-81604086D01*
X158004733Y-81511188D01*
X158004727Y-81511186D01*
X157816132Y-81453976D01*
X157816129Y-81453975D01*
X157620000Y-81434659D01*
X157423870Y-81453975D01*
X157235266Y-81511188D01*
X157061467Y-81604086D01*
X157061460Y-81604090D01*
X156909116Y-81729116D01*
X156784090Y-81881460D01*
X156784086Y-81881467D01*
X156691188Y-82055266D01*
X156633975Y-82243870D01*
X156614659Y-82440000D01*
X147140000Y-82440000D01*
X147139999Y-80727128D01*
X147133591Y-80667517D01*
X147132991Y-80665909D01*
X147083297Y-80532671D01*
X147083293Y-80532664D01*
X146997047Y-80417455D01*
X146997044Y-80417452D01*
X146881835Y-80331206D01*
X146881828Y-80331202D01*
X146750417Y-80282189D01*
X146694483Y-80240318D01*
X146670066Y-80174853D01*
X146684918Y-80106580D01*
X146706063Y-80078332D01*
X146827995Y-79956401D01*
X146916502Y-79830000D01*
X151524659Y-79830000D01*
X151543975Y-80026129D01*
X151601188Y-80214733D01*
X151694086Y-80388532D01*
X151694090Y-80388539D01*
X151819116Y-80540883D01*
X151971460Y-80665909D01*
X151971467Y-80665913D01*
X152145266Y-80758811D01*
X152145269Y-80758811D01*
X152145273Y-80758814D01*
X152333868Y-80816024D01*
X152530000Y-80835341D01*
X152726132Y-80816024D01*
X152914727Y-80758814D01*
X152924488Y-80753597D01*
X153008989Y-80708430D01*
X153088538Y-80665910D01*
X153240883Y-80540883D01*
X153365910Y-80388538D01*
X153426865Y-80274500D01*
X153458811Y-80214733D01*
X153458811Y-80214732D01*
X153458814Y-80214727D01*
X153516024Y-80026132D01*
X153535341Y-79830000D01*
X153516024Y-79633868D01*
X153458814Y-79445273D01*
X153458811Y-79445269D01*
X153458811Y-79445266D01*
X153365913Y-79271467D01*
X153365909Y-79271460D01*
X153240883Y-79119116D01*
X153088539Y-78994090D01*
X153088532Y-78994086D01*
X152914733Y-78901188D01*
X152914727Y-78901186D01*
X152744659Y-78849596D01*
X152726129Y-78843975D01*
X152530000Y-78824659D01*
X152333870Y-78843975D01*
X152145266Y-78901188D01*
X151971467Y-78994086D01*
X151971460Y-78994090D01*
X151819116Y-79119116D01*
X151694090Y-79271460D01*
X151694086Y-79271467D01*
X151601188Y-79445266D01*
X151543975Y-79633870D01*
X151524659Y-79830000D01*
X146916502Y-79830000D01*
X146963535Y-79762830D01*
X147063403Y-79548663D01*
X147124563Y-79320408D01*
X147145159Y-79085000D01*
X147124563Y-78849592D01*
X147063403Y-78621337D01*
X146963535Y-78407171D01*
X146957925Y-78399158D01*
X146827994Y-78213597D01*
X146660902Y-78046506D01*
X146660896Y-78046501D01*
X146475342Y-77916575D01*
X146431717Y-77861998D01*
X146424523Y-77792500D01*
X146433379Y-77774983D01*
X163899500Y-77774983D01*
X163899500Y-79125001D01*
X163899501Y-79125018D01*
X163910000Y-79227796D01*
X163910001Y-79227799D01*
X163965185Y-79394331D01*
X163965186Y-79394334D01*
X164057288Y-79543656D01*
X164181344Y-79667712D01*
X164330666Y-79759814D01*
X164497203Y-79814999D01*
X164599991Y-79825500D01*
X165400008Y-79825499D01*
X165400016Y-79825498D01*
X165400019Y-79825498D01*
X165456302Y-79819748D01*
X165502797Y-79814999D01*
X165669334Y-79759814D01*
X165818656Y-79667712D01*
X165942712Y-79543656D01*
X166034814Y-79394334D01*
X166089999Y-79227797D01*
X166100500Y-79125009D01*
X166100499Y-78088389D01*
X167899500Y-78088389D01*
X167899500Y-78811610D01*
X167913921Y-78902665D01*
X167926598Y-78982701D01*
X167980127Y-79147445D01*
X168058768Y-79301788D01*
X168160586Y-79441928D01*
X168283072Y-79564414D01*
X168423212Y-79666232D01*
X168577555Y-79744873D01*
X168742299Y-79798402D01*
X168913389Y-79825500D01*
X168913390Y-79825500D01*
X169086610Y-79825500D01*
X169086611Y-79825500D01*
X169257701Y-79798402D01*
X169422445Y-79744873D01*
X169576788Y-79666232D01*
X169716928Y-79564414D01*
X169839414Y-79441928D01*
X169941232Y-79301788D01*
X170019873Y-79147445D01*
X170073402Y-78982701D01*
X170100500Y-78811611D01*
X170100500Y-78088389D01*
X170073402Y-77917299D01*
X170043406Y-77824983D01*
X174899500Y-77824983D01*
X174899500Y-79175001D01*
X174899501Y-79175018D01*
X174910000Y-79277796D01*
X174910001Y-79277799D01*
X174965185Y-79444331D01*
X174965187Y-79444336D01*
X174970016Y-79452165D01*
X175057288Y-79593656D01*
X175181344Y-79717712D01*
X175330666Y-79809814D01*
X175497203Y-79864999D01*
X175599991Y-79875500D01*
X176400008Y-79875499D01*
X176400016Y-79875498D01*
X176400019Y-79875498D01*
X176456302Y-79869748D01*
X176502797Y-79864999D01*
X176669334Y-79809814D01*
X176818656Y-79717712D01*
X176942712Y-79593656D01*
X177034814Y-79444334D01*
X177089999Y-79277797D01*
X177100500Y-79175009D01*
X177100499Y-78138389D01*
X178899500Y-78138389D01*
X178899500Y-78861610D01*
X178923529Y-79013329D01*
X178926598Y-79032701D01*
X178980127Y-79197445D01*
X179058768Y-79351788D01*
X179160586Y-79491928D01*
X179283072Y-79614414D01*
X179423212Y-79716232D01*
X179577555Y-79794873D01*
X179742299Y-79848402D01*
X179913389Y-79875500D01*
X179913390Y-79875500D01*
X180086610Y-79875500D01*
X180086611Y-79875500D01*
X180257701Y-79848402D01*
X180422445Y-79794873D01*
X180576788Y-79716232D01*
X180716928Y-79614414D01*
X180839414Y-79491928D01*
X180941232Y-79351788D01*
X181019873Y-79197445D01*
X181073402Y-79032701D01*
X181100500Y-78861611D01*
X181100500Y-78138389D01*
X181073402Y-77967299D01*
X181019873Y-77802555D01*
X180941232Y-77648212D01*
X180839414Y-77508072D01*
X180716928Y-77385586D01*
X180576788Y-77283768D01*
X180422445Y-77205127D01*
X180257701Y-77151598D01*
X180257699Y-77151597D01*
X180257698Y-77151597D01*
X180126271Y-77130781D01*
X180086611Y-77124500D01*
X179913389Y-77124500D01*
X179873728Y-77130781D01*
X179742302Y-77151597D01*
X179577552Y-77205128D01*
X179423211Y-77283768D01*
X179351891Y-77335586D01*
X179283072Y-77385586D01*
X179283070Y-77385588D01*
X179283069Y-77385588D01*
X179160588Y-77508069D01*
X179160588Y-77508070D01*
X179160586Y-77508072D01*
X179144789Y-77529815D01*
X179058768Y-77648211D01*
X178980128Y-77802552D01*
X178926597Y-77967302D01*
X178899500Y-78138389D01*
X177100499Y-78138389D01*
X177100499Y-77824992D01*
X177100213Y-77822197D01*
X177089999Y-77722203D01*
X177089998Y-77722200D01*
X177081759Y-77697336D01*
X177034814Y-77555666D01*
X176942712Y-77406344D01*
X176818656Y-77282288D01*
X176693559Y-77205128D01*
X176669336Y-77190187D01*
X176669331Y-77190185D01*
X176638664Y-77180023D01*
X176502797Y-77135001D01*
X176502795Y-77135000D01*
X176400010Y-77124500D01*
X175599998Y-77124500D01*
X175599980Y-77124501D01*
X175497203Y-77135000D01*
X175497200Y-77135001D01*
X175330668Y-77190185D01*
X175330663Y-77190187D01*
X175181342Y-77282289D01*
X175057289Y-77406342D01*
X174965187Y-77555663D01*
X174965185Y-77555668D01*
X174937349Y-77639670D01*
X174910001Y-77722203D01*
X174910001Y-77722204D01*
X174910000Y-77722204D01*
X174899500Y-77824983D01*
X170043406Y-77824983D01*
X170019873Y-77752555D01*
X169941232Y-77598212D01*
X169839414Y-77458072D01*
X169716928Y-77335586D01*
X169576788Y-77233768D01*
X169422445Y-77155127D01*
X169257701Y-77101598D01*
X169257699Y-77101597D01*
X169257698Y-77101597D01*
X169126271Y-77080781D01*
X169086611Y-77074500D01*
X168913389Y-77074500D01*
X168873728Y-77080781D01*
X168742302Y-77101597D01*
X168577552Y-77155128D01*
X168423211Y-77233768D01*
X168356430Y-77282288D01*
X168283072Y-77335586D01*
X168283070Y-77335588D01*
X168283069Y-77335588D01*
X168160588Y-77458069D01*
X168160588Y-77458070D01*
X168160586Y-77458072D01*
X168159631Y-77459387D01*
X168058768Y-77598211D01*
X167980128Y-77752552D01*
X167926597Y-77917302D01*
X167899500Y-78088389D01*
X166100499Y-78088389D01*
X166100499Y-77774992D01*
X166097719Y-77747782D01*
X166089999Y-77672203D01*
X166089998Y-77672200D01*
X166085753Y-77659389D01*
X166034814Y-77505666D01*
X165942712Y-77356344D01*
X165818656Y-77232288D01*
X165693559Y-77155128D01*
X165669336Y-77140187D01*
X165669331Y-77140185D01*
X165653684Y-77135000D01*
X165502797Y-77085001D01*
X165502795Y-77085000D01*
X165400010Y-77074500D01*
X164599998Y-77074500D01*
X164599980Y-77074501D01*
X164497203Y-77085000D01*
X164497200Y-77085001D01*
X164330668Y-77140185D01*
X164330663Y-77140187D01*
X164181342Y-77232289D01*
X164057289Y-77356342D01*
X163965187Y-77505663D01*
X163965185Y-77505668D01*
X163941412Y-77577412D01*
X163910001Y-77672203D01*
X163910001Y-77672204D01*
X163910000Y-77672204D01*
X163899500Y-77774983D01*
X146433379Y-77774983D01*
X146456046Y-77730145D01*
X146475342Y-77713425D01*
X146525297Y-77678446D01*
X146660901Y-77583495D01*
X146827995Y-77416401D01*
X146963535Y-77222830D01*
X147063403Y-77008663D01*
X147124563Y-76780408D01*
X147145159Y-76545000D01*
X147124563Y-76309592D01*
X147063403Y-76081337D01*
X146963535Y-75867171D01*
X146957925Y-75859158D01*
X146827994Y-75673597D01*
X146660902Y-75506506D01*
X146660896Y-75506501D01*
X146475342Y-75376575D01*
X146431717Y-75321998D01*
X146424523Y-75252500D01*
X146456046Y-75190145D01*
X146475342Y-75173425D01*
X146497526Y-75157891D01*
X146660901Y-75043495D01*
X146827995Y-74876401D01*
X146963535Y-74682830D01*
X147063403Y-74468663D01*
X147124563Y-74240408D01*
X147145159Y-74005000D01*
X147135098Y-73890000D01*
X157994659Y-73890000D01*
X158013975Y-74086129D01*
X158013976Y-74086132D01*
X158060775Y-74240408D01*
X158071188Y-74274733D01*
X158164086Y-74448532D01*
X158164090Y-74448539D01*
X158289116Y-74600883D01*
X158441460Y-74725909D01*
X158441467Y-74725913D01*
X158615266Y-74818811D01*
X158615269Y-74818811D01*
X158615273Y-74818814D01*
X158803868Y-74876024D01*
X159000000Y-74895341D01*
X159196132Y-74876024D01*
X159384727Y-74818814D01*
X159558538Y-74725910D01*
X159710883Y-74600883D01*
X159835910Y-74448538D01*
X159928814Y-74274727D01*
X159986024Y-74086132D01*
X160005341Y-73890000D01*
X159986024Y-73693868D01*
X159928814Y-73505273D01*
X159928811Y-73505269D01*
X159928811Y-73505266D01*
X159835913Y-73331467D01*
X159835909Y-73331460D01*
X159710883Y-73179116D01*
X159558539Y-73054090D01*
X159558532Y-73054086D01*
X159384733Y-72961188D01*
X159384727Y-72961186D01*
X159196132Y-72903976D01*
X159196129Y-72903975D01*
X159000000Y-72884659D01*
X158803870Y-72903975D01*
X158615266Y-72961188D01*
X158441467Y-73054086D01*
X158441460Y-73054090D01*
X158289116Y-73179116D01*
X158164090Y-73331460D01*
X158164086Y-73331467D01*
X158071188Y-73505266D01*
X158013975Y-73693870D01*
X157994659Y-73890000D01*
X147135098Y-73890000D01*
X147124563Y-73769592D01*
X147063403Y-73541337D01*
X146963535Y-73327171D01*
X146957925Y-73319158D01*
X146827994Y-73133597D01*
X146660902Y-72966506D01*
X146660895Y-72966501D01*
X146653307Y-72961188D01*
X146595199Y-72920500D01*
X146467334Y-72830967D01*
X146467330Y-72830965D01*
X146423683Y-72810612D01*
X146253163Y-72731097D01*
X146253159Y-72731096D01*
X146253155Y-72731094D01*
X146024913Y-72669938D01*
X146024903Y-72669936D01*
X145789501Y-72649341D01*
X145789499Y-72649341D01*
X145554096Y-72669936D01*
X145554086Y-72669938D01*
X145325844Y-72731094D01*
X145325835Y-72731098D01*
X145111671Y-72830964D01*
X145111669Y-72830965D01*
X144918097Y-72966505D01*
X144751005Y-73133597D01*
X144621075Y-73319158D01*
X144566498Y-73362783D01*
X144497000Y-73369977D01*
X144434645Y-73338454D01*
X144417925Y-73319158D01*
X144287994Y-73133597D01*
X144120902Y-72966506D01*
X144120895Y-72966501D01*
X144113307Y-72961188D01*
X144055199Y-72920500D01*
X143927334Y-72830967D01*
X143927330Y-72830965D01*
X143883683Y-72810612D01*
X143713163Y-72731097D01*
X143713159Y-72731096D01*
X143713155Y-72731094D01*
X143484913Y-72669938D01*
X143484903Y-72669936D01*
X143249501Y-72649341D01*
X143249499Y-72649341D01*
X143014096Y-72669936D01*
X143014086Y-72669938D01*
X142785844Y-72731094D01*
X142785835Y-72731098D01*
X142571671Y-72830964D01*
X142571669Y-72830965D01*
X142378097Y-72966505D01*
X142211005Y-73133597D01*
X142075465Y-73327169D01*
X142075464Y-73327171D01*
X141975598Y-73541335D01*
X141975594Y-73541344D01*
X141914438Y-73769586D01*
X141914436Y-73769596D01*
X141893841Y-74004999D01*
X129882977Y-74004999D01*
X130027593Y-73940612D01*
X130172230Y-73835526D01*
X130291859Y-73702665D01*
X130381250Y-73547835D01*
X130436497Y-73377803D01*
X130455185Y-73200000D01*
X130436497Y-73022197D01*
X130408873Y-72937181D01*
X130381252Y-72852170D01*
X130381249Y-72852164D01*
X130369010Y-72830965D01*
X130291859Y-72697335D01*
X130245003Y-72645296D01*
X130172235Y-72564478D01*
X130172232Y-72564476D01*
X130172231Y-72564475D01*
X130172230Y-72564474D01*
X130027593Y-72459388D01*
X129864267Y-72386671D01*
X129864265Y-72386670D01*
X129736594Y-72359533D01*
X129689391Y-72349500D01*
X129510609Y-72349500D01*
X129479954Y-72356015D01*
X129335733Y-72386670D01*
X129335728Y-72386672D01*
X129172408Y-72459387D01*
X129027768Y-72564475D01*
X128908140Y-72697336D01*
X128818750Y-72852164D01*
X128818747Y-72852170D01*
X128763504Y-73022192D01*
X128763503Y-73022194D01*
X128744815Y-73200000D01*
X109500500Y-73200000D01*
X109500500Y-71202706D01*
X109500618Y-71197297D01*
X109504750Y-71102660D01*
X109505796Y-71078711D01*
X112149500Y-71078711D01*
X112149500Y-71321288D01*
X112181161Y-71561785D01*
X112243947Y-71796104D01*
X112305345Y-71944331D01*
X112336776Y-72020212D01*
X112458064Y-72230289D01*
X112458066Y-72230292D01*
X112458067Y-72230293D01*
X112605733Y-72422736D01*
X112605739Y-72422743D01*
X112777256Y-72594260D01*
X112777263Y-72594266D01*
X112875879Y-72669936D01*
X112969711Y-72741936D01*
X113179788Y-72863224D01*
X113403900Y-72956054D01*
X113638211Y-73018838D01*
X113818586Y-73042584D01*
X113878711Y-73050500D01*
X113878712Y-73050500D01*
X114121289Y-73050500D01*
X114169388Y-73044167D01*
X114361789Y-73018838D01*
X114596100Y-72956054D01*
X114820212Y-72863224D01*
X115030289Y-72741936D01*
X115222738Y-72594265D01*
X115394265Y-72422738D01*
X115541936Y-72230289D01*
X115663224Y-72020212D01*
X115756054Y-71796100D01*
X115818838Y-71561789D01*
X115850500Y-71321288D01*
X115850500Y-71078712D01*
X115818838Y-70838211D01*
X115756054Y-70603900D01*
X115754439Y-70600000D01*
X138944815Y-70600000D01*
X138963503Y-70777805D01*
X138963504Y-70777807D01*
X139018747Y-70947829D01*
X139018750Y-70947835D01*
X139108141Y-71102665D01*
X139125808Y-71122286D01*
X139227764Y-71235521D01*
X139227767Y-71235523D01*
X139227770Y-71235526D01*
X139372407Y-71340612D01*
X139535733Y-71413329D01*
X139710609Y-71450500D01*
X139710610Y-71450500D01*
X139889389Y-71450500D01*
X139889391Y-71450500D01*
X140064267Y-71413329D01*
X140203223Y-71351461D01*
X140272472Y-71342177D01*
X140335749Y-71371805D01*
X140372962Y-71430940D01*
X140372297Y-71500807D01*
X140345809Y-71547712D01*
X140328140Y-71567335D01*
X140238750Y-71722164D01*
X140238747Y-71722170D01*
X140183504Y-71892192D01*
X140183503Y-71892194D01*
X140164815Y-72070000D01*
X140183503Y-72247805D01*
X140183504Y-72247807D01*
X140238747Y-72417829D01*
X140238750Y-72417835D01*
X140328141Y-72572665D01*
X140347590Y-72594265D01*
X140447764Y-72705521D01*
X140447767Y-72705523D01*
X140447770Y-72705526D01*
X140592407Y-72810612D01*
X140755733Y-72883329D01*
X140930609Y-72920500D01*
X140930610Y-72920500D01*
X141109389Y-72920500D01*
X141109391Y-72920500D01*
X141284267Y-72883329D01*
X141447593Y-72810612D01*
X141592230Y-72705526D01*
X141599605Y-72697336D01*
X141624274Y-72669938D01*
X141711859Y-72572665D01*
X141801250Y-72417835D01*
X141856497Y-72247803D01*
X141875185Y-72070000D01*
X141856497Y-71892197D01*
X141801250Y-71722165D01*
X141711859Y-71567335D01*
X141651957Y-71500807D01*
X141592235Y-71434478D01*
X141592232Y-71434476D01*
X141592231Y-71434475D01*
X141592230Y-71434474D01*
X141447593Y-71329388D01*
X141284267Y-71256671D01*
X141284265Y-71256670D01*
X141156594Y-71229533D01*
X141109391Y-71219500D01*
X140930609Y-71219500D01*
X140899954Y-71226015D01*
X140755733Y-71256670D01*
X140755728Y-71256672D01*
X140616777Y-71318538D01*
X140547527Y-71327823D01*
X140484250Y-71298195D01*
X140447037Y-71239060D01*
X140447702Y-71169193D01*
X140474189Y-71122289D01*
X140491859Y-71102665D01*
X140581250Y-70947835D01*
X140636497Y-70777803D01*
X140655185Y-70600000D01*
X140636497Y-70422197D01*
X140604910Y-70324983D01*
X163899500Y-70324983D01*
X163899500Y-71675001D01*
X163899501Y-71675018D01*
X163910000Y-71777796D01*
X163910001Y-71777799D01*
X163916067Y-71796104D01*
X163965186Y-71944334D01*
X164057288Y-72093656D01*
X164181344Y-72217712D01*
X164330666Y-72309814D01*
X164497203Y-72364999D01*
X164599991Y-72375500D01*
X165400008Y-72375499D01*
X165400016Y-72375498D01*
X165400019Y-72375498D01*
X165456302Y-72369748D01*
X165502797Y-72364999D01*
X165669334Y-72309814D01*
X165818656Y-72217712D01*
X165942712Y-72093656D01*
X166034814Y-71944334D01*
X166089999Y-71777797D01*
X166100500Y-71675009D01*
X166100499Y-70638389D01*
X167899500Y-70638389D01*
X167899500Y-71361611D01*
X167926598Y-71532701D01*
X167980127Y-71697445D01*
X168058768Y-71851788D01*
X168160586Y-71991928D01*
X168283072Y-72114414D01*
X168423212Y-72216232D01*
X168577555Y-72294873D01*
X168742299Y-72348402D01*
X168913389Y-72375500D01*
X168913390Y-72375500D01*
X169086610Y-72375500D01*
X169086611Y-72375500D01*
X169257701Y-72348402D01*
X169422445Y-72294873D01*
X169576788Y-72216232D01*
X169716928Y-72114414D01*
X169839414Y-71991928D01*
X169941232Y-71851788D01*
X170019873Y-71697445D01*
X170073402Y-71532701D01*
X170100500Y-71361611D01*
X170100500Y-71078711D01*
X178149500Y-71078711D01*
X178149500Y-71321288D01*
X178181161Y-71561785D01*
X178243947Y-71796104D01*
X178305345Y-71944331D01*
X178336776Y-72020212D01*
X178458064Y-72230289D01*
X178458066Y-72230292D01*
X178458067Y-72230293D01*
X178605733Y-72422736D01*
X178605739Y-72422743D01*
X178777256Y-72594260D01*
X178777263Y-72594266D01*
X178875879Y-72669936D01*
X178969711Y-72741936D01*
X179179788Y-72863224D01*
X179403900Y-72956054D01*
X179638211Y-73018838D01*
X179818586Y-73042584D01*
X179878711Y-73050500D01*
X179878712Y-73050500D01*
X180121289Y-73050500D01*
X180169388Y-73044167D01*
X180361789Y-73018838D01*
X180596100Y-72956054D01*
X180820212Y-72863224D01*
X181030289Y-72741936D01*
X181222738Y-72594265D01*
X181394265Y-72422738D01*
X181541936Y-72230289D01*
X181663224Y-72020212D01*
X181756054Y-71796100D01*
X181818838Y-71561789D01*
X181850500Y-71321288D01*
X181850500Y-71078712D01*
X181818838Y-70838211D01*
X181756054Y-70603900D01*
X181663224Y-70379788D01*
X181541936Y-70169711D01*
X181442963Y-70040727D01*
X181394266Y-69977263D01*
X181394260Y-69977256D01*
X181222743Y-69805739D01*
X181222736Y-69805733D01*
X181030293Y-69658067D01*
X181030292Y-69658066D01*
X181030289Y-69658064D01*
X180820212Y-69536776D01*
X180737856Y-69502663D01*
X180596104Y-69443947D01*
X180361785Y-69381161D01*
X180121289Y-69349500D01*
X180121288Y-69349500D01*
X179878712Y-69349500D01*
X179878711Y-69349500D01*
X179638214Y-69381161D01*
X179403895Y-69443947D01*
X179179794Y-69536773D01*
X179179785Y-69536777D01*
X179027844Y-69624501D01*
X178980911Y-69651598D01*
X178969706Y-69658067D01*
X178777263Y-69805733D01*
X178777256Y-69805739D01*
X178605739Y-69977256D01*
X178605733Y-69977263D01*
X178458067Y-70169706D01*
X178336777Y-70379785D01*
X178336773Y-70379794D01*
X178243947Y-70603895D01*
X178181161Y-70838214D01*
X178149500Y-71078711D01*
X170100500Y-71078711D01*
X170100500Y-70638389D01*
X170073402Y-70467299D01*
X170019873Y-70302555D01*
X169941232Y-70148212D01*
X169839414Y-70008072D01*
X169716928Y-69885586D01*
X169576788Y-69783768D01*
X169422445Y-69705127D01*
X169257701Y-69651598D01*
X169257699Y-69651597D01*
X169257698Y-69651597D01*
X169116071Y-69629166D01*
X169086611Y-69624500D01*
X168913389Y-69624500D01*
X168883929Y-69629166D01*
X168742302Y-69651597D01*
X168577552Y-69705128D01*
X168423211Y-69783768D01*
X168378887Y-69815972D01*
X168283072Y-69885586D01*
X168283070Y-69885588D01*
X168283069Y-69885588D01*
X168160588Y-70008069D01*
X168160588Y-70008070D01*
X168160586Y-70008072D01*
X168136861Y-70040727D01*
X168058768Y-70148211D01*
X167980128Y-70302552D01*
X167926597Y-70467302D01*
X167899500Y-70638389D01*
X166100499Y-70638389D01*
X166100499Y-70324992D01*
X166089999Y-70222203D01*
X166034814Y-70055666D01*
X165942712Y-69906344D01*
X165818656Y-69782288D01*
X165717270Y-69719753D01*
X165669336Y-69690187D01*
X165669331Y-69690185D01*
X165667862Y-69689698D01*
X165502797Y-69635001D01*
X165502795Y-69635000D01*
X165400010Y-69624500D01*
X164599998Y-69624500D01*
X164599980Y-69624501D01*
X164497203Y-69635000D01*
X164497200Y-69635001D01*
X164330668Y-69690185D01*
X164330663Y-69690187D01*
X164181342Y-69782289D01*
X164057289Y-69906342D01*
X163965187Y-70055663D01*
X163965186Y-70055666D01*
X163910001Y-70222203D01*
X163910001Y-70222204D01*
X163910000Y-70222204D01*
X163899500Y-70324983D01*
X140604910Y-70324983D01*
X140581252Y-70252170D01*
X140581249Y-70252164D01*
X140491859Y-70097335D01*
X140415539Y-70012573D01*
X140385309Y-69949582D01*
X140393934Y-69880246D01*
X140438676Y-69826581D01*
X140458720Y-69816849D01*
X140458330Y-69815972D01*
X140464265Y-69813329D01*
X140464267Y-69813329D01*
X140627593Y-69740612D01*
X140772230Y-69635526D01*
X140891859Y-69502665D01*
X140981250Y-69347835D01*
X141036497Y-69177803D01*
X141055185Y-69000000D01*
X141040470Y-68860000D01*
X144424815Y-68860000D01*
X144443503Y-69037805D01*
X144443504Y-69037807D01*
X144498747Y-69207829D01*
X144498750Y-69207835D01*
X144588141Y-69362665D01*
X144604795Y-69381161D01*
X144707764Y-69495521D01*
X144707767Y-69495523D01*
X144707770Y-69495526D01*
X144852407Y-69600612D01*
X145015733Y-69673329D01*
X145190609Y-69710500D01*
X145190610Y-69710500D01*
X145369389Y-69710500D01*
X145369391Y-69710500D01*
X145544267Y-69673329D01*
X145707593Y-69600612D01*
X145852230Y-69495526D01*
X145971859Y-69362665D01*
X146061250Y-69207835D01*
X146116497Y-69037803D01*
X146135185Y-68860000D01*
X146116497Y-68682197D01*
X146061250Y-68512165D01*
X145971859Y-68357335D01*
X145925003Y-68305296D01*
X145852235Y-68224478D01*
X145852232Y-68224476D01*
X145852231Y-68224475D01*
X145852230Y-68224474D01*
X145707593Y-68119388D01*
X145544267Y-68046671D01*
X145544265Y-68046670D01*
X145411135Y-68018373D01*
X145369391Y-68009500D01*
X145190609Y-68009500D01*
X145159954Y-68016015D01*
X145015733Y-68046670D01*
X145015728Y-68046672D01*
X144852408Y-68119387D01*
X144707768Y-68224475D01*
X144588140Y-68357336D01*
X144498750Y-68512164D01*
X144498747Y-68512170D01*
X144443504Y-68682192D01*
X144443503Y-68682194D01*
X144424815Y-68860000D01*
X141040470Y-68860000D01*
X141036497Y-68822197D01*
X140991007Y-68682194D01*
X140981252Y-68652170D01*
X140981249Y-68652164D01*
X140891859Y-68497335D01*
X140845003Y-68445296D01*
X140772235Y-68364478D01*
X140772232Y-68364476D01*
X140772231Y-68364475D01*
X140772230Y-68364474D01*
X140627593Y-68259388D01*
X140464267Y-68186671D01*
X140464265Y-68186670D01*
X140336594Y-68159533D01*
X140289391Y-68149500D01*
X140110609Y-68149500D01*
X140079954Y-68156015D01*
X139935733Y-68186670D01*
X139935728Y-68186672D01*
X139772408Y-68259387D01*
X139627768Y-68364475D01*
X139508140Y-68497336D01*
X139418750Y-68652164D01*
X139418747Y-68652170D01*
X139363504Y-68822192D01*
X139363503Y-68822194D01*
X139344815Y-69000000D01*
X139363503Y-69177805D01*
X139363504Y-69177807D01*
X139418747Y-69347829D01*
X139418750Y-69347835D01*
X139508141Y-69502665D01*
X139538852Y-69536773D01*
X139584460Y-69587426D01*
X139614690Y-69650418D01*
X139606065Y-69719753D01*
X139561323Y-69773418D01*
X139541282Y-69783157D01*
X139541670Y-69784027D01*
X139372408Y-69859387D01*
X139227768Y-69964475D01*
X139108140Y-70097336D01*
X139018750Y-70252164D01*
X139018747Y-70252170D01*
X138963504Y-70422192D01*
X138963503Y-70422194D01*
X138944815Y-70600000D01*
X115754439Y-70600000D01*
X115663224Y-70379788D01*
X115541936Y-70169711D01*
X115442963Y-70040727D01*
X115394266Y-69977263D01*
X115394260Y-69977256D01*
X115222743Y-69805739D01*
X115222736Y-69805733D01*
X115030293Y-69658067D01*
X115030292Y-69658066D01*
X115030289Y-69658064D01*
X114820212Y-69536776D01*
X114737856Y-69502663D01*
X114596104Y-69443947D01*
X114432093Y-69400000D01*
X124744815Y-69400000D01*
X124763503Y-69577805D01*
X124763504Y-69577807D01*
X124818747Y-69747829D01*
X124818750Y-69747835D01*
X124908141Y-69902665D01*
X124911454Y-69906344D01*
X125027764Y-70035521D01*
X125027767Y-70035523D01*
X125027770Y-70035526D01*
X125172407Y-70140612D01*
X125335733Y-70213329D01*
X125510609Y-70250500D01*
X125510610Y-70250500D01*
X125689389Y-70250500D01*
X125689391Y-70250500D01*
X125864267Y-70213329D01*
X126027593Y-70140612D01*
X126172230Y-70035526D01*
X126176956Y-70030278D01*
X126224691Y-69977262D01*
X126291859Y-69902665D01*
X126381250Y-69747835D01*
X126436497Y-69577803D01*
X126455185Y-69400000D01*
X126436497Y-69222197D01*
X126381250Y-69052165D01*
X126291859Y-68897335D01*
X126245003Y-68845296D01*
X126172235Y-68764478D01*
X126172232Y-68764476D01*
X126172231Y-68764475D01*
X126172230Y-68764474D01*
X126027593Y-68659388D01*
X125864267Y-68586671D01*
X125864265Y-68586670D01*
X125736594Y-68559533D01*
X125689391Y-68549500D01*
X125510609Y-68549500D01*
X125479954Y-68556015D01*
X125335733Y-68586670D01*
X125335728Y-68586672D01*
X125172408Y-68659387D01*
X125027768Y-68764475D01*
X124908140Y-68897336D01*
X124818750Y-69052164D01*
X124818747Y-69052170D01*
X124763504Y-69222192D01*
X124763503Y-69222194D01*
X124744815Y-69400000D01*
X114432093Y-69400000D01*
X114361785Y-69381161D01*
X114121289Y-69349500D01*
X114121288Y-69349500D01*
X113878712Y-69349500D01*
X113878711Y-69349500D01*
X113638214Y-69381161D01*
X113403895Y-69443947D01*
X113179794Y-69536773D01*
X113179785Y-69536777D01*
X113027844Y-69624501D01*
X112980911Y-69651598D01*
X112969706Y-69658067D01*
X112777263Y-69805733D01*
X112777256Y-69805739D01*
X112605739Y-69977256D01*
X112605733Y-69977263D01*
X112458067Y-70169706D01*
X112336777Y-70379785D01*
X112336773Y-70379794D01*
X112243947Y-70603895D01*
X112181161Y-70838214D01*
X112149500Y-71078711D01*
X109505796Y-71078711D01*
X109517386Y-70813226D01*
X109518326Y-70802495D01*
X109568152Y-70424025D01*
X109570025Y-70413405D01*
X109652649Y-70040709D01*
X109655440Y-70030295D01*
X109770230Y-69666227D01*
X109773917Y-69656095D01*
X109920003Y-69303412D01*
X109924561Y-69293638D01*
X110100822Y-68955045D01*
X110106217Y-68945700D01*
X110311325Y-68623744D01*
X110317515Y-68614905D01*
X110549896Y-68312060D01*
X110556834Y-68303791D01*
X110814726Y-68022352D01*
X110822352Y-68014726D01*
X111103791Y-67756834D01*
X111112060Y-67749896D01*
X111414905Y-67517515D01*
X111423744Y-67511325D01*
X111745700Y-67306217D01*
X111755045Y-67300822D01*
X112093638Y-67124561D01*
X112103412Y-67120003D01*
X112456095Y-66973917D01*
X112466227Y-66970230D01*
X112830295Y-66855440D01*
X112840709Y-66852649D01*
X113213405Y-66770025D01*
X113224025Y-66768152D01*
X113602495Y-66718326D01*
X113613226Y-66717386D01*
X113997297Y-66700617D01*
X114002706Y-66700500D01*
X114065892Y-66700500D01*
X179934108Y-66700500D01*
X179997294Y-66700500D01*
X180002702Y-66700617D01*
G37*
%TD.AperFunction*%
%TD*%
M02*
