%TF.GenerationSoftware,KiCad,Pcbnew,8.0.7*%
%TF.CreationDate,2024-12-26T23:36:23+07:00*%
%TF.ProjectId,Teensy4.0PCB,5465656e-7379-4342-9e30-5043422e6b69,rev?*%
%TF.SameCoordinates,Original*%
%TF.FileFunction,Soldermask,Top*%
%TF.FilePolarity,Negative*%
%FSLAX46Y46*%
G04 Gerber Fmt 4.6, Leading zero omitted, Abs format (unit mm)*
G04 Created by KiCad (PCBNEW 8.0.7) date 2024-12-26 23:36:23*
%MOMM*%
%LPD*%
G01*
G04 APERTURE LIST*
G04 Aperture macros list*
%AMRoundRect*
0 Rectangle with rounded corners*
0 $1 Rounding radius*
0 $2 $3 $4 $5 $6 $7 $8 $9 X,Y pos of 4 corners*
0 Add a 4 corners polygon primitive as box body*
4,1,4,$2,$3,$4,$5,$6,$7,$8,$9,$2,$3,0*
0 Add four circle primitives for the rounded corners*
1,1,$1+$1,$2,$3*
1,1,$1+$1,$4,$5*
1,1,$1+$1,$6,$7*
1,1,$1+$1,$8,$9*
0 Add four rect primitives between the rounded corners*
20,1,$1+$1,$2,$3,$4,$5,0*
20,1,$1+$1,$4,$5,$6,$7,0*
20,1,$1+$1,$6,$7,$8,$9,0*
20,1,$1+$1,$8,$9,$2,$3,0*%
G04 Aperture macros list end*
%ADD10RoundRect,0.250000X-0.337500X-0.475000X0.337500X-0.475000X0.337500X0.475000X-0.337500X0.475000X0*%
%ADD11RoundRect,0.237500X0.237500X-0.250000X0.237500X0.250000X-0.237500X0.250000X-0.237500X-0.250000X0*%
%ADD12R,1.700000X1.700000*%
%ADD13O,1.700000X1.700000*%
%ADD14C,2.000000*%
%ADD15RoundRect,0.237500X-0.300000X-0.237500X0.300000X-0.237500X0.300000X0.237500X-0.300000X0.237500X0*%
%ADD16C,3.200000*%
%ADD17RoundRect,0.237500X0.237500X-0.300000X0.237500X0.300000X-0.237500X0.300000X-0.237500X-0.300000X0*%
%ADD18R,0.675000X0.254000*%
%ADD19R,0.254000X0.675000*%
%ADD20RoundRect,0.237500X-0.237500X0.250000X-0.237500X-0.250000X0.237500X-0.250000X0.237500X0.250000X0*%
%ADD21RoundRect,0.250000X-0.350000X-0.625000X0.350000X-0.625000X0.350000X0.625000X-0.350000X0.625000X0*%
%ADD22O,1.200000X1.750000*%
%ADD23R,2.600000X2.600000*%
%ADD24C,2.600000*%
%ADD25RoundRect,0.237500X-0.250000X-0.237500X0.250000X-0.237500X0.250000X0.237500X-0.250000X0.237500X0*%
%ADD26R,0.850000X0.300000*%
%ADD27R,0.939800X2.489200*%
%ADD28R,5.562600X6.299200*%
%ADD29RoundRect,0.250000X0.475000X-0.337500X0.475000X0.337500X-0.475000X0.337500X-0.475000X-0.337500X0*%
%ADD30RoundRect,0.237500X-0.237500X0.300000X-0.237500X-0.300000X0.237500X-0.300000X0.237500X0.300000X0*%
%ADD31C,1.700000*%
%ADD32C,1.404000*%
%ADD33C,1.304000*%
%ADD34C,0.804000*%
%ADD35R,1.475000X0.450000*%
G04 APERTURE END LIST*
D10*
%TO.C,C9*%
X113000000Y-80000000D03*
X115075000Y-80000000D03*
%TD*%
D11*
%TO.C,R3*%
X122400000Y-81512500D03*
X122400000Y-79687500D03*
%TD*%
D12*
%TO.C,3.3V*%
X153650000Y-120540000D03*
D13*
X153650000Y-118000000D03*
X153650000Y-115460000D03*
%TD*%
D10*
%TO.C,C12*%
X153372500Y-84430000D03*
X155447500Y-84430000D03*
%TD*%
D14*
%TO.C,Button1*%
X148750000Y-104750000D03*
X155250000Y-104750000D03*
X148750000Y-109250000D03*
X155250000Y-109250000D03*
%TD*%
D12*
%TO.C,5V*%
X149000000Y-120540000D03*
D13*
X149000000Y-118000000D03*
X149000000Y-115460000D03*
%TD*%
D15*
%TO.C,C5*%
X134137500Y-77400000D03*
X135862500Y-77400000D03*
%TD*%
D16*
%TO.C,H3*%
X180000000Y-119200000D03*
%TD*%
D11*
%TO.C,R4*%
X158400000Y-109712500D03*
X158400000Y-107887500D03*
%TD*%
D16*
%TO.C,H4*%
X180000000Y-71200000D03*
%TD*%
D12*
%TO.C,GND*%
X144350000Y-120540000D03*
D13*
X144350000Y-118000000D03*
X144350000Y-115460000D03*
%TD*%
D17*
%TO.C,C6*%
X125400000Y-81462500D03*
X125400000Y-79737500D03*
%TD*%
%TO.C,C11*%
X159010000Y-94532500D03*
X159010000Y-92807500D03*
%TD*%
D18*
%TO.C,U3*%
X134787500Y-73837500D03*
D19*
X135700000Y-73975000D03*
X136200000Y-73975000D03*
X136700000Y-73975000D03*
X137200000Y-73975000D03*
D18*
X138112500Y-73837500D03*
X138112500Y-73337500D03*
X138112500Y-72837500D03*
X138112500Y-72337500D03*
X138112500Y-71837500D03*
X138112500Y-71337500D03*
X138112500Y-70837500D03*
X138112500Y-70337500D03*
X138112500Y-69837500D03*
X138112500Y-69337500D03*
D19*
X137200000Y-69200000D03*
X136700000Y-69200000D03*
X136200000Y-69200000D03*
X135700000Y-69200000D03*
D18*
X134787500Y-69337500D03*
X134787500Y-69837500D03*
X134787500Y-70337500D03*
X134787500Y-70837500D03*
X134787500Y-71337500D03*
X134787500Y-71837500D03*
X134787500Y-72337500D03*
X134787500Y-72837500D03*
X134787500Y-73337500D03*
%TD*%
D20*
%TO.C,R5*%
X144000000Y-69487500D03*
X144000000Y-71312500D03*
%TD*%
D11*
%TO.C,R6*%
X142400000Y-71312500D03*
X142400000Y-69487500D03*
%TD*%
D16*
%TO.C,H1*%
X114000000Y-71200000D03*
%TD*%
D17*
%TO.C,C7*%
X129800000Y-81262500D03*
X129800000Y-79537500D03*
%TD*%
D21*
%TO.C,servo11*%
X165000000Y-71000000D03*
D22*
X167000000Y-71000000D03*
X169000000Y-71000000D03*
%TD*%
D10*
%TO.C,C10*%
X152972500Y-86870000D03*
X155047500Y-86870000D03*
%TD*%
D23*
%TO.C,Main-Terminal1*%
X115695000Y-107455000D03*
D24*
X115695000Y-112535000D03*
%TD*%
D22*
%TO.C,servo10*%
X180000000Y-105500000D03*
X178000000Y-105500000D03*
D21*
X176000000Y-105500000D03*
%TD*%
D25*
%TO.C,R2*%
X134087500Y-75800000D03*
X135912500Y-75800000D03*
%TD*%
D15*
%TO.C,C2*%
X130137500Y-76000000D03*
X131862500Y-76000000D03*
%TD*%
D21*
%TO.C,servo1*%
X165000000Y-85450000D03*
D22*
X167000000Y-85450000D03*
X169000000Y-85450000D03*
%TD*%
D12*
%TO.C,S4*%
X132490000Y-117990000D03*
D13*
X132490000Y-120530000D03*
%TD*%
D21*
%TO.C,servo9*%
X165000000Y-112450000D03*
D22*
X167000000Y-112450000D03*
X169000000Y-112450000D03*
%TD*%
%TO.C,servo3*%
X180000000Y-85050000D03*
X178000000Y-85050000D03*
D21*
X176000000Y-85050000D03*
%TD*%
D22*
%TO.C,servo7*%
X180000000Y-91500000D03*
X178000000Y-91500000D03*
D21*
X176000000Y-91500000D03*
%TD*%
D26*
%TO.C,IC2*%
X136575000Y-80750000D03*
X136575000Y-80250000D03*
X136575000Y-79750000D03*
X136575000Y-79250000D03*
X133425000Y-79250000D03*
X133425000Y-79750000D03*
X133425000Y-80250000D03*
X133425000Y-80750000D03*
%TD*%
D22*
%TO.C,servo5*%
X180000000Y-98500000D03*
X178000000Y-98500000D03*
D21*
X176000000Y-98500000D03*
%TD*%
%TO.C,servo8*%
X165000000Y-99000000D03*
D22*
X167000000Y-99000000D03*
X169000000Y-99000000D03*
%TD*%
D16*
%TO.C,H2*%
X114000000Y-119200000D03*
%TD*%
D27*
%TO.C,50R1*%
X155696000Y-90140800D03*
X151124000Y-90140800D03*
D28*
X153410000Y-98294200D03*
%TD*%
D29*
%TO.C,C1*%
X148600000Y-91837500D03*
X148600000Y-89762500D03*
%TD*%
D21*
%TO.C,servo4*%
X165000000Y-92000000D03*
D22*
X167000000Y-92000000D03*
X169000000Y-92000000D03*
%TD*%
D30*
%TO.C,C13*%
X159000000Y-78275000D03*
X159000000Y-80000000D03*
%TD*%
D27*
%TO.C,33R1*%
X150428000Y-80000000D03*
X155000000Y-80000000D03*
D28*
X152714000Y-71846600D03*
%TD*%
D12*
%TO.C,S5*%
X137140000Y-117990000D03*
D13*
X137140000Y-120530000D03*
%TD*%
D17*
%TO.C,C4*%
X132800000Y-72862500D03*
X132800000Y-71137500D03*
%TD*%
D25*
%TO.C,R1*%
X138687500Y-81200000D03*
X140512500Y-81200000D03*
%TD*%
D22*
%TO.C,servo2*%
X180000000Y-78500000D03*
X178000000Y-78500000D03*
D21*
X176000000Y-78500000D03*
%TD*%
D12*
%TO.C,J2*%
X127460000Y-107000000D03*
D13*
X130000000Y-107000000D03*
X132540000Y-107000000D03*
X135080000Y-107000000D03*
%TD*%
D17*
%TO.C,C3*%
X130930000Y-71510000D03*
X130930000Y-69785000D03*
%TD*%
D12*
%TO.C,S3*%
X127840000Y-117990000D03*
D13*
X127840000Y-120530000D03*
%TD*%
D21*
%TO.C,servo6*%
X165000000Y-106000000D03*
D22*
X167000000Y-106000000D03*
X169000000Y-106000000D03*
%TD*%
D21*
%TO.C,servo13*%
X165000000Y-78450000D03*
D22*
X167000000Y-78450000D03*
X169000000Y-78450000D03*
%TD*%
D15*
%TO.C,C8*%
X113137500Y-84000000D03*
X114862500Y-84000000D03*
%TD*%
D12*
%TO.C,J1*%
X127460000Y-111650000D03*
D13*
X130000000Y-111650000D03*
X132540000Y-111650000D03*
X135080000Y-111650000D03*
%TD*%
D22*
%TO.C,servo12*%
X180000000Y-112250000D03*
X178000000Y-112250000D03*
D21*
X176000000Y-112250000D03*
%TD*%
D12*
%TO.C,U2*%
X145789500Y-81625000D03*
D31*
X143249500Y-81625000D03*
X145789500Y-79085000D03*
X143249500Y-79085000D03*
X145789500Y-76545000D03*
X143249500Y-76545000D03*
X145789500Y-74005000D03*
X143249500Y-74005000D03*
%TD*%
D32*
%TO.C,U1*%
X111725000Y-102620000D03*
X114265000Y-102620000D03*
X116805000Y-102620000D03*
X119345000Y-102620000D03*
X121885000Y-102620000D03*
X124425000Y-102620000D03*
X126965000Y-102620000D03*
X129505000Y-102620000D03*
X132045000Y-102620000D03*
X134585000Y-102620000D03*
X137125000Y-102620000D03*
X139665000Y-102620000D03*
X142205000Y-102620000D03*
X144745000Y-102620000D03*
X144745000Y-100080000D03*
X144745000Y-97540000D03*
X144745000Y-95000000D03*
X144745000Y-92460000D03*
X144745000Y-89920000D03*
X144745000Y-87380000D03*
X142205000Y-87380000D03*
X139665000Y-87380000D03*
X137125000Y-87380000D03*
X134585000Y-87380000D03*
X132045000Y-87380000D03*
X129505000Y-87380000D03*
X126965000Y-87380000D03*
X124425000Y-87380000D03*
X121885000Y-87380000D03*
X119345000Y-87380000D03*
X116805000Y-87380000D03*
X114265000Y-87380000D03*
X111725000Y-87380000D03*
X114265000Y-89920000D03*
D33*
X139665000Y-89920000D03*
X137125000Y-89920000D03*
X139665000Y-92460000D03*
X137125000Y-92460000D03*
X139665000Y-95000000D03*
X137125000Y-95000000D03*
X139665000Y-97540000D03*
X137125000Y-97540000D03*
X139665000Y-100080000D03*
X137125000Y-100080000D03*
D34*
X118863400Y-91500000D03*
X118863400Y-92500000D03*
X118863400Y-93500000D03*
X118863400Y-94500000D03*
X118863400Y-95500000D03*
X118863400Y-96500000D03*
X118863400Y-97500000D03*
X118863400Y-98500000D03*
D33*
X112995000Y-93730000D03*
X112995000Y-96270000D03*
%TD*%
D35*
%TO.C,IC1*%
X119662000Y-70675000D03*
X119662000Y-71325000D03*
X119662000Y-71975000D03*
X119662000Y-72625000D03*
X119662000Y-73275000D03*
X119662000Y-73925000D03*
X119662000Y-74575000D03*
X119662000Y-75225000D03*
X119662000Y-75875000D03*
X119662000Y-76525000D03*
X125538000Y-76525000D03*
X125538000Y-75875000D03*
X125538000Y-75225000D03*
X125538000Y-74575000D03*
X125538000Y-73925000D03*
X125538000Y-73275000D03*
X125538000Y-72625000D03*
X125538000Y-71975000D03*
X125538000Y-71325000D03*
X125538000Y-70675000D03*
%TD*%
M02*
