M48
; DRILL file {KiCad 8.0.7} date 2024-12-26T23:36:27+0700
; FORMAT={-:-/ absolute / inch / decimal}
; #@! TF.CreationDate,2024-12-26T23:36:27+07:00
; #@! TF.GenerationSoftware,Kicad,Pcbnew,8.0.7
; #@! TF.FileFunction,Plated,1,4,PTH
FMAT,2
INCH
; #@! TA.AperFunction,Plated,PTH,ViaDrill
T1C0.0118
; #@! TA.AperFunction,Plated,PTH,ComponentDrill
T2C0.0197
; #@! TA.AperFunction,Plated,PTH,ComponentDrill
T3C0.0295
; #@! TA.AperFunction,Plated,PTH,ComponentDrill
T4C0.0394
; #@! TA.AperFunction,Plated,PTH,ComponentDrill
T5C0.0433
; #@! TA.AperFunction,Plated,PTH,ComponentDrill
T6C0.0512
%
G90
G05
T1
X4.5181Y-3.9441
X4.5965Y-3.3366
X4.6177Y-3.565
X4.6772Y-3.1417
X4.685Y-3.0866
X4.7244Y-3.0866
X4.7811Y-3.5472
X4.8504Y-3.2913
X4.8994Y-3.9659
X4.9431Y-3.7551
X4.9449Y-2.7323
X4.9528Y-3.0866
X4.9843Y-3.8268
X4.993Y-3.0237
X5.0236Y-3.0866
X5.0236Y-3.189
X5.1024Y-2.8819
X5.1819Y-3.2031
X5.189Y-3.126
X5.2669Y-3.2287
X5.276Y-3.7965
X5.4173Y-3.0787
X5.4567Y-3.0709
X5.4724Y-2.9528
X5.4838Y-3.2485
X5.5039Y-2.7795
X5.5197Y-2.7165
X5.552Y-2.8374
X5.7197Y-2.711
X5.8031Y-3.4646
X5.8327Y-3.7669
X6.0051Y-3.1429
X6.0366Y-3.5189
X6.2055Y-3.2457
X6.2598Y-2.9091
X6.261Y-3.9917
X6.2677Y-4.1654
X6.3398Y-3.3197
X6.3413Y-3.4236
T2
X4.6797Y-3.6024
X4.6797Y-3.6417
X4.6797Y-3.6811
X4.6797Y-3.7205
X4.6797Y-3.7598
X4.6797Y-3.7992
X4.6797Y-3.8386
X4.6797Y-3.878
T3
X6.4961Y-2.7953
X6.4961Y-3.0886
X6.4961Y-3.3642
X6.4961Y-3.622
X6.4961Y-3.8976
X6.4961Y-4.1732
X6.4961Y-4.4272
X6.5748Y-2.7953
X6.5748Y-3.0886
X6.5748Y-3.3642
X6.5748Y-3.622
X6.5748Y-3.8976
X6.5748Y-4.1732
X6.5748Y-4.4272
X6.6535Y-2.7953
X6.6535Y-3.0886
X6.6535Y-3.3642
X6.6535Y-3.622
X6.6535Y-3.8976
X6.6535Y-4.1732
X6.6535Y-4.4272
X6.9291Y-3.0906
X6.9291Y-3.3484
X6.9291Y-3.6024
X6.9291Y-3.878
X6.9291Y-4.1535
X6.9291Y-4.4193
X7.0079Y-3.0906
X7.0079Y-3.3484
X7.0079Y-3.6024
X7.0079Y-3.878
X7.0079Y-4.1535
X7.0079Y-4.4193
X7.0866Y-3.0906
X7.0866Y-3.3484
X7.0866Y-3.6024
X7.0866Y-3.878
X7.0866Y-4.1535
X7.0866Y-4.4193
T4
X4.4486Y-3.6902
X4.4486Y-3.7902
X5.0181Y-4.2126
X5.0181Y-4.3957
X5.0331Y-4.6453
X5.0331Y-4.7453
X5.1181Y-4.2126
X5.1181Y-4.3957
X5.2161Y-4.6453
X5.2161Y-4.7453
X5.2181Y-4.2126
X5.2181Y-4.3957
X5.3181Y-4.2126
X5.3181Y-4.3957
X5.3986Y-3.5402
X5.3986Y-3.6402
X5.3986Y-3.7402
X5.3986Y-3.8402
X5.3986Y-3.9402
X5.3992Y-4.6453
X5.3992Y-4.7453
X5.4986Y-3.5402
X5.4986Y-3.6402
X5.4986Y-3.7402
X5.4986Y-3.8402
X5.4986Y-3.9402
X5.6397Y-2.9136
X5.6397Y-3.0136
X5.6397Y-3.1136
X5.6397Y-3.2136
X5.6831Y-4.5457
X5.6831Y-4.6457
X5.6831Y-4.7457
X5.7397Y-2.9136
X5.7397Y-3.0136
X5.7397Y-3.1136
X5.7397Y-3.2136
X5.8661Y-4.5457
X5.8661Y-4.6457
X5.8661Y-4.7457
X6.0492Y-4.5457
X6.0492Y-4.6457
X6.0492Y-4.7457
T5
X4.3986Y-3.4402
X4.3986Y-4.0402
X4.4986Y-3.4402
X4.4986Y-3.5402
X4.4986Y-4.0402
X4.5986Y-3.4402
X4.5986Y-4.0402
X4.6986Y-3.4402
X4.6986Y-4.0402
X4.7986Y-3.4402
X4.7986Y-4.0402
X4.8986Y-3.4402
X4.8986Y-4.0402
X4.9986Y-3.4402
X4.9986Y-4.0402
X5.0986Y-3.4402
X5.0986Y-4.0402
X5.1986Y-3.4402
X5.1986Y-4.0402
X5.2986Y-3.4402
X5.2986Y-4.0402
X5.3986Y-3.4402
X5.3986Y-4.0402
X5.4986Y-3.4402
X5.4986Y-4.0402
X5.5986Y-3.4402
X5.5986Y-4.0402
X5.6986Y-3.4402
X5.6986Y-3.5402
X5.6986Y-3.6402
X5.6986Y-3.7402
X5.6986Y-3.8402
X5.6986Y-3.9402
X5.6986Y-4.0402
X5.8563Y-4.124
X5.8563Y-4.3012
X6.1122Y-4.124
X6.1122Y-4.3012
T6
X4.5549Y-4.2305
X4.5549Y-4.4305
M30
